<svg id="svg" version="1.1" xmlns="http://www.w3.org/2000/svg" xmlns:xlink="http://www.w3.org/1999/xlink" width="400" height="333.9130434782609" viewBox="0, 0, 400,333.9130434782609"><g id="svgg"><path id="path0" d="M188.304 26.044 C 181.827 26.674,172.573 28.485,170.927 29.443 C 170.744 29.550,169.841 29.835,168.922 30.076 C 168.003 30.316,167.097 30.630,166.909 30.774 C 166.721 30.917,165.848 31.279,164.969 31.577 C 164.091 31.875,162.622 32.562,161.705 33.102 C 160.788 33.643,159.920 34.085,159.777 34.085 C 159.635 34.085,158.927 34.532,158.205 35.078 C 157.483 35.625,156.769 36.076,156.619 36.081 C 155.834 36.108,147.421 43.225,147.384 43.894 C 147.376 44.051,146.615 45.104,145.694 46.233 C 143.504 48.921,143.547 48.855,141.631 52.464 C 141.289 53.108,140.872 53.860,140.704 54.135 C 140.162 55.023,139.083 57.598,138.532 59.315 C 138.238 60.234,137.854 61.287,137.679 61.654 C 134.048 69.297,133.255 96.944,136.447 104.595 C 137.544 107.222,137.826 136.542,136.759 136.882 C 136.437 136.984,135.647 137.343,135.004 137.678 C 134.361 138.014,133.271 138.394,132.581 138.522 C 131.892 138.650,131.328 138.858,131.328 138.984 C 131.328 139.111,130.816 139.399,130.191 139.625 C 127.349 140.653,125.677 148.340,127.788 150.674 C 128.683 151.665,133.203 151.592,136.591 150.533 L 137.343 150.298 137.322 174.314 C 137.307 190.956,137.156 200.637,136.830 205.848 C 135.193 231.986,134.912 237.215,134.764 244.277 C 134.663 249.117,134.744 253.348,134.977 255.305 C 135.185 257.051,135.574 260.434,135.842 262.824 C 136.576 269.384,138.746 282.042,139.310 283.050 C 139.467 283.331,139.789 284.684,140.026 286.058 C 140.263 287.431,140.568 288.705,140.702 288.889 C 140.837 289.073,141.121 290.125,141.335 291.228 C 141.548 292.331,141.860 293.534,142.028 293.901 C 142.196 294.269,142.577 295.547,142.876 296.742 C 143.174 297.937,143.535 299.064,143.679 299.248 C 143.822 299.432,144.131 300.401,144.366 301.401 C 144.882 303.599,147.149 306.097,149.227 306.758 C 149.951 306.988,150.844 307.359,151.211 307.583 C 151.579 307.807,152.857 308.189,154.052 308.431 C 155.246 308.674,156.374 308.982,156.558 309.117 C 156.742 309.251,158.246 309.539,159.900 309.756 C 161.554 309.973,163.659 310.297,164.578 310.477 C 175.974 312.704,215.879 312.677,227.569 310.435 C 228.580 310.241,230.835 309.871,232.581 309.613 C 236.400 309.049,240.581 308.182,241.270 307.812 C 241.546 307.664,242.673 307.267,243.776 306.931 C 244.879 306.594,246.180 306.043,246.668 305.707 C 247.156 305.371,247.638 305.096,247.739 305.096 C 248.726 305.096,252.173 299.254,252.965 296.241 C 253.206 295.322,253.513 294.419,253.647 294.236 C 253.781 294.052,253.995 293.375,254.122 292.732 C 254.249 292.089,254.432 291.280,254.530 290.936 C 254.635 290.568,254.571 290.394,254.376 290.514 C 254.193 290.627,253.946 291.244,253.826 291.884 C 253.385 294.233,250.218 300.016,249.053 300.598 C 248.671 300.789,248.153 301.116,247.901 301.325 C 246.642 302.369,239.214 304.472,234.586 305.093 C 233.024 305.303,231.145 305.615,230.409 305.788 C 223.841 307.332,187.286 308.318,181.454 307.109 C 180.627 306.938,177.236 306.638,173.918 306.444 C 170.601 306.250,167.443 305.951,166.901 305.779 C 166.358 305.608,164.714 305.305,163.246 305.107 C 154.869 303.975,150.934 301.832,149.562 297.655 C 149.064 296.142,148.526 294.603,148.365 294.236 C 148.205 293.868,147.761 292.364,147.380 290.894 C 145.065 281.962,144.280 278.479,142.713 270.175 C 142.050 266.664,141.386 261.866,141.370 260.468 C 141.361 259.723,141.165 258.926,140.936 258.697 C 140.345 258.106,140.344 228.222,140.934 225.564 C 141.159 224.553,141.586 219.064,141.884 213.367 C 142.182 207.669,142.547 201.278,142.695 199.165 C 143.195 192.033,143.091 144.932,142.575 145.130 C 142.328 145.225,141.276 145.409,140.236 145.538 C 139.197 145.668,138.346 145.887,138.346 146.025 C 138.346 146.162,137.707 146.363,136.926 146.470 C 136.145 146.577,134.866 146.767,134.085 146.892 C 132.799 147.098,132.665 147.055,132.665 146.428 C 132.665 146.048,132.515 145.644,132.331 145.530 C 132.147 145.417,131.997 144.891,131.997 144.361 C 131.997 143.831,132.147 143.305,132.331 143.191 C 132.515 143.078,132.665 142.706,132.665 142.366 C 132.665 141.719,134.436 140.018,135.113 140.015 C 135.329 140.014,135.904 139.804,136.392 139.550 C 136.880 139.296,137.857 138.900,138.564 138.671 C 139.271 138.441,140.564 137.946,141.437 137.569 L 143.024 136.884 143.004 122.327 C 142.993 114.320,142.860 107.093,142.708 106.266 C 141.812 101.401,141.295 99.004,141.015 98.413 C 139.710 95.661,139.685 72.645,140.983 69.674 C 141.144 69.307,141.507 67.803,141.790 66.332 C 142.834 60.908,145.685 53.903,148.608 49.581 C 151.499 45.306,152.624 43.939,155.289 41.464 C 166.323 31.213,182.293 26.032,201.492 26.474 C 204.904 26.553,206.917 26.493,206.338 26.331 C 204.950 25.943,191.536 25.730,188.304 26.044 M259.360 95.461 C 259.335 95.860,259.228 96.461,259.123 96.798 C 258.941 97.378,258.951 97.378,259.312 96.816 C 259.521 96.489,259.628 95.887,259.550 95.479 C 259.406 94.738,259.406 94.738,259.360 95.461 M258.981 135.450 C 258.981 135.537,259.466 135.776,260.059 135.983 C 260.652 136.190,260.991 136.221,260.811 136.053 C 260.431 135.697,258.981 135.219,258.981 135.450 M257.981 144.444 C 257.997 148.640,258.398 149.096,262.636 149.745 C 266.942 150.404,268.212 150.037,268.648 148.003 C 269.180 145.519,269.145 145.272,268.327 145.778 C 267.831 146.086,267.584 146.098,267.408 145.822 C 267.276 145.615,266.497 145.333,265.677 145.196 C 264.857 145.059,263.955 144.826,263.672 144.678 C 263.104 144.380,259.556 143.693,258.591 143.693 C 258.178 143.693,257.979 143.937,257.981 144.444 M255.513 285.560 C 255.399 285.859,255.318 286.354,255.334 286.661 C 255.349 286.967,255.495 286.774,255.657 286.232 C 255.972 285.178,255.860 284.656,255.513 285.560 M254.931 288.315 C 254.821 288.979,254.870 289.290,255.055 289.105 C 255.224 288.937,255.306 288.443,255.237 288.008 C 255.132 287.340,255.085 287.387,254.931 288.315 " stroke="none" fill="#0a0a0a" fill-rule="evenodd"></path><path id="path1" d="M191.312 26.731 C 176.528 28.142,164.201 33.184,155.289 41.464 C 152.624 43.939,151.499 45.306,148.608 49.581 C 145.685 53.903,142.834 60.908,141.790 66.332 C 141.507 67.803,141.144 69.307,140.983 69.674 C 139.685 72.645,139.710 95.661,141.015 98.413 C 141.295 99.004,141.812 101.401,142.708 106.266 C 142.860 107.093,142.993 114.320,143.004 122.327 L 143.024 136.884 141.437 137.569 C 140.564 137.946,139.271 138.441,138.564 138.671 C 137.857 138.900,136.880 139.296,136.392 139.550 C 135.904 139.804,135.329 140.014,135.113 140.015 C 134.436 140.018,132.665 141.719,132.665 142.366 C 132.665 142.706,132.515 143.078,132.331 143.191 C 131.897 143.459,131.897 145.262,132.331 145.530 C 132.515 145.644,132.665 146.048,132.665 146.428 C 132.665 147.055,132.799 147.098,134.085 146.892 C 134.866 146.767,136.145 146.577,136.926 146.470 C 137.707 146.363,138.346 146.162,138.346 146.025 C 138.346 145.887,139.197 145.668,140.236 145.538 C 141.276 145.409,142.328 145.225,142.575 145.130 C 143.091 144.932,143.195 192.033,142.695 199.165 C 142.547 201.278,142.182 207.669,141.884 213.367 C 141.586 219.064,141.159 224.553,140.934 225.564 C 140.344 228.222,140.345 258.106,140.936 258.697 C 141.165 258.926,141.361 259.723,141.370 260.468 C 141.411 263.947,143.710 276.352,146.017 285.547 C 147.408 291.095,148.082 293.588,148.365 294.236 C 148.526 294.603,149.064 296.142,149.562 297.655 C 150.934 301.832,154.869 303.975,163.246 305.107 C 164.714 305.305,166.358 305.608,166.901 305.779 C 167.443 305.951,170.601 306.250,173.918 306.444 C 177.236 306.638,180.627 306.938,181.454 307.109 C 187.286 308.318,223.841 307.332,230.409 305.788 C 231.145 305.615,233.024 305.303,234.586 305.093 C 239.214 304.472,246.642 302.369,247.901 301.325 C 248.153 301.116,248.671 300.789,249.053 300.598 C 250.182 300.034,253.291 294.419,253.805 292.016 C 253.937 291.399,254.162 290.744,254.305 290.560 C 254.448 290.376,254.801 289.173,255.091 287.886 C 255.381 286.600,255.845 284.570,256.123 283.375 C 256.400 282.180,256.631 280.802,256.635 280.312 C 256.638 279.822,256.773 279.371,256.934 279.309 C 257.095 279.248,257.502 277.243,257.838 274.854 C 258.175 272.464,258.545 270.434,258.662 270.343 C 258.779 270.251,259.061 268.296,259.290 265.998 C 259.518 263.701,259.835 261.520,259.994 261.153 C 261.213 258.329,261.201 211.636,259.980 208.688 C 259.685 207.975,258.968 191.357,258.976 185.408 C 258.979 183.448,258.840 181.793,258.667 181.732 C 258.051 181.513,258.058 143.692,258.674 143.692 C 259.573 143.693,263.129 144.394,263.672 144.678 C 263.955 144.826,264.857 145.059,265.677 145.196 C 266.497 145.333,267.266 145.599,267.385 145.787 C 267.736 146.341,268.653 145.788,269.041 144.787 C 269.514 143.567,269.171 140.637,268.513 140.268 C 268.232 140.112,268.003 139.768,268.003 139.505 C 268.003 139.242,267.627 138.933,267.168 138.817 C 266.708 138.702,266.332 138.509,266.332 138.389 C 266.332 138.269,265.355 137.891,264.160 137.548 C 262.966 137.206,261.988 136.811,261.988 136.671 C 261.988 136.530,261.481 136.320,260.862 136.204 C 258.302 135.724,258.447 136.562,258.083 120.134 C 257.778 106.386,257.951 99.378,258.608 98.918 C 258.742 98.824,259.053 97.469,259.299 95.906 C 259.545 94.344,259.912 92.959,260.115 92.828 C 260.620 92.502,260.634 74.262,260.131 73.923 C 259.936 73.792,259.595 72.488,259.373 71.027 C 259.150 69.565,258.849 68.287,258.703 68.186 C 258.558 68.086,258.255 67.165,258.030 66.140 C 257.806 65.115,257.346 63.762,257.009 63.133 C 256.672 62.503,256.289 61.500,256.158 60.902 C 256.027 60.305,255.812 59.816,255.680 59.816 C 255.547 59.816,255.237 59.252,254.991 58.563 C 254.744 57.874,254.433 57.235,254.300 57.143 C 254.167 57.051,253.699 56.317,253.261 55.512 C 252.823 54.707,252.268 53.692,252.029 53.256 C 251.789 52.821,251.450 52.464,251.277 52.464 C 251.103 52.464,250.961 52.240,250.961 51.966 C 250.961 51.692,250.660 51.280,250.292 51.050 C 249.925 50.821,249.624 50.502,249.624 50.341 C 249.624 49.549,241.943 41.567,239.770 40.100 C 239.089 39.641,238.287 39.002,237.989 38.680 C 237.690 38.358,237.249 38.095,237.008 38.095 C 236.767 38.095,236.484 37.870,236.378 37.594 C 236.272 37.318,236.028 37.093,235.835 37.093 C 235.643 37.093,234.992 36.717,234.390 36.258 C 233.788 35.798,232.909 35.276,232.437 35.096 C 231.965 34.917,231.579 34.640,231.579 34.481 C 231.579 34.322,230.977 33.994,230.242 33.751 C 229.507 33.508,228.906 33.214,228.906 33.096 C 228.906 32.979,228.342 32.681,227.652 32.434 C 226.963 32.188,226.324 31.887,226.232 31.766 C 226.026 31.495,222.653 30.409,222.017 30.409 C 221.762 30.409,221.554 30.270,221.554 30.099 C 221.554 29.928,220.689 29.610,219.632 29.392 C 218.576 29.173,217.636 28.878,217.544 28.734 C 217.452 28.591,216.174 28.277,214.703 28.036 C 213.233 27.796,211.955 27.495,211.863 27.369 C 211.318 26.621,197.092 26.179,191.312 26.731 " stroke="none" fill="#fcfcfc" fill-rule="evenodd"></path></g></svg>