<svg id="svg" version="1.1" xmlns="http://www.w3.org/2000/svg" xmlns:xlink="http://www.w3.org/1999/xlink" width="400" height="400.81632653061223" viewBox="0, 0, 400,400.81632653061223"><g id="svgg"><path id="path0" d="M192.600 0.272 C 169.332 2.270,142.995 8.786,126.600 16.601 C 124.620 17.545,120.570 19.434,117.600 20.800 C 90.051 33.463,61.596 56.887,41.556 83.400 C 35.083 91.963,25.200 107.200,25.200 108.615 C 25.200 108.900,25.065 109.193,24.900 109.267 C 23.846 109.735,12.431 135.344,11.743 138.784 C 11.609 139.453,11.357 140.000,11.183 140.000 C 10.870 140.000,10.511 141.080,7.865 150.000 C 1.807 170.415,-1.979 199.442,1.200 201.100 C 2.008 201.521,11.384 201.607,50.056 201.545 L 97.913 201.469 98.542 198.435 C 98.888 196.766,99.293 194.500,99.441 193.400 C 99.590 192.300,99.828 191.310,99.970 191.200 C 100.113 191.090,100.739 188.660,101.362 185.800 C 105.851 165.180,115.882 146.832,130.778 131.992 C 134.658 128.127,139.918 123.200,140.164 123.200 C 140.239 123.200,140.987 122.570,141.828 121.800 C 142.669 121.030,143.591 120.400,143.878 120.400 C 144.165 120.400,144.400 120.214,144.400 119.987 C 144.400 119.761,144.715 119.454,145.100 119.307 C 145.485 119.160,147.690 117.804,150.000 116.294 C 156.106 112.304,167.820 106.541,174.200 104.389 C 179.123 102.728,182.634 101.876,190.600 100.407 C 197.668 99.105,200.468 98.125,201.307 96.661 C 201.923 95.586,202.241 21.970,201.680 10.184 C 201.261 1.356,201.150 1.027,198.384 0.434 C 196.402 0.009,195.845 -0.007,192.600 0.272 M217.153 18.252 C 217.069 18.443,217.090 22.870,217.200 28.090 C 217.452 40.061,216.751 39.062,225.446 39.832 C 233.118 40.512,238.726 41.332,244.600 42.631 C 251.383 44.132,261.378 46.934,262.169 47.555 C 262.406 47.742,263.590 48.210,264.800 48.596 C 311.108 63.376,352.497 104.105,369.272 151.400 C 370.130 153.820,371.091 156.359,371.407 157.042 C 373.958 162.550,377.737 181.047,378.991 194.164 C 381.064 215.834,377.322 248.925,371.265 262.492 C 370.845 263.431,370.182 265.190,369.791 266.400 C 366.062 277.940,350.626 307.600,348.349 307.600 C 348.157 307.600,348.000 307.793,348.000 308.028 C 348.000 311.305,314.940 345.600,311.780 345.600 C 311.625 345.600,310.306 346.483,308.849 347.562 C 292.244 359.862,271.245 369.616,250.693 374.575 C 244.134 376.158,234.845 378.000,233.421 378.000 C 232.885 378.000,232.333 378.186,232.192 378.412 C 232.047 378.647,231.369 378.718,230.615 378.576 C 229.810 378.425,229.183 378.504,229.015 378.776 C 228.843 379.054,228.214 379.126,227.364 378.967 C 226.522 378.809,225.769 378.894,225.417 379.186 C 225.027 379.509,224.127 379.573,222.621 379.385 C 221.088 379.194,220.400 379.246,220.400 379.554 C 220.400 379.872,217.119 380.000,209.000 380.000 C 202.730 380.000,197.600 379.847,197.600 379.659 C 197.600 379.472,195.862 379.196,193.737 379.047 C 182.362 378.247,166.281 374.903,154.400 370.866 C 145.093 367.704,131.481 361.835,130.706 360.650 C 130.541 360.397,130.407 360.375,130.400 360.600 C 130.393 360.838,130.269 360.825,130.094 360.566 C 129.817 360.157,122.398 355.758,119.800 354.462 C 115.791 352.463,104.080 343.758,97.000 337.515 C 92.649 333.678,79.600 320.639,79.600 320.128 C 79.600 320.042,78.463 318.583,77.074 316.886 C 72.749 311.601,65.200 301.020,65.200 300.242 C 65.200 299.889,60.264 291.834,59.616 291.130 C 54.101 285.139,42.194 248.940,40.528 233.100 C 40.395 231.835,40.159 230.800,40.004 230.800 C 39.849 230.800,39.505 228.178,39.238 224.973 C 38.537 216.527,39.593 217.200,27.041 217.200 C 16.627 217.200,17.193 217.085,17.659 219.109 C 17.848 219.929,18.370 224.110,18.820 228.400 C 20.676 246.111,23.949 260.998,28.977 274.600 C 29.791 276.800,30.566 278.960,30.700 279.400 C 30.835 279.840,31.182 280.438,31.472 280.729 C 31.763 281.019,32.000 281.498,32.000 281.793 C 32.000 282.087,32.919 284.365,34.042 286.854 C 39.773 299.555,45.463 309.487,52.804 319.600 C 55.439 323.230,58.074 326.920,58.661 327.800 C 62.194 333.102,78.609 350.110,86.000 356.127 C 88.090 357.828,90.085 359.486,90.434 359.810 C 90.782 360.135,91.182 360.400,91.323 360.400 C 91.463 360.400,93.788 362.039,96.489 364.043 C 109.482 373.681,126.118 383.025,136.795 386.681 C 137.782 387.020,139.672 387.788,140.995 388.389 C 148.733 391.906,167.297 396.954,179.200 398.778 C 197.511 401.584,224.960 401.153,244.800 397.749 C 256.313 395.773,276.605 389.779,282.090 386.733 C 282.591 386.456,283.090 386.208,283.200 386.184 C 283.310 386.160,285.200 385.280,287.400 384.230 C 289.600 383.179,292.120 382.003,293.000 381.617 C 294.426 380.990,296.516 379.883,307.000 374.198 C 333.348 359.910,364.131 327.547,378.072 299.477 C 379.623 296.355,381.046 293.703,381.234 293.584 C 381.676 293.305,385.713 284.752,386.513 282.400 C 386.850 281.410,387.675 279.220,388.345 277.534 C 403.262 240.032,404.228 187.597,390.730 148.046 C 387.388 138.252,381.155 123.540,380.039 122.813 C 379.859 122.696,378.727 120.710,377.523 118.400 C 373.026 109.769,364.099 95.963,360.349 91.837 C 357.906 89.149,352.490 82.748,351.080 80.882 C 348.469 77.427,341.059 70.394,331.832 62.612 C 330.274 61.298,328.945 60.098,328.878 59.944 C 328.121 58.221,304.605 42.945,299.700 40.991 C 298.765 40.618,298.000 40.153,298.000 39.958 C 298.000 39.763,295.885 38.586,293.300 37.343 C 276.024 29.039,255.391 22.698,238.100 20.382 C 236.065 20.109,234.400 19.730,234.400 19.538 C 234.400 19.347,233.681 19.306,232.802 19.446 C 231.770 19.611,230.993 19.526,230.607 19.205 C 230.232 18.895,229.498 18.805,228.641 18.966 C 227.889 19.107,227.212 19.054,227.137 18.848 C 226.960 18.365,217.356 17.791,217.153 18.252 M196.000 114.248 C 191.227 114.891,181.600 117.117,181.600 117.578 C 181.600 117.746,180.205 118.293,178.500 118.794 C 146.500 128.196,119.064 160.802,114.584 194.753 C 109.741 231.465,122.648 263.493,151.274 285.794 C 184.199 311.444,232.635 311.819,266.000 286.681 C 269.821 283.803,284.400 269.688,284.400 268.868 C 284.400 268.626,284.760 268.235,285.200 268.000 C 285.640 267.765,286.000 267.327,286.000 267.029 C 286.000 266.730,286.270 266.382,286.600 266.255 C 286.930 266.129,287.200 265.749,287.200 265.413 C 287.200 265.076,287.386 264.800,287.613 264.800 C 287.839 264.800,288.145 264.485,288.291 264.100 C 288.437 263.715,289.491 261.960,290.634 260.200 C 293.470 255.832,296.407 250.156,298.189 245.600 C 299.007 243.510,299.845 241.478,300.052 241.084 C 300.258 240.690,300.320 240.195,300.190 239.984 C 300.060 239.773,300.122 239.600,300.330 239.600 C 300.745 239.600,300.790 239.466,302.196 234.000 C 305.109 222.675,305.796 205.308,303.818 193.000 C 303.102 188.547,300.508 177.930,300.057 177.607 C 299.898 177.493,299.072 175.690,298.222 173.600 C 295.881 167.844,292.145 160.736,289.113 156.273 C 282.511 146.549,268.347 132.873,259.800 127.968 C 253.770 124.507,250.293 122.687,247.550 121.555 C 245.818 120.840,244.400 120.107,244.400 119.927 C 244.400 119.747,244.128 119.600,243.795 119.600 C 243.462 119.600,242.877 119.418,242.495 119.196 C 235.679 115.234,209.422 112.440,196.000 114.248 M215.833 135.799 C 226.576 141.055,222.161 159.200,210.200 158.950 C 200.384 158.745,194.255 149.056,198.600 140.611 C 201.568 134.843,209.406 132.654,215.833 135.799 M159.659 166.150 C 171.918 171.950,168.508 189.838,155.155 189.779 C 140.410 189.715,137.926 170.759,151.956 165.364 C 153.937 164.602,157.059 164.921,159.659 166.150 M268.200 166.753 C 279.175 172.021,279.119 186.366,268.109 190.030 C 253.968 194.736,244.614 174.598,257.797 167.831 C 259.115 167.154,260.285 166.492,260.397 166.360 C 261.385 165.192,265.366 165.392,268.200 166.753 M217.200 181.102 C 234.788 186.410,243.802 205.919,236.005 221.800 C 227.713 238.687,208.444 244.087,193.044 233.841 C 186.671 229.600,180.516 220.563,180.417 215.300 C 180.408 214.805,180.220 214.400,180.000 214.400 C 179.756 214.400,179.600 212.533,179.600 209.600 C 179.600 206.667,179.756 204.800,180.000 204.800 C 180.220 204.800,180.400 204.247,180.400 203.572 C 180.400 198.571,188.228 187.549,194.475 183.755 C 200.762 179.935,209.827 178.877,217.200 181.102 M158.305 229.009 C 168.877 232.148,169.633 247.228,159.450 251.847 C 151.272 255.556,142.364 249.614,142.306 240.409 C 142.253 231.962,149.900 226.513,158.305 229.009 M268.927 230.180 C 273.228 232.021,275.663 236.175,275.663 241.670 C 275.663 255.019,257.730 258.392,252.104 246.102 C 247.474 235.989,258.382 225.665,268.927 230.180 M214.211 261.205 C 224.977 266.343,223.290 281.657,211.656 284.396 C 202.785 286.485,194.096 277.953,196.538 269.553 C 198.917 261.372,206.779 257.658,214.211 261.205 " stroke="none" fill="#fcfcfc" fill-rule="evenodd"></path><path id="path1" d="M177.946 0.622 C 165.332 2.349,143.777 7.217,141.800 8.786 C 141.580 8.961,140.320 9.410,139.000 9.785 C 130.563 12.180,109.659 21.352,100.444 26.702 C 60.442 49.926,29.172 85.241,11.335 127.340 C 10.109 130.233,8.972 132.780,8.809 133.000 C 8.347 133.621,4.610 144.521,3.254 149.200 C -0.105 160.793,-0.005 159.957,0.043 176.072 L 0.086 190.600 0.649 185.800 C 2.013 174.166,5.198 158.507,8.133 149.000 C 8.677 147.240,9.514 144.495,9.994 142.900 C 10.474 141.305,11.009 140.000,11.183 140.000 C 11.357 140.000,11.609 139.453,11.743 138.784 C 12.431 135.344,23.846 109.735,24.900 109.267 C 25.065 109.193,25.200 108.900,25.200 108.615 C 25.200 107.200,35.083 91.963,41.556 83.400 C 61.596 56.887,90.051 33.463,117.600 20.800 C 120.570 19.434,124.620 17.545,126.600 16.601 C 142.995 8.786,169.332 2.270,192.600 0.272 C 193.480 0.196,191.410 0.125,188.000 0.114 C 184.590 0.103,180.066 0.332,177.946 0.622 M197.233 0.143 C 197.325 0.221,198.030 0.401,198.800 0.542 C 199.785 0.723,200.022 0.682,199.600 0.406 C 199.058 0.050,196.837 -0.197,197.233 0.143 M212.749 18.261 C 212.315 18.784,212.200 21.071,212.200 29.161 C 212.200 43.695,211.816 43.179,223.400 44.234 C 237.415 45.510,246.204 47.509,261.600 52.922 C 286.942 61.831,310.477 77.227,328.859 96.919 C 333.375 101.757,340.647 110.506,341.800 112.488 C 342.020 112.866,343.787 115.462,345.726 118.257 C 355.016 131.643,361.512 145.002,366.414 160.800 C 367.541 164.430,368.611 167.684,368.792 168.032 C 372.537 175.213,375.534 208.474,373.980 225.600 C 373.098 235.306,370.095 251.927,368.782 254.368 C 368.595 254.716,367.506 258.060,366.362 261.800 C 362.136 275.616,355.653 289.284,347.575 301.409 C 346.049 303.701,344.800 305.666,344.800 305.778 C 344.800 306.207,339.924 312.758,337.191 316.000 C 327.294 327.743,313.986 340.298,303.200 348.070 C 293.778 354.858,279.762 362.439,268.200 367.001 C 265.560 368.042,262.860 369.137,262.200 369.433 C 250.618 374.634,224.395 379.199,206.100 379.200 C 200.700 379.200,197.600 379.346,197.600 379.600 C 197.600 379.857,201.667 380.000,209.000 380.000 C 217.119 380.000,220.400 379.872,220.400 379.554 C 220.400 379.246,221.088 379.194,222.621 379.385 C 224.127 379.573,225.027 379.509,225.417 379.186 C 225.769 378.894,226.522 378.809,227.364 378.967 C 228.214 379.126,228.843 379.054,229.015 378.776 C 229.183 378.504,229.810 378.425,230.615 378.576 C 231.369 378.718,232.047 378.647,232.192 378.412 C 232.333 378.186,232.885 378.000,233.421 378.000 C 234.845 378.000,244.134 376.158,250.693 374.575 C 271.245 369.616,292.244 359.862,308.849 347.562 C 310.306 346.483,311.625 345.600,311.780 345.600 C 314.940 345.600,348.000 311.305,348.000 308.028 C 348.000 307.793,348.157 307.600,348.349 307.600 C 350.626 307.600,366.062 277.940,369.791 266.400 C 370.182 265.190,370.845 263.431,371.265 262.492 C 377.322 248.925,381.064 215.834,378.991 194.164 C 377.737 181.047,373.958 162.550,371.407 157.042 C 371.091 156.359,370.130 153.820,369.272 151.400 C 352.497 104.105,311.108 63.376,264.800 48.596 C 263.590 48.210,262.406 47.742,262.169 47.555 C 261.378 46.934,251.383 44.132,244.600 42.631 C 238.734 41.333,233.119 40.512,225.487 39.836 C 216.741 39.061,217.264 39.848,217.175 27.326 L 217.110 18.200 219.455 17.967 C 221.379 17.776,221.037 17.722,217.549 17.667 C 214.027 17.612,213.204 17.714,212.749 18.261 M223.300 18.287 C 223.905 18.378,224.895 18.378,225.500 18.287 C 226.105 18.195,225.610 18.120,224.400 18.120 C 223.190 18.120,222.695 18.195,223.300 18.287 M227.200 18.800 C 227.200 19.258,227.770 19.258,229.200 18.800 C 230.092 18.514,230.039 18.475,228.700 18.440 C 227.875 18.418,227.200 18.580,227.200 18.800 M230.600 19.200 C 230.736 19.420,231.366 19.600,232.000 19.600 C 232.634 19.600,233.264 19.420,233.400 19.200 C 233.550 18.958,232.996 18.800,232.000 18.800 C 231.004 18.800,230.450 18.958,230.600 19.200 M234.400 19.543 C 234.400 19.732,236.065 20.109,238.100 20.382 C 246.085 21.452,259.178 24.462,267.586 27.160 C 270.329 28.040,272.639 28.694,272.721 28.613 C 272.901 28.432,264.410 25.657,259.200 24.194 C 250.438 21.734,234.400 18.726,234.400 19.543 M298.800 40.600 C 299.350 40.914,299.980 41.172,300.200 41.172 C 300.420 41.172,300.150 40.914,299.600 40.600 C 299.050 40.286,298.420 40.028,298.200 40.028 C 297.980 40.028,298.250 40.286,298.800 40.600 M335.739 65.945 C 336.987 67.075,338.116 68.000,338.247 68.000 C 338.558 68.000,334.413 64.248,333.878 64.045 C 333.654 63.960,334.491 64.815,335.739 65.945 M199.800 97.997 C 198.539 98.829,196.956 99.214,186.696 101.186 C 179.972 102.479,173.163 104.490,168.600 106.532 C 162.081 109.450,153.914 113.736,150.000 116.294 C 147.690 117.804,145.485 119.160,145.100 119.307 C 144.715 119.454,144.400 119.761,144.400 119.987 C 144.400 120.214,144.165 120.400,143.878 120.400 C 143.591 120.400,142.669 121.030,141.828 121.800 C 140.987 122.570,140.239 123.200,140.164 123.200 C 139.918 123.200,134.658 128.127,130.778 131.992 C 117.829 144.892,108.801 160.008,103.396 177.843 C 101.530 183.997,101.654 184.991,103.565 179.200 C 106.072 171.602,108.720 165.564,111.931 160.118 C 112.585 159.008,113.702 157.042,114.412 155.750 C 121.490 142.873,138.952 125.661,152.600 118.108 C 167.082 110.093,174.654 107.316,190.000 104.390 C 199.265 102.623,201.530 101.358,201.124 98.176 L 201.000 97.205 199.800 97.997 M196.600 113.069 C 137.002 120.464,99.425 171.693,110.240 230.800 C 117.113 268.356,147.455 299.584,184.445 307.171 C 226.496 315.795,265.814 300.187,289.168 265.600 C 295.256 256.583,300.946 243.488,302.119 235.794 C 302.291 234.664,302.123 234.957,301.541 236.800 C 301.090 238.230,300.558 239.460,300.358 239.534 C 300.158 239.608,300.092 239.826,300.211 240.018 C 300.330 240.210,300.258 240.690,300.052 241.084 C 299.845 241.478,299.007 243.510,298.189 245.600 C 296.407 250.156,293.470 255.832,290.634 260.200 C 289.491 261.960,288.437 263.715,288.291 264.100 C 288.145 264.485,287.839 264.800,287.613 264.800 C 287.386 264.800,287.200 265.076,287.200 265.413 C 287.200 265.749,286.930 266.129,286.600 266.255 C 286.270 266.382,286.000 266.730,286.000 267.029 C 286.000 267.327,285.640 267.765,285.200 268.000 C 284.760 268.235,284.400 268.626,284.400 268.868 C 284.400 269.688,269.821 283.803,266.000 286.681 C 232.635 311.819,184.199 311.444,151.274 285.794 C 122.648 263.493,109.741 231.465,114.584 194.753 C 119.064 160.802,146.500 128.196,178.500 118.794 C 180.205 118.293,181.600 117.746,181.600 117.578 C 181.600 117.085,191.395 114.874,196.520 114.211 C 202.483 113.439,212.559 113.434,219.771 114.200 C 225.870 114.847,227.459 114.760,222.518 114.049 C 214.725 112.927,201.707 112.435,196.600 113.069 M254.033 124.548 C 254.590 125.041,259.738 127.996,259.848 127.885 C 260.001 127.732,254.531 124.400,254.128 124.400 C 253.984 124.400,253.942 124.467,254.033 124.548 M204.882 135.131 C 200.632 136.652,197.799 140.299,197.373 144.800 L 197.165 147.000 197.735 145.499 C 200.757 137.555,210.528 136.209,215.259 143.086 C 218.786 148.211,215.675 155.630,209.068 157.852 L 207.000 158.548 208.600 158.899 C 216.591 160.655,224.257 150.894,221.439 142.552 C 219.231 136.013,211.767 132.668,204.882 135.131 M277.400 142.800 C 278.706 144.120,279.865 145.200,279.975 145.200 C 280.085 145.200,279.106 144.120,277.800 142.800 C 276.494 141.480,275.335 140.400,275.225 140.400 C 275.115 140.400,276.094 141.480,277.400 142.800 M151.956 165.364 C 146.976 167.279,143.803 170.702,143.023 175.000 L 142.733 176.600 143.913 174.976 C 149.072 167.884,154.988 167.730,160.368 174.548 C 165.199 180.672,159.611 189.383,151.281 188.712 L 149.000 188.529 150.400 189.128 C 160.430 193.423,170.628 182.558,166.102 172.400 C 163.822 167.283,156.472 163.627,151.956 165.364 M261.200 165.892 C 260.870 166.017,260.510 166.228,260.400 166.360 C 260.290 166.492,259.384 166.984,258.387 167.452 C 254.491 169.285,252.167 172.582,251.783 176.824 L 251.586 179.000 252.215 177.068 C 255.021 168.438,266.288 168.105,270.366 176.531 C 272.991 181.952,267.929 189.880,261.740 190.040 C 259.559 190.096,261.487 190.705,264.022 190.760 C 273.100 190.959,279.311 180.792,274.978 172.830 C 272.313 167.934,265.219 164.362,261.200 165.892 M200.165 181.112 C 192.066 183.994,185.247 190.702,181.662 199.313 C 180.024 203.248,179.983 205.182,181.612 201.660 C 192.079 179.035,220.851 178.654,231.459 201.000 C 239.128 217.156,225.345 237.857,206.517 238.462 C 205.463 238.495,206.400 238.656,208.600 238.820 C 233.324 240.652,248.066 209.981,231.742 190.672 C 224.139 181.680,210.324 177.497,200.165 181.112 M99.444 193.300 C 99.301 194.455,98.898 196.766,98.548 198.435 L 97.913 201.469 50.056 201.549 C 8.519 201.618,2.055 201.550,1.100 201.038 L 0.000 200.447 0.000 203.255 L -0.000 206.063 47.300 205.884 C 74.202 205.783,95.204 205.547,96.000 205.337 C 97.836 204.854,98.211 203.993,99.219 197.953 C 99.673 195.229,100.145 192.595,100.266 192.100 C 100.387 191.605,100.310 191.200,100.095 191.200 C 99.879 191.200,99.586 192.145,99.444 193.300 M179.600 206.200 C 179.600 206.970,179.670 207.600,179.756 207.600 C 179.842 207.600,179.986 206.970,180.076 206.200 C 180.166 205.430,180.096 204.800,179.920 204.800 C 179.744 204.800,179.600 205.430,179.600 206.200 M14.729 216.684 C 12.375 217.044,12.246 218.604,13.613 230.218 C 17.218 260.851,24.794 284.935,37.905 307.445 C 38.788 308.960,40.076 311.249,40.767 312.531 C 53.025 335.264,84.306 365.894,108.800 379.150 C 116.318 383.218,125.198 387.596,130.053 389.628 C 132.774 390.767,135.182 391.842,135.404 392.019 C 136.000 392.491,145.558 395.637,154.436 398.283 L 162.200 400.597 183.000 400.625 C 194.440 400.640,202.180 400.600,200.200 400.535 C 179.662 399.865,155.203 394.847,140.995 388.389 C 139.672 387.788,137.782 387.020,136.795 386.681 C 126.118 383.025,109.482 373.681,96.489 364.043 C 93.788 362.039,91.463 360.400,91.323 360.400 C 91.182 360.400,90.782 360.135,90.434 359.810 C 90.085 359.486,88.090 357.828,86.000 356.127 C 78.609 350.110,62.194 333.102,58.661 327.800 C 58.074 326.920,55.439 323.230,52.804 319.600 C 45.463 309.487,39.773 299.555,34.042 286.854 C 32.919 284.365,32.000 282.087,32.000 281.793 C 32.000 281.498,31.763 281.019,31.472 280.729 C 31.182 280.438,30.835 279.840,30.700 279.400 C 30.566 278.960,29.791 276.800,28.977 274.600 C 23.949 260.998,20.676 246.111,18.820 228.400 C 18.370 224.110,17.848 219.929,17.659 219.109 C 17.194 217.087,16.630 217.205,26.967 217.154 C 32.975 217.124,35.641 216.992,34.600 216.777 C 33.008 216.448,16.770 216.371,14.729 216.684 M399.701 225.400 C 399.705 226.280,399.787 226.593,399.883 226.095 C 399.979 225.598,399.975 224.878,399.875 224.495 C 399.775 224.113,399.696 224.520,399.701 225.400 M149.988 229.014 C 147.408 229.809,145.018 232.021,143.603 234.923 C 141.960 238.291,141.926 239.974,143.547 237.736 C 148.759 230.542,156.400 231.115,161.050 239.049 C 163.736 243.633,159.224 250.662,152.600 252.211 L 150.600 252.679 152.601 252.964 C 157.816 253.704,163.530 250.582,165.621 245.849 C 170.062 235.793,160.701 225.712,149.988 229.014 M258.882 229.931 C 254.688 231.432,251.553 235.536,251.037 240.200 L 250.816 242.200 252.117 239.509 C 255.408 232.700,262.964 231.354,268.076 236.666 C 273.371 242.168,269.948 251.088,261.800 253.019 L 260.600 253.304 261.800 253.657 C 265.950 254.880,272.882 251.170,274.807 246.695 C 279.226 236.423,269.463 226.145,258.882 229.931 M399.309 231.200 C 399.309 232.190,399.387 232.595,399.482 232.100 C 399.578 231.605,399.578 230.795,399.482 230.300 C 399.387 229.805,399.309 230.210,399.309 231.200 M398.463 237.800 C 396.944 250.317,392.982 265.875,388.345 277.534 C 387.675 279.220,386.850 281.410,386.513 282.400 C 385.713 284.752,381.676 293.305,381.234 293.584 C 381.046 293.703,379.623 296.355,378.072 299.477 C 364.131 327.547,333.348 359.910,307.000 374.198 C 296.516 379.883,294.426 380.990,293.000 381.617 C 292.120 382.003,289.600 383.179,287.400 384.230 C 285.200 385.280,283.310 386.160,283.200 386.184 C 283.090 386.208,282.591 386.456,282.090 386.733 C 270.814 392.994,241.416 399.464,220.178 400.359 C 213.656 400.633,215.172 400.686,231.065 400.739 L 249.530 400.800 255.995 399.177 C 263.152 397.380,273.779 393.851,278.160 391.817 C 279.722 391.091,281.441 390.362,281.980 390.197 C 291.843 387.164,314.404 373.844,327.519 363.309 C 329.785 361.489,331.765 359.995,331.919 359.989 C 332.390 359.972,341.192 351.639,345.007 347.600 C 346.981 345.510,349.857 342.534,351.398 340.986 C 357.578 334.780,369.292 318.525,375.313 307.800 C 379.473 300.391,385.134 288.252,387.998 280.600 C 389.562 276.420,391.092 272.455,391.398 271.789 C 393.930 266.266,399.698 238.278,399.125 234.291 C 399.055 233.801,398.757 235.380,398.463 237.800 M202.500 238.276 C 202.885 238.376,203.515 238.376,203.900 238.276 C 204.285 238.175,203.970 238.093,203.200 238.093 C 202.430 238.093,202.115 238.175,202.500 238.276 M204.692 260.543 C 199.429 262.764,195.899 267.754,196.040 272.773 L 196.080 274.200 196.437 272.687 C 197.421 268.508,202.411 264.038,206.125 264.009 C 209.430 263.983,214.982 268.562,215.984 272.141 C 217.595 277.898,210.585 285.193,204.939 283.634 C 202.605 282.990,202.867 283.470,205.233 284.173 C 215.181 287.127,223.674 278.436,220.680 268.365 C 218.800 262.041,210.623 258.040,204.692 260.543 M134.400 362.768 C 136.490 363.827,138.650 364.815,139.200 364.963 C 139.750 365.111,138.150 364.235,135.643 363.016 C 133.137 361.797,130.977 360.809,130.843 360.820 C 130.710 360.832,132.310 361.708,134.400 362.768 M149.200 368.934 C 149.200 369.037,149.781 369.324,150.491 369.572 C 151.201 369.819,151.606 369.857,151.391 369.656 C 150.935 369.229,149.200 368.658,149.200 368.934 M189.500 378.682 C 189.995 378.778,190.805 378.778,191.300 378.682 C 191.795 378.587,191.390 378.509,190.400 378.509 C 189.410 378.509,189.005 378.587,189.500 378.682 M193.700 379.087 C 194.305 379.178,195.295 379.178,195.900 379.087 C 196.505 378.995,196.010 378.920,194.800 378.920 C 193.590 378.920,193.095 378.995,193.700 379.087 " stroke="none" fill="#040404" fill-rule="evenodd"></path></g></svg>