<svg id="svg" version="1.1" xmlns="http://www.w3.org/2000/svg" xmlns:xlink="http://www.w3.org/1999/xlink" width="400" height="400" viewBox="0, 0, 400,400"><g id="svgg"><path id="path0" d="M297.200 5.185 C 297.200 5.413,296.748 5.600,296.195 5.600 C 295.642 5.600,294.877 5.750,294.495 5.934 C 288.433 8.850,287.537 9.410,284.950 11.899 C 275.108 21.369,272.955 34.439,279.422 45.473 C 280.629 47.533,280.882 46.992,276.553 51.597 C 261.860 67.225,236.471 95.738,236.230 96.880 C 236.078 97.606,235.792 99.100,235.597 100.200 C 234.931 103.941,233.256 112.972,231.026 124.847 C 229.801 131.363,228.800 136.898,228.800 137.147 C 228.800 137.459,230.323 137.603,233.700 137.610 C 236.395 137.615,239.404 137.805,240.387 138.031 C 243.179 138.675,244.000 138.302,244.000 136.392 C 244.000 135.517,244.135 134.799,244.300 134.797 C 244.465 134.796,244.642 133.915,244.694 132.840 C 244.745 131.765,244.970 130.406,245.193 129.819 C 245.416 129.232,245.709 127.187,245.845 125.276 C 245.980 123.364,246.250 121.740,246.445 121.667 C 246.640 121.593,246.800 120.738,246.800 119.767 C 246.800 118.795,246.980 118.000,247.200 118.000 C 247.420 118.000,247.600 117.190,247.600 116.200 C 247.600 115.210,247.780 114.400,248.000 114.400 C 248.220 114.400,248.400 113.626,248.400 112.680 C 248.400 111.734,248.568 110.789,248.774 110.580 C 248.980 110.371,249.274 108.580,249.427 106.600 C 249.727 102.745,250.104 102.068,254.548 97.405 C 255.179 96.742,256.889 94.872,258.348 93.249 C 259.807 91.625,261.630 89.632,262.400 88.820 C 263.170 88.007,264.970 86.027,266.400 84.419 C 267.830 82.811,269.450 81.006,270.000 80.408 C 271.318 78.976,273.954 76.043,277.400 72.174 C 278.940 70.445,281.494 67.632,283.076 65.924 C 284.657 64.216,286.973 61.538,288.221 59.974 C 289.827 57.961,290.681 57.195,291.145 57.351 C 291.505 57.473,293.150 58.057,294.800 58.650 C 302.533 61.430,313.408 59.649,320.400 54.460 C 323.045 52.497,327.578 47.502,327.593 46.533 C 327.597 46.277,327.735 46.007,327.900 45.933 C 328.370 45.724,330.413 41.477,330.406 40.724 C 330.403 40.352,330.580 39.936,330.800 39.800 C 331.020 39.664,331.200 38.843,331.200 37.976 C 331.200 37.109,331.380 36.400,331.600 36.400 C 331.837 36.400,332.000 34.941,332.000 32.824 C 332.000 30.857,331.820 29.136,331.600 29.000 C 331.380 28.864,331.200 27.953,331.200 26.976 C 331.200 25.999,331.020 25.200,330.800 25.200 C 330.580 25.200,330.400 24.795,330.400 24.300 C 330.399 22.611,327.895 17.200,327.114 17.200 C 326.941 17.200,326.800 16.924,326.800 16.587 C 326.800 15.935,320.344 9.200,319.719 9.200 C 319.517 9.200,319.002 8.879,318.575 8.487 C 318.149 8.095,317.080 7.456,316.200 7.068 C 315.320 6.679,314.287 6.190,313.905 5.981 C 313.523 5.771,312.859 5.600,312.429 5.600 C 311.999 5.600,311.545 5.435,311.421 5.234 C 311.095 4.707,297.200 4.660,297.200 5.185 M4.938 146.900 C 5.080 148.715,5.196 205.415,5.198 272.900 L 5.200 395.600 12.402 395.600 L 19.604 395.600 24.702 393.151 C 27.506 391.804,32.860 389.214,36.600 387.395 C 40.340 385.576,45.290 383.190,47.600 382.093 C 54.890 378.631,61.931 375.237,70.600 371.007 C 75.220 368.752,80.260 366.314,81.800 365.589 C 83.340 364.864,89.344 361.960,95.141 359.135 L 105.683 354.000 208.911 354.000 L 312.139 354.000 331.077 341.368 C 341.493 334.420,351.013 328.255,352.234 327.668 L 354.453 326.600 354.326 308.886 L 354.200 291.172 374.000 291.317 C 384.890 291.397,394.297 291.604,394.903 291.778 L 396.007 292.095 395.903 269.979 L 395.800 247.863 375.651 247.963 C 364.569 248.018,355.256 248.157,354.955 248.272 C 354.499 248.448,354.391 245.588,354.304 230.985 C 354.203 214.000,354.177 213.474,353.406 213.044 C 352.969 212.800,352.318 212.285,351.959 211.900 C 351.600 211.515,351.032 211.200,350.696 211.200 C 350.360 211.200,349.982 210.930,349.855 210.600 C 349.729 210.270,349.299 210.000,348.901 210.000 C 348.503 210.000,347.917 209.640,347.600 209.200 C 347.283 208.760,346.833 208.400,346.600 208.400 C 346.367 208.400,345.917 208.040,345.600 207.600 C 345.283 207.160,344.703 206.800,344.312 206.800 C 343.920 206.800,343.600 206.632,343.600 206.427 C 343.600 206.222,343.195 205.926,342.700 205.770 C 342.205 205.613,341.509 205.151,341.153 204.743 C 340.797 204.334,340.278 204.000,340.000 204.000 C 339.722 204.000,339.203 203.666,338.847 203.257 C 338.491 202.849,337.795 202.387,337.300 202.230 C 336.805 202.074,336.400 201.778,336.400 201.573 C 336.400 201.368,336.164 201.200,335.875 201.200 C 335.587 201.200,335.002 200.885,334.575 200.500 C 333.399 199.438,330.885 197.600,330.610 197.600 C 330.476 197.600,329.980 197.240,329.508 196.800 C 329.036 196.360,328.413 196.000,328.125 196.000 C 327.836 196.000,327.600 195.848,327.600 195.663 C 327.600 195.478,326.970 194.987,326.200 194.572 C 325.430 194.157,324.800 193.679,324.800 193.509 C 324.800 193.339,324.528 193.200,324.196 193.200 C 323.864 193.200,323.071 192.705,322.433 192.100 C 321.794 191.495,320.581 190.642,319.736 190.206 C 318.891 189.769,317.909 189.094,317.553 188.706 C 317.197 188.317,316.800 188.000,316.671 188.000 C 316.456 188.000,313.964 186.442,313.000 185.706 C 312.353 185.211,310.095 185.122,309.813 185.579 C 309.244 186.500,270.800 186.126,270.800 185.200 C 270.800 184.760,270.643 184.400,270.451 184.400 C 270.259 184.400,269.984 183.660,269.839 182.756 C 269.695 181.853,269.222 180.379,268.788 179.481 C 268.355 178.584,268.000 177.524,268.000 177.125 C 268.000 176.726,267.820 176.400,267.600 176.400 C 267.380 176.400,267.200 176.128,267.200 175.795 C 267.200 175.462,267.036 174.877,266.835 174.495 C 266.635 174.113,266.171 172.900,265.804 171.800 C 265.097 169.676,264.530 168.238,263.953 167.105 C 263.759 166.723,263.600 166.048,263.600 165.605 C 263.600 165.162,263.420 164.800,263.200 164.800 C 262.980 164.800,262.800 164.451,262.800 164.024 C 262.800 163.597,262.640 163.149,262.445 163.028 C 262.250 162.907,261.968 162.155,261.818 161.355 C 261.668 160.556,261.400 159.609,261.223 159.251 C 259.607 155.992,259.200 155.048,259.200 154.562 C 259.200 154.253,259.020 154.000,258.800 154.000 C 258.580 154.000,258.399 153.505,258.398 152.900 C 258.396 152.295,258.126 151.284,257.798 150.654 C 257.469 150.024,257.200 149.169,257.200 148.754 C 257.200 148.339,257.020 148.000,256.800 148.000 C 256.580 148.000,256.400 147.550,256.400 147.000 C 256.400 146.450,256.220 146.000,256.000 146.000 C 255.780 146.000,255.600 145.717,255.600 145.371 C 255.600 143.585,255.619 143.587,234.136 143.696 L 213.822 143.800 213.546 145.400 C 213.302 146.817,212.161 150.329,211.207 152.600 C 211.022 153.040,210.212 155.200,209.405 157.400 C 208.599 159.600,207.789 161.760,207.605 162.200 C 207.422 162.640,206.640 164.710,205.869 166.800 C 205.098 168.890,203.147 174.075,201.533 178.321 L 198.600 186.043 152.609 186.015 C 106.752 185.987,104.400 185.923,104.400 184.702 C 104.400 184.536,104.040 184.400,103.600 184.400 C 103.160 184.400,102.800 184.220,102.800 184.000 C 102.800 183.780,102.440 183.600,102.000 183.600 C 101.560 183.600,101.200 183.420,101.200 183.200 C 101.200 182.980,101.019 182.800,100.798 182.800 C 100.577 182.800,99.463 182.350,98.323 181.800 C 97.183 181.250,95.924 180.800,95.525 180.800 C 95.126 180.800,94.800 180.654,94.800 180.475 C 94.800 180.296,94.170 179.902,93.400 179.600 C 92.630 179.298,92.000 178.924,92.000 178.770 C 92.000 178.615,91.370 178.371,90.600 178.226 C 89.830 178.082,89.200 177.792,89.200 177.582 C 89.200 177.372,88.840 177.200,88.400 177.200 C 87.960 177.200,87.600 177.020,87.600 176.800 C 87.600 176.580,87.240 176.400,86.800 176.400 C 86.360 176.400,86.000 176.220,86.000 176.000 C 86.000 175.780,85.730 175.600,85.400 175.600 C 85.070 175.600,84.800 175.420,84.800 175.200 C 84.800 174.980,84.485 174.794,84.100 174.787 C 83.715 174.780,83.051 174.510,82.624 174.187 C 82.196 173.864,81.521 173.600,81.124 173.600 C 80.726 173.600,80.400 173.420,80.400 173.200 C 80.400 172.980,80.040 172.800,79.600 172.800 C 79.160 172.800,78.800 172.654,78.800 172.475 C 78.800 172.296,78.170 171.902,77.400 171.600 C 76.630 171.298,76.000 170.924,76.000 170.770 C 76.000 170.615,75.370 170.371,74.600 170.226 C 73.830 170.082,73.200 169.792,73.200 169.582 C 73.200 169.372,72.840 169.200,72.400 169.200 C 71.960 169.200,71.600 169.020,71.600 168.800 C 71.600 168.580,71.240 168.400,70.800 168.400 C 70.360 168.400,70.000 168.257,70.000 168.082 C 70.000 167.724,66.370 166.145,65.902 166.300 C 65.736 166.355,65.600 166.220,65.600 166.000 C 65.600 165.780,65.330 165.600,65.000 165.600 C 64.670 165.600,64.400 165.420,64.400 165.200 C 64.400 164.980,64.040 164.800,63.600 164.800 C 63.160 164.800,62.800 164.620,62.800 164.400 C 62.800 164.180,62.440 164.000,62.000 164.000 C 61.560 164.000,61.200 163.820,61.200 163.600 C 61.200 163.380,61.011 163.200,60.781 163.200 C 60.396 163.200,57.204 161.708,46.148 156.359 C 43.919 155.281,41.534 154.287,40.848 154.150 C 40.162 154.012,39.600 153.743,39.600 153.550 C 39.600 153.358,39.240 153.200,38.800 153.200 C 38.360 153.200,38.000 153.054,38.000 152.875 C 38.000 152.696,37.370 152.302,36.600 152.000 C 35.830 151.698,35.200 151.342,35.200 151.210 C 35.200 151.078,34.030 150.617,32.600 150.185 C 31.170 149.753,30.000 149.265,30.000 149.100 C 30.000 148.935,29.730 148.800,29.400 148.800 C 29.070 148.800,28.800 148.620,28.800 148.400 C 28.800 148.180,28.440 148.000,28.000 148.000 C 27.560 148.000,27.200 147.862,27.200 147.694 C 27.200 147.323,24.231 146.000,23.397 146.000 C 23.069 146.000,22.800 145.820,22.800 145.600 C 22.800 145.380,22.530 145.200,22.200 145.200 C 21.870 145.200,21.600 145.020,21.600 144.800 C 21.600 144.580,21.240 144.400,20.800 144.400 C 20.360 144.400,20.000 144.220,20.000 144.000 C 20.000 143.747,17.180 143.600,12.341 143.600 L 4.681 143.600 4.938 146.900 M240.067 205.906 C 240.345 206.184,240.687 207.444,240.829 208.706 C 241.802 217.372,242.512 222.633,242.737 222.835 C 242.882 222.965,245.047 223.738,247.548 224.554 C 252.055 226.025,257.306 228.401,257.794 229.190 C 258.387 230.150,262.994 227.199,268.400 222.397 C 270.322 220.690,271.880 219.600,272.397 219.600 C 273.412 219.600,277.767 223.527,281.323 227.649 L 283.607 230.297 278.404 236.995 C 275.542 240.679,273.200 243.748,273.200 243.816 C 273.200 243.883,274.075 245.617,275.144 247.669 C 276.944 251.123,279.200 257.177,279.200 258.553 C 279.200 259.923,280.359 260.261,288.256 261.192 C 298.236 262.368,297.400 261.545,297.400 270.194 C 297.400 278.564,297.817 277.991,291.560 278.227 C 286.974 278.400,281.570 278.968,279.900 279.451 C 279.411 279.593,279.200 280.062,279.200 281.008 C 279.200 281.753,279.043 282.776,278.850 283.281 C 278.658 283.787,278.182 285.190,277.792 286.400 C 277.073 288.631,274.276 294.581,273.513 295.504 C 273.017 296.102,273.504 296.844,279.190 304.155 C 281.396 306.991,283.200 309.546,283.200 309.833 C 283.200 311.120,274.360 319.924,272.678 320.310 C 272.415 320.370,270.979 319.245,269.486 317.810 C 267.993 316.374,266.635 315.200,266.469 315.200 C 266.303 315.200,265.499 314.570,264.682 313.800 C 263.866 313.030,263.027 312.400,262.818 312.400 C 262.609 312.400,261.827 311.770,261.079 311.000 C 259.460 309.333,258.727 309.260,257.283 310.618 C 256.047 311.780,251.210 314.279,249.170 314.809 C 248.416 315.004,246.755 315.428,245.478 315.751 C 242.218 316.575,242.002 316.835,241.987 319.949 C 241.980 321.407,241.798 323.860,241.584 325.400 C 241.370 326.940,241.078 329.429,240.937 330.932 C 240.573 334.786,240.427 334.877,235.055 334.618 C 232.605 334.499,229.520 334.381,228.200 334.355 C 225.413 334.300,225.305 334.145,225.240 330.124 C 225.218 328.762,225.020 327.536,224.800 327.400 C 224.580 327.264,224.400 325.939,224.400 324.456 C 224.400 322.973,224.230 321.589,224.022 321.380 C 223.814 321.171,223.589 319.920,223.522 318.600 C 223.409 316.382,223.324 316.190,222.400 316.066 C 221.850 315.993,221.229 315.768,221.020 315.566 C 220.811 315.365,220.147 315.200,219.544 315.200 C 218.941 315.200,218.339 315.025,218.207 314.812 C 218.075 314.598,217.075 314.305,215.984 314.160 C 214.893 314.015,214.000 313.740,214.000 313.548 C 214.000 313.357,213.730 313.200,213.400 313.200 C 213.070 313.200,212.800 313.020,212.800 312.800 C 212.800 312.580,212.440 312.400,212.000 312.400 C 211.560 312.400,211.200 312.220,211.200 312.000 C 211.200 311.780,210.840 311.600,210.400 311.600 C 209.960 311.600,209.600 311.420,209.600 311.200 C 209.600 310.980,209.352 310.800,209.049 310.800 C 208.746 310.800,208.274 310.530,208.000 310.200 C 207.120 309.139,206.175 309.546,203.560 312.114 C 201.152 314.479,195.962 318.667,193.789 319.998 C 192.646 320.700,193.078 321.039,187.271 314.882 C 185.880 313.407,184.196 311.632,183.529 310.938 L 182.316 309.677 184.058 307.338 C 185.016 306.052,185.980 304.795,186.200 304.545 C 186.903 303.744,187.782 302.642,189.007 301.024 C 190.609 298.908,191.903 297.636,192.176 297.909 C 192.299 298.032,192.400 297.381,192.400 296.461 C 192.400 294.712,191.879 293.454,190.700 292.357 C 190.315 291.999,190.000 291.394,190.000 291.014 C 190.000 290.633,189.712 289.664,189.359 288.860 C 189.007 288.057,188.536 286.950,188.313 286.400 C 188.089 285.850,187.748 285.087,187.553 284.705 C 187.359 284.323,187.200 283.558,187.200 283.005 C 187.200 282.452,187.020 282.000,186.800 282.000 C 186.580 282.000,186.400 281.373,186.400 280.608 C 186.400 279.491,186.222 279.175,185.500 279.011 C 183.675 278.596,178.281 278.071,177.789 278.260 C 177.509 278.367,177.162 278.262,177.017 278.027 C 176.872 277.792,175.651 277.600,174.305 277.600 C 171.181 277.600,169.467 276.979,168.913 275.646 C 168.359 274.313,167.954 262.875,168.451 262.569 C 169.044 262.202,180.393 260.816,182.867 260.808 C 185.973 260.797,186.400 260.574,186.400 258.957 C 186.400 258.211,186.580 257.600,186.800 257.600 C 187.020 257.600,187.200 257.148,187.200 256.595 C 187.200 256.042,187.359 255.277,187.553 254.895 C 187.748 254.513,188.083 253.750,188.298 253.200 C 188.513 252.650,188.984 251.519,189.345 250.686 C 189.705 249.854,190.000 248.909,190.000 248.586 C 190.000 248.264,190.180 248.000,190.400 248.000 C 190.620 248.000,190.800 247.745,190.800 247.433 C 190.800 247.122,190.942 246.807,191.114 246.733 C 192.765 246.033,193.427 242.400,191.904 242.400 C 191.737 242.400,191.600 242.212,191.600 241.982 C 191.600 241.752,191.195 241.130,190.700 240.601 C 189.331 239.137,188.800 238.460,188.800 238.177 C 188.800 238.036,188.260 237.417,187.600 236.800 C 186.940 236.183,186.400 235.489,186.400 235.258 C 186.400 235.026,185.950 234.386,185.400 233.836 C 184.850 233.286,184.398 232.693,184.396 232.518 C 184.394 232.343,183.844 231.767,183.174 231.237 C 182.504 230.708,182.107 230.168,182.291 230.037 C 182.476 229.907,183.339 228.900,184.209 227.800 C 186.614 224.760,192.061 219.600,192.865 219.600 C 193.257 219.600,196.478 221.874,200.021 224.654 L 206.465 229.708 209.932 227.886 C 214.150 225.670,218.234 224.213,221.303 223.829 L 223.600 223.542 223.600 220.971 C 223.600 219.524,223.775 218.400,224.000 218.400 C 224.228 218.400,224.400 217.208,224.400 215.624 C 224.400 214.097,224.583 212.734,224.807 212.596 C 225.064 212.437,225.117 211.182,224.950 209.180 C 224.694 206.107,224.714 206.005,225.643 205.620 C 227.072 205.028,239.435 205.273,240.067 205.906 M136.003 225.060 C 136.181 225.247,136.792 229.060,137.361 233.534 C 138.558 242.950,138.223 242.017,140.897 243.402 C 142.053 244.002,143.897 245.132,144.994 245.913 C 147.618 247.783,146.868 247.894,154.329 244.523 C 155.940 243.796,157.332 243.200,157.423 243.200 C 157.513 243.200,158.702 242.660,160.065 242.000 C 161.427 241.340,162.766 240.800,163.039 240.800 C 164.306 240.800,171.200 251.955,171.200 254.005 C 171.200 254.461,170.445 255.271,169.300 256.043 C 168.255 256.748,165.097 259.052,162.282 261.162 L 157.163 265.000 157.482 266.600 C 157.881 268.606,157.892 272.163,157.505 274.000 L 157.211 275.400 163.792 280.343 C 167.411 283.061,170.543 285.491,170.751 285.743 C 171.376 286.499,166.781 295.283,163.844 298.944 C 163.265 299.667,163.213 299.664,162.062 298.844 C 161.410 298.380,160.679 298.000,160.438 298.000 C 160.197 298.000,159.999 297.865,159.997 297.700 C 159.993 297.341,158.056 296.400,157.320 296.400 C 157.034 296.400,156.800 296.220,156.800 296.000 C 156.800 295.780,156.440 295.600,156.000 295.600 C 155.560 295.600,155.200 295.447,155.200 295.261 C 155.200 294.910,151.535 293.600,150.554 293.600 C 150.249 293.600,150.000 293.420,150.000 293.200 C 150.000 292.980,149.730 292.800,149.400 292.800 C 149.070 292.800,148.800 292.620,148.800 292.400 C 148.800 291.347,146.503 292.066,145.085 293.562 C 144.271 294.420,142.389 295.738,140.903 296.489 C 138.222 297.844,138.199 297.869,138.094 299.627 C 137.952 302.000,136.422 314.007,136.144 314.935 C 135.888 315.790,125.140 315.538,124.039 314.652 C 123.730 314.403,123.415 314.245,123.339 314.300 C 122.245 315.089,121.200 314.270,121.200 312.624 C 121.200 311.647,121.020 310.736,120.800 310.600 C 120.580 310.464,120.400 309.114,120.400 307.600 C 120.400 306.086,120.220 304.736,120.000 304.600 C 119.780 304.464,119.600 303.103,119.600 301.576 C 119.600 299.992,119.428 298.800,119.200 298.800 C 118.980 298.800,118.800 298.440,118.800 298.000 C 118.800 297.556,118.533 297.200,118.200 297.200 C 117.870 297.200,117.600 297.020,117.600 296.800 C 117.600 296.580,117.240 296.400,116.800 296.400 C 116.360 296.400,116.000 296.220,116.000 296.000 C 116.000 295.780,115.640 295.600,115.200 295.600 C 114.760 295.600,114.400 295.425,114.400 295.210 C 114.400 294.996,113.815 294.519,113.100 294.151 C 112.385 293.783,111.509 293.148,111.153 292.741 C 110.233 291.687,108.052 291.920,106.800 293.205 C 106.592 293.419,103.197 295.061,101.800 295.624 C 100.053 296.327,97.720 297.319,96.200 298.005 C 93.250 299.334,93.272 299.338,92.244 297.289 C 90.097 293.012,88.984 290.993,88.700 290.867 C 88.535 290.793,88.400 290.388,88.400 289.967 C 88.400 289.545,88.220 289.200,88.000 289.200 C 87.780 289.200,87.600 289.012,87.600 288.783 C 87.600 288.554,87.240 287.980,86.800 287.508 C 85.706 286.334,85.796 285.494,87.100 284.717 C 87.705 284.357,88.564 283.733,89.008 283.331 C 91.294 281.265,98.113 276.333,99.300 275.888 C 100.080 275.595,100.362 271.200,99.600 271.200 C 99.380 271.200,99.200 270.660,99.200 270.000 C 99.200 269.340,99.380 268.800,99.600 268.800 C 100.180 268.800,100.092 264.830,99.500 264.271 C 99.225 264.012,98.280 263.269,97.400 262.621 C 96.520 261.972,95.509 261.117,95.153 260.721 C 94.797 260.324,94.384 260.000,94.235 260.000 C 94.086 260.000,93.530 259.595,93.001 259.100 C 91.591 257.781,90.862 257.200,90.618 257.200 C 90.499 257.200,89.742 256.578,88.935 255.817 C 88.129 255.056,87.355 254.504,87.215 254.590 C 87.076 254.677,86.700 254.565,86.381 254.343 C 85.939 254.036,85.920 253.890,86.300 253.736 C 86.575 253.625,86.800 253.276,86.800 252.961 C 86.800 252.647,86.959 252.077,87.152 251.695 C 87.346 251.313,88.189 249.560,89.026 247.800 C 92.410 240.683,92.849 240.274,95.704 241.569 C 96.637 241.992,98.660 242.870,100.200 243.521 C 101.740 244.171,104.575 245.371,106.501 246.188 L 110.002 247.673 111.901 246.118 C 113.665 244.673,115.727 243.600,117.900 242.996 C 118.437 242.847,118.800 242.434,118.800 241.973 C 118.800 241.548,118.980 241.200,119.200 241.200 C 119.429 241.200,119.600 240.000,119.600 238.400 C 119.600 236.647,119.763 235.600,120.036 235.600 C 120.330 235.600,120.446 234.015,120.394 230.700 C 120.352 228.005,120.336 225.585,120.359 225.322 C 120.433 224.461,135.198 224.213,136.003 225.060 M228.800 251.677 C 209.898 259.665,210.123 283.153,229.144 287.600 C 237.899 289.646,250.400 282.072,250.400 274.721 C 250.400 274.105,250.580 273.600,250.800 273.600 C 251.035 273.600,251.200 272.208,251.200 270.224 C 251.200 268.367,251.020 266.736,250.800 266.600 C 250.580 266.464,250.400 265.825,250.400 265.179 C 250.400 263.903,249.200 260.800,248.706 260.800 C 248.538 260.800,248.400 260.480,248.400 260.088 C 248.400 259.697,248.040 259.117,247.600 258.800 C 247.160 258.483,246.800 258.084,246.800 257.915 C 246.800 257.465,245.116 255.600,244.710 255.600 C 244.520 255.600,243.880 255.150,243.287 254.600 C 242.693 254.050,241.981 253.600,241.704 253.600 C 241.427 253.600,241.200 253.420,241.200 253.200 C 241.200 252.980,240.851 252.800,240.424 252.800 C 239.997 252.800,239.536 252.620,239.400 252.400 C 239.264 252.180,238.623 252.000,237.976 252.000 C 237.329 252.000,236.800 251.820,236.800 251.600 C 236.800 251.065,230.096 251.129,228.800 251.677 M124.200 259.565 C 113.627 265.685,116.720 280.800,128.545 280.800 C 132.493 280.800,138.400 277.365,138.400 275.069 C 138.400 274.701,138.580 274.400,138.800 274.400 C 139.020 274.400,139.200 273.950,139.200 273.400 C 139.200 272.850,139.380 272.400,139.600 272.400 C 139.822 272.400,140.000 271.341,140.000 270.024 C 140.000 268.717,139.820 267.536,139.600 267.400 C 139.380 267.264,139.200 266.713,139.200 266.176 C 139.200 265.639,139.020 265.200,138.800 265.200 C 138.580 265.200,138.400 264.872,138.400 264.471 C 138.400 263.470,134.971 260.356,132.686 259.282 C 129.901 257.973,126.770 258.078,124.200 259.565 " stroke="none" fill="#fbfbfb" fill-rule="evenodd"></path><path id="path1" d="M293.800 4.357 C 291.110 4.921,284.953 7.045,284.400 7.599 C 283.692 8.310,280.787 10.400,280.508 10.400 C 280.057 10.400,276.400 14.128,276.400 14.588 C 276.400 14.786,276.015 15.358,275.544 15.859 C 274.595 16.870,274.159 17.579,272.508 20.800 C 269.439 26.789,268.411 41.401,270.865 44.180 C 271.049 44.389,271.200 44.879,271.200 45.268 C 271.200 45.657,271.571 46.637,272.025 47.445 L 272.851 48.914 271.425 50.374 C 270.641 51.177,270.000 52.010,270.000 52.225 C 270.000 52.440,268.290 54.319,266.200 56.400 C 264.110 58.481,262.400 60.371,262.400 60.600 C 262.400 60.828,260.600 62.808,258.400 65.000 C 256.200 67.192,254.400 69.129,254.400 69.306 C 254.400 69.482,252.796 71.238,250.835 73.208 C 248.874 75.178,247.209 76.963,247.135 77.173 C 247.061 77.384,245.605 78.983,243.900 80.727 C 242.195 82.472,240.800 84.061,240.800 84.258 C 240.800 84.455,239.180 86.229,237.200 88.200 C 235.220 90.171,233.600 91.976,233.600 92.210 C 233.600 92.445,232.898 93.324,232.039 94.162 C 231.181 95.000,230.396 96.162,230.295 96.743 C 230.195 97.324,229.740 99.600,229.284 101.800 C 228.829 104.000,228.073 107.870,227.605 110.400 C 225.497 121.794,223.929 129.915,223.580 131.246 C 223.371 132.042,223.200 133.246,223.200 133.923 C 223.200 134.599,223.020 135.264,222.800 135.400 C 221.961 135.919,222.326 141.270,223.270 142.274 L 224.139 143.200 216.939 143.200 C 208.359 143.200,208.541 143.101,206.640 148.800 C 205.589 151.952,204.020 156.078,203.400 157.320 C 203.070 157.982,202.800 158.777,202.800 159.087 C 202.800 159.397,202.375 160.585,201.855 161.726 C 201.335 162.867,200.775 164.250,200.611 164.800 C 200.275 165.919,199.324 168.237,198.766 169.295 C 198.565 169.677,198.400 170.273,198.400 170.620 C 198.400 170.967,197.950 172.235,197.400 173.437 C 196.850 174.640,196.400 175.800,196.400 176.016 C 196.400 176.232,196.071 177.172,195.669 178.104 C 195.267 179.037,194.616 180.790,194.224 182.000 C 193.832 183.210,193.329 184.425,193.106 184.700 C 192.787 185.094,183.494 185.200,149.071 185.200 C 120.466 185.200,105.576 185.336,105.833 185.593 C 106.087 185.847,122.704 185.997,152.413 186.015 L 198.600 186.043 201.533 178.321 C 203.147 174.075,205.098 168.890,205.869 166.800 C 206.640 164.710,207.422 162.640,207.605 162.200 C 207.789 161.760,208.599 159.600,209.405 157.400 C 210.212 155.200,211.022 153.040,211.207 152.600 C 212.161 150.328,213.302 146.817,213.546 145.400 L 213.822 143.800 233.411 143.594 C 244.185 143.481,250.435 143.346,247.300 143.294 C 241.318 143.195,241.161 143.149,242.329 141.826 C 242.730 141.372,243.242 140.362,243.466 139.583 L 243.874 138.165 242.437 138.102 C 241.647 138.067,238.255 137.920,234.900 137.775 C 231.177 137.615,228.800 137.353,228.800 137.103 C 228.800 136.878,229.801 131.363,231.026 124.847 C 233.256 112.972,234.931 103.941,235.597 100.200 C 235.792 99.100,236.078 97.606,236.230 96.880 C 236.471 95.738,261.860 67.225,276.553 51.597 C 280.882 46.992,280.629 47.533,279.422 45.473 C 272.955 34.439,275.108 21.369,284.950 11.899 C 287.537 9.410,288.433 8.850,294.495 5.934 C 294.877 5.750,295.642 5.600,296.195 5.600 C 296.748 5.600,297.200 5.420,297.200 5.200 C 297.200 4.956,299.265 4.782,302.500 4.753 C 305.810 4.723,307.349 4.591,306.600 4.400 C 305.160 4.034,295.497 4.001,293.800 4.357 M329.141 43.874 C 328.623 44.933,328.065 45.860,327.900 45.933 C 327.735 46.007,327.597 46.277,327.593 46.533 C 327.578 47.502,323.045 52.497,320.400 54.460 C 313.408 59.649,302.533 61.430,294.800 58.650 C 293.150 58.057,291.505 57.473,291.145 57.351 C 290.681 57.195,289.827 57.961,288.221 59.974 C 286.973 61.538,284.657 64.216,283.076 65.924 C 281.494 67.632,278.940 70.445,277.400 72.174 C 273.954 76.043,271.318 78.976,270.000 80.408 C 269.450 81.006,267.830 82.811,266.400 84.419 C 264.970 86.027,263.170 88.007,262.400 88.820 C 261.630 89.632,259.807 91.625,258.348 93.249 C 256.889 94.872,255.179 96.742,254.548 97.405 C 250.108 102.064,249.727 102.747,249.425 106.593 C 249.270 108.570,248.964 110.402,248.746 110.665 C 248.527 110.929,248.420 111.832,248.507 112.672 L 248.666 114.200 248.733 112.524 C 248.770 111.602,248.980 110.736,249.200 110.600 C 249.420 110.464,249.600 109.656,249.600 108.804 C 249.600 107.007,250.590 105.655,256.072 99.970 C 257.981 97.989,259.601 96.205,259.672 96.005 C 259.742 95.804,261.375 94.036,263.300 92.075 C 265.225 90.115,266.800 88.346,266.800 88.146 C 266.800 87.946,268.330 86.260,270.200 84.400 C 272.070 82.540,273.600 80.829,273.600 80.599 C 273.600 80.369,275.040 78.750,276.800 77.000 C 278.560 75.250,280.000 73.638,280.000 73.417 C 280.000 73.196,281.546 71.463,283.434 69.565 C 285.323 67.668,287.083 65.684,287.344 65.157 C 287.866 64.104,290.161 63.601,290.931 64.371 C 291.167 64.607,292.033 64.800,292.856 64.800 C 293.679 64.800,294.464 64.980,294.600 65.200 C 294.746 65.436,297.130 65.600,300.400 65.600 C 303.670 65.600,306.054 65.436,306.200 65.200 C 306.336 64.980,307.146 64.800,308.000 64.800 C 308.854 64.800,309.664 64.620,309.800 64.400 C 309.936 64.180,310.340 64.000,310.697 64.000 C 311.322 64.000,314.353 62.746,315.600 61.971 C 315.930 61.766,316.567 61.437,317.016 61.241 C 317.465 61.044,318.073 60.595,318.365 60.242 C 318.658 59.889,319.105 59.600,319.359 59.600 C 319.880 59.600,325.600 53.962,325.600 53.449 C 325.600 53.266,326.095 52.370,326.700 51.458 C 328.254 49.116,329.176 47.039,329.984 44.061 C 330.636 41.658,330.264 41.576,329.141 43.874 M247.600 116.067 C 247.600 118.032,247.790 117.976,248.165 115.900 C 248.337 114.950,248.283 114.400,248.018 114.400 C 247.788 114.400,247.600 115.150,247.600 116.067 M246.800 119.667 C 246.800 121.632,246.990 121.576,247.365 119.500 C 247.537 118.550,247.483 118.000,247.218 118.000 C 246.988 118.000,246.800 118.750,246.800 119.667 M246.047 123.500 C 246.090 125.196,246.127 125.271,246.400 124.200 C 246.850 122.431,246.850 121.600,246.400 121.600 C 246.180 121.600,246.021 122.455,246.047 123.500 M0.480 143.680 C 0.109 144.051,0.000 173.120,0.000 272.080 L 0.000 400.000 10.600 400.000 C 17.400 400.000,21.200 399.857,21.200 399.600 C 21.200 399.380,21.412 399.200,21.670 399.200 C 22.217 399.200,24.117 398.299,39.906 390.547 C 46.345 387.386,51.731 384.800,51.877 384.800 C 52.022 384.800,57.233 382.280,63.456 379.200 C 69.680 376.120,74.913 373.599,75.086 373.599 C 75.372 373.598,79.470 371.591,81.400 370.507 C 82.861 369.686,91.555 365.600,91.840 365.600 C 92.215 365.600,96.546 363.503,96.800 363.198 C 96.910 363.066,97.720 362.642,98.600 362.255 C 99.480 361.869,100.920 361.158,101.800 360.676 L 103.400 359.800 207.000 359.600 L 310.600 359.400 312.600 358.246 C 313.700 357.611,315.227 356.621,315.994 356.046 C 317.560 354.871,318.617 354.210,319.816 353.659 C 320.265 353.452,320.873 352.995,321.165 352.642 C 321.458 352.289,321.915 352.000,322.179 352.000 C 322.444 352.000,323.083 351.550,323.600 351.000 C 324.117 350.450,324.750 350.000,325.008 350.000 C 325.265 350.000,325.802 349.640,326.200 349.200 C 326.598 348.760,327.103 348.400,327.321 348.400 C 327.539 348.400,328.486 347.770,329.426 347.000 C 330.366 346.230,331.301 345.600,331.505 345.600 C 331.709 345.600,332.202 345.240,332.600 344.800 C 332.998 344.360,333.478 344.000,333.666 344.000 C 333.854 344.000,334.905 343.370,336.000 342.600 C 337.095 341.830,338.098 341.200,338.229 341.200 C 338.359 341.200,339.234 340.570,340.174 339.800 C 341.114 339.030,342.067 338.400,342.292 338.400 C 342.518 338.400,342.934 338.121,343.216 337.780 C 343.499 337.439,344.482 336.818,345.400 336.400 C 346.318 335.982,347.301 335.361,347.584 335.020 C 347.866 334.679,348.255 334.400,348.448 334.400 C 349.070 334.400,352.700 331.612,353.330 330.650 C 354.012 329.610,354.649 326.800,354.203 326.800 C 353.221 326.800,347.726 330.262,331.003 341.417 L 312.139 354.000 208.911 354.000 L 105.683 354.000 95.141 359.135 C 89.344 361.960,83.340 364.864,81.800 365.589 C 80.260 366.314,75.220 368.752,70.600 371.007 C 61.931 375.237,54.890 378.631,47.600 382.093 C 45.290 383.190,40.340 385.576,36.600 387.395 C 32.860 389.214,27.506 391.804,24.702 393.151 L 19.604 395.600 12.402 395.600 L 5.200 395.600 5.198 272.900 C 5.196 205.415,5.080 148.719,4.939 146.910 L 4.683 143.620 11.441 143.500 C 18.180 143.380,18.175 143.379,9.580 143.290 C 3.305 143.224,0.829 143.331,0.480 143.680 M270.800 185.600 C 270.800 185.861,277.525 186.000,290.176 186.000 C 302.663 186.000,309.641 185.858,309.800 185.600 C 309.964 185.335,303.404 185.200,290.424 185.200 C 277.608 185.200,270.800 185.339,270.800 185.600 M225.700 205.599 C 224.964 205.906,224.801 206.286,224.805 207.687 C 224.816 211.048,224.950 211.193,227.788 210.928 C 229.165 210.800,231.307 210.821,232.546 210.976 L 234.800 211.258 234.800 213.153 C 234.800 219.306,236.770 228.391,238.105 228.397 C 238.493 228.399,239.123 228.570,239.505 228.778 C 239.887 228.986,241.460 229.548,243.000 230.027 C 246.796 231.206,249.646 232.430,252.388 234.058 C 254.293 235.189,258.329 234.982,259.713 233.682 C 260.229 233.197,260.828 232.800,261.045 232.800 C 261.261 232.800,262.141 232.080,263.000 231.200 C 263.859 230.320,264.764 229.600,265.011 229.600 C 265.258 229.600,265.883 229.150,266.400 228.600 C 266.917 228.050,267.578 227.600,267.870 227.600 C 268.161 227.600,268.400 227.439,268.400 227.243 C 268.400 225.837,269.962 226.579,272.674 229.274 C 275.942 232.520,276.007 232.678,274.600 234.000 C 274.050 234.517,273.600 235.144,273.600 235.395 C 273.600 235.645,273.060 236.368,272.400 237.000 C 271.740 237.632,271.200 238.352,271.200 238.600 C 271.200 238.848,270.647 239.579,269.972 240.225 C 267.246 242.834,266.388 247.191,268.048 250.000 C 270.221 253.677,271.869 257.799,273.204 262.892 C 273.477 263.933,273.902 264.944,274.150 265.138 C 274.628 265.514,274.818 265.545,284.390 266.805 C 291.819 267.782,291.254 267.293,291.114 272.634 L 291.000 277.000 286.000 277.670 C 283.250 278.038,280.190 278.356,279.200 278.376 C 274.864 278.463,273.932 279.223,272.629 283.731 C 272.067 285.674,271.357 287.834,271.050 288.531 C 269.186 292.775,268.667 293.858,268.257 294.359 C 266.788 296.153,266.923 300.553,268.500 302.291 C 268.885 302.716,269.200 303.242,269.200 303.462 C 269.200 303.681,269.650 304.283,270.200 304.800 C 270.750 305.317,271.200 305.947,271.200 306.200 C 271.200 306.453,271.674 307.097,272.254 307.630 C 273.533 308.806,275.600 311.573,275.600 312.107 C 275.600 312.616,270.289 317.825,269.900 317.698 C 269.239 317.482,269.668 318.109,270.877 319.126 C 271.579 319.717,272.375 320.200,272.647 320.200 C 274.045 320.200,283.200 311.206,283.200 309.833 C 283.200 309.546,281.396 306.991,279.190 304.155 C 273.504 296.844,273.017 296.102,273.513 295.504 C 274.276 294.581,277.073 288.631,277.792 286.400 C 278.182 285.190,278.658 283.787,278.850 283.281 C 279.043 282.776,279.200 281.753,279.200 281.008 C 279.200 280.062,279.411 279.593,279.900 279.451 C 281.570 278.968,286.974 278.400,291.560 278.227 C 297.817 277.991,297.400 278.564,297.400 270.194 C 297.400 261.545,298.236 262.368,288.256 261.192 C 280.359 260.261,279.200 259.923,279.200 258.553 C 279.200 257.177,276.944 251.123,275.144 247.669 C 274.075 245.617,273.200 243.883,273.200 243.816 C 273.200 243.748,275.542 240.679,278.404 236.995 L 283.607 230.297 281.323 227.649 C 277.767 223.527,273.412 219.600,272.397 219.600 C 271.880 219.600,270.322 220.690,268.400 222.397 C 262.994 227.199,258.387 230.150,257.794 229.190 C 257.306 228.401,252.055 226.025,247.548 224.554 C 245.047 223.738,242.882 222.965,242.737 222.835 C 242.512 222.633,241.802 217.372,240.829 208.706 C 240.687 207.444,240.345 206.184,240.067 205.906 C 239.449 205.287,227.082 205.022,225.700 205.599 M224.556 212.971 C 224.435 213.285,224.404 213.960,224.486 214.471 C 224.595 215.154,224.688 215.004,224.837 213.900 C 225.047 212.347,224.936 211.981,224.556 212.971 M223.693 219.600 C 223.693 220.370,223.775 220.685,223.876 220.300 C 223.976 219.915,223.976 219.285,223.876 218.900 C 223.775 218.515,223.693 218.830,223.693 219.600 M188.972 222.700 C 187.222 224.405,185.079 226.700,184.209 227.800 C 183.339 228.900,182.485 229.901,182.311 230.025 C 182.137 230.149,182.451 230.648,183.009 231.133 L 184.024 232.015 186.792 229.208 C 189.839 226.119,190.333 225.927,191.439 227.400 C 191.852 227.950,192.386 228.400,192.625 228.400 C 192.865 228.400,193.483 228.850,194.000 229.400 C 194.517 229.950,195.143 230.400,195.391 230.400 C 195.640 230.400,196.463 231.044,197.222 231.831 C 199.573 234.271,205.645 235.945,206.592 234.413 C 206.815 234.052,209.235 232.832,213.655 230.852 C 214.675 230.395,216.385 229.812,217.455 229.557 C 221.762 228.528,222.937 227.631,223.326 225.074 L 223.558 223.548 221.282 223.832 C 218.233 224.213,214.141 225.674,209.932 227.886 L 206.465 229.708 200.021 224.654 C 192.414 218.687,192.985 218.788,188.972 222.700 M122.335 224.665 C 120.167 224.869,120.048 225.064,120.296 228.000 L 120.481 230.200 125.404 230.078 L 130.328 229.955 130.568 233.078 C 131.494 245.105,132.066 246.790,135.847 248.640 C 137.012 249.211,138.176 249.930,138.432 250.239 C 138.688 250.547,139.089 250.800,139.323 250.800 C 139.557 250.800,140.159 251.186,140.661 251.658 C 141.863 252.787,146.314 252.911,148.494 251.877 C 158.431 247.162,159.528 247.006,161.142 250.083 C 161.638 251.027,162.381 252.340,162.793 253.000 C 163.673 254.410,163.822 256.000,163.075 256.000 C 162.786 256.000,162.032 256.540,161.400 257.200 C 160.768 257.860,160.049 258.400,159.804 258.400 C 159.558 258.400,158.746 259.030,158.000 259.800 C 157.254 260.570,156.440 261.200,156.191 261.200 C 155.943 261.200,155.317 261.650,154.800 262.200 C 154.283 262.750,153.704 263.200,153.512 263.200 C 151.641 263.200,151.200 264.944,151.200 272.331 L 151.200 279.498 152.921 281.049 C 156.761 284.508,157.594 285.200,157.920 285.200 C 158.107 285.200,158.683 285.650,159.200 286.200 C 159.717 286.750,160.325 287.200,160.551 287.200 C 161.482 287.200,163.551 289.688,163.172 290.351 C 162.967 290.708,162.613 291.450,162.383 292.000 C 161.337 294.505,159.565 296.872,158.920 296.625 C 158.611 296.506,158.468 296.587,158.603 296.805 C 158.737 297.022,159.107 297.200,159.424 297.200 C 159.741 297.200,160.000 297.380,160.000 297.600 C 160.000 297.820,160.197 298.000,160.438 298.000 C 160.679 298.000,161.410 298.380,162.062 298.844 C 163.213 299.664,163.265 299.667,163.844 298.944 C 166.781 295.283,171.376 286.499,170.751 285.743 C 170.543 285.491,167.411 283.061,163.792 280.343 L 157.211 275.400 157.505 274.000 C 157.892 272.163,157.881 268.606,157.482 266.600 L 157.163 265.000 162.282 261.162 C 165.097 259.052,168.255 256.748,169.300 256.043 C 170.445 255.271,171.200 254.461,171.200 254.005 C 171.200 251.955,164.306 240.800,163.039 240.800 C 162.766 240.800,161.427 241.340,160.065 242.000 C 158.702 242.660,157.513 243.200,157.423 243.200 C 157.332 243.200,155.940 243.796,154.329 244.523 C 146.868 247.894,147.618 247.783,144.994 245.913 C 143.897 245.132,142.053 244.002,140.897 243.402 C 138.223 242.017,138.558 242.950,137.361 233.534 C 136.792 229.060,136.181 225.247,136.003 225.060 C 135.647 224.685,125.295 224.386,122.335 224.665 M91.708 242.700 C 91.070 243.745,89.863 246.040,89.026 247.800 C 88.189 249.560,87.346 251.313,87.152 251.695 C 86.959 252.077,86.800 252.662,86.800 252.995 C 86.800 253.328,86.620 253.600,86.400 253.600 C 85.784 253.600,85.926 254.286,86.595 254.543 C 87.016 254.704,87.504 254.128,88.269 252.566 C 88.863 251.353,89.912 249.710,90.600 248.914 L 91.851 247.467 93.187 248.133 C 93.922 248.500,94.768 248.800,95.067 248.800 C 95.366 248.800,95.923 248.973,96.305 249.184 C 103.156 252.974,109.546 253.557,111.986 250.617 C 112.259 250.288,113.438 249.551,114.606 248.979 C 117.400 247.613,118.800 245.721,118.800 243.313 C 118.800 242.212,114.571 243.931,111.901 246.118 L 110.002 247.673 106.501 246.188 C 104.575 245.371,101.740 244.171,100.200 243.521 C 98.660 242.870,96.637 241.992,95.704 241.569 C 93.310 240.483,93.010 240.568,91.708 242.700 M191.489 246.405 C 191.110 246.847,190.800 247.387,190.800 247.605 C 190.800 247.822,190.620 248.000,190.400 248.000 C 190.180 248.000,190.000 248.264,190.000 248.586 C 190.000 248.909,189.705 249.854,189.345 250.686 C 188.984 251.519,188.513 252.650,188.298 253.200 C 188.083 253.750,187.748 254.513,187.553 254.895 C 187.359 255.277,187.200 256.042,187.200 256.595 C 187.200 257.148,187.020 257.600,186.800 257.600 C 186.580 257.600,186.400 258.211,186.400 258.957 C 186.400 260.574,185.973 260.797,182.867 260.808 C 179.706 260.818,168.764 262.276,168.290 262.750 C 168.059 262.981,168.016 264.064,168.184 265.412 L 168.468 267.684 170.734 267.423 C 184.915 265.793,185.372 265.604,186.788 260.800 C 187.640 257.909,189.632 252.841,190.404 251.600 C 191.293 250.173,191.938 248.496,192.137 247.100 C 192.385 245.352,192.388 245.355,191.489 246.405 M354.400 247.900 C 354.400 248.171,373.939 248.162,387.000 247.885 C 389.860 247.824,383.695 247.735,373.300 247.687 C 362.905 247.639,354.400 247.735,354.400 247.900 M225.200 251.269 C 221.243 252.365,220.491 252.622,219.200 253.319 C 218.430 253.735,217.350 254.482,216.800 254.979 C 216.250 255.476,215.481 255.995,215.091 256.132 C 214.701 256.270,214.264 256.701,214.120 257.091 C 213.977 257.481,213.171 258.590,212.329 259.556 C 211.488 260.522,210.800 261.477,210.800 261.678 C 210.800 261.879,210.463 262.799,210.051 263.722 C 206.086 272.604,209.876 285.814,217.650 290.214 C 220.263 291.693,221.816 292.400,222.452 292.400 C 222.837 292.400,223.264 292.580,223.400 292.800 C 224.582 294.712,239.686 292.506,241.655 290.134 C 241.898 289.840,242.321 289.600,242.594 289.600 C 243.020 289.600,245.092 287.507,247.200 284.948 C 248.921 282.860,250.865 277.134,250.756 274.475 C 250.725 273.720,250.610 273.919,250.370 275.141 C 248.782 283.216,237.848 289.634,229.144 287.600 C 212.222 283.644,209.677 260.933,225.300 253.298 C 228.638 251.667,229.071 251.517,231.400 251.192 C 233.145 250.948,232.966 250.911,230.000 250.897 C 228.130 250.889,225.970 251.056,225.200 251.269 M122.260 258.420 C 112.428 260.069,107.597 272.860,113.790 280.844 C 114.235 281.419,114.865 282.274,115.188 282.744 C 115.512 283.215,115.950 283.600,116.163 283.600 C 116.375 283.600,116.920 283.927,117.374 284.327 C 120.439 287.023,131.541 286.539,134.208 283.592 C 134.602 283.156,135.166 282.800,135.462 282.800 C 135.758 282.800,136.000 282.552,136.000 282.249 C 136.000 281.946,136.279 281.466,136.620 281.184 C 137.917 280.107,140.501 272.400,139.565 272.400 C 139.364 272.400,139.200 272.850,139.200 273.400 C 139.200 273.950,139.020 274.400,138.800 274.400 C 138.580 274.400,138.400 274.701,138.400 275.069 C 138.400 277.365,132.493 280.800,128.545 280.800 C 116.327 280.800,113.648 265.366,124.800 259.226 L 127.000 258.014 125.600 258.054 C 124.830 258.076,123.327 258.241,122.260 258.420 M99.293 270.000 C 99.293 270.770,99.375 271.085,99.476 270.700 C 99.576 270.315,99.576 269.685,99.476 269.300 C 99.375 268.915,99.293 269.230,99.293 270.000 M99.200 275.928 C 97.850 276.540,90.996 281.515,89.002 283.331 C 88.561 283.733,87.705 284.357,87.100 284.717 C 85.802 285.491,85.706 286.333,86.784 287.491 C 87.782 288.562,88.733 288.320,90.434 286.565 C 91.162 285.814,91.956 285.200,92.200 285.200 C 92.444 285.200,93.254 284.570,94.000 283.800 C 94.746 283.030,95.554 282.400,95.795 282.400 C 96.933 282.400,99.522 278.993,99.671 277.300 C 99.754 276.365,99.816 275.613,99.811 275.628 C 99.805 275.644,99.530 275.779,99.200 275.928 M354.003 291.900 C 354.005 292.285,354.120 293.545,354.259 294.700 L 354.511 296.800 374.061 296.800 C 388.957 296.800,393.824 296.681,394.505 296.300 C 394.997 296.025,395.428 295.800,395.463 295.800 C 395.497 295.800,395.647 294.979,395.797 293.977 L 396.068 292.153 394.003 291.677 C 390.262 290.813,353.999 291.016,354.003 291.900 M103.000 292.473 C 100.868 293.335,100.208 293.607,98.000 294.533 C 91.977 297.058,92.052 297.002,92.806 298.411 C 93.243 299.229,93.572 299.189,96.200 298.005 C 97.720 297.319,100.053 296.327,101.800 295.624 C 103.747 294.839,106.612 293.374,106.733 293.100 C 106.807 292.935,107.100 292.800,107.384 292.800 C 107.669 292.800,108.126 292.530,108.400 292.200 C 109.165 291.279,105.496 291.464,103.000 292.473 M141.000 292.806 C 139.900 293.455,138.640 294.174,138.200 294.403 C 137.760 294.633,136.788 295.266,136.041 295.810 C 135.293 296.355,134.370 296.800,133.990 296.800 C 132.405 296.800,131.724 299.541,130.811 309.594 C 130.353 314.641,130.131 314.906,126.518 314.725 C 125.153 314.656,124.163 314.715,124.318 314.856 C 125.139 315.601,135.923 315.673,136.144 314.935 C 136.421 314.012,137.951 302.009,138.094 299.640 C 138.198 297.913,138.248 297.854,140.858 296.440 C 144.056 294.707,144.279 294.547,145.775 292.896 L 146.950 291.600 144.975 291.613 C 143.523 291.623,142.470 291.939,141.000 292.806 M190.718 298.987 C 190.122 299.654,189.223 300.740,188.719 301.400 C 187.671 302.772,186.779 303.886,186.200 304.545 C 183.375 307.760,182.343 309.674,183.027 310.430 C 183.829 311.316,184.800 311.448,184.800 310.670 C 184.800 310.378,185.250 309.717,185.800 309.200 C 186.350 308.683,186.800 308.057,186.800 307.809 C 186.800 307.560,187.430 306.746,188.200 306.000 C 188.970 305.254,189.600 304.462,189.600 304.241 C 189.600 304.019,190.151 303.270,190.824 302.575 C 191.876 301.490,192.031 301.062,191.924 299.543 L 191.800 297.773 190.718 298.987 M200.400 310.600 C 200.126 310.930,199.688 311.200,199.426 311.200 C 199.164 311.200,198.432 311.740,197.800 312.400 C 197.168 313.060,196.445 313.600,196.195 313.600 C 195.944 313.600,195.317 314.050,194.800 314.600 C 194.283 315.150,193.689 315.600,193.479 315.600 C 193.269 315.600,192.400 316.230,191.547 317.000 C 190.695 317.770,190.171 318.400,190.383 318.400 C 190.594 318.400,191.227 318.895,191.788 319.500 C 192.745 320.533,192.867 320.563,193.787 320.000 C 195.758 318.792,201.064 314.547,203.400 312.309 L 205.800 310.010 203.349 310.005 C 201.653 310.002,200.744 310.185,200.400 310.600 M250.600 311.384 C 245.785 313.751,243.280 314.800,242.444 314.800 C 242.001 314.800,241.134 315.005,240.519 315.256 C 237.851 316.344,236.822 316.841,236.646 317.125 C 236.326 317.644,234.800 329.617,234.800 331.612 C 234.800 333.640,234.343 333.951,231.250 334.025 C 228.374 334.095,232.164 334.710,235.687 334.745 C 240.371 334.792,240.587 334.636,240.937 330.932 C 241.078 329.429,241.370 326.940,241.584 325.400 C 241.798 323.860,241.980 321.395,241.987 319.923 C 242.001 317.123,242.704 316.000,244.443 316.000 C 246.554 316.000,253.691 313.204,256.281 311.363 L 258.197 310.000 255.799 310.004 C 253.879 310.007,252.841 310.282,250.600 311.384 M225.600 333.963 C 225.600 334.121,226.450 334.295,227.490 334.348 C 228.529 334.402,229.294 334.371,229.190 334.278 C 228.830 333.960,225.600 333.677,225.600 333.963 " stroke="none" fill="#101010" fill-rule="evenodd"></path></g></svg>