<svg id="svg" version="1.1" xmlns="http://www.w3.org/2000/svg" xmlns:xlink="http://www.w3.org/1999/xlink" width="400" height="400" viewBox="0, 0, 400,400"><g id="svgg"><path id="path0" d="M373.931 75.739 C 372.903 75.992,371.928 76.335,371.764 76.500 C 371.601 76.665,371.127 76.800,370.711 76.800 C 369.693 76.800,366.655 78.211,366.016 78.980 C 365.734 79.321,365.291 79.600,365.032 79.600 C 364.774 79.600,363.859 80.320,363.000 81.200 C 362.141 82.080,361.244 82.800,361.006 82.800 C 360.769 82.800,359.506 83.880,358.200 85.200 C 356.894 86.520,355.637 87.600,355.407 87.600 C 355.176 87.600,352.743 89.850,350.000 92.600 C 347.257 95.350,344.825 97.600,344.597 97.600 C 344.368 97.600,342.750 99.040,341.000 100.800 C 339.250 102.560,337.628 104.000,337.394 104.000 C 337.161 104.000,336.083 104.900,335.000 106.000 C 333.917 107.100,332.834 108.000,332.594 108.000 C 332.353 108.000,331.546 108.630,330.800 109.400 C 330.054 110.170,329.242 110.800,328.996 110.800 C 328.751 110.800,328.032 111.340,327.400 112.000 C 326.768 112.660,326.042 113.200,325.787 113.200 C 325.532 113.200,324.998 113.560,324.600 114.000 C 324.202 114.440,323.714 114.800,323.516 114.800 C 323.318 114.800,322.581 115.339,321.878 115.998 C 321.175 116.657,320.375 117.197,320.100 117.198 C 319.825 117.199,319.600 117.350,319.600 117.532 C 319.600 117.715,319.105 118.120,318.500 118.432 C 317.895 118.745,317.051 119.315,316.625 119.700 C 316.198 120.085,315.613 120.400,315.325 120.400 C 315.036 120.400,314.800 120.550,314.800 120.732 C 314.800 120.915,314.305 121.320,313.700 121.632 C 313.095 121.945,312.261 122.505,311.847 122.879 C 311.433 123.252,310.147 124.021,308.989 124.588 C 307.830 125.155,306.662 125.884,306.392 126.209 C 306.123 126.534,305.726 126.800,305.511 126.800 C 304.921 126.800,302.290 128.058,301.527 128.705 C 300.445 129.622,285.887 136.800,285.108 136.800 C 284.719 136.800,284.400 136.980,284.400 137.200 C 284.400 137.420,284.135 137.600,283.812 137.600 C 283.489 137.600,282.583 137.960,281.800 138.400 C 281.017 138.840,280.021 139.200,279.588 139.200 C 279.155 139.200,278.799 139.335,278.797 139.500 C 278.793 139.856,276.859 140.800,276.132 140.800 C 275.853 140.800,274.983 141.160,274.200 141.600 C 273.417 142.040,272.532 142.400,272.234 142.400 C 271.935 142.400,271.176 142.669,270.546 142.998 C 269.916 143.326,269.006 143.596,268.524 143.598 C 268.042 143.599,267.536 143.780,267.400 144.000 C 267.264 144.220,266.724 144.400,266.200 144.400 C 265.676 144.400,265.136 144.580,265.000 144.800 C 264.864 145.020,264.324 145.200,263.800 145.200 C 263.276 145.200,262.736 145.380,262.600 145.600 C 262.464 145.820,261.924 146.000,261.400 146.000 C 260.876 146.000,260.336 146.180,260.200 146.400 C 260.064 146.620,259.524 146.800,259.000 146.800 C 258.476 146.800,257.936 146.980,257.800 147.200 C 257.664 147.420,257.124 147.600,256.600 147.600 C 256.076 147.600,255.536 147.780,255.400 148.000 C 255.264 148.220,254.724 148.400,254.200 148.400 C 253.676 148.400,253.136 148.580,253.000 148.800 C 252.864 149.020,252.311 149.200,251.771 149.200 C 251.231 149.200,250.477 149.358,250.095 149.551 C 248.939 150.135,246.596 150.800,245.695 150.800 C 245.229 150.800,244.749 150.959,244.629 151.154 C 244.508 151.349,243.913 151.607,243.305 151.729 C 242.697 151.851,241.480 152.134,240.600 152.357 C 237.156 153.232,235.668 153.584,232.200 154.345 C 230.220 154.779,227.520 155.402,226.200 155.728 C 224.880 156.055,222.810 156.518,221.600 156.758 C 211.133 158.829,208.354 159.341,203.864 160.021 C 201.039 160.450,198.035 160.800,197.188 160.800 C 196.340 160.800,195.536 160.980,195.400 161.200 C 195.264 161.420,193.849 161.600,192.256 161.600 C 190.663 161.600,189.189 161.766,188.980 161.969 C 188.771 162.172,187.340 162.434,185.800 162.551 C 184.260 162.668,181.470 162.944,179.600 163.164 C 168.414 164.478,149.758 165.897,139.200 166.235 C 131.238 166.490,130.800 166.564,130.800 167.640 C 130.800 168.421,130.958 168.452,133.700 168.222 C 135.295 168.088,140.380 167.814,145.000 167.613 C 154.193 167.213,163.473 166.622,170.000 166.021 C 172.310 165.808,176.180 165.454,178.600 165.235 C 181.020 165.015,184.530 164.653,186.400 164.429 C 194.473 163.464,196.448 163.239,200.800 162.791 C 203.330 162.531,205.760 162.165,206.200 161.978 C 206.640 161.791,207.990 161.536,209.200 161.410 C 210.410 161.284,212.390 161.080,213.600 160.956 C 214.810 160.831,215.971 160.565,216.180 160.365 C 216.389 160.164,217.413 160.000,218.456 160.000 C 219.499 160.000,220.464 159.820,220.600 159.600 C 220.736 159.380,221.636 159.200,222.600 159.200 C 223.564 159.200,224.464 159.020,224.600 158.800 C 224.736 158.580,225.636 158.400,226.600 158.400 C 227.564 158.400,228.464 158.220,228.600 158.000 C 228.736 157.780,229.636 157.600,230.600 157.600 C 231.564 157.600,232.464 157.420,232.600 157.200 C 232.736 156.980,233.456 156.800,234.200 156.800 C 234.944 156.800,235.664 156.620,235.800 156.400 C 235.936 156.180,236.746 156.000,237.600 156.000 C 238.454 156.000,239.252 155.839,239.374 155.642 C 239.582 155.305,240.145 155.182,244.303 154.567 C 245.239 154.429,246.105 154.155,246.226 153.958 C 246.348 153.761,246.966 153.600,247.600 153.600 C 248.234 153.600,248.864 153.420,249.000 153.200 C 249.136 152.980,249.766 152.800,250.400 152.800 C 251.034 152.800,251.664 152.620,251.800 152.400 C 251.936 152.180,252.429 152.000,252.895 152.000 C 253.362 152.000,254.296 151.832,254.972 151.627 C 260.313 150.007,265.883 148.325,268.400 147.571 C 270.050 147.077,271.571 146.522,271.780 146.337 C 271.989 146.151,272.563 146.000,273.056 146.000 C 273.549 146.000,274.064 145.820,274.200 145.600 C 274.336 145.380,274.799 145.200,275.229 145.200 C 275.659 145.200,276.368 145.020,276.805 144.800 C 277.242 144.580,277.958 144.220,278.395 144.000 C 278.832 143.780,279.541 143.600,279.971 143.600 C 280.401 143.600,280.864 143.420,281.000 143.200 C 281.136 142.980,281.597 142.800,282.024 142.800 C 282.451 142.800,282.800 142.620,282.800 142.400 C 282.800 142.180,283.072 142.000,283.405 142.000 C 283.738 142.000,284.323 141.841,284.705 141.647 C 285.479 141.253,287.376 140.450,288.600 139.997 C 289.040 139.834,290.210 139.333,291.200 138.883 C 292.190 138.432,293.805 137.735,294.789 137.332 C 298.325 135.885,311.697 129.103,312.400 128.400 C 312.510 128.290,313.030 127.958,313.555 127.662 C 314.080 127.367,315.115 126.782,315.855 126.362 C 316.595 125.943,317.875 125.222,318.700 124.760 C 323.298 122.185,334.754 114.160,340.171 109.719 C 340.594 109.371,341.764 108.459,342.771 107.693 C 344.654 106.257,348.778 102.665,352.980 98.800 C 354.295 97.590,355.581 96.420,355.836 96.200 C 356.092 95.980,358.618 93.619,361.450 90.953 C 364.283 88.287,367.794 85.137,369.252 83.953 C 370.711 82.769,372.511 81.308,373.252 80.707 C 373.994 80.106,374.810 79.611,375.067 79.607 C 375.323 79.603,375.593 79.465,375.667 79.300 C 375.905 78.765,379.251 77.200,380.158 77.200 C 380.643 77.200,381.219 77.021,381.438 76.802 C 381.659 76.581,384.413 76.373,387.618 76.335 C 392.532 76.276,393.100 76.209,391.400 75.886 C 388.340 75.305,376.107 75.202,373.931 75.739 M48.100 122.677 C 46.505 122.764,45.200 123.007,45.200 123.218 C 45.200 123.428,44.871 123.600,44.468 123.600 C 43.619 123.600,40.278 125.226,39.281 126.124 C 38.906 126.462,38.118 126.858,37.529 127.005 C 36.941 127.152,36.148 127.616,35.767 128.036 C 35.387 128.456,34.862 128.800,34.600 128.800 C 34.338 128.800,33.798 129.160,33.400 129.600 C 33.002 130.040,32.468 130.400,32.213 130.400 C 31.958 130.400,31.232 130.940,30.600 131.600 C 29.968 132.260,29.248 132.800,29.000 132.800 C 28.752 132.800,28.032 133.340,27.400 134.000 C 26.768 134.660,26.052 135.200,25.810 135.200 C 25.568 135.200,24.483 136.100,23.400 137.200 C 22.317 138.300,21.240 139.200,21.007 139.200 C 20.465 139.200,13.200 146.481,13.200 147.024 C 13.200 147.249,12.390 148.228,11.400 149.200 C 10.410 150.172,9.600 151.165,9.600 151.408 C 9.600 151.651,9.060 152.368,8.400 153.000 C 7.740 153.632,7.200 154.358,7.200 154.613 C 7.200 154.868,6.840 155.402,6.400 155.800 C 5.960 156.198,5.600 156.744,5.600 157.013 C 5.600 157.282,5.328 157.728,4.995 158.004 C 4.662 158.280,3.855 159.628,3.200 161.000 C 2.545 162.372,1.738 163.720,1.405 163.996 C 1.072 164.272,0.800 164.746,0.800 165.049 C 0.800 165.352,0.620 165.600,0.400 165.600 C 0.136 165.600,0.000 178.246,0.000 202.739 C 0.000 241.561,0.002 241.612,1.612 242.608 C 1.811 242.731,2.518 243.970,3.182 245.363 C 3.847 246.755,4.662 248.120,4.995 248.396 C 5.328 248.672,5.600 249.118,5.600 249.387 C 5.600 249.656,5.960 250.202,6.400 250.600 C 6.840 250.998,7.200 251.532,7.200 251.787 C 7.200 252.042,7.740 252.768,8.400 253.400 C 9.060 254.032,9.600 254.749,9.600 254.992 C 9.600 255.235,10.410 256.228,11.400 257.200 C 12.390 258.172,13.200 259.111,13.200 259.288 C 13.200 259.708,20.691 267.200,21.110 267.200 C 21.286 267.200,22.317 268.100,23.400 269.200 C 24.483 270.300,25.570 271.200,25.815 271.200 C 26.060 271.200,26.683 271.650,27.200 272.200 C 27.717 272.750,28.344 273.200,28.595 273.200 C 28.845 273.200,29.568 273.740,30.200 274.400 C 30.832 275.060,31.558 275.600,31.813 275.600 C 32.068 275.600,32.602 275.960,33.000 276.400 C 33.398 276.840,33.944 277.200,34.213 277.200 C 34.482 277.200,34.929 277.473,35.206 277.807 C 35.483 278.141,36.360 278.712,37.155 279.074 C 37.950 279.437,38.906 279.994,39.281 280.312 C 40.326 281.198,43.650 282.800,44.444 282.800 C 44.834 282.800,45.264 282.980,45.400 283.200 C 45.559 283.458,52.463 283.600,64.800 283.600 C 77.137 283.600,84.041 283.458,84.200 283.200 C 84.336 282.980,84.761 282.800,85.145 282.800 C 86.042 282.800,89.787 280.939,90.416 280.181 C 90.681 279.861,91.118 279.600,91.387 279.600 C 91.656 279.600,92.202 279.240,92.600 278.800 C 92.998 278.360,93.538 278.000,93.800 278.000 C 94.062 278.000,94.602 277.640,95.000 277.200 C 95.398 276.760,95.932 276.400,96.187 276.400 C 96.442 276.400,97.168 275.860,97.800 275.200 C 98.432 274.540,99.151 274.000,99.396 274.000 C 99.642 274.000,100.454 273.370,101.200 272.600 C 101.946 271.830,102.751 271.200,102.988 271.200 C 103.225 271.200,104.850 269.760,106.600 268.000 C 108.350 266.240,109.972 264.800,110.204 264.800 C 110.739 264.800,114.800 260.713,114.800 260.175 C 114.800 259.955,115.880 258.706,117.200 257.400 C 118.520 256.094,119.600 254.828,119.600 254.587 C 119.600 254.347,120.140 253.632,120.800 253.000 C 121.460 252.368,122.000 251.645,122.000 251.395 C 122.000 251.144,122.450 250.517,123.000 250.000 C 123.550 249.483,124.000 248.844,124.000 248.579 C 124.000 248.315,124.272 247.872,124.605 247.596 C 124.938 247.320,125.745 245.972,126.400 244.600 C 127.055 243.228,127.862 241.880,128.195 241.604 C 128.528 241.328,128.800 240.860,128.800 240.565 C 128.800 239.707,130.063 239.263,132.002 239.440 C 132.991 239.530,137.580 239.782,142.200 240.000 C 161.021 240.888,184.312 243.219,200.400 245.824 C 206.617 246.830,208.880 247.210,211.200 247.635 C 212.410 247.857,214.030 248.131,214.800 248.244 C 215.570 248.357,216.560 248.605,217.000 248.796 C 217.440 248.986,218.610 249.243,219.600 249.368 C 222.640 249.749,224.165 250.040,225.000 250.395 C 225.440 250.583,226.430 250.839,227.200 250.965 C 228.558 251.187,229.841 251.477,233.600 252.411 C 234.590 252.657,235.987 252.955,236.704 253.073 C 237.421 253.192,238.106 253.449,238.227 253.644 C 238.348 253.840,239.056 254.000,239.800 254.000 C 240.544 254.000,241.264 254.180,241.400 254.400 C 241.536 254.620,242.256 254.800,243.000 254.800 C 243.744 254.800,244.464 254.980,244.600 255.200 C 244.736 255.420,245.276 255.600,245.800 255.600 C 246.324 255.600,246.849 255.756,246.967 255.947 C 247.086 256.138,248.261 256.417,249.579 256.566 C 250.897 256.715,252.082 257.009,252.211 257.218 C 252.341 257.428,252.876 257.600,253.400 257.600 C 253.924 257.600,254.464 257.780,254.600 258.000 C 254.736 258.220,255.199 258.400,255.629 258.400 C 256.059 258.400,256.723 258.566,257.105 258.770 C 257.487 258.973,258.655 259.356,259.700 259.622 C 260.745 259.887,261.600 260.261,261.600 260.452 C 261.600 260.643,262.039 260.800,262.576 260.800 C 263.113 260.800,263.664 260.980,263.800 261.200 C 263.936 261.420,264.476 261.600,265.000 261.600 C 265.524 261.600,266.064 261.780,266.200 262.000 C 266.336 262.220,266.876 262.400,267.400 262.400 C 267.924 262.400,268.464 262.580,268.600 262.800 C 268.736 263.020,269.115 263.200,269.443 263.200 C 269.771 263.200,270.784 263.560,271.694 264.000 C 272.605 264.440,273.581 264.800,273.863 264.800 C 274.145 264.800,275.017 265.160,275.800 265.600 C 276.583 266.040,277.471 266.400,277.772 266.400 C 278.073 266.400,279.345 266.940,280.600 267.600 C 281.855 268.260,283.108 268.800,283.384 268.800 C 284.013 268.800,288.952 271.292,289.133 271.700 C 289.207 271.865,289.612 272.000,290.033 272.000 C 290.455 272.000,290.800 272.180,290.800 272.400 C 290.800 272.620,291.044 272.800,291.342 272.800 C 291.990 272.800,300.996 277.309,301.940 278.106 C 302.303 278.412,303.632 279.155,304.892 279.757 C 306.153 280.359,307.289 281.020,307.416 281.227 C 307.544 281.433,308.437 281.961,309.400 282.400 C 310.363 282.839,311.263 283.379,311.400 283.600 C 311.537 283.821,312.403 284.346,313.324 284.767 C 314.246 285.187,315.436 285.997,315.970 286.566 C 316.503 287.135,317.156 287.600,317.421 287.600 C 317.685 287.600,318.142 287.889,318.435 288.242 C 318.727 288.595,319.335 289.052,319.784 289.259 C 321.148 289.887,322.356 290.636,323.129 291.336 C 323.533 291.701,324.040 292.000,324.257 292.000 C 324.473 292.000,325.168 292.540,325.800 293.200 C 326.432 293.860,327.149 294.400,327.394 294.400 C 327.638 294.400,328.541 295.120,329.400 296.000 C 330.259 296.880,331.120 297.600,331.313 297.600 C 331.505 297.600,332.354 298.320,333.200 299.200 C 334.046 300.080,334.941 300.800,335.191 300.800 C 335.440 300.800,336.670 301.835,337.923 303.100 C 339.177 304.365,340.864 305.894,341.672 306.498 C 342.480 307.102,344.596 309.037,346.374 310.798 C 348.151 312.559,349.740 314.002,349.903 314.004 C 350.066 314.007,352.051 315.807,354.314 318.004 C 356.577 320.202,358.567 322.000,358.736 322.000 C 358.905 322.000,359.654 322.630,360.400 323.400 C 361.146 324.170,361.964 324.800,362.216 324.800 C 362.469 324.800,363.002 325.160,363.400 325.600 C 363.798 326.040,364.344 326.400,364.613 326.400 C 364.882 326.400,365.319 326.661,365.584 326.981 C 366.198 327.721,369.949 329.600,370.812 329.600 C 371.172 329.600,371.599 329.732,371.760 329.894 C 373.411 331.544,391.389 331.544,393.040 329.894 C 393.201 329.732,393.718 329.600,394.188 329.600 C 395.125 329.600,397.190 327.581,397.870 326.000 C 398.946 323.501,399.200 322.698,399.200 321.805 C 399.200 321.278,399.380 320.736,399.600 320.600 C 399.820 320.464,399.979 319.508,399.954 318.476 C 399.928 317.444,399.829 316.960,399.733 317.400 C 399.288 319.442,397.378 322.000,396.298 322.000 C 396.002 322.000,395.583 322.177,395.366 322.394 C 394.768 322.992,384.971 323.344,382.135 322.869 C 378.853 322.319,372.743 319.389,371.200 317.624 C 371.090 317.498,370.280 316.861,369.400 316.208 C 367.832 315.045,361.765 309.631,356.192 304.424 C 345.817 294.727,335.751 286.654,325.400 279.729 C 321.179 276.905,319.402 275.805,314.200 272.797 C 313.540 272.415,311.470 271.218,309.600 270.136 C 301.465 265.430,283.489 257.388,274.400 254.387 C 273.190 253.987,270.940 253.213,269.400 252.666 C 255.756 247.818,230.805 241.650,214.200 239.021 C 212.000 238.672,209.210 238.217,208.000 238.009 C 200.441 236.711,186.666 234.962,176.600 234.023 C 160.095 232.484,132.311 230.842,131.037 231.330 C 130.685 231.466,129.551 233.336,128.516 235.488 C 127.482 237.640,126.493 239.460,126.318 239.533 C 126.143 239.607,126.000 239.922,126.000 240.233 C 126.000 240.545,125.862 240.800,125.694 240.800 C 125.526 240.800,124.944 241.520,124.400 242.400 C 123.856 243.280,123.274 244.000,123.106 244.000 C 122.938 244.000,122.800 244.236,122.800 244.525 C 122.800 244.813,122.484 245.398,122.099 245.825 C 121.713 246.251,120.202 248.040,118.741 249.800 C 115.977 253.131,112.292 256.770,107.198 261.200 C 105.553 262.630,103.846 264.128,103.404 264.529 C 100.937 266.765,91.925 272.837,88.347 274.674 L 86.494 275.625 69.347 275.512 L 52.200 275.400 48.400 273.229 C 43.415 270.381,38.388 266.945,33.805 263.252 C 20.334 252.397,10.219 238.149,5.514 223.400 C 4.231 219.378,3.850 217.770,2.767 211.800 C 0.899 201.495,1.876 188.146,5.302 177.200 C 10.725 159.871,23.504 143.079,39.400 132.394 C 41.160 131.210,42.949 129.918,43.375 129.521 C 43.802 129.125,44.372 128.800,44.642 128.800 C 44.912 128.800,45.193 128.665,45.267 128.500 C 45.434 128.124,47.564 126.825,48.500 126.529 C 48.885 126.407,49.200 126.148,49.200 125.953 C 49.200 125.759,49.470 125.600,49.800 125.600 C 50.130 125.600,50.400 125.420,50.400 125.200 C 50.400 124.980,50.760 124.800,51.200 124.800 C 51.640 124.800,52.000 124.620,52.000 124.400 C 52.000 124.140,58.136 123.981,69.500 123.946 C 79.125 123.916,86.550 123.808,86.000 123.707 C 85.450 123.606,84.747 123.316,84.439 123.062 C 83.885 122.606,55.016 122.301,48.100 122.677 M366.000 126.044 C 361.368 130.344,358.212 133.009,355.377 135.011 C 353.850 136.090,352.510 137.084,352.400 137.220 C 352.090 137.603,344.861 142.400,344.593 142.400 C 344.463 142.400,343.331 143.091,342.078 143.935 C 338.319 146.469,323.740 154.087,319.000 155.994 C 318.560 156.171,317.210 156.767,316.000 157.319 C 310.709 159.730,307.365 161.087,300.800 163.486 C 293.802 166.044,287.390 168.222,284.000 169.192 C 283.010 169.475,281.210 170.019,280.000 170.400 C 278.790 170.781,276.990 171.318,276.000 171.593 C 275.010 171.868,273.750 172.231,273.200 172.400 C 272.650 172.569,271.480 172.893,270.600 173.121 C 269.720 173.348,268.280 173.722,267.400 173.952 C 254.529 177.314,237.900 180.756,224.400 182.853 C 222.970 183.075,220.720 183.427,219.400 183.635 C 218.080 183.843,215.650 184.189,214.000 184.405 C 212.350 184.621,209.740 184.979,208.200 185.201 C 206.660 185.423,203.510 185.788,201.200 186.011 C 198.890 186.235,195.200 186.598,193.000 186.819 C 179.325 188.191,172.641 188.665,161.500 189.052 L 154.000 189.312 154.003 191.156 C 154.005 192.170,154.120 193.945,154.259 195.100 L 154.511 197.200 157.587 197.200 C 169.261 197.200,206.949 193.360,222.800 190.556 C 229.631 189.347,230.631 189.205,232.276 189.202 C 233.198 189.201,234.064 189.020,234.200 188.800 C 234.336 188.580,235.236 188.400,236.200 188.400 C 237.164 188.400,238.064 188.220,238.200 188.000 C 238.336 187.780,239.236 187.600,240.200 187.600 C 241.164 187.600,242.064 187.420,242.200 187.200 C 242.336 186.980,243.211 186.800,244.144 186.800 C 245.077 186.800,246.011 186.638,246.220 186.441 C 246.429 186.244,247.320 185.988,248.200 185.874 C 249.080 185.759,250.610 185.457,251.600 185.204 C 252.590 184.950,253.987 184.645,254.704 184.527 C 255.421 184.408,256.106 184.151,256.227 183.956 C 256.348 183.760,257.056 183.600,257.800 183.600 C 258.544 183.600,259.264 183.420,259.400 183.200 C 259.536 182.980,260.256 182.800,261.000 182.800 C 261.744 182.800,262.464 182.620,262.600 182.400 C 262.736 182.180,263.456 182.000,264.200 182.000 C 264.944 182.000,265.664 181.820,265.800 181.600 C 265.936 181.380,266.656 181.200,267.400 181.200 C 268.144 181.200,268.864 181.020,269.000 180.800 C 269.136 180.580,269.689 180.400,270.229 180.400 C 270.769 180.400,271.523 180.239,271.905 180.042 C 272.287 179.845,274.040 179.283,275.800 178.794 C 277.560 178.304,279.360 177.757,279.800 177.579 C 280.240 177.401,281.590 177.030,282.800 176.755 C 284.010 176.479,285.171 176.107,285.380 175.927 C 285.589 175.747,286.163 175.600,286.656 175.600 C 287.149 175.600,287.664 175.420,287.800 175.200 C 287.936 174.980,288.363 174.800,288.748 174.800 C 289.134 174.800,290.226 174.425,291.174 173.967 C 292.123 173.509,293.511 173.034,294.259 172.913 C 295.007 172.792,295.716 172.536,295.833 172.346 C 295.951 172.156,296.476 172.000,297.000 172.000 C 297.524 172.000,298.064 171.820,298.200 171.600 C 298.336 171.380,298.791 171.200,299.211 171.200 C 299.632 171.200,300.617 170.840,301.400 170.400 C 302.183 169.960,303.168 169.600,303.589 169.600 C 304.009 169.600,304.464 169.420,304.600 169.200 C 304.736 168.980,305.172 168.800,305.568 168.800 C 305.965 168.800,307.689 168.080,309.400 167.200 C 311.111 166.320,312.711 165.601,312.955 165.603 C 313.401 165.607,314.508 165.085,326.015 159.446 C 329.433 157.771,332.426 156.400,332.666 156.400 C 332.906 156.400,333.328 156.128,333.604 155.795 C 333.880 155.462,335.228 154.655,336.600 154.000 C 337.972 153.345,339.320 152.538,339.596 152.205 C 339.872 151.872,340.324 151.600,340.600 151.600 C 340.876 151.600,341.334 151.321,341.616 150.980 C 341.899 150.639,342.882 150.018,343.800 149.600 C 344.718 149.182,345.701 148.561,345.984 148.220 C 346.266 147.879,346.746 147.600,347.049 147.600 C 347.352 147.600,347.600 147.450,347.600 147.268 C 347.600 147.085,348.092 146.680,348.693 146.368 C 349.294 146.055,350.311 145.305,350.952 144.700 C 351.594 144.095,352.362 143.600,352.659 143.600 C 352.957 143.600,353.200 143.450,353.200 143.268 C 353.200 143.085,353.691 142.680,354.291 142.368 C 354.891 142.055,356.013 141.210,356.786 140.489 C 359.445 138.006,359.388 137.719,359.505 154.158 C 359.577 164.338,359.475 169.068,359.175 169.430 C 358.664 170.045,351.618 173.600,350.909 173.600 C 350.642 173.600,349.783 173.960,349.000 174.400 C 348.217 174.840,347.317 175.200,347.000 175.200 C 346.683 175.200,345.821 175.539,345.084 175.953 C 344.347 176.367,342.993 176.832,342.074 176.987 C 341.156 177.143,340.303 177.434,340.178 177.635 C 340.054 177.836,339.524 178.000,339.000 178.000 C 338.476 178.000,337.936 178.180,337.800 178.400 C 337.664 178.620,337.124 178.800,336.600 178.800 C 336.076 178.800,335.536 178.980,335.400 179.200 C 335.264 179.420,334.724 179.600,334.200 179.600 C 333.676 179.600,333.136 179.780,333.000 180.000 C 332.864 180.220,332.144 180.400,331.400 180.400 C 330.656 180.400,329.936 180.580,329.800 180.800 C 329.664 181.020,328.944 181.200,328.200 181.200 C 327.456 181.200,326.736 181.380,326.600 181.600 C 326.464 181.820,325.924 182.000,325.400 182.000 C 324.876 182.000,324.351 182.156,324.233 182.347 C 324.115 182.538,323.249 182.806,322.309 182.944 C 318.862 183.448,317.783 183.662,317.000 183.997 C 316.200 184.339,311.660 185.332,307.700 186.030 C 306.545 186.233,304.610 186.580,303.400 186.800 C 300.601 187.309,297.646 187.841,294.600 188.385 C 282.887 190.476,257.404 193.600,252.062 193.600 C 250.356 193.600,248.789 193.769,248.580 193.975 C 248.371 194.182,246.220 194.449,243.800 194.569 C 241.380 194.689,236.790 194.973,233.600 195.199 C 215.874 196.459,197.947 197.170,174.200 197.553 C 163.420 197.727,154.555 197.899,154.500 197.935 C 153.358 198.678,154.647 199.650,156.500 199.443 C 157.655 199.313,167.330 199.112,178.000 198.996 C 188.670 198.879,198.300 198.695,199.400 198.587 C 200.500 198.478,205.900 198.218,211.400 198.008 C 229.451 197.319,253.032 195.742,266.200 194.344 C 268.180 194.134,271.240 193.868,273.000 193.752 C 274.760 193.636,276.371 193.375,276.580 193.171 C 276.789 192.967,278.353 192.800,280.056 192.800 C 281.759 192.800,283.264 192.620,283.400 192.400 C 283.536 192.180,284.796 192.000,286.200 192.000 C 287.604 192.000,288.864 191.820,289.000 191.600 C 289.136 191.380,290.306 191.200,291.600 191.200 C 292.894 191.200,294.064 191.020,294.200 190.800 C 294.336 190.580,295.596 190.400,297.000 190.400 C 298.404 190.400,299.664 190.220,299.800 190.000 C 299.936 189.780,300.926 189.600,302.000 189.600 C 303.074 189.600,304.064 189.420,304.200 189.200 C 304.336 188.980,305.326 188.800,306.400 188.800 C 307.474 188.800,308.464 188.620,308.600 188.400 C 308.736 188.180,309.726 188.000,310.800 188.000 C 311.874 188.000,312.864 187.820,313.000 187.600 C 313.136 187.380,314.036 187.200,315.000 187.200 C 315.964 187.200,316.864 187.020,317.000 186.800 C 317.136 186.580,317.921 186.400,318.744 186.400 C 319.567 186.400,320.411 186.238,320.620 186.041 C 320.829 185.844,321.720 185.585,322.600 185.467 C 327.360 184.827,344.937 180.183,349.500 178.360 C 351.815 177.435,352.651 177.080,353.295 176.753 C 353.677 176.559,354.264 176.400,354.600 176.400 C 354.936 176.400,355.523 176.241,355.905 176.047 C 356.545 175.721,357.259 175.419,359.700 174.439 C 362.127 173.464,367.123 171.017,368.100 170.325 L 369.200 169.546 369.200 146.573 C 369.200 133.938,369.065 123.607,368.900 123.615 C 368.735 123.623,367.430 124.716,366.000 126.044 M56.978 150.452 C 55.890 151.140,54.537 152.085,53.971 152.552 C 53.406 153.018,52.342 153.850,51.609 154.400 C 44.338 159.852,33.200 173.048,33.200 176.212 C 33.200 176.535,33.020 176.800,32.800 176.800 C 32.580 176.800,32.400 177.160,32.400 177.600 C 32.400 178.040,32.220 178.400,32.000 178.400 C 31.780 178.400,31.600 178.760,31.600 179.200 C 31.600 179.640,31.420 180.000,31.200 180.000 C 30.980 180.000,30.800 180.450,30.800 181.000 C 30.800 181.550,30.620 182.000,30.400 182.000 C 30.180 182.000,30.000 182.439,30.000 182.976 C 30.000 183.513,29.820 184.064,29.600 184.200 C 29.380 184.336,29.200 184.977,29.200 185.624 C 29.200 186.271,29.020 186.800,28.800 186.800 C 28.580 186.800,28.400 187.520,28.400 188.400 C 28.400 189.280,28.220 190.000,28.000 190.000 C 27.774 190.000,27.620 191.002,27.646 192.300 C 27.672 193.565,27.773 194.240,27.872 193.800 C 28.572 190.676,30.988 184.762,31.685 184.467 C 31.858 184.393,32.000 184.003,32.000 183.600 C 32.000 183.197,32.142 182.807,32.315 182.733 C 32.488 182.660,33.112 181.610,33.701 180.400 C 34.291 179.190,35.230 177.713,35.787 177.117 C 36.344 176.522,36.800 175.881,36.800 175.692 C 36.800 175.504,37.340 174.832,38.000 174.200 C 38.660 173.568,39.200 172.856,39.200 172.618 C 39.200 172.142,47.236 164.000,47.706 164.000 C 47.867 164.000,48.763 163.280,49.697 162.400 C 50.631 161.520,51.539 160.800,51.715 160.800 C 51.890 160.800,52.420 160.440,52.892 160.000 C 53.364 159.560,53.987 159.200,54.275 159.200 C 54.564 159.200,54.800 159.041,54.800 158.846 C 54.800 157.222,71.913 156.249,73.200 157.800 C 73.474 158.130,73.912 158.400,74.174 158.400 C 74.436 158.400,75.168 158.940,75.800 159.600 C 76.432 160.260,77.164 160.800,77.427 160.800 C 77.689 160.800,78.723 161.700,79.724 162.800 C 80.725 163.900,81.739 164.800,81.978 164.800 C 82.475 164.800,89.200 171.422,89.200 171.911 C 89.200 172.088,90.027 173.036,91.037 174.017 C 92.047 174.998,93.045 176.160,93.254 176.600 C 93.842 177.837,94.577 179.050,95.179 179.774 C 95.480 180.137,96.147 181.266,96.663 182.285 L 97.600 184.136 97.600 203.244 C 97.600 215.552,97.458 222.441,97.200 222.600 C 96.980 222.736,96.800 223.197,96.800 223.624 C 96.800 224.051,96.620 224.400,96.400 224.400 C 96.180 224.400,96.000 224.648,96.000 224.951 C 96.000 225.254,95.711 225.742,95.358 226.035 C 95.005 226.327,94.548 226.935,94.341 227.384 C 93.513 229.185,92.800 230.172,91.041 231.959 C 90.028 232.987,89.200 234.006,89.200 234.223 C 89.200 234.745,83.101 240.800,82.574 240.800 C 82.350 240.800,81.372 241.610,80.400 242.600 C 79.428 243.590,78.437 244.400,78.198 244.400 C 77.958 244.400,77.059 245.120,76.200 246.000 C 75.341 246.880,74.426 247.600,74.168 247.600 C 73.909 247.600,73.474 247.870,73.200 248.200 C 72.790 248.694,71.397 248.800,65.351 248.800 C 61.308 248.800,58.000 248.903,58.000 249.029 C 58.000 250.254,59.253 250.400,69.754 250.400 L 80.366 250.400 84.483 247.312 C 93.933 240.224,102.910 230.495,106.442 223.511 L 107.600 221.223 107.600 199.998 L 107.600 178.773 106.553 176.687 C 102.681 168.968,92.505 158.169,82.235 150.879 L 79.870 149.200 69.413 149.200 L 58.957 149.200 56.978 150.452 M85.200 184.800 C 85.200 185.020,84.660 185.200,84.000 185.200 C 83.340 185.200,82.800 185.380,82.800 185.600 C 82.800 185.820,82.440 186.000,82.000 186.000 C 81.467 186.000,81.200 186.267,81.200 186.800 C 81.200 187.240,81.020 187.600,80.800 187.600 C 80.580 187.600,80.400 188.103,80.400 188.718 C 80.400 189.333,79.590 191.448,78.601 193.418 C 77.612 195.388,76.802 197.197,76.801 197.438 C 76.800 197.679,76.440 198.202,76.000 198.600 C 75.560 198.998,75.200 199.530,75.200 199.781 C 75.200 200.032,74.480 200.941,73.600 201.800 C 72.720 202.659,72.000 203.600,72.000 203.891 C 72.000 204.182,71.595 204.578,71.100 204.771 C 70.605 204.964,69.580 205.770,68.822 206.561 C 68.063 207.353,67.230 208.000,66.971 208.000 C 66.711 208.000,66.266 208.279,65.984 208.620 C 65.701 208.961,64.644 209.599,63.635 210.038 C 62.626 210.478,61.108 211.189,60.262 211.619 C 59.416 212.048,58.392 212.400,57.986 212.400 C 57.580 212.400,57.136 212.580,57.000 212.800 C 56.864 213.020,56.169 213.200,55.456 213.200 C 54.743 213.200,53.989 213.369,53.780 213.575 C 53.571 213.780,50.091 214.152,46.046 214.400 C 38.391 214.869,37.600 215.089,37.600 216.748 C 37.600 217.191,37.442 217.651,37.249 217.770 C 37.055 217.889,36.768 220.406,36.609 223.363 L 36.321 228.738 38.178 231.608 C 39.199 233.187,41.132 235.556,42.474 236.873 L 44.914 239.267 47.157 239.015 C 48.391 238.876,51.110 238.676,53.200 238.571 C 55.290 238.465,57.360 238.213,57.800 238.010 C 58.240 237.808,59.410 237.558,60.400 237.457 C 61.390 237.355,63.010 237.062,64.000 236.807 C 64.990 236.551,66.387 236.245,67.104 236.127 C 67.821 236.008,68.506 235.751,68.627 235.556 C 68.748 235.360,69.150 235.200,69.521 235.200 C 70.402 235.200,77.400 231.723,78.019 230.977 C 78.282 230.660,78.707 230.400,78.963 230.400 C 79.542 230.400,83.600 226.330,83.600 225.749 C 83.600 225.515,83.960 224.998,84.400 224.600 C 84.840 224.202,85.200 223.662,85.200 223.400 C 85.200 223.138,85.560 222.598,86.000 222.200 C 86.440 221.802,86.800 221.149,86.800 220.750 C 86.800 220.351,87.160 219.383,87.600 218.600 C 88.040 217.817,88.400 216.909,88.400 216.582 C 88.400 216.256,88.558 215.677,88.751 215.295 C 89.188 214.428,90.435 207.901,90.206 207.673 C 90.114 207.581,89.926 208.022,89.788 208.653 C 88.877 212.825,84.694 219.645,81.656 221.913 C 80.855 222.511,79.951 223.236,79.647 223.524 C 79.344 223.812,78.399 224.350,77.547 224.718 C 76.696 225.087,76.000 225.526,76.000 225.694 C 76.000 225.862,75.758 226.000,75.461 226.000 C 75.165 226.000,74.367 226.277,73.687 226.617 C 69.509 228.701,59.815 230.447,51.930 230.536 L 46.265 230.600 46.233 223.200 L 46.200 215.800 49.614 215.940 C 53.897 216.117,64.506 214.626,66.495 213.569 C 66.877 213.366,67.417 213.194,67.695 213.187 C 68.557 213.166,74.023 210.302,75.113 209.300 C 75.412 209.025,75.826 208.800,76.033 208.800 C 77.387 208.800,86.400 198.209,86.400 196.618 C 86.400 196.369,87.850 193.008,88.433 191.905 C 88.635 191.523,88.800 190.769,88.800 190.229 C 88.800 189.689,88.980 189.136,89.200 189.000 C 89.420 188.864,89.600 188.223,89.600 187.576 C 89.600 186.929,89.802 186.400,90.049 186.400 C 90.359 186.400,90.344 186.215,90.000 185.800 C 89.726 185.470,89.085 185.200,88.575 185.200 C 88.065 185.200,87.536 185.020,87.400 184.800 C 87.264 184.580,86.713 184.400,86.176 184.400 C 85.639 184.400,85.200 184.580,85.200 184.800 M26.800 198.400 C 26.800 199.280,26.871 200.000,26.958 200.000 C 27.045 200.000,27.185 199.280,27.269 198.400 C 27.352 197.520,27.281 196.800,27.111 196.800 C 26.940 196.800,26.800 197.520,26.800 198.400 " stroke="none" fill="#0a0a0a" fill-rule="evenodd"></path><path id="path1" d="M385.804 76.316 C 383.607 76.379,381.636 76.604,381.424 76.816 C 381.213 77.027,380.643 77.200,380.158 77.200 C 379.251 77.200,375.905 78.765,375.667 79.300 C 375.593 79.465,375.323 79.603,375.067 79.607 C 374.810 79.611,373.994 80.106,373.252 80.707 C 372.511 81.308,370.711 82.769,369.252 83.953 C 367.794 85.137,364.283 88.287,361.450 90.953 C 358.618 93.619,356.092 95.980,355.836 96.200 C 355.581 96.420,354.295 97.590,352.980 98.800 C 348.778 102.665,344.654 106.257,342.771 107.693 C 341.764 108.459,340.594 109.371,340.171 109.719 C 334.754 114.160,323.298 122.185,318.700 124.760 C 317.875 125.222,316.595 125.943,315.855 126.362 C 315.115 126.782,314.080 127.367,313.555 127.662 C 313.030 127.958,312.510 128.290,312.400 128.400 C 311.697 129.103,298.325 135.885,294.789 137.332 C 293.805 137.735,292.190 138.432,291.200 138.883 C 290.210 139.333,289.040 139.834,288.600 139.997 C 287.376 140.450,285.479 141.253,284.705 141.647 C 284.323 141.841,283.738 142.000,283.405 142.000 C 283.072 142.000,282.800 142.180,282.800 142.400 C 282.800 142.620,282.451 142.800,282.024 142.800 C 281.597 142.800,281.136 142.980,281.000 143.200 C 280.864 143.420,280.401 143.600,279.971 143.600 C 279.541 143.600,278.832 143.780,278.395 144.000 C 277.958 144.220,277.242 144.580,276.805 144.800 C 276.368 145.020,275.659 145.200,275.229 145.200 C 274.799 145.200,274.336 145.380,274.200 145.600 C 274.064 145.820,273.549 146.000,273.056 146.000 C 272.563 146.000,271.989 146.151,271.780 146.337 C 271.571 146.522,270.050 147.077,268.400 147.571 C 265.883 148.325,260.313 150.007,254.972 151.627 C 254.296 151.832,253.362 152.000,252.895 152.000 C 252.429 152.000,251.936 152.180,251.800 152.400 C 251.664 152.620,251.034 152.800,250.400 152.800 C 249.766 152.800,249.136 152.980,249.000 153.200 C 248.864 153.420,248.234 153.600,247.600 153.600 C 246.966 153.600,246.348 153.761,246.226 153.958 C 246.105 154.155,245.284 154.425,244.403 154.558 C 243.521 154.691,242.079 154.909,241.197 155.042 C 240.316 155.175,239.495 155.445,239.374 155.642 C 239.252 155.839,238.454 156.000,237.600 156.000 C 236.746 156.000,235.936 156.180,235.800 156.400 C 235.664 156.620,234.944 156.800,234.200 156.800 C 233.456 156.800,232.736 156.980,232.600 157.200 C 232.464 157.420,231.564 157.600,230.600 157.600 C 229.636 157.600,228.736 157.780,228.600 158.000 C 228.464 158.220,227.564 158.400,226.600 158.400 C 225.636 158.400,224.736 158.580,224.600 158.800 C 224.464 159.020,223.564 159.200,222.600 159.200 C 221.636 159.200,220.736 159.380,220.600 159.600 C 220.464 159.820,219.499 160.000,218.456 160.000 C 217.413 160.000,216.389 160.164,216.180 160.365 C 215.971 160.565,214.810 160.831,213.600 160.956 C 212.390 161.080,210.410 161.284,209.200 161.410 C 207.990 161.536,206.640 161.791,206.200 161.978 C 205.760 162.165,203.330 162.531,200.800 162.791 C 196.448 163.239,194.473 163.464,186.400 164.429 C 184.530 164.653,181.020 165.015,178.600 165.235 C 176.180 165.454,172.310 165.808,170.000 166.021 C 163.473 166.622,154.193 167.213,145.000 167.613 C 140.380 167.814,135.295 168.088,133.700 168.222 C 130.951 168.453,130.800 168.422,130.800 167.633 C 130.800 167.175,130.620 166.800,130.400 166.800 C 130.180 166.800,130.000 166.440,130.000 166.000 C 130.000 165.560,129.820 165.200,129.600 165.200 C 129.380 165.200,129.200 164.964,129.200 164.675 C 129.200 164.387,128.840 163.764,128.400 163.292 C 127.960 162.820,127.600 162.156,127.600 161.817 C 127.600 161.478,127.420 161.200,127.200 161.200 C 126.980 161.200,126.800 160.964,126.800 160.675 C 126.800 160.387,126.462 159.788,126.049 159.345 C 125.636 158.901,125.174 158.147,125.022 157.669 C 124.870 157.191,124.590 156.800,124.400 156.800 C 124.210 156.800,123.938 156.434,123.796 155.987 C 123.654 155.540,123.102 154.738,122.569 154.205 C 122.036 153.672,121.600 153.066,121.600 152.859 C 121.600 152.651,120.700 151.562,119.600 150.439 C 118.500 149.315,117.600 148.252,117.600 148.076 C 117.600 147.474,110.335 140.400,109.716 140.400 C 109.575 140.400,108.429 139.320,107.169 138.000 C 105.909 136.680,104.670 135.600,104.415 135.600 C 104.161 135.600,104.064 135.420,104.200 135.200 C 104.336 134.980,104.193 134.800,103.883 134.800 C 103.573 134.800,102.754 134.260,102.063 133.600 C 101.372 132.940,100.608 132.400,100.364 132.400 C 100.120 132.400,99.442 131.905,98.857 131.300 C 98.271 130.695,97.535 130.144,97.222 130.075 C 96.908 130.006,96.348 129.601,95.978 129.175 C 95.609 128.749,95.052 128.400,94.741 128.400 C 94.431 128.400,93.917 128.040,93.600 127.600 C 93.283 127.160,92.703 126.800,92.312 126.800 C 91.920 126.800,91.600 126.623,91.600 126.408 C 91.600 126.192,91.150 125.902,90.600 125.764 C 90.050 125.626,89.600 125.353,89.600 125.157 C 89.600 124.960,89.240 124.800,88.800 124.800 C 88.360 124.800,88.000 124.620,88.000 124.400 C 88.000 124.139,81.733 124.000,70.000 124.000 C 58.267 124.000,52.000 124.139,52.000 124.400 C 52.000 124.620,51.640 124.800,51.200 124.800 C 50.760 124.800,50.400 124.980,50.400 125.200 C 50.400 125.420,50.145 125.600,49.833 125.600 C 49.522 125.600,49.207 125.735,49.133 125.900 C 48.966 126.276,46.836 127.575,45.900 127.871 C 45.515 127.993,45.200 128.252,45.200 128.447 C 45.200 128.641,44.964 128.800,44.675 128.800 C 44.387 128.800,43.802 129.125,43.375 129.521 C 42.949 129.918,41.160 131.210,39.400 132.394 C 29.012 139.376,17.611 151.609,11.992 161.800 C 5.860 172.921,3.081 182.186,2.003 195.100 C 1.462 201.580,1.942 207.736,3.695 216.800 C 5.236 224.768,10.758 237.201,15.902 244.285 C 24.448 256.054,35.381 265.791,48.400 273.229 L 52.200 275.400 69.347 275.512 L 86.494 275.625 88.347 274.674 C 91.925 272.837,100.937 266.765,103.404 264.529 C 103.846 264.128,105.553 262.630,107.198 261.200 C 112.292 256.770,115.977 253.131,118.741 249.800 C 120.202 248.040,121.713 246.251,122.099 245.825 C 122.484 245.398,122.800 244.813,122.800 244.525 C 122.800 244.236,122.938 244.000,123.106 244.000 C 123.274 244.000,123.856 243.280,124.400 242.400 C 124.944 241.520,125.526 240.800,125.694 240.800 C 125.862 240.800,126.000 240.545,126.000 240.233 C 126.000 239.922,126.143 239.607,126.318 239.533 C 126.493 239.460,127.482 237.640,128.516 235.488 C 129.551 233.336,130.685 231.466,131.037 231.330 C 132.311 230.842,160.095 232.484,176.600 234.023 C 186.666 234.962,200.441 236.711,208.000 238.009 C 209.210 238.217,212.000 238.672,214.200 239.021 C 230.805 241.650,255.756 247.818,269.400 252.666 C 270.940 253.213,273.190 253.987,274.400 254.387 C 283.489 257.388,301.465 265.430,309.600 270.136 C 311.470 271.218,313.540 272.415,314.200 272.797 C 319.402 275.805,321.179 276.905,325.400 279.729 C 335.751 286.654,345.817 294.727,356.192 304.424 C 361.765 309.631,367.832 315.045,369.400 316.208 C 370.280 316.861,371.090 317.498,371.200 317.624 C 372.743 319.389,378.853 322.319,382.135 322.869 C 384.971 323.344,394.768 322.992,395.366 322.394 C 395.583 322.177,396.002 322.000,396.298 322.000 C 396.988 322.000,398.430 320.529,399.200 319.039 C 400.024 317.445,400.123 81.974,399.300 81.700 C 399.025 81.608,398.800 81.188,398.800 80.767 C 398.800 80.345,398.664 80.000,398.498 80.000 C 398.331 80.000,397.956 79.460,397.664 78.800 C 397.353 78.096,396.830 77.600,396.400 77.600 C 395.997 77.600,395.607 77.439,395.533 77.242 C 395.323 76.679,390.182 76.189,385.804 76.316 M369.200 146.573 L 369.200 169.546 368.100 170.325 C 367.123 171.017,362.127 173.464,359.700 174.439 C 357.259 175.419,356.545 175.721,355.905 176.047 C 355.523 176.241,354.936 176.400,354.600 176.400 C 354.264 176.400,353.677 176.559,353.295 176.753 C 352.651 177.080,351.815 177.435,349.500 178.360 C 344.937 180.183,327.360 184.827,322.600 185.467 C 321.720 185.585,320.829 185.844,320.620 186.041 C 320.411 186.238,319.567 186.400,318.744 186.400 C 317.921 186.400,317.136 186.580,317.000 186.800 C 316.864 187.020,315.964 187.200,315.000 187.200 C 314.036 187.200,313.136 187.380,313.000 187.600 C 312.864 187.820,311.874 188.000,310.800 188.000 C 309.726 188.000,308.736 188.180,308.600 188.400 C 308.464 188.620,307.474 188.800,306.400 188.800 C 305.326 188.800,304.336 188.980,304.200 189.200 C 304.064 189.420,303.074 189.600,302.000 189.600 C 300.926 189.600,299.936 189.780,299.800 190.000 C 299.664 190.220,298.404 190.400,297.000 190.400 C 295.596 190.400,294.336 190.580,294.200 190.800 C 294.064 191.020,292.894 191.200,291.600 191.200 C 290.306 191.200,289.136 191.380,289.000 191.600 C 288.864 191.820,287.604 192.000,286.200 192.000 C 284.796 192.000,283.536 192.180,283.400 192.400 C 283.264 192.620,281.759 192.800,280.056 192.800 C 278.353 192.800,276.789 192.967,276.580 193.171 C 276.371 193.375,274.760 193.636,273.000 193.752 C 271.240 193.868,268.180 194.134,266.200 194.344 C 251.960 195.856,227.506 197.450,211.400 197.915 C 205.900 198.074,201.202 198.332,200.960 198.489 C 200.717 198.645,192.347 198.805,182.360 198.843 C 172.372 198.881,162.067 199.079,159.460 199.283 C 153.804 199.724,154.541 200.415,154.197 194.357 L 153.910 189.315 161.455 189.053 C 172.637 188.665,179.309 188.193,193.000 186.819 C 195.200 186.598,198.890 186.235,201.200 186.011 C 203.510 185.788,206.660 185.423,208.200 185.201 C 209.740 184.979,212.350 184.621,214.000 184.405 C 215.650 184.189,218.080 183.843,219.400 183.635 C 220.720 183.427,222.970 183.075,224.400 182.853 C 237.900 180.756,254.529 177.314,267.400 173.952 C 268.280 173.722,269.720 173.348,270.600 173.121 C 271.480 172.893,272.650 172.569,273.200 172.400 C 273.750 172.231,275.010 171.868,276.000 171.593 C 276.990 171.318,278.790 170.781,280.000 170.400 C 281.210 170.019,283.010 169.475,284.000 169.192 C 287.390 168.222,293.802 166.044,300.800 163.486 C 307.365 161.087,310.709 159.730,316.000 157.319 C 317.210 156.767,318.560 156.171,319.000 155.994 C 323.740 154.087,338.319 146.469,342.078 143.935 C 343.331 143.091,344.463 142.400,344.593 142.400 C 344.861 142.400,352.090 137.603,352.400 137.220 C 352.510 137.084,353.850 136.090,355.377 135.011 C 358.212 133.009,361.368 130.344,366.000 126.044 C 367.430 124.716,368.735 123.623,368.900 123.615 C 369.065 123.607,369.200 133.938,369.200 146.573 M82.235 150.879 C 92.505 158.169,102.681 168.968,106.553 176.687 L 107.600 178.773 107.600 199.998 L 107.600 221.223 106.442 223.511 C 102.910 230.495,93.933 240.224,84.483 247.312 L 80.366 250.400 69.671 250.400 C 59.435 250.400,58.952 250.366,58.400 249.600 C 58.083 249.160,57.593 248.800,57.312 248.800 C 57.030 248.800,56.800 248.650,56.800 248.468 C 56.800 248.285,56.305 247.881,55.700 247.570 C 55.095 247.260,54.309 246.689,53.953 246.303 C 53.597 245.916,53.102 245.600,52.853 245.600 C 52.604 245.600,52.400 245.420,52.400 245.200 C 52.400 244.980,52.212 244.800,51.983 244.800 C 51.514 244.800,50.957 244.372,48.992 242.500 C 48.241 241.785,47.438 241.200,47.208 241.200 C 45.753 241.200,38.173 232.190,36.017 227.900 C 35.714 227.295,35.315 226.800,35.132 226.800 C 34.950 226.800,34.800 226.530,34.800 226.200 C 34.800 225.870,34.620 225.600,34.400 225.600 C 34.180 225.600,34.000 225.240,34.000 224.800 C 34.000 224.360,33.820 224.000,33.600 224.000 C 33.380 224.000,33.200 223.640,33.200 223.200 C 33.200 222.760,33.020 222.400,32.800 222.400 C 32.580 222.400,32.400 222.040,32.400 221.600 C 32.400 221.160,32.220 220.800,32.000 220.800 C 31.780 220.800,31.600 220.440,31.600 220.000 C 31.600 219.560,31.420 219.200,31.200 219.200 C 30.980 219.200,30.800 218.840,30.800 218.400 C 30.800 217.960,30.620 217.600,30.400 217.600 C 30.180 217.600,30.000 217.060,30.000 216.400 C 30.000 215.740,29.820 215.200,29.600 215.200 C 29.380 215.200,29.200 214.671,29.200 214.024 C 29.200 213.377,29.020 212.736,28.800 212.600 C 28.580 212.464,28.400 211.744,28.400 211.000 C 28.400 210.256,28.220 209.536,28.000 209.400 C 27.780 209.264,27.600 207.824,27.600 206.200 C 27.600 204.576,27.420 203.136,27.200 203.000 C 26.674 202.675,26.674 196.800,27.200 196.800 C 27.435 196.800,27.600 195.400,27.600 193.400 C 27.600 191.400,27.765 190.000,28.000 190.000 C 28.220 190.000,28.400 189.280,28.400 188.400 C 28.400 187.520,28.580 186.800,28.800 186.800 C 29.020 186.800,29.200 186.271,29.200 185.624 C 29.200 184.977,29.380 184.336,29.600 184.200 C 29.820 184.064,30.000 183.513,30.000 182.976 C 30.000 182.439,30.180 182.000,30.400 182.000 C 30.620 182.000,30.800 181.550,30.800 181.000 C 30.800 180.450,30.980 180.000,31.200 180.000 C 31.420 180.000,31.600 179.640,31.600 179.200 C 31.600 178.760,31.780 178.400,32.000 178.400 C 32.220 178.400,32.400 178.040,32.400 177.600 C 32.400 177.160,32.580 176.800,32.800 176.800 C 33.020 176.800,33.200 176.535,33.200 176.212 C 33.200 173.048,44.338 159.852,51.609 154.400 C 52.342 153.850,53.406 153.018,53.971 152.552 C 54.537 152.085,55.890 151.140,56.978 150.452 L 58.957 149.200 69.413 149.200 L 79.870 149.200 82.235 150.879 M90.400 185.600 C 90.400 186.040,90.220 186.400,90.000 186.400 C 89.780 186.400,89.600 186.929,89.600 187.576 C 89.600 188.223,89.420 188.864,89.200 189.000 C 88.980 189.136,88.800 189.689,88.800 190.229 C 88.800 190.769,88.635 191.523,88.433 191.905 C 87.850 193.008,86.400 196.369,86.400 196.618 C 86.400 198.209,77.387 208.800,76.033 208.800 C 75.826 208.800,75.412 209.025,75.113 209.300 C 74.023 210.302,68.557 213.166,67.695 213.187 C 67.417 213.194,66.877 213.366,66.495 213.569 C 64.506 214.626,53.897 216.117,49.614 215.940 L 46.200 215.800 46.233 223.200 L 46.265 230.600 51.930 230.536 C 59.815 230.447,69.509 228.701,73.687 226.617 C 74.367 226.277,75.165 226.000,75.461 226.000 C 75.758 226.000,76.000 225.862,76.000 225.694 C 76.000 225.526,76.696 225.087,77.547 224.718 C 78.399 224.350,79.344 223.812,79.647 223.524 C 79.951 223.236,80.855 222.511,81.656 221.913 C 85.347 219.158,90.400 209.934,90.400 205.952 C 90.400 205.406,90.580 204.780,90.800 204.560 C 91.581 203.779,91.835 184.800,91.064 184.800 C 90.667 184.800,90.400 185.121,90.400 185.600 " stroke="none" fill="#fbfbfb" fill-rule="evenodd"></path></g></svg>