<svg id="svg" version="1.1" xmlns="http://www.w3.org/2000/svg" xmlns:xlink="http://www.w3.org/1999/xlink" width="400" height="400" viewBox="0, 0, 400,400"><g id="svgg"><path id="path0" d="M236.800 15.598 C 235.810 15.786,234.124 15.954,233.053 15.970 C 231.343 15.996,230.917 16.189,229.553 17.553 L 228.000 19.106 228.000 27.031 C 228.000 34.787,227.980 34.978,227.062 35.978 C 226.141 36.983,225.190 41.395,225.197 44.638 C 225.201 46.159,224.131 47.201,222.569 47.197 C 216.373 47.183,210.000 50.642,210.000 54.019 C 210.000 54.613,209.570 55.464,209.000 56.000 L 208.000 56.939 208.000 65.032 L 208.000 73.125 204.100 73.359 C 201.955 73.488,199.030 73.698,197.600 73.826 L 195.000 74.059 191.561 77.461 L 188.121 80.863 187.610 84.731 C 187.316 86.954,187.168 90.843,187.263 93.872 L 187.428 99.144 181.814 99.338 C 173.285 99.632,173.541 99.546,169.561 103.471 L 166.121 106.863 165.603 110.781 C 165.095 114.617,165.209 123.051,165.787 124.467 C 166.030 125.061,165.524 125.158,161.130 125.360 C 158.419 125.484,155.012 125.693,153.560 125.824 L 150.921 126.063 147.369 129.631 C 143.770 133.247,142.626 133.836,141.600 132.600 C 140.979 131.852,139.270 131.822,138.431 132.543 C 137.602 133.257,135.352 134.000,134.021 134.000 C 133.323 134.000,132.459 134.516,131.481 135.517 L 130.000 137.034 130.000 142.985 C 130.000 147.423,130.138 149.098,130.543 149.569 C 131.244 150.383,132.000 152.640,132.000 153.918 C 132.000 154.550,132.661 155.624,133.800 156.841 C 134.790 157.900,135.600 159.127,135.600 159.569 C 135.600 160.011,136.140 160.987,136.800 161.739 C 137.460 162.491,138.000 163.539,138.000 164.068 C 138.000 164.693,138.700 165.720,140.000 167.000 C 141.365 168.344,142.000 169.295,142.000 169.992 C 142.000 170.755,143.016 172.027,146.000 175.000 L 150.001 178.986 146.000 183.000 C 143.072 185.938,142.000 187.281,142.000 188.013 C 142.000 188.759,140.734 190.275,137.000 194.000 C 133.232 197.759,132.000 199.237,132.000 200.000 C 132.000 200.763,130.768 202.241,127.000 206.000 C 123.232 209.759,122.000 211.237,122.000 212.000 C 122.000 212.763,120.768 214.241,117.000 218.000 C 113.232 221.759,112.000 223.237,112.000 224.000 C 112.000 224.763,110.768 226.241,107.000 230.000 C 103.232 233.759,102.000 235.237,102.000 236.000 C 102.000 236.763,100.768 238.241,97.000 242.000 C 93.232 245.759,92.000 247.237,92.000 248.000 C 92.000 248.763,90.768 250.241,87.000 254.000 C 83.221 257.769,82.000 259.236,82.000 260.004 C 82.000 260.737,81.164 261.851,79.000 264.000 C 76.800 266.186,76.000 267.257,76.000 268.020 C 76.000 268.595,75.579 269.456,75.059 269.945 C 73.660 271.259,72.943 280.234,73.741 286.442 C 74.148 289.608,74.369 289.455,68.835 289.836 C 65.345 290.077,64.721 290.233,63.947 291.056 C 63.456 291.579,62.596 292.000,62.019 292.000 C 60.595 292.000,56.000 296.594,56.000 298.017 C 56.000 298.758,54.724 300.285,51.000 304.000 C 47.232 307.759,46.000 309.237,46.000 310.000 C 46.000 310.763,44.768 312.241,41.000 316.000 C 37.232 319.759,36.000 321.237,36.000 322.000 C 36.000 322.763,34.768 324.241,31.000 328.000 C 27.306 331.685,26.000 333.245,26.000 333.972 C 26.000 334.513,25.575 335.416,25.056 335.978 C 23.423 337.746,22.772 344.983,23.651 351.600 L 24.102 355.000 29.546 360.500 C 33.684 364.681,35.232 366.000,36.001 366.000 C 36.762 366.000,38.243 367.234,42.000 371.000 C 45.759 374.768,47.237 376.000,48.000 376.000 C 48.763 376.000,50.241 377.232,54.000 381.000 C 57.759 384.768,59.237 386.000,60.000 386.000 C 60.763 386.000,62.241 387.232,66.000 391.000 C 69.685 394.694,71.245 396.000,71.972 396.000 C 72.513 396.000,73.459 396.482,74.074 397.071 L 75.192 398.142 82.969 398.171 L 90.746 398.200 91.895 397.100 C 92.527 396.495,93.492 396.000,94.041 396.000 C 95.349 396.000,98.000 393.316,98.000 391.992 C 98.000 391.320,98.914 390.084,100.948 388.009 L 103.895 385.000 104.348 381.600 C 105.092 376.013,104.994 374.800,103.800 374.800 C 103.000 374.800,102.800 375.000,102.800 375.800 C 102.800 376.600,102.600 376.800,101.800 376.800 C 101.013 376.800,100.800 377.003,100.800 377.753 C 100.800 378.369,100.518 378.781,100.002 378.915 C 99.563 379.030,99.083 379.456,98.935 379.862 C 98.565 380.875,96.396 382.800,95.624 382.800 C 95.277 382.800,94.755 383.181,94.464 383.646 C 93.631 384.980,89.985 384.562,87.600 382.859 C 86.610 382.152,85.350 381.277,84.800 380.913 C 83.231 379.877,79.211 376.433,76.829 374.085 C 75.635 372.908,67.355 365.853,58.429 358.406 C 37.131 340.638,36.821 340.108,43.511 332.863 C 44.254 332.058,45.816 330.140,46.983 328.600 C 48.150 327.060,49.711 325.137,50.452 324.327 C 52.247 322.366,53.588 320.789,54.800 319.212 C 56.291 317.272,62.081 310.309,63.000 309.350 C 63.440 308.891,64.196 307.994,64.679 307.358 C 67.151 304.102,70.033 300.506,70.770 299.758 C 71.227 299.295,71.600 298.626,71.600 298.272 C 71.600 297.918,71.960 297.435,72.400 297.200 C 72.840 296.965,73.200 296.517,73.200 296.205 C 73.200 295.168,74.111 293.619,74.861 293.381 C 75.267 293.252,75.600 292.895,75.600 292.587 C 75.600 290.115,81.583 290.863,84.974 293.760 L 87.075 295.555 88.237 294.716 C 89.938 293.489,95.200 287.172,95.200 286.358 C 95.200 285.975,94.562 284.825,93.781 283.803 C 89.772 278.550,89.513 271.381,93.152 266.400 C 94.280 264.856,97.725 260.690,98.992 259.337 C 99.436 258.863,100.192 257.963,100.671 257.337 C 101.836 255.816,107.993 248.409,109.000 247.318 C 109.440 246.841,110.110 246.034,110.490 245.525 C 112.200 243.230,118.562 235.768,119.054 235.480 C 119.354 235.304,119.600 234.951,119.600 234.694 C 119.600 234.438,119.962 233.862,120.405 233.414 C 121.043 232.769,126.467 226.334,128.718 223.552 C 129.284 222.852,130.313 221.616,134.696 216.375 C 136.638 214.052,138.439 211.892,138.696 211.575 C 139.313 210.817,140.449 209.454,144.696 204.375 C 146.638 202.052,148.439 199.892,148.696 199.575 C 148.954 199.259,149.618 198.460,150.173 197.800 C 150.728 197.140,154.168 193.000,157.819 188.600 C 161.470 184.200,165.124 179.880,165.940 179.000 C 168.485 176.256,171.480 172.637,171.930 171.762 C 172.500 170.655,171.580 169.630,165.507 164.610 C 160.404 160.392,157.778 157.379,154.201 151.640 C 153.982 151.288,153.397 150.427,152.901 149.727 C 152.406 149.027,151.825 147.992,151.610 147.427 C 151.396 146.862,151.055 146.400,150.854 146.400 C 150.653 146.400,150.107 145.590,149.642 144.600 C 149.177 143.610,148.634 142.800,148.437 142.800 C 148.240 142.800,147.882 142.237,147.642 141.549 C 147.402 140.860,146.746 139.871,146.184 139.350 C 144.580 137.864,144.844 133.464,146.548 133.269 C 148.246 133.075,149.515 133.503,149.788 134.361 C 149.920 134.779,150.479 135.233,151.028 135.371 C 151.582 135.510,152.196 136.064,152.404 136.611 C 152.611 137.155,152.933 137.600,153.120 137.600 C 153.307 137.600,154.714 138.815,156.247 140.300 C 157.781 141.785,159.936 143.751,161.037 144.670 C 162.138 145.588,164.264 147.553,165.762 149.036 C 167.260 150.519,171.391 154.126,174.943 157.052 C 178.494 159.977,181.670 162.628,182.000 162.943 C 182.330 163.257,184.940 165.428,187.800 167.768 C 190.660 170.107,193.395 172.385,193.877 172.830 C 194.704 173.594,201.013 178.794,203.945 181.129 C 204.685 181.718,205.585 182.493,205.945 182.851 C 206.526 183.428,212.261 188.160,215.959 191.114 C 216.707 191.711,217.697 192.581,218.159 193.047 C 218.622 193.513,220.890 195.406,223.200 197.254 C 228.804 201.735,229.182 202.055,230.129 203.100 C 230.577 203.595,231.101 204.000,231.292 204.000 C 231.483 204.000,232.287 204.629,233.079 205.397 C 233.870 206.166,235.581 207.561,236.880 208.497 C 238.180 209.434,239.692 210.605,240.242 211.100 C 240.792 211.595,241.493 212.000,241.801 212.000 C 242.108 212.000,242.504 212.225,242.680 212.500 C 243.117 213.183,249.741 217.600,250.328 217.600 C 250.588 217.600,250.800 217.780,250.800 218.000 C 250.800 218.220,251.048 218.400,251.351 218.400 C 251.654 218.400,252.121 218.664,252.389 218.987 C 252.657 219.310,252.994 219.559,253.138 219.540 C 254.117 219.411,254.735 219.710,254.916 220.400 C 255.041 220.879,255.462 221.200,255.963 221.200 C 256.488 221.200,256.800 221.456,256.800 221.889 C 256.800 222.491,256.867 222.478,257.331 221.789 C 257.877 220.977,258.807 215.610,258.803 213.300 C 258.800 212.001,258.801 212.000,260.869 212.000 C 262.035 212.000,263.212 211.763,263.569 211.457 C 264.396 210.745,266.647 210.000,267.971 210.000 C 269.430 210.000,274.000 205.413,274.000 203.949 C 274.000 202.632,274.752 200.388,275.474 199.550 C 275.882 199.076,276.000 197.992,275.910 195.550 C 275.790 192.327,275.765 192.249,275.254 193.500 C 274.862 194.458,274.469 194.800,273.761 194.800 C 273.184 194.800,272.800 195.034,272.800 195.386 C 272.800 196.375,271.393 196.801,267.923 196.863 C 264.429 196.925,263.900 196.765,259.800 194.406 C 258.700 193.773,256.180 192.415,254.200 191.389 C 252.220 190.363,249.268 188.821,247.640 187.962 C 244.526 186.319,242.800 185.976,242.800 187.000 C 242.800 187.330,242.982 187.600,243.205 187.600 C 243.683 187.600,252.871 195.238,255.907 198.159 C 258.432 200.589,258.795 201.686,258.798 206.900 C 258.800 210.764,258.791 210.800,257.828 210.800 C 257.124 210.800,256.820 211.049,256.728 211.700 C 256.624 212.431,256.274 212.644,254.866 212.831 C 253.912 212.959,253.012 213.242,252.866 213.461 C 252.184 214.481,246.800 214.253,246.800 213.203 C 246.800 213.017,246.252 212.743,245.583 212.596 C 244.914 212.449,243.969 211.917,243.483 211.414 C 242.997 210.911,233.780 203.176,223.000 194.225 C 212.220 185.274,203.040 177.647,202.600 177.277 C 198.900 174.163,191.179 167.772,190.272 167.071 C 189.652 166.592,188.755 165.840,188.280 165.400 C 187.279 164.474,179.937 158.359,178.279 157.071 C 177.226 156.253,175.358 154.665,174.000 153.433 C 172.992 152.519,170.212 150.257,168.798 149.200 C 168.062 148.650,166.911 147.705,166.241 147.100 C 165.570 146.495,164.792 146.000,164.511 146.000 C 164.230 146.000,164.000 145.726,164.000 145.391 C 164.000 145.057,163.550 144.578,163.000 144.327 C 162.450 144.077,162.000 143.685,162.000 143.457 C 162.000 143.229,161.546 142.388,160.991 141.587 C 159.700 139.725,159.366 134.584,160.455 133.346 C 160.816 132.935,161.238 132.003,161.393 131.274 C 161.569 130.446,162.024 129.789,162.607 129.524 C 163.119 129.291,163.646 128.672,163.777 128.150 C 164.190 126.504,173.260 126.700,175.400 128.400 C 176.231 129.060,177.058 129.600,177.239 129.600 C 177.421 129.600,177.891 129.935,178.284 130.344 C 178.678 130.753,179.500 131.207,180.110 131.354 C 180.721 131.500,181.576 131.976,182.010 132.410 C 182.445 132.845,183.098 133.200,183.462 133.200 C 183.826 133.200,184.714 133.650,185.436 134.200 C 186.157 134.750,187.004 135.200,187.317 135.200 C 187.631 135.200,188.551 135.650,189.362 136.200 C 190.172 136.750,191.070 137.200,191.356 137.200 C 191.642 137.200,192.399 137.650,193.038 138.200 C 193.677 138.749,194.501 139.199,194.869 139.200 C 195.237 139.200,196.073 139.650,196.727 140.200 C 197.381 140.750,198.303 141.200,198.777 141.200 C 199.251 141.200,200.055 141.650,200.565 142.200 C 201.075 142.750,201.884 143.200,202.364 143.200 C 202.844 143.200,203.663 143.627,204.185 144.148 C 204.706 144.670,205.603 145.214,206.178 145.359 C 206.753 145.503,207.611 146.066,208.084 146.611 C 208.557 147.155,209.173 147.600,209.452 147.600 C 209.731 147.600,210.444 148.050,211.038 148.600 C 212.927 150.351,213.885 149.681,220.142 142.239 C 223.874 137.801,223.823 137.510,218.893 135.086 C 216.752 134.033,212.480 131.838,209.400 130.208 C 206.320 128.577,202.180 126.405,200.200 125.381 C 198.220 124.357,194.800 122.553,192.600 121.373 C 190.400 120.193,187.700 118.801,186.600 118.280 C 182.473 116.324,179.951 109.020,182.345 105.954 C 182.755 105.429,183.217 104.595,183.372 104.100 C 183.527 103.605,183.908 103.200,184.219 103.200 C 184.530 103.200,184.898 102.750,185.036 102.200 C 185.240 101.384,185.532 101.200,186.616 101.200 C 187.567 101.200,188.014 100.985,188.185 100.448 C 188.658 98.956,192.416 99.208,193.398 100.797 C 193.535 101.019,194.149 101.200,194.761 101.200 C 195.374 101.200,196.399 101.650,197.038 102.200 C 197.677 102.749,198.321 103.199,198.469 103.200 C 198.617 103.200,199.247 103.623,199.869 104.139 C 200.491 104.656,201.500 105.200,202.110 105.349 C 202.721 105.498,203.535 105.935,203.920 106.320 C 204.304 106.704,205.361 107.242,206.268 107.513 C 207.175 107.785,208.020 108.276,208.146 108.604 C 208.272 108.932,208.715 109.200,209.132 109.200 C 209.548 109.200,210.551 109.650,211.362 110.200 C 212.172 110.750,213.084 111.200,213.387 111.200 C 213.690 111.200,214.473 111.650,215.127 112.200 C 215.781 112.750,216.563 113.200,216.865 113.200 C 217.167 113.200,218.041 113.625,218.807 114.144 C 219.573 114.662,220.650 115.223,221.200 115.389 C 221.750 115.556,222.560 116.012,223.000 116.403 C 223.440 116.794,224.407 117.242,225.149 117.399 C 225.945 117.568,226.574 117.977,226.684 118.400 C 226.787 118.795,227.386 119.217,228.023 119.345 C 228.657 119.471,229.548 119.948,230.003 120.403 C 230.459 120.859,231.230 121.403,231.716 121.612 C 232.202 121.822,233.083 122.381,233.673 122.855 L 234.746 123.716 235.975 122.682 C 236.651 122.114,238.825 119.734,240.806 117.393 C 245.191 112.212,245.164 112.021,239.667 109.257 C 237.760 108.298,234.220 106.462,231.800 105.178 C 229.380 103.893,226.950 102.653,226.400 102.422 C 225.850 102.190,225.130 101.816,224.800 101.591 C 224.263 101.223,222.641 100.375,219.000 98.558 C 218.340 98.228,217.530 97.790,217.200 97.585 C 216.870 97.379,214.980 96.379,213.000 95.362 C 204.354 90.923,203.800 90.258,203.800 84.330 C 203.800 81.239,203.937 80.231,204.405 79.868 C 204.738 79.611,205.229 78.905,205.496 78.300 C 205.764 77.695,206.244 77.200,206.564 77.200 C 206.883 77.200,207.202 76.795,207.272 76.300 C 207.518 74.567,217.883 74.876,218.559 76.637 C 218.678 76.946,219.046 77.200,219.378 77.200 C 219.710 77.200,220.262 77.628,220.605 78.151 C 221.012 78.773,221.768 79.189,222.787 79.352 C 223.861 79.523,224.425 79.850,224.600 80.400 C 224.779 80.964,225.205 81.200,226.045 81.200 C 226.782 81.200,227.617 81.581,228.236 82.200 C 228.786 82.750,229.510 83.200,229.844 83.200 C 230.669 83.200,232.128 83.995,232.520 84.658 C 232.696 84.956,233.267 85.200,233.789 85.200 C 234.311 85.200,235.247 85.623,235.869 86.139 C 236.491 86.656,237.500 87.200,238.110 87.349 C 238.721 87.498,239.576 87.976,240.010 88.410 C 240.445 88.845,241.146 89.200,241.569 89.200 C 241.992 89.200,242.873 89.650,243.527 90.200 C 244.181 90.750,244.991 91.200,245.327 91.200 C 245.663 91.200,246.460 91.638,247.096 92.174 C 247.733 92.710,248.760 93.275,249.379 93.430 C 249.998 93.586,250.589 94.037,250.693 94.434 C 250.797 94.830,251.380 95.264,251.990 95.398 C 252.600 95.532,253.514 96.082,254.019 96.621 C 255.313 97.997,256.766 97.885,258.187 96.300 C 267.410 86.005,267.434 85.928,262.082 83.271 C 260.167 82.321,256.620 80.483,254.200 79.187 C 251.780 77.891,249.350 76.644,248.800 76.416 C 248.250 76.187,247.530 75.823,247.200 75.606 C 246.870 75.388,244.980 74.380,243.000 73.366 C 241.020 72.351,237.600 70.552,235.400 69.369 C 233.200 68.186,230.680 66.875,229.800 66.455 C 226.778 65.013,224.010 60.378,224.522 57.616 C 225.671 51.429,227.508 49.396,231.938 49.410 C 236.253 49.424,237.572 49.787,240.036 51.637 C 241.226 52.531,242.830 53.584,243.600 53.977 C 244.370 54.371,246.890 55.707,249.200 56.946 C 256.879 61.065,259.236 62.124,259.698 61.662 C 260.210 61.150,259.415 60.000,258.551 60.000 C 258.248 60.000,258.000 59.730,258.000 59.400 C 258.000 59.070,257.859 58.800,257.686 58.800 C 257.513 58.800,256.838 58.350,256.186 57.801 C 255.534 57.252,252.588 54.777,249.641 52.301 C 242.406 46.224,241.800 45.338,241.800 40.832 C 241.800 36.601,242.647 35.293,246.708 33.257 C 250.119 31.547,255.351 32.275,257.185 34.715 C 257.303 34.872,258.210 35.657,259.200 36.459 C 260.190 37.262,261.630 38.495,262.400 39.199 C 263.170 39.904,265.931 42.197,268.536 44.295 C 271.141 46.394,273.571 48.411,273.936 48.779 C 276.671 51.532,287.260 59.959,287.778 59.796 C 288.120 59.688,288.672 59.515,289.005 59.410 C 290.564 58.922,286.557 54.753,279.400 49.416 C 278.960 49.087,275.645 46.372,272.034 43.382 C 265.600 38.055,260.471 34.008,258.607 32.787 C 257.704 32.195,256.715 31.461,253.638 29.094 C 252.847 28.485,251.840 27.714,251.400 27.380 C 248.122 24.891,247.288 24.214,245.762 22.808 C 243.699 20.906,243.200 20.053,243.200 18.426 L 243.200 17.200 246.649 17.200 C 251.175 17.200,250.777 16.238,246.098 15.870 C 244.394 15.736,242.010 15.543,240.800 15.441 C 239.590 15.338,237.790 15.409,236.800 15.598 M254.800 18.600 C 254.800 18.930,255.092 19.200,255.449 19.200 C 255.980 19.200,256.008 19.091,255.600 18.600 C 255.326 18.270,255.034 18.000,254.951 18.000 C 254.868 18.000,254.800 18.270,254.800 18.600 M269.200 24.351 C 269.200 24.839,269.455 25.200,269.800 25.200 C 270.130 25.200,270.400 25.042,270.400 24.849 C 270.400 24.656,270.130 24.274,269.800 24.000 C 269.299 23.584,269.200 23.642,269.200 24.351 M306.200 25.600 C 305.760 25.789,304.396 25.956,303.170 25.972 C 301.329 25.995,300.775 26.175,300.000 27.000 C 299.094 27.964,298.881 28.000,294.000 28.000 C 289.119 28.000,288.906 28.036,288.000 29.000 C 287.447 29.588,286.615 30.000,285.979 30.000 C 284.675 30.000,284.116 30.602,283.935 32.200 C 283.849 32.961,283.599 33.357,283.251 33.284 C 282.891 33.207,282.788 33.391,282.951 33.816 C 283.088 34.173,283.200 34.610,283.200 34.786 C 283.200 34.962,283.560 35.201,284.000 35.316 C 284.479 35.441,284.800 35.862,284.800 36.363 C 284.800 36.834,285.058 37.200,285.390 37.200 C 285.714 37.200,286.247 37.718,286.575 38.352 C 286.902 38.985,287.447 39.609,287.785 39.739 C 288.123 39.869,288.408 40.206,288.417 40.487 C 288.426 40.769,289.026 41.377,289.750 41.837 L 291.066 42.674 292.133 41.756 C 292.720 41.251,293.202 40.695,293.204 40.519 C 293.208 40.207,295.342 37.280,296.564 35.910 C 296.903 35.531,297.294 34.766,297.433 34.210 C 297.573 33.655,297.927 33.200,298.220 33.200 C 298.514 33.200,298.994 32.348,299.290 31.300 L 299.827 29.400 302.370 29.400 C 304.441 29.400,304.995 29.540,305.356 30.156 C 306.059 31.354,308.379 33.600,308.913 33.600 C 309.454 33.600,311.299 31.412,311.728 30.262 C 311.880 29.856,312.353 29.433,312.780 29.321 C 313.206 29.210,313.610 28.732,313.678 28.259 C 313.794 27.443,314.059 27.390,318.964 27.200 C 322.827 27.050,323.985 26.889,323.564 26.559 C 322.173 25.472,308.283 24.705,306.200 25.600 M330.722 44.700 C 330.619 46.304,330.464 46.619,329.725 46.725 C 329.186 46.801,328.801 47.180,328.725 47.708 C 328.650 48.226,328.202 48.677,327.600 48.844 L 326.600 49.120 327.700 49.210 C 328.305 49.260,328.980 49.345,329.200 49.400 C 329.420 49.455,329.870 49.523,330.200 49.550 C 330.530 49.578,330.800 49.960,330.800 50.400 C 330.800 50.844,331.067 51.200,331.400 51.200 C 331.895 51.200,332.000 50.467,332.000 47.000 C 332.000 42.407,330.986 40.582,330.722 44.700 M331.300 57.065 C 331.025 57.176,330.800 57.599,330.800 58.005 C 330.800 58.853,329.694 60.106,329.210 59.806 C 329.032 59.696,328.776 60.042,328.642 60.576 C 328.508 61.110,328.066 61.652,327.660 61.781 C 327.254 61.910,326.718 62.462,326.469 63.008 C 326.221 63.553,325.755 64.000,325.436 64.000 C 325.116 64.000,324.738 64.365,324.597 64.811 C 324.455 65.257,323.934 65.887,323.439 66.211 C 322.160 67.049,322.453 69.200,323.845 69.200 C 324.370 69.200,324.800 69.360,324.800 69.557 C 324.800 69.753,325.250 70.026,325.800 70.164 C 326.350 70.302,326.800 70.592,326.800 70.808 C 326.800 71.709,327.955 71.071,329.914 69.087 L 332.000 66.975 332.000 62.913 C 332.000 60.680,332.176 58.390,332.390 57.826 C 332.787 56.783,332.498 56.581,331.300 57.065 M306.140 72.706 C 304.860 73.524,305.383 74.979,307.600 76.771 C 308.810 77.749,310.440 79.149,311.222 79.883 C 312.004 80.616,313.536 81.888,314.627 82.708 C 316.891 84.411,323.372 89.752,324.663 90.980 C 325.137 91.431,326.037 92.194,326.663 92.676 C 328.613 94.178,335.740 99.986,337.000 101.099 C 337.660 101.683,338.430 102.619,338.711 103.180 C 338.992 103.741,339.485 104.650,339.805 105.200 C 340.673 106.688,340.585 110.854,339.661 112.046 C 339.255 112.571,338.802 113.490,338.656 114.089 C 338.368 115.271,336.953 116.800,336.147 116.800 C 335.871 116.800,335.410 117.131,335.123 117.535 C 334.134 118.927,327.630 118.876,326.601 117.470 C 326.365 117.147,325.549 116.589,324.786 116.230 C 324.024 115.871,321.600 114.607,319.400 113.420 C 317.200 112.233,313.732 110.393,311.694 109.331 C 309.655 108.269,306.955 106.829,305.694 106.132 C 304.432 105.434,302.950 104.670,302.400 104.432 C 301.850 104.195,301.130 103.831,300.800 103.623 C 300.470 103.416,298.490 102.366,296.400 101.290 C 294.310 100.215,291.361 98.670,289.847 97.857 C 286.691 96.163,286.072 96.217,284.507 98.327 C 283.907 99.137,282.645 100.790,281.704 102.000 C 280.763 103.210,279.859 104.380,279.694 104.600 C 277.405 107.652,277.390 109.027,279.642 109.407 C 280.546 109.560,281.626 110.026,282.042 110.442 C 282.459 110.859,283.082 111.200,283.426 111.200 C 284.267 111.200,285.725 111.989,286.120 112.658 C 286.296 112.956,286.766 113.200,287.164 113.200 C 287.562 113.200,288.551 113.650,289.362 114.200 C 290.172 114.750,291.084 115.200,291.387 115.200 C 291.690 115.200,292.473 115.650,293.127 116.200 C 293.781 116.750,294.624 117.200,295.000 117.200 C 295.376 117.200,296.219 117.650,296.873 118.200 C 297.527 118.750,298.394 119.200,298.800 119.200 C 299.206 119.200,300.073 119.650,300.727 120.200 C 301.381 120.750,302.303 121.200,302.777 121.200 C 303.251 121.200,304.055 121.650,304.565 122.200 C 305.075 122.750,305.884 123.200,306.364 123.200 C 306.844 123.200,307.686 123.650,308.236 124.200 C 308.891 124.855,309.683 125.200,310.532 125.200 C 313.080 125.200,318.800 129.764,318.800 131.796 L 318.800 132.912 324.400 132.711 C 329.632 132.522,330.099 132.440,331.521 131.455 C 332.358 130.875,333.352 130.400,333.730 130.400 C 334.911 130.400,338.000 127.238,338.000 126.029 C 338.000 124.149,338.509 124.000,344.927 124.000 L 350.894 124.000 352.385 122.500 L 353.876 121.000 354.118 116.392 C 354.401 111.022,354.353 110.895,351.993 110.728 C 350.597 110.628,350.114 110.405,349.812 109.716 C 349.599 109.230,349.059 108.780,348.612 108.716 C 348.165 108.652,347.622 108.195,347.405 107.700 C 347.188 107.205,346.796 106.800,346.534 106.800 C 346.272 106.800,345.704 106.350,345.271 105.800 C 344.839 105.250,344.348 104.800,344.181 104.800 C 343.887 104.800,342.601 103.601,336.030 97.200 C 333.205 94.449,330.508 92.026,327.400 89.448 C 326.740 88.901,324.400 86.955,322.200 85.124 C 320.000 83.294,317.768 81.437,317.240 80.998 C 316.712 80.559,315.986 79.930,315.627 79.600 C 315.267 79.270,314.350 78.529,313.587 77.953 C 312.824 77.377,311.120 75.898,309.800 74.665 C 307.369 72.394,306.965 72.179,306.140 72.706 M262.998 124.307 C 261.972 125.318,260.338 127.327,259.367 128.773 C 258.395 130.218,257.309 131.804,256.953 132.298 C 256.056 133.541,257.000 134.999,258.937 135.362 C 259.697 135.504,260.532 135.877,260.792 136.190 C 261.052 136.503,261.925 136.970,262.732 137.229 C 263.539 137.487,264.560 138.017,265.000 138.406 C 265.440 138.795,266.386 139.238,267.103 139.389 C 267.820 139.541,268.591 140.010,268.817 140.433 C 269.043 140.855,269.594 141.200,270.040 141.200 C 271.017 141.200,272.488 141.928,272.894 142.613 C 273.056 142.886,273.825 143.228,274.603 143.374 C 275.381 143.520,276.237 143.991,276.505 144.420 C 276.773 144.849,277.321 145.200,277.723 145.200 C 278.653 145.200,280.106 145.957,280.520 146.658 C 280.696 146.956,281.267 147.200,281.789 147.200 C 282.311 147.200,283.273 147.650,283.927 148.200 C 284.581 148.750,285.379 149.200,285.702 149.200 C 286.024 149.200,286.951 149.650,287.762 150.200 C 288.572 150.750,289.686 151.200,290.236 151.200 C 290.786 151.200,291.686 151.650,292.236 152.200 C 292.786 152.750,293.339 153.200,293.465 153.200 C 294.460 153.200,296.919 156.583,297.101 158.202 L 297.304 160.000 302.203 160.000 C 306.059 160.000,307.208 159.873,307.598 159.403 C 307.870 159.074,308.747 158.629,309.547 158.413 C 310.574 158.136,312.010 156.993,314.448 154.510 L 317.896 151.000 318.349 147.600 C 319.125 141.766,318.789 140.804,316.705 142.900 C 315.369 144.244,314.088 144.800,312.328 144.800 C 311.459 144.800,310.388 144.992,309.948 145.228 C 309.436 145.502,308.978 145.518,308.674 145.274 C 308.413 145.064,307.623 144.769,306.919 144.619 C 306.214 144.468,305.190 143.992,304.642 143.562 C 304.095 143.131,303.051 142.498,302.323 142.155 C 301.596 141.812,299.200 140.566,297.000 139.386 C 294.800 138.206,291.380 136.404,289.400 135.380 C 287.420 134.357,284.000 132.565,281.800 131.397 C 279.600 130.228,276.090 128.387,274.000 127.304 C 271.910 126.221,268.999 124.690,267.531 123.902 L 264.862 122.468 262.998 124.307 M241.447 150.100 C 239.132 152.822,239.085 152.885,237.224 155.707 C 236.247 157.188,235.302 158.400,235.124 158.400 C 233.704 158.400,234.928 161.112,236.440 161.315 C 237.357 161.438,238.421 161.902,238.855 162.367 C 239.282 162.825,240.083 163.200,240.635 163.200 C 241.187 163.200,242.035 163.624,242.519 164.141 C 243.004 164.659,244.095 165.211,244.944 165.368 C 245.987 165.560,246.554 165.904,246.691 166.426 C 246.833 166.969,247.243 167.200,248.065 167.200 C 248.764 167.200,249.619 167.582,250.186 168.149 C 250.708 168.672,251.784 169.220,252.577 169.369 C 253.369 169.518,254.237 169.991,254.505 170.420 C 254.773 170.849,255.321 171.200,255.723 171.200 C 256.653 171.200,258.106 171.957,258.520 172.658 C 258.696 172.956,259.267 173.200,259.789 173.200 C 260.311 173.200,261.247 173.623,261.869 174.139 C 262.491 174.656,263.500 175.200,264.110 175.349 C 264.721 175.498,265.576 175.976,266.010 176.410 C 266.451 176.851,267.339 177.200,268.018 177.200 C 268.784 177.200,269.608 177.571,270.236 178.200 C 270.786 178.750,271.453 179.205,271.718 179.212 C 272.356 179.227,274.800 181.466,274.800 182.034 C 274.800 184.457,278.612 185.266,285.632 184.331 L 289.154 183.862 292.525 180.431 L 295.896 177.000 296.349 173.600 C 297.036 168.433,296.963 166.800,296.043 166.800 C 295.570 166.800,295.193 167.174,295.036 167.800 C 294.857 168.514,294.514 168.800,293.839 168.800 C 293.252 168.800,292.819 169.083,292.698 169.547 C 292.321 170.988,284.898 170.966,283.837 169.521 C 283.597 169.193,282.590 168.536,281.600 168.062 C 280.610 167.588,278.180 166.315,276.200 165.232 C 274.220 164.149,270.890 162.375,268.800 161.291 C 266.710 160.207,262.660 158.096,259.800 156.601 C 256.940 155.106,252.779 152.946,250.553 151.801 C 248.327 150.656,246.082 149.422,245.564 149.060 C 244.040 147.992,243.021 148.250,241.447 150.100 M215.988 208.359 C 215.445 208.712,214.939 209.137,214.866 209.303 C 214.792 209.470,214.162 210.319,213.466 211.190 C 212.769 212.060,211.390 213.866,210.400 215.204 C 209.410 216.541,208.195 218.148,207.700 218.775 C 207.205 219.402,206.800 220.096,206.800 220.316 C 206.800 220.536,206.339 221.140,205.777 221.658 C 205.214 222.176,204.588 223.005,204.387 223.500 C 204.185 223.995,203.765 224.400,203.453 224.400 C 203.142 224.400,202.777 224.838,202.642 225.373 C 202.508 225.909,202.056 226.455,201.639 226.588 C 201.221 226.720,200.768 227.272,200.632 227.814 C 200.473 228.447,200.101 228.800,199.592 228.800 C 199.130 228.800,198.800 229.069,198.800 229.445 C 198.800 230.114,197.407 232.032,195.500 233.991 C 194.895 234.613,194.400 235.324,194.400 235.573 C 194.400 235.822,194.123 236.131,193.785 236.261 C 193.447 236.391,192.902 237.015,192.575 237.648 C 192.247 238.282,191.734 238.800,191.433 238.800 C 191.133 238.800,190.774 239.250,190.636 239.800 C 190.474 240.446,190.104 240.800,189.592 240.800 C 189.102 240.800,188.800 241.069,188.800 241.506 C 188.800 242.197,187.625 243.812,185.575 245.937 C 185.012 246.522,184.433 247.315,184.288 247.700 C 184.143 248.085,183.844 248.400,183.623 248.400 C 183.402 248.400,182.941 248.940,182.600 249.600 C 182.259 250.260,181.734 250.800,181.433 250.800 C 181.133 250.800,180.774 251.250,180.636 251.800 C 180.498 252.350,180.114 252.800,179.782 252.800 C 179.451 252.800,179.023 253.215,178.830 253.721 C 178.459 254.696,177.271 256.244,175.575 257.962 C 175.012 258.533,174.433 259.315,174.288 259.700 C 174.143 260.085,173.844 260.400,173.623 260.400 C 173.402 260.400,172.941 260.940,172.600 261.600 C 172.259 262.260,171.734 262.800,171.433 262.800 C 171.133 262.800,170.774 263.250,170.636 263.800 C 170.498 264.350,170.114 264.800,169.782 264.800 C 169.451 264.800,169.023 265.215,168.830 265.721 C 168.459 266.696,167.271 268.244,165.575 269.962 C 165.012 270.533,164.433 271.315,164.288 271.700 C 164.143 272.085,163.844 272.400,163.623 272.400 C 163.402 272.400,162.941 272.940,162.600 273.600 C 162.259 274.260,161.714 274.800,161.390 274.800 C 161.064 274.800,160.800 275.163,160.800 275.610 C 160.800 276.106,160.412 276.567,159.800 276.800 C 159.250 277.009,158.800 277.422,158.800 277.718 C 158.800 278.014,158.276 278.873,157.636 279.628 C 156.995 280.383,156.050 281.517,155.536 282.150 C 155.021 282.782,154.222 283.682,153.761 284.150 C 153.299 284.617,152.708 285.405,152.447 285.900 C 152.186 286.395,151.708 286.800,151.386 286.800 C 151.064 286.800,150.800 287.139,150.800 287.554 C 150.800 287.969,150.350 288.603,149.800 288.963 C 149.250 289.324,148.800 289.819,148.800 290.063 C 148.800 290.308,148.348 290.927,147.796 291.439 C 147.244 291.951,146.618 292.826,146.406 293.385 C 146.194 293.943,145.749 294.400,145.418 294.400 C 145.086 294.400,144.704 294.844,144.568 295.386 C 144.432 295.928,144.006 296.471,143.621 296.593 C 143.236 296.715,142.718 297.262,142.469 297.808 C 142.221 298.353,141.743 298.800,141.409 298.800 C 141.074 298.800,140.800 299.139,140.800 299.554 C 140.800 299.969,140.350 300.603,139.800 300.963 C 139.250 301.324,138.800 301.807,138.800 302.038 C 138.800 303.092,134.452 306.280,132.527 306.637 C 131.687 306.793,130.593 307.186,130.095 307.509 C 128.700 308.417,125.450 307.951,121.058 306.213 C 118.929 305.370,117.137 304.752,117.078 304.840 C 116.684 305.422,113.363 309.838,113.199 310.000 C 110.842 312.319,110.147 315.021,111.800 315.436 C 112.350 315.574,112.800 315.822,112.800 315.988 C 112.800 316.153,113.610 316.719,114.600 317.244 C 115.590 317.769,116.400 318.343,116.400 318.520 C 116.400 318.697,116.940 319.030,117.600 319.260 C 118.289 319.500,118.800 319.963,118.800 320.348 C 118.800 321.987,125.950 322.649,127.929 321.194 C 128.518 320.761,129.900 320.293,131.000 320.155 C 133.454 319.848,140.000 313.918,140.000 312.002 C 140.000 311.237,141.226 309.765,145.000 306.000 C 148.768 302.241,150.000 300.763,150.000 300.000 C 150.000 299.237,151.232 297.759,155.000 294.000 C 158.768 290.241,160.000 288.763,160.000 288.000 C 160.000 287.237,161.232 285.759,165.000 282.000 C 168.768 278.241,170.000 276.763,170.000 276.000 C 170.000 275.237,171.232 273.759,175.000 270.000 C 178.768 266.241,180.000 264.763,180.000 264.000 C 180.000 263.237,181.232 261.759,185.000 258.000 C 188.768 254.241,190.000 252.763,190.000 252.000 C 190.000 251.237,191.232 249.759,195.000 246.000 C 198.718 242.291,200.003 240.754,200.011 240.006 C 200.019 239.260,201.425 237.570,205.457 233.459 L 210.893 227.919 212.959 229.959 C 214.354 231.337,215.356 232.000,216.043 232.000 C 216.611 232.000,217.475 232.442,218.000 233.000 C 218.544 233.579,219.386 234.000,220.000 234.000 C 220.598 234.000,221.448 234.413,221.950 234.947 C 222.570 235.607,223.465 235.967,224.910 236.139 C 226.050 236.273,227.473 236.747,228.075 237.192 C 228.676 237.636,229.598 238.000,230.124 238.000 C 231.314 238.000,233.602 238.751,234.400 239.404 C 237.097 241.610,251.933 240.920,254.500 238.470 L 256.000 237.038 256.000 232.695 C 256.000 229.782,255.863 228.438,255.583 228.611 C 255.353 228.753,254.588 228.429,253.883 227.891 C 252.983 227.206,251.913 226.857,250.297 226.724 C 248.708 226.593,247.716 226.275,247.097 225.699 C 246.604 225.240,245.523 224.740,244.697 224.587 C 243.870 224.435,242.790 223.996,242.297 223.613 C 241.803 223.230,240.680 222.687,239.800 222.408 C 238.920 222.128,237.930 221.674,237.600 221.400 C 237.270 221.126,236.303 220.677,235.451 220.403 C 232.420 219.429,228.892 217.406,226.029 214.999 C 225.243 214.338,224.173 213.438,223.650 212.999 C 223.128 212.559,221.909 211.493,220.941 210.630 C 217.960 207.970,217.156 207.602,215.988 208.359 M115.600 332.237 C 110.269 334.504,112.321 342.007,118.400 342.470 C 119.866 342.582,122.135 341.357,122.918 340.032 C 125.616 335.464,120.593 330.113,115.600 332.237 M99.300 338.412 C 98.805 338.611,98.400 338.942,98.400 339.146 C 98.400 339.350,97.957 340.031,97.416 340.659 C 95.727 342.619,92.400 347.219,92.400 347.596 C 92.400 347.793,92.066 348.190,91.657 348.477 C 91.249 348.765,90.787 349.405,90.630 349.900 C 90.474 350.395,90.088 350.800,89.773 350.800 C 88.352 350.800,89.318 353.014,90.913 353.414 C 91.521 353.567,92.241 354.009,92.514 354.398 C 92.786 354.787,93.367 355.173,93.804 355.256 C 94.262 355.344,94.654 355.789,94.728 356.304 C 94.820 356.951,95.126 357.200,95.828 357.200 C 96.381 357.200,96.800 357.435,96.800 357.744 C 96.800 358.044,97.610 358.719,98.600 359.244 C 99.590 359.769,100.400 360.338,100.400 360.509 C 100.400 360.680,100.867 360.998,101.439 361.215 C 102.010 361.432,102.571 361.967,102.685 362.405 C 102.820 362.918,103.232 363.200,103.847 363.200 C 104.392 363.200,104.800 363.437,104.800 363.753 C 104.800 364.890,111.269 365.191,117.600 364.349 L 121.000 363.896 124.500 360.456 C 127.042 357.959,128.000 356.744,128.000 356.021 C 128.000 355.372,128.678 354.324,129.947 353.013 C 131.890 351.003,132.803 347.911,132.801 343.347 C 132.800 342.044,131.255 341.802,130.788 343.032 C 130.566 343.616,130.099 344.000,129.610 344.000 C 129.164 344.000,128.800 344.184,128.800 344.410 C 128.800 345.130,123.852 349.698,122.421 350.298 C 118.191 352.073,114.115 349.878,103.860 340.303 C 101.356 337.966,100.891 337.773,99.300 338.412 M86.497 366.680 C 84.290 369.126,84.234 370.522,86.235 373.248 C 87.838 375.432,88.857 375.853,92.080 375.663 C 95.495 375.463,97.220 367.849,94.166 366.457 C 93.635 366.215,93.200 365.743,93.200 365.409 C 93.200 363.724,88.331 364.648,86.497 366.680 " stroke="none" fill="#0f0f0f" fill-rule="evenodd"></path><path id="path1" d="M243.200 18.415 C 243.200 20.053,243.696 20.903,245.762 22.808 C 247.288 24.214,248.122 24.891,251.400 27.380 C 251.840 27.714,252.847 28.485,253.638 29.094 C 256.715 31.461,257.704 32.195,258.607 32.787 C 260.471 34.008,265.600 38.055,272.034 43.382 C 275.645 46.372,278.960 49.087,279.400 49.416 C 283.482 52.460,288.696 57.097,289.105 58.048 C 289.639 59.287,289.687 59.228,287.678 59.834 C 287.250 59.963,276.282 51.140,273.936 48.779 C 273.571 48.411,271.141 46.394,268.536 44.295 C 265.931 42.197,263.170 39.904,262.400 39.199 C 261.630 38.495,260.190 37.262,259.200 36.459 C 258.210 35.657,257.303 34.872,257.185 34.715 C 255.351 32.275,250.119 31.547,246.708 33.257 C 242.647 35.293,241.800 36.601,241.800 40.832 C 241.800 45.338,242.406 46.224,249.641 52.301 C 252.588 54.777,255.534 57.252,256.186 57.801 C 256.838 58.350,257.513 58.800,257.686 58.800 C 257.859 58.800,258.000 59.070,258.000 59.400 C 258.000 59.730,258.248 60.000,258.551 60.000 C 259.415 60.000,260.210 61.150,259.698 61.662 C 259.236 62.124,256.879 61.065,249.200 56.946 C 246.890 55.707,244.370 54.371,243.600 53.977 C 242.830 53.584,241.226 52.531,240.036 51.637 C 237.572 49.787,236.253 49.424,231.938 49.410 C 227.508 49.396,225.671 51.429,224.522 57.616 C 224.010 60.378,226.778 65.013,229.800 66.455 C 230.680 66.875,233.200 68.186,235.400 69.369 C 237.600 70.552,241.020 72.351,243.000 73.366 C 244.980 74.380,246.870 75.388,247.200 75.606 C 247.530 75.823,248.250 76.187,248.800 76.416 C 249.350 76.644,251.780 77.891,254.200 79.187 C 256.620 80.483,260.167 82.321,262.082 83.271 C 267.434 85.928,267.410 86.005,258.187 96.300 C 256.766 97.885,255.313 97.997,254.019 96.621 C 253.514 96.082,252.600 95.532,251.990 95.398 C 251.380 95.264,250.797 94.830,250.693 94.434 C 250.589 94.037,249.998 93.586,249.379 93.430 C 248.760 93.275,247.733 92.710,247.096 92.174 C 246.460 91.638,245.663 91.200,245.327 91.200 C 244.991 91.200,244.181 90.750,243.527 90.200 C 242.873 89.650,241.992 89.200,241.569 89.200 C 241.146 89.200,240.445 88.845,240.010 88.410 C 239.576 87.976,238.721 87.498,238.110 87.349 C 237.500 87.200,236.491 86.656,235.869 86.139 C 235.247 85.623,234.311 85.200,233.789 85.200 C 233.267 85.200,232.696 84.956,232.520 84.658 C 232.128 83.995,230.669 83.200,229.844 83.200 C 229.510 83.200,228.786 82.750,228.236 82.200 C 227.617 81.581,226.782 81.200,226.045 81.200 C 225.205 81.200,224.779 80.964,224.600 80.400 C 224.425 79.850,223.861 79.523,222.787 79.352 C 221.768 79.189,221.012 78.773,220.605 78.151 C 220.262 77.628,219.710 77.200,219.378 77.200 C 219.046 77.200,218.678 76.946,218.559 76.637 C 217.883 74.876,207.518 74.567,207.272 76.300 C 207.202 76.795,206.883 77.200,206.564 77.200 C 206.244 77.200,205.764 77.695,205.496 78.300 C 205.229 78.905,204.738 79.611,204.405 79.868 C 203.937 80.231,203.800 81.239,203.800 84.330 C 203.800 88.911,204.797 90.956,207.858 92.657 C 209.373 93.499,215.891 96.898,217.951 97.921 C 218.528 98.207,219.270 98.612,219.600 98.821 C 219.930 99.030,221.100 99.646,222.200 100.191 C 223.300 100.735,224.470 101.365,224.800 101.591 C 225.130 101.816,225.850 102.190,226.400 102.422 C 226.950 102.653,229.380 103.893,231.800 105.178 C 234.220 106.462,237.760 108.298,239.667 109.257 C 245.164 112.021,245.191 112.212,240.806 117.393 C 238.825 119.734,236.651 122.114,235.975 122.682 L 234.746 123.716 233.673 122.855 C 233.083 122.381,232.202 121.822,231.716 121.612 C 231.230 121.403,230.459 120.859,230.003 120.403 C 229.548 119.948,228.657 119.471,228.023 119.345 C 227.386 119.217,226.787 118.795,226.684 118.400 C 226.574 117.977,225.945 117.568,225.149 117.399 C 224.407 117.242,223.440 116.794,223.000 116.403 C 222.560 116.012,221.750 115.556,221.200 115.389 C 220.650 115.223,219.573 114.662,218.807 114.144 C 218.041 113.625,217.167 113.200,216.865 113.200 C 216.563 113.200,215.781 112.750,215.127 112.200 C 214.473 111.650,213.690 111.200,213.387 111.200 C 213.084 111.200,212.172 110.750,211.362 110.200 C 210.551 109.650,209.548 109.200,209.132 109.200 C 208.715 109.200,208.272 108.932,208.146 108.604 C 208.020 108.276,207.175 107.785,206.268 107.513 C 205.361 107.242,204.304 106.704,203.920 106.320 C 203.535 105.935,202.721 105.498,202.110 105.349 C 201.500 105.200,200.491 104.656,199.869 104.139 C 199.247 103.623,198.617 103.200,198.469 103.200 C 198.321 103.199,197.677 102.749,197.038 102.200 C 196.399 101.650,195.374 101.200,194.761 101.200 C 194.149 101.200,193.535 101.019,193.398 100.797 C 192.416 99.208,188.658 98.956,188.185 100.448 C 188.014 100.985,187.567 101.200,186.616 101.200 C 185.532 101.200,185.240 101.384,185.036 102.200 C 184.898 102.750,184.530 103.200,184.219 103.200 C 183.908 103.200,183.527 103.605,183.372 104.100 C 183.217 104.595,182.755 105.429,182.345 105.954 C 179.951 109.020,182.473 116.324,186.600 118.280 C 187.700 118.801,190.400 120.193,192.600 121.373 C 194.800 122.553,198.220 124.357,200.200 125.381 C 202.180 126.405,206.320 128.577,209.400 130.208 C 212.480 131.838,216.752 134.033,218.893 135.086 C 223.823 137.510,223.874 137.801,220.142 142.239 C 213.885 149.681,212.927 150.351,211.038 148.600 C 210.444 148.050,209.731 147.600,209.452 147.600 C 209.173 147.600,208.557 147.155,208.084 146.611 C 207.611 146.066,206.753 145.503,206.178 145.359 C 205.603 145.214,204.706 144.670,204.185 144.148 C 203.663 143.627,202.844 143.200,202.364 143.200 C 201.884 143.200,201.075 142.750,200.565 142.200 C 200.055 141.650,199.251 141.200,198.777 141.200 C 198.303 141.200,197.381 140.750,196.727 140.200 C 196.073 139.650,195.237 139.200,194.869 139.200 C 194.501 139.199,193.677 138.749,193.038 138.200 C 192.399 137.650,191.642 137.200,191.356 137.200 C 191.070 137.200,190.172 136.750,189.362 136.200 C 188.551 135.650,187.631 135.200,187.317 135.200 C 187.004 135.200,186.157 134.750,185.436 134.200 C 184.714 133.650,183.826 133.200,183.462 133.200 C 183.098 133.200,182.445 132.845,182.010 132.410 C 181.576 131.976,180.721 131.500,180.110 131.354 C 179.500 131.207,178.678 130.753,178.284 130.344 C 177.891 129.935,177.421 129.600,177.239 129.600 C 177.058 129.600,176.231 129.060,175.400 128.400 C 173.260 126.700,164.190 126.504,163.777 128.150 C 163.646 128.672,163.119 129.291,162.607 129.524 C 162.024 129.789,161.569 130.446,161.393 131.274 C 161.238 132.003,160.816 132.935,160.455 133.346 C 159.366 134.584,159.700 139.725,160.991 141.587 C 161.546 142.388,162.000 143.229,162.000 143.457 C 162.000 143.685,162.450 144.077,163.000 144.327 C 163.550 144.578,164.000 145.057,164.000 145.391 C 164.000 145.726,164.230 146.000,164.511 146.000 C 164.792 146.000,165.570 146.495,166.241 147.100 C 166.911 147.705,168.062 148.650,168.798 149.200 C 170.212 150.257,172.992 152.519,174.000 153.433 C 175.358 154.665,177.226 156.253,178.279 157.071 C 179.937 158.359,187.279 164.474,188.280 165.400 C 188.755 165.840,189.652 166.592,190.272 167.071 C 191.179 167.772,198.900 174.163,202.600 177.277 C 203.040 177.647,212.220 185.274,223.000 194.225 C 233.780 203.176,242.997 210.911,243.483 211.414 C 243.969 211.917,244.914 212.449,245.583 212.596 C 246.252 212.743,246.800 213.017,246.800 213.203 C 246.800 214.253,252.184 214.481,252.866 213.461 C 253.012 213.242,253.912 212.959,254.866 212.831 C 256.274 212.644,256.624 212.431,256.728 211.700 C 256.820 211.049,257.124 210.800,257.828 210.800 C 258.791 210.800,258.800 210.764,258.798 206.900 C 258.795 201.686,258.432 200.589,255.907 198.159 C 252.871 195.238,243.683 187.600,243.205 187.600 C 242.982 187.600,242.800 187.330,242.800 187.000 C 242.800 185.976,244.526 186.319,247.640 187.962 C 249.268 188.821,252.220 190.363,254.200 191.389 C 256.180 192.415,258.700 193.773,259.800 194.406 C 263.900 196.765,264.429 196.925,267.923 196.863 C 271.393 196.801,272.800 196.375,272.800 195.386 C 272.800 195.034,273.184 194.800,273.761 194.800 C 274.470 194.800,274.832 194.484,275.142 193.594 C 275.373 192.930,275.780 192.435,276.046 192.494 C 277.671 192.851,277.631 185.124,276.000 183.600 C 275.340 182.983,274.800 182.279,274.800 182.034 C 274.800 181.466,272.356 179.227,271.718 179.212 C 271.453 179.205,270.786 178.750,270.236 178.200 C 269.608 177.571,268.784 177.200,268.018 177.200 C 267.339 177.200,266.451 176.851,266.010 176.410 C 265.576 175.976,264.721 175.498,264.110 175.349 C 263.500 175.200,262.491 174.656,261.869 174.139 C 261.247 173.623,260.311 173.200,259.789 173.200 C 259.267 173.200,258.696 172.956,258.520 172.658 C 258.106 171.957,256.653 171.200,255.723 171.200 C 255.321 171.200,254.773 170.849,254.505 170.420 C 254.237 169.991,253.369 169.518,252.577 169.369 C 251.784 169.220,250.708 168.672,250.186 168.149 C 249.619 167.582,248.764 167.200,248.065 167.200 C 247.243 167.200,246.833 166.969,246.691 166.426 C 246.554 165.904,245.987 165.560,244.944 165.368 C 244.095 165.211,243.004 164.659,242.519 164.141 C 242.035 163.624,241.187 163.200,240.635 163.200 C 240.083 163.200,239.282 162.825,238.855 162.367 C 238.421 161.902,237.357 161.438,236.440 161.315 C 234.928 161.112,233.704 158.400,235.124 158.400 C 235.302 158.400,236.247 157.188,237.224 155.707 C 239.085 152.885,239.132 152.822,241.447 150.100 C 243.021 148.250,244.040 147.992,245.564 149.060 C 246.082 149.422,248.327 150.656,250.553 151.801 C 252.779 152.946,256.940 155.106,259.800 156.601 C 262.660 158.096,266.710 160.207,268.800 161.291 C 270.890 162.375,274.220 164.149,276.200 165.232 C 278.180 166.315,280.610 167.588,281.600 168.062 C 282.590 168.536,283.597 169.193,283.837 169.521 C 284.898 170.966,292.321 170.988,292.698 169.547 C 292.819 169.083,293.252 168.800,293.839 168.800 C 294.514 168.800,294.857 168.514,295.036 167.800 C 295.219 167.071,295.554 166.800,296.275 166.800 L 297.264 166.800 297.132 161.652 L 297.000 156.504 295.347 154.852 C 294.438 153.943,293.591 153.200,293.465 153.200 C 293.339 153.200,292.786 152.750,292.236 152.200 C 291.686 151.650,290.786 151.200,290.236 151.200 C 289.686 151.200,288.572 150.750,287.762 150.200 C 286.951 149.650,286.024 149.200,285.702 149.200 C 285.379 149.200,284.581 148.750,283.927 148.200 C 283.273 147.650,282.311 147.200,281.789 147.200 C 281.267 147.200,280.696 146.956,280.520 146.658 C 280.106 145.957,278.653 145.200,277.723 145.200 C 277.321 145.200,276.773 144.849,276.505 144.420 C 276.237 143.991,275.381 143.520,274.603 143.374 C 273.825 143.228,273.056 142.886,272.894 142.613 C 272.488 141.928,271.017 141.200,270.040 141.200 C 269.594 141.200,269.043 140.855,268.817 140.433 C 268.591 140.010,267.820 139.541,267.103 139.389 C 266.386 139.238,265.440 138.795,265.000 138.406 C 264.560 138.017,263.539 137.487,262.732 137.229 C 261.925 136.970,261.052 136.503,260.792 136.190 C 260.532 135.877,259.697 135.504,258.937 135.362 C 257.000 134.999,256.056 133.541,256.953 132.298 C 257.309 131.804,258.395 130.218,259.367 128.773 C 260.338 127.327,261.972 125.318,262.998 124.307 L 264.862 122.468 267.531 123.902 C 268.999 124.690,271.910 126.221,274.000 127.304 C 276.090 128.387,279.600 130.228,281.800 131.397 C 284.000 132.565,287.420 134.357,289.400 135.380 C 291.380 136.404,294.800 138.206,297.000 139.386 C 299.200 140.566,301.596 141.812,302.323 142.155 C 303.051 142.498,304.095 143.131,304.642 143.562 C 305.190 143.992,306.214 144.468,306.919 144.619 C 307.623 144.769,308.413 145.064,308.674 145.274 C 308.978 145.518,309.436 145.502,309.948 145.228 C 310.388 144.992,311.459 144.800,312.328 144.800 C 314.088 144.800,315.369 144.244,316.705 142.900 C 317.197 142.405,317.870 142.000,318.200 142.000 C 318.705 142.000,318.800 141.104,318.800 136.340 L 318.800 130.681 317.322 129.240 C 315.030 127.006,311.995 125.200,310.532 125.200 C 309.683 125.200,308.891 124.855,308.236 124.200 C 307.686 123.650,306.844 123.200,306.364 123.200 C 305.884 123.200,305.075 122.750,304.565 122.200 C 304.055 121.650,303.251 121.200,302.777 121.200 C 302.303 121.200,301.381 120.750,300.727 120.200 C 300.073 119.650,299.206 119.200,298.800 119.200 C 298.394 119.200,297.527 118.750,296.873 118.200 C 296.219 117.650,295.376 117.200,295.000 117.200 C 294.624 117.200,293.781 116.750,293.127 116.200 C 292.473 115.650,291.690 115.200,291.387 115.200 C 291.084 115.200,290.172 114.750,289.362 114.200 C 288.551 113.650,287.562 113.200,287.164 113.200 C 286.766 113.200,286.296 112.956,286.120 112.658 C 285.725 111.989,284.267 111.200,283.426 111.200 C 283.082 111.200,282.459 110.859,282.042 110.442 C 281.626 110.026,280.546 109.560,279.642 109.407 C 277.390 109.027,277.405 107.652,279.694 104.600 C 279.859 104.380,280.763 103.210,281.704 102.000 C 282.645 100.790,283.907 99.137,284.507 98.327 C 286.072 96.217,286.691 96.163,289.847 97.857 C 291.361 98.670,294.310 100.215,296.400 101.290 C 298.490 102.366,300.470 103.416,300.800 103.623 C 301.130 103.831,301.850 104.195,302.400 104.432 C 302.950 104.670,304.432 105.434,305.694 106.132 C 306.955 106.829,309.655 108.269,311.694 109.331 C 313.732 110.393,317.200 112.233,319.400 113.420 C 321.600 114.607,324.024 115.871,324.786 116.230 C 325.549 116.589,326.365 117.147,326.601 117.470 C 327.630 118.876,334.134 118.927,335.123 117.535 C 335.410 117.131,335.871 116.800,336.147 116.800 C 336.953 116.800,338.368 115.271,338.656 114.089 C 338.802 113.490,339.255 112.571,339.661 112.046 C 340.585 110.854,340.673 106.688,339.805 105.200 C 339.485 104.650,338.992 103.741,338.711 103.180 C 338.430 102.619,337.660 101.683,337.000 101.099 C 335.740 99.986,328.613 94.178,326.663 92.676 C 326.037 92.194,325.137 91.431,324.663 90.980 C 323.372 89.752,316.891 84.411,314.627 82.708 C 313.536 81.888,312.004 80.616,311.222 79.883 C 310.440 79.149,308.810 77.749,307.600 76.772 C 305.782 75.303,305.422 74.808,305.525 73.917 C 305.718 72.248,307.020 72.075,308.540 73.514 C 310.959 75.805,312.210 76.903,313.587 77.948 C 314.350 78.527,315.267 79.270,315.627 79.600 C 315.986 79.930,316.712 80.559,317.240 80.998 C 317.768 81.437,320.000 83.294,322.200 85.124 C 324.400 86.955,326.740 88.901,327.400 89.448 C 330.508 92.026,333.205 94.449,336.030 97.200 C 342.601 103.601,343.887 104.800,344.181 104.800 C 344.348 104.800,344.839 105.250,345.271 105.800 C 345.704 106.350,346.272 106.800,346.534 106.800 C 346.796 106.800,347.188 107.205,347.405 107.700 C 347.622 108.195,348.165 108.652,348.612 108.716 C 349.059 108.780,349.599 109.230,349.812 109.716 C 350.137 110.457,350.573 110.619,352.500 110.720 L 354.800 110.840 354.800 107.178 C 354.800 103.747,354.737 103.465,353.800 102.729 C 353.081 102.163,352.800 101.557,352.800 100.571 C 352.800 99.375,352.672 99.200,351.800 99.200 C 350.867 99.200,350.800 99.067,350.800 97.200 C 350.800 95.345,350.729 95.200,349.822 95.200 C 348.939 95.200,348.832 95.015,348.722 93.300 C 348.618 91.679,348.468 91.381,347.700 91.272 C 347.049 91.180,346.800 90.876,346.800 90.172 C 346.800 89.408,346.591 89.200,345.822 89.200 C 344.939 89.200,344.832 89.015,344.722 87.300 C 344.618 85.679,344.468 85.381,343.700 85.272 C 343.049 85.180,342.800 84.876,342.800 84.172 C 342.800 83.402,342.592 83.200,341.800 83.200 C 341.000 83.200,340.800 83.000,340.800 82.200 C 340.800 81.400,340.600 81.200,339.800 81.200 C 339.000 81.200,338.800 81.000,338.800 80.200 C 338.800 79.408,338.598 79.200,337.828 79.200 C 337.124 79.200,336.820 78.951,336.728 78.300 C 336.619 77.532,336.321 77.382,334.700 77.278 C 332.985 77.168,332.800 77.061,332.800 76.178 C 332.800 75.401,332.594 75.200,331.800 75.200 C 331.000 75.200,330.800 75.000,330.800 74.200 C 330.800 73.400,330.600 73.200,329.800 73.200 C 329.000 73.200,328.800 73.000,328.800 72.200 C 328.800 71.400,328.600 71.200,327.800 71.200 C 327.250 71.200,326.800 71.023,326.800 70.808 C 326.800 70.592,326.350 70.302,325.800 70.164 C 325.250 70.026,324.800 69.753,324.800 69.557 C 324.800 69.360,324.370 69.200,323.845 69.200 C 322.453 69.200,322.160 67.049,323.439 66.211 C 323.934 65.887,324.455 65.257,324.597 64.811 C 324.738 64.365,325.116 64.000,325.436 64.000 C 325.755 64.000,326.221 63.553,326.469 63.008 C 326.718 62.462,327.254 61.910,327.660 61.781 C 328.066 61.652,328.508 61.110,328.642 60.576 C 328.776 60.042,329.032 59.696,329.210 59.806 C 329.702 60.110,330.800 58.847,330.800 57.979 C 330.800 57.498,331.170 57.122,331.800 56.964 C 332.746 56.727,332.800 56.563,332.800 53.957 C 332.800 51.283,332.770 51.200,331.800 51.200 C 331.067 51.200,330.800 50.987,330.800 50.400 C 330.800 49.960,330.530 49.578,330.200 49.550 C 329.870 49.523,329.420 49.455,329.200 49.400 C 328.980 49.345,328.305 49.260,327.700 49.210 L 326.600 49.120 327.600 48.844 C 328.202 48.677,328.650 48.226,328.725 47.708 C 328.801 47.180,329.186 46.801,329.725 46.725 C 330.464 46.619,330.619 46.304,330.722 44.700 C 330.832 42.977,330.936 42.800,331.835 42.800 L 332.826 42.800 332.713 38.300 C 332.607 34.070,332.546 33.776,331.700 33.405 C 331.141 33.160,330.800 32.661,330.800 32.087 C 330.800 30.857,329.088 29.200,327.818 29.200 C 326.996 29.200,326.800 29.005,326.800 28.190 L 326.800 27.180 320.300 27.290 C 313.995 27.397,313.796 27.426,313.678 28.259 C 313.610 28.732,313.206 29.210,312.780 29.321 C 312.353 29.433,311.880 29.856,311.728 30.262 C 311.299 31.412,309.454 33.600,308.913 33.600 C 308.379 33.600,306.059 31.354,305.356 30.156 C 304.995 29.540,304.441 29.400,302.370 29.400 L 299.827 29.400 299.290 31.300 C 298.994 32.348,298.514 33.200,298.220 33.200 C 297.927 33.200,297.573 33.655,297.433 34.210 C 297.294 34.766,296.903 35.531,296.564 35.910 C 295.342 37.280,293.208 40.207,293.204 40.519 C 293.202 40.695,292.720 41.251,292.133 41.756 L 291.066 42.674 289.750 41.837 C 289.026 41.377,288.426 40.769,288.417 40.487 C 288.408 40.206,288.123 39.869,287.785 39.739 C 287.447 39.609,286.902 38.985,286.575 38.352 C 286.247 37.718,285.714 37.200,285.390 37.200 C 285.058 37.200,284.800 36.834,284.800 36.363 C 284.800 35.874,284.481 35.442,284.034 35.325 C 283.613 35.215,283.162 34.704,283.033 34.190 C 282.890 33.619,282.449 33.206,281.899 33.128 C 281.405 33.057,280.978 32.775,280.950 32.500 C 280.923 32.225,280.877 31.820,280.850 31.600 C 280.822 31.380,280.446 31.200,280.014 31.200 C 279.180 31.200,278.232 29.901,278.714 29.419 C 278.871 29.262,278.820 29.170,278.600 29.214 C 277.591 29.418,276.959 29.130,276.595 28.300 C 276.307 27.645,275.802 27.367,274.738 27.278 C 273.570 27.181,273.226 26.959,273.030 26.178 C 272.816 25.323,272.560 25.200,270.992 25.200 C 269.357 25.200,269.200 25.114,269.200 24.221 C 269.200 23.322,269.028 23.232,267.100 23.121 C 265.786 23.045,264.981 22.813,264.950 22.500 C 264.923 22.225,264.877 21.820,264.850 21.600 C 264.822 21.380,263.900 21.200,262.800 21.200 C 261.289 21.200,260.800 21.053,260.800 20.600 C 260.800 20.270,260.575 20.045,260.300 20.100 C 260.025 20.155,259.845 19.975,259.900 19.700 C 259.955 19.425,259.865 19.221,259.700 19.247 C 257.396 19.611,254.845 19.125,254.728 18.300 C 254.603 17.421,254.468 17.397,248.900 17.289 L 243.200 17.178 243.200 18.415 M145.467 133.467 C 144.689 134.245,145.213 138.450,146.203 139.368 C 146.754 139.879,147.402 140.860,147.642 141.549 C 147.882 142.237,148.240 142.800,148.437 142.800 C 148.634 142.800,149.177 143.610,149.642 144.600 C 150.107 145.590,150.653 146.400,150.854 146.400 C 151.055 146.400,151.396 146.862,151.610 147.427 C 151.825 147.992,152.406 149.027,152.901 149.727 C 153.397 150.427,153.982 151.288,154.201 151.640 C 157.778 157.379,160.404 160.392,165.507 164.610 C 171.580 169.630,172.500 170.655,171.930 171.762 C 171.480 172.637,168.485 176.256,165.940 179.000 C 165.124 179.880,161.470 184.200,157.819 188.600 C 154.168 193.000,150.728 197.140,150.173 197.800 C 149.618 198.460,148.954 199.259,148.696 199.575 C 148.439 199.892,146.638 202.052,144.696 204.375 C 140.449 209.454,139.313 210.817,138.696 211.575 C 138.439 211.892,136.638 214.052,134.696 216.375 C 130.313 221.616,129.284 222.852,128.718 223.552 C 126.467 226.334,121.043 232.769,120.405 233.414 C 119.962 233.862,119.600 234.438,119.600 234.694 C 119.600 234.951,119.354 235.304,119.054 235.480 C 118.562 235.768,112.200 243.230,110.490 245.525 C 110.110 246.034,109.440 246.841,109.000 247.318 C 107.993 248.409,101.836 255.816,100.671 257.337 C 100.192 257.963,99.436 258.863,98.992 259.337 C 97.725 260.690,94.280 264.856,93.152 266.400 C 89.513 271.381,89.772 278.550,93.781 283.803 C 94.562 284.825,95.200 285.975,95.200 286.358 C 95.200 287.172,89.938 293.489,88.237 294.716 L 87.075 295.555 84.974 293.760 C 81.583 290.863,75.600 290.115,75.600 292.587 C 75.600 292.895,75.267 293.252,74.861 293.381 C 74.111 293.619,73.200 295.168,73.200 296.205 C 73.200 296.517,72.840 296.965,72.400 297.200 C 71.960 297.435,71.600 297.918,71.600 298.272 C 71.600 298.626,71.227 299.295,70.770 299.758 C 70.033 300.506,67.151 304.102,64.679 307.358 C 64.196 307.994,63.440 308.891,63.000 309.350 C 62.081 310.309,56.291 317.272,54.800 319.212 C 53.588 320.789,52.247 322.366,50.452 324.327 C 49.711 325.137,48.150 327.060,46.983 328.600 C 45.816 330.140,44.254 332.058,43.511 332.863 C 36.821 340.108,37.131 340.638,58.429 358.406 C 67.355 365.853,75.635 372.908,76.829 374.085 C 79.211 376.433,83.231 379.877,84.800 380.913 C 85.350 381.277,86.610 382.152,87.600 382.859 C 89.985 384.562,93.631 384.980,94.464 383.646 C 94.755 383.181,95.277 382.800,95.624 382.800 C 96.396 382.800,98.565 380.875,98.935 379.862 C 99.083 379.456,99.563 379.030,100.002 378.915 C 100.518 378.781,100.800 378.369,100.800 377.753 C 100.800 377.003,101.013 376.800,101.800 376.800 C 102.600 376.800,102.800 376.600,102.800 375.800 C 102.800 375.000,103.000 374.800,103.800 374.800 L 104.800 374.800 104.800 369.000 L 104.800 363.200 103.847 363.200 C 103.232 363.200,102.820 362.918,102.685 362.405 C 102.571 361.967,102.010 361.432,101.439 361.215 C 100.867 360.998,100.400 360.680,100.400 360.509 C 100.400 360.338,99.590 359.769,98.600 359.244 C 97.610 358.719,96.800 358.044,96.800 357.744 C 96.800 357.435,96.381 357.200,95.828 357.200 C 95.126 357.200,94.820 356.951,94.728 356.304 C 94.654 355.789,94.262 355.344,93.804 355.256 C 93.367 355.173,92.786 354.787,92.514 354.398 C 92.241 354.009,91.521 353.567,90.913 353.414 C 89.318 353.014,88.352 350.800,89.773 350.800 C 90.088 350.800,90.474 350.395,90.630 349.900 C 90.787 349.405,91.249 348.765,91.657 348.477 C 92.066 348.190,92.400 347.793,92.400 347.596 C 92.400 347.273,95.174 343.377,97.239 340.800 C 97.680 340.250,98.257 339.487,98.520 339.105 C 99.656 337.461,101.230 337.808,103.860 340.284 C 113.956 349.789,118.189 352.073,122.421 350.298 C 123.852 349.698,128.800 345.130,128.800 344.410 C 128.800 344.184,129.164 344.000,129.610 344.000 C 130.099 344.000,130.566 343.616,130.788 343.032 C 131.053 342.335,131.375 342.121,131.937 342.268 C 132.681 342.462,132.721 342.218,132.776 337.083 L 132.833 331.695 131.586 330.448 C 130.900 329.761,129.992 329.200,129.569 329.200 C 129.015 329.200,128.800 328.920,128.800 328.200 C 128.800 327.400,128.600 327.200,127.800 327.200 C 127.000 327.200,126.800 327.000,126.800 326.200 C 126.800 325.400,126.600 325.200,125.800 325.200 C 125.000 325.200,124.800 325.000,124.800 324.200 C 124.800 323.400,124.600 323.200,123.800 323.200 C 123.209 323.200,122.800 322.971,122.800 322.639 C 122.800 322.061,120.850 321.200,119.540 321.200 C 119.079 321.200,118.800 320.913,118.800 320.439 C 118.800 319.953,118.366 319.527,117.600 319.260 C 116.940 319.030,116.400 318.697,116.400 318.520 C 116.400 318.343,115.590 317.769,114.600 317.244 C 113.610 316.719,112.800 316.153,112.800 315.988 C 112.800 315.822,112.350 315.574,111.800 315.436 C 110.147 315.021,110.842 312.319,113.199 310.000 C 113.363 309.838,116.684 305.422,117.078 304.840 C 117.137 304.752,118.929 305.370,121.058 306.213 C 125.450 307.951,128.700 308.417,130.095 307.509 C 130.593 307.186,131.687 306.793,132.527 306.637 C 134.452 306.280,138.800 303.092,138.800 302.038 C 138.800 301.807,139.250 301.324,139.800 300.963 C 140.350 300.603,140.800 299.969,140.800 299.554 C 140.800 299.139,141.074 298.800,141.409 298.800 C 141.743 298.800,142.221 298.353,142.469 297.808 C 142.718 297.262,143.236 296.715,143.621 296.593 C 144.006 296.471,144.432 295.928,144.568 295.386 C 144.704 294.844,145.086 294.400,145.418 294.400 C 145.749 294.400,146.194 293.943,146.406 293.385 C 146.618 292.826,147.244 291.951,147.796 291.439 C 148.348 290.927,148.800 290.308,148.800 290.063 C 148.800 289.819,149.250 289.324,149.800 288.963 C 150.350 288.603,150.800 287.969,150.800 287.554 C 150.800 287.139,151.064 286.800,151.386 286.800 C 151.708 286.800,152.186 286.395,152.447 285.900 C 152.708 285.405,153.299 284.617,153.761 284.150 C 154.222 283.682,155.021 282.782,155.536 282.150 C 156.050 281.517,156.995 280.383,157.636 279.628 C 158.276 278.873,158.800 278.014,158.800 277.718 C 158.800 277.422,159.250 277.009,159.800 276.800 C 160.412 276.567,160.800 276.106,160.800 275.610 C 160.800 275.163,161.064 274.800,161.390 274.800 C 161.714 274.800,162.247 274.282,162.575 273.648 C 162.902 273.015,163.447 272.391,163.785 272.261 C 164.123 272.131,164.400 271.822,164.400 271.573 C 164.400 271.324,164.895 270.627,165.500 270.023 C 167.235 268.290,168.450 266.721,168.830 265.721 C 169.023 265.215,169.451 264.800,169.782 264.800 C 170.114 264.800,170.498 264.350,170.636 263.800 C 170.774 263.250,171.133 262.800,171.433 262.800 C 171.734 262.800,172.247 262.282,172.575 261.648 C 172.902 261.015,173.447 260.391,173.785 260.261 C 174.123 260.131,174.400 259.822,174.400 259.573 C 174.400 259.324,174.895 258.627,175.500 258.023 C 177.235 256.290,178.450 254.721,178.830 253.721 C 179.023 253.215,179.451 252.800,179.782 252.800 C 180.114 252.800,180.498 252.350,180.636 251.800 C 180.774 251.250,181.133 250.800,181.433 250.800 C 181.734 250.800,182.247 250.282,182.575 249.648 C 182.902 249.015,183.447 248.391,183.785 248.261 C 184.123 248.131,184.400 247.822,184.400 247.573 C 184.400 247.324,184.895 246.616,185.500 245.998 C 187.574 243.880,188.800 242.211,188.800 241.506 C 188.800 241.069,189.102 240.800,189.592 240.800 C 190.104 240.800,190.474 240.446,190.636 239.800 C 190.774 239.250,191.133 238.800,191.433 238.800 C 191.734 238.800,192.247 238.282,192.575 237.648 C 192.902 237.015,193.447 236.391,193.785 236.261 C 194.123 236.131,194.400 235.822,194.400 235.573 C 194.400 235.324,194.895 234.613,195.500 233.991 C 197.407 232.032,198.800 230.114,198.800 229.445 C 198.800 229.069,199.130 228.800,199.592 228.800 C 200.101 228.800,200.473 228.447,200.632 227.814 C 200.768 227.272,201.221 226.720,201.639 226.588 C 202.056 226.455,202.508 225.909,202.642 225.373 C 202.777 224.838,203.142 224.400,203.453 224.400 C 203.765 224.400,204.185 223.995,204.387 223.500 C 204.588 223.005,205.214 222.176,205.777 221.658 C 206.339 221.140,206.800 220.536,206.800 220.316 C 206.800 220.096,207.205 219.402,207.700 218.775 C 208.195 218.148,209.410 216.541,210.400 215.204 C 211.390 213.866,212.785 212.042,213.500 211.148 C 214.215 210.255,214.801 209.406,214.803 209.262 C 214.804 209.118,215.302 208.718,215.908 208.373 C 217.209 207.633,217.959 207.969,220.937 210.627 C 221.907 211.492,223.128 212.559,223.650 212.999 C 224.173 213.438,225.243 214.338,226.029 214.999 C 228.892 217.406,232.420 219.429,235.451 220.403 C 236.303 220.677,237.270 221.126,237.600 221.400 C 237.930 221.674,238.920 222.128,239.800 222.408 C 240.680 222.687,241.803 223.230,242.297 223.613 C 242.790 223.996,243.870 224.435,244.697 224.587 C 245.523 224.740,246.604 225.240,247.097 225.699 C 247.716 226.275,248.708 226.593,250.297 226.724 C 251.866 226.854,252.985 227.208,253.809 227.835 C 256.062 229.551,257.082 228.627,257.155 224.800 C 257.204 222.237,256.847 221.200,255.916 221.200 C 255.462 221.200,255.036 220.860,254.916 220.400 C 254.801 219.960,254.458 219.578,254.153 219.550 C 252.990 219.445,252.826 219.386,252.340 218.900 C 252.065 218.625,251.606 218.400,251.320 218.400 C 251.034 218.400,250.800 218.220,250.800 218.000 C 250.800 217.780,250.588 217.600,250.328 217.600 C 249.741 217.600,243.117 213.183,242.680 212.500 C 242.504 212.225,242.108 212.000,241.801 212.000 C 241.493 212.000,240.792 211.595,240.242 211.100 C 239.692 210.605,238.180 209.434,236.880 208.497 C 235.581 207.561,233.870 206.166,233.079 205.397 C 232.287 204.629,231.483 204.000,231.292 204.000 C 231.101 204.000,230.577 203.595,230.129 203.100 C 229.182 202.055,228.804 201.735,223.200 197.254 C 220.890 195.406,218.622 193.513,218.159 193.047 C 217.697 192.581,216.707 191.711,215.959 191.114 C 212.261 188.160,206.526 183.428,205.945 182.851 C 205.585 182.493,204.685 181.718,203.945 181.129 C 201.013 178.794,194.704 173.594,193.877 172.830 C 193.395 172.385,190.660 170.107,187.800 167.768 C 184.940 165.428,182.330 163.257,182.000 162.943 C 181.670 162.628,178.494 159.977,174.943 157.052 C 171.391 154.126,167.260 150.519,165.762 149.036 C 164.264 147.553,162.138 145.588,161.037 144.670 C 159.936 143.751,157.781 141.785,156.247 140.300 C 154.714 138.815,153.307 137.600,153.120 137.600 C 152.933 137.600,152.611 137.155,152.404 136.611 C 152.194 136.058,151.581 135.510,151.014 135.368 C 150.456 135.228,150.000 134.966,150.000 134.785 C 150.000 133.609,146.378 132.555,145.467 133.467 M119.423 332.048 C 124.297 333.275,125.217 339.757,120.818 341.867 C 117.073 343.662,112.600 340.904,112.600 336.800 C 112.600 333.155,115.580 331.080,119.423 332.048 M93.200 365.409 C 93.200 365.743,93.635 366.215,94.166 366.457 C 97.220 367.849,95.495 375.463,92.080 375.663 C 88.857 375.853,87.838 375.432,86.235 373.248 C 83.334 369.296,85.709 364.800,90.697 364.800 C 92.671 364.800,93.200 364.929,93.200 365.409 " stroke="none" fill="#fbfbfb" fill-rule="evenodd"></path></g></svg>