<svg id="svg" version="1.1" xmlns="http://www.w3.org/2000/svg" xmlns:xlink="http://www.w3.org/1999/xlink" width="400" height="400" viewBox="0, 0, 400,400"><g id="svgg"><path id="path0" d="M187.000 2.400 C 185.694 3.720,184.433 4.800,184.197 4.800 C 183.962 4.800,182.883 5.700,181.800 6.800 C 180.717 7.900,179.630 8.800,179.385 8.800 C 179.140 8.800,178.517 9.250,178.000 9.800 C 177.483 10.350,176.856 10.800,176.605 10.800 C 176.355 10.800,175.632 11.340,175.000 12.000 C 174.368 12.660,173.614 13.200,173.325 13.200 C 173.036 13.200,172.800 13.350,172.800 13.532 C 172.800 13.715,172.308 14.120,171.707 14.432 C 171.106 14.745,170.089 15.495,169.448 16.100 C 168.806 16.705,168.078 17.200,167.829 17.200 C 167.580 17.200,167.117 17.560,166.800 18.000 C 166.483 18.440,165.943 18.800,165.600 18.800 C 165.257 18.800,164.717 19.160,164.400 19.600 C 164.083 20.040,163.621 20.400,163.374 20.400 C 163.126 20.400,162.598 20.760,162.200 21.200 C 161.802 21.640,161.256 22.000,160.987 22.000 C 160.718 22.000,160.271 22.273,159.994 22.607 C 159.717 22.941,158.840 23.512,158.045 23.874 C 157.250 24.237,156.284 24.803,155.897 25.132 C 155.051 25.851,154.175 26.352,150.916 27.983 C 149.549 28.667,148.323 29.401,148.191 29.614 C 148.059 29.827,147.163 30.361,146.200 30.800 C 145.237 31.239,144.341 31.773,144.209 31.986 C 144.077 32.199,142.813 32.926,141.400 33.600 C 139.987 34.274,138.731 34.989,138.608 35.187 C 138.485 35.386,137.353 36.049,136.092 36.660 C 134.832 37.271,133.740 37.912,133.667 38.085 C 133.593 38.258,133.188 38.400,132.767 38.400 C 132.345 38.400,132.000 38.580,132.000 38.800 C 132.000 39.020,131.640 39.200,131.200 39.200 C 130.760 39.200,130.400 39.380,130.400 39.600 C 130.400 39.820,130.055 40.000,129.633 40.000 C 129.212 40.000,128.807 40.161,128.733 40.357 C 128.529 40.906,124.453 43.200,123.682 43.201 C 123.307 43.201,120.666 44.371,117.812 45.801 C 114.959 47.230,112.412 48.400,112.153 48.400 C 111.894 48.400,110.655 48.940,109.400 49.600 C 108.145 50.260,106.885 50.800,106.600 50.800 C 106.315 50.800,105.055 51.340,103.800 52.000 C 102.545 52.660,101.301 53.200,101.035 53.200 C 100.768 53.200,99.805 53.560,98.894 54.000 C 97.984 54.440,97.048 54.800,96.814 54.800 C 96.580 54.800,96.077 54.965,95.695 55.166 C 94.366 55.867,92.193 56.740,91.096 57.013 C 90.489 57.165,89.894 57.449,89.773 57.644 C 89.652 57.840,89.124 58.000,88.600 58.000 C 88.076 58.000,87.536 58.180,87.400 58.400 C 87.264 58.620,86.724 58.800,86.200 58.800 C 85.676 58.800,85.136 58.980,85.000 59.200 C 84.864 59.420,84.324 59.600,83.800 59.600 C 83.276 59.600,82.746 59.763,82.623 59.963 C 82.500 60.162,81.500 60.449,80.400 60.600 C 79.300 60.751,78.300 61.038,78.177 61.237 C 78.054 61.437,77.524 61.600,77.000 61.600 C 76.476 61.600,75.936 61.780,75.800 62.000 C 75.664 62.220,75.124 62.400,74.600 62.400 C 74.076 62.400,73.536 62.580,73.400 62.800 C 73.264 63.020,72.569 63.200,71.856 63.200 C 71.143 63.200,70.389 63.349,70.180 63.530 C 69.812 63.850,68.231 64.340,64.700 65.227 C 63.765 65.462,62.447 65.822,61.772 66.027 C 61.096 66.232,60.162 66.400,59.695 66.400 C 59.229 66.400,58.736 66.580,58.600 66.800 C 58.464 67.020,57.744 67.200,57.000 67.200 C 56.256 67.200,55.536 67.380,55.400 67.600 C 55.264 67.820,54.364 68.000,53.400 68.000 C 52.436 68.000,51.536 68.180,51.400 68.400 C 51.264 68.620,50.441 68.800,49.571 68.800 C 48.701 68.800,47.677 68.970,47.295 69.178 C 45.880 69.949,32.397 72.010,18.400 73.594 C 6.893 74.897,7.337 74.379,6.746 87.200 C 5.977 103.862,7.637 131.713,10.406 148.623 C 10.620 149.931,10.796 151.754,10.798 152.676 C 10.799 153.598,10.980 154.464,11.200 154.600 C 11.420 154.736,11.600 155.791,11.600 156.944 C 11.600 158.097,11.763 159.211,11.963 159.420 C 12.163 159.629,12.425 160.700,12.546 161.800 C 12.666 162.900,12.958 164.970,13.194 166.400 C 13.430 167.830,13.726 169.720,13.853 170.600 C 13.979 171.480,14.244 172.371,14.441 172.580 C 14.638 172.789,14.800 173.723,14.800 174.656 C 14.800 175.589,14.980 176.464,15.200 176.600 C 15.420 176.736,15.600 177.456,15.600 178.200 C 15.600 178.944,15.780 179.664,16.000 179.800 C 16.220 179.936,16.400 180.836,16.400 181.800 C 16.400 182.764,16.560 183.652,16.756 183.773 C 16.951 183.894,17.214 184.579,17.339 185.296 C 17.603 186.810,18.238 190.069,18.605 191.800 C 18.746 192.460,19.006 193.360,19.185 193.800 C 19.493 194.562,19.867 195.901,20.832 199.700 C 21.464 202.192,22.845 206.877,23.220 207.800 C 23.398 208.240,23.770 209.590,24.045 210.800 C 24.321 212.010,24.693 213.171,24.873 213.380 C 25.053 213.589,25.200 214.163,25.200 214.656 C 25.200 215.149,25.380 215.664,25.600 215.800 C 25.820 215.936,26.000 216.476,26.000 217.000 C 26.000 217.524,26.163 218.054,26.363 218.177 C 26.562 218.300,26.849 219.300,27.000 220.400 C 27.151 221.500,27.438 222.500,27.637 222.623 C 27.837 222.746,28.000 223.276,28.000 223.800 C 28.000 224.324,28.180 224.864,28.400 225.000 C 28.620 225.136,28.800 225.580,28.800 225.986 C 28.800 226.624,29.292 227.802,30.850 230.895 C 31.043 231.277,31.200 231.856,31.200 232.182 C 31.200 232.509,31.560 233.417,32.000 234.200 C 32.440 234.983,32.800 235.855,32.800 236.137 C 32.800 236.419,33.160 237.395,33.600 238.306 C 34.040 239.216,34.400 240.229,34.400 240.557 C 34.400 240.885,34.580 241.264,34.800 241.400 C 35.020 241.536,35.200 241.978,35.200 242.383 C 35.200 242.788,35.740 244.145,36.400 245.400 C 37.060 246.655,37.600 247.915,37.600 248.200 C 37.600 248.485,38.140 249.745,38.800 251.000 C 39.460 252.255,40.000 253.608,40.000 254.007 C 40.000 254.407,40.136 254.793,40.302 254.867 C 40.468 254.940,41.169 256.170,41.861 257.600 C 46.762 267.737,52.941 280.040,53.217 280.211 C 53.400 280.323,54.049 281.447,54.661 282.708 C 55.273 283.968,56.000 285.233,56.277 285.519 C 56.554 285.804,57.096 286.704,57.482 287.519 C 57.867 288.333,58.457 289.320,58.792 289.711 C 59.497 290.535,61.028 293.032,61.554 294.216 C 61.753 294.665,62.205 295.273,62.558 295.565 C 62.911 295.858,63.200 296.324,63.200 296.600 C 63.200 296.876,63.479 297.334,63.820 297.616 C 64.161 297.899,64.782 298.882,65.200 299.800 C 65.618 300.718,66.239 301.701,66.580 301.984 C 66.921 302.266,67.200 302.718,67.200 302.987 C 67.200 303.256,67.560 303.802,68.000 304.200 C 68.440 304.598,68.800 305.132,68.800 305.387 C 68.800 305.642,69.340 306.368,70.000 307.000 C 70.660 307.632,71.200 308.352,71.200 308.600 C 71.200 308.848,71.740 309.568,72.400 310.200 C 73.060 310.832,73.600 311.558,73.600 311.813 C 73.600 312.068,73.960 312.602,74.400 313.000 C 74.840 313.398,75.200 313.935,75.200 314.192 C 75.200 314.450,75.650 315.083,76.200 315.600 C 76.750 316.117,77.200 316.742,77.200 316.989 C 77.200 317.236,77.920 318.141,78.800 319.000 C 79.680 319.859,80.400 320.759,80.400 321.000 C 80.400 321.241,81.120 322.141,82.000 323.000 C 82.880 323.859,83.600 324.758,83.600 324.996 C 83.600 325.235,84.500 326.317,85.600 327.400 C 86.700 328.483,87.600 329.562,87.600 329.796 C 87.600 330.030,88.860 331.472,90.400 333.000 C 91.940 334.528,93.200 335.965,93.200 336.192 C 93.200 336.730,114.077 357.600,114.615 357.600 C 114.841 357.600,116.094 358.680,117.400 360.000 C 118.706 361.320,119.966 362.400,120.200 362.400 C 120.434 362.400,121.694 363.480,123.000 364.800 C 124.306 366.120,125.572 367.200,125.813 367.200 C 126.053 367.200,126.768 367.740,127.400 368.400 C 128.032 369.060,128.752 369.600,129.000 369.600 C 129.248 369.600,129.968 370.140,130.600 370.800 C 131.232 371.460,131.955 372.000,132.205 372.000 C 132.456 372.000,133.083 372.450,133.600 373.000 C 134.117 373.550,134.742 374.000,134.989 374.000 C 135.236 374.000,136.141 374.720,137.000 375.600 C 137.859 376.480,138.768 377.200,139.019 377.200 C 139.270 377.200,139.802 377.560,140.200 378.000 C 140.598 378.440,141.138 378.800,141.400 378.800 C 141.662 378.800,142.202 379.160,142.600 379.600 C 142.998 380.040,143.538 380.400,143.800 380.400 C 144.062 380.400,144.602 380.760,145.000 381.200 C 145.398 381.640,145.938 382.000,146.200 382.000 C 146.462 382.000,147.002 382.360,147.400 382.800 C 147.798 383.240,148.338 383.600,148.600 383.600 C 148.862 383.600,149.402 383.960,149.800 384.400 C 150.198 384.840,150.738 385.200,151.000 385.200 C 151.262 385.200,151.802 385.560,152.200 386.000 C 152.598 386.440,153.144 386.800,153.413 386.800 C 153.682 386.800,154.129 387.073,154.406 387.407 C 154.683 387.741,155.560 388.316,156.355 388.684 C 157.150 389.052,158.357 389.769,159.038 390.277 C 159.719 390.785,160.450 391.200,160.662 391.200 C 160.875 391.200,161.398 391.520,161.825 391.911 C 162.251 392.303,163.632 393.124,164.892 393.737 C 166.153 394.350,167.277 395.001,167.391 395.185 C 167.504 395.369,169.630 396.530,172.114 397.766 L 176.631 400.013 187.897 399.906 L 199.163 399.800 191.082 395.714 C 180.077 390.151,175.927 387.908,170.212 384.437 C 168.731 383.537,167.465 382.800,167.400 382.800 C 165.218 382.800,137.024 362.263,126.400 352.935 C 125.850 352.452,124.950 351.681,124.400 351.222 C 122.263 349.439,109.675 337.264,107.421 334.800 C 106.113 333.370,103.626 330.678,101.895 328.818 C 98.615 325.292,88.130 312.613,85.343 308.800 C 84.458 307.590,82.482 304.890,80.951 302.800 C 75.563 295.445,66.279 280.727,62.278 273.200 C 61.401 271.550,59.839 268.670,58.806 266.800 C 57.046 263.612,53.301 256.041,50.794 250.600 C 48.713 246.086,47.600 243.576,47.600 243.400 C 47.600 243.303,47.136 242.209,46.568 240.968 C 43.633 234.551,35.032 211.001,33.578 205.400 C 33.406 204.740,32.876 202.940,32.400 201.400 C 29.803 193.002,23.906 168.315,22.751 161.000 C 22.218 157.625,21.216 151.549,20.016 144.400 C 19.812 143.190,19.443 140.310,19.196 138.000 C 18.948 135.690,18.591 132.720,18.403 131.400 C 18.214 130.080,17.859 126.480,17.613 123.400 C 17.367 120.320,16.993 115.809,16.783 113.377 C 16.572 110.944,16.400 101.449,16.400 92.277 L 16.400 75.600 19.176 75.600 C 20.703 75.600,22.064 75.420,22.200 75.200 C 22.336 74.980,24.046 74.800,26.000 74.800 C 27.954 74.800,29.664 74.620,29.800 74.400 C 29.936 74.180,31.196 74.000,32.600 74.000 C 34.004 74.000,35.264 73.820,35.400 73.600 C 35.536 73.380,36.886 73.200,38.400 73.200 C 39.914 73.200,41.264 73.020,41.400 72.800 C 41.536 72.580,42.796 72.400,44.200 72.400 C 45.604 72.400,46.864 72.220,47.000 72.000 C 47.136 71.780,48.036 71.600,49.000 71.600 C 49.964 71.600,50.864 71.420,51.000 71.200 C 51.136 70.980,52.011 70.800,52.944 70.800 C 53.877 70.800,54.811 70.638,55.020 70.441 C 55.229 70.244,56.120 69.983,57.000 69.861 C 59.015 69.583,62.123 68.971,64.200 68.443 C 65.080 68.220,66.520 67.863,67.400 67.650 C 68.280 67.437,70.440 66.877,72.200 66.404 C 73.960 65.931,76.120 65.371,77.000 65.158 C 79.685 64.509,84.159 63.154,84.895 62.766 C 85.277 62.565,85.864 62.400,86.200 62.400 C 86.536 62.400,87.123 62.238,87.505 62.039 C 87.887 61.840,89.010 61.463,90.000 61.200 C 90.990 60.937,92.113 60.560,92.495 60.361 C 92.877 60.162,93.464 60.000,93.800 60.000 C 94.393 60.000,94.816 59.834,96.695 58.862 C 97.187 58.608,97.952 58.400,98.395 58.400 C 98.838 58.400,99.200 58.220,99.200 58.000 C 99.200 57.780,99.562 57.600,100.005 57.600 C 100.448 57.600,101.123 57.441,101.505 57.247 C 102.440 56.771,103.907 56.182,105.600 55.600 C 107.711 54.875,109.479 54.147,113.400 52.387 C 114.500 51.893,116.490 51.079,117.822 50.577 C 119.154 50.076,121.569 49.021,123.188 48.233 C 124.807 47.445,126.372 46.800,126.666 46.800 C 126.960 46.800,127.200 46.620,127.200 46.400 C 127.200 46.180,127.445 46.000,127.744 46.000 C 128.539 46.000,144.273 37.938,148.884 35.169 C 151.054 33.866,152.893 32.800,152.973 32.800 C 153.053 32.800,154.303 32.080,155.752 31.200 C 157.200 30.320,158.569 29.600,158.793 29.600 C 159.017 29.600,159.200 29.441,159.200 29.247 C 159.200 29.052,159.515 28.790,159.900 28.664 C 161.542 28.127,181.796 14.792,182.800 13.587 C 182.910 13.455,183.900 12.743,185.000 12.005 C 188.341 9.762,192.519 6.227,196.705 2.100 L 198.834 0.000 194.105 -0.000 L 189.375 -0.000 187.000 2.400 M198.999 38.002 C 198.862 38.223,197.637 39.154,196.275 40.072 C 194.914 40.989,193.710 41.855,193.600 41.995 C 192.996 42.766,176.985 53.200,176.406 53.200 C 176.183 53.200,176.000 53.380,176.000 53.600 C 176.000 53.820,175.803 54.000,175.562 54.000 C 175.321 54.000,174.646 54.339,174.062 54.753 C 173.478 55.167,172.325 55.887,171.500 56.353 C 170.675 56.819,169.370 57.560,168.600 58.000 C 167.830 58.440,166.570 59.160,165.800 59.600 C 165.030 60.040,163.725 60.787,162.900 61.260 C 156.936 64.679,132.689 76.800,131.814 76.800 C 131.707 76.800,130.491 77.311,129.110 77.935 C 126.363 79.178,114.822 83.809,111.000 85.203 C 109.680 85.684,108.240 86.229,107.800 86.413 C 107.360 86.597,106.280 86.976,105.400 87.255 C 104.520 87.535,103.629 87.907,103.420 88.082 C 103.211 88.257,102.714 88.400,102.315 88.400 C 101.916 88.400,101.277 88.561,100.895 88.759 C 100.513 88.956,98.310 89.703,96.000 90.418 C 93.690 91.134,90.990 91.980,90.000 92.299 C 88.151 92.893,87.476 93.081,79.600 95.187 C 74.252 96.617,61.508 99.556,58.600 100.030 C 57.500 100.210,55.520 100.555,54.200 100.798 C 52.880 101.041,50.701 101.406,49.359 101.610 C 45.565 102.185,45.468 102.255,45.777 104.160 C 45.924 105.062,46.147 106.653,46.272 107.695 C 46.474 109.367,46.601 109.569,47.350 109.409 C 47.818 109.310,49.910 108.944,52.000 108.596 C 54.090 108.248,56.610 107.779,57.600 107.555 C 58.590 107.330,60.692 106.933,62.271 106.673 C 63.849 106.413,65.274 106.065,65.437 105.900 C 65.600 105.735,66.503 105.600,67.443 105.600 C 68.383 105.600,69.264 105.420,69.400 105.200 C 69.536 104.980,70.256 104.800,71.000 104.800 C 71.744 104.800,72.464 104.620,72.600 104.400 C 72.736 104.180,73.456 104.000,74.200 104.000 C 74.944 104.000,75.664 103.820,75.800 103.600 C 75.936 103.380,76.476 103.200,77.000 103.200 C 77.524 103.200,78.064 103.020,78.200 102.800 C 78.336 102.580,79.056 102.400,79.800 102.400 C 80.544 102.400,81.264 102.220,81.400 102.000 C 81.536 101.780,82.089 101.600,82.629 101.600 C 83.169 101.600,83.923 101.442,84.305 101.249 C 85.461 100.665,87.804 100.000,88.705 100.000 C 89.171 100.000,89.664 99.820,89.800 99.600 C 89.936 99.380,90.476 99.200,91.000 99.200 C 91.524 99.200,92.064 99.020,92.200 98.800 C 92.336 98.580,92.876 98.400,93.400 98.400 C 93.924 98.400,94.464 98.220,94.600 98.000 C 94.736 97.780,95.276 97.600,95.800 97.600 C 96.324 97.600,96.864 97.420,97.000 97.200 C 97.136 96.980,97.676 96.800,98.200 96.800 C 98.724 96.800,99.264 96.620,99.400 96.400 C 99.536 96.180,100.076 96.000,100.600 96.000 C 101.124 96.000,101.664 95.820,101.800 95.600 C 101.936 95.380,102.487 95.200,103.024 95.200 C 103.561 95.200,104.000 95.020,104.000 94.800 C 104.000 94.580,104.355 94.400,104.788 94.400 C 105.221 94.400,106.217 94.040,107.000 93.600 C 107.783 93.160,108.768 92.800,109.189 92.800 C 109.609 92.800,110.064 92.620,110.200 92.400 C 110.336 92.180,110.876 92.000,111.400 92.000 C 111.924 92.000,112.449 91.845,112.566 91.655 C 112.683 91.465,113.599 91.080,114.600 90.800 C 115.601 90.520,116.517 90.135,116.634 89.945 C 116.751 89.755,117.242 89.599,117.724 89.598 C 118.206 89.597,119.486 89.147,120.568 88.598 C 121.650 88.049,122.757 87.600,123.027 87.600 C 123.298 87.600,124.545 87.060,125.800 86.400 C 127.055 85.740,128.297 85.200,128.561 85.200 C 129.265 85.200,131.193 84.249,131.197 83.900 C 131.199 83.735,131.560 83.600,132.000 83.600 C 132.440 83.600,132.800 83.420,132.800 83.200 C 132.800 82.980,133.160 82.800,133.600 82.800 C 134.040 82.800,134.401 82.665,134.403 82.500 C 134.407 82.167,136.322 81.200,136.978 81.200 C 137.208 81.200,141.177 79.332,145.798 77.050 C 150.419 74.767,154.867 72.602,155.683 72.239 C 156.499 71.876,157.267 71.415,157.391 71.215 C 157.514 71.015,158.647 70.351,159.908 69.740 C 161.168 69.129,162.260 68.488,162.333 68.315 C 162.407 68.142,162.772 68.000,163.145 68.000 C 163.518 68.000,164.083 67.640,164.400 67.200 C 164.717 66.760,165.297 66.400,165.688 66.400 C 166.080 66.400,166.400 66.220,166.400 66.000 C 166.400 65.780,166.760 65.600,167.200 65.600 C 167.640 65.600,168.000 65.420,168.000 65.200 C 168.000 64.980,168.248 64.800,168.551 64.800 C 168.854 64.800,169.334 64.521,169.616 64.180 C 169.899 63.839,170.882 63.218,171.800 62.800 C 172.718 62.382,173.701 61.761,173.984 61.420 C 174.266 61.079,174.724 60.800,175.000 60.800 C 175.276 60.800,175.729 60.527,176.006 60.193 C 176.283 59.859,177.160 59.288,177.955 58.926 C 178.750 58.563,179.716 57.997,180.103 57.668 C 180.870 57.016,182.141 56.246,183.416 55.659 C 183.865 55.452,184.473 54.995,184.765 54.642 C 185.058 54.289,185.518 54.000,185.787 54.000 C 186.056 54.000,186.602 53.640,187.000 53.200 C 187.398 52.760,187.938 52.400,188.200 52.400 C 188.462 52.400,189.002 52.040,189.400 51.600 C 189.798 51.160,190.338 50.800,190.600 50.800 C 190.862 50.800,191.402 50.440,191.800 50.000 C 192.198 49.560,192.738 49.200,193.000 49.200 C 193.262 49.200,193.802 48.840,194.200 48.400 C 194.598 47.960,195.138 47.600,195.400 47.600 C 195.662 47.600,196.202 47.960,196.600 48.400 C 196.998 48.840,197.538 49.200,197.800 49.200 C 198.062 49.200,198.602 49.560,199.000 50.000 C 199.398 50.440,199.938 50.800,200.200 50.800 C 200.462 50.800,201.002 51.160,201.400 51.600 C 201.798 52.040,202.326 52.400,202.574 52.400 C 202.821 52.400,203.283 52.760,203.600 53.200 C 203.917 53.640,204.431 54.000,204.741 54.000 C 205.052 54.000,205.597 54.317,205.953 54.706 C 206.309 55.094,207.287 55.769,208.127 56.206 C 208.967 56.642,209.957 57.270,210.327 57.601 C 210.697 57.931,211.855 58.634,212.900 59.163 C 213.945 59.693,214.800 60.277,214.800 60.463 C 214.800 60.648,215.036 60.800,215.325 60.800 C 215.613 60.800,216.198 61.121,216.625 61.513 C 217.051 61.905,218.067 62.540,218.883 62.924 C 219.699 63.307,220.471 63.791,220.599 63.998 C 220.726 64.205,221.987 64.926,223.400 65.600 C 224.813 66.274,226.070 66.990,226.195 67.191 C 226.319 67.392,227.941 68.296,229.800 69.200 C 231.659 70.104,233.282 71.009,233.407 71.211 C 233.532 71.413,234.301 71.877,235.117 72.241 C 237.877 73.474,245.799 77.364,246.000 77.585 C 246.408 78.033,251.332 80.400,251.856 80.400 C 252.155 80.400,252.400 80.580,252.400 80.800 C 252.400 81.020,252.731 81.200,253.136 81.200 C 253.541 81.200,255.639 82.100,257.800 83.200 C 259.961 84.300,261.951 85.200,262.224 85.200 C 262.496 85.200,263.745 85.740,265.000 86.400 C 266.255 87.060,267.502 87.600,267.773 87.600 C 268.043 87.600,269.150 88.049,270.232 88.598 C 271.314 89.147,272.481 89.597,272.825 89.598 C 273.398 89.600,276.018 90.685,277.695 91.615 C 278.077 91.827,278.741 92.000,279.171 92.000 C 279.601 92.000,280.064 92.180,280.200 92.400 C 280.336 92.620,280.791 92.800,281.211 92.800 C 281.632 92.800,282.617 93.160,283.400 93.600 C 284.183 94.040,285.168 94.400,285.589 94.400 C 286.009 94.400,286.464 94.580,286.600 94.800 C 286.736 95.020,287.276 95.200,287.800 95.200 C 288.324 95.200,288.864 95.380,289.000 95.600 C 289.136 95.820,289.676 96.000,290.200 96.000 C 290.724 96.000,291.264 96.180,291.400 96.400 C 291.536 96.620,292.076 96.800,292.600 96.800 C 293.124 96.800,293.664 96.980,293.800 97.200 C 293.936 97.420,294.476 97.600,295.000 97.600 C 295.524 97.600,296.064 97.780,296.200 98.000 C 296.336 98.220,296.876 98.400,297.400 98.400 C 297.924 98.400,298.464 98.580,298.600 98.800 C 298.736 99.020,299.287 99.200,299.824 99.200 C 300.361 99.200,300.800 99.380,300.800 99.600 C 300.800 99.820,301.419 100.000,302.176 100.000 C 302.933 100.000,303.664 100.180,303.800 100.400 C 303.936 100.620,304.476 100.800,305.000 100.800 C 305.524 100.800,306.064 100.980,306.200 101.200 C 306.336 101.420,307.056 101.600,307.800 101.600 C 308.544 101.600,309.264 101.780,309.400 102.000 C 309.536 102.220,310.256 102.400,311.000 102.400 C 311.744 102.400,312.464 102.580,312.600 102.800 C 312.736 103.020,313.276 103.200,313.800 103.200 C 314.324 103.200,314.864 103.380,315.000 103.600 C 315.136 103.820,315.856 104.000,316.600 104.000 C 317.344 104.000,318.052 104.160,318.173 104.356 C 318.384 104.698,319.558 104.966,323.000 105.460 C 323.880 105.587,324.780 105.830,325.000 106.000 C 325.220 106.171,326.570 106.443,328.000 106.605 C 329.430 106.767,330.960 107.035,331.400 107.200 C 331.840 107.366,334.540 107.891,337.400 108.367 C 340.260 108.844,343.016 109.322,343.524 109.430 C 344.556 109.650,344.574 111.558,343.662 123.800 C 342.891 134.153,340.242 151.735,337.546 164.400 C 337.336 165.390,337.003 167.010,336.807 168.000 C 336.474 169.679,336.175 170.939,335.218 174.700 C 335.008 175.525,334.640 177.010,334.400 178.000 C 334.160 178.990,333.779 180.520,333.553 181.400 C 333.327 182.280,333.045 183.587,332.927 184.304 C 332.808 185.021,332.551 185.706,332.356 185.827 C 332.160 185.948,332.000 186.476,332.000 187.000 C 332.000 187.524,331.820 188.064,331.600 188.200 C 331.380 188.336,331.200 189.056,331.200 189.800 C 331.200 190.544,331.020 191.264,330.800 191.400 C 330.580 191.536,330.400 192.076,330.400 192.600 C 330.400 193.124,330.220 193.664,330.000 193.800 C 329.780 193.936,329.600 194.656,329.600 195.400 C 329.600 196.144,329.420 196.864,329.200 197.000 C 328.980 197.136,328.800 197.676,328.800 198.200 C 328.800 198.724,328.620 199.264,328.400 199.400 C 328.180 199.536,328.000 200.076,328.000 200.600 C 328.000 201.124,327.837 201.654,327.637 201.777 C 327.438 201.900,327.151 202.900,327.000 204.000 C 326.849 205.100,326.562 206.100,326.363 206.223 C 326.163 206.346,326.000 206.799,326.000 207.229 C 326.000 207.659,325.820 208.368,325.600 208.805 C 325.380 209.242,325.020 209.958,324.800 210.395 C 324.580 210.832,324.400 211.456,324.400 211.782 C 324.400 212.109,324.040 213.017,323.600 213.800 C 323.160 214.583,322.800 215.568,322.800 215.989 C 322.800 216.409,322.620 216.864,322.400 217.000 C 322.180 217.136,322.000 217.591,322.000 218.011 C 322.000 218.432,321.640 219.417,321.200 220.200 C 320.760 220.983,320.400 221.883,320.400 222.200 C 320.400 222.517,320.040 223.417,319.600 224.200 C 319.160 224.983,318.800 225.871,318.800 226.172 C 318.800 226.473,318.260 227.745,317.600 229.000 C 316.940 230.255,316.400 231.516,316.400 231.803 C 316.400 232.439,314.718 235.748,314.300 235.933 C 314.135 236.007,314.000 236.412,314.000 236.833 C 314.000 237.255,313.820 237.600,313.600 237.600 C 313.380 237.600,313.200 237.935,313.200 238.344 C 313.200 238.753,312.675 240.148,312.034 241.444 C 311.393 242.740,309.759 246.093,308.403 248.896 C 307.047 251.699,305.781 254.088,305.590 254.206 C 305.399 254.324,304.504 255.941,303.600 257.800 C 302.696 259.659,301.786 261.285,301.577 261.414 C 301.369 261.543,300.839 262.437,300.400 263.400 C 299.961 264.363,299.421 265.263,299.200 265.400 C 298.979 265.537,298.439 266.437,298.000 267.400 C 297.561 268.363,297.021 269.263,296.800 269.400 C 296.579 269.537,296.047 270.418,295.619 271.359 C 295.190 272.300,294.561 273.301,294.220 273.584 C 293.879 273.866,293.600 274.268,293.600 274.476 C 293.600 274.905,291.557 277.730,291.100 277.933 C 290.935 278.007,290.800 278.288,290.800 278.558 C 290.800 278.828,290.485 279.398,290.100 279.825 C 289.715 280.251,289.145 281.095,288.832 281.700 C 288.520 282.305,288.115 282.800,287.932 282.800 C 287.750 282.800,287.599 283.025,287.598 283.300 C 287.597 283.575,287.057 284.375,286.398 285.078 C 285.739 285.781,285.200 286.513,285.200 286.703 C 285.200 286.894,284.660 287.568,284.000 288.200 C 283.340 288.832,282.800 289.558,282.800 289.813 C 282.800 290.068,282.440 290.602,282.000 291.000 C 281.560 291.398,281.200 291.928,281.200 292.177 C 281.200 292.426,280.300 293.517,279.200 294.600 C 278.100 295.683,277.200 296.766,277.200 297.006 C 277.200 297.247,276.570 298.054,275.800 298.800 C 275.030 299.546,274.400 300.352,274.400 300.591 C 274.400 300.830,273.320 302.094,272.000 303.400 C 270.680 304.706,269.600 305.962,269.600 306.190 C 269.600 306.728,247.525 328.800,246.987 328.800 C 246.762 328.800,245.328 330.060,243.800 331.600 C 242.272 333.140,240.825 334.400,240.586 334.400 C 240.346 334.400,239.632 334.940,239.000 335.600 C 238.368 336.260,237.651 336.800,237.406 336.800 C 237.162 336.800,236.259 337.520,235.400 338.400 C 234.541 339.280,233.657 340.000,233.436 340.000 C 233.215 340.000,232.368 340.650,231.555 341.444 C 230.125 342.840,229.101 343.551,227.384 344.341 C 226.935 344.548,226.327 345.005,226.035 345.358 C 225.742 345.711,225.334 346.000,225.129 346.000 C 224.924 346.000,224.181 346.539,223.478 347.198 C 222.775 347.857,221.975 348.397,221.700 348.398 C 221.425 348.399,221.200 348.550,221.200 348.732 C 221.200 348.915,220.705 349.320,220.100 349.632 C 219.495 349.945,218.651 350.515,218.225 350.900 C 217.798 351.285,217.253 351.600,217.013 351.600 C 216.773 351.600,216.317 351.960,216.000 352.400 C 215.683 352.840,215.103 353.200,214.712 353.200 C 214.320 353.200,214.000 353.380,214.000 353.600 C 214.000 353.820,213.758 354.000,213.462 354.000 C 213.166 354.000,212.598 354.360,212.200 354.800 C 211.802 355.240,211.256 355.600,210.987 355.600 C 210.718 355.600,210.266 355.879,209.984 356.220 C 209.701 356.561,208.700 357.190,207.759 357.619 C 206.818 358.047,205.940 358.574,205.807 358.788 C 205.572 359.169,205.002 359.458,201.124 361.170 C 200.093 361.625,199.144 362.167,199.016 362.374 C 198.672 362.931,196.401 363.993,195.439 364.046 C 194.680 364.088,194.672 364.111,195.361 364.287 C 195.779 364.394,196.463 364.800,196.879 365.188 C 199.101 367.257,200.109 367.424,202.445 366.106 C 203.630 365.436,205.950 364.176,207.600 363.305 C 209.250 362.433,211.250 361.350,212.045 360.898 C 212.840 360.445,213.920 359.833,214.445 359.538 C 214.970 359.242,215.490 358.910,215.600 358.800 C 215.710 358.690,216.250 358.342,216.800 358.027 C 220.954 355.647,230.686 349.428,231.200 348.826 C 231.310 348.697,232.840 347.612,234.600 346.414 C 251.386 334.994,271.304 316.249,286.041 298.000 C 288.795 294.590,291.667 290.924,292.424 289.853 C 293.181 288.782,294.482 286.982,295.316 285.853 C 305.141 272.544,317.535 250.632,324.985 233.400 C 326.031 230.980,327.286 228.100,327.773 227.000 C 328.260 225.900,328.888 224.370,329.170 223.600 C 329.451 222.830,329.829 221.840,330.010 221.400 C 335.522 208.026,342.933 183.294,346.403 166.700 C 347.138 163.184,347.676 160.610,348.012 159.000 C 348.196 158.120,348.547 156.230,348.792 154.800 C 349.036 153.370,349.396 151.300,349.591 150.200 C 349.943 148.212,350.397 145.372,351.156 140.400 C 351.375 138.970,351.751 136.090,351.994 134.000 C 352.236 131.910,352.594 128.940,352.791 127.400 C 353.775 119.675,354.725 102.832,354.200 102.408 C 353.980 102.230,352.630 101.894,351.200 101.661 C 349.770 101.428,347.520 101.040,346.200 100.799 C 344.880 100.557,342.810 100.191,341.600 99.985 C 340.390 99.778,338.680 99.445,337.800 99.245 C 336.920 99.044,334.490 98.506,332.400 98.050 C 328.846 97.274,324.795 96.249,315.602 93.802 C 310.896 92.548,296.731 88.105,294.600 87.213 C 294.160 87.029,292.720 86.483,291.400 86.000 C 290.080 85.517,288.640 84.977,288.200 84.800 C 287.760 84.623,286.320 84.083,285.000 83.600 C 283.680 83.117,282.240 82.563,281.800 82.368 C 281.360 82.173,278.030 80.770,274.400 79.251 C 259.365 72.956,234.797 60.476,226.928 55.135 C 226.008 54.511,225.151 54.000,225.023 54.000 C 224.549 54.000,212.535 46.094,205.117 40.900 C 200.498 37.666,199.499 37.193,198.999 38.002 M317.826 63.243 C 317.948 63.439,318.476 63.600,319.000 63.600 C 319.524 63.600,320.064 63.780,320.200 64.000 C 320.336 64.220,320.932 64.385,321.524 64.366 L 322.600 64.331 321.400 63.937 C 319.059 63.168,317.605 62.885,317.826 63.243 M323.004 64.806 C 323.138 65.023,323.807 65.200,324.490 65.200 C 326.001 65.200,325.849 65.000,324.080 64.663 C 323.255 64.506,322.852 64.560,323.004 64.806 M326.705 65.883 C 327.202 65.979,327.922 65.975,328.305 65.875 C 328.687 65.775,328.280 65.696,327.400 65.701 C 326.520 65.705,326.207 65.787,326.705 65.883 M330.400 66.693 C 331.170 66.783,331.971 67.024,332.180 67.229 C 332.389 67.433,333.053 67.600,333.656 67.600 C 334.259 67.600,334.864 67.780,335.000 68.000 C 335.136 68.220,335.957 68.400,336.824 68.400 C 337.691 68.400,338.400 68.580,338.400 68.800 C 338.400 69.020,339.300 69.200,340.400 69.200 C 341.500 69.200,342.400 69.380,342.400 69.600 C 342.400 69.820,343.210 70.000,344.200 70.000 C 345.190 70.000,346.000 70.180,346.000 70.400 C 346.000 70.620,346.799 70.800,347.776 70.800 C 348.753 70.800,349.664 70.980,349.800 71.200 C 349.936 71.420,350.847 71.600,351.824 71.600 C 352.801 71.600,353.600 71.780,353.600 72.000 C 353.600 72.228,354.792 72.400,356.376 72.400 C 357.903 72.400,359.264 72.580,359.400 72.800 C 359.536 73.020,360.897 73.200,362.424 73.200 C 364.008 73.200,365.200 73.372,365.200 73.600 C 365.200 73.829,366.400 74.000,368.000 74.000 C 369.600 74.000,370.800 74.171,370.800 74.400 C 370.800 74.639,372.333 74.800,374.600 74.800 C 376.867 74.800,378.400 74.961,378.400 75.200 C 378.400 75.420,379.160 75.600,380.089 75.600 C 384.300 75.600,379.919 74.473,372.400 73.622 C 362.696 72.524,349.510 70.613,345.800 69.767 C 344.260 69.416,342.145 68.964,341.100 68.764 C 340.055 68.564,338.255 68.213,337.100 67.983 C 335.945 67.754,334.413 67.464,333.696 67.339 C 332.979 67.214,332.294 66.951,332.173 66.756 C 332.052 66.560,331.288 66.429,330.476 66.464 L 329.000 66.528 330.400 66.693 M383.354 118.177 C 383.232 118.494,383.203 119.079,383.289 119.477 C 383.387 119.928,383.524 119.712,383.654 118.900 C 383.871 117.538,383.730 117.196,383.354 118.177 M148.928 124.152 C 147.348 124.398,145.923 124.735,145.761 124.900 C 145.599 125.065,145.052 125.200,144.545 125.200 C 144.039 125.200,142.983 125.560,142.200 126.000 C 141.417 126.440,140.501 126.800,140.166 126.800 C 139.266 126.800,136.211 128.264,135.616 128.980 C 135.334 129.321,134.891 129.600,134.632 129.600 C 134.374 129.600,133.459 130.320,132.600 131.200 C 131.741 132.080,130.800 132.800,130.509 132.800 C 130.218 132.800,129.824 133.205,129.633 133.700 C 129.441 134.195,128.800 135.050,128.208 135.600 C 127.616 136.150,126.787 137.354,126.367 138.276 C 125.946 139.197,125.433 140.056,125.226 140.184 C 124.762 140.470,123.600 142.756,123.600 143.382 C 123.600 144.069,122.644 145.993,122.300 145.997 C 122.135 145.999,122.000 146.439,122.000 146.976 C 122.000 147.513,121.820 148.064,121.600 148.200 C 121.380 148.336,121.200 148.876,121.200 149.400 C 121.200 149.924,121.020 150.464,120.800 150.600 C 120.580 150.736,120.400 151.276,120.400 151.800 C 120.400 152.324,120.220 152.864,120.000 153.000 C 119.780 153.136,119.600 153.651,119.600 154.144 C 119.600 154.637,119.435 155.211,119.234 155.420 C 119.032 155.629,118.807 156.250,118.734 156.800 C 118.601 157.794,118.569 157.801,113.400 158.042 C 107.689 158.309,107.123 158.421,104.200 159.874 C 100.271 161.827,98.400 163.229,98.400 164.221 C 98.400 164.485,98.134 164.923,97.808 165.193 C 97.039 165.832,96.000 167.926,96.000 168.838 C 96.000 169.231,95.820 169.664,95.600 169.800 C 95.380 169.936,95.200 170.721,95.200 171.544 C 95.200 172.367,95.004 173.236,94.765 173.475 C 94.113 174.127,94.858 182.551,95.641 183.380 C 95.838 183.589,96.000 184.056,96.000 184.419 C 96.000 185.505,97.074 187.321,98.581 188.782 C 100.362 190.508,100.353 190.803,98.400 194.600 C 97.520 196.311,96.800 198.035,96.800 198.432 C 96.800 198.828,96.620 199.264,96.400 199.400 C 96.180 199.536,96.000 200.076,96.000 200.600 C 96.000 201.124,95.820 201.664,95.600 201.800 C 95.380 201.936,95.200 203.106,95.200 204.400 C 95.200 205.694,95.020 206.864,94.800 207.000 C 94.252 207.339,94.252 240.261,94.800 240.600 C 95.020 240.736,95.200 241.647,95.200 242.624 C 95.200 243.601,95.380 244.400,95.600 244.400 C 95.820 244.400,96.000 244.720,96.000 245.112 C 96.000 245.503,96.360 246.083,96.800 246.400 C 97.240 246.717,97.600 247.152,97.600 247.366 C 97.600 247.878,99.640 250.000,100.131 250.000 C 101.427 250.000,101.575 251.365,101.587 263.476 C 101.595 271.082,101.748 275.644,102.000 275.800 C 102.220 275.936,102.400 276.399,102.400 276.829 C 102.400 278.514,105.287 282.010,107.600 283.125 C 109.716 284.145,137.884 284.145,140.000 283.125 C 142.432 281.953,145.200 278.509,145.200 276.656 C 145.200 276.130,145.455 274.979,145.766 274.097 C 146.303 272.573,146.293 272.503,145.566 272.693 C 145.145 272.803,144.800 273.202,144.800 273.578 C 144.800 275.652,141.991 276.053,128.369 275.922 L 115.737 275.800 114.335 274.600 C 111.539 272.207,111.600 272.576,111.600 257.977 L 111.600 244.819 109.500 243.165 C 108.345 242.256,106.770 240.614,106.000 239.516 L 104.600 237.520 104.600 220.060 C 104.600 200.822,104.495 201.773,107.287 195.622 C 108.473 193.010,109.381 191.713,112.117 188.725 C 113.869 186.812,113.812 186.328,111.710 185.256 C 105.478 182.077,102.846 173.590,106.053 167.014 C 107.301 164.454,110.630 160.813,111.743 160.791 C 111.994 160.786,112.650 160.430,113.200 160.000 C 114.342 159.107,118.968 158.922,123.566 159.587 C 126.538 160.017,127.480 159.685,127.826 158.088 C 127.956 157.490,128.201 156.640,128.371 156.200 C 128.992 154.593,129.678 152.571,130.000 151.400 C 130.443 149.789,131.229 147.558,131.654 146.705 C 131.844 146.323,132.000 145.829,132.000 145.606 C 132.000 143.046,140.309 131.200,142.105 131.200 C 142.286 131.200,142.831 130.825,143.317 130.367 C 144.270 129.469,147.060 128.000,147.813 128.000 C 148.068 128.000,148.602 127.640,149.000 127.200 C 149.398 126.760,150.225 126.400,150.838 126.400 C 151.451 126.400,152.064 126.220,152.200 126.000 C 152.336 125.780,153.146 125.600,154.000 125.600 C 154.854 125.600,155.664 125.420,155.800 125.200 C 155.962 124.938,171.284 124.785,200.324 124.757 C 238.279 124.720,244.172 124.639,241.600 124.187 C 237.614 123.488,153.389 123.456,148.928 124.152 M245.552 125.312 C 245.745 125.505,246.419 125.598,247.051 125.519 C 248.109 125.387,248.081 125.359,246.700 125.168 C 245.840 125.049,245.350 125.110,245.552 125.312 M382.501 129.000 C 382.505 129.880,382.587 130.193,382.683 129.695 C 382.779 129.198,382.775 128.478,382.675 128.095 C 382.575 127.713,382.496 128.120,382.501 129.000 M154.800 133.079 C 145.477 136.432,140.024 141.991,138.984 149.200 C 138.841 150.190,138.471 151.523,138.162 152.161 C 137.853 152.800,137.600 153.621,137.600 153.985 C 137.600 154.349,137.336 154.996,137.013 155.424 C 136.690 155.851,136.420 156.774,136.413 157.476 C 136.406 158.178,136.220 158.864,136.000 159.000 C 135.780 159.136,135.600 159.743,135.600 160.348 C 135.600 160.954,135.240 161.836,134.800 162.308 C 134.360 162.780,134.000 163.613,134.000 164.160 C 134.000 164.706,133.820 165.264,133.600 165.400 C 133.380 165.536,133.200 166.256,133.200 167.000 C 133.200 167.744,133.044 168.449,132.853 168.568 C 132.661 168.686,132.388 169.513,132.245 170.406 C 132.103 171.300,131.719 172.133,131.393 172.258 C 131.033 172.396,130.800 173.010,130.800 173.819 C 130.800 174.553,130.620 175.264,130.400 175.400 C 130.180 175.536,130.000 176.141,130.000 176.744 C 130.000 177.347,129.784 178.056,129.520 178.320 C 129.147 178.693,143.747 178.800,195.223 178.800 C 237.967 178.800,261.897 178.941,262.794 179.198 C 268.161 180.738,272.780 180.047,271.654 177.873 C 271.232 177.058,269.563 172.116,268.792 169.400 C 268.604 168.740,267.620 165.860,266.604 163.000 C 265.588 160.140,264.388 156.630,263.937 155.200 C 263.486 153.770,262.975 152.240,262.801 151.800 C 262.627 151.360,262.176 150.100,261.799 149.000 C 258.990 140.800,253.930 135.761,246.131 133.395 C 244.201 132.809,156.394 132.505,154.800 133.079 M381.600 135.600 C 381.600 136.480,381.671 137.200,381.758 137.200 C 381.845 137.200,381.985 136.480,382.069 135.600 C 382.152 134.720,382.081 134.000,381.911 134.000 C 381.740 134.000,381.600 134.720,381.600 135.600 M239.660 141.500 C 239.935 141.775,240.456 142.000,240.819 142.000 C 241.683 142.000,243.785 143.059,244.407 143.808 C 244.677 144.134,245.062 144.400,245.262 144.400 C 245.825 144.400,248.400 147.107,248.400 147.698 C 248.400 147.987,248.760 148.483,249.200 148.800 C 249.640 149.117,250.000 149.579,250.000 149.826 C 250.000 150.074,250.360 150.602,250.800 151.000 C 251.240 151.398,251.600 152.135,251.600 152.638 C 251.600 153.141,251.780 153.664,252.000 153.800 C 252.220 153.936,252.400 154.476,252.400 155.000 C 252.400 155.524,252.580 156.064,252.800 156.200 C 253.020 156.336,253.200 156.876,253.200 157.400 C 253.200 157.924,253.380 158.464,253.600 158.600 C 253.820 158.736,254.000 159.276,254.000 159.800 C 254.000 160.324,254.180 160.864,254.400 161.000 C 254.620 161.136,254.800 161.676,254.800 162.200 C 254.800 162.724,254.980 163.264,255.200 163.400 C 255.420 163.536,255.600 164.076,255.600 164.600 C 255.600 165.124,255.780 165.664,256.000 165.800 C 256.220 165.936,256.400 166.476,256.400 167.000 C 256.400 167.524,256.580 168.064,256.800 168.200 C 257.020 168.336,257.200 168.876,257.200 169.400 C 257.200 169.924,257.380 170.464,257.600 170.600 C 257.820 170.736,258.000 171.199,258.000 171.629 C 258.000 172.059,258.159 172.723,258.353 173.105 C 259.407 175.176,259.658 175.971,259.536 176.840 L 259.400 177.800 195.300 177.901 L 131.200 178.002 131.200 176.625 C 131.200 175.867,131.380 175.136,131.600 175.000 C 131.820 174.864,132.000 174.324,132.000 173.800 C 132.000 173.276,132.180 172.736,132.400 172.600 C 132.620 172.464,132.800 171.924,132.800 171.400 C 132.800 170.876,132.980 170.336,133.200 170.200 C 133.420 170.064,133.600 169.524,133.600 169.000 C 133.600 168.476,133.780 167.936,134.000 167.800 C 134.220 167.664,134.400 167.124,134.400 166.600 C 134.400 166.076,134.580 165.536,134.800 165.400 C 135.020 165.264,135.200 164.713,135.200 164.176 C 135.200 163.639,135.380 163.200,135.600 163.200 C 135.820 163.200,136.000 162.761,136.000 162.224 C 136.000 161.687,136.180 161.136,136.400 161.000 C 136.620 160.864,136.800 160.324,136.800 159.800 C 136.800 159.276,136.980 158.736,137.200 158.600 C 137.420 158.464,137.600 157.924,137.600 157.400 C 137.600 156.876,137.780 156.336,138.000 156.200 C 138.220 156.064,138.400 155.524,138.400 155.000 C 138.400 154.476,138.580 153.936,138.800 153.800 C 139.020 153.664,139.200 153.124,139.200 152.600 C 139.200 152.076,139.375 151.539,139.589 151.407 C 139.803 151.274,140.282 150.499,140.652 149.683 C 141.393 148.050,144.698 144.400,145.436 144.400 C 145.692 144.400,146.123 144.134,146.393 143.808 C 147.015 143.059,149.117 142.000,149.981 142.000 C 150.344 142.000,150.811 141.835,151.020 141.634 C 151.751 140.930,153.699 140.901,196.280 140.950 C 229.997 140.989,239.267 141.107,239.660 141.500 M380.914 142.600 C 380.917 143.700,380.995 144.103,381.087 143.495 C 381.179 142.886,381.177 141.986,381.082 141.495 C 380.987 141.003,380.911 141.500,380.914 142.600 M380.032 148.300 C 380.066 150.391,380.261 150.222,380.491 147.900 C 380.572 147.075,380.496 146.400,380.320 146.400 C 380.144 146.400,380.014 147.255,380.032 148.300 M379.467 151.067 C 379.320 151.213,379.223 152.068,379.250 152.967 L 379.300 154.600 379.599 152.800 C 379.916 150.896,379.896 150.638,379.467 151.067 M378.440 157.420 L 378.480 159.400 378.849 157.829 C 379.090 156.801,379.076 156.116,378.809 155.849 C 378.530 155.570,378.413 156.072,378.440 157.420 M273.300 158.500 C 273.421 158.865,275.072 159.021,279.433 159.079 C 285.170 159.155,285.323 159.136,283.400 158.596 C 280.788 157.863,273.063 157.790,273.300 158.500 M377.647 162.300 C 377.690 163.996,377.727 164.071,378.000 163.000 C 378.450 161.231,378.450 160.400,378.000 160.400 C 377.780 160.400,377.621 161.255,377.647 162.300 M376.800 166.600 C 376.800 167.590,376.620 168.400,376.400 168.400 C 376.180 168.400,376.000 169.210,376.000 170.200 C 376.000 171.190,375.856 172.000,375.679 172.000 C 375.503 172.000,375.188 173.333,374.979 174.962 C 374.598 177.938,374.956 178.864,375.414 176.086 C 375.549 175.269,375.990 173.160,376.394 171.400 C 377.516 166.522,377.735 164.800,377.235 164.800 C 376.986 164.800,376.800 165.570,376.800 166.600 M374.292 178.642 C 374.131 178.802,374.011 179.398,374.025 179.967 L 374.051 181.000 374.437 180.034 C 374.853 178.994,374.767 178.167,374.292 178.642 M294.800 180.200 C 294.800 180.750,294.626 181.200,294.413 181.200 C 294.201 181.200,293.436 181.785,292.713 182.500 C 291.229 183.969,289.520 185.169,287.900 185.879 C 286.392 186.540,286.509 186.962,288.600 188.400 C 289.590 189.081,290.401 189.855,290.402 190.119 C 290.404 190.741,292.430 188.530,293.168 187.100 C 293.480 186.495,293.885 186.000,294.068 186.000 C 294.250 186.000,294.400 185.586,294.400 185.080 C 294.400 184.574,294.557 183.989,294.748 183.780 C 295.258 183.225,295.638 179.200,295.181 179.200 C 294.972 179.200,294.800 179.650,294.800 180.200 M373.496 182.133 C 373.333 182.536,373.211 183.346,373.225 183.933 L 373.251 185.000 373.643 184.019 C 373.858 183.479,373.980 182.669,373.914 182.219 C 373.801 181.459,373.771 181.453,373.496 182.133 M372.643 185.833 C 372.509 186.181,372.400 186.890,372.400 187.409 C 372.400 187.928,372.220 188.464,372.000 188.600 C 371.780 188.736,371.600 189.467,371.600 190.224 C 371.600 190.981,371.420 191.600,371.200 191.600 C 370.980 191.600,370.800 192.219,370.800 192.976 C 370.800 193.733,370.620 194.464,370.400 194.600 C 370.180 194.736,370.000 195.229,370.000 195.695 C 370.000 196.596,369.335 198.939,368.751 200.095 C 368.558 200.477,368.400 201.141,368.400 201.571 C 368.400 202.001,368.220 202.464,368.000 202.600 C 367.780 202.736,367.600 203.366,367.600 204.000 C 367.600 204.634,367.420 205.264,367.200 205.400 C 366.980 205.536,366.800 206.177,366.800 206.824 C 366.800 207.471,366.620 208.000,366.400 208.000 C 366.180 208.000,366.000 208.540,366.000 209.200 C 366.000 209.860,365.820 210.400,365.600 210.400 C 365.380 210.400,365.200 210.940,365.200 211.600 C 365.200 212.260,365.020 212.800,364.800 212.800 C 364.580 212.800,364.400 213.239,364.400 213.776 C 364.400 214.313,364.220 214.864,364.000 215.000 C 363.780 215.136,363.600 215.676,363.600 216.200 C 363.600 216.724,363.420 217.264,363.200 217.400 C 362.980 217.536,362.800 218.087,362.800 218.624 C 362.800 219.161,362.620 219.600,362.400 219.600 C 362.180 219.600,362.000 220.140,362.000 220.800 C 362.000 221.460,361.820 222.000,361.600 222.000 C 361.380 222.000,361.200 222.439,361.200 222.976 C 361.200 223.513,361.020 224.064,360.800 224.200 C 360.580 224.336,360.400 224.797,360.400 225.224 C 360.400 225.651,360.220 226.000,360.000 226.000 C 359.780 226.000,359.600 226.540,359.600 227.200 C 359.600 227.860,359.459 228.400,359.287 228.400 C 359.115 228.400,358.726 229.255,358.422 230.300 C 358.118 231.345,357.763 232.290,357.633 232.400 C 357.503 232.510,357.047 233.680,356.620 235.000 C 356.192 236.320,355.358 238.480,354.767 239.800 C 354.175 241.120,353.380 242.920,353.002 243.800 C 352.623 244.680,352.062 245.923,351.756 246.561 C 351.450 247.200,351.200 247.965,351.200 248.261 C 351.200 248.558,351.020 248.800,350.800 248.800 C 350.580 248.800,350.400 249.052,350.400 249.359 C 350.400 249.667,349.860 250.945,349.200 252.200 C 348.540 253.455,348.000 254.733,348.000 255.041 C 348.000 255.348,347.820 255.600,347.600 255.600 C 347.380 255.600,347.200 255.960,347.200 256.400 C 347.200 256.840,347.020 257.200,346.800 257.200 C 346.580 257.200,346.400 257.560,346.400 258.000 C 346.400 258.440,346.220 258.800,346.000 258.800 C 345.780 258.800,345.600 259.160,345.600 259.600 C 345.600 260.040,345.420 260.400,345.200 260.400 C 344.980 260.400,344.800 260.760,344.800 261.200 C 344.800 261.640,344.620 262.000,344.400 262.000 C 344.180 262.000,344.000 262.360,344.000 262.800 C 344.000 263.240,343.864 263.600,343.698 263.600 C 343.531 263.600,343.141 264.185,342.830 264.900 C 342.519 265.615,342.160 266.290,342.032 266.400 C 341.904 266.510,340.737 268.670,339.438 271.200 C 338.139 273.730,336.744 276.278,336.338 276.862 C 335.932 277.446,335.600 278.043,335.600 278.190 C 335.600 278.336,335.060 279.241,334.400 280.200 C 333.740 281.159,333.200 282.059,333.200 282.200 C 333.200 282.341,332.660 283.241,332.000 284.200 C 331.340 285.159,330.800 286.137,330.800 286.372 C 330.800 286.607,330.620 286.800,330.400 286.800 C 330.180 286.800,330.000 287.036,330.000 287.325 C 330.000 287.613,329.685 288.198,329.300 288.625 C 328.915 289.051,328.345 289.895,328.032 290.500 C 327.720 291.105,327.315 291.600,327.132 291.600 C 326.950 291.600,326.800 291.836,326.800 292.125 C 326.800 292.413,326.440 293.036,326.000 293.508 C 325.560 293.980,325.200 294.520,325.200 294.708 C 325.200 294.896,324.885 295.398,324.500 295.825 C 324.115 296.251,323.565 297.050,323.279 297.600 C 322.827 298.466,318.082 305.080,316.678 306.800 C 316.409 307.130,315.750 308.030,315.214 308.800 C 314.677 309.570,314.139 310.290,314.017 310.400 C 313.895 310.510,313.322 311.230,312.743 312.000 C 312.164 312.770,311.355 313.781,310.945 314.247 C 310.535 314.712,309.750 315.681,309.200 316.400 C 308.650 317.119,307.930 318.027,307.600 318.420 C 307.270 318.812,306.730 319.463,306.399 319.866 C 303.460 323.454,302.081 325.096,301.400 325.821 C 300.960 326.289,298.980 328.440,297.000 330.601 C 290.331 337.880,280.249 347.697,274.400 352.608 C 270.754 355.670,270.082 356.244,267.400 358.597 C 259.707 365.347,229.391 386.000,227.177 386.000 C 226.970 386.000,226.800 386.159,226.800 386.353 C 226.800 386.548,226.485 386.812,226.100 386.941 C 225.715 387.070,224.140 387.897,222.600 388.778 C 221.060 389.659,215.602 392.499,210.471 395.090 L 201.143 399.800 207.624 399.910 C 213.821 400.015,216.400 399.660,216.400 398.702 C 216.400 398.536,216.745 398.400,217.167 398.400 C 217.588 398.400,217.993 398.258,218.067 398.085 C 218.140 397.912,219.232 397.271,220.492 396.660 C 221.753 396.049,222.881 395.392,223.000 395.200 C 223.119 395.008,224.247 394.359,225.508 393.757 C 226.768 393.155,228.112 392.399,228.493 392.076 C 229.195 391.481,231.262 390.319,234.235 388.848 C 235.134 388.404,236.101 387.761,236.384 387.420 C 236.666 387.079,237.118 386.800,237.387 386.800 C 237.656 386.800,238.202 386.440,238.600 386.000 C 238.998 385.560,239.538 385.200,239.800 385.200 C 240.062 385.200,240.602 384.840,241.000 384.400 C 241.398 383.960,241.938 383.600,242.200 383.600 C 242.462 383.600,243.002 383.240,243.400 382.800 C 243.798 382.360,244.338 382.000,244.600 382.000 C 244.862 382.000,245.402 381.640,245.800 381.200 C 246.198 380.760,246.738 380.400,247.000 380.400 C 247.262 380.400,247.802 380.040,248.200 379.600 C 248.598 379.160,249.166 378.800,249.462 378.800 C 249.758 378.800,250.000 378.650,250.000 378.468 C 250.000 378.285,250.491 377.880,251.091 377.568 C 251.691 377.255,252.905 376.325,253.789 375.500 C 254.673 374.675,255.590 374.000,255.828 374.000 C 256.066 374.000,256.683 373.550,257.200 373.000 C 257.717 372.450,258.298 372.000,258.491 372.000 C 258.685 372.000,259.419 371.461,260.122 370.802 C 260.825 370.143,261.553 369.603,261.740 369.602 C 261.926 369.601,262.583 369.060,263.200 368.400 C 263.817 367.740,264.529 367.200,264.783 367.200 C 265.037 367.200,266.304 366.120,267.600 364.800 C 268.896 363.480,270.106 362.400,270.290 362.400 C 270.474 362.400,271.694 361.320,273.000 360.000 C 274.306 358.680,275.559 357.600,275.785 357.600 C 276.264 357.600,297.600 336.361,297.600 335.883 C 297.600 335.706,298.860 334.319,300.400 332.800 C 301.940 331.281,303.200 329.849,303.200 329.618 C 303.200 329.386,304.009 328.343,304.998 327.299 C 305.987 326.254,306.797 325.197,306.798 324.948 C 306.799 324.700,307.520 323.865,308.400 323.094 C 309.280 322.322,310.000 321.535,310.000 321.343 C 310.000 321.152,310.720 320.231,311.600 319.297 C 312.480 318.363,313.200 317.445,313.200 317.259 C 313.200 317.072,313.695 316.394,314.300 315.752 C 314.905 315.111,315.655 314.094,315.968 313.493 C 316.280 312.892,316.685 312.400,316.868 312.400 C 317.050 312.400,317.200 312.164,317.200 311.875 C 317.200 311.586,317.740 310.832,318.400 310.200 C 319.060 309.568,319.600 308.845,319.600 308.595 C 319.600 308.344,320.069 307.703,320.642 307.170 C 321.216 306.636,321.854 305.840,322.060 305.400 C 322.664 304.110,323.427 302.857,324.068 302.103 C 324.397 301.716,324.963 300.750,325.326 299.955 C 325.688 299.160,326.259 298.283,326.593 298.006 C 326.927 297.729,327.200 297.282,327.200 297.013 C 327.200 296.744,327.560 296.198,328.000 295.800 C 328.440 295.402,328.800 294.856,328.800 294.587 C 328.800 294.318,329.079 293.866,329.420 293.584 C 329.761 293.301,330.390 292.300,330.819 291.359 C 331.247 290.418,331.779 289.537,332.000 289.400 C 332.221 289.263,332.761 288.363,333.200 287.400 C 333.639 286.437,334.173 285.541,334.386 285.409 C 334.599 285.277,335.326 284.013,336.000 282.600 C 336.674 281.187,337.401 279.923,337.614 279.791 C 337.827 279.659,338.368 278.707,338.815 277.676 C 339.262 276.644,339.838 275.440,340.094 275.000 C 341.419 272.727,350.800 253.760,350.800 253.354 C 350.800 253.094,351.340 251.855,352.000 250.600 C 352.660 249.345,353.200 248.084,353.200 247.797 C 353.200 247.161,354.882 243.852,355.300 243.667 C 355.465 243.593,355.600 243.109,355.600 242.590 C 355.600 242.072,355.780 241.536,356.000 241.400 C 356.220 241.264,356.401 240.758,356.402 240.276 C 356.404 239.794,356.674 238.884,357.002 238.254 C 357.331 237.624,357.600 236.865,357.600 236.566 C 357.600 236.268,357.960 235.383,358.400 234.600 C 358.840 233.817,359.200 232.832,359.200 232.411 C 359.200 231.991,359.355 231.551,359.545 231.434 C 359.735 231.317,360.120 230.401,360.400 229.400 C 360.680 228.399,361.065 227.483,361.255 227.366 C 361.445 227.249,361.600 226.724,361.600 226.200 C 361.600 225.676,361.780 225.136,362.000 225.000 C 362.220 224.864,362.400 224.324,362.400 223.800 C 362.400 223.276,362.580 222.736,362.800 222.600 C 363.020 222.464,363.200 221.924,363.200 221.400 C 363.200 220.876,363.380 220.336,363.600 220.200 C 363.820 220.064,364.000 219.513,364.000 218.976 C 364.000 218.439,364.180 218.000,364.400 218.000 C 364.620 218.000,364.800 217.561,364.800 217.024 C 364.800 216.487,364.980 215.936,365.200 215.800 C 365.420 215.664,365.600 215.124,365.600 214.600 C 365.600 214.076,365.780 213.536,366.000 213.400 C 366.220 213.264,366.400 212.544,366.400 211.800 C 366.400 211.056,366.580 210.336,366.800 210.200 C 367.020 210.064,367.200 209.524,367.200 209.000 C 367.200 208.476,367.380 207.936,367.600 207.800 C 367.820 207.664,368.000 206.944,368.000 206.200 C 368.000 205.456,368.180 204.736,368.400 204.600 C 368.620 204.464,368.800 203.924,368.800 203.400 C 368.800 202.876,368.980 202.336,369.200 202.200 C 369.420 202.064,369.600 201.571,369.600 201.105 C 369.600 200.638,369.768 199.704,369.973 199.028 C 370.178 198.353,370.569 196.990,370.842 196.000 C 371.116 195.010,371.488 194.029,371.670 193.820 C 371.851 193.611,372.000 192.882,372.000 192.200 C 372.000 191.518,372.157 190.789,372.348 190.580 C 372.691 190.206,373.332 185.200,373.037 185.200 C 372.954 185.200,372.776 185.485,372.643 185.833 M127.065 201.779 C 121.904 203.901,119.682 207.161,119.417 213.000 C 119.327 214.980,119.344 216.060,119.455 215.400 C 120.006 212.129,127.303 207.501,128.600 209.600 C 128.736 209.820,129.197 210.000,129.624 210.000 C 130.051 210.000,130.400 210.180,130.400 210.400 C 130.400 210.620,130.639 210.800,130.930 210.800 C 132.244 210.800,135.200 215.546,135.200 217.656 C 135.200 220.025,132.346 223.428,129.102 224.928 C 126.439 226.160,127.897 227.200,132.287 227.200 C 147.536 227.200,150.097 205.557,135.354 201.278 C 132.744 200.520,129.675 200.706,127.065 201.779 M264.175 201.547 C 261.106 202.595,257.200 205.853,257.200 207.366 C 257.200 207.689,257.039 208.052,256.842 208.174 C 256.506 208.382,256.294 209.411,255.747 213.500 C 255.489 215.431,256.186 215.887,256.589 214.050 C 257.267 210.964,262.564 208.463,265.651 209.772 C 272.904 212.847,273.161 221.604,266.093 224.844 C 263.205 226.168,264.270 227.202,268.514 227.194 C 273.406 227.185,276.347 225.801,279.104 222.209 C 286.926 212.021,276.355 197.390,264.175 201.547 M161.600 207.884 C 159.659 208.598,158.977 210.942,160.230 212.600 C 161.001 213.621,237.772 214.307,239.494 213.308 C 241.256 212.286,241.055 209.069,239.168 208.106 C 238.176 207.599,162.959 207.384,161.600 207.884 M167.454 222.029 C 166.185 223.027,166.028 225.048,167.120 226.308 C 167.837 227.135,168.000 227.139,200.183 227.235 L 232.526 227.332 233.263 226.422 C 234.281 225.164,234.185 223.881,232.964 222.431 L 231.929 221.200 200.218 221.200 C 168.743 221.200,168.500 221.206,167.454 222.029 M295.600 238.154 C 295.600 239.455,293.415 242.400,292.450 242.400 C 292.239 242.400,292.007 242.543,291.933 242.717 C 291.860 242.891,291.157 243.427,290.370 243.906 C 288.942 244.777,288.941 244.780,289.241 246.889 C 289.406 248.050,289.555 249.309,289.571 249.687 C 289.621 250.868,292.800 249.002,292.800 247.792 C 292.800 247.535,293.160 246.998,293.600 246.600 C 294.040 246.202,294.400 245.490,294.400 245.018 C 294.400 244.546,294.555 243.989,294.744 243.780 C 294.933 243.571,295.279 242.410,295.514 241.200 C 295.748 239.990,296.063 238.685,296.213 238.300 C 296.372 237.891,296.302 237.600,296.043 237.600 C 295.799 237.600,295.600 237.849,295.600 238.154 M145.888 253.445 C 145.460 253.874,145.539 256.427,146.077 259.566 L 146.554 262.347 150.177 262.559 C 173.555 263.928,217.028 263.927,240.700 262.557 L 244.400 262.343 244.400 268.548 C 244.400 272.253,244.561 274.852,244.800 275.000 C 245.020 275.136,245.200 275.867,245.200 276.624 C 245.200 277.381,245.380 278.000,245.600 278.000 C 245.820 278.000,246.000 278.241,246.000 278.536 C 246.000 279.293,249.395 282.800,250.127 282.800 C 250.460 282.800,250.808 283.025,250.900 283.300 C 251.030 283.689,254.569 283.800,266.800 283.800 C 279.031 283.800,282.570 283.689,282.700 283.300 C 282.792 283.025,283.136 282.800,283.464 282.800 C 284.268 282.800,287.058 279.739,287.839 278.000 C 288.184 277.230,288.632 276.287,288.834 275.905 C 289.804 274.066,289.021 272.011,287.923 273.516 C 286.130 275.973,285.960 276.001,272.538 275.991 C 258.333 275.981,257.765 275.871,255.724 272.730 L 254.600 271.000 254.400 262.200 L 254.200 253.400 253.200 253.479 C 247.709 253.915,239.468 254.493,234.400 254.797 C 226.371 255.279,174.524 255.277,166.200 254.794 C 153.945 254.083,148.194 253.665,147.188 253.412 C 146.631 253.272,146.046 253.287,145.888 253.445 " stroke="none" fill="#0c0c0c" fill-rule="evenodd"></path><path id="path1" d="M196.749 2.055 C 192.525 6.222,188.357 9.752,185.000 12.005 C 183.900 12.743,182.910 13.455,182.800 13.587 C 181.796 14.792,161.542 28.127,159.900 28.664 C 159.515 28.790,159.200 29.052,159.200 29.247 C 159.200 29.441,159.017 29.600,158.793 29.600 C 158.569 29.600,157.200 30.320,155.752 31.200 C 154.303 32.080,153.053 32.800,152.973 32.800 C 152.893 32.800,151.054 33.866,148.884 35.169 C 144.273 37.938,128.539 46.000,127.744 46.000 C 127.445 46.000,127.200 46.180,127.200 46.400 C 127.200 46.620,126.960 46.800,126.666 46.800 C 126.372 46.800,124.807 47.445,123.188 48.233 C 121.569 49.021,119.154 50.076,117.822 50.577 C 116.490 51.079,114.500 51.893,113.400 52.387 C 109.479 54.147,107.711 54.875,105.600 55.600 C 103.907 56.182,102.440 56.771,101.505 57.247 C 101.123 57.441,100.448 57.600,100.005 57.600 C 99.562 57.600,99.200 57.780,99.200 58.000 C 99.200 58.220,98.838 58.400,98.395 58.400 C 97.952 58.400,97.232 58.580,96.795 58.800 C 96.358 59.020,95.642 59.380,95.205 59.600 C 94.768 59.820,94.136 60.000,93.800 60.000 C 93.464 60.000,92.877 60.162,92.495 60.361 C 92.113 60.560,90.990 60.937,90.000 61.200 C 89.010 61.463,87.887 61.840,87.505 62.039 C 87.123 62.238,86.536 62.400,86.200 62.400 C 85.864 62.400,85.277 62.565,84.895 62.766 C 84.159 63.154,79.685 64.509,77.000 65.158 C 76.120 65.371,73.960 65.931,72.200 66.404 C 70.440 66.877,68.325 67.429,67.500 67.632 C 66.675 67.834,65.235 68.191,64.300 68.425 C 62.085 68.979,59.006 69.585,57.000 69.861 C 56.120 69.983,55.229 70.244,55.020 70.441 C 54.811 70.638,53.877 70.800,52.944 70.800 C 52.011 70.800,51.136 70.980,51.000 71.200 C 50.864 71.420,49.964 71.600,49.000 71.600 C 48.036 71.600,47.136 71.780,47.000 72.000 C 46.864 72.220,45.604 72.400,44.200 72.400 C 42.796 72.400,41.536 72.580,41.400 72.800 C 41.264 73.020,39.914 73.200,38.400 73.200 C 36.886 73.200,35.536 73.380,35.400 73.600 C 35.264 73.820,34.004 74.000,32.600 74.000 C 31.196 74.000,29.936 74.180,29.800 74.400 C 29.664 74.620,27.954 74.800,26.000 74.800 C 24.046 74.800,22.336 74.980,22.200 75.200 C 22.064 75.420,20.703 75.600,19.176 75.600 L 16.400 75.600 16.400 92.277 C 16.400 101.449,16.572 110.944,16.783 113.377 C 16.993 115.809,17.367 120.320,17.613 123.400 C 17.859 126.480,18.214 130.080,18.403 131.400 C 18.591 132.720,18.948 135.690,19.196 138.000 C 19.443 140.310,19.812 143.190,20.016 144.400 C 21.186 151.365,22.141 157.169,22.765 161.100 C 23.311 164.540,28.219 186.327,29.635 191.600 C 31.347 197.970,31.424 198.245,32.400 201.400 C 32.876 202.940,33.406 204.740,33.578 205.400 C 35.032 211.001,43.633 234.551,46.568 240.968 C 47.136 242.209,47.600 243.303,47.600 243.400 C 47.600 243.576,48.713 246.086,50.794 250.600 C 53.301 256.041,57.046 263.612,58.806 266.800 C 59.839 268.670,61.401 271.550,62.278 273.200 C 66.279 280.727,75.563 295.445,80.951 302.800 C 82.482 304.890,84.458 307.590,85.343 308.800 C 88.130 312.613,98.615 325.292,101.895 328.818 C 103.626 330.678,106.113 333.370,107.421 334.800 C 109.675 337.264,122.263 349.439,124.400 351.222 C 124.950 351.681,125.850 352.452,126.400 352.935 C 137.059 362.293,165.219 382.800,167.412 382.800 C 167.483 382.800,169.008 383.700,170.800 384.800 C 172.592 385.900,174.153 386.800,174.268 386.800 C 174.383 386.800,174.954 387.140,175.538 387.556 C 177.304 388.812,199.425 400.000,200.144 400.000 C 200.813 400.000,220.203 390.282,223.600 388.245 C 224.590 387.651,225.715 387.062,226.100 386.936 C 226.485 386.810,226.800 386.548,226.800 386.353 C 226.800 386.159,226.970 386.000,227.177 386.000 C 229.391 386.000,259.707 365.347,267.400 358.597 C 270.082 356.244,270.754 355.670,274.400 352.608 C 280.249 347.697,290.331 337.880,297.000 330.601 C 298.980 328.440,300.960 326.289,301.400 325.821 C 302.081 325.096,303.460 323.454,306.399 319.866 C 306.730 319.463,307.270 318.812,307.600 318.420 C 307.930 318.027,308.650 317.119,309.200 316.400 C 309.750 315.681,310.535 314.712,310.945 314.247 C 311.355 313.781,312.164 312.770,312.743 312.000 C 313.322 311.230,313.895 310.510,314.017 310.400 C 314.139 310.290,314.677 309.570,315.214 308.800 C 315.750 308.030,316.409 307.130,316.678 306.800 C 318.082 305.080,322.827 298.466,323.279 297.600 C 323.565 297.050,324.115 296.251,324.500 295.825 C 324.885 295.398,325.200 294.813,325.200 294.525 C 325.200 294.236,325.350 294.000,325.532 294.000 C 325.715 294.000,326.120 293.505,326.432 292.900 C 326.745 292.295,327.315 291.451,327.700 291.025 C 328.085 290.598,328.400 290.096,328.400 289.908 C 328.400 289.720,328.760 289.180,329.200 288.708 C 329.640 288.236,330.000 287.613,330.000 287.325 C 330.000 287.036,330.180 286.800,330.400 286.800 C 330.620 286.800,330.800 286.607,330.800 286.372 C 330.800 286.137,331.340 285.159,332.000 284.200 C 332.660 283.241,333.200 282.341,333.200 282.200 C 333.200 282.059,333.740 281.159,334.400 280.200 C 335.060 279.241,335.600 278.336,335.600 278.190 C 335.600 278.043,335.932 277.446,336.338 276.862 C 336.744 276.278,338.139 273.730,339.438 271.200 C 340.737 268.670,341.904 266.510,342.032 266.400 C 342.160 266.290,342.519 265.615,342.830 264.900 C 343.141 264.185,343.531 263.600,343.698 263.600 C 343.864 263.600,344.000 263.240,344.000 262.800 C 344.000 262.360,344.180 262.000,344.400 262.000 C 344.620 262.000,344.800 261.640,344.800 261.200 C 344.800 260.760,344.980 260.400,345.200 260.400 C 345.420 260.400,345.600 260.040,345.600 259.600 C 345.600 259.160,345.780 258.800,346.000 258.800 C 346.220 258.800,346.400 258.440,346.400 258.000 C 346.400 257.560,346.580 257.200,346.800 257.200 C 347.020 257.200,347.200 256.840,347.200 256.400 C 347.200 255.960,347.380 255.600,347.600 255.600 C 347.820 255.600,348.000 255.348,348.000 255.041 C 348.000 254.733,348.540 253.455,349.200 252.200 C 349.860 250.945,350.400 249.667,350.400 249.359 C 350.400 249.052,350.580 248.800,350.800 248.800 C 351.020 248.800,351.200 248.558,351.200 248.261 C 351.200 247.965,351.450 247.200,351.756 246.561 C 352.062 245.923,352.623 244.680,353.002 243.800 C 353.380 242.920,354.175 241.120,354.767 239.800 C 355.358 238.480,356.192 236.320,356.620 235.000 C 357.047 233.680,357.503 232.510,357.633 232.400 C 357.763 232.290,358.118 231.345,358.422 230.300 C 358.726 229.255,359.115 228.400,359.287 228.400 C 359.459 228.400,359.600 227.860,359.600 227.200 C 359.600 226.540,359.780 226.000,360.000 226.000 C 360.220 226.000,360.400 225.651,360.400 225.224 C 360.400 224.797,360.580 224.336,360.800 224.200 C 361.020 224.064,361.200 223.513,361.200 222.976 C 361.200 222.439,361.380 222.000,361.600 222.000 C 361.820 222.000,362.000 221.460,362.000 220.800 C 362.000 220.140,362.180 219.600,362.400 219.600 C 362.620 219.600,362.800 219.161,362.800 218.624 C 362.800 218.087,362.980 217.536,363.200 217.400 C 363.420 217.264,363.600 216.724,363.600 216.200 C 363.600 215.676,363.780 215.136,364.000 215.000 C 364.220 214.864,364.400 214.313,364.400 213.776 C 364.400 213.239,364.580 212.800,364.800 212.800 C 365.020 212.800,365.200 212.260,365.200 211.600 C 365.200 210.940,365.380 210.400,365.600 210.400 C 365.820 210.400,366.000 209.860,366.000 209.200 C 366.000 208.540,366.180 208.000,366.400 208.000 C 366.620 208.000,366.800 207.471,366.800 206.824 C 366.800 206.177,366.980 205.536,367.200 205.400 C 367.420 205.264,367.600 204.634,367.600 204.000 C 367.600 203.366,367.780 202.736,368.000 202.600 C 368.220 202.464,368.400 202.001,368.400 201.571 C 368.400 201.141,368.558 200.477,368.751 200.095 C 369.335 198.939,370.000 196.596,370.000 195.695 C 370.000 195.229,370.180 194.736,370.400 194.600 C 370.620 194.464,370.800 193.733,370.800 192.976 C 370.800 192.219,370.980 191.600,371.200 191.600 C 371.420 191.600,371.600 190.981,371.600 190.224 C 371.600 189.467,371.760 188.748,371.956 188.627 C 372.151 188.506,372.412 187.821,372.534 187.104 C 372.656 186.387,372.954 184.900,373.196 183.800 C 373.438 182.700,373.731 181.260,373.848 180.600 C 373.964 179.940,374.165 179.130,374.295 178.800 C 374.425 178.470,374.561 178.110,374.598 178.000 C 374.635 177.890,374.809 176.495,374.984 174.900 C 375.160 173.305,375.460 172.000,375.652 172.000 C 375.843 172.000,376.000 171.190,376.000 170.200 C 376.000 169.210,376.180 168.400,376.400 168.400 C 376.620 168.400,376.800 167.590,376.800 166.600 C 376.800 165.610,376.980 164.800,377.200 164.800 C 377.420 164.800,377.600 163.810,377.600 162.600 C 377.600 161.390,377.780 160.400,378.000 160.400 C 378.223 160.400,378.400 159.325,378.400 157.976 C 378.400 156.463,378.550 155.646,378.800 155.800 C 379.050 155.954,379.200 155.145,379.200 153.647 C 379.200 152.327,379.380 151.136,379.600 151.000 C 379.820 150.864,380.000 149.773,380.000 148.576 C 380.000 147.379,380.180 146.400,380.400 146.400 C 380.629 146.400,380.800 145.200,380.800 143.600 C 380.800 142.000,380.971 140.800,381.200 140.800 C 381.435 140.800,381.600 139.400,381.600 137.400 C 381.600 135.400,381.765 134.000,382.000 134.000 C 382.233 134.000,382.400 132.667,382.400 130.800 C 382.400 128.933,382.567 127.600,382.800 127.600 C 383.044 127.600,383.200 125.741,383.200 122.824 C 383.200 120.071,383.369 117.942,383.600 117.800 C 383.843 117.650,384.000 114.729,384.000 110.376 C 384.000 105.859,384.148 103.200,384.400 103.200 C 384.654 103.200,384.800 100.075,384.800 94.624 C 384.800 89.337,384.647 85.952,384.400 85.800 C 384.168 85.657,384.000 83.474,384.000 80.610 C 384.000 75.019,384.135 75.228,380.700 75.508 C 379.157 75.634,378.400 75.549,378.400 75.248 C 378.400 74.949,377.139 74.800,374.600 74.800 C 372.333 74.800,370.800 74.639,370.800 74.400 C 370.800 74.171,369.600 74.000,368.000 74.000 C 366.400 74.000,365.200 73.829,365.200 73.600 C 365.200 73.372,364.008 73.200,362.424 73.200 C 360.897 73.200,359.536 73.020,359.400 72.800 C 359.264 72.580,357.903 72.400,356.376 72.400 C 354.792 72.400,353.600 72.228,353.600 72.000 C 353.600 71.780,352.801 71.600,351.824 71.600 C 350.847 71.600,349.936 71.420,349.800 71.200 C 349.664 70.980,348.753 70.800,347.776 70.800 C 346.799 70.800,346.000 70.620,346.000 70.400 C 346.000 70.180,345.190 70.000,344.200 70.000 C 343.210 70.000,342.400 69.820,342.400 69.600 C 342.400 69.380,341.500 69.200,340.400 69.200 C 339.300 69.200,338.400 69.020,338.400 68.800 C 338.400 68.580,337.691 68.400,336.824 68.400 C 335.957 68.400,335.136 68.220,335.000 68.000 C 334.864 67.780,334.234 67.600,333.600 67.600 C 332.966 67.600,332.336 67.420,332.200 67.200 C 332.064 66.980,331.333 66.800,330.576 66.800 C 329.819 66.800,329.200 66.620,329.200 66.400 C 329.200 66.180,328.480 66.000,327.600 66.000 C 326.720 66.000,326.000 65.820,326.000 65.600 C 326.000 65.380,325.381 65.200,324.624 65.200 C 323.867 65.200,323.136 65.020,323.000 64.800 C 322.864 64.580,322.234 64.400,321.600 64.400 C 320.966 64.400,320.336 64.220,320.200 64.000 C 320.064 63.780,319.524 63.600,319.000 63.600 C 318.476 63.600,317.936 63.420,317.800 63.200 C 317.664 62.980,317.113 62.800,316.576 62.800 C 316.039 62.800,315.600 62.620,315.600 62.400 C 315.600 62.180,314.970 62.000,314.200 62.000 C 313.430 62.000,312.800 61.820,312.800 61.600 C 312.800 61.380,312.260 61.200,311.600 61.200 C 310.940 61.200,310.400 61.020,310.400 60.800 C 310.400 60.580,310.035 60.400,309.589 60.400 C 308.559 60.400,302.245 58.302,302.067 57.901 C 301.993 57.735,301.408 57.600,300.767 57.600 C 300.125 57.600,299.600 57.420,299.600 57.200 C 299.600 56.980,299.161 56.800,298.624 56.800 C 298.087 56.800,297.536 56.620,297.400 56.400 C 297.264 56.180,296.803 56.000,296.376 56.000 C 295.949 56.000,295.600 55.820,295.600 55.600 C 295.600 55.380,295.060 55.200,294.400 55.200 C 293.740 55.200,293.200 55.020,293.200 54.800 C 293.200 54.580,292.840 54.400,292.400 54.400 C 291.960 54.400,291.600 54.220,291.600 54.000 C 291.600 53.780,291.150 53.600,290.600 53.600 C 290.050 53.600,289.600 53.420,289.600 53.200 C 289.600 52.980,289.251 52.800,288.824 52.800 C 288.397 52.800,287.936 52.620,287.800 52.400 C 287.664 52.180,287.203 52.000,286.776 52.000 C 286.349 52.000,286.000 51.820,286.000 51.600 C 286.000 51.380,285.550 51.200,285.000 51.200 C 284.450 51.200,284.000 51.020,284.000 50.800 C 284.000 50.580,283.651 50.400,283.224 50.400 C 282.797 50.400,282.336 50.220,282.200 50.000 C 282.064 49.780,281.513 49.600,280.976 49.600 C 280.439 49.600,280.000 49.420,280.000 49.200 C 280.000 48.980,279.640 48.800,279.200 48.800 C 278.760 48.800,278.400 48.620,278.400 48.400 C 278.400 48.180,278.040 48.000,277.600 48.000 C 277.160 48.000,276.800 47.820,276.800 47.600 C 276.800 47.380,276.440 47.200,276.000 47.200 C 275.560 47.200,275.200 47.020,275.200 46.800 C 275.200 46.580,274.840 46.400,274.400 46.400 C 273.960 46.400,273.600 46.220,273.600 46.000 C 273.600 45.780,273.240 45.600,272.800 45.600 C 272.360 45.600,272.000 45.420,272.000 45.200 C 272.000 44.980,271.735 44.800,271.412 44.800 C 271.089 44.800,270.183 44.440,269.400 44.000 C 268.617 43.560,267.711 43.200,267.388 43.200 C 267.065 43.200,266.800 43.043,266.800 42.850 C 266.800 42.657,266.245 42.389,265.566 42.253 C 264.888 42.118,263.825 41.645,263.205 41.203 C 262.584 40.761,261.879 40.400,261.638 40.400 C 261.397 40.400,261.200 40.220,261.200 40.000 C 261.200 39.780,260.840 39.600,260.400 39.600 C 259.960 39.600,259.600 39.420,259.600 39.200 C 259.600 38.980,259.240 38.800,258.800 38.800 C 258.360 38.800,258.000 38.620,258.000 38.400 C 258.000 38.180,257.640 38.000,257.200 38.000 C 256.760 38.000,256.400 37.820,256.400 37.600 C 256.400 37.380,256.130 37.200,255.800 37.200 C 255.470 37.200,255.200 37.020,255.200 36.800 C 255.200 36.580,254.840 36.400,254.400 36.400 C 253.960 36.400,253.600 36.220,253.600 36.000 C 253.600 35.780,253.319 35.600,252.976 35.600 C 252.633 35.600,252.464 35.420,252.600 35.200 C 252.736 34.980,252.477 34.800,252.024 34.800 C 251.571 34.800,251.200 34.620,251.200 34.400 C 251.200 34.180,250.840 34.000,250.400 34.000 C 249.960 34.000,249.600 33.820,249.600 33.600 C 249.600 33.380,249.330 33.200,249.000 33.200 C 248.670 33.200,248.400 33.020,248.400 32.800 C 248.400 32.580,248.130 32.400,247.800 32.400 C 247.470 32.400,247.200 32.220,247.200 32.000 C 247.200 31.780,246.840 31.600,246.400 31.600 C 245.960 31.600,245.600 31.420,245.600 31.200 C 245.600 30.980,245.280 30.800,244.888 30.800 C 244.497 30.800,243.917 30.440,243.600 30.000 C 243.283 29.560,242.703 29.200,242.312 29.200 C 241.920 29.200,241.600 29.020,241.600 28.800 C 241.600 28.580,241.442 28.400,241.248 28.400 C 240.867 28.400,236.503 25.886,235.717 25.213 C 235.451 24.986,234.996 24.800,234.705 24.800 C 234.414 24.800,233.917 24.440,233.600 24.000 C 233.283 23.560,232.743 23.200,232.400 23.200 C 232.057 23.200,231.517 22.840,231.200 22.400 C 230.883 21.960,230.303 21.600,229.912 21.600 C 229.520 21.600,229.200 21.450,229.200 21.268 C 229.200 21.085,228.705 20.681,228.100 20.370 C 227.495 20.060,226.730 19.533,226.400 19.200 C 226.070 18.867,225.305 18.340,224.700 18.030 C 224.095 17.719,223.600 17.315,223.600 17.132 C 223.600 16.950,223.330 16.800,223.000 16.800 C 222.670 16.800,222.400 16.650,222.400 16.468 C 222.400 16.285,221.905 15.880,221.300 15.568 C 220.695 15.255,219.787 14.595,219.282 14.100 C 218.777 13.605,218.211 13.200,218.024 13.200 C 217.837 13.200,217.107 12.660,216.400 12.000 C 215.693 11.340,214.979 10.800,214.812 10.800 C 214.645 10.800,213.899 10.263,213.154 9.606 C 212.409 8.950,211.565 8.410,211.277 8.406 C 210.990 8.403,209.892 7.500,208.837 6.400 C 207.783 5.300,206.791 4.400,206.634 4.400 C 206.477 4.400,205.449 3.477,204.349 2.348 C 201.311 -0.771,199.678 -0.834,196.749 2.055 M205.117 40.900 C 212.535 46.094,224.549 54.000,225.023 54.000 C 225.151 54.000,226.008 54.511,226.928 55.135 C 234.797 60.476,259.365 72.956,274.400 79.251 C 278.030 80.770,281.360 82.173,281.800 82.368 C 282.240 82.563,283.680 83.117,285.000 83.600 C 286.320 84.083,287.760 84.623,288.200 84.800 C 288.640 84.977,290.080 85.517,291.400 86.000 C 292.720 86.483,294.160 87.029,294.600 87.213 C 296.731 88.105,310.896 92.548,315.602 93.802 C 324.795 96.249,328.846 97.274,332.400 98.050 C 334.490 98.506,336.920 99.044,337.800 99.245 C 338.680 99.445,340.390 99.778,341.600 99.985 C 342.810 100.191,344.880 100.557,346.200 100.799 C 347.520 101.040,349.770 101.428,351.200 101.661 C 352.630 101.894,353.980 102.230,354.200 102.408 C 354.725 102.832,353.775 119.675,352.791 127.400 C 352.594 128.940,352.236 131.910,351.994 134.000 C 351.751 136.090,351.375 138.970,351.156 140.400 C 350.397 145.372,349.943 148.212,349.591 150.200 C 349.396 151.300,349.036 153.370,348.792 154.800 C 348.547 156.230,348.196 158.120,348.012 159.000 C 347.676 160.610,347.138 163.184,346.403 166.700 C 342.933 183.294,335.522 208.026,330.010 221.400 C 329.829 221.840,329.451 222.830,329.170 223.600 C 328.888 224.370,328.260 225.900,327.773 227.000 C 327.286 228.100,326.031 230.980,324.985 233.400 C 317.535 250.632,305.141 272.544,295.316 285.853 C 294.482 286.982,293.181 288.782,292.424 289.853 C 279.413 308.263,253.681 333.433,234.600 346.414 C 232.840 347.612,231.310 348.697,231.200 348.826 C 230.686 349.428,220.954 355.647,216.800 358.027 C 216.250 358.342,215.710 358.690,215.600 358.800 C 215.490 358.910,214.970 359.242,214.445 359.538 C 213.920 359.833,212.840 360.445,212.045 360.898 C 211.250 361.350,209.250 362.433,207.600 363.305 C 205.950 364.176,203.630 365.436,202.445 366.106 C 200.098 367.430,199.103 367.260,196.835 365.147 C 196.394 364.736,195.756 364.400,195.417 364.400 C 195.078 364.400,194.800 364.220,194.800 364.000 C 194.800 363.780,194.564 363.600,194.275 363.600 C 193.987 363.600,193.364 363.240,192.892 362.800 C 192.420 362.360,191.771 362.000,191.450 362.000 C 191.129 362.000,190.807 361.858,190.733 361.685 C 190.660 361.512,189.568 360.871,188.308 360.260 C 187.047 359.649,185.911 358.980,185.784 358.774 C 185.657 358.568,185.203 358.400,184.776 358.400 C 184.349 358.400,184.000 358.220,184.000 358.000 C 184.000 357.780,183.719 357.600,183.376 357.600 C 183.033 357.600,182.864 357.420,183.000 357.200 C 183.136 356.980,182.877 356.800,182.424 356.800 C 181.971 356.800,181.600 356.620,181.600 356.400 C 181.600 356.180,181.280 356.000,180.888 356.000 C 180.497 356.000,179.917 355.640,179.600 355.200 C 179.283 354.760,178.703 354.400,178.312 354.400 C 177.920 354.400,177.600 354.220,177.600 354.000 C 177.600 353.780,177.280 353.600,176.888 353.600 C 176.497 353.600,175.917 353.240,175.600 352.800 C 175.283 352.360,174.793 352.000,174.512 352.000 C 174.230 352.000,174.000 351.850,174.000 351.668 C 174.000 351.485,173.505 351.081,172.900 350.770 C 172.295 350.460,171.509 349.889,171.153 349.503 C 170.797 349.116,170.347 348.800,170.153 348.800 C 169.959 348.799,169.277 348.349,168.638 347.800 C 167.999 347.250,167.332 346.800,167.156 346.800 C 166.980 346.800,166.386 346.350,165.836 345.800 C 165.286 345.250,164.624 344.800,164.365 344.800 C 164.106 344.800,163.603 344.467,163.247 344.059 C 162.891 343.652,162.011 343.015,161.291 342.644 C 159.987 341.973,158.754 340.973,156.180 338.500 C 155.436 337.785,154.627 337.200,154.382 337.200 C 154.137 337.200,153.246 336.480,152.400 335.600 C 151.554 334.720,150.669 334.000,150.431 334.000 C 150.194 334.000,150.000 333.820,150.000 333.600 C 150.000 333.380,149.817 333.200,149.593 333.200 C 149.369 333.200,148.015 332.030,146.585 330.600 C 145.155 329.170,143.810 328.000,143.596 328.000 C 143.124 328.000,125.013 309.921,123.600 308.040 C 123.050 307.308,121.655 305.743,120.500 304.563 C 119.345 303.383,118.400 302.265,118.400 302.079 C 118.400 301.894,117.500 300.778,116.400 299.600 C 115.300 298.422,114.400 297.296,114.400 297.098 C 114.400 296.900,113.680 296.046,112.800 295.200 C 111.920 294.354,111.200 293.541,111.200 293.392 C 111.200 293.243,110.660 292.617,110.000 292.000 C 109.340 291.383,108.800 290.599,108.800 290.258 C 108.800 289.916,108.350 289.186,107.800 288.636 C 107.250 288.086,106.800 287.493,106.800 287.318 C 106.799 287.143,106.349 286.477,105.800 285.838 C 105.250 285.199,104.800 284.532,104.800 284.356 C 104.800 284.180,104.350 283.586,103.800 283.036 C 103.250 282.486,102.800 281.798,102.800 281.506 C 102.800 281.215,102.440 280.717,102.000 280.400 C 101.560 280.083,101.200 279.543,101.200 279.200 C 101.200 278.857,100.840 278.317,100.400 278.000 C 99.960 277.683,99.600 277.221,99.600 276.974 C 99.600 276.726,99.240 276.198,98.800 275.800 C 98.360 275.402,98.000 274.874,98.000 274.626 C 98.000 274.379,97.640 273.917,97.200 273.600 C 96.760 273.283,96.400 272.703,96.400 272.312 C 96.400 271.920,96.220 271.600,96.000 271.600 C 95.780 271.600,95.600 271.280,95.600 270.888 C 95.600 270.497,95.240 269.917,94.800 269.600 C 94.360 269.283,94.000 268.703,94.000 268.312 C 94.000 267.920,93.820 267.600,93.600 267.600 C 93.380 267.600,93.200 267.280,93.200 266.888 C 93.200 266.497,92.840 265.917,92.400 265.600 C 91.960 265.283,91.600 264.745,91.600 264.405 C 91.600 264.064,91.180 263.159,90.667 262.393 C 90.154 261.627,89.480 260.415,89.169 259.700 C 88.859 258.985,88.469 258.400,88.302 258.400 C 88.136 258.400,88.000 258.040,88.000 257.600 C 88.000 257.160,87.820 256.800,87.600 256.800 C 87.380 256.800,87.200 256.440,87.200 256.000 C 87.200 255.560,87.020 255.200,86.800 255.200 C 86.580 255.200,86.400 254.964,86.400 254.675 C 86.400 254.387,86.040 253.764,85.600 253.292 C 85.160 252.820,84.800 252.156,84.800 251.817 C 84.800 251.478,84.620 251.200,84.400 251.200 C 84.180 251.200,84.000 250.840,84.000 250.400 C 84.000 249.960,83.820 249.600,83.600 249.600 C 83.380 249.600,83.200 249.240,83.200 248.800 C 83.200 248.360,83.020 248.000,82.800 248.000 C 82.580 248.000,82.400 247.640,82.400 247.200 C 82.400 246.760,82.220 246.400,82.000 246.400 C 81.780 246.400,81.600 246.040,81.600 245.600 C 81.600 245.160,81.420 244.800,81.200 244.800 C 80.980 244.800,80.800 244.440,80.800 244.000 C 80.800 243.560,80.620 243.200,80.400 243.200 C 80.180 243.200,80.000 242.930,80.000 242.600 C 80.000 242.270,79.820 242.000,79.600 242.000 C 79.380 242.000,79.200 241.728,79.200 241.395 C 79.200 241.062,79.020 240.432,78.800 239.995 C 78.580 239.558,78.220 238.842,78.000 238.405 C 77.780 237.968,77.600 237.338,77.600 237.005 C 77.600 236.672,77.420 236.400,77.200 236.400 C 76.980 236.400,76.800 236.040,76.800 235.600 C 76.800 235.160,76.620 234.800,76.400 234.800 C 76.180 234.800,76.000 234.440,76.000 234.000 C 76.000 233.560,75.844 233.200,75.652 233.200 C 75.461 233.200,75.210 232.615,75.094 231.900 C 74.978 231.185,74.324 229.380,73.641 227.890 C 72.959 226.399,72.400 224.914,72.400 224.590 C 72.400 224.265,72.220 224.000,72.000 224.000 C 71.780 224.000,71.600 223.561,71.600 223.024 C 71.600 222.487,71.420 221.936,71.200 221.800 C 70.980 221.664,70.800 221.203,70.800 220.776 C 70.800 220.349,70.620 220.000,70.400 220.000 C 70.180 220.000,70.000 219.561,70.000 219.024 C 70.000 218.487,69.820 217.936,69.600 217.800 C 69.380 217.664,69.200 217.203,69.200 216.776 C 69.200 216.349,69.020 216.000,68.800 216.000 C 68.580 216.000,68.400 215.460,68.400 214.800 C 68.400 214.140,68.220 213.600,68.000 213.600 C 67.780 213.600,67.600 213.161,67.600 212.624 C 67.600 212.087,67.420 211.536,67.200 211.400 C 66.980 211.264,66.800 210.713,66.800 210.176 C 66.800 209.639,66.620 209.200,66.400 209.200 C 66.180 209.200,66.000 208.761,66.000 208.224 C 66.000 207.687,65.856 207.158,65.679 207.049 C 65.503 206.940,65.107 205.928,64.800 204.800 C 64.493 203.672,64.097 202.660,63.921 202.551 C 63.744 202.442,63.600 201.924,63.600 201.400 C 63.600 200.876,63.420 200.336,63.200 200.200 C 62.980 200.064,62.800 199.333,62.800 198.576 C 62.800 197.819,62.620 197.200,62.400 197.200 C 62.180 197.200,62.000 196.660,62.000 196.000 C 62.000 195.340,61.820 194.800,61.600 194.800 C 61.380 194.800,61.200 194.170,61.200 193.400 C 61.200 192.630,61.020 192.000,60.800 192.000 C 60.580 192.000,60.400 191.460,60.400 190.800 C 60.400 190.140,60.220 189.600,60.000 189.600 C 59.780 189.600,59.600 189.060,59.600 188.400 C 59.600 187.740,59.456 187.200,59.279 187.200 C 59.103 187.200,58.760 185.895,58.517 184.300 C 58.274 182.705,57.865 180.590,57.608 179.600 C 57.352 178.610,57.045 177.213,56.927 176.496 C 56.808 175.779,56.551 175.094,56.356 174.973 C 56.160 174.852,56.000 174.043,56.000 173.176 C 56.000 172.309,55.820 171.600,55.600 171.600 C 55.380 171.600,55.200 170.891,55.200 170.024 C 55.200 169.157,55.020 168.336,54.800 168.200 C 54.580 168.064,54.400 167.153,54.400 166.176 C 54.400 165.199,54.220 164.400,54.000 164.400 C 53.780 164.400,53.600 163.601,53.600 162.624 C 53.600 161.647,53.420 160.736,53.200 160.600 C 52.980 160.464,52.800 159.553,52.800 158.576 C 52.800 157.599,52.620 156.800,52.400 156.800 C 52.180 156.800,52.000 155.821,52.000 154.624 C 52.000 153.427,51.820 152.336,51.600 152.200 C 51.380 152.064,51.200 150.984,51.200 149.800 C 51.200 148.616,51.020 147.536,50.800 147.400 C 50.580 147.264,50.400 146.173,50.400 144.976 C 50.400 143.779,50.220 142.800,50.000 142.800 C 49.771 142.800,49.600 141.600,49.600 140.000 C 49.600 138.400,49.429 137.200,49.200 137.200 C 48.969 137.200,48.800 135.941,48.800 134.224 C 48.800 132.587,48.620 131.136,48.400 131.000 C 48.180 130.864,48.000 129.233,48.000 127.376 C 48.000 125.392,47.835 124.000,47.600 124.000 C 47.355 124.000,47.200 122.067,47.200 119.000 C 47.200 116.250,47.040 114.000,46.844 114.000 C 46.649 114.000,46.385 112.065,46.259 109.700 C 46.133 107.335,45.916 104.751,45.778 103.957 C 45.484 102.276,45.639 102.174,49.359 101.610 C 50.701 101.406,52.880 101.041,54.200 100.798 C 55.520 100.555,57.500 100.210,58.600 100.030 C 61.508 99.556,74.252 96.617,79.600 95.187 C 87.476 93.081,88.151 92.893,90.000 92.299 C 90.990 91.980,93.690 91.134,96.000 90.418 C 98.310 89.703,100.513 88.956,100.895 88.759 C 101.277 88.561,101.916 88.400,102.315 88.400 C 102.714 88.400,103.211 88.257,103.420 88.082 C 103.629 87.907,104.520 87.535,105.400 87.255 C 106.280 86.976,107.360 86.597,107.800 86.413 C 108.240 86.229,109.680 85.684,111.000 85.203 C 114.822 83.809,126.363 79.178,129.110 77.935 C 130.491 77.311,131.707 76.800,131.814 76.800 C 132.689 76.800,156.936 64.679,162.900 61.260 C 163.725 60.787,165.030 60.040,165.800 59.600 C 166.570 59.160,167.830 58.440,168.600 58.000 C 169.370 57.560,170.675 56.819,171.500 56.353 C 172.325 55.887,173.478 55.167,174.062 54.753 C 174.646 54.339,175.321 54.000,175.562 54.000 C 175.803 54.000,176.000 53.820,176.000 53.600 C 176.000 53.380,176.183 53.200,176.406 53.200 C 176.985 53.200,192.996 42.766,193.600 41.995 C 193.710 41.855,194.914 40.989,196.275 40.072 C 197.637 39.154,198.862 38.223,198.999 38.002 C 199.499 37.193,200.498 37.666,205.117 40.900 M155.800 125.200 C 155.664 125.420,154.854 125.600,154.000 125.600 C 153.146 125.600,152.336 125.780,152.200 126.000 C 152.064 126.220,151.451 126.400,150.838 126.400 C 150.225 126.400,149.398 126.760,149.000 127.200 C 148.602 127.640,148.068 128.000,147.813 128.000 C 147.060 128.000,144.270 129.469,143.317 130.367 C 142.831 130.825,142.286 131.200,142.105 131.200 C 140.309 131.200,132.000 143.046,132.000 145.606 C 132.000 145.829,131.844 146.323,131.654 146.705 C 131.229 147.558,130.443 149.789,130.000 151.400 C 129.678 152.571,128.992 154.593,128.371 156.200 C 128.201 156.640,127.956 157.490,127.826 158.088 C 127.480 159.685,126.538 160.017,123.566 159.587 C 118.968 158.922,114.342 159.107,113.200 160.000 C 112.650 160.430,111.994 160.786,111.743 160.791 C 110.630 160.813,107.301 164.454,106.053 167.014 C 102.846 173.590,105.478 182.077,111.710 185.256 C 113.812 186.328,113.869 186.812,112.117 188.725 C 109.381 191.713,108.473 193.010,107.287 195.622 C 104.495 201.773,104.600 200.822,104.600 220.060 L 104.600 237.520 106.000 239.516 C 106.770 240.614,108.345 242.256,109.500 243.165 L 111.600 244.819 111.600 257.977 C 111.600 272.576,111.539 272.207,114.335 274.600 L 115.737 275.800 128.369 275.922 C 141.991 276.053,144.800 275.652,144.800 273.578 C 144.800 273.202,145.178 272.794,145.640 272.674 C 146.465 272.458,146.476 272.330,146.230 265.527 C 145.736 251.856,145.663 253.389,146.800 253.481 C 164.444 254.918,172.310 255.166,200.400 255.168 C 228.854 255.170,233.947 255.007,253.200 253.479 L 254.200 253.400 254.400 262.200 L 254.600 271.000 255.724 272.730 C 257.765 275.871,258.333 275.981,272.538 275.991 C 286.193 276.001,285.221 276.169,288.345 273.252 L 289.600 272.079 289.571 260.540 C 289.555 254.193,289.406 248.050,289.241 246.889 C 288.941 244.780,288.942 244.777,290.370 243.906 C 291.157 243.427,291.860 242.891,291.933 242.717 C 292.007 242.543,292.239 242.400,292.450 242.400 C 293.415 242.400,295.600 239.455,295.600 238.154 C 295.600 237.849,295.780 237.600,296.000 237.600 C 296.261 237.600,296.400 231.475,296.400 220.024 C 296.400 208.737,296.257 202.359,296.000 202.200 C 295.780 202.064,295.600 201.254,295.600 200.400 C 295.600 199.546,295.420 198.736,295.200 198.600 C 294.980 198.464,294.800 197.913,294.800 197.376 C 294.800 196.839,294.620 196.400,294.400 196.400 C 294.180 196.400,294.000 196.164,294.000 195.875 C 294.000 195.587,293.640 194.964,293.200 194.492 C 292.760 194.020,292.400 193.266,292.400 192.817 C 292.400 192.368,292.220 192.000,292.000 192.000 C 291.780 192.000,291.600 191.640,291.600 191.200 C 291.600 190.756,291.333 190.400,291.000 190.400 C 290.670 190.400,290.400 190.229,290.400 190.019 C 290.400 189.810,289.590 189.081,288.600 188.400 C 286.509 186.962,286.392 186.540,287.900 185.879 C 289.520 185.169,291.229 183.969,292.713 182.500 C 293.436 181.785,294.201 181.200,294.413 181.200 C 294.626 181.200,294.800 180.750,294.800 180.200 C 294.800 179.650,294.980 179.200,295.200 179.200 C 295.420 179.200,295.600 178.660,295.600 178.000 C 295.600 177.340,295.780 176.800,296.000 176.800 C 296.237 176.800,296.400 175.341,296.400 173.224 C 296.400 171.257,296.220 169.536,296.000 169.400 C 295.780 169.264,295.600 168.724,295.600 168.200 C 295.600 167.676,295.420 167.136,295.200 167.000 C 294.980 166.864,294.800 166.476,294.800 166.137 C 294.800 165.798,294.294 165.044,293.675 164.460 C 293.057 163.877,292.443 163.113,292.312 162.763 C 292.181 162.413,291.427 161.819,290.637 161.444 C 289.847 161.069,289.200 160.591,289.200 160.381 C 289.200 160.172,288.876 160.000,288.480 160.000 C 288.084 160.000,287.562 159.802,287.319 159.559 C 287.038 159.278,284.438 159.097,280.139 159.059 L 273.400 159.000 273.293 158.000 C 273.140 156.565,271.916 152.738,271.313 151.811 C 271.031 151.377,270.800 150.533,270.800 149.935 C 270.800 149.337,270.620 148.736,270.400 148.600 C 270.180 148.464,270.000 147.735,270.000 146.980 C 270.000 146.040,269.748 145.449,269.200 145.107 C 268.760 144.832,268.400 144.201,268.400 143.704 C 268.400 143.207,268.220 142.800,268.000 142.800 C 267.780 142.800,267.600 142.342,267.600 141.782 C 267.600 141.222,267.164 140.328,266.631 139.795 C 266.098 139.262,265.546 138.460,265.404 138.013 C 265.262 137.566,264.978 137.200,264.773 137.200 C 264.568 137.200,264.400 136.906,264.400 136.546 C 264.400 135.741,259.405 130.800,258.590 130.800 C 258.266 130.800,258.000 130.575,258.000 130.299 C 258.000 129.815,253.808 127.600,252.892 127.600 C 252.643 127.600,252.295 127.342,252.118 127.026 C 251.787 126.434,250.795 126.157,247.488 125.732 C 246.437 125.596,245.481 125.331,245.365 125.143 C 245.055 124.643,156.109 124.699,155.800 125.200 M246.131 133.395 C 253.930 135.761,258.990 140.800,261.799 149.000 C 262.176 150.100,262.627 151.360,262.801 151.800 C 262.975 152.240,263.486 153.770,263.937 155.200 C 264.388 156.630,265.588 160.140,266.604 163.000 C 267.620 165.860,268.604 168.740,268.792 169.400 C 269.563 172.116,271.232 177.058,271.654 177.873 C 272.780 180.047,268.161 180.738,262.794 179.198 C 261.897 178.941,237.967 178.800,195.223 178.800 C 143.747 178.800,129.147 178.693,129.520 178.320 C 129.784 178.056,130.000 177.347,130.000 176.744 C 130.000 176.141,130.180 175.536,130.400 175.400 C 130.620 175.264,130.800 174.553,130.800 173.819 C 130.800 173.010,131.033 172.396,131.393 172.258 C 131.719 172.133,132.103 171.300,132.245 170.406 C 132.388 169.513,132.661 168.686,132.853 168.568 C 133.044 168.449,133.200 167.744,133.200 167.000 C 133.200 166.256,133.380 165.536,133.600 165.400 C 133.820 165.264,134.000 164.706,134.000 164.160 C 134.000 163.613,134.360 162.780,134.800 162.308 C 135.240 161.836,135.600 160.954,135.600 160.348 C 135.600 159.743,135.780 159.136,136.000 159.000 C 136.220 158.864,136.406 158.178,136.413 157.476 C 136.420 156.774,136.690 155.851,137.013 155.424 C 137.336 154.996,137.600 154.349,137.600 153.985 C 137.600 153.621,137.853 152.800,138.162 152.161 C 138.471 151.523,138.841 150.190,138.984 149.200 C 140.024 141.991,145.477 136.432,154.800 133.079 C 156.394 132.505,244.201 132.809,246.131 133.395 M135.354 201.278 C 150.097 205.557,147.536 227.200,132.287 227.200 C 129.432 227.200,128.815 227.079,128.200 226.400 C 127.802 225.960,127.144 225.600,126.738 225.600 C 126.332 225.600,126.000 225.420,126.000 225.200 C 126.000 224.980,125.640 224.800,125.200 224.800 C 124.760 224.800,124.400 224.620,124.400 224.400 C 124.400 224.180,124.130 224.000,123.800 224.000 C 123.470 224.000,123.200 223.764,123.200 223.475 C 123.200 223.187,122.885 222.602,122.500 222.175 C 122.115 221.749,121.545 220.905,121.232 220.300 C 120.920 219.695,120.515 219.200,120.332 219.200 C 120.150 219.200,120.000 218.570,120.000 217.800 C 120.000 217.012,119.799 216.400,119.540 216.400 C 118.778 216.400,119.429 209.695,120.371 207.853 C 123.168 202.381,129.532 199.588,135.354 201.278 M272.143 201.398 C 284.241 205.068,284.972 222.546,273.202 226.694 C 270.772 227.550,265.313 227.359,264.800 226.400 C 264.554 225.940,263.962 225.600,263.410 225.600 C 262.880 225.600,262.336 225.420,262.200 225.200 C 262.064 224.980,261.681 224.800,261.348 224.800 C 260.588 224.800,259.600 223.837,259.600 223.096 C 259.600 222.788,259.186 222.314,258.680 222.043 C 258.085 221.725,257.580 220.887,257.250 219.675 C 256.970 218.644,256.465 217.025,256.129 216.079 C 255.744 214.996,255.613 213.808,255.774 212.879 C 255.915 212.065,256.133 210.724,256.258 209.897 C 256.382 209.071,256.645 208.295,256.842 208.174 C 257.039 208.052,257.200 207.689,257.200 207.366 C 257.200 206.668,259.322 204.257,260.975 203.077 C 263.887 200.999,268.528 200.301,272.143 201.398 M239.168 208.106 C 241.055 209.069,241.256 212.286,239.494 213.308 C 237.772 214.307,161.001 213.621,160.230 212.600 C 158.977 210.942,159.659 208.598,161.600 207.884 C 162.959 207.384,238.176 207.599,239.168 208.106 M232.964 222.431 C 234.185 223.881,234.281 225.164,233.263 226.422 L 232.526 227.332 200.183 227.235 C 163.788 227.127,166.400 227.364,166.400 224.168 C 166.400 221.028,164.440 221.200,200.218 221.200 L 231.929 221.200 232.964 222.431 " stroke="none" fill="#fbfbfb" fill-rule="evenodd"></path></g></svg>