<svg id="svg" version="1.1" xmlns="http://www.w3.org/2000/svg" xmlns:xlink="http://www.w3.org/1999/xlink" width="400" height="400" viewBox="0, 0, 400,400"><g id="svgg"><path id="path0" d="M343.200 131.983 C 332.887 132.228,331.615 132.522,329.563 135.143 C 328.784 136.137,326.948 136.912,325.600 136.815 C 316.163 136.136,316.403 136.116,316.100 137.600 C 316.032 137.930,315.918 140.000,315.846 142.200 C 315.705 146.514,314.920 151.965,314.351 152.580 C 314.158 152.789,314.000 153.453,314.000 154.056 C 314.000 154.659,313.843 155.250,313.652 155.368 C 313.460 155.486,313.196 156.118,313.066 156.771 C 312.753 158.334,309.600 164.800,309.150 164.800 C 308.958 164.800,308.800 165.043,308.800 165.339 C 308.800 168.132,301.429 172.225,294.400 173.335 C 290.270 173.988,93.706 174.773,93.073 174.140 C 92.910 173.977,92.557 173.813,92.288 173.776 C 92.020 173.739,90.765 173.581,89.500 173.426 C 88.235 173.270,87.200 172.975,87.200 172.771 C 87.200 172.567,86.840 172.400,86.400 172.400 C 85.960 172.400,85.600 172.240,85.600 172.043 C 85.600 171.847,85.150 171.574,84.600 171.436 C 84.050 171.298,83.600 171.008,83.600 170.792 C 83.600 170.577,83.349 170.400,83.043 170.400 C 82.736 170.400,82.382 170.130,82.255 169.800 C 82.129 169.470,81.749 169.200,81.413 169.200 C 81.064 169.200,80.800 168.850,80.800 168.387 C 80.800 167.941,80.530 167.471,80.200 167.345 C 79.870 167.218,79.600 166.793,79.600 166.400 C 79.600 166.007,79.330 165.582,79.000 165.455 C 78.670 165.329,78.400 164.859,78.400 164.413 C 78.400 163.966,78.220 163.600,78.000 163.600 C 77.780 163.600,77.600 163.330,77.600 163.000 C 77.600 162.670,77.437 162.400,77.238 162.400 C 77.038 162.400,76.751 161.500,76.600 160.400 C 76.449 159.300,76.162 158.400,75.962 158.400 C 75.763 158.400,75.600 157.785,75.600 157.033 C 75.600 156.282,75.421 155.607,75.202 155.533 C 74.981 155.459,74.686 152.951,74.540 149.900 C 74.395 146.875,74.124 144.400,73.938 144.400 C 73.752 144.400,73.600 144.076,73.600 143.680 C 73.600 143.284,73.384 142.744,73.120 142.480 C 72.747 142.107,72.747 142.000,73.120 142.000 C 73.445 142.000,73.600 141.149,73.600 139.371 C 73.600 135.489,73.349 135.333,68.139 135.970 C 63.737 136.508,61.600 136.175,61.600 134.951 C 61.600 134.648,61.420 134.400,61.200 134.400 C 60.980 134.400,60.800 134.122,60.800 133.781 C 60.800 132.575,40.124 133.653,36.907 135.028 C 36.196 135.332,35.346 135.478,35.019 135.352 C 34.691 135.226,33.944 135.501,33.358 135.962 C 32.772 136.423,32.050 136.800,31.754 136.800 C 30.954 136.800,30.857 137.616,30.222 149.600 C 29.437 164.423,29.009 165.558,22.089 171.178 C 19.029 173.664,18.832 174.303,18.024 184.400 C 17.839 186.710,17.568 189.059,17.421 189.619 C 17.274 190.179,16.997 192.969,16.806 195.819 C 16.462 200.941,16.124 203.125,15.203 206.157 C 14.585 208.196,15.337 217.932,16.251 219.698 C 16.695 220.558,16.797 221.428,16.607 222.750 C 16.193 225.640,16.232 228.799,16.714 231.200 C 17.850 236.864,18.086 237.825,18.431 238.180 C 18.634 238.389,18.800 238.916,18.800 239.352 C 18.800 240.190,18.953 240.730,20.626 245.800 C 22.737 252.201,26.766 259.994,28.259 260.567 C 29.778 261.150,41.905 262.039,54.400 262.483 C 58.366 262.623,62.433 261.189,63.517 259.267 C 67.707 251.839,73.408 250.607,95.000 252.466 C 101.811 253.053,113.866 253.612,124.681 253.843 L 133.963 254.041 134.440 255.361 C 135.206 257.478,138.400 258.421,138.250 256.486 C 138.124 254.857,139.090 254.813,164.017 255.318 C 177.097 255.583,195.540 255.710,205.000 255.600 C 214.460 255.490,226.610 255.400,232.000 255.400 L 241.800 255.400 242.400 256.706 C 243.209 258.468,246.501 258.539,246.734 256.800 C 246.944 255.231,246.665 255.265,261.400 255.033 C 269.100 254.911,279.000 254.613,283.400 254.369 C 292.975 253.838,303.484 254.055,305.940 254.834 C 307.957 255.474,307.901 255.521,311.730 250.005 C 316.025 243.818,322.371 240.704,330.800 240.648 C 342.318 240.572,345.892 245.135,346.579 260.800 C 346.671 262.890,346.758 264.713,346.773 264.851 C 346.844 265.511,349.488 265.958,354.600 266.177 C 357.680 266.308,362.749 266.528,365.865 266.665 C 371.797 266.927,373.859 266.558,375.700 264.905 C 376.589 264.106,378.800 259.708,378.800 258.736 C 378.800 258.331,378.944 258.000,379.121 258.000 C 379.539 258.000,380.805 254.463,380.802 253.300 C 380.801 252.805,380.936 252.400,381.103 252.400 C 381.549 252.400,382.440 249.312,382.693 246.888 C 382.815 245.727,383.069 244.681,383.257 244.565 C 383.446 244.448,383.600 243.373,383.600 242.176 C 383.600 240.979,383.780 240.000,384.000 240.000 C 384.251 240.000,384.400 237.459,384.400 233.176 C 384.400 228.729,384.261 226.439,384.000 226.600 C 383.374 226.987,383.523 224.240,384.198 222.946 C 384.526 222.316,384.796 221.125,384.798 220.300 C 384.799 219.475,384.980 218.800,385.200 218.800 C 385.437 218.800,385.600 217.333,385.600 215.200 C 385.600 213.067,385.763 211.600,386.000 211.600 C 386.220 211.600,386.400 210.801,386.400 209.824 C 386.400 208.847,386.220 207.936,386.000 207.800 C 385.767 207.656,385.600 205.396,385.600 202.376 C 385.600 199.529,385.446 197.200,385.257 197.200 C 385.069 197.200,384.818 194.821,384.701 191.914 C 384.565 188.583,384.322 186.574,384.043 186.481 C 383.799 186.400,383.600 185.450,383.600 184.367 C 383.600 183.285,383.443 182.400,383.252 182.400 C 383.060 182.400,382.781 181.320,382.632 180.000 C 382.482 178.680,382.189 177.600,381.980 177.600 C 381.771 177.600,381.600 176.880,381.600 176.000 C 381.600 175.120,381.443 174.400,381.252 174.400 C 381.060 174.400,380.781 173.320,380.632 172.000 C 380.482 170.680,380.189 169.600,379.980 169.600 C 379.771 169.600,379.600 169.330,379.600 169.000 C 379.600 168.670,379.428 168.400,379.218 168.400 C 379.008 168.400,378.719 167.776,378.576 167.014 C 378.418 166.172,378.026 165.535,377.579 165.393 C 377.173 165.264,376.733 164.817,376.600 164.400 C 376.467 163.983,376.017 163.533,375.600 163.400 C 375.183 163.267,374.720 162.779,374.573 162.313 C 374.425 161.848,373.876 161.039,373.352 160.516 C 372.828 159.992,372.400 159.342,372.400 159.070 C 372.400 158.799,372.047 158.322,371.615 158.011 C 371.183 157.699,370.719 156.940,370.583 156.322 C 370.447 155.705,370.171 155.200,369.968 155.200 C 369.766 155.200,369.600 154.585,369.600 153.833 C 369.600 153.082,369.431 152.407,369.225 152.333 C 369.018 152.260,368.722 149.725,368.566 146.700 C 368.411 143.675,368.130 141.200,367.942 141.200 C 367.754 141.200,367.600 139.940,367.600 138.400 C 367.600 136.860,367.443 135.600,367.251 135.600 C 367.059 135.600,366.787 134.880,366.646 134.000 C 366.400 132.459,363.200 131.345,363.200 132.800 C 363.200 133.020,362.390 133.200,361.400 133.200 C 360.410 133.200,359.599 133.065,359.597 132.900 C 359.590 132.219,357.286 131.605,355.020 131.680 C 353.689 131.724,348.370 131.860,343.200 131.983 M327.524 146.187 C 327.593 147.246,327.458 148.302,327.224 148.536 C 326.991 148.769,326.800 149.903,326.800 151.056 C 326.800 152.209,326.644 153.249,326.453 153.367 C 326.262 153.486,325.985 154.650,325.837 155.955 C 325.535 158.621,325.304 158.908,322.887 159.626 C 320.396 160.365,320.194 159.971,321.008 155.946 C 321.801 152.022,322.749 146.787,322.779 146.164 C 322.810 145.518,326.091 143.971,327.000 144.173 C 327.220 144.222,327.456 145.129,327.524 146.187 M64.000 145.123 C 65.535 145.873,65.949 147.625,66.647 156.300 L 66.913 159.600 65.756 159.599 C 62.441 159.594,62.093 158.839,60.967 149.200 C 60.826 147.990,60.538 146.787,60.327 146.526 C 59.029 144.917,61.583 143.941,64.000 145.123 M203.510 200.145 C 203.861 200.361,204.000 202.130,204.000 206.375 C 204.000 213.322,203.952 213.419,200.712 213.017 C 199.550 212.872,192.154 212.662,184.276 212.550 C 173.507 212.396,169.992 212.228,170.113 211.873 C 170.202 211.613,169.969 211.130,169.596 210.800 C 169.138 210.395,168.838 209.291,168.672 207.400 C 168.536 205.860,168.314 204.133,168.178 203.563 C 168.015 202.879,168.147 202.310,168.565 201.892 C 168.914 201.543,169.200 201.073,169.200 200.848 C 169.200 200.624,169.457 200.296,169.772 200.120 C 170.498 199.714,202.852 199.737,203.510 200.145 " stroke="none" fill="#fbfbfb" fill-rule="evenodd"></path><path id="path1" d="M333.973 130.763 C 326.904 131.053,323.693 131.949,321.952 134.117 C 321.364 134.848,320.779 134.932,315.693 135.013 C 312.607 135.062,309.889 135.222,309.652 135.368 C 308.405 136.139,307.293 140.391,307.030 145.400 C 306.831 149.181,306.405 151.584,305.614 153.400 C 305.422 153.840,305.160 154.809,305.032 155.553 C 304.364 159.430,298.110 169.200,296.296 169.200 C 296.116 169.200,295.480 169.558,294.884 169.997 C 293.813 170.783,292.082 171.262,287.400 172.065 C 285.863 172.329,265.232 172.527,230.000 172.617 C 199.750 172.694,156.370 172.874,133.600 173.016 C 108.257 173.175,91.308 173.129,89.900 172.898 C 88.635 172.691,87.600 172.650,87.600 172.808 C 87.600 173.167,90.078 173.590,92.220 173.596 C 93.111 173.598,94.022 173.782,94.245 174.005 C 94.514 174.274,105.594 174.343,127.425 174.211 C 145.451 174.102,190.386 173.874,227.280 173.706 C 280.081 173.465,294.467 173.294,294.860 172.900 C 295.135 172.625,296.033 172.400,296.856 172.400 C 297.679 172.400,298.454 172.236,298.578 172.035 C 298.703 171.834,299.523 171.548,300.402 171.400 C 301.281 171.251,302.000 171.009,302.000 170.862 C 302.000 170.716,302.571 170.342,303.270 170.033 C 307.450 168.183,314.400 155.106,314.400 149.091 C 314.400 148.520,314.582 147.574,314.804 146.989 C 315.026 146.405,315.251 143.901,315.304 141.425 C 315.370 138.318,315.570 136.718,315.949 136.261 C 316.615 135.459,321.239 135.340,323.655 136.064 C 325.672 136.668,328.127 135.907,329.251 134.328 C 329.693 133.708,330.278 133.200,330.552 133.200 C 330.826 133.200,331.795 132.840,332.706 132.400 C 334.575 131.497,358.800 131.126,358.800 132.000 C 358.800 132.220,359.160 132.400,359.600 132.400 C 360.040 132.400,360.400 132.580,360.400 132.800 C 360.400 133.020,361.030 133.200,361.800 133.200 C 362.570 133.200,363.200 133.020,363.200 132.800 C 363.200 132.580,363.695 132.399,364.300 132.398 L 365.400 132.395 364.353 131.849 C 362.570 130.918,345.252 130.299,333.973 130.763 M45.800 132.018 C 39.307 132.359,31.499 133.189,30.705 133.622 C 30.323 133.830,29.479 134.000,28.829 134.000 C 28.179 134.000,27.545 134.166,27.419 134.369 C 27.294 134.572,26.653 134.857,25.995 135.001 C 25.338 135.145,24.800 135.408,24.800 135.585 C 24.800 135.762,24.448 135.999,24.018 136.111 C 23.565 136.230,23.132 136.795,22.987 137.458 C 22.850 138.086,22.586 138.960,22.400 139.400 C 22.214 139.840,21.950 142.900,21.813 146.200 C 21.394 156.288,20.955 161.762,20.496 162.600 C 20.255 163.040,19.948 163.670,19.814 164.000 C 19.028 165.924,16.646 168.795,15.825 168.806 C 15.591 168.809,14.453 169.780,13.296 170.964 C 11.122 173.188,10.702 174.237,10.157 178.800 C 10.038 179.790,9.788 180.960,9.601 181.400 C 9.414 181.840,9.155 184.180,9.025 186.600 C 8.701 192.661,7.764 201.485,6.986 205.800 C 6.506 208.464,6.396 210.699,6.564 214.400 C 6.688 217.150,6.891 222.370,7.016 226.000 C 7.141 229.630,7.392 232.960,7.575 233.400 C 8.074 234.605,9.211 240.058,9.205 241.220 C 9.202 241.781,9.356 242.411,9.546 242.620 C 9.737 242.829,10.205 244.260,10.587 245.800 C 11.250 248.475,11.702 249.819,12.419 251.251 C 12.599 251.609,12.873 252.599,13.028 253.451 C 13.184 254.303,13.634 255.461,14.029 256.024 C 14.424 256.588,14.879 257.578,15.040 258.224 C 15.201 258.871,15.655 259.940,16.050 260.600 C 16.444 261.260,17.066 262.388,17.432 263.107 C 19.808 267.771,21.501 268.293,35.800 268.764 C 41.080 268.938,46.533 269.308,47.919 269.586 C 50.401 270.085,56.016 269.466,58.600 268.409 C 61.671 267.152,62.481 266.640,62.824 265.736 C 63.462 264.058,67.792 260.000,68.944 260.000 C 69.499 260.000,70.055 259.834,70.181 259.631 C 70.838 258.568,76.383 258.656,94.200 260.012 C 96.840 260.213,103.050 260.561,108.000 260.787 C 126.063 261.609,126.800 261.662,126.800 262.151 C 126.800 262.843,128.290 264.000,129.181 264.000 C 129.605 264.000,130.064 264.180,130.200 264.400 C 130.336 264.620,131.506 264.800,132.800 264.800 C 134.094 264.800,135.264 264.620,135.400 264.400 C 135.536 264.180,135.940 264.000,136.298 264.000 C 136.656 264.000,137.320 263.661,137.774 263.247 C 138.576 262.515,139.995 262.500,186.630 262.704 L 234.659 262.914 235.030 263.750 C 235.905 265.725,244.676 265.664,246.400 263.669 L 247.400 262.513 260.200 262.274 C 267.240 262.143,278.196 261.816,284.547 261.547 C 293.428 261.172,296.619 261.168,298.371 261.530 C 303.292 262.546,305.767 262.219,307.693 260.297 C 309.641 258.352,310.800 256.930,310.800 256.484 C 310.800 256.008,315.766 251.200,316.257 251.200 C 316.496 251.200,317.204 250.795,317.830 250.300 C 319.950 248.623,329.354 247.194,330.530 248.370 C 330.767 248.607,331.337 248.800,331.797 248.800 C 332.644 248.800,335.347 251.390,336.333 253.145 C 336.934 254.217,337.525 258.706,337.840 264.600 C 337.957 266.800,338.205 268.960,338.390 269.400 C 338.576 269.840,338.835 270.532,338.966 270.938 C 339.097 271.344,339.563 271.770,340.002 271.885 C 340.441 271.999,340.800 272.252,340.800 272.447 C 340.800 272.641,342.247 272.800,344.017 272.800 C 345.786 272.800,349.525 273.079,352.327 273.421 C 358.083 274.123,368.337 274.037,371.123 273.264 C 374.125 272.431,378.227 266.814,379.056 262.400 C 379.200 261.630,379.626 260.550,380.002 260.000 C 380.377 259.450,380.808 258.190,380.958 257.200 C 381.252 255.266,381.882 253.027,382.449 251.905 C 382.642 251.523,382.771 250.533,382.736 249.705 C 382.673 248.229,382.669 248.225,382.511 249.500 C 382.422 250.215,382.181 250.800,381.975 250.800 C 381.769 250.800,381.600 251.250,381.600 251.800 C 381.600 252.350,381.440 252.800,381.245 252.800 C 381.050 252.800,380.766 253.629,380.614 254.643 C 380.462 255.657,380.003 257.083,379.593 257.813 C 379.183 258.543,378.725 259.796,378.574 260.597 C 378.424 261.399,377.963 262.266,377.550 262.524 C 377.138 262.782,376.800 263.279,376.800 263.630 C 376.800 266.485,369.952 268.242,362.832 267.213 C 361.420 267.009,357.640 266.728,354.432 266.590 C 345.778 266.217,346.145 266.516,345.833 259.600 C 345.355 249.013,343.681 244.877,338.927 242.543 C 336.231 241.219,327.094 240.861,323.800 241.950 C 321.028 242.867,317.147 244.941,315.668 246.295 C 314.885 247.013,314.099 247.600,313.922 247.600 C 313.745 247.600,313.600 247.785,313.600 248.011 C 313.600 248.237,313.032 249.045,312.338 249.808 C 311.179 251.082,310.494 252.075,309.746 253.569 C 308.883 255.294,305.745 256.405,305.025 255.241 C 304.582 254.524,299.182 254.397,288.600 254.855 C 282.660 255.112,271.050 255.429,262.800 255.561 L 247.800 255.800 247.664 256.765 C 247.371 258.836,243.227 259.720,242.341 257.900 C 242.153 257.515,241.845 256.885,241.655 256.500 C 241.360 255.902,240.763 255.807,237.555 255.849 C 232.775 255.912,172.787 255.911,153.844 255.848 C 139.877 255.801,139.475 255.822,139.044 256.600 C 137.880 258.698,135.591 258.603,134.200 256.400 L 133.190 254.800 127.695 254.800 C 124.673 254.799,120.220 254.611,117.800 254.380 C 115.380 254.149,109.710 253.775,105.200 253.549 C 94.964 253.036,87.341 252.583,82.316 252.187 C 78.409 251.880,73.359 252.381,71.200 253.291 C 67.684 254.772,65.236 256.797,64.622 258.729 C 64.470 259.208,64.178 259.600,63.973 259.600 C 63.768 259.600,63.600 259.793,63.600 260.029 C 63.600 260.734,62.514 261.600,61.629 261.600 C 61.173 261.600,60.800 261.746,60.800 261.923 C 60.800 262.364,53.742 263.335,53.160 262.975 C 52.904 262.817,48.533 262.545,43.447 262.370 C 29.683 261.899,28.586 261.752,27.060 260.180 C 25.909 258.995,21.567 250.898,21.065 249.000 C 20.948 248.560,20.549 247.390,20.177 246.400 C 19.806 245.410,19.351 244.060,19.167 243.400 C 18.983 242.740,18.537 241.210,18.175 240.000 C 17.813 238.790,17.363 237.080,17.176 236.200 C 16.733 234.112,15.667 228.933,15.361 227.380 C 15.229 226.707,15.400 225.222,15.743 224.067 C 16.338 222.064,16.324 221.609,15.613 219.800 C 14.233 216.288,14.003 207.883,15.167 203.493 C 15.589 201.902,16.147 197.810,16.407 194.400 C 17.083 185.528,17.462 181.515,18.023 177.259 L 18.517 173.517 20.559 171.559 C 21.681 170.482,22.741 169.601,22.913 169.600 C 23.866 169.599,27.426 164.865,28.328 162.400 C 29.038 160.457,29.974 149.678,29.988 143.274 C 30.000 137.984,30.321 136.400,31.381 136.400 C 31.685 136.400,31.999 136.202,32.080 135.961 C 32.160 135.719,33.075 135.426,34.113 135.309 C 35.151 135.192,36.000 134.960,36.000 134.793 C 36.000 134.001,43.622 133.296,52.789 133.240 C 58.463 133.206,59.268 133.125,58.589 132.658 C 57.618 131.990,51.832 131.701,45.800 132.018 M61.600 135.200 C 61.600 135.446,63.407 135.585,66.300 135.560 C 69.273 135.535,70.633 135.403,70.000 135.200 C 68.514 134.724,61.600 134.724,61.600 135.200 M60.800 145.223 C 60.800 145.455,60.966 146.400,61.169 147.323 C 61.372 148.245,61.742 150.800,61.993 153.000 C 62.561 158.001,62.680 158.400,63.603 158.400 C 64.016 158.400,64.464 158.580,64.600 158.800 C 64.736 159.020,65.197 159.200,65.624 159.200 C 66.533 159.200,66.565 158.731,65.949 154.400 C 65.714 152.750,65.405 150.244,65.261 148.831 C 65.027 146.523,64.878 146.190,63.800 145.560 C 62.447 144.769,60.800 144.584,60.800 145.223 M324.275 145.766 C 323.184 146.777,323.069 147.102,322.435 151.000 C 322.220 152.320,321.844 154.210,321.598 155.200 C 320.505 159.601,320.677 160.119,322.867 159.027 C 323.558 158.682,324.365 158.400,324.661 158.400 C 325.036 158.400,325.200 157.830,325.200 156.528 C 325.200 155.499,325.368 154.104,325.573 153.428 C 325.777 152.753,326.156 150.940,326.413 149.400 C 326.671 147.860,326.973 146.195,327.084 145.700 C 327.369 144.437,325.666 144.477,324.275 145.766 M170.544 200.343 C 169.513 201.073,168.800 202.930,168.800 204.886 L 168.799 207.000 180.700 206.876 C 195.652 206.720,195.200 206.647,195.200 209.218 L 195.200 211.200 182.767 211.200 C 172.998 211.200,170.369 211.307,170.500 211.700 C 170.629 212.087,174.351 212.224,186.933 212.304 L 203.200 212.409 203.200 206.628 C 203.200 203.034,203.042 200.749,202.781 200.588 C 202.328 200.308,173.589 200.278,173.309 200.557 C 173.216 200.651,172.637 200.583,172.023 200.407 C 171.409 200.231,170.744 200.202,170.544 200.343 M384.909 220.400 C 384.909 221.390,384.987 221.795,385.082 221.300 C 385.178 220.805,385.178 219.995,385.082 219.500 C 384.987 219.005,384.909 219.410,384.909 220.400 M384.100 223.484 C 383.503 224.767,383.443 226.400,383.992 226.400 C 384.497 226.400,384.900 224.794,384.731 223.453 L 384.600 222.409 384.100 223.484 M383.754 240.577 C 383.632 240.894,383.603 241.479,383.689 241.877 C 383.787 242.328,383.924 242.112,384.054 241.300 C 384.271 239.938,384.130 239.596,383.754 240.577 M382.909 246.400 C 382.909 247.390,382.987 247.795,383.082 247.300 C 383.178 246.805,383.178 245.995,383.082 245.500 C 382.987 245.005,382.909 245.410,382.909 246.400 " stroke="none" fill="#090909" fill-rule="evenodd"></path><path id="path2" d="M334.536 131.906 C 334.281 132.068,337.161 132.153,340.936 132.094 C 352.075 131.923,353.217 131.759,343.800 131.683 C 338.960 131.644,334.791 131.744,334.536 131.906 M331.142 133.284 C 330.340 133.731,329.463 134.508,329.195 135.010 C 328.718 135.900,327.265 136.429,325.216 136.460 C 324.383 136.472,324.336 136.532,324.911 136.854 C 325.348 137.099,325.866 137.086,326.368 136.817 C 326.797 136.588,327.474 136.400,327.874 136.400 C 328.273 136.400,329.103 135.770,329.717 135.000 C 330.331 134.230,331.051 133.594,331.317 133.587 C 331.583 133.580,332.149 133.310,332.576 132.987 C 333.677 132.155,332.866 132.323,331.142 133.284 M44.400 133.600 L 42.600 133.880 44.200 133.893 C 45.080 133.900,46.340 133.768,47.000 133.600 C 48.600 133.193,47.019 133.193,44.400 133.600 M39.705 134.287 C 40.314 134.379,41.214 134.377,41.705 134.282 C 42.197 134.187,41.700 134.111,40.600 134.114 C 39.500 134.117,39.097 134.195,39.705 134.287 M33.200 135.592 C 33.200 135.808,32.745 136.099,32.189 136.238 C 30.778 136.593,30.388 137.554,30.474 140.474 L 30.548 143.000 30.678 140.800 C 30.856 137.776,31.121 136.800,31.763 136.800 C 32.459 136.800,34.374 135.231,33.700 135.213 C 33.425 135.206,33.200 135.377,33.200 135.592 M63.168 136.150 C 63.626 136.355,65.078 136.331,66.675 136.093 L 69.400 135.686 65.894 135.743 C 63.521 135.782,62.640 135.913,63.168 136.150 M316.310 136.324 C 315.887 136.846,315.896 136.895,316.362 136.615 C 316.671 136.429,318.200 136.317,319.759 136.368 C 323.288 136.482,323.126 136.177,319.510 135.900 C 317.368 135.736,316.716 135.822,316.310 136.324 M315.693 139.200 C 315.693 139.970,315.775 140.285,315.876 139.900 C 315.976 139.515,315.976 138.885,315.876 138.500 C 315.775 138.115,315.693 138.430,315.693 139.200 M326.742 144.319 C 327.113 144.579,327.239 145.341,327.142 146.730 C 327.064 147.847,327.146 148.615,327.324 148.436 C 327.895 147.864,327.462 144.279,326.800 144.101 C 326.315 143.970,326.304 144.012,326.742 144.319 M60.645 144.728 C 60.533 144.908,60.973 144.977,61.621 144.882 C 62.270 144.787,62.800 144.640,62.800 144.555 C 62.800 144.250,60.843 144.407,60.645 144.728 M315.450 145.650 C 315.117 147.317,315.440 147.640,315.800 146.000 C 315.952 145.309,315.993 144.659,315.891 144.558 C 315.789 144.456,315.591 144.947,315.450 145.650 M64.500 145.632 C 64.885 145.856,65.221 146.436,65.246 146.920 C 65.284 147.626,65.330 147.657,65.479 147.081 C 65.684 146.291,64.963 145.193,64.251 145.212 C 64.003 145.219,64.115 145.408,64.500 145.632 M30.120 148.400 C 30.120 149.610,30.195 150.105,30.287 149.500 C 30.378 148.895,30.378 147.905,30.287 147.300 C 30.195 146.695,30.120 147.190,30.120 148.400 M322.493 148.400 C 322.493 149.170,322.575 149.485,322.676 149.100 C 322.776 148.715,322.776 148.085,322.676 147.700 C 322.575 147.315,322.493 147.630,322.493 148.400 M314.893 148.800 C 314.893 149.570,314.975 149.885,315.076 149.500 C 315.176 149.115,315.176 148.485,315.076 148.100 C 314.975 147.715,314.893 148.030,314.893 148.800 M326.393 151.481 C 326.287 152.625,326.347 153.415,326.526 153.235 C 326.705 153.056,326.791 152.119,326.718 151.154 L 326.585 149.400 326.393 151.481 M314.352 151.513 C 314.221 152.307,314.279 152.681,314.501 152.459 C 314.703 152.257,314.801 151.667,314.719 151.146 C 314.593 150.345,314.537 150.402,314.352 151.513 M325.693 155.200 C 325.693 155.970,325.775 156.285,325.876 155.900 C 325.976 155.515,325.976 154.885,325.876 154.500 C 325.775 154.115,325.693 154.430,325.693 155.200 M66.501 155.800 C 66.505 156.680,66.587 156.993,66.683 156.495 C 66.779 155.998,66.775 155.278,66.675 154.895 C 66.575 154.513,66.496 154.920,66.501 155.800 M29.701 157.000 C 29.705 157.880,29.787 158.193,29.883 157.695 C 29.979 157.198,29.975 156.478,29.875 156.095 C 29.775 155.713,29.696 156.120,29.701 157.000 M312.617 157.073 C 312.469 157.663,312.001 158.864,311.577 159.742 C 311.153 160.620,310.871 161.405,310.951 161.485 C 311.146 161.679,312.693 158.365,313.025 157.044 C 313.169 156.470,313.197 156.000,313.087 156.000 C 312.977 156.000,312.766 156.483,312.617 157.073 M62.046 157.051 C 62.021 157.519,62.315 158.149,62.700 158.451 C 63.309 158.928,63.340 158.922,62.943 158.400 C 62.692 158.070,62.398 157.440,62.289 157.000 C 62.103 156.240,62.090 156.243,62.046 157.051 M325.167 157.566 C 325.054 158.222,324.591 158.672,323.729 158.966 C 323.029 159.205,322.323 159.537,322.158 159.704 C 321.658 160.212,324.561 159.131,325.138 158.595 C 325.435 158.320,325.600 157.758,325.506 157.347 C 325.365 156.734,325.305 156.773,325.167 157.566 M29.293 160.000 C 29.293 160.770,29.375 161.085,29.476 160.700 C 29.576 160.315,29.576 159.685,29.476 159.300 C 29.375 158.915,29.293 159.230,29.293 160.000 M64.000 159.205 C 64.330 159.416,65.125 159.591,65.767 159.594 C 67.314 159.602,66.977 159.371,65.000 159.068 C 63.910 158.901,63.591 158.945,64.000 159.205 M27.844 164.303 C 27.032 166.102,24.517 168.868,21.933 170.803 C 19.923 172.308,18.778 173.881,18.836 175.062 C 18.856 175.468,19.040 175.218,19.246 174.506 C 19.493 173.652,20.465 172.520,22.110 171.170 C 25.964 168.009,29.427 163.694,28.697 162.963 C 28.602 162.869,28.218 163.472,27.844 164.303 M306.429 167.756 L 304.257 170.200 306.610 167.914 C 307.904 166.657,308.881 165.558,308.781 165.471 C 308.682 165.384,307.623 166.412,306.429 167.756 M297.307 172.376 C 296.377 172.528,295.483 172.783,295.322 172.944 C 294.945 173.322,298.411 172.799,299.200 172.359 C 299.873 171.983,299.706 171.985,297.307 172.376 M292.500 173.476 C 292.885 173.576,293.515 173.576,293.900 173.476 C 294.285 173.375,293.970 173.293,293.200 173.293 C 292.430 173.293,292.115 173.375,292.500 173.476 M163.800 173.968 C 161.858 174.193,280.386 174.107,288.000 173.877 C 290.090 173.814,263.450 173.757,228.800 173.749 C 194.150 173.741,164.900 173.840,163.800 173.968 M18.514 177.800 C 18.517 178.900,18.595 179.303,18.687 178.695 C 18.779 178.086,18.777 177.186,18.682 176.695 C 18.587 176.203,18.511 176.700,18.514 177.800 M17.676 183.644 C 17.634 184.878,17.515 186.768,17.411 187.844 L 17.222 189.800 17.629 187.846 C 17.853 186.771,17.972 184.881,17.894 183.646 L 17.751 181.400 17.676 183.644 M16.909 191.600 C 16.909 192.590,16.987 192.995,17.082 192.500 C 17.178 192.005,17.178 191.195,17.082 190.700 C 16.987 190.205,16.909 190.610,16.909 191.600 M16.534 198.000 C 16.534 199.650,16.605 200.325,16.691 199.500 C 16.778 198.675,16.778 197.325,16.691 196.500 C 16.605 195.675,16.534 196.350,16.534 198.000 M174.705 199.883 C 175.202 199.979,175.922 199.975,176.305 199.875 C 176.687 199.775,176.280 199.696,175.400 199.701 C 174.520 199.705,174.207 199.787,174.705 199.883 M200.900 199.876 C 201.285 199.976,201.915 199.976,202.300 199.876 C 202.685 199.775,202.370 199.693,201.600 199.693 C 200.830 199.693,200.515 199.775,200.900 199.876 M203.568 201.500 C 203.759 202.881,203.787 202.909,203.919 201.851 C 203.998 201.219,203.905 200.545,203.712 200.352 C 203.510 200.150,203.449 200.640,203.568 201.500 M168.202 202.500 C 168.085 202.995,168.171 203.940,168.392 204.600 C 168.772 205.733,168.782 205.715,168.573 204.270 C 168.442 203.359,168.544 202.509,168.825 202.170 C 169.154 201.773,169.164 201.600,168.857 201.600 C 168.614 201.600,168.319 202.005,168.202 202.500 M15.501 203.400 C 14.806 206.698,14.795 206.936,15.410 205.273 C 15.761 204.323,15.982 203.243,15.901 202.873 C 15.810 202.456,15.658 202.656,15.501 203.400 M203.592 207.800 L 203.400 212.600 201.200 212.835 L 199.000 213.070 201.051 213.135 C 203.909 213.226,204.050 212.950,203.906 207.543 L 203.785 203.000 203.592 207.800 M14.928 213.200 C 14.928 214.630,15.001 215.215,15.089 214.500 C 15.178 213.785,15.178 212.615,15.089 211.900 C 15.001 211.185,14.928 211.770,14.928 213.200 M15.867 219.400 C 16.044 219.840,16.192 221.218,16.195 222.463 C 16.198 223.707,16.332 224.517,16.494 224.263 C 17.001 223.464,16.798 220.643,16.158 219.600 C 15.817 219.044,15.688 218.955,15.867 219.400 M15.701 226.600 C 15.705 227.480,15.787 227.793,15.883 227.295 C 15.979 226.798,15.975 226.078,15.875 225.695 C 15.775 225.313,15.696 225.720,15.701 226.600 M18.352 239.287 C 18.537 240.398,18.593 240.455,18.719 239.654 C 18.801 239.133,18.703 238.543,18.501 238.341 C 18.279 238.119,18.221 238.493,18.352 239.287 M329.491 240.689 C 330.201 240.777,331.461 240.779,332.291 240.692 C 333.121 240.605,332.540 240.533,331.000 240.531 C 329.460 240.529,328.781 240.600,329.491 240.689 M319.500 243.029 C 317.949 243.870,318.125 244.161,319.700 243.359 C 321.208 242.593,321.475 242.394,320.967 242.416 C 320.765 242.425,320.105 242.701,319.500 243.029 M313.775 247.300 L 312.600 248.600 313.900 247.425 C 315.112 246.330,315.384 246.000,315.075 246.000 C 315.006 246.000,314.421 246.585,313.775 247.300 M22.479 251.609 C 22.939 252.715,23.383 253.550,23.467 253.466 C 23.655 253.278,22.104 249.600,21.836 249.600 C 21.731 249.600,22.020 250.504,22.479 251.609 M76.305 251.883 C 76.802 251.979,77.522 251.975,77.905 251.875 C 78.287 251.775,77.880 251.696,77.000 251.701 C 76.120 251.705,75.807 251.787,76.305 251.883 M81.705 251.887 C 82.314 251.979,83.214 251.977,83.705 251.882 C 84.197 251.787,83.700 251.711,82.600 251.714 C 81.500 251.717,81.097 251.795,81.705 251.887 M88.300 252.289 C 89.015 252.378,90.185 252.378,90.900 252.289 C 91.615 252.201,91.030 252.128,89.600 252.128 C 88.170 252.128,87.585 252.201,88.300 252.289 M95.305 252.687 C 95.914 252.779,96.814 252.777,97.305 252.682 C 97.797 252.587,97.300 252.511,96.200 252.514 C 95.100 252.517,94.697 252.595,95.305 252.687 M99.300 253.076 C 99.685 253.176,100.315 253.176,100.700 253.076 C 101.085 252.975,100.770 252.893,100.000 252.893 C 99.230 252.893,98.915 252.975,99.300 253.076 M109.312 253.495 C 110.364 253.577,111.984 253.576,112.912 253.492 C 113.840 253.408,112.980 253.341,111.000 253.342 C 109.020 253.343,108.260 253.412,109.312 253.495 M24.400 255.600 C 24.849 256.480,25.306 257.200,25.416 257.200 C 25.526 257.200,25.249 256.480,24.800 255.600 C 24.351 254.720,23.894 254.000,23.784 254.000 C 23.674 254.000,23.951 254.720,24.400 255.600 M66.676 255.300 C 65.430 256.533,65.425 256.549,66.581 255.603 C 67.252 255.055,67.971 254.470,68.180 254.303 C 68.389 254.136,68.431 254.000,68.274 254.000 C 68.117 254.000,67.398 254.585,66.676 255.300 M126.933 254.385 C 133.603 254.598,133.672 254.609,134.219 255.600 C 134.894 256.822,134.975 256.422,134.336 255.019 L 133.872 254.000 127.036 254.085 L 120.200 254.171 126.933 254.385 M288.515 254.296 C 289.788 254.376,291.768 254.375,292.915 254.294 C 294.062 254.214,293.020 254.149,290.600 254.150 C 288.180 254.151,287.242 254.216,288.515 254.296 M280.307 254.690 C 281.026 254.779,282.106 254.777,282.707 254.686 C 283.308 254.595,282.720 254.522,281.400 254.524 C 280.080 254.526,279.588 254.601,280.307 254.690 M142.316 255.097 C 143.699 255.175,145.859 255.174,147.116 255.095 C 148.372 255.016,147.240 254.952,144.600 254.953 C 141.960 254.953,140.932 255.018,142.316 255.097 M247.433 255.326 C 247.003 255.641,246.792 256.164,246.910 256.626 C 247.092 257.341,247.111 257.336,247.154 256.561 C 247.179 256.100,247.605 255.527,248.100 255.288 C 248.595 255.049,248.809 254.842,248.576 254.827 C 248.344 254.812,247.829 255.037,247.433 255.326 M267.500 255.098 C 269.315 255.172,272.285 255.172,274.100 255.098 C 275.915 255.023,274.430 254.963,270.800 254.963 C 267.170 254.963,265.685 255.023,267.500 255.098 M305.941 255.301 C 306.143 255.503,306.733 255.601,307.254 255.519 C 308.055 255.393,307.998 255.337,306.887 255.152 C 306.093 255.021,305.719 255.079,305.941 255.301 M138.386 255.817 C 137.969 256.319,137.971 256.524,138.396 256.917 C 138.766 257.259,138.841 257.264,138.655 256.932 C 138.511 256.675,138.677 256.180,139.025 255.832 C 139.373 255.485,139.486 255.200,139.278 255.200 C 139.069 255.200,138.668 255.478,138.386 255.817 M166.078 255.498 C 168.431 255.569,172.391 255.569,174.878 255.499 C 177.365 255.429,175.440 255.371,170.600 255.370 C 165.760 255.370,163.725 255.428,166.078 255.498 M226.522 255.499 C 228.899 255.570,232.679 255.569,234.922 255.498 C 237.165 255.427,235.220 255.369,230.600 255.369 C 225.980 255.370,224.145 255.428,226.522 255.499 M241.050 255.569 C 241.517 255.772,242.093 256.491,242.329 257.169 C 242.751 258.378,245.930 259.082,246.539 258.100 C 246.641 257.935,245.887 257.853,244.862 257.918 C 243.099 258.030,242.968 257.966,242.400 256.718 C 242.053 255.956,241.462 255.358,241.000 255.300 C 240.257 255.208,240.261 255.227,241.050 255.569 M346.109 256.800 C 346.109 257.790,346.187 258.195,346.282 257.700 C 346.378 257.205,346.378 256.395,346.282 255.900 C 346.187 255.405,346.109 255.810,346.109 256.800 M181.900 255.895 C 183.055 255.976,184.945 255.976,186.100 255.895 C 187.255 255.814,186.310 255.748,184.000 255.748 C 181.690 255.748,180.745 255.814,181.900 255.895 M210.118 255.898 C 211.833 255.973,214.533 255.972,216.118 255.897 C 217.703 255.821,216.300 255.759,213.000 255.760 C 209.700 255.761,208.403 255.822,210.118 255.898 M135.376 257.413 C 136.286 258.101,136.778 258.138,137.600 257.582 C 138.050 257.277,137.935 257.237,137.144 257.420 C 136.551 257.558,135.970 257.475,135.820 257.232 C 135.673 256.995,135.338 256.806,135.076 256.813 C 134.814 256.820,134.949 257.090,135.376 257.413 M63.776 258.838 C 63.208 259.739,62.825 260.558,62.925 260.659 C 63.026 260.759,63.566 260.022,64.126 259.021 C 65.392 256.755,65.166 256.636,63.776 258.838 M25.949 258.200 C 26.165 258.640,26.634 259.360,26.993 259.800 L 27.644 260.600 27.251 259.800 C 27.035 259.360,26.566 258.640,26.207 258.200 L 25.556 257.400 25.949 258.200 M28.341 260.901 C 28.543 261.103,29.133 261.201,29.654 261.119 C 30.455 260.993,30.398 260.937,29.287 260.752 C 28.493 260.621,28.119 260.679,28.341 260.901 M61.000 261.414 C 59.995 261.898,59.963 261.953,60.800 261.751 C 61.350 261.619,61.971 261.350,62.180 261.155 C 62.698 260.671,62.414 260.733,61.000 261.414 M32.305 261.483 C 32.802 261.579,33.522 261.575,33.905 261.475 C 34.287 261.375,33.880 261.296,33.000 261.301 C 32.120 261.305,31.807 261.387,32.305 261.483 M35.891 261.889 C 36.601 261.977,37.861 261.979,38.691 261.892 C 39.521 261.805,38.940 261.733,37.400 261.731 C 35.860 261.729,35.181 261.800,35.891 261.889 M56.000 262.400 C 55.196 262.657,55.157 262.723,55.800 262.732 C 56.240 262.738,56.960 262.589,57.400 262.400 C 58.419 261.962,57.368 261.962,56.000 262.400 M358.691 266.689 C 359.401 266.777,360.661 266.779,361.491 266.692 C 362.321 266.605,361.740 266.533,360.200 266.531 C 358.660 266.529,357.981 266.600,358.691 266.689 M366.311 267.093 C 367.251 267.178,368.691 267.177,369.511 267.091 C 370.330 267.005,369.560 266.936,367.800 266.937 C 366.040 266.939,365.370 267.009,366.311 267.093 " stroke="none" fill="#a2a2a2" fill-rule="evenodd"></path><path id="path3" d="M38.400 134.018 C 37.962 134.315,38.124 134.352,39.000 134.156 C 40.471 133.827,40.790 133.598,39.767 133.606 C 39.345 133.609,38.730 133.795,38.400 134.018 M319.233 135.745 C 319.325 135.824,320.480 135.987,321.800 136.107 C 323.249 136.238,323.883 136.192,323.400 135.990 C 322.630 135.669,318.893 135.449,319.233 135.745 M30.120 139.600 C 30.120 140.810,30.195 141.305,30.287 140.700 C 30.378 140.095,30.378 139.105,30.287 138.500 C 30.195 137.895,30.120 138.390,30.120 139.600 M315.293 139.200 C 315.293 139.970,315.375 140.285,315.476 139.900 C 315.576 139.515,315.576 138.885,315.476 138.500 C 315.375 138.115,315.293 138.430,315.293 139.200 M315.293 144.800 C 315.293 145.570,315.375 145.885,315.476 145.500 C 315.576 145.115,315.576 144.485,315.476 144.100 C 315.375 143.715,315.293 144.030,315.293 144.800 M326.860 146.867 C 326.827 147.454,326.696 148.264,326.570 148.667 C 326.352 149.360,326.365 149.361,326.795 148.690 C 327.046 148.299,327.177 147.489,327.086 146.890 L 326.920 145.800 326.860 146.867 M314.501 149.000 C 314.505 149.880,314.587 150.193,314.683 149.695 C 314.779 149.198,314.775 148.478,314.675 148.095 C 314.575 147.713,314.496 148.120,314.501 149.000 M61.293 149.200 C 61.293 149.970,61.375 150.285,61.476 149.900 C 61.576 149.515,61.576 148.885,61.476 148.500 C 61.375 148.115,61.293 148.430,61.293 149.200 M65.293 149.600 C 65.293 150.370,65.375 150.685,65.476 150.300 C 65.576 149.915,65.576 149.285,65.476 148.900 C 65.375 148.515,65.293 148.830,65.293 149.600 M29.720 152.000 C 29.720 153.210,29.795 153.705,29.887 153.100 C 29.978 152.495,29.978 151.505,29.887 150.900 C 29.795 150.295,29.720 150.790,29.720 152.000 M325.990 151.681 C 325.884 152.716,325.945 153.415,326.126 153.234 C 326.307 153.053,326.393 152.207,326.319 151.353 L 326.183 149.800 325.990 151.681 M322.093 152.000 C 322.093 152.770,322.175 153.085,322.276 152.700 C 322.376 152.315,322.376 151.685,322.276 151.300 C 322.175 150.915,322.093 151.230,322.093 152.000 M325.293 155.200 C 325.293 155.970,325.375 156.285,325.476 155.900 C 325.576 155.515,325.576 154.885,325.476 154.500 C 325.375 154.115,325.293 154.430,325.293 155.200 M29.309 156.800 C 29.309 157.790,29.387 158.195,29.482 157.700 C 29.578 157.205,29.578 156.395,29.482 155.900 C 29.387 155.405,29.309 155.810,29.309 156.800 M311.265 159.417 C 310.595 160.888,310.723 161.202,311.447 159.865 C 311.786 159.240,311.988 158.654,311.896 158.563 C 311.805 158.471,311.521 158.856,311.265 159.417 M26.423 165.900 C 25.691 166.945,25.431 167.497,25.846 167.127 C 26.571 166.480,28.199 164.000,27.900 164.000 C 27.820 164.000,27.155 164.855,26.423 165.900 M303.206 170.023 C 302.440 170.450,302.080 170.796,302.406 170.791 C 302.733 170.786,303.450 170.430,304.000 170.000 C 305.256 169.017,304.996 169.025,303.206 170.023 M299.800 171.485 C 299.360 171.591,298.832 171.837,298.627 172.032 C 298.422 172.227,298.851 172.215,299.581 172.005 C 301.643 171.414,301.817 171.000,299.800 171.485 M19.022 173.023 C 18.651 173.588,18.425 174.528,18.516 175.123 L 18.680 176.200 18.740 175.086 C 18.773 174.473,19.091 173.528,19.446 172.986 C 19.801 172.444,20.002 172.000,19.892 172.000 C 19.782 172.000,19.390 172.460,19.022 173.023 M162.500 173.887 C 163.105 173.978,164.095 173.978,164.700 173.887 C 165.305 173.795,164.810 173.720,163.600 173.720 C 162.390 173.720,161.895 173.795,162.500 173.887 M18.109 178.000 C 18.109 178.990,18.187 179.395,18.282 178.900 C 18.378 178.405,18.378 177.595,18.282 177.100 C 18.187 176.605,18.109 177.010,18.109 178.000 M17.337 184.200 C 17.339 185.960,17.409 186.630,17.493 185.689 C 17.578 184.749,17.577 183.309,17.491 182.489 C 17.405 181.670,17.336 182.440,17.337 184.200 M16.514 192.200 C 16.517 193.300,16.595 193.703,16.687 193.095 C 16.779 192.486,16.777 191.586,16.682 191.095 C 16.587 190.603,16.511 191.100,16.514 192.200 M16.109 198.400 C 16.109 199.390,16.187 199.795,16.282 199.300 C 16.378 198.805,16.378 197.995,16.282 197.500 C 16.187 197.005,16.109 197.410,16.109 198.400 M181.324 200.299 C 184.583 200.367,189.803 200.366,192.924 200.299 C 196.046 200.231,193.380 200.176,187.000 200.177 C 180.620 200.177,178.066 200.232,181.324 200.299 M202.700 200.399 C 203.050 200.792,203.200 202.666,203.200 206.659 L 203.200 212.358 201.198 212.514 L 199.195 212.670 201.298 212.635 L 203.400 212.600 203.510 206.758 C 203.609 201.551,203.543 200.857,202.910 200.377 C 202.305 199.918,202.274 199.921,202.700 200.399 M15.254 203.067 C 15.225 203.544,15.096 204.264,14.970 204.667 C 14.752 205.361,14.764 205.362,15.196 204.688 C 15.447 204.297,15.575 203.577,15.481 203.088 C 15.309 202.201,15.309 202.201,15.254 203.067 M14.554 210.400 C 14.554 213.150,14.618 214.275,14.696 212.900 C 14.774 211.525,14.774 209.275,14.696 207.900 C 14.618 206.525,14.554 207.650,14.554 210.400 M15.301 226.600 C 15.305 227.480,15.387 227.793,15.483 227.295 C 15.579 226.798,15.575 226.078,15.475 225.695 C 15.375 225.313,15.296 225.720,15.301 226.600 M17.206 236.633 C 17.209 237.055,17.395 237.670,17.618 238.000 C 17.915 238.438,17.952 238.276,17.756 237.400 C 17.427 235.929,17.198 235.610,17.206 236.633 M18.068 239.400 C 18.062 239.840,18.211 240.560,18.400 241.000 C 18.838 242.019,18.838 240.968,18.400 239.600 C 18.143 238.796,18.077 238.757,18.068 239.400 M326.400 241.191 C 325.630 241.349,326.980 241.390,329.400 241.284 C 331.820 241.177,333.875 241.025,333.967 240.945 C 334.263 240.687,327.845 240.896,326.400 241.191 M334.900 241.476 C 335.285 241.576,335.915 241.576,336.300 241.476 C 336.685 241.375,336.370 241.293,335.600 241.293 C 334.830 241.293,334.515 241.375,334.900 241.476 M21.215 249.600 C 21.221 249.930,21.490 250.549,21.813 250.976 C 22.568 251.975,22.563 251.605,21.802 250.146 C 21.474 249.516,21.210 249.270,21.215 249.600 M84.100 252.276 C 84.485 252.376,85.115 252.376,85.500 252.276 C 85.885 252.175,85.570 252.093,84.800 252.093 C 84.030 252.093,83.715 252.175,84.100 252.276 M88.307 252.690 C 89.026 252.779,90.106 252.777,90.707 252.686 C 91.308 252.595,90.720 252.522,89.400 252.524 C 88.080 252.526,87.588 252.601,88.307 252.690 M345.228 253.633 C 345.244 254.165,345.419 254.960,345.619 255.400 C 345.871 255.958,345.907 255.715,345.738 254.600 C 345.455 252.743,345.187 252.236,345.228 253.633 M100.500 253.494 C 101.545 253.576,103.255 253.576,104.300 253.494 C 105.345 253.412,104.490 253.344,102.400 253.344 C 100.310 253.344,99.455 253.412,100.500 253.494 M110.900 253.887 C 111.505 253.978,112.495 253.978,113.100 253.887 C 113.705 253.795,113.210 253.720,112.000 253.720 C 110.790 253.720,110.295 253.795,110.900 253.887 M116.505 254.287 C 117.114 254.379,118.014 254.377,118.505 254.282 C 118.997 254.187,118.500 254.111,117.400 254.114 C 116.300 254.117,115.897 254.195,116.505 254.287 M298.307 254.290 C 299.026 254.379,300.106 254.377,300.707 254.286 C 301.308 254.195,300.720 254.122,299.400 254.124 C 298.080 254.126,297.588 254.201,298.307 254.290 M126.600 254.691 C 132.545 254.796,133.050 254.864,133.700 255.646 C 134.511 256.622,134.636 256.144,133.843 255.100 C 133.370 254.477,132.594 254.410,126.756 254.489 L 120.200 254.578 126.600 254.691 M289.113 254.695 C 290.276 254.776,292.076 254.776,293.113 254.693 C 294.151 254.611,293.200 254.545,291.000 254.546 C 288.800 254.547,287.951 254.614,289.113 254.695 M278.500 255.076 C 278.885 255.176,279.515 255.176,279.900 255.076 C 280.285 254.975,279.970 254.893,279.200 254.893 C 278.430 254.893,278.115 254.975,278.500 255.076 M139.149 255.900 C 138.664 256.518,138.674 256.542,139.232 256.107 C 139.685 255.754,142.697 255.582,149.832 255.500 L 159.800 255.385 149.749 255.293 C 140.586 255.208,139.649 255.262,139.149 255.900 M247.680 255.680 C 247.416 255.944,247.221 256.619,247.247 257.180 C 247.291 258.127,247.313 258.114,247.551 257.000 L 247.808 255.800 262.804 255.593 L 277.800 255.385 262.980 255.293 C 251.881 255.223,248.039 255.321,247.680 255.680 M170.117 255.897 C 171.611 255.974,173.951 255.974,175.317 255.896 C 176.682 255.818,175.460 255.755,172.600 255.755 C 169.740 255.756,168.622 255.820,170.117 255.897 M226.917 255.897 C 228.411 255.974,230.751 255.974,232.117 255.896 C 233.482 255.818,232.260 255.755,229.400 255.755 C 226.540 255.756,225.422 255.820,226.917 255.897 M192.924 256.299 C 195.962 256.367,200.822 256.367,203.724 256.299 C 206.626 256.231,204.140 256.175,198.200 256.175 C 192.260 256.175,189.886 256.231,192.924 256.299 M242.349 258.100 C 242.761 258.625,243.411 258.782,244.949 258.728 L 247.000 258.656 245.010 258.502 C 243.916 258.418,242.746 258.135,242.410 257.874 C 241.877 257.460,241.869 257.488,242.349 258.100 M28.360 261.320 C 28.546 261.506,29.306 261.596,30.049 261.519 C 31.367 261.383,31.358 261.375,29.710 261.180 C 28.781 261.071,28.173 261.133,28.360 261.320 M40.300 262.298 C 42.115 262.372,45.085 262.372,46.900 262.298 C 48.715 262.223,47.230 262.163,43.600 262.163 C 39.970 262.163,38.485 262.223,40.300 262.298 M53.700 263.076 C 54.085 263.176,54.715 263.176,55.100 263.076 C 55.485 262.975,55.170 262.893,54.400 262.893 C 53.630 262.893,53.315 262.975,53.700 263.076 M349.700 266.294 C 350.745 266.376,352.455 266.376,353.500 266.294 C 354.545 266.212,353.690 266.144,351.600 266.144 C 349.510 266.144,348.655 266.212,349.700 266.294 M361.905 267.083 C 362.402 267.179,363.122 267.175,363.505 267.075 C 363.887 266.975,363.480 266.896,362.600 266.901 C 361.720 266.905,361.407 266.987,361.905 267.083 M367.800 267.200 L 364.200 267.449 367.600 267.518 C 369.470 267.556,371.270 267.413,371.600 267.200 C 371.930 266.987,372.020 266.844,371.800 266.882 C 371.580 266.920,369.780 267.063,367.800 267.200 " stroke="none" fill="#7c7c7c" fill-rule="evenodd"></path><path id="path4" d="M40.900 133.876 C 41.285 133.976,41.915 133.976,42.300 133.876 C 42.685 133.775,42.370 133.693,41.600 133.693 C 40.830 133.693,40.515 133.775,40.900 133.876 M30.128 144.000 C 30.128 145.430,30.201 146.015,30.289 145.300 C 30.378 144.585,30.378 143.415,30.289 142.700 C 30.201 141.985,30.128 142.570,30.128 144.000 M78.900 251.876 C 79.285 251.976,79.915 251.976,80.300 251.876 C 80.685 251.775,80.370 251.693,79.600 251.693 C 78.830 251.693,78.515 251.775,78.900 251.876 M92.305 252.683 C 92.802 252.779,93.522 252.775,93.905 252.675 C 94.287 252.575,93.880 252.496,93.000 252.501 C 92.120 252.505,91.807 252.587,92.305 252.683 M295.300 254.276 C 295.685 254.376,296.315 254.376,296.700 254.276 C 297.085 254.175,296.770 254.093,296.000 254.093 C 295.230 254.093,294.915 254.175,295.300 254.276 M284.505 254.687 C 285.114 254.779,286.014 254.777,286.505 254.682 C 286.997 254.587,286.500 254.511,285.400 254.514 C 284.300 254.517,283.897 254.595,284.505 254.687 M160.100 255.476 C 160.485 255.576,161.115 255.576,161.500 255.476 C 161.885 255.375,161.570 255.293,160.800 255.293 C 160.030 255.293,159.715 255.375,160.100 255.476 M178.100 255.876 C 178.485 255.976,179.115 255.976,179.500 255.876 C 179.885 255.775,179.570 255.693,178.800 255.693 C 178.030 255.693,177.715 255.775,178.100 255.876 M221.705 255.887 C 222.314 255.979,223.214 255.977,223.705 255.882 C 224.197 255.787,223.700 255.711,222.600 255.714 C 221.500 255.717,221.097 255.795,221.705 255.887 M346.137 261.400 C 346.139 263.160,346.209 263.830,346.293 262.889 C 346.378 261.949,346.377 260.509,346.291 259.689 C 346.205 258.870,346.136 259.640,346.137 261.400 " stroke="none" fill="#848484" fill-rule="evenodd"></path></g></svg>