<svg id="svg" version="1.1" xmlns="http://www.w3.org/2000/svg" xmlns:xlink="http://www.w3.org/1999/xlink" width="400" height="400" viewBox="0, 0, 400,400"><g id="svgg"><path id="path0" d="M82.200 139.663 C 79.780 139.847,75.730 140.190,73.200 140.427 C 70.670 140.663,65.923 141.020,62.651 141.220 C 59.378 141.420,56.498 141.744,56.251 141.939 C 56.003 142.135,53.948 142.392,51.686 142.510 C 49.423 142.629,47.353 142.898,47.086 143.109 C 46.818 143.319,45.588 143.604,44.350 143.743 C 43.113 143.882,41.583 144.265,40.950 144.595 C 40.318 144.925,39.433 145.196,38.985 145.198 C 38.028 145.200,34.400 148.736,34.400 149.665 C 34.400 150.015,34.130 150.526,33.800 150.800 C 33.470 151.074,33.200 151.614,33.200 152.000 C 33.200 152.386,32.946 152.913,32.635 153.171 C 32.324 153.429,31.947 154.531,31.797 155.620 C 31.648 156.708,31.379 157.690,31.200 157.800 C 31.021 157.910,30.746 158.939,30.588 160.084 C 30.431 161.230,30.156 162.445,29.977 162.784 C 29.798 163.123,29.273 166.100,28.810 169.400 C 28.347 172.700,27.769 176.480,27.525 177.800 C 26.111 185.474,26.956 215.941,28.784 223.200 C 28.978 223.970,29.259 225.906,29.409 227.502 C 29.559 229.097,29.833 230.497,30.018 230.611 C 30.203 230.725,30.477 231.669,30.627 232.709 C 30.778 233.749,31.038 234.780,31.206 235.000 C 31.373 235.220,31.636 236.336,31.790 237.480 C 31.944 238.624,32.324 239.771,32.635 240.029 C 32.946 240.287,33.200 240.802,33.200 241.174 C 33.200 241.546,33.740 242.368,34.400 243.000 C 35.060 243.632,35.600 244.448,35.600 244.813 C 35.600 245.611,36.831 246.800,37.657 246.800 C 37.983 246.800,38.768 247.340,39.400 248.000 C 40.098 248.729,40.957 249.200,41.586 249.200 C 42.156 249.200,42.977 249.448,43.411 249.751 C 43.845 250.054,45.730 250.418,47.600 250.560 C 49.470 250.703,53.070 251.076,55.600 251.391 C 62.020 252.189,68.448 252.717,78.000 253.232 C 88.573 253.801,301.508 253.438,307.200 252.840 C 309.290 252.621,313.562 252.265,316.693 252.049 C 319.823 251.833,322.523 251.573,322.693 251.471 C 322.862 251.369,324.928 251.079,327.283 250.828 C 329.639 250.576,332.069 250.108,332.683 249.787 C 333.298 249.467,334.183 249.204,334.651 249.202 C 335.119 249.201,335.726 248.930,336.000 248.600 C 336.274 248.270,336.796 248.000,337.161 248.000 C 338.007 248.000,342.800 243.188,342.800 242.338 C 342.800 241.986,343.070 241.474,343.400 241.200 C 343.730 240.926,344.001 240.319,344.002 239.851 C 344.004 239.383,344.249 238.531,344.548 237.959 C 344.847 237.386,345.216 236.085,345.369 235.068 C 345.521 234.051,345.795 233.127,345.976 233.015 C 346.157 232.903,346.430 231.651,346.582 230.233 C 346.733 228.816,347.113 226.698,347.424 225.528 C 348.165 222.743,348.160 221.964,347.400 222.255 C 346.960 222.424,346.800 223.118,346.800 224.855 C 346.800 226.593,346.640 227.287,346.200 227.455 C 345.793 227.612,345.600 228.250,345.600 229.443 C 345.600 230.738,345.442 231.200,345.000 231.200 C 344.556 231.200,344.400 231.667,344.400 233.000 C 344.400 234.333,344.244 234.800,343.800 234.800 C 343.470 234.800,343.200 235.154,343.200 235.587 C 343.200 236.354,340.708 239.200,340.036 239.200 C 339.850 239.200,339.474 239.470,339.200 239.800 C 338.926 240.130,338.364 240.400,337.951 240.400 C 337.538 240.400,337.200 240.550,337.200 240.733 C 337.200 241.293,333.617 242.051,329.230 242.419 C 326.936 242.611,324.776 242.882,324.430 243.021 C 324.083 243.160,321.280 243.428,318.200 243.618 C 315.120 243.807,309.810 244.157,306.400 244.394 C 297.164 245.037,79.320 244.737,73.600 244.073 C 68.927 243.530,63.329 242.940,57.600 242.385 C 51.075 241.752,48.646 240.975,46.005 238.673 C 44.667 237.508,42.400 234.671,42.400 234.164 C 42.400 234.030,42.148 233.354,41.840 232.660 C 40.920 230.587,39.221 223.607,38.807 220.200 C 38.647 218.880,38.311 216.540,38.061 215.000 C 36.508 205.454,36.400 203.996,36.424 192.783 C 36.437 186.522,36.624 180.500,36.839 179.400 C 37.054 178.300,37.384 175.690,37.571 173.600 C 37.758 171.510,38.111 169.293,38.355 168.674 C 38.600 168.055,38.798 166.975,38.797 166.274 C 38.793 164.942,39.772 160.262,40.485 158.200 C 40.714 157.540,40.989 156.370,41.098 155.600 C 41.206 154.830,41.429 154.020,41.592 153.800 C 41.756 153.580,42.019 152.862,42.177 152.204 C 42.334 151.546,42.584 150.916,42.732 150.804 C 42.879 150.692,43.355 149.903,43.790 149.051 C 44.224 148.198,44.989 147.315,45.490 147.086 C 45.990 146.858,46.400 146.520,46.400 146.336 C 46.400 146.151,46.648 146.000,46.951 146.000 C 47.254 146.000,47.726 145.730,48.000 145.400 C 48.355 144.973,49.293 144.800,51.262 144.800 C 53.349 144.800,54.081 144.653,54.255 144.200 C 54.438 143.723,55.290 143.600,58.400 143.600 C 61.510 143.600,62.362 143.477,62.545 143.000 C 62.733 142.509,63.726 142.400,68.016 142.400 C 72.141 142.400,73.385 142.272,73.857 141.800 C 74.341 141.316,75.712 141.200,80.949 141.200 C 84.615 141.200,87.609 141.031,87.829 140.811 C 88.565 140.075,90.553 140.059,192.000 139.971 C 247.990 139.922,292.720 139.748,291.400 139.585 C 288.093 139.174,87.663 139.250,82.200 139.663 M297.743 140.600 C 298.219 141.076,299.404 141.191,303.471 141.157 L 308.600 141.114 305.600 140.587 C 301.156 139.807,296.957 139.814,297.743 140.600 M312.000 141.740 C 312.000 142.310,312.555 142.400,316.080 142.400 C 321.184 142.400,320.925 141.714,315.681 141.342 C 312.422 141.110,312.000 141.156,312.000 141.740 M323.600 142.980 C 323.600 143.483,324.146 143.600,326.480 143.600 C 329.916 143.600,329.687 143.014,326.100 142.629 C 323.993 142.403,323.600 142.458,323.600 142.980 M332.000 144.069 C 332.000 144.251,332.540 144.400,333.200 144.400 C 333.860 144.400,334.400 144.330,334.400 144.245 C 334.400 144.160,333.860 144.012,333.200 143.915 C 332.540 143.818,332.000 143.887,332.000 144.069 M256.982 156.016 C 254.780 156.310,252.706 157.676,251.056 159.921 C 247.674 164.521,244.181 164.752,241.066 160.581 C 240.370 159.648,238.920 158.281,237.845 157.543 L 235.891 156.200 194.845 156.077 C 148.544 155.938,150.445 155.832,148.104 158.694 C 143.118 164.789,140.482 165.124,136.719 160.139 C 135.830 158.962,134.958 158.000,134.781 158.000 C 134.603 158.000,134.219 157.763,133.929 157.473 C 132.676 156.224,130.645 156.000,120.600 156.000 C 106.750 156.000,106.544 156.108,106.738 163.314 C 106.796 165.470,106.853 165.600,107.574 165.214 C 108.595 164.667,124.263 164.654,124.600 165.200 C 124.736 165.420,125.165 165.600,125.554 165.600 C 126.400 165.600,128.000 167.206,128.000 168.056 C 128.000 168.816,129.653 170.400,130.446 170.400 C 130.773 170.400,131.265 170.625,131.540 170.900 C 131.888 171.248,133.603 171.400,137.190 171.400 L 142.340 171.400 145.721 168.100 L 149.102 164.800 188.728 164.800 C 214.713 164.800,228.438 164.938,228.600 165.200 C 228.736 165.420,229.165 165.600,229.554 165.600 C 230.400 165.600,232.000 167.206,232.000 168.056 C 232.000 168.816,233.653 170.400,234.446 170.400 C 234.773 170.400,235.265 170.625,235.540 170.900 C 235.888 171.248,237.607 171.400,241.210 171.400 L 246.380 171.400 249.299 168.500 C 250.905 166.905,252.519 165.600,252.886 165.600 C 253.253 165.600,253.664 165.420,253.800 165.200 C 253.951 164.956,257.004 164.800,261.624 164.800 L 269.200 164.800 269.200 196.400 L 269.200 228.000 262.200 228.000 C 256.480 228.000,255.200 228.102,255.200 228.558 C 255.200 229.012,256.965 229.164,264.700 229.374 C 269.925 229.515,274.879 229.660,275.709 229.696 C 279.624 229.863,279.562 230.464,279.581 191.800 C 279.599 155.516,279.692 156.840,277.080 156.184 C 275.850 155.876,259.084 155.735,256.982 156.016 M48.551 157.474 C 46.803 158.346,45.942 160.361,46.049 163.331 C 46.106 164.897,45.971 165.810,45.668 165.911 C 45.098 166.101,45.033 169.600,45.600 169.600 C 45.820 169.600,46.000 169.094,46.000 168.476 C 46.000 165.869,45.023 165.994,66.200 165.892 L 85.400 165.800 85.519 168.076 C 85.696 171.452,86.771 171.297,65.577 170.965 C 48.954 170.705,47.200 170.738,47.200 171.311 C 47.200 171.879,49.470 171.966,69.100 172.151 C 81.145 172.265,91.429 172.385,91.953 172.418 C 94.819 172.599,95.604 170.926,95.586 164.681 C 95.570 159.350,95.271 158.337,93.431 157.382 C 91.697 156.483,50.369 156.567,48.551 157.474 M293.000 157.361 C 290.677 158.387,290.342 159.134,290.635 162.647 L 290.898 165.800 309.149 165.676 C 331.096 165.526,329.635 165.350,330.531 168.258 C 330.912 169.496,331.136 170.597,331.028 170.705 C 330.921 170.812,322.366 170.923,312.017 170.950 C 298.095 170.987,293.200 171.120,293.200 171.462 C 293.200 171.803,299.161 171.967,316.100 172.091 L 339.000 172.258 340.100 171.123 C 341.372 169.810,341.443 168.941,340.601 165.000 C 339.504 159.860,339.011 158.661,337.602 157.700 L 336.282 156.800 315.241 156.816 C 298.677 156.828,293.945 156.944,293.000 157.361 M67.817 175.998 L 45.035 176.293 43.917 177.631 C 42.863 178.894,42.803 179.175,42.854 182.585 C 42.884 184.573,42.987 185.793,43.083 185.296 L 43.257 184.393 64.328 184.496 L 85.400 184.600 85.519 186.866 L 85.638 189.132 82.919 189.426 C 81.424 189.587,72.238 189.595,62.506 189.443 C 46.895 189.199,44.839 189.237,45.042 189.765 C 45.240 190.282,48.241 190.387,67.336 190.545 C 79.471 190.646,90.251 190.852,91.291 191.003 C 93.036 191.258,93.276 191.186,94.391 190.070 L 95.600 188.862 95.600 183.637 C 95.600 174.886,98.213 175.605,67.817 175.998 M293.355 176.275 C 291.239 176.691,290.376 178.397,290.649 181.623 L 290.900 184.600 311.950 184.600 L 333.000 184.600 333.119 186.853 L 333.237 189.106 318.719 189.393 C 310.733 189.550,301.635 189.616,298.499 189.540 C 294.295 189.437,292.799 189.524,292.799 189.874 C 292.800 190.231,298.523 190.395,316.100 190.541 C 328.915 190.648,339.850 190.751,340.400 190.772 C 343.494 190.887,344.574 180.095,341.761 177.160 L 340.650 176.000 317.425 176.054 C 304.651 176.084,293.820 176.184,293.355 176.275 M49.971 194.698 C 45.165 194.817,44.886 194.871,43.659 195.911 L 42.376 197.000 42.638 200.000 L 42.900 203.000 63.689 202.883 C 86.835 202.753,85.600 202.600,85.600 205.587 C 85.600 208.960,86.525 208.800,67.045 208.800 C 56.171 208.800,50.040 208.940,50.191 209.186 C 50.338 209.423,56.997 209.579,67.515 209.592 C 76.912 209.603,86.114 209.784,87.965 209.996 C 94.385 210.728,95.604 209.511,95.712 202.261 C 95.792 196.860,95.380 195.553,93.353 194.782 C 92.435 194.433,62.986 194.376,49.971 194.698 M299.173 194.695 C 293.061 194.817,292.922 194.840,291.645 195.910 L 290.344 197.000 290.618 200.000 L 290.892 203.000 305.946 202.861 C 314.226 202.785,323.745 202.848,327.100 203.003 L 333.200 203.284 333.200 205.399 C 333.200 208.158,334.013 208.000,319.791 208.000 C 312.127 208.000,307.556 208.148,307.400 208.400 C 307.256 208.633,304.996 208.800,301.976 208.800 C 298.792 208.800,296.800 208.954,296.800 209.200 C 296.800 209.452,299.525 209.600,304.176 209.600 C 308.663 209.600,311.650 209.443,311.800 209.200 C 312.258 208.459,333.609 208.688,336.399 209.464 C 341.275 210.819,342.580 209.449,342.968 202.564 C 343.271 197.192,342.994 196.001,341.256 195.204 C 340.201 194.720,313.889 194.402,299.173 194.695 M349.700 205.823 C 349.420 206.127,349.231 207.210,349.270 208.283 L 349.340 210.200 349.497 208.408 C 349.584 207.422,349.848 206.383,350.085 206.098 C 350.670 205.392,350.325 205.145,349.700 205.823 M46.505 208.687 C 47.114 208.779,48.014 208.777,48.505 208.682 C 48.997 208.587,48.500 208.511,47.400 208.514 C 46.300 208.517,45.897 208.595,46.505 208.687 M294.800 209.200 C 294.800 209.420,295.160 209.600,295.600 209.600 C 296.040 209.600,296.400 209.420,296.400 209.200 C 296.400 208.980,296.040 208.800,295.600 208.800 C 295.160 208.800,294.800 208.980,294.800 209.200 M51.334 213.574 C 45.138 213.881,44.604 214.229,44.923 217.766 C 45.064 219.337,45.349 220.251,45.768 220.486 C 46.116 220.681,46.400 221.056,46.400 221.320 C 46.400 221.687,50.934 221.800,65.615 221.800 C 87.134 221.800,85.691 221.583,85.504 224.796 L 85.400 226.593 83.200 226.919 C 81.990 227.098,73.665 227.190,64.700 227.123 C 52.634 227.032,48.400 227.119,48.400 227.459 C 48.400 227.797,54.343 227.964,70.900 228.093 L 93.400 228.268 94.531 227.093 L 95.662 225.918 95.531 220.725 L 95.400 215.532 94.094 214.366 L 92.787 213.200 74.494 213.267 C 64.432 213.304,54.010 213.442,51.334 213.574 M293.400 213.652 C 290.913 214.242,290.310 215.383,290.630 218.898 L 290.895 221.800 310.737 221.923 C 321.650 221.990,330.636 222.103,330.707 222.174 C 330.996 222.463,329.871 226.009,329.355 226.437 C 328.955 226.769,323.743 226.913,310.801 226.949 C 299.004 226.983,292.849 227.138,292.935 227.400 C 293.019 227.657,301.058 227.873,315.433 228.004 C 340.989 228.236,338.541 228.597,339.727 224.420 C 341.517 218.118,341.579 216.113,340.032 214.631 L 338.864 213.512 316.932 213.392 C 304.019 213.321,294.342 213.428,293.400 213.652 M348.060 217.900 C 348.093 219.385,348.196 220.060,348.288 219.400 C 348.381 218.740,348.605 217.525,348.786 216.700 C 349.043 215.527,348.994 215.200,348.557 215.200 C 348.130 215.200,348.014 215.830,348.060 217.900 M133.600 221.548 C 131.150 222.050,129.464 223.080,127.013 225.572 L 124.625 228.000 116.913 228.000 C 110.623 228.000,109.200 228.102,109.200 228.552 C 109.200 229.004,111.274 229.135,120.700 229.276 L 132.200 229.448 133.871 228.224 C 134.789 227.551,135.640 226.626,135.761 226.169 C 135.882 225.712,136.435 224.847,136.990 224.248 C 137.546 223.649,138.000 222.988,138.000 222.779 C 138.000 222.571,139.116 222.400,140.480 222.400 C 142.127 222.400,142.826 222.266,142.561 222.001 C 142.059 221.499,135.468 221.165,133.600 221.548 M237.800 221.450 C 235.741 221.763,233.894 222.893,231.190 225.492 L 228.579 228.001 189.890 228.054 C 157.815 228.099,151.200 228.200,151.200 228.645 C 151.200 229.090,158.293 229.209,192.500 229.339 C 215.215 229.426,234.214 229.521,234.720 229.551 C 235.950 229.624,239.498 227.262,239.767 226.191 C 239.884 225.722,240.435 224.847,240.990 224.248 C 241.546 223.649,242.000 222.988,242.000 222.779 C 242.000 222.571,243.116 222.400,244.480 222.400 C 246.127 222.400,246.826 222.266,246.561 222.001 C 246.123 221.563,239.709 221.159,237.800 221.450 " stroke="none" fill="#0d0d0d" fill-rule="evenodd"></path><path id="path1" d="M88.254 140.604 C 87.381 141.059,85.607 141.200,80.783 141.200 C 75.693 141.200,74.340 141.317,73.857 141.800 C 73.385 142.272,72.141 142.400,68.016 142.400 C 63.726 142.400,62.733 142.509,62.545 143.000 C 62.362 143.477,61.510 143.600,58.400 143.600 C 55.290 143.600,54.438 143.723,54.255 144.200 C 54.081 144.653,53.349 144.800,51.262 144.800 C 49.293 144.800,48.355 144.973,48.000 145.400 C 47.726 145.730,47.254 146.000,46.951 146.000 C 46.648 146.000,46.400 146.151,46.400 146.336 C 46.400 146.520,45.990 146.858,45.490 147.086 C 44.989 147.315,44.224 148.198,43.790 149.051 C 43.355 149.903,42.879 150.692,42.732 150.804 C 42.584 150.916,42.334 151.546,42.177 152.204 C 42.019 152.862,41.756 153.580,41.592 153.800 C 41.429 154.020,41.206 154.830,41.098 155.600 C 40.989 156.370,40.714 157.540,40.485 158.200 C 39.772 160.262,38.793 164.942,38.797 166.274 C 38.798 166.975,38.600 168.055,38.355 168.674 C 38.111 169.293,37.758 171.510,37.571 173.600 C 37.384 175.690,37.054 178.300,36.839 179.400 C 36.624 180.500,36.437 186.522,36.424 192.783 C 36.400 203.996,36.508 205.454,38.061 215.000 C 38.311 216.540,38.647 218.880,38.807 220.200 C 39.221 223.607,40.920 230.587,41.840 232.660 C 42.148 233.354,42.400 234.030,42.400 234.164 C 42.400 234.671,44.667 237.508,46.005 238.673 C 48.646 240.975,51.075 241.752,57.600 242.385 C 63.329 242.940,68.927 243.530,73.600 244.073 C 79.320 244.737,297.164 245.037,306.400 244.394 C 309.810 244.157,315.120 243.807,318.200 243.618 C 321.280 243.428,324.083 243.160,324.430 243.021 C 324.776 242.882,326.936 242.611,329.230 242.419 C 333.617 242.051,337.200 241.293,337.200 240.733 C 337.200 240.550,337.538 240.400,337.951 240.400 C 338.364 240.400,338.926 240.130,339.200 239.800 C 339.474 239.470,339.850 239.200,340.036 239.200 C 340.708 239.200,343.200 236.354,343.200 235.587 C 343.200 235.154,343.470 234.800,343.800 234.800 C 344.244 234.800,344.400 234.333,344.400 233.000 C 344.400 231.667,344.556 231.200,345.000 231.200 C 345.442 231.200,345.600 230.738,345.600 229.443 C 345.600 228.250,345.793 227.612,346.200 227.455 C 346.640 227.287,346.800 226.593,346.800 224.855 C 346.800 223.118,346.960 222.424,347.400 222.255 C 347.868 222.076,348.000 221.277,348.000 218.613 C 348.000 215.846,348.114 215.200,348.600 215.200 C 349.097 215.200,349.200 214.441,349.200 210.771 C 349.200 207.368,349.339 206.204,349.800 205.743 C 350.699 204.844,350.699 179.946,349.800 179.200 C 349.341 178.819,349.200 177.775,349.200 174.751 C 349.200 171.506,349.093 170.800,348.600 170.800 C 348.114 170.800,348.000 170.156,348.000 167.400 C 348.000 164.644,347.886 164.000,347.400 164.000 C 346.924 164.000,346.800 163.422,346.800 161.200 C 346.800 158.978,346.676 158.400,346.200 158.400 C 345.739 158.400,345.600 157.887,345.600 156.187 C 345.600 154.590,345.433 153.911,345.000 153.745 C 344.670 153.618,344.400 153.084,344.400 152.557 C 344.400 152.031,344.220 151.600,344.000 151.600 C 343.780 151.600,343.600 151.060,343.600 150.400 C 343.600 149.600,343.400 149.200,343.000 149.200 C 342.670 149.200,342.400 148.930,342.400 148.600 C 342.400 148.270,342.130 148.000,341.800 148.000 C 341.470 148.000,341.200 147.730,341.200 147.400 C 341.200 147.070,340.930 146.800,340.600 146.800 C 340.270 146.800,340.000 146.530,340.000 146.200 C 340.000 145.805,339.605 145.600,338.843 145.600 C 338.183 145.600,337.587 145.342,337.455 145.000 C 337.283 144.551,336.566 144.400,334.613 144.400 C 333.138 144.400,332.000 144.226,332.000 144.000 C 332.000 143.759,330.333 143.600,327.800 143.600 C 324.333 143.600,323.600 143.495,323.600 143.000 C 323.600 142.494,322.689 142.400,317.800 142.400 C 312.911 142.400,312.000 142.306,312.000 141.800 C 312.000 141.290,310.975 141.200,305.171 141.200 C 299.627 141.200,298.230 141.087,297.741 140.599 C 296.832 139.689,90.004 139.694,88.254 140.604 M277.080 156.184 C 279.692 156.840,279.599 155.516,279.581 191.800 C 279.562 230.464,279.624 229.863,275.709 229.696 C 274.879 229.660,269.925 229.515,264.700 229.374 C 259.475 229.232,255.200 228.955,255.200 228.758 C 255.200 228.098,253.609 226.800,252.800 226.800 C 252.356 226.800,252.000 226.533,252.000 226.200 C 252.000 225.870,251.730 225.600,251.400 225.600 C 251.027 225.600,250.800 225.222,250.800 224.600 C 250.800 223.756,250.613 223.600,249.600 223.600 C 248.800 223.600,248.400 223.400,248.400 223.000 C 248.400 222.517,247.778 222.400,245.200 222.400 C 243.440 222.400,242.000 222.571,242.000 222.779 C 242.000 222.988,241.546 223.649,240.990 224.248 C 240.435 224.847,239.884 225.722,239.767 226.191 C 239.498 227.262,235.950 229.624,234.720 229.551 C 234.214 229.521,215.215 229.426,192.500 229.339 C 156.409 229.202,151.200 229.107,151.200 228.591 C 151.200 228.227,150.815 228.000,150.200 228.000 C 149.578 228.000,149.200 227.773,149.200 227.400 C 149.200 227.070,148.930 226.800,148.600 226.800 C 148.270 226.800,148.000 226.530,148.000 226.200 C 148.000 225.870,147.730 225.600,147.400 225.600 C 147.027 225.600,146.800 225.222,146.800 224.600 C 146.800 224.012,146.570 223.600,146.243 223.600 C 145.936 223.600,145.582 223.330,145.455 223.000 C 145.190 222.309,138.000 222.096,138.000 222.779 C 138.000 222.988,137.546 223.649,136.990 224.248 C 136.435 224.847,135.882 225.712,135.761 226.169 C 135.640 226.626,134.789 227.551,133.871 228.224 L 132.200 229.448 120.700 229.276 C 111.274 229.135,109.200 229.004,109.200 228.552 C 109.200 228.248,108.930 228.000,108.600 228.000 C 108.230 228.000,108.000 227.624,108.000 227.020 C 108.000 226.481,107.733 225.890,107.406 225.708 C 106.503 225.202,106.472 159.794,107.375 158.049 C 108.334 156.194,109.587 156.000,120.600 156.000 C 130.645 156.000,132.676 156.224,133.929 157.473 C 134.219 157.763,134.603 158.000,134.781 158.000 C 134.958 158.000,135.830 158.962,136.719 160.139 C 140.482 165.124,143.118 164.789,148.104 158.694 C 150.445 155.832,148.544 155.938,194.845 156.077 L 235.891 156.200 237.845 157.543 C 238.920 158.281,240.370 159.648,241.066 160.581 C 244.181 164.752,247.674 164.521,251.056 159.921 C 252.706 157.676,254.780 156.310,256.982 156.016 C 259.084 155.735,275.850 155.876,277.080 156.184 M93.431 157.382 C 95.271 158.337,95.570 159.350,95.586 164.681 C 95.604 170.926,94.819 172.599,91.953 172.418 C 91.429 172.385,81.145 172.265,69.100 172.151 C 53.987 172.009,47.200 171.813,47.200 171.518 C 47.200 171.284,46.750 170.675,46.200 170.165 C 45.122 169.166,44.754 166.215,45.668 165.911 C 45.971 165.810,46.106 164.897,46.049 163.331 C 45.942 160.361,46.803 158.346,48.551 157.474 C 50.369 156.567,91.697 156.483,93.431 157.382 M337.602 157.700 C 339.011 158.661,339.504 159.860,340.601 165.000 C 341.443 168.941,341.372 169.810,340.100 171.123 L 339.000 172.258 316.100 172.091 C 296.788 171.949,293.200 171.835,293.200 171.362 C 293.200 171.053,292.930 170.800,292.600 170.800 C 292.270 170.800,292.000 170.530,292.000 170.200 C 292.000 169.870,291.756 169.600,291.458 169.600 C 291.042 169.600,290.864 168.413,290.693 164.500 C 290.333 156.290,288.591 156.835,315.241 156.816 L 336.282 156.800 337.602 157.700 M94.500 177.192 C 95.582 178.392,95.600 178.500,95.600 183.637 L 95.600 188.862 94.391 190.070 C 93.276 191.186,93.036 191.258,91.291 191.004 C 90.251 190.852,79.536 190.646,67.481 190.545 C 44.063 190.349,44.000 190.344,44.000 188.400 C 44.000 188.180,43.730 188.000,43.400 188.000 C 42.135 188.000,42.572 179.243,43.917 177.631 L 45.035 176.293 67.817 175.998 C 94.367 175.654,93.061 175.596,94.500 177.192 M341.761 177.160 C 344.574 180.095,343.494 190.887,340.400 190.772 C 339.850 190.751,328.915 190.648,316.100 190.541 C 296.218 190.376,292.800 190.263,292.800 189.774 C 292.800 189.458,292.620 189.200,292.400 189.200 C 292.180 189.200,292.000 188.930,292.000 188.600 C 292.000 188.270,291.755 188.000,291.456 188.000 C 290.266 188.000,290.300 178.789,291.494 177.521 C 292.888 176.040,291.551 176.115,317.425 176.054 L 340.650 176.000 341.761 177.160 M93.353 194.782 C 95.380 195.553,95.792 196.860,95.712 202.261 C 95.604 209.511,94.385 210.728,87.965 209.996 C 86.114 209.784,76.912 209.603,67.515 209.592 C 56.997 209.579,50.338 209.423,50.191 209.186 C 50.060 208.974,48.968 208.800,47.764 208.800 C 46.187 208.800,45.510 208.632,45.345 208.200 C 45.218 207.870,44.864 207.600,44.557 207.600 C 44.233 207.600,44.000 207.191,44.000 206.620 C 44.000 206.081,43.757 205.496,43.459 205.320 C 43.089 205.101,42.842 203.710,42.676 200.907 L 42.434 196.815 43.738 195.820 C 44.938 194.905,45.436 194.816,50.021 194.699 C 62.773 194.376,92.433 194.432,93.353 194.782 M341.256 195.204 C 342.994 196.001,343.271 197.192,342.968 202.564 C 342.580 209.449,341.275 210.819,336.399 209.464 C 333.609 208.688,312.258 208.459,311.800 209.200 C 311.411 209.830,296.808 209.733,296.768 209.100 C 296.743 208.700,296.696 208.700,296.535 209.100 C 296.290 209.707,294.922 209.766,294.726 209.178 C 294.597 208.791,293.753 208.507,292.500 208.431 C 292.225 208.414,292.000 207.950,292.000 207.400 C 292.000 206.827,291.769 206.400,291.459 206.400 C 291.050 206.400,290.858 205.258,290.670 201.700 L 290.421 197.000 291.683 195.910 C 292.925 194.838,293.050 194.818,299.173 194.695 C 313.889 194.402,340.201 194.720,341.256 195.204 M94.094 214.366 L 95.400 215.532 95.531 220.725 L 95.662 225.918 94.531 227.093 L 93.400 228.268 70.900 228.093 C 51.986 227.946,48.400 227.829,48.400 227.359 C 48.400 227.052,48.220 226.800,48.000 226.800 C 47.780 226.800,47.600 226.369,47.600 225.843 C 47.600 225.316,47.330 224.782,47.000 224.655 C 46.590 224.498,46.400 223.857,46.400 222.632 C 46.400 221.415,46.197 220.726,45.768 220.486 C 45.349 220.251,45.064 219.337,44.923 217.766 C 44.521 213.309,44.065 213.378,74.494 213.267 L 92.787 213.200 94.094 214.366 M340.032 214.631 C 341.580 216.114,341.510 218.314,339.720 224.400 C 338.482 228.608,341.037 228.220,315.640 228.060 C 291.911 227.910,292.000 227.918,292.000 226.017 C 292.000 225.788,291.756 225.600,291.459 225.600 C 290.549 225.600,290.261 216.144,291.134 214.945 C 292.278 213.374,294.068 213.267,316.932 213.392 L 338.864 213.512 340.032 214.631 " stroke="none" fill="#fafafa" fill-rule="evenodd"></path></g></svg>