<svg id="svg" version="1.1" xmlns="http://www.w3.org/2000/svg" xmlns:xlink="http://www.w3.org/1999/xlink" width="400" height="184.17849898580124" viewBox="0, 0, 400,184.17849898580124"><g id="svgg"><path id="path0" d="M30.104 21.815 C 28.472 21.926,27.021 22.109,26.880 22.221 C 26.533 22.497,25.463 22.847,24.967 22.847 C 24.744 22.847,24.412 23.012,24.228 23.215 C 23.983 23.486,23.661 23.584,23.009 23.584 C 22.311 23.584,22.081 23.662,21.925 23.952 C 21.807 24.174,21.540 24.321,21.256 24.321 C 20.943 24.321,20.498 24.601,19.942 25.150 C 19.479 25.606,18.927 25.979,18.713 25.979 C 18.204 25.979,14.740 29.438,14.740 29.947 C 14.740 30.149,14.367 30.704,13.911 31.180 C 13.377 31.737,13.082 32.211,13.082 32.509 C 13.082 32.799,12.910 33.084,12.621 33.274 C 12.316 33.473,12.160 33.745,12.160 34.078 C 12.160 34.355,12.006 34.721,11.817 34.892 C 11.573 35.113,11.444 35.556,11.375 36.415 C 11.305 37.296,11.159 37.785,10.844 38.206 L 10.410 38.784 10.410 86.780 L 10.410 134.777 10.917 135.679 C 11.195 136.176,11.423 136.822,11.423 137.115 C 11.423 137.408,11.589 137.826,11.792 138.043 C 12.037 138.307,12.160 138.694,12.160 139.201 C 12.160 139.776,12.274 140.070,12.621 140.396 C 12.874 140.634,13.082 141.026,13.082 141.268 C 13.082 141.558,13.486 142.123,14.277 142.940 C 14.935 143.618,15.476 144.339,15.479 144.542 C 15.487 145.014,17.339 146.845,17.808 146.845 C 18.004 146.845,18.530 147.218,18.977 147.674 C 19.534 148.241,19.945 148.503,20.277 148.503 C 20.544 148.503,20.913 148.669,21.096 148.871 C 21.280 149.074,21.610 149.240,21.830 149.240 C 22.050 149.240,22.424 149.447,22.662 149.701 C 22.922 149.977,23.299 150.161,23.605 150.161 C 23.892 150.161,24.221 150.310,24.356 150.502 C 24.536 150.756,24.919 150.868,25.861 150.943 C 26.794 151.017,27.276 151.157,27.703 151.477 L 28.282 151.912 190.696 151.912 L 353.109 151.912 353.688 151.477 C 354.108 151.162,354.598 151.017,355.478 150.946 C 356.337 150.877,356.780 150.749,357.001 150.505 C 357.172 150.316,357.533 150.161,357.804 150.161 C 358.091 150.161,358.477 149.969,358.729 149.701 C 358.967 149.447,359.341 149.240,359.561 149.240 C 359.781 149.240,360.111 149.074,360.295 148.871 C 360.478 148.669,360.806 148.503,361.024 148.503 C 361.247 148.503,361.775 148.144,362.239 147.678 C 362.733 147.180,363.228 146.851,363.485 146.848 C 364.060 146.843,365.913 144.991,365.918 144.416 C 365.921 144.140,366.345 143.566,367.116 142.793 C 368.000 141.908,368.310 141.467,368.310 141.095 C 368.310 140.782,368.448 140.519,368.678 140.396 C 368.968 140.241,369.047 140.010,369.047 139.316 C 369.047 138.625,369.142 138.344,369.485 138.022 C 369.773 137.751,369.963 137.312,370.039 136.739 C 370.102 136.261,370.267 135.706,370.405 135.507 C 370.543 135.308,370.706 134.482,370.767 133.671 C 370.828 132.860,370.933 131.762,370.999 131.230 C 371.112 130.328,371.094 130.263,370.728 130.263 C 370.369 130.263,370.336 130.362,370.336 131.460 C 370.336 132.523,370.296 132.658,369.978 132.658 C 369.689 132.658,369.610 132.808,369.564 133.441 C 369.517 134.092,369.437 134.234,369.093 134.283 C 368.752 134.331,368.678 134.458,368.678 134.991 C 368.678 135.485,368.590 135.663,368.310 135.737 C 368.107 135.790,367.941 135.988,367.941 136.176 C 367.941 136.389,367.766 136.564,367.480 136.636 C 367.192 136.708,367.020 136.882,367.020 137.100 C 367.020 137.325,366.890 137.448,366.651 137.448 C 366.444 137.448,366.283 137.571,366.283 137.729 C 366.283 137.883,366.083 138.100,365.838 138.212 C 365.593 138.323,365.352 138.570,365.302 138.760 C 365.253 138.951,365.080 139.106,364.918 139.106 C 364.757 139.106,364.625 139.233,364.625 139.387 C 364.625 139.542,364.429 139.743,364.189 139.834 C 363.950 139.925,363.708 140.118,363.652 140.264 C 363.596 140.409,363.298 140.579,362.988 140.641 C 362.678 140.702,362.257 140.922,362.051 141.127 C 361.845 141.333,361.545 141.502,361.383 141.502 C 361.222 141.502,360.879 141.667,360.621 141.870 C 360.364 142.073,359.928 142.239,359.654 142.239 C 359.379 142.239,359.010 142.398,358.834 142.592 C 358.605 142.845,358.192 142.968,357.378 143.025 C 356.753 143.069,355.910 143.238,355.504 143.401 C 354.313 143.878,248.465 143.868,248.167 143.390 C 247.885 142.940,144.198 142.997,143.699 143.448 C 143.179 143.919,37.217 143.838,35.784 143.365 C 35.205 143.174,34.304 142.980,33.783 142.933 C 33.194 142.881,32.645 142.699,32.330 142.452 C 32.052 142.233,31.639 142.054,31.412 142.054 C 31.185 142.054,30.902 141.938,30.784 141.796 C 30.666 141.654,30.351 141.483,30.083 141.416 C 29.815 141.348,29.356 141.092,29.063 140.845 C 28.770 140.598,28.409 140.396,28.261 140.396 C 27.913 140.396,23.623 136.204,23.466 135.711 C 23.401 135.505,23.193 135.107,23.005 134.826 C 22.817 134.546,22.497 134.071,22.294 133.771 C 22.091 133.471,21.925 133.075,21.925 132.892 C 21.925 132.709,21.718 132.254,21.465 131.881 C 21.174 131.453,21.004 130.945,21.003 130.503 C 21.002 130.114,20.839 129.556,20.636 129.249 C 20.114 128.462,20.051 38.816,20.571 37.863 C 20.737 37.559,20.936 36.876,21.014 36.347 C 21.092 35.817,21.329 35.163,21.540 34.894 C 21.752 34.625,21.925 34.221,21.925 33.997 C 21.925 33.773,22.087 33.444,22.283 33.266 C 22.480 33.088,22.694 32.702,22.759 32.408 C 22.823 32.115,22.947 31.875,23.033 31.875 C 23.120 31.875,23.241 31.715,23.303 31.519 C 23.365 31.323,23.951 30.612,24.605 29.938 C 25.259 29.265,25.795 28.637,25.795 28.544 C 25.795 28.450,25.861 28.374,25.943 28.374 C 26.171 28.374,27.453 27.152,27.453 26.934 C 27.453 26.828,27.608 26.691,27.797 26.631 C 27.986 26.571,28.289 26.358,28.470 26.158 C 28.651 25.958,28.985 25.795,29.210 25.795 C 29.445 25.795,29.751 25.597,29.923 25.334 C 30.146 24.994,30.387 24.873,30.844 24.873 C 31.294 24.873,31.488 24.779,31.553 24.529 C 31.623 24.263,31.891 24.154,32.726 24.051 C 33.419 23.965,33.928 23.790,34.139 23.566 C 34.463 23.222,37.407 23.215,195.677 23.215 C 287.134 23.215,356.886 23.146,356.886 23.055 C 356.886 22.966,356.481 22.840,355.985 22.775 C 355.490 22.709,354.888 22.504,354.649 22.320 C 354.287 22.040,353.589 21.949,350.438 21.770 C 345.208 21.472,34.487 21.516,30.104 21.815 M357.439 23.768 C 357.439 23.869,357.858 23.952,358.371 23.952 C 358.946 23.952,359.259 23.881,359.189 23.768 C 359.127 23.667,358.707 23.584,358.257 23.584 C 357.807 23.584,357.439 23.667,357.439 23.768 M359.834 24.505 C 359.834 24.606,360.088 24.689,360.398 24.689 C 360.727 24.689,360.914 24.612,360.848 24.505 C 360.785 24.404,360.531 24.321,360.284 24.321 C 360.037 24.321,359.834 24.404,359.834 24.505 M123.342 30.755 L 117.988 30.861 117.420 31.340 C 115.920 32.602,115.889 34.120,117.333 35.549 L 118.034 36.244 122.444 36.363 C 124.870 36.429,127.990 36.535,129.379 36.598 L 131.903 36.713 132.511 36.206 C 134.191 34.805,134.162 32.407,132.449 31.146 C 131.717 30.608,131.402 30.595,123.342 30.755 M260.506 30.745 C 258.637 31.198,257.879 34.735,259.468 35.586 C 259.691 35.705,259.984 35.913,260.120 36.049 C 260.305 36.235,261.079 36.297,263.221 36.297 C 264.791 36.297,267.293 36.378,268.782 36.478 C 270.270 36.577,272.041 36.696,272.717 36.742 C 276.114 36.972,277.316 33.103,274.494 31.021 L 273.904 30.585 267.445 30.607 C 263.892 30.619,260.770 30.681,260.506 30.745 M155.661 42.146 C 153.997 42.187,153.271 42.274,153.125 42.450 C 152.981 42.623,152.935 44.688,152.969 49.393 L 153.017 56.089 153.488 56.354 C 153.895 56.582,154.034 56.582,154.502 56.358 L 155.044 56.099 155.095 53.291 L 155.145 50.484 156.878 50.484 C 158.804 50.484,159.189 50.301,159.189 49.388 C 159.189 48.593,158.831 48.435,156.944 48.398 L 155.228 48.365 155.174 46.707 C 155.144 45.795,155.168 44.855,155.227 44.618 L 155.335 44.188 158.181 44.320 C 161.460 44.473,161.585 44.432,161.585 43.190 C 161.585 42.154,161.289 41.997,159.432 42.048 C 158.640 42.070,156.943 42.114,155.661 42.146 M246.675 42.168 C 245.898 42.232,245.208 42.339,245.143 42.405 C 244.999 42.549,245.016 55.528,245.160 55.903 C 245.340 56.373,245.821 56.441,249.470 56.519 C 253.744 56.610,254.076 56.535,254.076 55.485 C 254.076 54.331,253.876 54.262,250.501 54.254 C 246.877 54.246,247.075 54.357,247.075 52.337 C 247.075 50.436,247.009 50.490,249.319 50.486 C 250.904 50.483,251.313 50.258,251.313 49.388 C 251.313 48.566,250.892 48.361,249.332 48.421 C 247.277 48.500,247.075 48.315,247.075 46.356 C 247.075 44.264,246.994 44.311,250.576 44.311 C 253.795 44.311,254.076 44.222,254.076 43.206 C 254.076 42.207,253.776 42.105,250.778 42.076 C 249.299 42.062,247.452 42.103,246.675 42.168 M140.528 42.307 C 140.455 42.379,140.396 45.240,140.396 48.665 C 140.396 55.592,140.304 55.064,141.664 55.975 C 142.681 56.657,147.965 56.387,148.325 55.634 C 148.895 54.445,148.946 53.910,149.012 48.371 C 149.087 42.140,149.095 42.193,148.020 42.193 C 147.054 42.193,147.029 42.340,147.027 48.148 C 147.023 55.023,147.269 54.353,144.751 54.350 C 141.884 54.346,142.162 54.985,142.054 48.141 L 141.962 42.285 141.311 42.230 C 140.952 42.200,140.600 42.234,140.528 42.307 M201.419 42.414 C 201.093 42.740,201.102 55.703,201.429 55.974 C 201.943 56.400,202.585 56.412,202.956 56.002 C 203.446 55.461,203.525 42.680,203.040 42.373 C 202.650 42.126,201.682 42.151,201.419 42.414 M207.600 42.392 C 207.220 42.613,207.160 43.660,207.508 44.007 C 207.882 44.381,207.945 53.751,207.580 54.821 C 207.117 56.181,207.550 56.380,210.976 56.380 C 213.869 56.380,214.452 56.262,215.223 55.526 L 215.707 55.065 215.842 49.757 C 215.999 43.587,215.988 43.503,214.967 42.751 L 214.207 42.193 211.065 42.198 C 209.275 42.201,207.784 42.285,207.600 42.392 M223.129 42.549 C 223.025 42.745,222.939 43.160,222.939 43.471 C 222.939 43.782,222.773 44.346,222.570 44.724 C 222.326 45.180,222.202 45.763,222.202 46.458 C 222.202 47.096,222.058 47.841,221.833 48.365 C 221.609 48.889,221.465 49.634,221.465 50.274 C 221.465 50.926,221.356 51.478,221.178 51.733 C 221.016 51.964,220.846 52.724,220.787 53.478 C 220.731 54.213,220.559 55.014,220.405 55.259 C 220.151 55.665,220.156 55.726,220.462 55.950 C 221.242 56.520,222.117 56.094,222.254 55.079 C 222.407 53.936,222.617 53.813,224.170 53.962 C 225.655 54.104,226.147 54.412,226.327 55.312 C 226.546 56.405,227.491 56.800,227.930 55.981 C 228.222 55.434,228.039 53.323,227.662 52.907 C 227.485 52.711,227.321 52.056,227.245 51.242 C 227.177 50.503,226.967 49.599,226.780 49.231 C 226.576 48.831,226.439 48.173,226.439 47.588 C 226.439 46.965,226.306 46.365,226.071 45.926 C 225.827 45.471,225.702 44.886,225.702 44.201 C 225.702 42.770,225.250 42.193,224.129 42.193 C 223.518 42.193,223.274 42.280,223.129 42.549 M232.666 42.662 C 232.492 43.044,232.519 43.308,232.809 44.089 C 233.235 45.240,233.275 53.143,232.862 54.755 C 232.476 56.259,232.718 56.380,236.095 56.376 C 241.130 56.368,240.995 56.569,240.995 49.077 L 240.995 43.330 240.222 42.761 L 239.448 42.193 236.164 42.193 L 232.880 42.193 232.666 42.662 M190.090 44.169 C 189.971 45.191,190.217 45.600,190.620 45.054 C 191.013 44.521,195.223 44.466,195.550 44.990 C 195.967 45.659,196.246 45.382,196.187 44.357 L 196.131 43.390 193.161 43.340 L 190.192 43.289 190.090 44.169 M213.352 44.606 L 214.095 44.993 214.140 48.337 C 214.210 53.575,214.196 53.823,213.810 54.106 C 213.462 54.360,210.722 54.461,210.149 54.241 C 209.698 54.068,209.711 45.055,210.162 44.556 C 210.605 44.066,212.369 44.094,213.352 44.606 M238.653 44.589 L 239.280 44.959 239.386 48.965 C 239.445 51.168,239.434 53.261,239.362 53.616 L 239.230 54.261 237.422 54.314 C 236.205 54.349,235.526 54.294,235.345 54.143 C 234.981 53.841,235.055 45.286,235.428 44.634 C 235.755 44.061,237.711 44.033,238.653 44.589 M321.620 44.864 C 321.247 45.117,320.883 45.325,320.811 45.325 C 320.650 45.325,319.719 46.297,319.162 47.049 C 318.932 47.359,318.747 47.874,318.747 48.205 C 318.747 48.534,318.664 48.855,318.563 48.918 C 318.216 49.132,318.349 50.561,318.747 50.902 C 318.950 51.075,319.116 51.413,319.116 51.652 C 319.116 51.891,319.344 52.339,319.622 52.646 C 321.984 55.250,321.981 55.248,324.310 55.266 C 325.621 55.276,326.414 54.856,327.724 53.456 C 329.963 51.064,328.980 46.084,326.086 45.154 C 325.714 45.035,325.310 44.817,325.188 44.670 C 324.784 44.184,322.435 44.312,321.620 44.864 M68.276 45.120 C 68.221 45.209,67.894 45.336,67.551 45.400 C 66.653 45.569,65.123 47.138,64.973 48.045 C 64.708 49.647,65.095 52.229,65.647 52.537 C 65.819 52.634,65.960 52.783,65.960 52.869 C 65.960 53.213,67.016 54.124,67.663 54.337 C 68.041 54.462,68.398 54.641,68.456 54.735 C 68.629 55.015,70.651 54.928,71.419 54.608 C 75.677 52.831,75.478 46.676,71.117 45.249 C 70.149 44.933,68.440 44.855,68.276 45.120 M172.333 47.456 C 172.272 47.615,172.316 47.839,172.431 47.953 C 172.545 48.068,172.639 48.544,172.639 49.011 C 172.639 50.391,172.741 50.442,175.629 50.519 C 178.460 50.594,178.352 50.646,178.350 49.225 C 178.349 48.521,178.247 48.256,177.788 47.766 L 177.227 47.167 174.835 47.167 C 172.834 47.167,172.425 47.214,172.333 47.456 M224.705 49.146 C 224.777 49.622,224.984 50.343,225.165 50.749 C 225.581 51.677,225.385 51.958,224.321 51.958 C 222.949 51.958,222.786 51.033,223.811 49.070 C 224.392 47.958,224.529 47.970,224.705 49.146 M176.647 49.148 C 176.704 49.318,176.364 49.378,175.337 49.378 C 174.046 49.378,173.579 49.237,173.880 48.936 C 174.104 48.711,176.565 48.900,176.647 49.148 M43.286 71.276 C 42.707 71.745,42.974 76.545,43.617 77.252 C 43.822 77.476,44.048 77.989,44.120 78.391 C 44.192 78.793,44.410 79.233,44.604 79.369 C 44.798 79.504,44.956 79.701,44.956 79.806 C 44.956 79.911,45.122 80.208,45.325 80.466 C 45.527 80.723,45.693 81.086,45.693 81.271 C 45.693 81.457,45.849 81.692,46.040 81.794 C 46.231 81.896,46.442 82.271,46.509 82.627 C 46.577 82.990,46.789 83.360,46.991 83.468 C 47.189 83.574,47.351 83.811,47.351 83.995 C 47.351 84.178,47.517 84.478,47.720 84.661 C 47.923 84.845,48.088 85.129,48.088 85.294 C 48.088 85.458,48.252 85.733,48.452 85.904 C 48.652 86.075,48.869 86.446,48.935 86.728 C 49.000 87.010,49.160 87.327,49.289 87.432 C 49.418 87.536,49.653 87.930,49.810 88.307 C 49.968 88.683,50.183 88.991,50.290 88.991 C 50.397 88.991,50.484 89.109,50.484 89.253 C 50.484 89.398,50.691 89.762,50.944 90.063 C 51.198 90.364,51.405 90.780,51.405 90.986 C 51.405 91.195,51.562 91.412,51.761 91.475 C 51.962 91.538,52.169 91.827,52.238 92.141 C 52.305 92.445,52.518 92.793,52.711 92.914 C 52.905 93.034,53.063 93.279,53.063 93.457 C 53.063 93.636,53.140 93.782,53.234 93.782 C 53.584 93.782,53.984 94.378,53.984 94.900 C 53.984 95.277,54.075 95.440,54.285 95.440 C 54.451 95.440,54.741 95.618,54.930 95.837 C 55.396 96.374,55.464 105.002,55.006 105.383 C 54.452 105.842,54.353 105.391,54.353 102.430 C 54.353 100.595,54.284 99.493,54.169 99.493 C 54.067 99.493,53.984 99.694,53.984 99.939 C 53.984 100.626,53.794 100.967,53.412 100.967 C 53.190 100.967,53.063 101.097,53.063 101.323 C 53.063 101.519,52.897 101.732,52.695 101.796 C 52.464 101.870,52.326 102.075,52.326 102.346 C 52.326 103.021,52.134 103.363,51.754 103.363 C 51.479 103.363,51.405 103.497,51.405 104.001 C 51.405 104.451,51.296 104.698,51.036 104.836 C 50.834 104.945,50.668 105.152,50.668 105.296 C 50.668 105.441,50.509 105.707,50.314 105.889 C 50.120 106.070,49.901 106.457,49.828 106.749 C 49.755 107.041,49.541 107.320,49.352 107.369 C 49.108 107.433,49.010 107.629,49.010 108.049 C 49.010 108.449,48.861 108.768,48.549 109.040 C 48.296 109.260,48.088 109.596,48.088 109.787 C 48.088 109.978,47.955 110.245,47.793 110.380 C 47.630 110.515,47.425 110.815,47.337 111.047 C 47.249 111.279,47.050 111.469,46.895 111.469 C 46.698 111.469,46.614 111.659,46.614 112.110 C 46.614 112.590,46.499 112.826,46.154 113.052 C 45.841 113.257,45.693 113.523,45.693 113.879 C 45.693 114.216,45.561 114.475,45.325 114.602 C 45.122 114.710,44.956 114.951,44.956 115.136 C 44.956 115.321,44.795 115.678,44.598 115.928 C 44.286 116.325,44.104 116.907,44.050 117.675 C 44.042 117.794,43.890 118.037,43.713 118.214 C 43.443 118.484,43.387 118.905,43.373 120.800 L 43.355 123.063 44.386 123.258 C 44.953 123.366,45.707 123.531,46.062 123.625 C 46.416 123.719,47.752 123.853,49.030 123.922 C 52.110 124.090,52.142 124.064,52.142 121.355 C 52.142 119.713,52.193 119.389,52.510 119.023 C 52.713 118.790,52.879 118.445,52.879 118.257 C 52.879 118.068,53.045 117.772,53.247 117.599 C 53.450 117.425,53.616 117.107,53.616 116.892 C 53.616 116.677,53.774 116.358,53.968 116.183 C 54.161 116.007,54.374 115.649,54.440 115.386 C 54.506 115.122,54.721 114.703,54.917 114.453 C 55.113 114.203,55.274 113.837,55.274 113.638 C 55.274 113.440,55.440 113.067,55.643 112.809 C 55.845 112.552,56.014 112.207,56.017 112.043 C 56.020 111.880,56.145 111.585,56.293 111.388 C 56.442 111.191,56.564 110.892,56.564 110.722 C 56.564 110.552,56.730 110.203,56.932 109.945 C 57.135 109.687,57.301 109.306,57.301 109.098 C 57.301 108.889,57.462 108.633,57.658 108.527 C 57.893 108.401,58.035 108.100,58.073 107.646 C 58.119 107.091,58.212 106.944,58.544 106.896 C 58.800 106.860,58.959 106.710,58.959 106.503 C 58.959 106.154,59.518 105.902,59.844 106.104 C 60.275 106.370,61.170 107.679,61.170 108.042 C 61.170 108.257,61.336 108.536,61.538 108.663 C 61.741 108.789,61.907 109.058,61.907 109.260 C 61.907 109.462,62.073 109.793,62.275 109.995 C 62.478 110.198,62.644 110.431,62.644 110.512 C 62.644 110.594,62.851 110.942,63.105 111.285 C 63.358 111.629,63.565 112.039,63.565 112.198 C 63.565 112.356,63.719 112.582,63.908 112.700 C 64.096 112.818,64.301 113.167,64.363 113.476 C 64.424 113.785,64.643 114.206,64.849 114.412 C 65.055 114.617,65.223 114.984,65.223 115.227 C 65.223 115.469,65.341 115.713,65.484 115.768 C 65.747 115.868,66.062 116.364,66.618 117.550 C 66.784 117.904,67.077 118.343,67.269 118.524 C 67.572 118.810,67.619 119.131,67.619 120.946 C 67.619 122.695,67.667 123.056,67.914 123.151 C 69.630 123.809,75.367 124.239,76.002 123.756 C 76.582 123.315,76.665 118.444,76.108 117.530 C 75.898 117.186,75.727 116.668,75.726 116.379 C 75.726 116.087,75.520 115.608,75.265 115.305 C 75.012 115.004,74.804 114.611,74.804 114.432 C 74.804 114.253,74.638 113.956,74.436 113.772 C 74.233 113.589,74.067 113.357,74.067 113.256 C 74.067 113.032,72.837 111.160,72.589 111.006 C 72.490 110.945,72.409 110.703,72.409 110.468 C 72.409 110.233,72.278 109.932,72.118 109.799 C 71.837 109.565,71.454 108.916,70.844 107.638 C 70.685 107.304,70.433 106.985,70.284 106.928 C 70.136 106.870,70.014 106.640,70.014 106.415 C 70.014 106.190,69.807 105.811,69.553 105.573 C 69.300 105.335,69.093 104.948,69.093 104.712 C 69.093 104.477,69.005 104.284,68.899 104.284 C 68.792 104.284,68.583 103.990,68.432 103.631 C 68.282 103.272,68.038 102.931,67.889 102.874 C 67.740 102.817,67.619 102.586,67.619 102.362 C 67.619 102.137,67.411 101.758,67.158 101.520 C 66.905 101.282,66.697 100.927,66.697 100.731 C 66.697 100.403,66.276 99.762,65.460 98.848 C 65.035 98.372,64.987 96.252,65.397 95.999 C 65.650 95.843,65.993 95.279,66.588 94.043 C 66.738 93.731,66.984 93.373,67.136 93.248 C 67.287 93.122,67.464 92.776,67.529 92.479 C 67.595 92.182,67.728 91.939,67.827 91.939 C 67.925 91.939,68.121 91.663,68.262 91.326 C 68.403 90.988,68.648 90.605,68.806 90.474 C 68.963 90.343,69.093 90.113,69.093 89.963 C 69.093 89.812,69.300 89.443,69.553 89.142 C 69.807 88.841,70.014 88.455,70.014 88.284 C 70.014 88.114,70.180 87.871,70.382 87.744 C 70.585 87.618,70.751 87.348,70.751 87.145 C 70.751 86.943,70.917 86.635,71.119 86.461 C 71.322 86.288,71.488 86.011,71.488 85.847 C 71.488 85.682,71.649 85.402,71.846 85.224 C 72.043 85.045,72.257 84.659,72.321 84.366 C 72.386 84.072,72.516 83.832,72.611 83.832 C 72.706 83.832,72.927 83.521,73.103 83.141 C 73.279 82.761,73.486 82.368,73.563 82.266 C 73.954 81.754,74.623 80.657,74.902 80.070 C 75.074 79.707,75.288 79.410,75.378 79.410 C 75.468 79.410,75.542 79.224,75.543 78.996 C 75.544 78.768,75.751 78.138,76.004 77.596 C 76.420 76.701,76.462 76.384,76.462 74.161 C 76.462 70.662,76.810 70.900,71.794 70.971 C 66.856 71.040,67.198 70.807,67.368 73.991 C 67.484 76.160,67.475 76.244,67.093 76.448 C 66.804 76.603,66.697 76.834,66.697 77.304 C 66.697 77.701,66.593 77.988,66.426 78.052 C 66.277 78.109,66.102 78.436,66.038 78.777 C 65.967 79.157,65.786 79.441,65.573 79.509 C 65.359 79.576,65.223 79.789,65.223 80.055 C 65.223 80.329,65.087 80.534,64.855 80.608 C 64.608 80.686,64.485 80.888,64.484 81.219 C 64.480 81.805,64.326 82.066,63.888 82.228 C 63.697 82.298,63.565 82.537,63.565 82.813 C 63.565 83.070,63.408 83.437,63.215 83.630 C 63.022 83.823,62.809 84.154,62.742 84.367 C 62.674 84.580,62.508 84.754,62.371 84.754 C 62.226 84.754,62.073 85.056,62.000 85.483 C 61.918 85.971,61.760 86.249,61.524 86.324 C 61.307 86.393,61.170 86.605,61.170 86.870 C 61.170 87.464,60.989 87.886,60.733 87.886 C 60.616 87.886,60.439 88.072,60.338 88.300 C 60.060 88.936,59.380 88.943,59.101 88.313 C 58.975 88.027,58.767 87.684,58.639 87.550 C 58.511 87.416,58.406 87.118,58.406 86.888 C 58.406 86.657,58.240 86.319,58.038 86.135 C 57.835 85.952,57.669 85.579,57.669 85.306 C 57.669 85.034,57.503 84.661,57.301 84.477 C 57.098 84.294,56.932 84.009,56.932 83.845 C 56.932 83.680,56.788 83.341,56.611 83.090 C 56.241 82.564,55.788 81.767,55.411 80.977 C 55.266 80.673,55.010 80.310,54.842 80.171 C 54.674 80.032,54.537 79.718,54.537 79.474 C 54.537 79.230,54.419 78.985,54.275 78.930 C 54.131 78.874,53.876 78.525,53.708 78.153 C 53.260 77.158,52.767 76.296,52.442 75.936 C 52.225 75.696,52.142 75.105,52.102 73.512 C 52.035 70.797,52.298 70.941,47.418 70.938 C 44.078 70.935,43.665 70.969,43.286 71.276 M84.984 71.065 C 84.139 71.228,84.183 75.960,85.041 77.209 C 85.288 77.569,85.491 78.035,85.491 78.244 C 85.491 78.453,85.656 78.835,85.859 79.092 C 86.062 79.350,86.228 79.638,86.228 79.733 C 86.228 79.828,86.389 80.052,86.586 80.230 C 86.783 80.408,87.001 80.815,87.071 81.134 C 87.141 81.453,87.353 81.822,87.542 81.954 C 87.742 82.094,87.886 82.417,87.886 82.725 C 87.886 83.093,87.998 83.290,88.254 83.372 C 88.457 83.436,88.623 83.591,88.623 83.717 C 88.623 83.842,88.830 84.226,89.083 84.569 C 89.337 84.913,89.544 85.323,89.544 85.482 C 89.544 85.641,89.710 85.874,89.912 86.001 C 90.144 86.145,90.281 86.430,90.281 86.769 C 90.281 87.150,90.391 87.343,90.657 87.428 C 90.878 87.498,91.077 87.765,91.139 88.075 C 91.197 88.366,91.401 88.745,91.592 88.918 C 91.783 89.091,91.939 89.331,91.939 89.452 C 91.939 89.572,92.098 89.814,92.291 89.990 C 92.485 90.165,92.698 90.526,92.765 90.793 C 92.832 91.060,93.046 91.390,93.242 91.527 C 93.437 91.664,93.597 91.889,93.597 92.028 C 93.597 92.166,93.805 92.526,94.058 92.827 C 94.311 93.128,94.519 93.460,94.519 93.566 C 94.519 93.671,94.684 93.809,94.887 93.874 C 95.173 93.965,95.256 94.153,95.256 94.715 C 95.256 95.345,95.310 95.440,95.672 95.440 C 95.901 95.440,96.192 95.606,96.318 95.808 C 96.488 96.080,96.492 96.177,96.334 96.177 C 96.208 96.177,96.252 96.323,96.441 96.532 C 96.796 96.924,96.681 97.747,96.302 97.534 C 96.157 97.453,96.161 97.495,96.315 97.661 C 96.612 97.981,96.648 105.304,96.353 105.486 C 95.776 105.843,95.624 105.182,95.624 102.327 C 95.624 100.561,95.555 99.493,95.440 99.493 C 95.339 99.493,95.256 99.825,95.256 100.230 C 95.256 100.844,95.194 100.967,94.887 100.967 C 94.652 100.967,94.519 101.090,94.519 101.306 C 94.519 101.493,94.311 101.740,94.058 101.855 C 93.710 102.013,93.597 102.205,93.597 102.639 C 93.597 103.058,93.498 103.239,93.229 103.309 C 92.971 103.377,92.860 103.560,92.860 103.924 C 92.860 104.428,92.455 105.021,92.110 105.021 C 92.016 105.021,91.939 105.187,91.939 105.391 C 91.939 105.595,91.773 105.903,91.571 106.077 C 91.368 106.250,91.202 106.583,91.202 106.817 C 91.202 107.100,91.049 107.299,90.742 107.416 C 90.367 107.558,90.281 107.716,90.281 108.258 C 90.281 108.769,90.195 108.947,89.912 109.021 C 89.652 109.089,89.544 109.272,89.544 109.647 C 89.544 109.977,89.405 110.263,89.175 110.407 C 88.973 110.533,88.807 110.780,88.807 110.954 C 88.807 111.129,88.651 111.356,88.460 111.458 C 88.268 111.561,88.057 111.943,87.987 112.314 C 87.904 112.756,87.740 113.016,87.505 113.077 C 87.262 113.141,87.149 113.331,87.149 113.675 C 87.149 113.958,86.946 114.398,86.688 114.676 C 86.435 114.950,86.228 115.334,86.228 115.531 C 86.228 115.727,86.062 115.992,85.859 116.118 C 85.574 116.296,85.491 116.548,85.491 117.227 C 85.491 117.878,85.395 118.188,85.122 118.421 C 84.793 118.704,84.754 118.965,84.754 120.894 L 84.754 123.051 85.813 123.262 C 86.396 123.378,87.163 123.546,87.517 123.635 C 87.872 123.724,89.202 123.853,90.473 123.922 C 93.458 124.084,93.413 124.121,93.413 121.523 C 93.413 119.905,93.467 119.557,93.782 119.157 C 93.984 118.900,94.150 118.563,94.150 118.410 C 94.150 118.256,94.357 117.884,94.611 117.583 C 94.864 117.282,95.071 116.880,95.071 116.689 C 95.071 116.498,95.237 116.200,95.440 116.026 C 95.643 115.853,95.808 115.500,95.808 115.242 C 95.808 114.985,95.932 114.727,96.083 114.669 C 96.234 114.611,96.455 114.239,96.574 113.843 C 96.692 113.447,96.900 113.031,97.036 112.919 C 97.171 112.806,97.282 112.599,97.282 112.459 C 97.282 112.320,97.448 111.896,97.651 111.517 C 97.854 111.139,98.019 110.694,98.019 110.527 C 98.019 110.361,98.142 110.123,98.291 109.999 C 98.440 109.876,98.615 109.495,98.679 109.154 C 98.750 108.775,98.931 108.491,99.144 108.423 C 99.400 108.342,99.493 108.139,99.493 107.663 C 99.493 107.168,99.581 106.990,99.862 106.917 C 100.064 106.864,100.230 106.703,100.230 106.559 C 100.230 106.207,100.979 105.943,101.382 106.154 C 101.559 106.247,101.704 106.442,101.704 106.587 C 101.704 106.732,101.859 106.933,102.048 107.034 C 102.238 107.136,102.442 107.468,102.503 107.772 C 102.564 108.077,102.782 108.494,102.988 108.700 C 103.194 108.906,103.363 109.227,103.363 109.414 C 103.363 109.601,103.528 109.904,103.731 110.088 C 103.934 110.271,104.099 110.520,104.099 110.640 C 104.099 110.761,104.265 111.010,104.468 111.193 C 104.671 111.376,104.836 111.675,104.836 111.857 C 104.836 112.039,105.044 112.411,105.297 112.684 C 105.550 112.958,105.758 113.374,105.758 113.609 C 105.758 113.844,105.920 114.122,106.118 114.229 C 106.319 114.336,106.532 114.706,106.599 115.064 C 106.666 115.418,106.795 115.707,106.888 115.707 C 106.980 115.707,107.157 115.934,107.282 116.211 C 107.406 116.488,107.653 116.862,107.830 117.040 C 108.008 117.219,108.153 117.505,108.153 117.676 C 108.153 117.847,108.337 118.182,108.562 118.422 C 108.922 118.806,108.983 119.116,109.069 121.012 L 109.166 123.166 110.640 123.479 C 112.457 123.865,116.972 124.103,117.365 123.833 C 117.894 123.471,117.933 118.415,117.414 117.390 C 117.185 116.937,116.997 116.344,116.997 116.073 C 116.997 115.802,116.831 115.430,116.628 115.246 C 116.426 115.063,116.258 114.739,116.257 114.527 C 116.255 114.315,116.048 113.946,115.796 113.707 C 115.544 113.468,115.339 113.120,115.339 112.933 C 115.339 112.746,115.223 112.527,115.082 112.446 C 114.941 112.365,114.696 111.988,114.539 111.608 C 114.381 111.228,114.165 110.917,114.058 110.917 C 113.952 110.917,113.865 110.757,113.865 110.562 C 113.865 110.367,113.657 109.962,113.404 109.661 C 113.151 109.359,112.943 108.990,112.943 108.840 C 112.943 108.690,112.814 108.459,112.656 108.328 C 112.498 108.197,112.254 107.814,112.113 107.477 C 111.972 107.139,111.776 106.863,111.678 106.863 C 111.579 106.863,111.446 106.623,111.381 106.330 C 111.317 106.036,111.103 105.650,110.906 105.472 C 110.709 105.294,110.548 105.005,110.548 104.830 C 110.548 104.656,110.411 104.399,110.243 104.260 C 110.076 104.121,109.826 103.738,109.688 103.409 C 109.550 103.079,109.362 102.810,109.271 102.810 C 109.179 102.810,109.051 102.570,108.986 102.276 C 108.922 101.983,108.708 101.597,108.511 101.418 C 108.314 101.240,108.153 100.954,108.153 100.783 C 108.153 100.612,107.989 100.324,107.789 100.142 C 107.589 99.961,107.372 99.638,107.307 99.423 C 107.241 99.208,107.066 98.894,106.917 98.724 C 106.330 98.054,106.301 95.993,106.879 95.993 C 106.969 95.993,107.160 95.713,107.303 95.370 C 107.446 95.028,107.654 94.691,107.766 94.622 C 107.877 94.553,107.969 94.350,107.969 94.171 C 107.969 93.992,108.176 93.651,108.429 93.413 C 108.683 93.175,108.890 92.815,108.890 92.613 C 108.890 92.412,109.016 92.115,109.171 91.955 C 109.619 91.489,110.364 90.286,110.364 90.029 C 110.364 89.899,110.571 89.598,110.825 89.360 C 111.078 89.122,111.285 88.732,111.285 88.493 C 111.285 88.254,111.414 88.009,111.573 87.948 C 111.731 87.887,111.988 87.517,112.145 87.125 C 112.302 86.733,112.505 86.412,112.595 86.412 C 112.685 86.412,112.759 86.294,112.759 86.150 C 112.759 86.005,112.966 85.641,113.220 85.340 C 113.473 85.039,113.680 84.615,113.680 84.399 C 113.680 84.182,113.813 83.954,113.975 83.892 C 114.137 83.830,114.426 83.439,114.617 83.023 C 115.023 82.142,115.275 81.729,115.845 81.010 C 116.073 80.723,116.260 80.341,116.260 80.162 C 116.260 79.983,116.426 79.686,116.628 79.503 C 116.831 79.319,116.997 79.023,116.997 78.844 C 116.997 78.666,117.163 78.133,117.365 77.660 C 117.911 76.387,117.920 71.416,117.377 71.126 C 116.837 70.836,109.838 70.880,109.258 71.176 C 108.804 71.409,108.798 71.443,108.798 73.731 C 108.798 75.680,108.746 76.108,108.475 76.409 C 108.298 76.606,108.153 77.028,108.153 77.346 C 108.153 77.735,108.033 77.988,107.784 78.121 C 107.571 78.235,107.416 78.506,107.416 78.765 C 107.416 79.011,107.263 79.360,107.077 79.541 C 106.890 79.723,106.683 80.024,106.615 80.211 C 106.548 80.398,106.327 80.594,106.125 80.647 C 105.850 80.719,105.758 80.899,105.758 81.360 C 105.758 81.776,105.644 82.038,105.411 82.163 C 105.220 82.265,105.009 82.640,104.942 82.996 C 104.874 83.359,104.662 83.729,104.460 83.837 C 104.262 83.943,104.099 84.187,104.099 84.379 C 104.099 84.571,103.934 84.781,103.731 84.846 C 103.474 84.927,103.363 85.124,103.363 85.496 C 103.363 85.842,103.232 86.100,102.994 86.228 C 102.776 86.344,102.626 86.613,102.626 86.888 C 102.626 87.142,102.433 87.533,102.197 87.756 C 101.962 87.980,101.713 88.313,101.645 88.497 C 101.480 88.947,100.760 88.835,100.504 88.320 C 100.396 88.103,100.219 87.813,100.110 87.675 C 100.002 87.538,99.853 87.176,99.781 86.872 C 99.708 86.568,99.542 86.195,99.412 86.043 C 99.281 85.891,99.122 85.545,99.057 85.273 C 98.993 85.002,98.827 84.666,98.688 84.528 C 98.550 84.389,98.373 84.072,98.295 83.824 C 98.217 83.575,97.998 83.174,97.810 82.932 C 97.621 82.691,97.467 82.391,97.467 82.266 C 97.467 82.142,97.301 81.829,97.098 81.571 C 96.895 81.313,96.730 80.983,96.730 80.838 C 96.730 80.692,96.564 80.423,96.361 80.240 C 96.158 80.056,95.993 79.801,95.993 79.672 C 95.993 79.544,95.785 79.192,95.532 78.891 C 95.279 78.590,95.071 78.179,95.071 77.978 C 95.071 77.777,94.942 77.506,94.784 77.375 C 94.627 77.244,94.376 76.881,94.227 76.569 C 94.078 76.257,93.836 75.795,93.689 75.541 C 93.492 75.202,93.452 74.758,93.534 73.858 C 93.701 72.045,93.528 71.380,92.828 71.135 C 92.278 70.944,85.909 70.887,84.984 71.065 M126.439 71.065 C 125.720 71.204,125.636 71.650,125.836 74.277 C 125.987 76.259,126.087 76.782,126.376 77.093 C 126.572 77.304,126.788 77.781,126.857 78.155 C 126.926 78.528,127.140 78.976,127.333 79.151 C 127.525 79.325,127.683 79.601,127.683 79.763 C 127.683 79.926,127.849 80.162,128.052 80.289 C 128.268 80.424,128.420 80.719,128.420 81.003 C 128.420 81.283,128.615 81.667,128.881 81.914 C 129.134 82.149,129.341 82.543,129.341 82.790 C 129.341 83.038,129.459 83.285,129.602 83.340 C 129.860 83.439,130.165 83.913,130.721 85.080 C 130.879 85.412,131.172 85.847,131.372 86.048 C 131.573 86.248,131.737 86.622,131.737 86.878 C 131.737 87.135,131.859 87.392,132.008 87.449 C 132.158 87.506,132.394 87.773,132.533 88.042 C 133.227 89.380,133.514 89.835,133.809 90.058 C 133.987 90.192,134.132 90.489,134.132 90.719 C 134.132 90.948,134.339 91.316,134.592 91.536 C 134.846 91.757,135.053 92.020,135.053 92.122 C 135.053 92.224,135.219 92.474,135.421 92.676 C 135.624 92.879,135.790 93.191,135.790 93.369 C 135.790 93.548,135.977 93.776,136.205 93.876 C 136.509 94.010,136.634 94.241,136.676 94.749 C 136.714 95.211,136.824 95.440,137.006 95.440 C 137.157 95.440,137.433 95.585,137.621 95.762 C 138.005 96.125,138.437 97.467,138.170 97.467 C 138.073 97.467,138.001 99.096,138.001 101.313 C 138.001 104.280,137.945 105.206,137.757 105.362 C 137.216 105.812,137.080 105.200,137.080 102.312 C 137.080 100.556,137.010 99.493,136.895 99.493 C 136.794 99.493,136.711 99.786,136.711 100.143 C 136.711 100.666,136.622 100.826,136.251 100.967 C 135.981 101.070,135.790 101.289,135.790 101.494 C 135.790 101.691,135.628 101.888,135.421 101.942 C 135.150 102.013,135.053 102.193,135.053 102.626 C 135.053 103.059,134.956 103.238,134.683 103.309 C 134.423 103.377,134.280 103.617,134.200 104.116 C 134.125 104.584,133.968 104.863,133.741 104.936 C 133.550 104.996,133.395 105.206,133.395 105.402 C 133.395 105.597,133.231 105.921,133.031 106.122 C 132.831 106.322,132.615 106.695,132.550 106.951 C 132.477 107.243,132.304 107.416,132.085 107.416 C 131.802 107.416,131.737 107.553,131.737 108.141 C 131.737 108.690,131.652 108.892,131.387 108.976 C 131.171 109.044,130.993 109.329,130.919 109.723 C 130.853 110.076,130.639 110.445,130.439 110.552 C 130.241 110.659,130.078 110.908,130.078 111.106 C 130.078 111.304,129.912 111.570,129.710 111.696 C 129.490 111.834,129.341 112.126,129.341 112.423 C 129.341 112.757,129.221 112.957,128.973 113.035 C 128.719 113.116,128.569 113.376,128.490 113.872 C 128.413 114.348,128.258 114.628,128.029 114.701 C 127.816 114.769,127.683 114.982,127.683 115.259 C 127.683 115.505,127.529 115.861,127.341 116.050 C 127.128 116.262,126.962 116.763,126.904 117.370 C 126.849 117.938,126.693 118.434,126.531 118.553 C 126.254 118.755,125.958 123.077,126.221 123.077 C 126.279 123.077,127.077 123.237,127.993 123.433 C 128.908 123.629,130.653 123.847,131.870 123.918 C 134.812 124.090,134.869 124.043,134.869 121.402 C 134.869 119.821,134.924 119.472,135.237 119.074 C 135.440 118.816,135.606 118.464,135.606 118.290 C 135.606 118.117,135.772 117.825,135.974 117.642 C 136.177 117.458,136.343 117.171,136.343 117.004 C 136.343 116.837,136.550 116.419,136.803 116.076 C 137.057 115.732,137.264 115.314,137.264 115.147 C 137.264 114.980,137.430 114.693,137.632 114.509 C 137.835 114.326,138.001 113.992,138.001 113.766 C 138.001 113.541,138.120 113.258,138.265 113.137 C 138.411 113.017,138.582 112.681,138.646 112.391 C 138.709 112.101,138.872 111.772,139.007 111.660 C 139.142 111.548,139.307 111.165,139.374 110.808 C 139.441 110.452,139.615 110.114,139.761 110.058 C 139.920 109.997,140.028 109.707,140.028 109.337 C 140.028 108.907,140.140 108.659,140.396 108.521 C 140.606 108.409,140.765 108.136,140.765 107.885 C 140.765 107.205,140.956 106.863,141.337 106.863 C 141.529 106.863,141.686 106.742,141.686 106.593 C 141.686 106.445,141.854 106.233,142.060 106.123 C 142.569 105.851,143.897 107.179,143.897 107.962 C 143.897 108.310,144.008 108.508,144.239 108.568 C 144.428 108.617,144.640 108.890,144.711 109.174 C 144.783 109.458,145.002 109.894,145.198 110.144 C 145.394 110.394,145.555 110.670,145.555 110.757 C 145.555 110.845,145.721 111.082,145.924 111.285 C 146.126 111.488,146.292 111.807,146.292 111.994 C 146.292 112.181,146.453 112.479,146.650 112.658 C 146.847 112.836,147.065 113.242,147.135 113.561 C 147.205 113.880,147.417 114.249,147.607 114.382 C 147.796 114.514,147.950 114.784,147.950 114.982 C 147.950 115.180,148.116 115.484,148.319 115.658 C 148.521 115.831,148.687 116.076,148.687 116.201 C 148.687 116.327,148.846 116.578,149.041 116.759 C 149.235 116.941,149.456 117.338,149.531 117.642 C 149.606 117.946,149.813 118.298,149.991 118.424 C 150.253 118.610,150.338 119.068,150.445 120.869 C 150.518 122.088,150.641 123.124,150.720 123.173 C 151.680 123.766,158.380 124.228,158.873 123.735 C 159.377 123.231,159.337 118.376,158.821 117.413 C 158.618 117.035,158.452 116.493,158.452 116.208 C 158.452 115.912,158.256 115.479,157.992 115.194 C 157.738 114.921,157.531 114.564,157.531 114.402 C 157.531 114.239,157.370 113.960,157.173 113.782 C 156.976 113.604,156.764 113.225,156.701 112.940 C 156.639 112.655,156.479 112.380,156.346 112.329 C 156.213 112.278,156.047 112.005,155.976 111.723 C 155.905 111.440,155.687 111.097,155.491 110.960 C 155.296 110.824,155.136 110.563,155.136 110.382 C 155.136 110.201,154.978 109.909,154.784 109.734 C 154.590 109.559,154.376 109.194,154.308 108.922 C 154.240 108.651,154.026 108.281,153.831 108.100 C 153.637 107.918,153.478 107.612,153.478 107.418 C 153.478 107.224,153.365 106.999,153.228 106.918 C 153.090 106.837,152.832 106.460,152.654 106.080 C 152.476 105.700,152.263 105.389,152.182 105.389 C 152.100 105.389,151.980 105.149,151.916 104.856 C 151.851 104.562,151.637 104.176,151.441 103.998 C 151.244 103.820,151.082 103.575,151.082 103.454 C 151.082 103.333,150.917 103.043,150.714 102.810 C 150.511 102.576,150.345 102.277,150.345 102.146 C 150.345 102.015,150.138 101.684,149.885 101.411 C 149.632 101.137,149.424 100.773,149.424 100.600 C 149.424 100.428,149.261 100.139,149.060 99.958 C 148.860 99.777,148.641 99.455,148.574 99.242 C 148.506 99.030,148.285 98.631,148.083 98.357 C 147.651 97.774,147.729 96.426,148.214 96.071 C 148.373 95.955,148.503 95.757,148.503 95.630 C 148.503 95.504,148.710 95.155,148.964 94.854 C 149.217 94.552,149.424 94.150,149.424 93.958 C 149.424 93.767,149.589 93.522,149.791 93.414 C 149.992 93.307,150.213 92.993,150.282 92.717 C 150.352 92.441,150.692 91.811,151.039 91.317 C 151.387 90.823,151.754 90.180,151.855 89.889 C 151.957 89.598,152.104 89.360,152.184 89.360 C 152.263 89.360,152.434 89.090,152.564 88.761 C 152.695 88.432,152.920 88.023,153.064 87.852 C 153.342 87.526,153.821 86.691,154.262 85.767 C 154.407 85.463,154.663 85.100,154.831 84.961 C 154.999 84.822,155.136 84.563,155.136 84.385 C 155.136 84.207,155.265 83.955,155.423 83.824 C 155.581 83.692,155.833 83.330,155.983 83.018 C 156.662 81.607,157.008 81.046,157.260 80.949 C 157.409 80.892,157.531 80.661,157.531 80.436 C 157.531 80.211,157.738 79.833,157.992 79.595 C 158.245 79.357,158.452 78.966,158.452 78.726 C 158.452 78.486,158.618 77.965,158.821 77.568 C 159.352 76.527,159.376 71.714,158.852 71.240 C 158.449 70.875,151.690 70.783,150.776 71.131 C 150.013 71.421,149.980 71.564,150.104 74.016 C 150.204 76.006,150.182 76.282,149.913 76.385 C 149.714 76.462,149.608 76.715,149.608 77.120 C 149.608 77.486,149.467 77.872,149.261 78.067 C 149.071 78.249,148.855 78.672,148.783 79.008 C 148.711 79.344,148.530 79.667,148.379 79.724 C 148.229 79.782,148.032 80.025,147.941 80.265 C 147.850 80.504,147.649 80.700,147.494 80.700 C 147.305 80.700,147.213 80.881,147.213 81.255 C 147.213 81.584,147.061 81.939,146.840 82.129 C 146.634 82.305,146.382 82.760,146.280 83.141 C 146.172 83.540,145.980 83.832,145.824 83.832 C 145.676 83.832,145.555 83.985,145.555 84.172 C 145.555 84.359,145.399 84.654,145.208 84.827 C 145.017 84.999,144.813 85.379,144.755 85.669 C 144.693 85.980,144.494 86.247,144.273 86.317 C 143.988 86.408,143.897 86.594,143.897 87.086 C 143.897 87.581,143.809 87.759,143.528 87.832 C 143.326 87.885,143.160 88.033,143.160 88.161 C 143.160 89.672,141.583 88.414,141.045 86.474 C 140.984 86.256,140.813 85.976,140.665 85.853 C 140.517 85.730,140.396 85.466,140.396 85.267 C 140.396 85.067,140.230 84.693,140.028 84.435 C 139.825 84.178,139.659 83.825,139.659 83.652 C 139.659 83.478,139.493 83.187,139.291 83.003 C 139.088 82.820,138.922 82.562,138.922 82.430 C 138.922 82.298,138.715 81.885,138.462 81.512 C 138.208 81.138,138.001 80.739,138.001 80.623 C 138.001 80.508,137.835 80.272,137.632 80.098 C 137.430 79.924,137.264 79.629,137.264 79.441 C 137.264 79.253,137.106 78.956,136.912 78.781 C 136.718 78.605,136.509 78.259,136.447 78.010 C 136.384 77.762,136.170 77.395,135.970 77.195 C 135.769 76.995,135.606 76.692,135.606 76.523 C 135.606 76.354,135.461 76.055,135.283 75.860 C 135.031 75.582,134.941 75.058,134.869 73.455 C 134.781 71.495,134.756 71.395,134.316 71.173 C 133.873 70.949,127.494 70.862,126.439 71.065 M206.633 71.106 C 201.507 71.203,200.085 71.283,199.701 71.496 C 199.435 71.643,198.937 71.920,198.595 72.111 C 197.854 72.524,195.670 74.749,195.670 75.091 C 195.670 75.223,195.533 75.468,195.365 75.636 C 195.198 75.803,195.021 76.351,194.973 76.853 C 194.919 77.414,194.766 77.851,194.576 77.989 C 194.290 78.196,194.268 79.640,194.278 97.282 L 194.288 116.352 194.703 116.766 C 194.994 117.058,195.117 117.399,195.117 117.916 C 195.117 118.452,195.217 118.714,195.486 118.882 C 195.689 119.009,195.854 119.252,195.854 119.424 C 195.854 119.595,196.016 119.787,196.214 119.850 C 196.411 119.912,196.624 120.125,196.687 120.323 C 196.749 120.520,196.914 120.682,197.052 120.682 C 197.190 120.682,197.356 120.848,197.421 121.050 C 197.485 121.253,197.664 121.419,197.819 121.419 C 197.973 121.419,198.141 121.577,198.192 121.770 C 198.250 121.993,198.511 122.164,198.906 122.238 C 199.249 122.302,199.638 122.510,199.771 122.701 C 200.001 123.028,200.478 123.054,208.482 123.165 C 213.140 123.230,217.898 123.299,219.056 123.319 C 220.789 123.347,221.232 123.298,221.558 123.042 C 221.776 122.871,222.166 122.678,222.425 122.613 C 222.683 122.548,223.340 122.049,223.884 121.502 C 225.292 120.090,225.449 119.884,225.700 119.124 C 225.823 118.751,226.040 118.400,226.182 118.346 C 226.341 118.285,226.439 117.976,226.439 117.539 C 226.439 117.149,226.564 116.353,226.716 115.769 C 227.129 114.184,227.131 80.478,226.718 79.117 C 226.567 78.620,226.443 77.858,226.441 77.424 C 226.440 76.897,226.348 76.600,226.165 76.530 C 226.014 76.472,225.803 76.097,225.695 75.697 C 225.587 75.297,225.379 74.923,225.232 74.867 C 225.085 74.811,224.965 74.685,224.965 74.588 C 224.965 74.322,223.798 72.969,223.566 72.965 C 223.455 72.963,223.214 72.796,223.031 72.593 C 222.847 72.391,222.551 72.225,222.372 72.225 C 222.192 72.225,221.809 72.026,221.520 71.783 C 220.668 71.065,217.169 70.906,206.633 71.106 M242.264 71.287 C 241.444 71.377,240.879 71.552,240.535 71.823 C 240.254 72.044,239.936 72.225,239.828 72.225 C 239.518 72.225,237.129 74.817,237.013 75.280 C 236.956 75.511,236.791 75.744,236.649 75.798 C 236.473 75.866,236.389 76.197,236.389 76.824 C 236.389 77.550,236.309 77.799,236.020 77.979 C 235.656 78.207,235.652 78.409,235.652 97.397 C 235.652 116.430,235.655 116.586,236.020 116.682 C 236.297 116.754,236.389 116.933,236.389 117.397 C 236.389 117.754,236.584 118.304,236.849 118.695 C 237.103 119.067,237.310 119.454,237.310 119.554 C 237.310 119.654,237.476 119.788,237.678 119.853 C 237.881 119.917,238.047 120.130,238.047 120.326 C 238.047 120.523,238.173 120.682,238.329 120.682 C 238.484 120.682,238.661 120.812,238.723 120.972 C 238.784 121.132,239.030 121.337,239.270 121.428 C 239.509 121.519,239.705 121.711,239.705 121.854 C 239.705 122.006,239.974 122.165,240.348 122.235 C 240.701 122.302,241.073 122.510,241.174 122.699 C 241.348 123.024,241.827 123.050,249.882 123.170 C 261.448 123.343,262.540 123.329,262.902 123.003 C 263.064 122.857,263.431 122.679,263.718 122.607 C 264.355 122.448,266.974 119.875,266.974 119.408 C 266.974 119.224,267.146 118.854,267.356 118.587 C 267.580 118.302,267.808 117.624,267.905 116.950 C 267.997 116.317,268.156 115.510,268.260 115.156 C 268.593 114.016,268.511 80.650,268.171 79.348 C 268.019 78.764,267.895 77.992,267.895 77.632 C 267.895 77.201,267.737 76.788,267.434 76.429 C 267.181 76.128,266.974 75.700,266.974 75.479 C 266.974 75.258,266.808 74.974,266.605 74.847 C 266.403 74.720,266.237 74.525,266.237 74.413 C 266.237 74.236,265.921 73.910,264.379 72.493 C 264.218 72.345,263.955 72.225,263.794 72.225 C 263.633 72.225,263.230 71.997,262.899 71.718 L 262.297 71.211 252.890 71.183 C 247.716 71.167,242.934 71.214,242.264 71.287 M283.724 71.296 C 282.928 71.378,282.316 71.559,281.945 71.823 C 281.634 72.044,281.310 72.227,281.224 72.230 C 280.870 72.241,278.696 74.591,278.330 75.357 C 278.258 75.509,278.078 75.841,277.932 76.094 C 277.785 76.347,277.664 76.855,277.663 77.223 C 277.661 77.591,277.536 77.995,277.384 78.121 C 276.981 78.455,276.962 116.628,277.364 116.628 C 277.670 116.628,277.844 117.024,277.844 117.720 C 277.844 118.000,278.010 118.379,278.213 118.563 C 278.415 118.746,278.581 119.081,278.581 119.307 C 278.581 119.567,278.721 119.754,278.963 119.817 C 279.174 119.872,279.391 120.089,279.446 120.300 C 279.501 120.510,279.668 120.682,279.818 120.682 C 279.967 120.682,280.133 120.848,280.186 121.050 C 280.239 121.253,280.433 121.419,280.617 121.419 C 280.801 121.419,281.002 121.576,281.062 121.768 C 281.132 121.987,281.418 122.163,281.832 122.241 C 282.251 122.319,282.524 122.488,282.580 122.705 C 282.665 123.028,283.114 123.052,291.266 123.165 C 295.994 123.231,300.768 123.300,301.875 123.319 C 303.521 123.347,303.961 123.297,304.285 123.042 C 304.503 122.871,304.905 122.675,305.178 122.607 C 305.862 122.435,308.429 119.826,308.429 119.303 C 308.429 119.079,308.595 118.746,308.798 118.563 C 309.019 118.362,309.166 117.995,309.166 117.642 C 309.166 117.320,309.307 116.648,309.479 116.151 C 309.845 115.090,310.085 83.097,309.745 80.608 C 309.379 77.928,309.104 76.728,308.771 76.358 C 308.583 76.149,308.429 75.830,308.429 75.648 C 308.429 75.467,308.217 75.057,307.957 74.739 C 306.727 73.230,306.479 72.969,306.266 72.966 C 306.140 72.964,305.934 72.796,305.807 72.593 C 305.681 72.391,305.390 72.225,305.161 72.225 C 304.932 72.225,304.558 72.038,304.330 71.810 C 303.998 71.478,303.622 71.371,302.441 71.272 C 300.544 71.113,285.319 71.133,283.724 71.296 M324.973 71.373 C 324.183 71.500,323.400 71.740,323.208 71.913 C 323.019 72.085,322.787 72.225,322.694 72.226 C 322.482 72.227,321.441 73.201,320.590 74.194 C 319.619 75.327,319.116 76.350,319.116 77.188 C 319.116 77.734,319.017 77.995,318.747 78.163 C 318.383 78.391,318.379 78.593,318.379 97.254 L 318.379 116.114 318.839 116.662 C 319.093 116.963,319.300 117.418,319.300 117.673 C 319.300 117.928,319.466 118.347,319.668 118.605 C 319.871 118.862,320.037 119.222,320.037 119.404 C 320.037 119.587,320.194 119.785,320.385 119.846 C 320.577 119.907,320.777 120.120,320.829 120.319 C 320.881 120.519,321.050 120.682,321.205 120.682 C 321.359 120.682,321.539 120.848,321.603 121.050 C 321.667 121.253,321.846 121.419,322.001 121.419 C 322.156 121.419,322.323 121.575,322.373 121.766 C 322.435 122.002,322.693 122.150,323.173 122.227 C 323.645 122.303,323.919 122.458,323.993 122.693 C 324.101 123.031,324.452 123.050,332.711 123.164 C 337.445 123.230,342.223 123.299,343.330 123.318 C 344.940 123.346,345.420 123.294,345.726 123.056 C 345.936 122.893,346.315 122.696,346.568 122.619 C 346.822 122.542,347.168 122.344,347.337 122.179 C 347.507 122.014,347.942 121.608,348.305 121.276 C 348.667 120.944,348.964 120.594,348.964 120.499 C 348.964 120.404,349.115 120.245,349.300 120.146 C 349.485 120.047,349.734 119.639,349.854 119.238 C 349.974 118.837,350.196 118.461,350.347 118.403 C 350.531 118.333,350.623 118.036,350.625 117.509 C 350.626 117.075,350.771 116.347,350.947 115.891 C 351.242 115.125,351.267 113.727,351.267 97.467 C 351.267 81.206,351.242 79.808,350.947 79.042 C 350.771 78.586,350.626 77.873,350.625 77.458 C 350.623 76.940,350.506 76.599,350.253 76.370 C 350.051 76.187,349.885 75.891,349.885 75.713 C 349.885 75.123,347.116 72.225,346.552 72.225 C 346.374 72.225,345.957 71.997,345.626 71.718 L 345.024 71.211 335.709 71.178 C 329.050 71.155,325.988 71.210,324.973 71.373 M216.327 79.556 C 216.569 79.737,216.994 79.984,217.273 80.105 C 217.552 80.225,217.780 80.431,217.780 80.563 C 217.780 80.695,217.938 80.938,218.131 81.103 C 218.686 81.579,218.728 82.967,218.666 98.813 C 218.609 113.507,218.609 113.517,218.221 113.829 C 218.008 114.001,217.782 114.286,217.720 114.463 C 217.658 114.641,217.448 114.786,217.254 114.786 C 217.057 114.786,216.859 114.948,216.805 115.154 C 216.689 115.597,216.658 115.598,209.765 115.273 L 204.975 115.047 204.053 114.395 C 202.786 113.497,202.840 114.115,202.641 98.204 C 202.545 90.553,202.458 83.920,202.447 83.464 C 202.398 81.454,202.870 80.254,203.790 80.052 C 204.087 79.987,204.330 79.823,204.330 79.687 C 204.330 79.096,215.550 78.973,216.327 79.556 M257.783 79.569 C 258.024 79.758,258.409 79.971,258.637 80.042 C 258.865 80.114,259.051 80.277,259.051 80.404 C 259.051 80.532,259.258 80.831,259.512 81.069 L 259.972 81.501 259.972 97.597 C 259.972 112.081,259.943 113.703,259.682 113.803 C 259.522 113.865,259.317 114.111,259.226 114.350 C 259.135 114.590,258.926 114.786,258.763 114.786 C 258.599 114.786,258.325 114.959,258.154 115.171 C 257.661 115.779,247.027 115.358,245.879 114.685 C 244.722 114.007,244.311 113.545,244.311 112.924 C 244.311 112.617,244.230 112.215,244.131 112.030 C 244.019 111.820,243.946 106.032,243.938 96.575 C 243.922 79.997,243.886 80.554,245.000 80.131 C 245.267 80.029,245.600 79.784,245.738 79.586 C 246.120 79.042,257.088 79.027,257.783 79.569 M299.238 79.563 C 299.480 79.749,299.825 79.954,300.004 80.020 C 300.184 80.085,300.387 80.286,300.456 80.466 C 300.525 80.645,300.751 80.930,300.958 81.098 C 301.333 81.402,301.336 81.536,301.390 97.036 C 301.448 113.550,301.441 113.777,300.869 113.959 C 300.670 114.022,300.507 114.234,300.507 114.430 C 300.507 114.632,300.380 114.786,300.214 114.786 C 300.053 114.786,299.781 114.959,299.609 115.171 C 299.097 115.804,288.480 115.361,287.241 114.654 C 286.038 113.969,285.767 113.685,285.767 113.111 C 285.767 112.829,285.690 112.395,285.595 112.147 C 285.495 111.884,285.406 105.339,285.381 96.498 L 285.340 81.300 285.750 80.724 C 285.976 80.407,286.280 80.147,286.426 80.147 C 286.571 80.147,286.871 79.940,287.091 79.687 L 287.492 79.226 293.145 79.226 C 298.341 79.226,298.834 79.253,299.238 79.563 M340.939 79.733 C 341.350 80.012,341.711 80.294,341.742 80.362 C 341.773 80.429,342.001 80.702,342.249 80.970 L 342.699 81.456 342.699 97.558 C 342.699 112.904,342.684 113.671,342.365 113.900 C 342.181 114.033,341.976 114.286,341.910 114.463 C 341.844 114.641,341.631 114.786,341.437 114.786 C 341.237 114.786,341.041 114.948,340.986 115.161 C 340.890 115.529,340.803 115.534,336.404 115.431 C 330.346 115.289,329.361 115.203,328.811 114.771 C 328.564 114.576,328.287 114.417,328.195 114.417 C 328.103 114.417,327.816 114.189,327.556 113.911 C 326.874 113.180,326.866 112.975,326.830 96.152 L 326.799 81.110 327.375 80.583 C 329.010 79.088,328.276 79.226,334.566 79.226 L 340.192 79.226 340.939 79.733 M167.283 93.521 C 167.085 93.760,167.081 94.304,167.262 96.515 C 167.384 98.001,167.482 99.652,167.482 100.184 L 167.480 101.152 172.041 101.152 C 175.404 101.152,177.448 101.248,179.825 101.520 C 184.262 102.027,185.094 101.990,185.580 101.262 C 185.793 100.943,185.748 93.992,185.530 93.585 C 185.262 93.084,167.698 93.021,167.283 93.521 " stroke="none" fill="#0b0b0b" fill-rule="evenodd"></path><path id="path1" d="M34.139 23.566 C 33.928 23.790,33.419 23.965,32.726 24.051 C 31.891 24.154,31.623 24.263,31.553 24.529 C 31.488 24.779,31.294 24.873,30.844 24.873 C 30.387 24.873,30.146 24.994,29.923 25.334 C 29.751 25.597,29.445 25.795,29.210 25.795 C 28.985 25.795,28.651 25.958,28.470 26.158 C 28.289 26.358,27.986 26.571,27.797 26.631 C 27.608 26.691,27.453 26.828,27.453 26.934 C 27.453 27.152,26.171 28.374,25.943 28.374 C 25.861 28.374,25.795 28.450,25.795 28.544 C 25.795 28.637,25.259 29.265,24.605 29.938 C 23.951 30.612,23.365 31.323,23.303 31.519 C 23.241 31.715,23.120 31.875,23.033 31.875 C 22.947 31.875,22.823 32.115,22.759 32.408 C 22.694 32.702,22.480 33.088,22.283 33.266 C 22.087 33.444,21.925 33.773,21.925 33.997 C 21.925 34.221,21.752 34.625,21.540 34.894 C 21.329 35.163,21.092 35.817,21.014 36.347 C 20.936 36.876,20.737 37.559,20.571 37.863 C 20.051 38.816,20.114 128.462,20.636 129.249 C 20.839 129.556,21.002 130.114,21.003 130.503 C 21.004 130.945,21.174 131.453,21.465 131.881 C 21.718 132.254,21.925 132.709,21.925 132.892 C 21.925 133.075,22.091 133.471,22.294 133.771 C 22.497 134.071,22.817 134.546,23.005 134.826 C 23.193 135.107,23.401 135.505,23.466 135.711 C 23.623 136.204,27.913 140.396,28.261 140.396 C 28.409 140.396,28.770 140.598,29.063 140.845 C 29.356 141.092,29.815 141.348,30.083 141.416 C 30.351 141.483,30.666 141.654,30.784 141.796 C 30.902 141.938,31.185 142.054,31.412 142.054 C 31.639 142.054,32.052 142.233,32.330 142.452 C 32.645 142.699,33.194 142.881,33.783 142.933 C 34.304 142.980,35.205 143.174,35.784 143.365 C 37.217 143.838,143.179 143.919,143.699 143.448 C 144.198 142.997,247.885 142.940,248.167 143.390 C 248.465 143.868,354.313 143.878,355.504 143.401 C 355.910 143.238,356.753 143.069,357.378 143.025 C 358.192 142.968,358.605 142.845,358.834 142.592 C 359.010 142.398,359.379 142.239,359.654 142.239 C 359.928 142.239,360.364 142.073,360.621 141.870 C 360.879 141.667,361.222 141.502,361.383 141.502 C 361.545 141.502,361.845 141.333,362.051 141.127 C 362.257 140.922,362.678 140.702,362.988 140.641 C 363.298 140.579,363.596 140.409,363.652 140.264 C 363.708 140.118,363.950 139.925,364.189 139.834 C 364.429 139.743,364.625 139.542,364.625 139.387 C 364.625 139.233,364.757 139.106,364.918 139.106 C 365.080 139.106,365.253 138.951,365.302 138.760 C 365.352 138.570,365.593 138.323,365.838 138.212 C 366.083 138.100,366.283 137.883,366.283 137.729 C 366.283 137.571,366.444 137.448,366.651 137.448 C 366.890 137.448,367.020 137.325,367.020 137.100 C 367.020 136.882,367.192 136.708,367.480 136.636 C 367.766 136.564,367.941 136.389,367.941 136.176 C 367.941 135.988,368.107 135.790,368.310 135.737 C 368.590 135.663,368.678 135.485,368.678 134.991 C 368.678 134.458,368.752 134.331,369.093 134.283 C 369.437 134.234,369.517 134.092,369.564 133.441 C 369.610 132.808,369.689 132.658,369.978 132.658 C 370.296 132.658,370.336 132.523,370.336 131.473 C 370.336 130.385,370.370 130.283,370.751 130.229 L 371.165 130.170 371.212 83.615 C 371.258 36.897,371.249 36.112,370.617 36.112 C 370.407 36.112,370.336 35.903,370.336 35.283 C 370.336 34.585,370.280 34.454,369.978 34.454 C 369.689 34.454,369.610 34.304,369.564 33.671 C 369.517 33.020,369.437 32.878,369.093 32.829 C 368.743 32.780,368.678 32.657,368.678 32.046 C 368.678 31.445,368.616 31.322,368.310 31.322 C 368.039 31.322,367.941 31.199,367.941 30.861 C 367.941 30.531,367.842 30.401,367.589 30.401 C 367.321 30.401,367.206 30.223,367.112 29.664 C 367.017 29.104,366.903 28.927,366.635 28.927 C 366.382 28.927,366.283 28.797,366.283 28.466 C 366.283 28.170,366.179 28.006,365.993 28.006 C 365.650 28.006,365.145 27.546,365.309 27.383 C 365.372 27.320,365.078 27.269,364.655 27.269 C 363.959 27.269,363.888 27.226,363.888 26.808 C 363.888 26.475,363.789 26.347,363.532 26.347 C 363.336 26.347,363.123 26.181,363.058 25.979 C 362.968 25.693,362.780 25.610,362.217 25.610 C 361.567 25.610,361.492 25.563,361.492 25.150 C 361.492 24.896,361.430 24.699,361.354 24.711 C 360.594 24.831,359.867 24.651,359.781 24.321 C 359.698 24.004,359.529 23.952,358.583 23.952 C 357.637 23.952,357.468 23.900,357.386 23.584 C 357.237 23.016,34.672 22.998,34.139 23.566 M132.449 31.146 C 134.162 32.407,134.191 34.805,132.511 36.206 L 131.903 36.713 129.379 36.598 C 127.990 36.535,124.870 36.429,122.444 36.363 L 118.034 36.244 117.333 35.549 C 115.889 34.120,115.920 32.602,117.420 31.340 L 117.988 30.861 123.342 30.755 C 131.402 30.595,131.717 30.608,132.449 31.146 M274.494 31.021 C 277.316 33.103,276.114 36.972,272.717 36.742 C 272.041 36.696,270.270 36.577,268.782 36.478 C 267.293 36.378,264.791 36.297,263.221 36.297 C 261.079 36.297,260.305 36.235,260.120 36.049 C 259.984 35.913,259.691 35.705,259.468 35.586 C 258.421 35.025,258.354 32.338,259.364 31.446 C 260.290 30.628,260.259 30.631,267.445 30.607 L 273.904 30.585 274.494 31.021 M161.228 42.199 C 161.496 42.343,161.585 42.587,161.585 43.190 C 161.585 44.432,161.460 44.473,158.181 44.320 L 155.335 44.188 155.227 44.618 C 155.168 44.855,155.144 45.795,155.174 46.707 L 155.228 48.365 156.944 48.398 C 158.831 48.435,159.189 48.593,159.189 49.388 C 159.189 50.301,158.804 50.484,156.878 50.484 L 155.145 50.484 155.095 53.291 L 155.044 56.099 154.502 56.358 C 154.034 56.582,153.895 56.582,153.488 56.354 L 153.017 56.089 152.969 49.393 C 152.935 44.688,152.981 42.623,153.125 42.450 C 153.271 42.274,153.997 42.187,155.661 42.146 C 156.943 42.114,158.640 42.070,159.432 42.048 C 160.224 42.026,161.032 42.094,161.228 42.199 M253.772 42.354 C 254.167 42.681,254.166 43.732,253.771 44.059 C 253.540 44.249,252.753 44.311,250.576 44.311 C 246.994 44.311,247.075 44.264,247.075 46.356 C 247.075 48.315,247.277 48.500,249.332 48.421 C 250.892 48.361,251.313 48.566,251.313 49.388 C 251.313 50.258,250.904 50.483,249.319 50.486 C 247.009 50.490,247.075 50.436,247.075 52.337 C 247.075 54.357,246.877 54.246,250.501 54.254 C 253.876 54.262,254.076 54.331,254.076 55.485 C 254.076 56.535,253.744 56.610,249.470 56.519 C 245.821 56.441,245.340 56.373,245.160 55.903 C 245.016 55.528,244.999 42.549,245.143 42.405 C 245.555 41.990,253.280 41.945,253.772 42.354 M142.054 48.141 C 142.162 54.985,141.884 54.346,144.751 54.350 C 147.269 54.353,147.023 55.023,147.027 48.148 C 147.029 42.340,147.054 42.193,148.020 42.193 C 149.095 42.193,149.087 42.140,149.012 48.371 C 148.946 53.910,148.895 54.445,148.325 55.634 C 147.965 56.387,142.681 56.657,141.664 55.975 C 140.304 55.064,140.396 55.592,140.396 48.665 C 140.396 41.916,140.363 42.150,141.311 42.230 L 141.962 42.285 142.054 48.141 M203.040 42.373 C 203.525 42.680,203.446 55.461,202.956 56.002 C 202.585 56.412,201.943 56.400,201.429 55.974 C 201.102 55.703,201.093 42.740,201.419 42.414 C 201.682 42.151,202.650 42.126,203.040 42.373 M214.967 42.751 C 215.988 43.503,215.999 43.587,215.842 49.757 L 215.707 55.065 215.223 55.526 C 214.452 56.262,213.869 56.380,210.976 56.380 C 207.550 56.380,207.117 56.181,207.580 54.821 C 207.945 53.751,207.882 44.381,207.508 44.007 C 207.160 43.660,207.220 42.613,207.600 42.392 C 207.784 42.285,209.275 42.201,211.065 42.198 L 214.207 42.193 214.967 42.751 M225.321 42.678 C 225.604 43.039,225.702 43.430,225.702 44.201 C 225.702 44.886,225.827 45.471,226.071 45.926 C 226.306 46.365,226.439 46.965,226.439 47.588 C 226.439 48.173,226.576 48.831,226.780 49.231 C 226.967 49.599,227.177 50.503,227.245 51.242 C 227.321 52.056,227.485 52.711,227.662 52.907 C 228.039 53.323,228.222 55.434,227.930 55.981 C 227.491 56.800,226.546 56.405,226.327 55.312 C 226.147 54.412,225.655 54.104,224.170 53.962 C 222.617 53.813,222.407 53.936,222.254 55.079 C 222.117 56.094,221.242 56.520,220.462 55.950 C 220.156 55.726,220.151 55.665,220.405 55.259 C 220.559 55.014,220.731 54.213,220.787 53.478 C 220.846 52.724,221.016 51.964,221.178 51.733 C 221.356 51.478,221.465 50.926,221.465 50.274 C 221.465 49.634,221.609 48.889,221.833 48.365 C 222.058 47.841,222.202 47.096,222.202 46.458 C 222.202 45.763,222.326 45.180,222.570 44.724 C 222.773 44.346,222.939 43.782,222.939 43.471 C 222.939 42.115,224.475 41.603,225.321 42.678 M240.222 42.761 L 240.995 43.330 240.995 49.077 C 240.995 56.569,241.130 56.368,236.095 56.376 C 232.718 56.380,232.476 56.259,232.862 54.755 C 233.275 53.143,233.235 45.240,232.809 44.089 C 232.519 43.308,232.492 43.044,232.666 42.662 L 232.880 42.193 236.164 42.193 L 239.448 42.193 240.222 42.761 M196.187 44.357 C 196.246 45.382,195.967 45.659,195.550 44.990 C 195.223 44.466,191.013 44.521,190.620 45.054 C 190.217 45.600,189.971 45.191,190.090 44.169 L 190.192 43.289 193.161 43.340 L 196.131 43.390 196.187 44.357 M210.162 44.556 C 209.711 45.055,209.698 54.068,210.149 54.241 C 210.722 54.461,213.462 54.360,213.810 54.106 C 214.196 53.823,214.210 53.575,214.140 48.337 L 214.095 44.993 213.352 44.606 C 212.369 44.094,210.605 44.066,210.162 44.556 M235.428 44.634 C 235.055 45.286,234.981 53.841,235.345 54.143 C 235.526 54.294,236.205 54.349,237.422 54.314 L 239.230 54.261 239.362 53.616 C 239.434 53.261,239.445 51.168,239.386 48.965 L 239.280 44.959 238.653 44.589 C 237.711 44.033,235.755 44.061,235.428 44.634 M325.188 44.670 C 325.310 44.817,325.714 45.035,326.086 45.154 C 328.151 45.817,329.276 48.496,328.806 51.629 C 328.552 53.322,326.132 55.280,324.310 55.266 C 321.981 55.248,321.984 55.250,319.622 52.646 C 319.344 52.339,319.116 51.891,319.116 51.652 C 319.116 51.413,318.950 51.075,318.747 50.902 C 318.349 50.561,318.216 49.132,318.563 48.918 C 318.664 48.855,318.747 48.534,318.747 48.205 C 318.747 47.874,318.932 47.359,319.162 47.049 C 319.719 46.297,320.650 45.325,320.811 45.325 C 320.883 45.325,321.247 45.117,321.620 44.864 C 322.435 44.312,324.784 44.184,325.188 44.670 M71.117 45.249 C 75.478 46.676,75.677 52.831,71.419 54.608 C 70.651 54.928,68.629 55.015,68.456 54.735 C 68.398 54.641,68.041 54.462,67.663 54.337 C 67.016 54.124,65.960 53.213,65.960 52.869 C 65.960 52.783,65.819 52.634,65.647 52.537 C 65.095 52.229,64.708 49.647,64.973 48.045 C 65.123 47.138,66.653 45.569,67.551 45.400 C 67.894 45.336,68.221 45.209,68.276 45.120 C 68.440 44.855,70.149 44.933,71.117 45.249 M177.788 47.766 C 178.247 48.256,178.349 48.521,178.350 49.225 C 178.352 50.646,178.460 50.594,175.629 50.519 C 172.741 50.442,172.639 50.391,172.639 49.011 C 172.639 48.544,172.545 48.068,172.431 47.953 C 171.826 47.349,172.383 47.167,174.835 47.167 L 177.227 47.167 177.788 47.766 M223.811 49.070 C 222.786 51.033,222.949 51.958,224.321 51.958 C 225.385 51.958,225.581 51.677,225.165 50.749 C 224.984 50.343,224.777 49.622,224.705 49.146 C 224.529 47.970,224.392 47.958,223.811 49.070 M173.880 48.936 C 173.579 49.237,174.046 49.378,175.337 49.378 C 176.364 49.378,176.704 49.318,176.647 49.148 C 176.565 48.900,174.104 48.711,173.880 48.936 M51.589 71.173 C 52.035 71.398,52.051 71.474,52.102 73.512 C 52.142 75.105,52.225 75.696,52.442 75.936 C 52.767 76.296,53.260 77.158,53.708 78.153 C 53.876 78.525,54.131 78.874,54.275 78.930 C 54.419 78.985,54.537 79.230,54.537 79.474 C 54.537 79.718,54.674 80.032,54.842 80.171 C 55.010 80.310,55.266 80.673,55.411 80.977 C 55.788 81.767,56.241 82.564,56.611 83.090 C 56.788 83.341,56.932 83.680,56.932 83.845 C 56.932 84.009,57.098 84.294,57.301 84.477 C 57.503 84.661,57.669 85.034,57.669 85.306 C 57.669 85.579,57.835 85.952,58.038 86.135 C 58.240 86.319,58.406 86.657,58.406 86.888 C 58.406 87.118,58.511 87.416,58.639 87.550 C 58.767 87.684,58.975 88.027,59.101 88.313 C 59.380 88.943,60.060 88.936,60.338 88.300 C 60.439 88.072,60.616 87.886,60.733 87.886 C 60.989 87.886,61.170 87.464,61.170 86.870 C 61.170 86.605,61.307 86.393,61.524 86.324 C 61.760 86.249,61.918 85.971,62.000 85.483 C 62.073 85.056,62.226 84.754,62.371 84.754 C 62.508 84.754,62.674 84.580,62.742 84.367 C 62.809 84.154,63.022 83.823,63.215 83.630 C 63.408 83.437,63.565 83.070,63.565 82.813 C 63.565 82.537,63.697 82.298,63.888 82.228 C 64.326 82.066,64.480 81.805,64.484 81.219 C 64.485 80.888,64.608 80.686,64.855 80.608 C 65.087 80.534,65.223 80.329,65.223 80.055 C 65.223 79.789,65.359 79.576,65.573 79.509 C 65.786 79.441,65.967 79.157,66.038 78.777 C 66.102 78.436,66.277 78.109,66.426 78.052 C 66.593 77.988,66.697 77.701,66.697 77.304 C 66.697 76.834,66.804 76.603,67.093 76.448 C 67.475 76.244,67.484 76.160,67.368 73.991 C 67.198 70.807,66.856 71.040,71.794 70.971 C 76.810 70.900,76.462 70.662,76.462 74.161 C 76.462 76.384,76.420 76.701,76.004 77.596 C 75.751 78.138,75.544 78.768,75.543 78.996 C 75.542 79.224,75.468 79.410,75.378 79.410 C 75.288 79.410,75.074 79.707,74.902 80.070 C 74.623 80.657,73.954 81.754,73.563 82.266 C 73.486 82.368,73.279 82.761,73.103 83.141 C 72.927 83.521,72.706 83.832,72.611 83.832 C 72.516 83.832,72.386 84.072,72.321 84.366 C 72.257 84.659,72.043 85.045,71.846 85.224 C 71.649 85.402,71.488 85.682,71.488 85.847 C 71.488 86.011,71.322 86.288,71.119 86.461 C 70.917 86.635,70.751 86.943,70.751 87.145 C 70.751 87.348,70.585 87.618,70.382 87.744 C 70.180 87.871,70.014 88.114,70.014 88.284 C 70.014 88.455,69.807 88.841,69.553 89.142 C 69.300 89.443,69.093 89.812,69.093 89.963 C 69.093 90.113,68.963 90.343,68.806 90.474 C 68.648 90.605,68.403 90.988,68.262 91.326 C 68.121 91.663,67.925 91.939,67.827 91.939 C 67.728 91.939,67.595 92.182,67.529 92.479 C 67.464 92.776,67.287 93.122,67.136 93.248 C 66.984 93.373,66.738 93.731,66.588 94.043 C 65.993 95.279,65.650 95.843,65.397 95.999 C 64.987 96.252,65.035 98.372,65.460 98.848 C 66.276 99.762,66.697 100.403,66.697 100.731 C 66.697 100.927,66.905 101.282,67.158 101.520 C 67.411 101.758,67.619 102.137,67.619 102.362 C 67.619 102.586,67.740 102.817,67.889 102.874 C 68.038 102.931,68.282 103.272,68.432 103.631 C 68.583 103.990,68.792 104.284,68.899 104.284 C 69.005 104.284,69.093 104.477,69.093 104.712 C 69.093 104.948,69.300 105.335,69.553 105.573 C 69.807 105.811,70.014 106.190,70.014 106.415 C 70.014 106.640,70.136 106.870,70.284 106.928 C 70.433 106.985,70.685 107.304,70.844 107.638 C 71.454 108.916,71.837 109.565,72.118 109.799 C 72.278 109.932,72.409 110.233,72.409 110.468 C 72.409 110.703,72.490 110.945,72.589 111.006 C 72.837 111.160,74.067 113.032,74.067 113.256 C 74.067 113.357,74.233 113.589,74.436 113.772 C 74.638 113.956,74.804 114.253,74.804 114.432 C 74.804 114.611,75.012 115.004,75.265 115.305 C 75.520 115.608,75.726 116.087,75.726 116.379 C 75.727 116.668,75.898 117.186,76.108 117.530 C 76.665 118.444,76.582 123.315,76.002 123.756 C 75.367 124.239,69.630 123.809,67.914 123.151 C 67.667 123.056,67.619 122.695,67.619 120.946 C 67.619 119.131,67.572 118.810,67.269 118.524 C 67.077 118.343,66.784 117.904,66.618 117.550 C 66.062 116.364,65.747 115.868,65.484 115.768 C 65.341 115.713,65.223 115.469,65.223 115.227 C 65.223 114.984,65.055 114.617,64.849 114.412 C 64.643 114.206,64.424 113.785,64.363 113.476 C 64.301 113.167,64.096 112.818,63.908 112.700 C 63.719 112.582,63.565 112.356,63.565 112.198 C 63.565 112.039,63.358 111.629,63.105 111.285 C 62.851 110.942,62.644 110.594,62.644 110.512 C 62.644 110.431,62.478 110.198,62.275 109.995 C 62.073 109.793,61.907 109.462,61.907 109.260 C 61.907 109.058,61.741 108.789,61.538 108.663 C 61.336 108.536,61.170 108.257,61.170 108.042 C 61.170 107.679,60.275 106.370,59.844 106.104 C 59.518 105.902,58.959 106.154,58.959 106.503 C 58.959 106.710,58.800 106.860,58.544 106.896 C 58.212 106.944,58.119 107.091,58.073 107.646 C 58.035 108.100,57.893 108.401,57.658 108.527 C 57.462 108.633,57.301 108.889,57.301 109.098 C 57.301 109.306,57.135 109.687,56.932 109.945 C 56.730 110.203,56.564 110.552,56.564 110.722 C 56.564 110.892,56.442 111.191,56.293 111.388 C 56.145 111.585,56.020 111.880,56.017 112.043 C 56.014 112.207,55.845 112.552,55.643 112.809 C 55.440 113.067,55.274 113.440,55.274 113.638 C 55.274 113.837,55.113 114.203,54.917 114.453 C 54.721 114.703,54.506 115.122,54.440 115.386 C 54.374 115.649,54.161 116.007,53.968 116.183 C 53.774 116.358,53.616 116.677,53.616 116.892 C 53.616 117.107,53.450 117.425,53.247 117.599 C 53.045 117.772,52.879 118.068,52.879 118.257 C 52.879 118.445,52.713 118.790,52.510 119.023 C 52.193 119.389,52.142 119.713,52.142 121.355 C 52.142 124.064,52.110 124.090,49.030 123.922 C 47.752 123.853,46.416 123.719,46.062 123.625 C 45.707 123.531,44.953 123.366,44.386 123.258 L 43.355 123.063 43.373 120.800 C 43.387 118.905,43.443 118.484,43.713 118.214 C 43.890 118.037,44.042 117.794,44.050 117.675 C 44.104 116.907,44.286 116.325,44.598 115.928 C 44.795 115.678,44.956 115.321,44.956 115.136 C 44.956 114.951,45.122 114.710,45.325 114.602 C 45.561 114.475,45.693 114.216,45.693 113.879 C 45.693 113.523,45.841 113.257,46.154 113.052 C 46.499 112.826,46.614 112.590,46.614 112.110 C 46.614 111.659,46.698 111.469,46.895 111.469 C 47.050 111.469,47.249 111.279,47.337 111.047 C 47.425 110.815,47.630 110.515,47.793 110.380 C 47.955 110.245,48.088 109.978,48.088 109.787 C 48.088 109.596,48.296 109.260,48.549 109.040 C 48.861 108.768,49.010 108.449,49.010 108.049 C 49.010 107.629,49.108 107.433,49.352 107.369 C 49.541 107.320,49.755 107.041,49.828 106.749 C 49.901 106.457,50.120 106.070,50.314 105.889 C 50.509 105.707,50.668 105.441,50.668 105.296 C 50.668 105.152,50.834 104.945,51.036 104.836 C 51.296 104.698,51.405 104.451,51.405 104.001 C 51.405 103.497,51.479 103.363,51.754 103.363 C 52.134 103.363,52.326 103.021,52.326 102.346 C 52.326 102.075,52.464 101.870,52.695 101.796 C 52.897 101.732,53.063 101.519,53.063 101.323 C 53.063 101.097,53.190 100.967,53.412 100.967 C 53.794 100.967,53.984 100.626,53.984 99.939 C 53.984 99.616,54.086 99.493,54.353 99.493 C 54.699 99.493,54.721 99.370,54.721 97.467 C 54.721 95.563,54.699 95.440,54.353 95.440 C 54.068 95.440,53.984 95.317,53.984 94.900 C 53.984 94.378,53.584 93.782,53.234 93.782 C 53.140 93.782,53.063 93.636,53.063 93.457 C 53.063 93.279,52.905 93.034,52.711 92.914 C 52.518 92.793,52.305 92.445,52.238 92.141 C 52.169 91.827,51.962 91.538,51.761 91.475 C 51.562 91.412,51.405 91.195,51.405 90.986 C 51.405 90.780,51.198 90.364,50.944 90.063 C 50.691 89.762,50.484 89.398,50.484 89.253 C 50.484 89.109,50.397 88.991,50.290 88.991 C 50.183 88.991,49.968 88.683,49.810 88.307 C 49.653 87.930,49.418 87.536,49.289 87.432 C 49.160 87.327,49.000 87.010,48.935 86.728 C 48.869 86.446,48.652 86.075,48.452 85.904 C 48.252 85.733,48.088 85.458,48.088 85.294 C 48.088 85.129,47.923 84.845,47.720 84.661 C 47.517 84.478,47.351 84.178,47.351 83.995 C 47.351 83.811,47.189 83.574,46.991 83.468 C 46.789 83.360,46.577 82.990,46.509 82.627 C 46.442 82.271,46.231 81.896,46.040 81.794 C 45.849 81.692,45.693 81.457,45.693 81.271 C 45.693 81.086,45.527 80.723,45.325 80.466 C 45.122 80.208,44.956 79.911,44.956 79.806 C 44.956 79.701,44.798 79.504,44.604 79.369 C 44.410 79.233,44.192 78.793,44.120 78.391 C 44.048 77.989,43.822 77.476,43.617 77.252 C 42.974 76.545,42.707 71.745,43.286 71.276 C 43.817 70.846,50.771 70.760,51.589 71.173 M92.828 71.135 C 93.528 71.380,93.701 72.045,93.534 73.858 C 93.452 74.758,93.492 75.202,93.689 75.541 C 93.836 75.795,94.078 76.257,94.227 76.569 C 94.376 76.881,94.627 77.244,94.784 77.375 C 94.942 77.506,95.071 77.777,95.071 77.978 C 95.071 78.179,95.279 78.590,95.532 78.891 C 95.785 79.192,95.993 79.544,95.993 79.672 C 95.993 79.801,96.158 80.056,96.361 80.240 C 96.564 80.423,96.730 80.692,96.730 80.838 C 96.730 80.983,96.895 81.313,97.098 81.571 C 97.301 81.829,97.467 82.142,97.467 82.266 C 97.467 82.391,97.621 82.691,97.810 82.932 C 97.998 83.174,98.217 83.575,98.295 83.824 C 98.373 84.072,98.550 84.389,98.688 84.528 C 98.827 84.666,98.993 85.002,99.057 85.273 C 99.122 85.545,99.281 85.891,99.412 86.043 C 99.542 86.195,99.708 86.568,99.781 86.872 C 99.853 87.176,100.002 87.538,100.110 87.675 C 100.219 87.813,100.396 88.103,100.504 88.320 C 100.760 88.835,101.480 88.947,101.645 88.497 C 101.713 88.313,101.962 87.980,102.197 87.756 C 102.433 87.533,102.626 87.142,102.626 86.888 C 102.626 86.613,102.776 86.344,102.994 86.228 C 103.232 86.100,103.363 85.842,103.363 85.496 C 103.363 85.124,103.474 84.927,103.731 84.846 C 103.934 84.781,104.099 84.571,104.099 84.379 C 104.099 84.187,104.262 83.943,104.460 83.837 C 104.662 83.729,104.874 83.359,104.942 82.996 C 105.009 82.640,105.220 82.265,105.411 82.163 C 105.644 82.038,105.758 81.776,105.758 81.360 C 105.758 80.899,105.850 80.719,106.125 80.647 C 106.327 80.594,106.548 80.398,106.615 80.211 C 106.683 80.024,106.890 79.723,107.077 79.541 C 107.263 79.360,107.416 79.011,107.416 78.765 C 107.416 78.506,107.571 78.235,107.784 78.121 C 108.033 77.988,108.153 77.735,108.153 77.346 C 108.153 77.028,108.298 76.606,108.475 76.409 C 108.746 76.108,108.798 75.680,108.798 73.731 C 108.798 71.443,108.804 71.409,109.258 71.176 C 109.838 70.880,116.837 70.836,117.377 71.126 C 117.920 71.416,117.911 76.387,117.365 77.660 C 117.163 78.133,116.997 78.666,116.997 78.844 C 116.997 79.023,116.831 79.319,116.628 79.503 C 116.426 79.686,116.260 79.983,116.260 80.162 C 116.260 80.341,116.073 80.723,115.845 81.010 C 115.275 81.729,115.023 82.142,114.617 83.023 C 114.426 83.439,114.137 83.830,113.975 83.892 C 113.813 83.954,113.680 84.182,113.680 84.399 C 113.680 84.615,113.473 85.039,113.220 85.340 C 112.966 85.641,112.759 86.005,112.759 86.150 C 112.759 86.294,112.685 86.412,112.595 86.412 C 112.505 86.412,112.302 86.733,112.145 87.125 C 111.988 87.517,111.731 87.887,111.573 87.948 C 111.414 88.009,111.285 88.254,111.285 88.493 C 111.285 88.732,111.078 89.122,110.825 89.360 C 110.571 89.598,110.364 89.899,110.364 90.029 C 110.364 90.286,109.619 91.489,109.171 91.955 C 109.016 92.115,108.890 92.412,108.890 92.613 C 108.890 92.815,108.683 93.175,108.429 93.413 C 108.176 93.651,107.969 93.992,107.969 94.171 C 107.969 94.350,107.877 94.553,107.766 94.622 C 107.654 94.691,107.446 95.028,107.303 95.370 C 107.160 95.713,106.969 95.993,106.879 95.993 C 106.301 95.993,106.330 98.054,106.917 98.724 C 107.066 98.894,107.241 99.208,107.307 99.423 C 107.372 99.638,107.589 99.961,107.789 100.142 C 107.989 100.324,108.153 100.612,108.153 100.783 C 108.153 100.954,108.314 101.240,108.511 101.418 C 108.708 101.597,108.922 101.983,108.986 102.276 C 109.051 102.570,109.179 102.810,109.271 102.810 C 109.362 102.810,109.550 103.079,109.688 103.409 C 109.826 103.738,110.076 104.121,110.243 104.260 C 110.411 104.399,110.548 104.656,110.548 104.830 C 110.548 105.005,110.709 105.294,110.906 105.472 C 111.103 105.650,111.317 106.036,111.381 106.330 C 111.446 106.623,111.579 106.863,111.678 106.863 C 111.776 106.863,111.972 107.139,112.113 107.477 C 112.254 107.814,112.498 108.197,112.656 108.328 C 112.814 108.459,112.943 108.690,112.943 108.840 C 112.943 108.990,113.151 109.359,113.404 109.661 C 113.657 109.962,113.865 110.367,113.865 110.562 C 113.865 110.757,113.952 110.917,114.058 110.917 C 114.165 110.917,114.381 111.228,114.539 111.608 C 114.696 111.988,114.941 112.365,115.082 112.446 C 115.223 112.527,115.339 112.746,115.339 112.933 C 115.339 113.120,115.544 113.468,115.796 113.707 C 116.048 113.946,116.255 114.315,116.257 114.527 C 116.258 114.739,116.426 115.063,116.628 115.246 C 116.831 115.430,116.997 115.802,116.997 116.073 C 116.997 116.344,117.185 116.937,117.414 117.390 C 117.933 118.415,117.894 123.471,117.365 123.833 C 116.972 124.103,112.457 123.865,110.640 123.479 L 109.166 123.166 109.069 121.012 C 108.983 119.116,108.922 118.806,108.562 118.422 C 108.337 118.182,108.153 117.847,108.153 117.676 C 108.153 117.505,108.008 117.219,107.830 117.040 C 107.653 116.862,107.406 116.488,107.282 116.211 C 107.157 115.934,106.980 115.707,106.888 115.707 C 106.795 115.707,106.666 115.418,106.599 115.064 C 106.532 114.706,106.319 114.336,106.118 114.229 C 105.920 114.122,105.758 113.844,105.758 113.609 C 105.758 113.374,105.550 112.958,105.297 112.684 C 105.044 112.411,104.836 112.039,104.836 111.857 C 104.836 111.675,104.671 111.376,104.468 111.193 C 104.265 111.010,104.099 110.761,104.099 110.640 C 104.099 110.520,103.934 110.271,103.731 110.088 C 103.528 109.904,103.363 109.601,103.363 109.414 C 103.363 109.227,103.194 108.906,102.988 108.700 C 102.782 108.494,102.564 108.077,102.503 107.772 C 102.442 107.468,102.238 107.136,102.048 107.034 C 101.859 106.933,101.704 106.732,101.704 106.587 C 101.704 106.442,101.559 106.247,101.382 106.154 C 100.979 105.943,100.230 106.207,100.230 106.559 C 100.230 106.703,100.064 106.864,99.862 106.917 C 99.581 106.990,99.493 107.168,99.493 107.663 C 99.493 108.139,99.400 108.342,99.144 108.423 C 98.931 108.491,98.750 108.775,98.679 109.154 C 98.615 109.495,98.440 109.876,98.291 109.999 C 98.142 110.123,98.019 110.361,98.019 110.527 C 98.019 110.694,97.854 111.139,97.651 111.517 C 97.448 111.896,97.282 112.320,97.282 112.459 C 97.282 112.599,97.171 112.806,97.036 112.919 C 96.900 113.031,96.692 113.447,96.574 113.843 C 96.455 114.239,96.234 114.611,96.083 114.669 C 95.932 114.727,95.808 114.985,95.808 115.242 C 95.808 115.500,95.643 115.853,95.440 116.026 C 95.237 116.200,95.071 116.498,95.071 116.689 C 95.071 116.880,94.864 117.282,94.611 117.583 C 94.357 117.884,94.150 118.256,94.150 118.410 C 94.150 118.563,93.984 118.900,93.782 119.157 C 93.467 119.557,93.413 119.905,93.413 121.523 C 93.413 124.121,93.458 124.084,90.473 123.922 C 89.202 123.853,87.872 123.724,87.517 123.635 C 87.163 123.546,86.396 123.378,85.813 123.262 L 84.754 123.051 84.754 120.894 C 84.754 118.965,84.793 118.704,85.122 118.421 C 85.395 118.188,85.491 117.878,85.491 117.227 C 85.491 116.548,85.574 116.296,85.859 116.118 C 86.062 115.992,86.228 115.727,86.228 115.531 C 86.228 115.334,86.435 114.950,86.688 114.676 C 86.946 114.398,87.149 113.958,87.149 113.675 C 87.149 113.331,87.262 113.141,87.505 113.077 C 87.740 113.016,87.904 112.756,87.987 112.314 C 88.057 111.943,88.268 111.561,88.460 111.458 C 88.651 111.356,88.807 111.129,88.807 110.954 C 88.807 110.780,88.973 110.533,89.175 110.407 C 89.405 110.263,89.544 109.977,89.544 109.647 C 89.544 109.272,89.652 109.089,89.912 109.021 C 90.195 108.947,90.281 108.769,90.281 108.258 C 90.281 107.716,90.367 107.558,90.742 107.416 C 91.049 107.299,91.202 107.100,91.202 106.817 C 91.202 106.583,91.368 106.250,91.571 106.077 C 91.773 105.903,91.939 105.595,91.939 105.391 C 91.939 105.187,92.016 105.021,92.110 105.021 C 92.455 105.021,92.860 104.428,92.860 103.924 C 92.860 103.560,92.971 103.377,93.229 103.309 C 93.498 103.239,93.597 103.058,93.597 102.639 C 93.597 102.205,93.710 102.013,94.058 101.855 C 94.311 101.740,94.519 101.493,94.519 101.306 C 94.519 101.090,94.652 100.967,94.887 100.967 C 95.193 100.967,95.256 100.844,95.256 100.250 C 95.256 99.639,95.324 99.516,95.716 99.418 C 96.131 99.313,96.177 99.210,96.177 98.373 C 96.177 97.849,96.251 97.491,96.348 97.551 C 96.670 97.749,96.775 96.901,96.470 96.564 C 96.309 96.386,96.177 96.060,96.177 95.840 C 96.177 95.536,96.066 95.440,95.716 95.440 C 95.303 95.440,95.256 95.365,95.256 94.715 C 95.256 94.153,95.173 93.965,94.887 93.874 C 94.684 93.809,94.519 93.671,94.519 93.566 C 94.519 93.460,94.311 93.128,94.058 92.827 C 93.805 92.526,93.597 92.166,93.597 92.028 C 93.597 91.889,93.437 91.664,93.242 91.527 C 93.046 91.390,92.832 91.060,92.765 90.793 C 92.698 90.526,92.485 90.165,92.291 89.990 C 92.098 89.814,91.939 89.572,91.939 89.452 C 91.939 89.331,91.783 89.091,91.592 88.918 C 91.401 88.745,91.197 88.366,91.139 88.075 C 91.077 87.765,90.878 87.498,90.657 87.428 C 90.391 87.343,90.281 87.150,90.281 86.769 C 90.281 86.430,90.144 86.145,89.912 86.001 C 89.710 85.874,89.544 85.641,89.544 85.482 C 89.544 85.323,89.337 84.913,89.083 84.569 C 88.830 84.226,88.623 83.842,88.623 83.717 C 88.623 83.591,88.457 83.436,88.254 83.372 C 87.998 83.290,87.886 83.093,87.886 82.725 C 87.886 82.417,87.742 82.094,87.542 81.954 C 87.353 81.822,87.141 81.453,87.071 81.134 C 87.001 80.815,86.783 80.408,86.586 80.230 C 86.389 80.052,86.228 79.828,86.228 79.733 C 86.228 79.638,86.062 79.350,85.859 79.092 C 85.656 78.835,85.491 78.453,85.491 78.244 C 85.491 78.035,85.288 77.569,85.041 77.209 C 84.183 75.960,84.139 71.228,84.984 71.065 C 85.909 70.887,92.278 70.944,92.828 71.135 M134.316 71.173 C 134.756 71.395,134.781 71.495,134.869 73.455 C 134.941 75.058,135.031 75.582,135.283 75.860 C 135.461 76.055,135.606 76.354,135.606 76.523 C 135.606 76.692,135.769 76.995,135.970 77.195 C 136.170 77.395,136.384 77.762,136.447 78.010 C 136.509 78.259,136.718 78.605,136.912 78.781 C 137.106 78.956,137.264 79.253,137.264 79.441 C 137.264 79.629,137.430 79.924,137.632 80.098 C 137.835 80.272,138.001 80.508,138.001 80.623 C 138.001 80.739,138.208 81.138,138.462 81.512 C 138.715 81.885,138.922 82.298,138.922 82.430 C 138.922 82.562,139.088 82.820,139.291 83.003 C 139.493 83.187,139.659 83.478,139.659 83.652 C 139.659 83.825,139.825 84.178,140.028 84.435 C 140.230 84.693,140.396 85.067,140.396 85.267 C 140.396 85.466,140.517 85.730,140.665 85.853 C 140.813 85.976,140.984 86.256,141.045 86.474 C 141.583 88.414,143.160 89.672,143.160 88.161 C 143.160 88.033,143.326 87.885,143.528 87.832 C 143.809 87.759,143.897 87.581,143.897 87.086 C 143.897 86.594,143.988 86.408,144.273 86.317 C 144.494 86.247,144.693 85.980,144.755 85.669 C 144.813 85.379,145.017 84.999,145.208 84.827 C 145.399 84.654,145.555 84.359,145.555 84.172 C 145.555 83.985,145.676 83.832,145.824 83.832 C 145.980 83.832,146.172 83.540,146.280 83.141 C 146.382 82.760,146.634 82.305,146.840 82.129 C 147.061 81.939,147.213 81.584,147.213 81.255 C 147.213 80.881,147.305 80.700,147.494 80.700 C 147.649 80.700,147.850 80.504,147.941 80.265 C 148.032 80.025,148.229 79.782,148.379 79.724 C 148.530 79.667,148.711 79.344,148.783 79.008 C 148.855 78.672,149.071 78.249,149.261 78.067 C 149.467 77.872,149.608 77.486,149.608 77.120 C 149.608 76.715,149.714 76.462,149.913 76.385 C 150.182 76.282,150.204 76.006,150.104 74.016 C 149.980 71.564,150.013 71.421,150.776 71.131 C 151.690 70.783,158.449 70.875,158.852 71.240 C 159.376 71.714,159.352 76.527,158.821 77.568 C 158.618 77.965,158.452 78.486,158.452 78.726 C 158.452 78.966,158.245 79.357,157.992 79.595 C 157.738 79.833,157.531 80.211,157.531 80.436 C 157.531 80.661,157.409 80.892,157.260 80.949 C 157.008 81.046,156.662 81.607,155.983 83.018 C 155.833 83.330,155.581 83.692,155.423 83.824 C 155.265 83.955,155.136 84.207,155.136 84.385 C 155.136 84.563,154.999 84.822,154.831 84.961 C 154.663 85.100,154.407 85.463,154.262 85.767 C 153.821 86.691,153.342 87.526,153.064 87.852 C 152.920 88.023,152.695 88.432,152.564 88.761 C 152.434 89.090,152.263 89.360,152.184 89.360 C 152.104 89.360,151.957 89.598,151.855 89.889 C 151.754 90.180,151.387 90.823,151.039 91.317 C 150.692 91.811,150.352 92.441,150.282 92.717 C 150.213 92.993,149.992 93.307,149.791 93.414 C 149.589 93.522,149.424 93.767,149.424 93.958 C 149.424 94.150,149.217 94.552,148.964 94.854 C 148.710 95.155,148.503 95.504,148.503 95.630 C 148.503 95.757,148.373 95.955,148.214 96.071 C 147.729 96.426,147.651 97.774,148.083 98.357 C 148.285 98.631,148.506 99.030,148.574 99.242 C 148.641 99.455,148.860 99.777,149.060 99.958 C 149.261 100.139,149.424 100.428,149.424 100.600 C 149.424 100.773,149.632 101.137,149.885 101.411 C 150.138 101.684,150.345 102.015,150.345 102.146 C 150.345 102.277,150.511 102.576,150.714 102.810 C 150.917 103.043,151.082 103.333,151.082 103.454 C 151.082 103.575,151.244 103.820,151.441 103.998 C 151.637 104.176,151.851 104.562,151.916 104.856 C 151.980 105.149,152.100 105.389,152.182 105.389 C 152.263 105.389,152.476 105.700,152.654 106.080 C 152.832 106.460,153.090 106.837,153.228 106.918 C 153.365 106.999,153.478 107.224,153.478 107.418 C 153.478 107.612,153.637 107.918,153.831 108.100 C 154.026 108.281,154.240 108.651,154.308 108.922 C 154.376 109.194,154.590 109.559,154.784 109.734 C 154.978 109.909,155.136 110.201,155.136 110.382 C 155.136 110.563,155.296 110.824,155.491 110.960 C 155.687 111.097,155.905 111.440,155.976 111.723 C 156.047 112.005,156.213 112.278,156.346 112.329 C 156.479 112.380,156.639 112.655,156.701 112.940 C 156.764 113.225,156.976 113.604,157.173 113.782 C 157.370 113.960,157.531 114.239,157.531 114.402 C 157.531 114.564,157.738 114.921,157.992 115.194 C 158.256 115.479,158.452 115.912,158.452 116.208 C 158.452 116.493,158.618 117.035,158.821 117.413 C 159.337 118.376,159.377 123.231,158.873 123.735 C 158.380 124.228,151.680 123.766,150.720 123.173 C 150.641 123.124,150.518 122.088,150.445 120.869 C 150.338 119.068,150.253 118.610,149.991 118.424 C 149.813 118.298,149.606 117.946,149.531 117.642 C 149.456 117.338,149.235 116.941,149.041 116.759 C 148.846 116.578,148.687 116.327,148.687 116.201 C 148.687 116.076,148.521 115.831,148.319 115.658 C 148.116 115.484,147.950 115.180,147.950 114.982 C 147.950 114.784,147.796 114.514,147.607 114.382 C 147.417 114.249,147.205 113.880,147.135 113.561 C 147.065 113.242,146.847 112.836,146.650 112.658 C 146.453 112.479,146.292 112.181,146.292 111.994 C 146.292 111.807,146.126 111.488,145.924 111.285 C 145.721 111.082,145.555 110.845,145.555 110.757 C 145.555 110.670,145.394 110.394,145.198 110.144 C 145.002 109.894,144.783 109.458,144.711 109.174 C 144.640 108.890,144.428 108.617,144.239 108.568 C 144.008 108.508,143.897 108.310,143.897 107.962 C 143.897 107.179,142.569 105.851,142.060 106.123 C 141.854 106.233,141.686 106.445,141.686 106.593 C 141.686 106.742,141.529 106.863,141.337 106.863 C 140.956 106.863,140.765 107.205,140.765 107.885 C 140.765 108.136,140.606 108.409,140.396 108.521 C 140.140 108.659,140.028 108.907,140.028 109.337 C 140.028 109.707,139.920 109.997,139.761 110.058 C 139.615 110.114,139.441 110.452,139.374 110.808 C 139.307 111.165,139.142 111.548,139.007 111.660 C 138.872 111.772,138.709 112.101,138.646 112.391 C 138.582 112.681,138.411 113.017,138.265 113.137 C 138.120 113.258,138.001 113.541,138.001 113.766 C 138.001 113.992,137.835 114.326,137.632 114.509 C 137.430 114.693,137.264 114.980,137.264 115.147 C 137.264 115.314,137.057 115.732,136.803 116.076 C 136.550 116.419,136.343 116.837,136.343 117.004 C 136.343 117.171,136.177 117.458,135.974 117.642 C 135.772 117.825,135.606 118.117,135.606 118.290 C 135.606 118.464,135.440 118.816,135.237 119.074 C 134.924 119.472,134.869 119.821,134.869 121.402 C 134.869 124.043,134.812 124.090,131.870 123.918 C 130.653 123.847,128.908 123.629,127.993 123.433 C 127.077 123.237,126.279 123.077,126.221 123.077 C 125.958 123.077,126.254 118.755,126.531 118.553 C 126.693 118.434,126.849 117.938,126.904 117.370 C 126.962 116.763,127.128 116.262,127.341 116.050 C 127.529 115.861,127.683 115.505,127.683 115.259 C 127.683 114.982,127.816 114.769,128.029 114.701 C 128.258 114.628,128.413 114.348,128.490 113.872 C 128.569 113.376,128.719 113.116,128.973 113.035 C 129.221 112.957,129.341 112.757,129.341 112.423 C 129.341 112.126,129.490 111.834,129.710 111.696 C 129.912 111.570,130.078 111.304,130.078 111.106 C 130.078 110.908,130.241 110.659,130.439 110.552 C 130.639 110.445,130.853 110.076,130.919 109.723 C 130.993 109.329,131.171 109.044,131.387 108.976 C 131.652 108.892,131.737 108.690,131.737 108.141 C 131.737 107.553,131.802 107.416,132.085 107.416 C 132.304 107.416,132.477 107.243,132.550 106.951 C 132.615 106.695,132.831 106.322,133.031 106.122 C 133.231 105.921,133.395 105.597,133.395 105.402 C 133.395 105.206,133.550 104.996,133.741 104.936 C 133.968 104.863,134.125 104.584,134.200 104.116 C 134.280 103.617,134.423 103.377,134.683 103.309 C 134.956 103.238,135.053 103.059,135.053 102.626 C 135.053 102.193,135.150 102.013,135.421 101.942 C 135.628 101.888,135.790 101.691,135.790 101.494 C 135.790 101.289,135.981 101.070,136.251 100.967 C 136.622 100.826,136.711 100.666,136.711 100.143 C 136.711 99.616,136.781 99.493,137.080 99.493 C 137.394 99.493,137.448 99.370,137.448 98.664 C 137.448 98.197,137.534 97.835,137.646 97.835 C 137.754 97.835,137.946 97.731,138.072 97.605 C 138.374 97.302,138.096 96.177,137.719 96.177 C 137.570 96.177,137.448 96.011,137.448 95.808 C 137.448 95.567,137.325 95.440,137.091 95.440 C 136.811 95.440,136.721 95.290,136.676 94.749 C 136.634 94.241,136.509 94.010,136.205 93.876 C 135.977 93.776,135.790 93.548,135.790 93.369 C 135.790 93.191,135.624 92.879,135.421 92.676 C 135.219 92.474,135.053 92.224,135.053 92.122 C 135.053 92.020,134.846 91.757,134.592 91.536 C 134.339 91.316,134.132 90.948,134.132 90.719 C 134.132 90.489,133.987 90.192,133.809 90.058 C 133.514 89.835,133.227 89.380,132.533 88.042 C 132.394 87.773,132.158 87.506,132.008 87.449 C 131.859 87.392,131.737 87.135,131.737 86.878 C 131.737 86.622,131.573 86.248,131.372 86.048 C 131.172 85.847,130.879 85.412,130.721 85.080 C 130.165 83.913,129.860 83.439,129.602 83.340 C 129.459 83.285,129.341 83.038,129.341 82.790 C 129.341 82.543,129.134 82.149,128.881 81.914 C 128.615 81.667,128.420 81.283,128.420 81.003 C 128.420 80.719,128.268 80.424,128.052 80.289 C 127.849 80.162,127.683 79.926,127.683 79.763 C 127.683 79.601,127.525 79.325,127.333 79.151 C 127.140 78.976,126.926 78.528,126.857 78.155 C 126.788 77.781,126.572 77.304,126.376 77.093 C 125.944 76.629,125.509 72.107,125.837 71.494 C 126.143 70.922,133.283 70.652,134.316 71.173 M219.802 71.232 C 220.685 71.312,221.131 71.455,221.520 71.783 C 221.809 72.026,222.192 72.225,222.372 72.225 C 222.551 72.225,222.847 72.391,223.031 72.593 C 223.214 72.796,223.455 72.963,223.566 72.965 C 223.798 72.969,224.965 74.322,224.965 74.588 C 224.965 74.685,225.085 74.811,225.232 74.867 C 225.379 74.923,225.587 75.297,225.695 75.697 C 225.803 76.097,226.014 76.472,226.165 76.530 C 226.348 76.600,226.440 76.897,226.441 77.424 C 226.443 77.858,226.567 78.620,226.718 79.117 C 227.131 80.478,227.129 114.184,226.716 115.769 C 226.564 116.353,226.439 117.149,226.439 117.539 C 226.439 117.976,226.341 118.285,226.182 118.346 C 226.040 118.400,225.823 118.751,225.700 119.124 C 225.449 119.884,225.292 120.090,223.884 121.502 C 223.340 122.049,222.683 122.548,222.425 122.613 C 222.166 122.678,221.776 122.871,221.558 123.042 C 221.232 123.298,220.789 123.347,219.056 123.319 C 217.898 123.299,213.140 123.230,208.482 123.165 C 200.478 123.054,200.001 123.028,199.771 122.701 C 199.638 122.510,199.249 122.302,198.906 122.238 C 198.511 122.164,198.250 121.993,198.192 121.770 C 198.141 121.577,197.973 121.419,197.819 121.419 C 197.664 121.419,197.485 121.253,197.421 121.050 C 197.356 120.848,197.190 120.682,197.052 120.682 C 196.914 120.682,196.749 120.520,196.687 120.323 C 196.624 120.125,196.411 119.912,196.214 119.850 C 196.016 119.787,195.854 119.595,195.854 119.424 C 195.854 119.252,195.689 119.009,195.486 118.882 C 195.217 118.714,195.117 118.452,195.117 117.916 C 195.117 117.399,194.994 117.058,194.703 116.766 L 194.288 116.352 194.278 97.282 C 194.268 79.640,194.290 78.196,194.576 77.989 C 194.766 77.851,194.919 77.414,194.973 76.853 C 195.021 76.351,195.198 75.803,195.365 75.636 C 195.533 75.468,195.670 75.223,195.670 75.091 C 195.670 74.749,197.854 72.524,198.595 72.111 C 198.937 71.920,199.435 71.643,199.701 71.496 C 200.493 71.057,215.697 70.857,219.802 71.232 M262.899 71.718 C 263.230 71.997,263.633 72.225,263.794 72.225 C 263.955 72.225,264.218 72.345,264.379 72.493 C 265.921 73.910,266.237 74.236,266.237 74.413 C 266.237 74.525,266.403 74.720,266.605 74.847 C 266.808 74.974,266.974 75.258,266.974 75.479 C 266.974 75.700,267.181 76.128,267.434 76.429 C 267.737 76.788,267.895 77.201,267.895 77.632 C 267.895 77.992,268.019 78.764,268.171 79.348 C 268.511 80.650,268.593 114.016,268.260 115.156 C 268.156 115.510,267.997 116.317,267.905 116.950 C 267.808 117.624,267.580 118.302,267.356 118.587 C 267.146 118.854,266.974 119.224,266.974 119.408 C 266.974 119.875,264.355 122.448,263.718 122.607 C 263.431 122.679,263.064 122.857,262.902 123.003 C 262.540 123.329,261.448 123.343,249.882 123.170 C 241.827 123.050,241.348 123.024,241.174 122.699 C 241.073 122.510,240.701 122.302,240.348 122.235 C 239.974 122.165,239.705 122.006,239.705 121.854 C 239.705 121.711,239.509 121.519,239.270 121.428 C 239.030 121.337,238.784 121.132,238.723 120.972 C 238.661 120.812,238.484 120.682,238.329 120.682 C 238.173 120.682,238.047 120.523,238.047 120.326 C 238.047 120.130,237.881 119.917,237.678 119.853 C 237.476 119.788,237.310 119.654,237.310 119.554 C 237.310 119.454,237.103 119.067,236.849 118.695 C 236.584 118.304,236.389 117.754,236.389 117.397 C 236.389 116.933,236.297 116.754,236.020 116.682 C 235.655 116.586,235.652 116.430,235.652 97.397 C 235.652 78.409,235.656 78.207,236.020 77.979 C 236.309 77.799,236.389 77.550,236.389 76.824 C 236.389 76.197,236.473 75.866,236.649 75.798 C 236.791 75.744,236.956 75.511,237.013 75.280 C 237.129 74.817,239.518 72.225,239.828 72.225 C 239.936 72.225,240.254 72.044,240.535 71.823 C 241.308 71.215,242.538 71.151,252.890 71.183 L 262.297 71.211 262.899 71.718 M302.441 71.272 C 303.622 71.371,303.998 71.478,304.330 71.810 C 304.558 72.038,304.932 72.225,305.161 72.225 C 305.390 72.225,305.681 72.391,305.807 72.593 C 305.934 72.796,306.140 72.964,306.266 72.966 C 306.479 72.969,306.727 73.230,307.957 74.739 C 308.217 75.057,308.429 75.467,308.429 75.648 C 308.429 75.830,308.583 76.149,308.771 76.358 C 309.104 76.728,309.379 77.928,309.745 80.608 C 310.085 83.097,309.845 115.090,309.479 116.151 C 309.307 116.648,309.166 117.320,309.166 117.642 C 309.166 117.995,309.019 118.362,308.798 118.563 C 308.595 118.746,308.429 119.079,308.429 119.303 C 308.429 119.826,305.862 122.435,305.178 122.607 C 304.905 122.675,304.503 122.871,304.285 123.042 C 303.961 123.297,303.521 123.347,301.875 123.319 C 300.768 123.300,295.994 123.231,291.266 123.165 C 283.114 123.052,282.665 123.028,282.580 122.705 C 282.524 122.488,282.251 122.319,281.832 122.241 C 281.418 122.163,281.132 121.987,281.062 121.768 C 281.002 121.576,280.801 121.419,280.617 121.419 C 280.433 121.419,280.239 121.253,280.186 121.050 C 280.133 120.848,279.967 120.682,279.818 120.682 C 279.668 120.682,279.501 120.510,279.446 120.300 C 279.391 120.089,279.174 119.872,278.963 119.817 C 278.721 119.754,278.581 119.567,278.581 119.307 C 278.581 119.081,278.415 118.746,278.213 118.563 C 278.010 118.379,277.844 118.000,277.844 117.720 C 277.844 117.024,277.670 116.628,277.364 116.628 C 276.962 116.628,276.981 78.455,277.384 78.121 C 277.536 77.995,277.661 77.591,277.663 77.223 C 277.664 76.855,277.785 76.347,277.932 76.094 C 278.078 75.841,278.258 75.509,278.330 75.357 C 278.696 74.591,280.870 72.241,281.224 72.230 C 281.310 72.227,281.634 72.044,281.945 71.823 C 282.316 71.559,282.928 71.378,283.724 71.296 C 285.319 71.133,300.544 71.113,302.441 71.272 M345.626 71.718 C 345.957 71.997,346.374 72.225,346.552 72.225 C 347.116 72.225,349.885 75.123,349.885 75.713 C 349.885 75.891,350.051 76.187,350.253 76.370 C 350.506 76.599,350.623 76.940,350.625 77.458 C 350.626 77.873,350.771 78.586,350.947 79.042 C 351.242 79.808,351.267 81.206,351.267 97.467 C 351.267 113.727,351.242 115.125,350.947 115.891 C 350.771 116.347,350.626 117.075,350.625 117.509 C 350.623 118.036,350.531 118.333,350.347 118.403 C 350.196 118.461,349.974 118.837,349.854 119.238 C 349.734 119.639,349.485 120.047,349.300 120.146 C 349.115 120.245,348.964 120.404,348.964 120.499 C 348.964 120.594,348.667 120.944,348.305 121.276 C 347.942 121.608,347.507 122.014,347.337 122.179 C 347.168 122.344,346.822 122.542,346.568 122.619 C 346.315 122.696,345.936 122.893,345.726 123.056 C 345.420 123.294,344.940 123.346,343.330 123.318 C 342.223 123.299,337.445 123.230,332.711 123.164 C 324.452 123.050,324.101 123.031,323.993 122.693 C 323.919 122.458,323.645 122.303,323.173 122.227 C 322.693 122.150,322.435 122.002,322.373 121.766 C 322.323 121.575,322.156 121.419,322.001 121.419 C 321.846 121.419,321.667 121.253,321.603 121.050 C 321.539 120.848,321.359 120.682,321.205 120.682 C 321.050 120.682,320.881 120.519,320.829 120.319 C 320.777 120.120,320.577 119.907,320.385 119.846 C 320.194 119.785,320.037 119.587,320.037 119.404 C 320.037 119.222,319.871 118.862,319.668 118.605 C 319.466 118.347,319.300 117.928,319.300 117.673 C 319.300 117.418,319.093 116.963,318.839 116.662 L 318.379 116.114 318.379 97.254 C 318.379 78.593,318.383 78.391,318.747 78.163 C 319.017 77.995,319.116 77.734,319.116 77.188 C 319.116 76.350,319.619 75.327,320.590 74.194 C 321.441 73.201,322.482 72.227,322.694 72.226 C 322.787 72.225,323.019 72.085,323.208 71.913 C 323.924 71.265,325.991 71.144,335.709 71.178 L 345.024 71.211 345.626 71.718 M204.560 79.348 C 204.433 79.399,204.330 79.552,204.330 79.687 C 204.330 79.823,204.087 79.987,203.790 80.052 C 202.870 80.254,202.398 81.454,202.447 83.464 C 202.458 83.920,202.545 90.553,202.641 98.204 C 202.840 114.115,202.786 113.497,204.053 114.395 L 204.975 115.047 209.765 115.273 C 216.658 115.598,216.689 115.597,216.805 115.154 C 216.859 114.948,217.057 114.786,217.254 114.786 C 217.448 114.786,217.658 114.641,217.720 114.463 C 217.782 114.286,218.008 114.001,218.221 113.829 C 218.609 113.517,218.609 113.507,218.666 98.813 C 218.728 82.967,218.686 81.579,218.131 81.103 C 217.938 80.938,217.780 80.695,217.780 80.563 C 217.780 80.431,217.552 80.225,217.273 80.105 C 216.994 79.984,216.569 79.737,216.327 79.556 C 215.900 79.236,205.303 79.048,204.560 79.348 M245.738 79.586 C 245.600 79.784,245.267 80.029,245.000 80.131 C 243.886 80.554,243.922 79.997,243.938 96.575 C 243.946 106.032,244.019 111.820,244.131 112.030 C 244.230 112.215,244.311 112.617,244.311 112.924 C 244.311 113.545,244.722 114.007,245.879 114.685 C 247.027 115.358,257.661 115.779,258.154 115.171 C 258.325 114.959,258.599 114.786,258.763 114.786 C 258.926 114.786,259.135 114.590,259.226 114.350 C 259.317 114.111,259.522 113.865,259.682 113.803 C 259.943 113.703,259.972 112.081,259.972 97.597 L 259.972 81.501 259.512 81.069 C 259.258 80.831,259.051 80.532,259.051 80.404 C 259.051 80.277,258.865 80.114,258.637 80.042 C 258.409 79.971,258.024 79.758,257.783 79.569 C 257.088 79.027,246.120 79.042,245.738 79.586 M287.091 79.687 C 286.871 79.940,286.571 80.147,286.426 80.147 C 286.280 80.147,285.976 80.407,285.750 80.724 L 285.340 81.300 285.381 96.498 C 285.406 105.339,285.495 111.884,285.595 112.147 C 285.690 112.395,285.767 112.829,285.767 113.111 C 285.767 113.685,286.038 113.969,287.241 114.654 C 288.480 115.361,299.097 115.804,299.609 115.171 C 299.781 114.959,300.053 114.786,300.214 114.786 C 300.380 114.786,300.507 114.632,300.507 114.430 C 300.507 114.234,300.670 114.022,300.869 113.959 C 301.441 113.777,301.448 113.550,301.390 97.036 C 301.336 81.536,301.333 81.402,300.958 81.098 C 300.751 80.930,300.525 80.645,300.456 80.466 C 300.387 80.286,300.184 80.085,300.004 80.020 C 299.825 79.954,299.480 79.749,299.238 79.563 C 298.834 79.253,298.341 79.226,293.145 79.226 L 287.492 79.226 287.091 79.687 M328.446 79.641 C 328.174 79.869,327.693 80.293,327.375 80.583 L 326.799 81.110 326.830 96.152 C 326.866 112.975,326.874 113.180,327.556 113.911 C 327.816 114.189,328.103 114.417,328.195 114.417 C 328.287 114.417,328.564 114.576,328.811 114.771 C 329.361 115.203,330.346 115.289,336.404 115.431 C 340.803 115.534,340.890 115.529,340.986 115.161 C 341.041 114.948,341.237 114.786,341.437 114.786 C 341.631 114.786,341.844 114.641,341.910 114.463 C 341.976 114.286,342.181 114.033,342.365 113.900 C 342.684 113.671,342.699 112.904,342.699 97.558 L 342.699 81.456 342.249 80.970 C 342.001 80.702,341.773 80.429,341.742 80.362 C 341.711 80.294,341.350 80.012,340.939 79.733 L 340.192 79.226 334.566 79.226 C 329.000 79.226,328.934 79.231,328.446 79.641 M185.530 93.585 C 185.748 93.992,185.793 100.943,185.580 101.262 C 185.094 101.990,184.262 102.027,179.825 101.520 C 177.448 101.248,175.404 101.152,172.041 101.152 L 167.480 101.152 167.482 100.184 C 167.482 99.652,167.384 98.001,167.262 96.515 C 167.081 94.304,167.085 93.760,167.283 93.521 C 167.698 93.021,185.262 93.084,185.530 93.585 " stroke="none" fill="#fbfbfb" fill-rule="evenodd"></path></g></svg>