<svg id="svg" version="1.1" xmlns="http://www.w3.org/2000/svg" xmlns:xlink="http://www.w3.org/1999/xlink" width="400" height="265.75" viewBox="0, 0, 400,265.75"><g id="svgg"><path id="path0" d="M69.752 135.938 C 69.753 136.178,70.145 137.412,70.623 138.679 C 73.245 145.631,74.892 151.884,75.479 157.125 C 75.618 158.363,75.810 159.645,75.905 159.974 C 76.065 160.529,76.024 160.562,75.351 160.416 C 74.952 160.329,71.813 159.965,68.375 159.607 C 64.938 159.248,62.110 158.937,62.091 158.915 C 62.072 158.893,61.188 156.906,60.128 154.500 C 54.442 141.604,53.439 140.545,47.375 141.043 C 46.098 141.148,45.883 140.231,49.808 151.375 C 55.770 168.302,55.791 168.328,65.517 169.879 C 138.871 181.578,157.783 184.446,227.000 194.370 C 288.454 203.181,317.432 206.946,351.375 210.530 C 359.987 211.439,367.567 211.630,369.375 210.982 L 370.375 210.624 370.534 203.499 C 370.785 192.263,371.305 188.141,373.248 182.000 C 375.400 175.201,375.782 173.653,375.700 172.082 C 375.607 170.278,374.923 169.857,374.637 171.425 C 374.311 173.207,373.955 173.502,372.572 173.137 C 371.914 172.964,371.394 172.721,371.416 172.598 C 371.439 172.475,372.148 169.969,372.992 167.028 C 374.683 161.139,374.691 161.000,373.320 160.999 C 372.800 160.998,370.688 160.776,368.625 160.504 C 361.809 159.606,359.166 159.843,357.750 161.478 C 356.712 162.677,353.692 167.917,353.066 169.606 C 352.740 170.486,352.429 170.877,351.872 171.110 C 351.458 171.283,349.162 173.409,346.770 175.833 C 344.378 178.258,342.228 180.303,341.992 180.378 C 341.463 180.545,321.070 178.452,306.625 176.747 C 303.188 176.341,294.975 175.498,288.375 174.873 C 272.444 173.366,257.732 171.914,249.000 170.988 C 197.071 165.479,159.090 161.306,145.625 159.631 C 140.675 159.015,131.450 157.884,125.125 157.118 C 101.932 154.308,94.291 153.060,92.242 151.745 C 90.367 150.542,87.114 146.960,84.049 142.725 C 82.497 140.579,80.678 138.208,80.007 137.455 L 78.787 136.086 75.706 135.790 C 71.193 135.357,69.750 135.393,69.752 135.938 " stroke="none" fill="#c9c8c8" fill-rule="evenodd"></path><path id="path1" d="M68.063 135.416 C 67.304 135.721,67.743 137.945,69.742 143.920 C 72.246 151.409,72.899 153.970,73.124 157.188 L 73.304 159.750 72.360 159.750 C 70.782 159.750,71.499 159.930,73.834 160.119 C 76.009 160.296,76.039 160.290,75.769 159.786 C 75.618 159.504,75.333 157.721,75.136 155.824 C 74.716 151.796,74.159 149.615,71.619 142.071 C 69.264 135.074,69.259 135.543,71.688 135.436 C 73.354 135.363,73.258 135.346,71.000 135.320 C 69.556 135.303,68.234 135.346,68.063 135.416 M74.438 135.676 C 74.747 135.736,75.253 135.736,75.563 135.676 C 75.872 135.617,75.619 135.568,75.000 135.568 C 74.381 135.568,74.128 135.617,74.438 135.676 M76.813 135.922 C 77.053 135.985,77.447 135.985,77.688 135.922 C 77.928 135.859,77.731 135.808,77.250 135.808 C 76.769 135.808,76.572 135.859,76.813 135.922 M44.550 141.050 C 43.920 141.680,44.347 143.316,47.464 152.208 C 52.886 167.672,53.716 169.112,58.091 170.658 C 59.775 171.252,138.425 183.658,167.125 187.856 C 247.722 199.644,291.457 205.701,321.500 209.235 C 364.012 214.236,370.500 214.470,370.500 210.999 C 370.500 210.560,370.461 210.558,369.688 210.957 C 368.498 211.569,361.778 211.658,356.344 211.134 C 320.471 207.673,273.581 201.414,168.875 186.108 C 129.235 180.313,61.079 169.446,59.059 168.598 C 55.653 167.169,54.325 164.713,49.530 150.979 C 45.693 139.988,45.887 141.048,47.688 140.935 C 48.835 140.863,48.693 140.835,46.987 140.797 C 45.600 140.767,44.745 140.855,44.550 141.050 M50.063 141.172 C 50.303 141.235,50.697 141.235,50.938 141.172 C 51.178 141.109,50.981 141.058,50.500 141.058 C 50.019 141.058,49.822 141.109,50.063 141.172 M119.313 156.422 C 119.553 156.485,119.947 156.485,120.188 156.422 C 120.428 156.359,120.231 156.308,119.750 156.308 C 119.269 156.308,119.072 156.359,119.313 156.422 M121.313 156.672 C 121.553 156.735,121.947 156.735,122.188 156.672 C 122.428 156.609,122.231 156.558,121.750 156.558 C 121.269 156.558,121.072 156.609,121.313 156.672 M123.313 156.922 C 123.553 156.985,123.947 156.985,124.188 156.922 C 124.428 156.859,124.231 156.808,123.750 156.808 C 123.269 156.808,123.072 156.859,123.313 156.922 M129.563 157.672 C 129.803 157.735,130.197 157.735,130.438 157.672 C 130.678 157.609,130.481 157.558,130.000 157.558 C 129.519 157.558,129.322 157.609,129.563 157.672 M131.563 157.922 C 131.803 157.985,132.197 157.985,132.438 157.922 C 132.678 157.859,132.481 157.808,132.000 157.808 C 131.519 157.808,131.322 157.859,131.563 157.922 M135.813 158.422 C 136.053 158.485,136.447 158.485,136.688 158.422 C 136.928 158.359,136.731 158.308,136.250 158.308 C 135.769 158.308,135.572 158.359,135.813 158.422 M138.063 158.672 C 138.303 158.735,138.697 158.735,138.938 158.672 C 139.178 158.609,138.981 158.558,138.500 158.558 C 138.019 158.558,137.822 158.609,138.063 158.672 M64.188 159.176 C 64.497 159.236,65.003 159.236,65.313 159.176 C 65.622 159.117,65.369 159.068,64.750 159.068 C 64.131 159.068,63.878 159.117,64.188 159.176 M66.940 159.427 C 67.251 159.487,67.701 159.484,67.940 159.422 C 68.179 159.359,67.925 159.310,67.375 159.313 C 66.825 159.316,66.629 159.367,66.940 159.427 M143.813 159.422 C 144.053 159.485,144.447 159.485,144.688 159.422 C 144.928 159.359,144.731 159.308,144.250 159.308 C 143.769 159.308,143.572 159.359,143.813 159.422 M69.440 159.677 C 69.751 159.737,70.201 159.734,70.440 159.672 C 70.679 159.609,70.425 159.560,69.875 159.563 C 69.325 159.566,69.129 159.617,69.440 159.677 M145.813 159.672 C 146.053 159.735,146.447 159.735,146.688 159.672 C 146.928 159.609,146.731 159.558,146.250 159.558 C 145.769 159.558,145.572 159.609,145.813 159.672 M147.813 159.922 C 148.053 159.985,148.447 159.985,148.688 159.922 C 148.928 159.859,148.731 159.808,148.250 159.808 C 147.769 159.808,147.572 159.859,147.813 159.922 M357.875 159.982 C 356.494 160.315,355.973 160.774,354.626 162.841 C 353.154 165.099,350.750 169.641,350.750 170.163 C 350.750 170.345,350.384 170.646,349.938 170.834 C 349.491 171.021,347.899 172.457,346.401 174.024 C 344.903 175.592,342.859 177.624,341.858 178.540 C 339.967 180.271,339.870 180.500,341.024 180.500 C 341.916 180.500,344.148 178.566,348.092 174.377 C 350.174 172.166,351.275 171.183,351.780 171.082 C 352.176 171.002,352.500 170.799,352.500 170.629 C 352.500 169.469,357.531 161.019,358.545 160.475 C 358.864 160.304,360.419 160.088,362.000 159.996 L 364.875 159.828 361.750 159.815 C 360.031 159.807,358.288 159.883,357.875 159.982 M365.813 160.172 C 366.053 160.235,366.447 160.235,366.688 160.172 C 366.928 160.109,366.731 160.058,366.250 160.058 C 365.769 160.058,365.572 160.109,365.813 160.172 M152.063 160.422 C 152.303 160.485,152.697 160.485,152.938 160.422 C 153.178 160.359,152.981 160.308,152.500 160.308 C 152.019 160.308,151.822 160.359,152.063 160.422 M154.313 160.672 C 154.553 160.735,154.947 160.735,155.188 160.672 C 155.428 160.609,155.231 160.558,154.750 160.558 C 154.269 160.558,154.072 160.609,154.313 160.672 M156.313 160.922 C 156.553 160.985,156.947 160.985,157.188 160.922 C 157.428 160.859,157.231 160.808,156.750 160.808 C 156.269 160.808,156.072 160.859,156.313 160.922 M372.066 160.929 C 372.446 160.987,373.008 160.985,373.316 160.926 C 373.623 160.867,373.313 160.820,372.625 160.822 C 371.938 160.823,371.686 160.872,372.066 160.929 M158.563 161.172 C 158.803 161.235,159.197 161.235,159.438 161.172 C 159.678 161.109,159.481 161.058,159.000 161.058 C 158.519 161.058,158.322 161.109,158.563 161.172 M160.563 161.422 C 160.803 161.485,161.197 161.485,161.438 161.422 C 161.678 161.359,161.481 161.308,161.000 161.308 C 160.519 161.308,160.322 161.359,160.563 161.422 M162.813 161.672 C 163.053 161.735,163.447 161.735,163.688 161.672 C 163.928 161.609,163.731 161.558,163.250 161.558 C 162.769 161.558,162.572 161.609,162.813 161.672 M165.190 161.927 C 165.501 161.987,165.951 161.984,166.190 161.922 C 166.429 161.859,166.175 161.810,165.625 161.813 C 165.075 161.816,164.879 161.867,165.190 161.927 M167.440 162.177 C 167.751 162.237,168.201 162.234,168.440 162.172 C 168.679 162.109,168.425 162.060,167.875 162.063 C 167.325 162.066,167.129 162.117,167.440 162.177 M169.690 162.427 C 170.001 162.487,170.451 162.484,170.690 162.422 C 170.929 162.359,170.675 162.310,170.125 162.313 C 169.575 162.316,169.379 162.367,169.690 162.427 M171.940 162.677 C 172.251 162.737,172.701 162.734,172.940 162.672 C 173.179 162.609,172.925 162.560,172.375 162.563 C 171.825 162.566,171.629 162.617,171.940 162.677 M372.875 167.572 C 372.067 170.414,371.464 172.798,371.535 172.869 C 371.606 172.940,372.175 173.068,372.799 173.153 L 373.934 173.309 374.451 171.779 L 374.967 170.250 374.281 170.250 C 373.361 170.250,372.865 170.687,372.508 171.813 C 372.345 172.328,372.095 172.750,371.954 172.750 C 371.812 172.750,371.750 172.609,371.816 172.438 C 372.290 171.193,374.517 162.925,374.440 162.694 C 374.387 162.535,373.682 164.730,372.875 167.572 M174.190 162.927 C 174.501 162.987,174.951 162.984,175.190 162.922 C 175.429 162.859,175.175 162.810,174.625 162.813 C 174.075 162.816,173.879 162.867,174.190 162.927 M176.440 163.177 C 176.751 163.237,177.201 163.234,177.440 163.172 C 177.679 163.109,177.425 163.060,176.875 163.063 C 176.325 163.066,176.129 163.117,176.440 163.177 M178.813 163.422 C 179.053 163.485,179.447 163.485,179.688 163.422 C 179.928 163.359,179.731 163.308,179.250 163.308 C 178.769 163.308,178.572 163.359,178.813 163.422 M181.063 163.672 C 181.303 163.735,181.697 163.735,181.938 163.672 C 182.178 163.609,181.981 163.558,181.500 163.558 C 181.019 163.558,180.822 163.609,181.063 163.672 M183.313 163.922 C 183.553 163.985,183.947 163.985,184.188 163.922 C 184.428 163.859,184.231 163.808,183.750 163.808 C 183.269 163.808,183.072 163.859,183.313 163.922 M185.563 164.172 C 185.803 164.235,186.197 164.235,186.438 164.172 C 186.678 164.109,186.481 164.058,186.000 164.058 C 185.519 164.058,185.322 164.109,185.563 164.172 M187.813 164.422 C 188.053 164.485,188.447 164.485,188.688 164.422 C 188.928 164.359,188.731 164.308,188.250 164.308 C 187.769 164.308,187.572 164.359,187.813 164.422 M190.063 164.672 C 190.303 164.735,190.697 164.735,190.938 164.672 C 191.178 164.609,190.981 164.558,190.500 164.558 C 190.019 164.558,189.822 164.609,190.063 164.672 M192.313 164.922 C 192.553 164.985,192.947 164.985,193.188 164.922 C 193.428 164.859,193.231 164.808,192.750 164.808 C 192.269 164.808,192.072 164.859,192.313 164.922 M194.563 165.172 C 194.803 165.235,195.197 165.235,195.438 165.172 C 195.678 165.109,195.481 165.058,195.000 165.058 C 194.519 165.058,194.322 165.109,194.563 165.172 M196.940 165.427 C 197.251 165.487,197.701 165.484,197.940 165.422 C 198.179 165.359,197.925 165.310,197.375 165.313 C 196.825 165.316,196.629 165.367,196.940 165.427 M199.190 165.677 C 199.501 165.737,199.951 165.734,200.190 165.672 C 200.429 165.609,200.175 165.560,199.625 165.563 C 199.075 165.566,198.879 165.617,199.190 165.677 M201.563 165.922 C 201.803 165.985,202.197 165.985,202.438 165.922 C 202.678 165.859,202.481 165.808,202.000 165.808 C 201.519 165.808,201.322 165.859,201.563 165.922 M203.940 166.177 C 204.251 166.237,204.701 166.234,204.940 166.172 C 205.179 166.109,204.925 166.060,204.375 166.063 C 203.825 166.066,203.629 166.117,203.940 166.177 M206.190 166.427 C 206.501 166.487,206.951 166.484,207.190 166.422 C 207.429 166.359,207.175 166.310,206.625 166.313 C 206.075 166.316,205.879 166.367,206.190 166.427 M208.563 166.672 C 208.803 166.735,209.197 166.735,209.438 166.672 C 209.678 166.609,209.481 166.558,209.000 166.558 C 208.519 166.558,208.322 166.609,208.563 166.672 M210.940 166.927 C 211.251 166.987,211.701 166.984,211.940 166.922 C 212.179 166.859,211.925 166.810,211.375 166.813 C 210.825 166.816,210.629 166.867,210.940 166.927 M213.190 167.177 C 213.501 167.237,213.951 167.234,214.190 167.172 C 214.429 167.109,214.175 167.060,213.625 167.063 C 213.075 167.066,212.879 167.117,213.190 167.177 M215.563 167.422 C 215.803 167.485,216.197 167.485,216.438 167.422 C 216.678 167.359,216.481 167.308,216.000 167.308 C 215.519 167.308,215.322 167.359,215.563 167.422 M217.940 167.677 C 218.251 167.737,218.701 167.734,218.940 167.672 C 219.179 167.609,218.925 167.560,218.375 167.563 C 217.825 167.566,217.629 167.617,217.940 167.677 M220.190 167.927 C 220.501 167.987,220.951 167.984,221.190 167.922 C 221.429 167.859,221.175 167.810,220.625 167.813 C 220.075 167.816,219.879 167.867,220.190 167.927 M222.563 168.172 C 222.803 168.235,223.197 168.235,223.438 168.172 C 223.678 168.109,223.481 168.058,223.000 168.058 C 222.519 168.058,222.322 168.109,222.563 168.172 M224.940 168.427 C 225.251 168.487,225.701 168.484,225.940 168.422 C 226.179 168.359,225.925 168.310,225.375 168.313 C 224.825 168.316,224.629 168.367,224.940 168.427 M227.313 168.672 C 227.553 168.735,227.947 168.735,228.188 168.672 C 228.428 168.609,228.231 168.558,227.750 168.558 C 227.269 168.558,227.072 168.609,227.313 168.672 M229.563 168.922 C 229.803 168.985,230.197 168.985,230.438 168.922 C 230.678 168.859,230.481 168.808,230.000 168.808 C 229.519 168.808,229.322 168.859,229.563 168.922 M231.940 169.177 C 232.251 169.237,232.701 169.234,232.940 169.172 C 233.179 169.109,232.925 169.060,232.375 169.063 C 231.825 169.066,231.629 169.117,231.940 169.177 M234.313 169.422 C 234.553 169.485,234.947 169.485,235.188 169.422 C 235.428 169.359,235.231 169.308,234.750 169.308 C 234.269 169.308,234.072 169.359,234.313 169.422 M236.690 169.677 C 237.001 169.737,237.451 169.734,237.690 169.672 C 237.929 169.609,237.675 169.560,237.125 169.563 C 236.575 169.566,236.379 169.617,236.690 169.677 M238.940 169.927 C 239.251 169.987,239.701 169.984,239.940 169.922 C 240.179 169.859,239.925 169.810,239.375 169.813 C 238.825 169.816,238.629 169.867,238.940 169.927 M241.313 170.172 C 241.553 170.235,241.947 170.235,242.188 170.172 C 242.428 170.109,242.231 170.058,241.750 170.058 C 241.269 170.058,241.072 170.109,241.313 170.172 M243.690 170.427 C 244.001 170.487,244.451 170.484,244.690 170.422 C 244.929 170.359,244.675 170.310,244.125 170.313 C 243.575 170.316,243.379 170.367,243.690 170.427 M246.063 170.672 C 246.303 170.735,246.697 170.735,246.938 170.672 C 247.178 170.609,246.981 170.558,246.500 170.558 C 246.019 170.558,245.822 170.609,246.063 170.672 M248.440 170.927 C 248.751 170.987,249.201 170.984,249.440 170.922 C 249.679 170.859,249.425 170.810,248.875 170.813 C 248.325 170.816,248.129 170.867,248.440 170.927 M250.690 171.177 C 251.001 171.237,251.451 171.234,251.690 171.172 C 251.929 171.109,251.675 171.060,251.125 171.063 C 250.575 171.066,250.379 171.117,250.690 171.177 M253.190 171.427 C 253.501 171.487,253.951 171.484,254.190 171.422 C 254.429 171.359,254.175 171.310,253.625 171.313 C 253.075 171.316,252.879 171.367,253.190 171.427 M255.440 171.677 C 255.751 171.737,256.201 171.734,256.440 171.672 C 256.679 171.609,256.425 171.560,255.875 171.563 C 255.325 171.566,255.129 171.617,255.440 171.677 M257.940 171.927 C 258.251 171.987,258.701 171.984,258.940 171.922 C 259.179 171.859,258.925 171.810,258.375 171.813 C 257.825 171.816,257.629 171.867,257.940 171.927 M260.440 172.177 C 260.751 172.237,261.201 172.234,261.440 172.172 C 261.679 172.109,261.425 172.060,260.875 172.063 C 260.325 172.066,260.129 172.117,260.440 172.177 M262.938 172.426 C 263.247 172.486,263.753 172.486,264.063 172.426 C 264.372 172.367,264.119 172.318,263.500 172.318 C 262.881 172.318,262.628 172.367,262.938 172.426 M265.438 172.676 C 265.747 172.736,266.253 172.736,266.563 172.676 C 266.872 172.617,266.619 172.568,266.000 172.568 C 265.381 172.568,265.128 172.617,265.438 172.676 M268.190 172.927 C 268.501 172.987,268.951 172.984,269.190 172.922 C 269.429 172.859,269.175 172.810,268.625 172.813 C 268.075 172.816,267.879 172.867,268.190 172.927 M270.690 173.177 C 271.001 173.237,271.451 173.234,271.690 173.172 C 271.929 173.109,271.675 173.060,271.125 173.063 C 270.575 173.066,270.379 173.117,270.690 173.177 M273.190 173.427 C 273.501 173.487,273.951 173.484,274.190 173.422 C 274.429 173.359,274.175 173.310,273.625 173.313 C 273.075 173.316,272.879 173.367,273.190 173.427 M275.688 173.676 C 275.997 173.736,276.503 173.736,276.813 173.676 C 277.122 173.617,276.869 173.568,276.250 173.568 C 275.631 173.568,275.378 173.617,275.688 173.676 M278.440 173.927 C 278.751 173.987,279.201 173.984,279.440 173.922 C 279.679 173.859,279.425 173.810,278.875 173.813 C 278.325 173.816,278.129 173.867,278.440 173.927 M280.938 174.176 C 281.247 174.236,281.753 174.236,282.063 174.176 C 282.372 174.117,282.119 174.068,281.500 174.068 C 280.881 174.068,280.628 174.117,280.938 174.176 M375.153 175.777 C 374.901 176.754,374.102 179.426,373.376 181.715 C 372.651 184.003,371.987 186.381,371.900 187.000 C 371.775 187.903,371.861 187.755,372.336 186.250 C 374.859 178.258,376.029 174.000,375.702 174.000 C 375.652 174.000,375.405 174.800,375.153 175.777 M283.690 174.427 C 284.001 174.487,284.451 174.484,284.690 174.422 C 284.929 174.359,284.675 174.310,284.125 174.313 C 283.575 174.316,283.379 174.367,283.690 174.427 M286.188 174.676 C 286.497 174.736,287.003 174.736,287.313 174.676 C 287.622 174.617,287.369 174.568,286.750 174.568 C 286.131 174.568,285.878 174.617,286.188 174.676 M288.940 174.927 C 289.251 174.987,289.701 174.984,289.940 174.922 C 290.179 174.859,289.925 174.810,289.375 174.813 C 288.825 174.816,288.629 174.867,288.940 174.927 M291.438 175.176 C 291.747 175.236,292.253 175.236,292.563 175.176 C 292.872 175.117,292.619 175.068,292.000 175.068 C 291.381 175.068,291.128 175.117,291.438 175.176 M294.190 175.427 C 294.501 175.487,294.951 175.484,295.190 175.422 C 295.429 175.359,295.175 175.310,294.625 175.313 C 294.075 175.316,293.879 175.367,294.190 175.427 M296.688 175.676 C 296.997 175.736,297.503 175.736,297.813 175.676 C 298.122 175.617,297.869 175.568,297.250 175.568 C 296.631 175.568,296.378 175.617,296.688 175.676 M299.440 175.927 C 299.751 175.987,300.201 175.984,300.440 175.922 C 300.679 175.859,300.425 175.810,299.875 175.813 C 299.325 175.816,299.129 175.867,299.440 175.927 M301.813 176.172 C 302.053 176.235,302.447 176.235,302.688 176.172 C 302.928 176.109,302.731 176.058,302.250 176.058 C 301.769 176.058,301.572 176.109,301.813 176.172 M303.813 176.422 C 304.053 176.485,304.447 176.485,304.688 176.422 C 304.928 176.359,304.731 176.308,304.250 176.308 C 303.769 176.308,303.572 176.359,303.813 176.422 M310.063 177.172 C 310.303 177.235,310.697 177.235,310.938 177.172 C 311.178 177.109,310.981 177.058,310.500 177.058 C 310.019 177.058,309.822 177.109,310.063 177.172 M312.313 177.422 C 312.553 177.485,312.947 177.485,313.188 177.422 C 313.428 177.359,313.231 177.308,312.750 177.308 C 312.269 177.308,312.072 177.359,312.313 177.422 M314.690 177.677 C 315.001 177.737,315.451 177.734,315.690 177.672 C 315.929 177.609,315.675 177.560,315.125 177.563 C 314.575 177.566,314.379 177.617,314.690 177.677 M316.940 177.927 C 317.251 177.987,317.701 177.984,317.940 177.922 C 318.179 177.859,317.925 177.810,317.375 177.813 C 316.825 177.816,316.629 177.867,316.940 177.927 M319.313 178.172 C 319.553 178.235,319.947 178.235,320.188 178.172 C 320.428 178.109,320.231 178.058,319.750 178.058 C 319.269 178.058,319.072 178.109,319.313 178.172 M321.563 178.422 C 321.803 178.485,322.197 178.485,322.438 178.422 C 322.678 178.359,322.481 178.308,322.000 178.308 C 321.519 178.308,321.322 178.359,321.563 178.422 M323.940 178.677 C 324.251 178.737,324.701 178.734,324.940 178.672 C 325.179 178.609,324.925 178.560,324.375 178.563 C 323.825 178.566,323.629 178.617,323.940 178.677 M326.313 178.922 C 326.553 178.985,326.947 178.985,327.188 178.922 C 327.428 178.859,327.231 178.808,326.750 178.808 C 326.269 178.808,326.072 178.859,326.313 178.922 M328.690 179.177 C 329.001 179.237,329.451 179.234,329.690 179.172 C 329.929 179.109,329.675 179.060,329.125 179.063 C 328.575 179.066,328.379 179.117,328.690 179.177 M331.190 179.427 C 331.501 179.487,331.951 179.484,332.190 179.422 C 332.429 179.359,332.175 179.310,331.625 179.313 C 331.075 179.316,330.879 179.367,331.190 179.427 M333.440 179.677 C 333.751 179.737,334.201 179.734,334.440 179.672 C 334.679 179.609,334.425 179.560,333.875 179.563 C 333.325 179.566,333.129 179.617,333.440 179.677 M335.940 179.927 C 336.251 179.987,336.701 179.984,336.940 179.922 C 337.179 179.859,336.925 179.810,336.375 179.813 C 335.825 179.816,335.629 179.867,335.940 179.927 M338.440 180.177 C 338.751 180.237,339.201 180.234,339.440 180.172 C 339.679 180.109,339.425 180.060,338.875 180.063 C 338.325 180.066,338.129 180.117,338.440 180.177 " stroke="none" fill="#0b0b0b" fill-rule="evenodd"></path><path id="path2" d="M348.113 174.313 L 347.125 175.375 348.188 174.387 C 348.772 173.843,349.250 173.365,349.250 173.324 C 349.250 173.135,349.032 173.324,348.113 174.313 " stroke="none" fill="#646465" fill-rule="evenodd"></path><path id="path3" d="" stroke="none" fill="#808080" fill-rule="evenodd"></path><path id="path4" d="" stroke="none" fill="#6c6c6c" fill-rule="evenodd"></path></g></svg>