<svg id="svg" version="1.1" xmlns="http://www.w3.org/2000/svg" xmlns:xlink="http://www.w3.org/1999/xlink" width="400" height="266.2068965517241" viewBox="0, 0, 400,266.2068965517241"><g id="svgg"><path id="path0" d="M226.498 59.303 C 226.205 59.370,225.588 59.595,225.126 59.805 C 224.665 60.015,224.122 60.186,223.921 60.186 C 223.356 60.186,219.973 63.727,219.973 64.317 C 219.973 64.777,219.009 67.062,218.344 68.176 C 218.050 68.669,217.990 68.827,217.564 70.243 C 217.376 70.868,217.062 71.512,216.867 71.674 C 216.671 71.837,216.511 72.255,216.511 72.604 C 216.511 72.954,216.222 73.808,215.869 74.503 C 215.020 76.173,214.381 77.654,214.381 77.949 C 214.381 78.080,213.941 79.021,213.404 80.039 L 212.428 81.891 212.406 86.152 C 212.382 90.783,212.574 91.621,213.964 92.927 C 214.340 93.279,214.647 93.787,214.647 94.054 C 214.647 94.322,214.767 94.541,214.913 94.541 C 215.060 94.541,215.180 94.953,215.180 95.457 C 215.180 95.961,215.060 96.447,214.913 96.538 C 214.767 96.628,214.646 96.905,214.645 97.153 C 214.645 97.401,214.465 97.946,214.246 98.366 C 213.770 99.279,213.686 103.859,214.138 104.311 C 214.346 104.519,214.346 104.650,214.138 104.779 C 213.978 104.878,213.848 105.209,213.848 105.515 C 213.848 106.016,212.853 108.432,212.226 109.454 C 211.888 110.004,211.816 110.201,211.409 111.685 C 211.212 112.399,210.902 113.041,210.719 113.111 C 210.536 113.182,210.386 113.496,210.385 113.810 C 210.384 114.124,210.085 114.970,209.719 115.691 C 209.354 116.412,209.055 117.146,209.055 117.323 C 209.055 117.500,208.875 117.794,208.655 117.976 C 208.435 118.158,208.256 118.523,208.256 118.786 C 208.256 119.049,207.956 119.860,207.590 120.589 C 207.224 121.318,206.924 122.033,206.924 122.177 C 206.924 122.320,206.744 122.587,206.525 122.770 C 206.305 122.952,206.125 123.439,206.125 123.852 C 206.125 124.265,206.005 124.676,205.859 124.767 C 205.712 124.858,205.593 125.150,205.593 125.416 C 205.593 125.682,205.413 126.049,205.193 126.232 C 204.973 126.414,204.794 126.824,204.794 127.142 C 204.794 127.461,204.404 128.495,203.927 129.440 C 203.451 130.385,202.833 131.846,202.553 132.687 C 201.928 134.570,201.427 135.045,199.878 135.219 C 198.956 135.323,198.668 135.466,198.668 135.821 C 198.668 136.077,198.489 136.436,198.269 136.618 C 198.049 136.800,197.870 137.167,197.870 137.434 C 197.870 137.700,197.750 137.992,197.603 138.083 C 197.457 138.173,197.336 138.450,197.336 138.697 C 197.335 138.945,197.036 139.737,196.670 140.458 C 196.304 141.178,196.005 141.913,196.005 142.090 C 196.005 142.267,195.826 142.561,195.606 142.743 C 195.386 142.925,195.206 143.290,195.206 143.553 C 195.206 143.816,194.907 144.627,194.541 145.356 C 194.174 146.085,193.875 146.800,193.875 146.943 C 193.875 147.087,193.695 147.354,193.475 147.537 C 193.256 147.719,193.076 148.138,193.076 148.469 C 193.076 149.187,192.395 150.894,192.015 151.129 C 191.866 151.221,191.744 151.562,191.744 151.887 C 191.744 152.212,191.583 152.714,191.385 153.003 C 191.188 153.292,190.812 154.098,190.550 154.794 C 190.288 155.489,189.971 156.059,189.844 156.059 C 189.717 156.059,189.614 156.359,189.614 156.726 C 189.614 157.094,189.299 158.022,188.913 158.790 C 187.829 160.950,187.829 160.951,187.630 161.857 C 187.527 162.326,187.332 162.779,187.197 162.862 C 187.061 162.946,186.951 163.354,186.951 163.770 L 186.951 164.526 176.232 164.638 C 166.835 164.736,165.414 164.805,164.714 165.196 C 164.274 165.442,163.729 165.643,163.501 165.644 C 162.178 165.649,161.170 167.705,160.890 170.972 L 160.719 172.969 159.475 173.050 C 158.791 173.094,158.087 173.304,157.911 173.516 C 157.735 173.728,157.435 173.901,157.245 173.901 C 156.795 173.901,155.260 175.437,155.260 175.887 C 155.260 176.077,155.080 176.382,154.860 176.565 C 154.563 176.811,154.461 177.469,154.461 179.127 C 154.461 180.668,154.363 181.358,154.145 181.358 C 153.635 181.358,151.531 182.449,151.531 182.714 C 151.531 182.847,151.292 182.956,150.999 182.956 C 150.648 182.956,150.466 183.134,150.466 183.475 C 150.466 183.761,150.270 184.104,150.031 184.238 C 149.693 184.428,149.567 185.047,149.463 187.042 L 149.329 189.603 148.366 189.759 C 147.837 189.844,147.128 190.026,146.792 190.163 C 146.455 190.301,145.967 190.413,145.706 190.413 C 144.788 190.413,143.612 192.225,143.366 194.021 C 143.275 194.681,143.098 195.285,142.972 195.363 C 142.642 195.566,142.690 196.911,143.039 197.260 C 143.452 197.673,143.097 198.136,142.369 198.136 C 141.430 198.136,140.329 198.791,139.015 200.132 L 137.816 201.354 137.828 204.681 L 137.839 208.007 139.495 209.663 L 141.150 211.318 196.113 211.318 C 248.085 211.318,251.104 211.293,251.591 210.852 C 251.874 210.596,252.288 210.386,252.510 210.386 C 253.008 210.386,253.795 209.550,253.795 209.020 C 253.795 208.805,253.909 208.515,254.047 208.375 C 254.496 207.926,254.831 205.088,254.416 205.247 C 254.221 205.322,254.061 205.490,254.061 205.621 C 254.061 205.752,253.846 205.859,253.582 205.859 C 253.318 205.859,252.989 205.949,252.850 206.059 C 252.710 206.168,228.591 206.225,199.250 206.184 L 145.904 206.110 144.723 204.895 C 142.826 202.943,143.275 199.797,145.550 199.101 C 145.848 199.009,168.798 198.888,196.548 198.830 C 242.918 198.734,252.162 198.607,250.368 198.086 C 249.827 197.929,249.754 197.770,249.849 196.954 C 249.982 195.809,250.013 195.815,249.001 196.804 C 248.552 197.244,248.078 197.603,247.949 197.603 C 247.820 197.603,247.674 197.693,247.625 197.803 C 247.577 197.913,225.846 197.969,199.334 197.927 L 151.132 197.852 150.125 196.995 C 148.418 195.543,148.485 190.945,150.213 190.945 C 150.450 190.945,150.707 190.882,150.785 190.804 C 150.863 190.726,171.166 190.615,195.903 190.557 C 237.392 190.460,248.593 190.308,244.874 189.895 L 243.542 189.747 243.542 188.743 C 243.542 187.942,243.482 187.821,243.246 188.144 C 243.084 188.366,242.814 188.549,242.647 188.549 C 242.480 188.549,242.344 188.715,242.344 188.919 C 242.344 189.123,242.027 189.369,241.640 189.466 C 240.036 189.869,157.913 189.622,157.120 189.213 C 154.601 187.910,154.502 183.205,156.981 182.583 C 157.346 182.491,175.114 182.371,196.466 182.315 C 232.741 182.221,240.357 182.074,238.682 181.501 C 238.345 181.386,238.083 181.076,238.083 180.795 C 238.083 180.519,237.963 180.293,237.816 180.293 C 237.670 180.293,237.550 180.416,237.550 180.566 C 237.550 181.347,235.470 181.390,199.519 181.367 C 165.510 181.344,162.890 181.310,162.229 180.888 C 159.988 179.455,159.549 177.343,160.991 174.929 C 161.477 174.114,162.973 173.724,164.714 173.959 C 166.497 174.199,227.330 174.021,231.629 173.764 C 234.240 173.607,235.292 173.103,233.007 173.103 C 232.018 173.103,231.957 173.056,231.957 172.304 C 231.957 171.864,231.838 171.505,231.691 171.505 C 231.545 171.505,231.425 171.742,231.425 172.032 C 231.425 172.388,231.186 172.617,230.692 172.735 C 230.290 172.831,229.870 172.960,229.761 173.022 C 229.651 173.083,216.010 173.123,199.447 173.110 C 166.869 173.086,168.949 173.171,167.510 171.795 C 166.057 170.406,166.691 165.912,168.340 165.912 C 168.616 165.912,168.842 165.780,168.842 165.619 C 168.842 165.407,172.184 165.377,180.892 165.511 C 202.152 165.839,228.537 165.581,228.007 165.051 C 227.847 164.891,224.679 164.727,220.128 164.643 C 215.942 164.566,212.517 164.415,212.517 164.308 C 212.517 163.913,213.316 162.215,213.578 162.053 C 213.727 161.961,213.848 161.541,213.848 161.119 C 213.848 160.696,213.968 160.277,214.115 160.186 C 214.261 160.096,214.381 159.804,214.381 159.538 C 214.381 159.271,214.561 158.904,214.780 158.722 C 215.000 158.539,215.180 158.175,215.180 157.912 C 215.180 157.649,215.479 156.837,215.846 156.108 C 216.212 155.379,216.511 154.665,216.511 154.521 C 216.511 154.377,216.691 154.110,216.911 153.928 C 217.130 153.746,217.310 153.311,217.310 152.961 C 217.310 152.612,217.626 151.698,218.011 150.930 C 219.095 148.770,219.095 148.769,219.294 147.864 C 219.397 147.394,219.592 146.942,219.728 146.858 C 219.863 146.775,219.955 146.024,219.933 145.191 C 219.912 144.357,219.844 144.005,219.783 144.407 C 219.721 144.814,219.502 145.140,219.290 145.140 C 219.053 145.140,218.905 145.418,218.900 145.872 C 218.895 146.275,218.715 146.837,218.500 147.121 C 218.285 147.406,218.109 147.855,218.109 148.120 C 218.109 148.385,217.989 148.602,217.843 148.602 C 217.696 148.602,217.577 148.901,217.577 149.268 C 217.577 149.682,217.426 149.933,217.177 149.933 C 216.898 149.933,216.778 150.215,216.778 150.866 C 216.778 151.378,216.658 151.798,216.511 151.798 C 216.365 151.798,216.245 152.101,216.245 152.472 C 216.245 152.843,216.065 153.215,215.846 153.299 C 215.626 153.383,215.446 153.739,215.446 154.090 C 215.446 154.440,215.342 154.727,215.214 154.727 C 215.086 154.727,214.905 155.206,214.811 155.792 C 214.717 156.378,214.522 156.858,214.378 156.858 C 214.233 156.858,214.115 157.157,214.115 157.523 C 214.115 157.938,213.964 158.189,213.715 158.189 C 213.449 158.189,213.316 158.455,213.316 158.988 C 213.316 159.427,213.196 159.787,213.049 159.787 C 212.903 159.787,212.783 160.150,212.783 160.594 C 212.783 161.066,212.617 161.465,212.383 161.555 C 212.164 161.639,211.984 161.995,211.984 162.345 C 211.984 162.696,211.883 162.983,211.760 162.983 C 211.637 162.983,211.398 163.287,211.229 163.658 C 210.973 164.219,210.834 164.288,210.408 164.060 C 210.106 163.898,206.363 163.720,201.286 163.625 C 191.856 163.450,192.395 163.502,192.778 162.809 C 192.928 162.538,193.249 161.838,193.491 161.252 C 193.977 160.078,194.297 159.343,195.319 157.050 C 195.697 156.204,196.005 155.342,196.005 155.135 C 196.005 154.928,196.125 154.684,196.272 154.594 C 196.418 154.503,196.538 154.211,196.538 153.945 C 196.538 153.679,196.718 153.312,196.937 153.129 C 197.157 152.947,197.337 152.552,197.337 152.252 C 197.337 151.952,197.492 151.517,197.681 151.286 C 197.871 151.055,198.179 150.386,198.366 149.800 C 198.554 149.214,198.865 148.375,199.059 147.936 C 199.253 147.497,199.561 146.778,199.743 146.338 C 199.925 145.899,200.258 145.120,200.482 144.607 C 200.927 143.588,201.398 142.446,201.801 141.411 C 201.943 141.045,202.178 140.446,202.324 140.080 C 202.756 138.995,203.196 137.536,203.196 137.187 C 203.196 136.114,204.279 135.359,205.213 135.783 C 205.715 136.010,206.125 136.291,206.125 136.407 C 206.125 136.523,206.295 136.618,206.503 136.618 C 206.711 136.618,207.220 136.790,207.635 137.001 C 208.050 137.212,208.868 137.579,209.454 137.818 C 210.040 138.057,210.759 138.351,211.052 138.473 C 211.345 138.595,212.064 138.892,212.650 139.134 C 213.236 139.375,213.923 139.687,214.177 139.826 C 214.432 139.966,214.874 140.080,215.160 140.080 C 215.447 140.080,215.755 140.200,215.846 140.346 C 215.936 140.493,216.399 140.613,216.873 140.613 C 217.348 140.613,217.866 140.743,218.025 140.901 C 218.898 141.774,221.180 139.237,221.280 137.284 C 221.295 136.991,221.606 136.161,221.972 135.441 C 222.337 134.720,222.636 134.024,222.636 133.893 C 222.636 133.761,222.936 132.999,223.302 132.199 C 223.668 131.398,223.968 130.582,223.968 130.384 C 223.968 130.187,224.148 129.876,224.368 129.694 C 224.587 129.511,224.767 129.179,224.767 128.955 C 224.767 128.732,225.054 127.937,225.404 127.190 C 225.754 126.443,226.113 125.652,226.201 125.433 C 226.289 125.213,226.470 124.854,226.604 124.634 C 226.737 124.414,226.999 123.695,227.185 123.036 C 227.372 122.377,227.683 121.648,227.877 121.417 C 228.071 121.186,228.230 120.826,228.230 120.618 C 228.231 120.410,228.530 119.650,228.896 118.930 C 229.261 118.209,229.561 117.475,229.561 117.298 C 229.561 117.121,229.740 116.827,229.960 116.644 C 230.180 116.462,230.360 115.975,230.360 115.562 C 230.360 115.150,230.464 114.747,230.591 114.668 C 230.719 114.590,230.900 114.141,230.994 113.671 C 231.221 112.539,231.881 111.851,232.741 111.851 C 233.415 111.851,235.952 109.652,235.952 109.068 C 235.952 108.629,236.853 106.791,237.069 106.791 C 237.187 106.791,237.284 106.530,237.284 106.211 C 237.284 104.523,237.842 103.862,239.268 103.862 C 240.646 103.862,243.552 103.327,244.740 102.855 C 245.592 102.517,248.469 99.507,248.469 98.955 C 248.469 98.724,248.589 98.535,248.735 98.535 C 248.881 98.535,249.001 98.303,249.001 98.018 C 249.001 97.734,249.121 97.427,249.268 97.337 C 249.414 97.246,249.534 96.954,249.534 96.688 C 249.534 96.422,249.714 96.055,249.933 95.872 C 250.153 95.690,250.333 95.309,250.333 95.025 C 250.333 94.742,250.632 93.973,250.999 93.317 C 251.365 92.662,251.664 91.964,251.664 91.767 C 251.664 91.571,251.844 91.261,252.064 91.079 C 252.284 90.896,252.463 90.409,252.463 89.996 C 252.463 89.584,252.583 89.172,252.730 89.081 C 252.876 88.991,252.996 88.699,252.996 88.432 C 252.996 88.166,253.176 87.799,253.395 87.617 C 253.615 87.434,253.795 87.070,253.795 86.807 C 253.795 86.544,254.095 85.732,254.461 85.003 C 254.827 84.274,255.126 83.560,255.126 83.416 C 255.126 83.272,255.306 83.005,255.526 82.823 C 255.746 82.641,255.925 82.170,255.925 81.778 C 255.925 81.386,256.052 80.939,256.207 80.784 C 256.623 80.367,256.875 77.497,256.495 77.497 C 256.328 77.497,256.192 77.796,256.192 78.162 C 256.192 78.577,256.041 78.828,255.792 78.828 C 255.515 78.828,255.393 79.108,255.393 79.745 C 255.393 80.249,255.273 80.735,255.126 80.826 C 254.980 80.916,254.860 81.227,254.860 81.515 C 254.860 81.804,254.680 82.110,254.461 82.194 C 254.241 82.278,254.061 82.634,254.061 82.985 C 254.061 83.335,253.941 83.622,253.795 83.622 C 253.648 83.622,253.529 83.973,253.529 84.402 C 253.529 84.831,253.349 85.361,253.129 85.581 C 252.909 85.801,252.730 86.216,252.730 86.504 C 252.730 86.791,252.550 87.096,252.330 87.180 C 252.111 87.265,251.931 87.637,251.931 88.008 C 251.931 88.378,251.811 88.682,251.664 88.682 C 251.518 88.682,251.398 89.045,251.398 89.489 C 251.398 89.961,251.232 90.360,250.999 90.450 C 250.779 90.534,250.599 90.831,250.599 91.111 C 250.599 91.620,250.534 91.790,249.712 93.430 C 249.468 93.918,249.268 94.483,249.268 94.685 C 249.268 95.106,247.052 97.470,246.657 97.470 C 246.513 97.470,246.321 97.662,246.231 97.897 C 246.141 98.132,245.902 98.261,245.701 98.184 C 245.499 98.106,245.082 98.220,244.773 98.436 C 244.220 98.823,243.321 98.812,239.747 98.375 C 238.876 98.268,238.615 98.325,238.615 98.620 C 238.615 98.830,238.440 99.148,238.226 99.325 C 238.012 99.503,237.756 100.367,237.657 101.245 C 237.548 102.207,237.332 102.897,237.114 102.980 C 236.914 103.057,236.751 103.399,236.751 103.741 C 236.751 104.083,236.631 104.437,236.485 104.527 C 236.338 104.618,236.218 104.924,236.218 105.209 C 236.218 105.493,236.039 105.726,235.819 105.726 C 235.599 105.726,235.419 105.875,235.417 106.059 C 235.410 107.220,232.680 107.315,230.381 106.233 C 228.503 105.350,227.500 104.906,226.232 104.394 C 225.004 103.899,223.618 103.295,223.106 103.033 C 222.852 102.903,222.492 102.794,222.307 102.792 C 220.446 102.768,218.960 98.026,220.513 97.066 C 220.656 96.978,220.772 96.691,220.772 96.429 C 220.772 96.166,221.047 95.424,221.384 94.780 C 222.312 93.000,222.818 91.272,222.446 91.148 C 219.407 90.135,216.970 84.603,218.336 81.821 C 218.588 81.309,219.189 79.924,219.694 78.695 C 219.875 78.256,220.191 77.557,220.397 77.142 C 220.604 76.728,220.772 76.281,220.772 76.151 C 220.772 76.020,221.081 75.221,221.458 74.375 C 222.222 72.662,222.668 71.628,223.156 70.439 C 223.337 70.000,223.653 69.301,223.860 68.887 C 224.066 68.472,224.234 67.927,224.234 67.675 C 224.234 67.423,224.381 67.070,224.561 66.891 C 224.740 66.711,225.078 65.953,225.312 65.206 C 225.856 63.470,228.146 60.467,228.933 60.459 C 229.247 60.455,229.573 60.273,229.657 60.053 C 229.772 59.753,230.294 59.645,231.749 59.620 C 233.585 59.589,233.625 59.576,232.490 59.374 C 231.216 59.147,227.388 59.102,226.498 59.303 M242.126 67.816 C 242.172 68.204,242.390 68.610,242.610 68.719 C 243.035 68.929,244.360 69.504,245.672 70.049 C 251.571 72.498,251.779 72.657,251.779 74.726 C 251.779 75.513,251.633 76.303,251.455 76.481 C 251.277 76.659,251.132 76.957,251.132 77.143 C 251.132 77.330,250.823 78.174,250.446 79.021 C 249.424 81.314,249.104 82.049,248.618 83.222 C 248.375 83.808,248.071 84.483,247.941 84.721 C 247.562 85.420,247.373 86.922,247.619 87.293 C 248.124 88.055,248.811 87.246,249.943 84.554 C 250.455 83.336,250.811 82.520,251.777 80.352 C 252.155 79.506,252.463 78.695,252.463 78.551 C 252.463 78.283,252.587 78.003,253.357 76.523 C 254.395 74.532,253.208 71.523,250.999 70.544 C 250.706 70.414,250.286 70.202,250.067 70.073 C 249.295 69.619,247.648 68.975,247.261 68.975 C 247.047 68.975,246.871 68.855,246.871 68.708 C 246.871 68.562,246.690 68.442,246.470 68.442 C 246.250 68.442,245.448 68.142,244.689 67.776 C 242.811 66.870,242.015 66.882,242.126 67.816 M245.991 89.423 C 245.742 89.698,245.539 90.067,245.539 90.243 C 245.539 90.420,245.366 90.830,245.153 91.155 C 244.220 92.581,244.505 95.047,245.530 94.413 C 245.860 94.209,246.871 92.184,246.871 91.727 C 246.871 91.553,247.057 91.256,247.284 91.067 C 247.535 90.859,247.666 90.403,247.617 89.903 C 247.520 88.911,246.679 88.663,245.991 89.423 M222.078 104.510 C 222.577 104.739,223.191 104.927,223.444 104.927 C 223.696 104.927,224.052 105.107,224.234 105.326 C 224.417 105.546,224.733 105.726,224.936 105.726 C 225.140 105.726,225.515 105.828,225.769 105.953 C 226.496 106.310,227.941 106.929,229.899 107.723 L 231.703 108.454 231.541 109.420 C 231.292 110.900,231.145 111.318,230.874 111.318 C 230.738 111.318,230.626 111.608,230.626 111.962 C 230.626 112.316,230.489 112.651,230.321 112.707 C 230.154 112.763,229.979 113.161,229.933 113.591 C 229.887 114.021,229.725 114.415,229.572 114.466 C 229.419 114.517,229.294 114.852,229.294 115.210 C 229.294 115.569,229.115 115.931,228.895 116.016 C 228.675 116.100,228.495 116.456,228.495 116.806 C 228.495 117.157,228.375 117.443,228.229 117.443 C 228.083 117.443,227.963 117.867,227.963 118.384 C 227.963 118.974,227.814 119.381,227.563 119.478 C 227.344 119.562,227.164 119.918,227.164 120.268 C 227.164 120.619,227.044 120.905,226.897 120.905 C 226.751 120.905,226.631 121.209,226.631 121.580 C 226.631 121.950,226.451 122.323,226.232 122.407 C 226.003 122.495,225.832 122.893,225.832 123.339 C 225.832 123.786,225.662 124.183,225.433 124.271 C 225.213 124.356,225.033 124.711,225.033 125.062 C 225.033 125.412,224.913 125.699,224.767 125.699 C 224.621 125.699,224.501 126.044,224.501 126.465 C 224.501 126.887,224.321 127.381,224.101 127.563 C 223.881 127.746,223.702 128.180,223.702 128.528 C 223.702 128.876,223.582 129.161,223.435 129.161 C 223.289 129.161,223.169 129.392,223.169 129.675 C 223.169 129.957,222.989 130.368,222.770 130.588 C 222.550 130.807,222.370 131.343,222.370 131.777 C 222.370 132.233,222.201 132.631,221.971 132.719 C 221.751 132.804,221.571 133.109,221.571 133.398 C 221.571 133.687,221.451 133.997,221.305 134.088 C 221.158 134.178,221.039 134.532,221.039 134.874 C 221.039 135.216,220.859 135.565,220.639 135.649 C 220.406 135.739,220.240 136.138,220.240 136.609 C 220.240 137.053,220.120 137.417,219.973 137.417 C 219.827 137.417,219.707 137.720,219.707 138.091 C 219.707 138.462,219.527 138.834,219.308 138.918 C 219.088 139.003,218.908 139.358,218.908 139.709 C 218.908 140.554,218.397 140.520,216.991 139.583 C 216.361 139.163,215.366 138.608,214.780 138.348 C 214.194 138.089,212.996 137.546,212.117 137.141 C 211.238 136.736,210.040 136.246,209.454 136.052 C 208.140 135.618,207.072 134.859,207.448 134.626 C 207.599 134.532,207.723 134.230,207.723 133.953 C 207.723 133.677,208.023 132.887,208.389 132.198 C 208.755 131.509,209.055 130.802,209.055 130.626 C 209.055 130.450,209.354 129.742,209.720 129.054 C 210.087 128.365,210.386 127.583,210.386 127.315 C 210.386 127.048,210.566 126.680,210.786 126.498 C 211.005 126.316,211.185 125.948,211.185 125.681 C 211.185 125.413,211.485 124.631,211.851 123.942 C 212.217 123.254,212.517 122.483,212.517 122.230 C 212.517 121.977,212.696 121.620,212.916 121.438 C 213.136 121.256,213.316 120.940,213.316 120.736 C 213.316 120.532,213.418 120.158,213.543 119.903 C 214.136 118.696,214.639 117.483,214.949 116.511 C 215.137 115.925,215.445 115.257,215.634 115.026 C 215.824 114.794,215.979 114.475,215.979 114.315 C 215.979 114.155,216.147 113.685,216.354 113.271 C 216.836 112.300,217.159 111.499,217.733 109.854 C 217.988 109.121,218.297 108.408,218.420 108.269 C 218.542 108.130,218.642 107.861,218.642 107.671 C 218.642 106.709,220.337 103.651,220.749 103.869 C 220.982 103.993,221.580 104.281,222.078 104.510 M221.904 107.766 C 221.086 108.096,221.976 109.720,222.975 109.720 C 223.211 109.720,223.472 109.831,223.556 109.966 C 223.639 110.101,224.056 110.288,224.481 110.382 C 225.478 110.601,225.652 111.098,225.111 112.180 C 224.298 113.808,224.234 113.974,224.234 114.478 C 224.234 114.755,224.055 115.131,223.835 115.313 C 223.615 115.495,223.435 115.811,223.435 116.015 C 223.435 116.219,223.333 116.593,223.208 116.848 C 222.968 117.337,222.399 118.644,221.847 119.973 C 221.664 120.413,221.332 121.192,221.108 121.704 C 220.699 122.641,220.313 123.551,219.698 125.033 C 219.030 126.643,217.813 129.461,217.556 129.994 C 216.809 131.543,217.092 133.196,218.007 132.625 C 218.475 132.333,219.975 129.603,219.974 129.045 C 219.974 128.909,220.213 128.279,220.506 127.647 C 221.181 126.190,222.073 124.164,222.419 123.302 C 222.566 122.936,222.854 122.297,223.061 121.883 C 223.267 121.468,223.435 120.990,223.435 120.821 C 223.435 120.652,223.747 119.853,224.128 119.045 C 224.779 117.665,225.005 117.150,225.823 115.180 C 226.633 113.228,226.843 112.740,227.160 112.072 C 227.836 110.647,227.260 108.921,226.107 108.921 C 225.864 108.921,225.045 108.622,224.286 108.256 C 222.907 107.591,222.531 107.513,221.904 107.766 M205.726 140.078 C 205.461 140.913,205.936 141.262,209.055 142.529 C 213.405 144.295,214.464 144.994,213.602 145.527 C 213.467 145.610,213.272 146.063,213.169 146.532 C 213.066 147.002,212.891 147.570,212.780 147.794 C 212.669 148.019,212.453 148.502,212.298 148.868 C 212.144 149.234,211.651 150.351,211.202 151.350 C 210.753 152.349,210.386 153.279,210.386 153.418 C 210.386 153.556,210.272 153.877,210.133 154.131 C 209.993 154.386,209.683 155.073,209.443 155.659 C 209.203 156.245,208.854 157.024,208.667 157.390 C 207.810 159.072,207.972 160.420,208.998 160.140 C 209.404 160.030,209.815 159.304,210.703 157.124 C 211.194 155.920,211.976 154.118,213.162 151.457 C 213.540 150.611,213.848 149.825,213.848 149.710 C 213.848 149.595,214.148 148.879,214.514 148.120 C 214.880 147.361,215.184 146.590,215.188 146.406 C 215.193 146.222,215.357 145.860,215.553 145.602 C 216.266 144.663,215.714 143.480,214.240 142.786 C 213.512 142.443,212.577 141.994,212.162 141.787 C 211.748 141.580,211.178 141.411,210.897 141.411 C 210.616 141.411,210.386 141.292,210.386 141.145 C 210.386 140.999,210.221 140.879,210.020 140.879 C 209.818 140.879,208.976 140.579,208.148 140.213 C 206.329 139.409,205.946 139.387,205.726 140.078 " stroke="none" fill="#050505" fill-rule="evenodd"></path><path id="path1" d="M229.657 60.053 C 229.573 60.273,229.247 60.455,228.933 60.459 C 228.146 60.467,225.856 63.470,225.312 65.206 C 225.078 65.953,224.740 66.711,224.561 66.891 C 224.381 67.070,224.234 67.423,224.234 67.675 C 224.234 67.927,224.066 68.472,223.860 68.887 C 223.653 69.301,223.337 70.000,223.156 70.439 C 222.668 71.628,222.222 72.662,221.458 74.375 C 221.081 75.221,220.772 76.020,220.772 76.151 C 220.772 76.281,220.604 76.728,220.397 77.142 C 220.191 77.557,219.875 78.256,219.694 78.695 C 219.189 79.924,218.588 81.309,218.336 81.821 C 216.970 84.603,219.407 90.135,222.446 91.148 C 222.818 91.272,222.312 93.000,221.384 94.780 C 221.047 95.424,220.772 96.166,220.772 96.429 C 220.772 96.691,220.656 96.978,220.513 97.066 C 218.960 98.026,220.446 102.768,222.307 102.792 C 222.492 102.794,222.852 102.903,223.106 103.033 C 223.618 103.295,225.004 103.899,226.232 104.394 C 227.500 104.906,228.503 105.350,230.381 106.233 C 232.680 107.315,235.410 107.220,235.417 106.059 C 235.419 105.875,235.599 105.726,235.819 105.726 C 236.039 105.726,236.218 105.493,236.218 105.209 C 236.218 104.924,236.338 104.618,236.485 104.527 C 236.631 104.437,236.751 104.083,236.751 103.741 C 236.751 103.399,236.914 103.057,237.114 102.980 C 237.332 102.897,237.548 102.207,237.657 101.245 C 237.756 100.367,238.012 99.503,238.226 99.325 C 238.440 99.148,238.615 98.830,238.615 98.620 C 238.615 98.325,238.876 98.268,239.747 98.375 C 243.321 98.812,244.220 98.823,244.773 98.436 C 245.082 98.220,245.499 98.106,245.701 98.184 C 245.902 98.261,246.141 98.132,246.231 97.897 C 246.321 97.662,246.513 97.470,246.657 97.470 C 247.052 97.470,249.268 95.106,249.268 94.685 C 249.268 94.483,249.468 93.918,249.712 93.430 C 250.534 91.790,250.599 91.620,250.599 91.111 C 250.599 90.831,250.779 90.534,250.999 90.450 C 251.232 90.360,251.398 89.961,251.398 89.489 C 251.398 89.045,251.518 88.682,251.664 88.682 C 251.811 88.682,251.931 88.378,251.931 88.008 C 251.931 87.637,252.111 87.265,252.330 87.180 C 252.550 87.096,252.730 86.791,252.730 86.504 C 252.730 86.216,252.909 85.801,253.129 85.581 C 253.349 85.361,253.529 84.831,253.529 84.402 C 253.529 83.973,253.648 83.622,253.795 83.622 C 253.941 83.622,254.061 83.335,254.061 82.985 C 254.061 82.634,254.241 82.278,254.461 82.194 C 254.680 82.110,254.860 81.804,254.860 81.515 C 254.860 81.227,254.980 80.916,255.126 80.826 C 255.273 80.735,255.393 80.249,255.393 79.745 C 255.393 79.108,255.515 78.828,255.792 78.828 C 256.041 78.828,256.192 78.577,256.192 78.162 C 256.192 77.748,256.343 77.497,256.591 77.497 C 256.922 77.497,256.991 76.993,256.991 74.559 C 256.991 72.193,256.913 71.591,256.591 71.468 C 256.372 71.384,256.192 71.028,256.192 70.677 C 256.192 70.288,256.036 70.040,255.792 70.040 C 255.573 70.040,255.393 69.912,255.393 69.755 C 255.393 69.386,254.715 68.708,254.347 68.708 C 254.190 68.708,254.061 68.572,254.061 68.405 C 254.061 67.896,253.177 67.394,252.264 67.385 C 251.676 67.380,251.398 67.249,251.398 66.977 C 251.398 66.734,251.150 66.578,250.761 66.578 C 250.410 66.578,250.055 66.398,249.970 66.178 C 249.886 65.959,249.521 65.779,249.159 65.779 C 248.796 65.779,248.426 65.659,248.336 65.513 C 248.245 65.366,247.819 65.246,247.388 65.246 C 246.869 65.246,246.605 65.111,246.605 64.847 C 246.605 64.601,246.355 64.447,245.954 64.447 C 245.597 64.447,245.230 64.328,245.140 64.181 C 245.049 64.035,244.563 63.915,244.059 63.915 C 243.422 63.915,243.142 63.793,243.142 63.515 C 243.142 63.289,242.904 63.116,242.591 63.116 C 242.287 63.116,241.859 62.936,241.640 62.716 C 241.420 62.497,241.009 62.317,240.727 62.317 C 240.444 62.317,240.213 62.197,240.213 62.051 C 240.213 61.904,239.794 61.784,239.281 61.784 C 238.630 61.784,238.349 61.664,238.349 61.385 C 238.349 61.136,238.097 60.985,237.683 60.985 C 237.317 60.985,237.017 60.866,237.017 60.719 C 237.017 60.573,236.658 60.453,236.218 60.453 C 235.686 60.453,235.419 60.320,235.419 60.053 C 235.419 59.723,234.930 59.654,232.615 59.654 C 230.367 59.654,229.780 59.733,229.657 60.053 M244.689 67.776 C 245.448 68.142,246.250 68.442,246.470 68.442 C 246.690 68.442,246.871 68.562,246.871 68.708 C 246.871 68.855,247.047 68.975,247.261 68.975 C 247.648 68.975,249.295 69.619,250.067 70.073 C 250.286 70.202,250.706 70.414,250.999 70.544 C 253.208 71.523,254.395 74.532,253.357 76.523 C 252.587 78.003,252.463 78.283,252.463 78.551 C 252.463 78.695,252.155 79.506,251.777 80.352 C 250.811 82.520,250.455 83.336,249.943 84.554 C 248.811 87.246,248.124 88.055,247.619 87.293 C 247.373 86.922,247.562 85.420,247.941 84.721 C 248.071 84.483,248.375 83.808,248.618 83.222 C 249.104 82.049,249.424 81.314,250.446 79.021 C 250.823 78.174,251.132 77.330,251.132 77.143 C 251.132 76.957,251.277 76.659,251.455 76.481 C 251.880 76.056,251.872 73.407,251.444 72.892 C 251.261 72.671,250.426 72.166,249.590 71.770 C 248.161 71.095,247.652 70.871,245.672 70.049 C 244.360 69.504,243.035 68.929,242.610 68.719 C 242.390 68.610,242.172 68.204,242.126 67.816 C 242.015 66.882,242.811 66.870,244.689 67.776 M247.617 89.903 C 247.666 90.403,247.535 90.859,247.284 91.067 C 247.057 91.256,246.871 91.553,246.871 91.727 C 246.871 92.184,245.860 94.209,245.530 94.413 C 244.505 95.047,244.220 92.581,245.153 91.155 C 245.366 90.830,245.539 90.420,245.539 90.243 C 245.539 88.905,247.488 88.585,247.617 89.903 M219.484 105.486 C 219.021 106.498,218.642 107.481,218.642 107.671 C 218.642 107.861,218.542 108.130,218.420 108.269 C 218.297 108.408,217.988 109.121,217.733 109.854 C 217.159 111.499,216.836 112.300,216.354 113.271 C 216.147 113.685,215.979 114.155,215.979 114.315 C 215.979 114.475,215.824 114.794,215.634 115.026 C 215.445 115.257,215.137 115.925,214.949 116.511 C 214.639 117.483,214.136 118.696,213.543 119.903 C 213.418 120.158,213.316 120.532,213.316 120.736 C 213.316 120.940,213.136 121.256,212.916 121.438 C 212.696 121.620,212.517 121.977,212.517 122.230 C 212.517 122.483,212.217 123.254,211.851 123.942 C 211.485 124.631,211.185 125.413,211.185 125.681 C 211.185 125.948,211.005 126.316,210.786 126.498 C 210.566 126.680,210.386 127.048,210.386 127.315 C 210.386 127.583,210.087 128.365,209.720 129.054 C 209.354 129.742,209.055 130.450,209.055 130.626 C 209.055 130.802,208.755 131.509,208.389 132.198 C 208.023 132.887,207.723 133.677,207.723 133.953 C 207.723 134.230,207.599 134.532,207.448 134.626 C 207.072 134.859,208.140 135.618,209.454 136.052 C 210.040 136.246,211.238 136.736,212.117 137.141 C 212.996 137.546,214.194 138.089,214.780 138.348 C 215.366 138.608,216.361 139.163,216.991 139.583 C 218.397 140.520,218.908 140.554,218.908 139.709 C 218.908 139.358,219.088 139.003,219.308 138.918 C 219.527 138.834,219.707 138.462,219.707 138.091 C 219.707 137.720,219.827 137.417,219.973 137.417 C 220.120 137.417,220.240 137.053,220.240 136.609 C 220.240 136.138,220.406 135.739,220.639 135.649 C 220.859 135.565,221.039 135.216,221.039 134.874 C 221.039 134.532,221.158 134.178,221.305 134.088 C 221.451 133.997,221.571 133.687,221.571 133.398 C 221.571 133.109,221.751 132.804,221.971 132.719 C 222.201 132.631,222.370 132.233,222.370 131.777 C 222.370 131.343,222.550 130.807,222.770 130.588 C 222.989 130.368,223.169 129.957,223.169 129.675 C 223.169 129.392,223.289 129.161,223.435 129.161 C 223.582 129.161,223.702 128.876,223.702 128.528 C 223.702 128.180,223.881 127.746,224.101 127.563 C 224.321 127.381,224.501 126.887,224.501 126.465 C 224.501 126.044,224.621 125.699,224.767 125.699 C 224.913 125.699,225.033 125.412,225.033 125.062 C 225.033 124.711,225.213 124.356,225.433 124.271 C 225.662 124.183,225.832 123.786,225.832 123.339 C 225.832 122.893,226.003 122.495,226.232 122.407 C 226.451 122.323,226.631 121.950,226.631 121.580 C 226.631 121.209,226.751 120.905,226.897 120.905 C 227.044 120.905,227.164 120.619,227.164 120.268 C 227.164 119.918,227.344 119.562,227.563 119.478 C 227.814 119.381,227.963 118.974,227.963 118.384 C 227.963 117.867,228.083 117.443,228.229 117.443 C 228.375 117.443,228.495 117.157,228.495 116.806 C 228.495 116.456,228.675 116.100,228.895 116.016 C 229.115 115.931,229.294 115.569,229.294 115.210 C 229.294 114.852,229.419 114.517,229.572 114.466 C 229.725 114.415,229.887 114.021,229.933 113.591 C 229.979 113.161,230.154 112.763,230.321 112.707 C 230.489 112.651,230.626 112.316,230.626 111.962 C 230.626 111.608,230.738 111.318,230.874 111.318 C 231.145 111.318,231.292 110.900,231.541 109.420 L 231.703 108.454 229.899 107.723 C 227.941 106.929,226.496 106.310,225.769 105.953 C 225.515 105.828,225.140 105.726,224.936 105.726 C 224.733 105.726,224.417 105.546,224.234 105.326 C 224.052 105.107,223.696 104.927,223.444 104.927 C 223.032 104.927,221.917 104.489,220.749 103.869 C 220.409 103.689,220.162 104.005,219.484 105.486 M224.286 108.256 C 225.045 108.622,225.864 108.921,226.107 108.921 C 227.260 108.921,227.836 110.647,227.160 112.072 C 226.843 112.740,226.633 113.228,225.823 115.180 C 225.005 117.150,224.779 117.665,224.128 119.045 C 223.747 119.853,223.435 120.652,223.435 120.821 C 223.435 120.990,223.267 121.468,223.061 121.883 C 222.854 122.297,222.566 122.936,222.419 123.302 C 222.073 124.164,221.181 126.190,220.506 127.647 C 220.213 128.279,219.974 128.909,219.974 129.045 C 219.975 129.603,218.475 132.333,218.007 132.625 C 217.092 133.196,216.809 131.543,217.556 129.994 C 217.813 129.461,219.030 126.643,219.698 125.033 C 220.313 123.551,220.699 122.641,221.108 121.704 C 221.332 121.192,221.664 120.413,221.847 119.973 C 222.399 118.644,222.968 117.337,223.208 116.848 C 223.333 116.593,223.435 116.219,223.435 116.015 C 223.435 115.811,223.615 115.495,223.835 115.313 C 224.055 115.131,224.234 114.755,224.234 114.478 C 224.234 113.974,224.298 113.808,225.111 112.180 C 225.652 111.098,225.478 110.601,224.481 110.382 C 224.056 110.288,223.639 110.101,223.556 109.966 C 223.472 109.831,223.211 109.720,222.975 109.720 C 221.976 109.720,221.086 108.096,221.904 107.766 C 222.531 107.513,222.907 107.591,224.286 108.256 M203.748 136.116 C 203.444 136.527,203.196 137.009,203.196 137.187 C 203.196 137.655,202.571 139.585,201.872 141.278 C 201.690 141.718,201.395 142.437,201.216 142.876 C 201.036 143.316,200.706 144.095,200.482 144.607 C 200.258 145.120,199.925 145.899,199.743 146.338 C 199.561 146.778,199.253 147.497,199.059 147.936 C 198.865 148.375,198.554 149.214,198.366 149.800 C 198.179 150.386,197.871 151.055,197.681 151.286 C 197.492 151.517,197.337 151.952,197.337 152.252 C 197.337 152.552,197.157 152.947,196.937 153.129 C 196.718 153.312,196.538 153.679,196.538 153.945 C 196.538 154.211,196.418 154.503,196.272 154.594 C 196.125 154.684,196.005 154.928,196.005 155.135 C 196.005 155.342,195.697 156.204,195.319 157.050 C 194.297 159.343,193.977 160.078,193.491 161.252 C 193.249 161.838,192.928 162.538,192.778 162.809 C 192.395 163.502,191.856 163.450,201.286 163.625 C 206.363 163.720,210.106 163.898,210.408 164.060 C 210.834 164.288,210.973 164.219,211.229 163.658 C 211.398 163.287,211.637 162.983,211.760 162.983 C 211.883 162.983,211.984 162.696,211.984 162.345 C 211.984 161.995,212.164 161.639,212.383 161.555 C 212.617 161.465,212.783 161.066,212.783 160.594 C 212.783 160.150,212.903 159.787,213.049 159.787 C 213.196 159.787,213.316 159.427,213.316 158.988 C 213.316 158.455,213.449 158.189,213.715 158.189 C 213.964 158.189,214.115 157.938,214.115 157.523 C 214.115 157.157,214.233 156.858,214.378 156.858 C 214.522 156.858,214.717 156.378,214.811 155.792 C 214.905 155.206,215.086 154.727,215.214 154.727 C 215.342 154.727,215.446 154.440,215.446 154.090 C 215.446 153.739,215.626 153.383,215.846 153.299 C 216.065 153.215,216.245 152.843,216.245 152.472 C 216.245 152.101,216.365 151.798,216.511 151.798 C 216.658 151.798,216.778 151.378,216.778 150.866 C 216.778 150.215,216.898 149.933,217.177 149.933 C 217.426 149.933,217.577 149.682,217.577 149.268 C 217.577 148.901,217.696 148.602,217.843 148.602 C 217.989 148.602,218.109 148.385,218.109 148.120 C 218.109 147.855,218.285 147.406,218.500 147.121 C 218.715 146.837,218.895 146.275,218.900 145.872 C 218.905 145.402,219.051 145.140,219.308 145.140 C 219.556 145.140,219.707 144.888,219.707 144.474 C 219.707 144.108,219.827 143.808,219.973 143.808 C 220.382 143.808,220.289 141.956,219.859 141.526 C 219.650 141.316,219.178 141.145,218.810 141.145 C 218.442 141.145,218.067 141.025,217.976 140.879 C 217.886 140.732,217.406 140.613,216.911 140.613 C 216.415 140.613,215.936 140.493,215.846 140.346 C 215.755 140.200,215.447 140.080,215.160 140.080 C 214.874 140.080,214.432 139.966,214.177 139.826 C 213.923 139.687,213.266 139.388,212.716 139.161 C 212.167 138.934,211.268 138.560,210.719 138.331 C 210.170 138.101,209.421 137.791,209.055 137.640 C 208.688 137.490,208.050 137.199,207.635 136.993 C 207.220 136.787,206.711 136.618,206.503 136.618 C 206.295 136.618,206.125 136.523,206.125 136.407 C 206.125 135.613,204.286 135.387,203.748 136.116 M208.148 140.213 C 208.976 140.579,209.818 140.879,210.020 140.879 C 210.221 140.879,210.386 140.999,210.386 141.145 C 210.386 141.292,210.616 141.411,210.897 141.411 C 211.178 141.411,211.748 141.580,212.162 141.787 C 212.577 141.994,213.512 142.443,214.240 142.786 C 215.714 143.480,216.266 144.663,215.553 145.602 C 215.357 145.860,215.193 146.222,215.188 146.406 C 215.184 146.590,214.880 147.361,214.514 148.120 C 214.148 148.879,213.848 149.595,213.848 149.710 C 213.848 149.825,213.540 150.611,213.162 151.457 C 211.976 154.118,211.194 155.920,210.703 157.124 C 209.815 159.304,209.404 160.030,208.998 160.140 C 207.972 160.420,207.810 159.072,208.667 157.390 C 208.854 157.024,209.203 156.245,209.443 155.659 C 209.683 155.073,209.993 154.386,210.133 154.131 C 210.272 153.877,210.386 153.556,210.386 153.418 C 210.386 153.279,210.753 152.349,211.202 151.350 C 211.651 150.351,212.144 149.234,212.298 148.868 C 212.453 148.502,212.669 148.019,212.780 147.794 C 212.891 147.570,213.066 147.002,213.169 146.532 C 213.272 146.063,213.467 145.610,213.602 145.527 C 214.464 144.994,213.405 144.295,209.055 142.529 C 205.936 141.262,205.461 140.913,205.726 140.078 C 205.946 139.387,206.329 139.409,208.148 140.213 M217.044 165.459 C 203.702 165.752,197.137 165.762,180.892 165.511 C 172.184 165.377,168.842 165.407,168.842 165.619 C 168.842 165.780,168.616 165.912,168.340 165.912 C 166.691 165.912,166.057 170.406,167.510 171.795 C 168.949 173.171,166.869 173.086,199.447 173.110 C 216.010 173.123,229.651 173.083,229.761 173.022 C 229.870 172.960,230.290 172.831,230.692 172.735 C 231.186 172.617,231.425 172.388,231.425 172.032 C 231.425 171.742,231.545 171.505,231.691 171.505 C 231.845 171.505,231.957 170.655,231.957 169.488 C 231.957 167.513,231.655 166.711,230.911 166.711 C 230.754 166.711,230.626 166.545,230.626 166.342 C 230.626 165.982,229.040 165.064,228.588 165.162 C 228.464 165.189,223.269 165.323,217.044 165.459 M162.170 174.113 C 161.185 174.513,160.917 174.843,160.395 176.298 C 159.743 178.118,160.376 179.703,162.229 180.888 C 162.890 181.310,165.510 181.344,199.519 181.367 C 235.470 181.390,237.550 181.347,237.550 180.566 C 237.550 180.416,237.730 180.293,237.949 180.293 C 238.275 180.293,238.349 179.849,238.349 177.896 C 238.349 176.369,238.245 175.499,238.064 175.499 C 237.695 175.499,237.017 174.822,237.017 174.453 C 237.017 174.296,236.838 174.168,236.618 174.168 C 236.398 174.168,236.218 174.041,236.218 173.887 C 236.218 173.696,235.044 173.656,232.557 173.762 C 226.451 174.023,166.509 174.199,164.739 173.961 C 163.513 173.797,162.853 173.836,162.170 174.113 M234.754 182.175 C 234.168 182.297,216.540 182.399,195.580 182.401 C 171.617 182.404,157.219 182.502,156.792 182.664 C 154.466 183.548,154.687 187.954,157.120 189.213 C 157.913 189.622,240.036 189.869,241.640 189.466 C 242.027 189.369,242.344 189.123,242.344 188.919 C 242.344 188.715,242.480 188.549,242.647 188.549 C 243.258 188.549,243.658 187.582,243.667 186.085 C 243.671 185.236,243.556 184.554,243.409 184.554 C 243.262 184.554,243.142 184.254,243.142 183.888 C 243.142 183.474,242.992 183.222,242.743 183.222 C 242.523 183.222,242.344 183.043,242.344 182.823 C 242.344 182.574,242.092 182.423,241.678 182.423 C 241.312 182.423,241.012 182.304,241.012 182.157 C 241.012 181.837,236.309 181.850,234.754 182.175 M240.213 190.430 C 239.554 190.549,219.197 190.648,194.976 190.649 C 170.755 190.650,150.871 190.718,150.791 190.798 C 150.710 190.879,150.450 190.945,150.213 190.945 C 148.485 190.945,148.418 195.543,150.125 196.995 L 151.132 197.852 199.334 197.927 C 225.846 197.969,247.577 197.913,247.625 197.803 C 247.674 197.693,247.815 197.603,247.939 197.603 C 248.063 197.603,248.592 197.200,249.116 196.706 C 250.187 195.695,250.613 192.277,249.667 192.277 C 249.447 192.277,249.268 192.148,249.268 191.990 C 249.268 190.370,244.801 189.600,240.213 190.430 M246.471 198.685 C 245.885 198.806,223.041 198.911,195.705 198.916 C 168.369 198.922,145.779 199.007,145.505 199.106 C 143.249 199.920,142.839 202.956,144.723 204.895 L 145.904 206.110 199.250 206.184 C 228.591 206.225,252.710 206.168,252.850 206.059 C 252.989 205.949,253.257 205.859,253.446 205.859 C 254.141 205.859,254.860 204.948,254.860 204.069 C 254.860 203.589,254.980 203.196,255.126 203.196 C 255.273 203.196,255.393 202.896,255.393 202.530 C 255.393 202.164,255.273 201.864,255.126 201.864 C 254.980 201.864,254.860 201.385,254.860 200.799 C 254.860 200.030,254.749 199.734,254.461 199.734 C 254.241 199.734,254.061 199.554,254.061 199.334 C 254.061 199.086,253.810 198.935,253.395 198.935 C 253.029 198.935,252.730 198.815,252.730 198.668 C 252.730 198.349,248.030 198.361,246.471 198.685 " stroke="none" fill="#fbfbfb" fill-rule="evenodd"></path></g></svg>