<svg id="svg" version="1.1" xmlns="http://www.w3.org/2000/svg" xmlns:xlink="http://www.w3.org/1999/xlink" width="400" height="285.7142857142857" viewBox="0, 0, 400,285.7142857142857"><g id="svgg"><path id="path0" d="M175.555 57.987 C 175.371 58.172,172.521 58.361,168.198 58.476 C 164.318 58.579,161.143 58.751,161.143 58.859 C 161.143 58.966,159.504 59.133,157.500 59.230 C 155.496 59.326,152.571 59.593,151.000 59.822 C 149.429 60.051,146.793 60.333,145.143 60.449 C 143.493 60.564,141.757 60.702,141.286 60.755 C 135.909 61.364,136.303 61.173,135.470 63.570 C 134.475 66.436,123.629 74.383,111.857 80.871 C 110.914 81.391,109.821 82.034,109.429 82.302 C 109.036 82.569,106.914 83.723,104.714 84.865 C 102.514 86.007,100.521 87.100,100.286 87.294 C 99.595 87.861,88.082 93.467,87.069 93.730 C 86.559 93.862,85.243 94.248,84.143 94.586 C 80.723 95.640,75.780 96.016,61.571 96.304 C 54.186 96.454,47.886 96.696,47.571 96.841 C 47.000 97.104,35.300 97.574,32.227 97.457 C 31.331 97.422,30.360 97.522,30.069 97.677 C 29.592 97.933,27.480 98.149,22.769 98.424 C 18.196 98.691,8.009 99.484,4.780 99.824 C -0.296 100.358,-0.544 100.639,0.702 104.429 C 2.692 110.481,3.315 112.994,3.712 116.571 C 3.878 118.064,4.197 120.764,4.421 122.571 C 5.406 130.507,5.743 133.309,6.294 138.143 C 6.616 140.971,7.137 145.536,7.451 148.286 C 9.614 167.210,10.337 168.372,20.863 169.836 C 28.916 170.956,30.380 171.147,34.286 171.585 C 36.564 171.841,39.477 172.204,40.757 172.392 C 43.612 172.811,43.953 172.678,45.350 170.602 C 45.943 169.721,47.076 168.164,47.868 167.143 C 48.660 166.121,50.002 164.322,50.851 163.144 C 53.752 159.119,56.405 156.526,62.259 152.000 C 63.580 150.979,65.316 149.624,66.116 148.990 C 71.935 144.379,82.037 140.084,90.857 138.473 C 92.979 138.085,95.550 137.611,96.571 137.419 C 113.357 134.272,139.496 141.518,152.436 152.906 C 153.218 153.594,154.572 154.685,155.446 155.332 C 169.071 165.418,177.677 188.836,177.712 215.919 C 177.715 218.542,177.765 218.570,182.481 218.577 C 184.495 218.581,189.100 218.708,192.714 218.861 C 196.329 219.013,203.400 219.263,208.429 219.417 C 213.457 219.570,218.885 219.852,220.491 220.043 C 224.545 220.526,225.592 219.406,224.000 216.286 C 223.686 215.670,223.428 214.807,223.427 214.369 C 223.426 213.930,223.253 213.242,223.043 212.840 C 222.834 212.438,222.575 211.565,222.468 210.899 C 222.362 210.234,222.157 209.470,222.012 209.202 C 221.867 208.934,221.615 207.573,221.451 206.179 C 221.288 204.785,221.012 203.472,220.838 203.263 C 220.664 203.054,220.594 202.766,220.682 202.623 C 220.873 202.314,220.355 198.957,219.991 198.143 C 219.850 197.829,219.665 196.426,219.580 195.027 C 219.494 193.627,219.310 192.342,219.170 192.170 C 219.031 191.998,218.838 190.764,218.742 189.429 C 218.414 184.863,218.359 184.349,218.163 184.033 C 217.950 183.688,217.809 182.224,217.571 177.891 C 217.486 176.339,217.326 174.925,217.215 174.749 C 217.104 174.573,216.991 174.043,216.964 173.571 C 216.733 169.543,216.447 166.814,216.244 166.688 C 215.899 166.475,215.941 164.645,216.306 163.963 C 216.511 163.578,216.517 163.279,216.323 163.045 C 215.390 161.921,215.371 144.280,216.302 143.704 C 216.459 143.607,216.575 143.152,216.559 142.692 C 216.544 142.233,216.618 140.764,216.725 139.429 C 216.833 138.093,216.939 136.743,216.962 136.429 C 216.985 136.114,217.111 135.689,217.243 135.484 C 217.477 135.119,217.804 131.950,217.746 130.618 C 217.730 130.251,217.905 129.681,218.136 129.352 C 218.444 128.911,218.473 128.654,218.243 128.377 C 218.017 128.105,218.017 128.000,218.242 128.000 C 218.528 128.000,218.602 127.366,218.592 125.000 C 218.588 124.010,217.704 123.143,216.699 123.143 C 216.333 123.143,215.962 123.026,215.874 122.884 C 215.786 122.741,215.071 122.537,214.286 122.429 C 213.500 122.321,212.791 122.124,212.710 121.992 C 212.628 121.861,211.824 121.611,210.924 121.438 C 210.023 121.265,209.088 121.015,208.846 120.883 C 208.604 120.750,207.833 120.547,207.132 120.431 C 206.431 120.315,205.729 120.139,205.571 120.041 C 204.854 119.592,201.901 118.656,198.150 117.689 C 197.525 117.528,196.943 117.282,196.857 117.142 C 196.770 117.002,196.258 116.810,195.719 116.715 C 195.179 116.620,194.604 116.440,194.440 116.315 C 194.277 116.191,193.500 115.919,192.714 115.711 C 191.929 115.504,191.032 115.162,190.722 114.953 C 190.412 114.743,189.866 114.571,189.508 114.571 C 189.150 114.571,188.857 114.443,188.857 114.286 C 188.857 114.129,188.578 114.000,188.237 114.000 C 187.896 114.000,187.391 113.796,187.115 113.546 C 186.839 113.296,186.186 112.983,185.664 112.849 C 185.142 112.716,183.814 112.273,182.714 111.865 C 180.963 111.215,179.864 110.908,177.571 110.427 C 176.009 110.100,174.338 109.616,173.528 109.257 C 173.033 109.037,172.319 108.857,171.943 108.857 C 171.566 108.857,171.106 108.706,170.921 108.521 C 170.555 108.155,168.084 107.672,166.714 107.700 C 166.243 107.709,165.600 107.599,165.286 107.456 C 164.971 107.312,164.480 107.119,164.193 107.027 C 163.423 106.779,163.718 105.974,164.859 105.205 C 165.408 104.835,166.244 104.188,166.716 103.766 C 167.189 103.345,169.246 101.525,171.288 99.722 C 173.330 97.918,175.349 96.118,175.777 95.722 C 176.204 95.325,176.718 94.869,176.919 94.710 C 178.677 93.316,185.066 87.520,186.429 86.083 C 187.371 85.089,188.489 84.049,188.911 83.772 C 189.333 83.495,190.235 82.758,190.915 82.134 C 193.895 79.399,195.905 78.402,201.812 76.728 C 206.217 75.479,253.968 74.574,271.074 75.415 C 274.805 75.599,281.264 75.862,285.429 76.000 C 297.766 76.410,309.762 78.697,317.091 82.035 C 318.084 82.487,318.941 82.857,318.994 82.857 C 319.048 82.857,320.053 83.307,321.227 83.857 C 322.402 84.407,323.427 84.857,323.505 84.857 C 324.303 84.857,357.153 100.957,363.120 104.272 C 364.600 105.095,366.979 106.381,368.406 107.132 C 369.833 107.882,371.739 108.892,372.642 109.375 L 374.285 110.255 375.785 109.590 C 376.610 109.225,378.619 108.364,380.248 107.677 C 384.157 106.030,385.030 104.335,382.958 102.415 C 382.588 102.072,382.286 101.701,382.286 101.590 C 382.286 101.063,380.057 99.624,377.143 98.268 C 374.291 96.941,371.470 95.587,369.635 94.664 C 368.570 94.129,367.593 93.756,367.464 93.835 C 367.335 93.915,366.964 93.733,366.639 93.430 C 366.314 93.128,365.716 92.797,365.310 92.695 C 364.904 92.593,364.571 92.409,364.571 92.286 C 364.571 92.163,364.247 91.980,363.849 91.881 C 363.452 91.781,362.520 91.332,361.778 90.882 C 361.036 90.432,360.149 89.980,359.807 89.877 C 359.465 89.774,358.629 89.378,357.950 88.998 C 355.894 87.848,353.821 86.857,353.472 86.857 C 353.291 86.857,353.143 86.757,353.143 86.634 C 353.143 86.511,352.789 86.263,352.357 86.081 C 351.925 85.900,350.800 85.298,349.857 84.743 C 348.914 84.189,346.471 82.894,344.429 81.866 C 340.909 80.095,340.077 79.640,335.651 77.073 C 334.637 76.484,333.368 75.850,332.832 75.663 C 332.296 75.477,331.687 75.155,331.480 74.948 C 331.272 74.741,330.918 74.571,330.694 74.571 C 330.469 74.571,330.286 74.467,330.286 74.339 C 330.286 74.211,329.868 73.887,329.357 73.620 C 325.749 71.734,325.021 71.074,323.867 68.642 C 323.401 67.661,322.919 66.857,322.796 66.857 C 322.672 66.857,322.571 66.214,322.571 65.429 L 322.571 64.000 321.160 64.000 C 320.383 64.000,319.681 63.892,319.600 63.760 C 319.518 63.628,318.813 63.497,318.034 63.470 C 317.254 63.442,316.027 63.293,315.308 63.138 C 314.589 62.984,313.454 62.740,312.786 62.597 C 312.118 62.454,309.964 62.246,308.000 62.134 C 306.036 62.022,304.300 61.830,304.143 61.706 C 303.986 61.583,300.996 61.388,297.500 61.274 C 294.004 61.159,291.143 60.969,291.143 60.852 C 291.143 60.734,288.154 60.545,284.500 60.431 C 280.846 60.316,277.729 60.126,277.571 60.007 C 277.414 59.888,272.786 59.707,267.286 59.605 C 261.786 59.502,255.036 59.352,252.286 59.271 C 249.536 59.191,245.179 59.130,242.605 59.137 C 239.958 59.144,237.778 59.029,237.588 58.871 C 237.288 58.622,231.605 58.456,219.528 58.345 C 216.735 58.319,215.738 58.215,215.647 57.941 C 215.547 57.641,215.272 57.639,214.186 57.929 C 212.585 58.356,205.826 58.412,205.571 58.000 C 205.319 57.592,183.360 57.611,182.952 58.020 C 182.620 58.352,177.422 58.250,176.429 57.891 C 176.114 57.778,175.721 57.821,175.555 57.987 M239.832 110.277 C 239.504 110.410,238.498 110.611,237.598 110.723 C 235.183 111.025,234.286 111.872,234.286 113.848 C 234.286 116.185,233.858 116.090,244.659 116.145 C 255.636 116.201,255.143 116.307,255.143 113.897 C 255.143 111.499,253.721 110.173,251.500 110.500 C 250.927 110.584,250.571 110.515,250.571 110.318 C 250.571 109.467,246.154 109.948,245.617 110.857 C 245.323 111.354,244.871 111.714,244.540 111.714 C 244.164 111.714,243.869 111.423,243.671 110.857 C 243.355 109.948,241.383 109.650,239.832 110.277 M237.500 113.255 C 238.434 113.964,237.911 115.143,236.663 115.143 C 235.879 115.143,235.454 113.944,236.003 113.282 C 236.433 112.763,236.843 112.756,237.500 113.255 M226.732 125.291 C 226.629 125.843,226.614 126.409,226.699 126.547 C 226.785 126.685,226.457 130.573,225.971 135.185 C 224.924 145.132,224.793 151.730,225.524 157.857 C 225.994 161.799,226.414 165.570,227.291 173.714 C 228.079 181.024,230.143 194.957,231.313 200.857 C 231.858 203.606,234.152 212.769,234.854 215.000 C 235.150 215.943,235.465 217.059,235.554 217.480 C 235.937 219.298,238.157 219.428,268.832 219.430 C 289.330 219.431,391.946 220.516,392.649 220.739 C 394.342 221.276,395.103 220.259,395.872 216.429 C 395.967 215.957,396.150 215.314,396.279 215.000 C 396.644 214.109,397.716 209.383,397.769 208.429 C 397.795 207.957,397.879 207.453,397.956 207.308 C 398.180 206.882,398.242 206.141,398.714 198.143 C 398.924 194.584,398.994 193.983,399.270 193.357 C 399.391 193.081,399.414 192.554,399.322 192.185 C 399.229 191.815,399.247 191.419,399.362 191.303 C 399.848 190.813,400.217 149.531,399.739 149.054 C 399.568 148.883,399.429 148.511,399.429 148.229 C 399.429 147.946,399.332 147.714,399.214 147.714 C 399.096 147.713,398.614 146.910,398.143 145.928 C 397.671 144.946,397.189 144.100,397.071 144.048 C 396.954 143.995,396.857 143.797,396.857 143.608 C 396.857 143.070,394.879 139.402,393.965 138.245 C 393.513 137.672,393.143 137.131,393.143 137.043 C 393.143 136.843,391.244 134.152,390.290 133.000 C 389.419 131.948,385.895 128.482,384.392 127.199 L 383.286 126.255 378.571 126.413 C 371.827 126.639,351.243 126.667,350.893 126.451 C 350.731 126.351,348.503 126.261,345.942 126.251 C 343.381 126.241,335.403 126.104,328.213 125.945 C 321.023 125.787,311.573 125.610,307.213 125.552 C 302.853 125.495,292.986 125.327,285.286 125.179 C 277.586 125.032,266.568 124.898,260.801 124.882 C 254.202 124.864,250.252 124.748,250.142 124.569 C 250.030 124.389,245.762 124.286,238.444 124.286 L 226.921 124.286 226.732 125.291 M355.642 130.054 C 357.336 130.684,360.286 133.198,360.286 134.011 C 360.286 134.513,359.422 135.562,358.098 136.668 C 357.010 137.578,351.964 138.636,351.591 138.032 C 351.505 137.893,350.983 137.694,350.432 137.591 C 349.880 137.487,349.429 137.301,349.429 137.176 C 349.429 137.051,349.103 136.800,348.704 136.619 C 344.808 134.844,344.429 133.030,347.470 130.711 C 349.660 129.041,352.340 128.825,355.642 130.054 M254.084 136.857 C 255.433 137.255,256.171 138.570,255.889 140.072 C 255.508 142.104,254.218 142.267,251.159 140.670 C 250.116 140.126,241.481 140.144,239.237 140.694 C 238.321 140.919,237.040 141.185,236.390 141.285 L 235.209 141.468 234.856 139.994 C 234.432 138.229,234.724 137.468,236.099 136.749 C 237.173 136.187,252.116 136.277,254.084 136.857 M97.286 152.286 C 97.188 152.445,95.874 152.571,94.328 152.571 C 90.971 152.571,85.401 153.249,82.857 153.967 C 81.836 154.255,80.164 154.715,79.143 154.988 C 78.121 155.262,76.771 155.655,76.143 155.862 C 75.514 156.069,73.779 156.587,72.286 157.012 C 70.793 157.437,69.443 157.876,69.286 157.987 C 69.129 158.098,68.164 158.485,67.143 158.846 C 64.565 159.758,61.037 161.561,59.000 163.008 C 58.057 163.677,56.671 164.567,55.919 164.984 C 47.326 169.757,36.442 181.993,31.134 192.847 L 29.733 195.713 30.366 196.112 C 30.810 196.391,32.457 196.563,35.857 196.687 C 38.529 196.784,42.883 196.945,45.534 197.044 L 50.353 197.224 50.919 198.183 C 51.510 199.186,52.064 199.390,52.551 198.786 C 52.709 198.589,53.901 197.079,55.199 195.429 C 60.449 188.755,66.848 183.406,75.429 178.519 C 77.105 177.564,83.729 175.325,87.000 174.608 C 99.258 171.920,111.829 172.889,122.465 177.342 C 129.930 180.467,141.077 190.706,145.919 198.886 C 149.094 204.252,153.570 215.793,155.676 224.044 C 156.627 227.771,156.784 227.921,157.795 226.064 C 158.620 224.547,159.626 224.069,163.286 223.451 C 164.229 223.292,166.800 222.837,169.000 222.440 C 171.200 222.043,173.661 221.717,174.469 221.716 C 176.560 221.713,176.567 221.278,174.561 215.571 C 174.050 214.116,173.815 213.289,172.413 208.000 C 171.975 206.350,171.526 204.936,171.415 204.857 C 171.304 204.779,171.122 204.168,171.010 203.500 C 170.898 202.832,170.690 202.286,170.546 202.286 C 170.403 202.286,170.286 202.085,170.286 201.839 C 170.286 201.594,169.954 200.662,169.548 199.768 C 169.143 198.874,168.709 197.886,168.585 197.571 C 168.461 197.257,167.636 195.515,166.751 193.700 C 165.867 191.885,165.143 190.246,165.143 190.057 C 165.143 189.869,165.025 189.714,164.880 189.714 C 164.735 189.714,164.532 189.329,164.429 188.857 C 164.325 188.386,164.118 188.000,163.968 188.000 C 163.819 188.000,163.612 187.775,163.509 187.500 C 163.406 187.225,162.733 186.227,162.013 185.283 C 161.292 184.339,160.390 183.053,160.007 182.426 C 159.623 181.799,159.208 181.243,159.084 181.190 C 158.959 181.138,158.857 180.936,158.857 180.740 C 158.857 180.545,158.536 180.083,158.143 179.714 C 157.750 179.345,157.429 178.920,157.429 178.769 C 157.429 178.618,157.107 178.196,156.714 177.832 C 156.321 177.468,156.000 177.085,156.000 176.982 C 156.000 175.936,146.765 166.857,145.702 166.857 C 145.551 166.857,145.429 166.757,145.429 166.634 C 145.429 166.512,144.704 165.901,143.819 165.277 C 142.934 164.653,142.006 163.918,141.756 163.643 C 141.506 163.368,141.193 163.143,141.059 163.143 C 140.926 163.143,140.257 162.758,139.573 162.287 C 138.889 161.816,137.998 161.305,137.593 161.151 C 137.188 160.997,136.857 160.771,136.857 160.648 C 136.857 160.526,136.439 160.249,135.929 160.033 C 135.418 159.817,134.093 159.207,132.984 158.678 C 131.875 158.148,130.782 157.710,130.555 157.705 C 130.328 157.699,129.629 157.446,129.000 157.143 C 128.371 156.839,127.658 156.586,127.414 156.581 C 127.171 156.576,126.829 156.429,126.655 156.255 C 126.207 155.807,122.582 154.598,121.643 154.584 C 121.211 154.577,120.857 154.451,120.857 154.303 C 120.857 154.156,120.632 154.044,120.357 154.055 C 120.082 154.065,119.021 153.913,118.000 153.716 C 116.979 153.520,115.766 153.371,115.306 153.386 C 114.846 153.401,114.320 153.290,114.137 153.138 C 113.955 152.987,111.723 152.777,109.177 152.672 C 106.632 152.567,104.482 152.373,104.401 152.241 C 104.188 151.896,97.500 151.938,97.286 152.286 " stroke="none" fill="#fbfbfb" fill-rule="evenodd"></path><path id="path1" d="M173.429 57.449 C 161.717 57.888,153.829 58.318,152.571 58.585 C 151.314 58.852,149.206 59.091,142.571 59.717 C 133.323 60.590,131.456 61.040,131.181 62.459 C 131.123 62.756,130.802 63.383,130.467 63.851 C 130.131 64.319,129.729 64.950,129.571 65.252 C 129.414 65.554,129.032 65.942,128.721 66.115 C 128.410 66.287,127.197 67.296,126.025 68.357 C 124.852 69.418,123.743 70.286,123.559 70.286 C 123.375 70.286,122.636 70.736,121.915 71.286 C 121.195 71.836,120.520 72.286,120.415 72.286 C 120.311 72.286,119.757 72.645,119.184 73.084 C 118.611 73.523,117.821 74.040,117.429 74.233 C 117.036 74.425,116.200 74.896,115.571 75.278 C 114.943 75.660,114.236 76.066,114.000 76.179 C 113.764 76.293,113.469 76.556,113.343 76.764 C 113.217 76.972,112.984 77.143,112.824 77.143 C 112.664 77.143,112.097 77.475,111.565 77.882 C 111.032 78.288,110.173 78.846,109.655 79.122 C 106.365 80.878,105.283 81.494,104.480 82.068 C 103.983 82.423,102.032 83.494,100.145 84.447 C 96.664 86.204,95.401 86.885,95.143 87.143 C 94.564 87.721,88.786 90.571,88.192 90.571 C 87.955 90.571,87.719 90.668,87.667 90.786 C 87.499 91.164,82.549 93.429,81.890 93.429 C 81.655 93.429,81.383 93.557,81.286 93.714 C 81.189 93.871,80.763 94.001,80.340 94.002 C 79.917 94.003,79.244 94.175,78.843 94.384 C 77.607 95.029,75.626 95.190,65.571 95.467 C 55.281 95.751,53.562 95.819,44.286 96.310 C 26.001 97.277,13.683 98.068,6.714 98.724 C 4.200 98.960,1.661 99.151,1.071 99.148 C 0.028 99.143,0.000 99.170,0.000 100.187 C 0.000 101.210,0.012 101.221,0.566 100.720 C 1.292 100.062,9.827 99.180,22.769 98.424 C 27.480 98.149,29.592 97.933,30.069 97.677 C 30.360 97.522,31.331 97.422,32.227 97.457 C 35.300 97.574,47.000 97.104,47.571 96.841 C 47.886 96.696,54.186 96.454,61.571 96.304 C 75.780 96.016,80.723 95.640,84.143 94.586 C 85.243 94.248,86.559 93.862,87.069 93.730 C 88.082 93.467,99.595 87.861,100.286 87.294 C 100.521 87.100,102.514 86.007,104.714 84.865 C 106.914 83.723,109.036 82.569,109.429 82.302 C 109.821 82.034,110.914 81.391,111.857 80.871 C 123.629 74.383,134.475 66.436,135.470 63.570 C 136.303 61.173,135.909 61.364,141.286 60.755 C 141.757 60.702,143.493 60.564,145.143 60.449 C 146.793 60.333,149.429 60.051,151.000 59.822 C 152.571 59.593,155.496 59.326,157.500 59.230 C 159.504 59.133,161.143 58.966,161.143 58.859 C 161.143 58.751,164.311 58.579,168.183 58.476 C 172.824 58.353,175.358 58.178,175.620 57.960 C 175.919 57.712,176.194 57.711,176.736 57.958 C 177.620 58.361,182.756 58.395,183.000 58.000 C 183.113 57.817,187.188 57.714,194.286 57.714 C 201.384 57.714,205.459 57.817,205.571 58.000 C 205.836 58.429,212.759 58.349,214.261 57.900 C 216.542 57.218,188.001 56.903,173.429 57.449 M215.714 58.012 C 215.714 58.202,217.084 58.323,219.500 58.345 C 231.539 58.455,237.288 58.622,237.588 58.871 C 237.778 59.029,239.958 59.144,242.605 59.137 C 245.179 59.130,249.536 59.191,252.286 59.271 C 255.036 59.352,261.786 59.502,267.286 59.605 C 272.786 59.707,277.414 59.888,277.571 60.006 C 277.729 60.124,280.814 60.289,284.429 60.373 C 288.816 60.474,290.288 60.443,288.857 60.278 C 285.219 59.860,276.810 59.403,268.143 59.153 C 263.586 59.022,256.000 58.772,251.286 58.598 C 228.287 57.749,215.714 57.542,215.714 58.012 M291.143 60.818 C 291.143 60.954,294.004 61.159,297.500 61.274 C 300.996 61.388,303.986 61.584,304.143 61.708 C 304.300 61.832,306.100 61.999,308.143 62.078 C 310.186 62.157,311.343 62.171,310.714 62.109 C 310.086 62.046,308.286 61.804,306.714 61.571 C 301.965 60.867,291.143 60.344,291.143 60.818 M314.000 62.838 C 314.236 62.970,315.136 63.154,316.000 63.247 C 317.131 63.367,317.331 63.344,316.714 63.166 C 315.410 62.788,313.502 62.557,314.000 62.838 M221.000 75.345 C 214.686 75.553,203.205 76.292,202.427 76.540 C 201.957 76.691,200.613 77.099,199.442 77.449 C 195.600 78.594,193.538 79.727,190.915 82.134 C 190.235 82.758,189.333 83.495,188.911 83.772 C 188.489 84.049,187.371 85.089,186.429 86.083 C 185.066 87.520,178.677 93.316,176.919 94.710 C 176.718 94.869,176.204 95.325,175.777 95.722 C 175.349 96.118,173.330 97.918,171.288 99.722 C 169.246 101.525,167.189 103.345,166.716 103.766 C 166.244 104.188,165.408 104.835,164.859 105.205 C 163.718 105.974,163.422 106.781,164.193 107.022 C 164.480 107.111,164.938 107.304,165.210 107.449 C 165.895 107.815,166.936 107.788,166.703 107.411 C 166.502 107.085,167.338 106.000,167.790 106.000 C 167.940 106.000,169.510 104.650,171.279 103.000 C 173.048 101.350,174.586 100.000,174.697 100.000 C 174.808 100.000,175.500 99.438,176.235 98.752 C 176.970 98.066,178.600 96.571,179.857 95.429 C 181.114 94.288,183.436 92.085,185.018 90.534 C 186.599 88.983,187.992 87.714,188.115 87.714 C 188.237 87.714,189.129 87.008,190.097 86.144 C 191.065 85.281,191.962 84.573,192.090 84.573 C 192.219 84.572,192.733 84.266,193.233 83.893 C 194.454 82.982,197.383 81.714,198.266 81.714 C 198.555 81.714,199.160 81.522,199.610 81.287 C 200.060 81.053,200.879 80.857,201.429 80.852 C 201.979 80.847,203.004 80.711,203.707 80.549 C 209.095 79.307,273.738 79.311,286.571 80.553 C 288.221 80.713,290.779 80.922,292.255 81.018 C 293.731 81.114,295.209 81.297,295.541 81.425 C 295.872 81.553,297.236 81.816,298.571 82.010 C 299.907 82.203,301.129 82.460,301.286 82.582 C 301.443 82.704,302.184 82.895,302.932 83.006 C 303.680 83.118,304.356 83.310,304.432 83.435 C 304.509 83.559,305.247 83.751,306.072 83.862 C 306.897 83.973,307.700 84.158,307.857 84.273 C 308.014 84.389,308.786 84.656,309.571 84.869 C 310.357 85.081,311.321 85.421,311.714 85.625 C 312.107 85.829,312.643 85.997,312.905 85.998 C 313.167 85.999,313.424 86.096,313.476 86.214 C 313.594 86.479,316.705 88.000,317.129 88.000 C 317.298 88.000,317.660 88.121,317.932 88.268 C 318.205 88.416,319.457 89.008,320.714 89.584 C 324.091 91.133,325.554 91.839,325.715 92.000 C 326.001 92.287,327.769 93.143,328.074 93.143 C 328.842 93.143,358.997 108.212,361.012 109.603 C 361.477 109.924,362.307 110.361,362.857 110.575 C 363.407 110.790,364.337 111.262,364.923 111.625 C 365.509 111.989,366.067 112.286,366.164 112.286 C 366.260 112.286,366.661 112.539,367.055 112.850 C 367.450 113.160,368.211 113.496,368.746 113.596 C 369.282 113.697,369.791 113.893,369.877 114.032 C 370.093 114.382,373.639 114.353,373.857 114.000 C 373.954 113.843,374.243 113.714,374.498 113.714 C 374.927 113.714,376.043 113.261,378.571 112.061 C 379.121 111.800,379.969 111.294,380.456 110.936 C 380.942 110.578,381.429 110.286,381.539 110.286 C 382.153 110.286,382.938 109.051,383.070 107.877 C 383.258 106.214,383.675 106.115,375.785 109.593 L 374.285 110.255 372.642 109.375 C 371.739 108.892,369.833 107.882,368.406 107.132 C 366.979 106.381,364.600 105.095,363.120 104.272 C 357.153 100.957,324.303 84.857,323.505 84.857 C 323.427 84.857,322.402 84.407,321.227 83.857 C 320.053 83.307,319.048 82.857,318.994 82.857 C 318.941 82.857,318.084 82.487,317.091 82.035 C 309.671 78.655,297.788 76.412,285.067 75.989 C 280.703 75.843,274.660 75.595,271.638 75.437 C 266.836 75.185,228.006 75.114,221.000 75.345 M0.018 117.286 C 0.016 125.300,0.133 132.371,0.280 133.000 C 0.426 133.629,0.684 135.943,0.853 138.143 C 1.022 140.343,1.287 142.786,1.443 143.571 C 1.599 144.357,1.855 146.350,2.011 148.000 C 2.627 154.497,3.922 164.191,4.283 165.000 C 4.423 165.314,4.617 165.977,4.714 166.472 C 5.062 168.250,7.302 171.429,8.208 171.429 C 8.369 171.429,8.650 171.608,8.832 171.827 C 9.014 172.047,9.641 172.315,10.224 172.424 C 10.808 172.533,11.414 172.721,11.571 172.840 C 11.994 173.163,16.236 173.942,20.143 174.416 C 22.029 174.645,25.243 175.083,27.286 175.390 C 29.329 175.698,32.175 176.040,33.610 176.152 C 36.147 176.349,37.429 176.727,36.643 177.046 C 36.446 177.125,36.286 177.320,36.286 177.478 C 36.286 177.636,35.579 178.558,34.716 179.526 C 33.852 180.494,33.145 181.427,33.144 181.599 C 33.143 181.771,32.895 182.136,32.592 182.410 C 32.288 182.685,31.832 183.347,31.578 183.883 C 31.324 184.419,30.994 184.857,30.844 184.857 C 30.694 184.857,30.571 184.980,30.571 185.130 C 30.571 185.405,29.835 186.599,28.365 188.710 C 24.680 194.000,23.593 200.286,26.363 200.286 C 26.616 200.286,26.903 200.414,27.000 200.571 C 27.103 200.737,28.755 200.862,30.945 200.870 C 39.281 200.898,45.849 201.536,46.900 202.421 C 48.861 204.071,53.651 202.410,53.706 200.062 C 53.717 199.587,64.700 188.571,65.162 188.571 C 65.355 188.571,66.062 188.121,66.733 187.571 C 67.404 187.021,68.082 186.571,68.239 186.571 C 68.395 186.571,68.567 186.475,68.619 186.357 C 68.734 186.097,71.050 184.571,71.329 184.571 C 71.437 184.571,71.733 184.384,71.986 184.156 C 72.694 183.515,77.348 181.205,78.373 180.986 C 78.875 180.879,79.414 180.692,79.571 180.571 C 79.729 180.451,80.303 180.256,80.848 180.140 C 81.393 180.023,82.035 179.817,82.276 179.681 C 82.819 179.377,86.063 178.721,92.172 177.680 C 94.141 177.345,103.537 177.285,104.054 177.605 C 104.239 177.719,105.363 177.973,106.552 178.169 C 109.497 178.653,112.938 179.442,113.286 179.712 C 113.443 179.834,114.021 180.028,114.571 180.143 C 115.121 180.258,115.700 180.451,115.857 180.571 C 116.014 180.692,116.561 180.881,117.071 180.990 C 117.582 181.099,118.000 181.307,118.000 181.451 C 118.000 181.596,118.213 181.714,118.472 181.714 C 119.149 181.714,122.000 183.107,122.000 183.437 C 122.000 183.589,122.139 183.714,122.309 183.714 C 122.479 183.714,123.167 184.164,123.838 184.714 C 124.510 185.264,125.174 185.715,125.315 185.716 C 125.456 185.716,126.363 186.423,127.332 187.287 C 128.300 188.151,129.201 188.857,129.336 188.857 C 129.653 188.857,136.857 196.075,136.857 196.393 C 136.857 196.526,137.371 197.249,138.000 198.000 C 138.629 198.751,139.143 199.508,139.143 199.683 C 139.143 199.857,139.275 200.000,139.436 200.000 C 139.597 200.000,139.863 200.289,140.027 200.643 C 140.498 201.657,141.323 203.100,141.674 203.523 C 142.092 204.026,143.706 207.210,143.711 207.540 C 143.713 207.680,143.989 208.387,144.325 209.112 C 144.660 209.836,145.039 210.686,145.166 211.000 C 145.293 211.314,145.647 212.150,145.952 212.857 C 146.257 213.564,146.596 214.562,146.705 215.074 C 146.885 215.917,147.360 217.116,147.982 218.295 C 148.109 218.536,148.309 219.179,148.425 219.724 C 148.542 220.269,148.730 220.843,148.843 221.000 C 148.956 221.157,149.213 222.057,149.413 223.000 C 149.614 223.943,149.880 224.843,150.005 225.000 C 150.130 225.157,150.323 225.898,150.435 226.646 C 150.546 227.395,150.751 228.077,150.890 228.163 C 151.029 228.249,151.143 228.552,151.143 228.835 C 151.143 230.945,155.163 231.732,157.071 229.996 C 157.582 229.531,158.000 229.026,158.000 228.872 C 158.000 228.485,160.518 227.776,162.649 227.564 C 163.628 227.467,164.686 227.269,165.000 227.125 C 165.314 226.981,166.471 226.735,167.571 226.579 C 174.797 225.554,176.000 225.119,176.000 223.528 L 176.000 222.787 183.929 222.969 C 188.289 223.070,193.014 223.278,194.429 223.432 C 196.460 223.653,211.547 224.221,218.571 224.341 C 220.409 224.373,222.452 223.834,223.153 223.133 C 223.962 222.323,224.442 219.612,223.693 220.080 C 223.331 220.306,222.461 220.297,220.526 220.049 C 219.058 219.861,213.679 219.579,208.571 219.423 C 203.464 219.266,196.329 219.013,192.714 218.861 C 189.100 218.708,184.495 218.581,182.481 218.577 C 177.765 218.570,177.715 218.542,177.712 215.919 C 177.677 188.836,169.071 165.418,155.446 155.332 C 154.572 154.685,153.218 153.594,152.436 152.906 C 139.496 141.518,113.357 134.272,96.571 137.419 C 95.550 137.611,92.979 138.085,90.857 138.473 C 82.037 140.084,71.935 144.379,66.116 148.990 C 65.316 149.624,63.580 150.979,62.259 152.000 C 56.405 156.526,53.752 159.119,50.851 163.144 C 50.002 164.322,48.660 166.121,47.868 167.143 C 47.076 168.164,45.943 169.721,45.350 170.602 C 43.953 172.678,43.612 172.811,40.757 172.392 C 39.477 172.204,36.564 171.841,34.286 171.585 C 30.380 171.147,28.916 170.956,20.863 169.836 C 10.337 168.372,9.614 167.210,7.451 148.286 C 7.137 145.536,6.616 140.971,6.294 138.143 C 5.743 133.309,5.406 130.507,4.421 122.571 C 4.197 120.764,3.876 118.064,3.708 116.571 C 3.339 113.294,3.006 111.757,1.975 108.571 C 1.543 107.236,1.100 105.693,0.990 105.143 C 0.153 100.962,0.023 102.592,0.018 117.286 M236.571 109.730 C 233.891 110.066,231.429 110.621,231.429 110.888 C 231.429 111.028,231.245 111.143,231.021 111.143 C 229.394 111.143,228.681 117.791,230.143 119.331 C 231.322 120.573,239.878 121.121,247.371 120.435 C 253.085 119.912,254.125 119.589,254.392 118.254 C 254.855 115.938,255.781 116.145,244.876 116.122 C 233.844 116.099,234.286 116.193,234.286 113.872 C 234.286 111.412,235.832 110.615,241.604 110.095 L 243.351 109.938 243.661 110.826 C 244.066 111.989,244.940 112.003,245.617 110.857 C 246.096 110.046,246.221 110.000,247.966 110.000 C 248.980 110.000,249.737 109.928,249.649 109.839 C 249.406 109.596,238.370 109.504,236.571 109.730 M236.003 113.282 C 235.454 113.944,235.879 115.143,236.663 115.143 C 237.911 115.143,238.434 113.964,237.500 113.255 C 236.843 112.756,236.433 112.763,236.003 113.282 M223.997 123.940 C 221.918 124.528,221.936 124.469,221.122 133.429 C 220.958 135.236,220.702 137.871,220.554 139.286 C 219.861 145.913,219.680 150.512,219.960 154.429 C 220.263 158.659,221.323 169.079,221.573 170.286 C 221.654 170.679,221.848 172.286,222.002 173.857 C 222.783 181.788,224.283 192.733,225.547 199.714 C 225.789 201.050,226.180 203.364,226.417 204.857 C 226.653 206.350,226.967 207.778,227.114 208.029 C 227.261 208.281,227.472 209.117,227.584 209.887 C 227.695 210.656,227.884 211.414,228.004 211.571 C 228.123 211.729,228.314 212.436,228.429 213.143 C 228.543 213.850,228.736 214.557,228.858 214.714 C 228.981 214.871,229.237 215.771,229.429 216.714 C 229.620 217.657,229.874 218.557,229.994 218.714 C 230.113 218.871,230.296 219.469,230.399 220.043 C 231.107 223.977,227.288 223.670,278.000 223.872 C 301.336 223.966,321.071 224.153,321.857 224.290 C 322.643 224.426,338.866 224.577,357.910 224.626 L 392.533 224.714 393.390 223.894 C 393.923 223.383,394.318 222.654,394.434 221.965 C 394.537 221.356,394.739 220.857,394.882 220.857 C 395.026 220.857,395.128 220.568,395.110 220.214 C 395.086 219.761,395.039 219.713,394.950 220.053 C 394.809 220.583,393.443 220.991,392.649 220.739 C 391.946 220.516,289.330 219.431,268.832 219.430 C 238.157 219.428,235.937 219.298,235.554 217.480 C 235.465 217.059,235.150 215.943,234.854 215.000 C 234.152 212.769,231.858 203.606,231.313 200.857 C 230.143 194.957,228.079 181.024,227.291 173.714 C 226.414 165.570,225.994 161.799,225.524 157.857 C 224.793 151.730,224.924 145.132,225.971 135.185 C 226.457 130.573,226.785 126.685,226.699 126.547 C 226.614 126.409,226.629 125.843,226.732 125.291 L 226.921 124.286 238.444 124.286 C 245.762 124.286,250.030 124.389,250.142 124.569 C 250.252 124.748,254.202 124.864,260.801 124.882 C 266.568 124.898,277.586 125.032,285.286 125.181 C 292.986 125.329,302.629 125.495,306.714 125.548 C 310.800 125.602,320.571 125.796,328.429 125.980 C 337.508 126.192,343.183 126.216,344.000 126.046 C 344.987 125.839,343.890 125.761,339.286 125.708 C 335.986 125.671,328.207 125.539,322.000 125.415 C 315.793 125.292,303.064 125.056,293.714 124.892 C 284.364 124.728,272.729 124.464,267.857 124.304 C 256.557 123.935,224.942 123.672,223.997 123.940 M348.143 126.206 C 349.400 126.256,350.621 126.369,350.857 126.457 C 351.500 126.698,376.713 126.556,378.857 126.300 C 379.879 126.178,372.871 126.086,363.286 126.097 C 353.700 126.107,346.886 126.156,348.143 126.206 M350.106 129.399 C 347.930 129.771,344.806 132.789,345.290 134.052 C 345.481 134.549,346.571 135.243,346.571 134.867 C 346.571 134.345,349.134 133.381,350.011 133.574 C 354.489 134.557,354.505 136.994,350.036 137.173 C 349.374 137.199,349.409 137.241,350.334 137.530 C 350.910 137.710,351.478 137.954,351.596 138.071 C 352.131 138.608,357.047 137.547,358.098 136.668 C 360.720 134.477,360.791 133.948,358.713 132.049 C 356.377 129.913,353.066 128.894,350.106 129.399 M236.099 136.749 C 234.724 137.468,234.432 138.229,234.856 139.994 L 235.209 141.468 236.390 141.285 C 237.040 141.185,238.321 140.919,239.237 140.694 C 241.481 140.144,250.116 140.126,251.159 140.670 C 254.218 142.267,255.508 142.104,255.889 140.072 C 256.171 138.570,255.433 137.255,254.084 136.857 C 252.116 136.277,237.173 136.187,236.099 136.749 M112.286 141.672 C 115.168 142.027,119.812 143.017,120.639 143.453 C 120.912 143.597,121.391 143.714,121.704 143.714 C 122.302 143.714,126.399 144.981,127.152 145.399 C 127.393 145.532,128.032 145.739,128.571 145.857 C 129.596 146.082,129.818 146.169,131.380 146.952 C 131.904 147.214,132.458 147.429,132.613 147.429 C 132.915 147.429,136.050 148.893,136.286 149.145 C 136.364 149.229,136.750 149.460,137.143 149.659 C 139.374 150.789,140.878 151.663,141.790 152.358 C 142.356 152.790,142.926 153.143,143.058 153.143 C 143.287 153.143,145.656 154.959,146.595 155.854 C 146.844 156.092,147.149 156.286,147.271 156.286 C 147.394 156.286,148.259 156.993,149.192 157.857 C 150.126 158.721,151.040 159.429,151.223 159.429 C 151.621 159.429,155.429 163.152,155.429 163.541 C 155.429 163.690,156.264 164.677,157.286 165.735 C 158.307 166.793,159.143 167.853,159.143 168.091 C 159.143 168.329,159.239 168.567,159.357 168.619 C 160.282 169.030,166.273 179.962,166.721 182.055 C 166.832 182.575,167.022 183.129,167.143 183.286 C 167.264 183.443,167.454 183.998,167.565 184.519 C 167.677 185.041,167.948 185.812,168.168 186.234 C 168.388 186.655,168.569 187.199,168.570 187.443 C 168.571 187.686,168.680 188.008,168.814 188.157 C 168.947 188.306,169.212 189.340,169.403 190.453 C 169.593 191.567,169.929 192.981,170.148 193.596 C 170.367 194.211,170.552 195.205,170.559 195.804 C 170.566 196.404,170.696 197.128,170.849 197.412 C 171.078 197.842,171.514 201.222,171.864 205.286 C 171.925 205.997,172.663 208.968,173.992 213.857 C 174.121 214.329,174.428 215.293,174.676 216.000 C 176.581 221.433,176.570 221.713,174.469 221.716 C 173.661 221.717,171.200 222.043,169.000 222.440 C 166.800 222.837,164.229 223.292,163.286 223.451 C 159.626 224.069,158.620 224.547,157.795 226.064 C 156.784 227.921,156.627 227.771,155.676 224.044 C 153.570 215.793,149.094 204.252,145.919 198.886 C 141.077 190.706,129.930 180.467,122.465 177.342 C 111.829 172.889,99.258 171.920,87.000 174.608 C 83.729 175.325,77.105 177.564,75.429 178.519 C 66.848 183.406,60.449 188.755,55.199 195.429 C 53.901 197.079,52.709 198.589,52.551 198.786 C 52.064 199.390,51.510 199.186,50.919 198.183 L 50.353 197.224 45.534 197.044 C 42.883 196.945,38.529 196.784,35.857 196.687 C 32.457 196.563,30.810 196.391,30.366 196.112 L 29.733 195.713 31.134 192.847 C 36.442 181.993,47.326 169.757,55.919 164.984 C 56.671 164.567,58.057 163.677,59.000 163.008 C 61.037 161.561,64.565 159.758,67.143 158.846 C 68.164 158.485,69.129 158.098,69.286 157.987 C 69.443 157.876,70.793 157.437,72.286 157.012 C 73.779 156.587,75.514 156.069,76.143 155.862 C 76.771 155.655,78.121 155.262,79.143 154.988 C 80.164 154.715,81.836 154.255,82.857 153.967 C 85.401 153.249,90.971 152.571,94.328 152.571 C 95.874 152.571,97.188 152.445,97.286 152.286 C 97.383 152.129,98.451 151.987,99.660 151.971 C 101.692 151.945,101.771 151.922,100.714 151.670 C 100.086 151.520,98.800 151.453,97.857 151.521 C 96.914 151.589,93.829 151.797,91.000 151.983 C 83.740 152.460,78.859 153.117,77.857 153.753 C 77.700 153.852,76.998 154.029,76.297 154.145 C 75.596 154.261,74.824 154.458,74.582 154.582 C 74.341 154.705,73.398 154.969,72.487 155.166 C 71.576 155.364,70.767 155.629,70.689 155.755 C 70.612 155.881,69.910 156.068,69.131 156.171 C 68.352 156.275,67.714 156.457,67.714 156.576 C 67.714 156.696,67.232 156.884,66.643 156.994 C 66.054 157.104,65.443 157.294,65.286 157.417 C 65.129 157.540,64.486 157.796,63.857 157.987 C 63.229 158.179,62.309 158.517,61.814 158.739 C 61.319 158.961,60.719 159.143,60.481 159.143 C 60.242 159.143,60.005 159.239,59.952 159.357 C 59.854 159.578,56.756 161.143,56.416 161.143 C 56.311 161.143,55.724 161.539,55.113 162.024 C 54.501 162.509,54.000 162.794,54.000 162.658 C 54.000 162.346,57.221 159.143,57.534 159.143 C 57.661 159.143,58.558 158.436,59.526 157.573 C 60.494 156.709,61.390 156.002,61.518 156.001 C 61.646 156.001,62.096 155.677,62.518 155.281 C 62.940 154.886,63.993 154.022,64.857 153.360 C 65.721 152.698,66.493 152.087,66.571 152.001 C 66.650 151.916,67.036 151.685,67.429 151.489 C 67.821 151.292,68.657 150.825,69.286 150.450 C 69.914 150.075,70.750 149.581,71.143 149.353 C 72.024 148.842,74.397 147.660,76.857 146.508 C 77.879 146.029,78.911 145.543,79.152 145.427 C 79.393 145.310,80.036 145.122,80.581 145.008 C 81.126 144.894,81.830 144.638,82.147 144.438 C 83.159 143.800,87.820 142.812,93.644 142.002 C 95.726 141.713,97.591 141.408,97.787 141.326 C 98.416 141.062,109.478 141.326,112.286 141.672 M104.429 152.286 C 104.531 152.451,105.835 152.553,107.517 152.528 C 110.347 152.486,110.376 152.478,108.571 152.276 C 105.737 151.957,104.228 151.961,104.429 152.286 M111.071 152.773 C 111.425 152.841,112.004 152.841,112.357 152.773 C 112.711 152.705,112.421 152.649,111.714 152.649 C 111.007 152.649,110.718 152.705,111.071 152.773 M397.020 211.878 C 396.915 212.296,396.884 212.694,396.952 212.761 C 397.019 212.829,397.160 212.541,397.265 212.122 C 397.370 211.704,397.401 211.306,397.334 211.239 C 397.267 211.171,397.125 211.459,397.020 211.878 " stroke="none" fill="#111111" fill-rule="evenodd"></path></g></svg>