<svg id="svg" version="1.1" xmlns="http://www.w3.org/2000/svg" xmlns:xlink="http://www.w3.org/1999/xlink" width="400" height="400" viewBox="0, 0, 400,400"><g id="svgg"><path id="path0" d="M185.800 109.247 C 125.928 113.408,83.769 149.906,89.752 192.400 C 90.521 197.861,92.737 206.366,93.656 207.380 C 93.845 207.589,94.000 208.012,94.000 208.320 C 94.000 208.627,94.279 209.468,94.621 210.187 C 95.201 211.410,95.177 211.727,94.252 215.048 C 91.009 226.691,91.526 241.029,95.559 251.326 C 95.802 251.945,96.000 252.815,96.000 253.259 C 96.000 255.162,100.329 263.972,103.539 268.600 C 132.506 310.371,207.741 323.332,261.529 295.818 C 279.803 286.471,295.952 269.627,299.798 255.902 C 300.122 254.746,300.855 252.465,301.426 250.833 C 302.607 247.458,303.998 241.491,303.951 240.000 C 303.930 239.317,303.808 239.507,303.566 240.600 C 302.778 244.161,301.428 248.685,300.735 250.084 C 300.331 250.900,299.998 251.890,299.996 252.284 C 299.994 252.678,299.559 253.930,299.030 255.067 C 298.500 256.204,298.182 257.249,298.322 257.389 C 298.462 257.529,298.388 257.769,298.158 257.922 C 297.928 258.075,296.989 259.591,296.073 261.292 C 293.412 266.231,289.756 270.929,284.904 275.647 C 246.733 312.757,173.478 316.695,127.200 284.123 C 121.403 280.042,114.493 273.521,110.964 268.800 C 109.566 266.930,108.237 265.183,108.011 264.917 C 107.785 264.651,107.600 264.268,107.600 264.066 C 107.600 263.864,107.342 263.484,107.026 263.222 C 106.711 262.960,105.920 261.723,105.268 260.473 C 104.616 259.223,103.797 257.660,103.448 257.000 C 102.085 254.425,100.800 251.131,100.800 250.214 C 100.800 249.685,100.602 248.745,100.359 248.126 C 97.608 241.103,96.328 230.248,97.396 223.000 C 98.136 217.983,99.804 211.465,100.399 211.267 C 100.919 211.094,100.919 209.721,100.400 209.400 C 100.180 209.264,100.000 208.713,100.000 208.176 C 100.000 207.639,99.823 207.200,99.608 207.200 C 99.392 207.200,99.107 206.705,98.974 206.100 C 98.757 205.110,98.090 203.437,97.141 201.505 C 96.954 201.123,96.798 200.403,96.795 199.905 C 96.792 199.407,96.453 197.920,96.042 196.600 C 93.775 189.325,93.540 179.746,95.423 171.341 C 105.489 126.407,172.522 98.845,235.838 113.609 C 237.750 114.055,239.388 114.345,239.479 114.254 C 239.657 114.077,232.654 112.436,227.400 111.423 C 215.517 109.133,199.501 108.295,185.800 109.247 M241.800 115.200 C 242.240 115.389,242.870 115.544,243.200 115.544 C 243.578 115.544,243.504 115.417,243.000 115.200 C 242.560 115.011,241.930 114.856,241.600 114.856 C 241.222 114.856,241.296 114.983,241.800 115.200 M245.968 116.428 C 247.160 116.851,248.205 117.128,248.290 117.044 C 248.476 116.857,244.833 115.588,244.229 115.629 C 243.993 115.645,244.776 116.005,245.968 116.428 M192.248 171.022 C 180.032 173.449,169.872 181.991,170.026 189.704 C 170.051 190.932,170.095 190.891,170.864 188.941 C 179.371 167.371,225.898 171.095,226.736 193.413 L 226.871 197.026 224.827 200.084 C 219.591 207.911,211.143 211.758,199.128 211.786 C 194.760 211.796,193.061 211.921,193.528 212.200 C 194.708 212.902,208.197 212.654,211.345 211.872 C 236.071 205.731,239.587 182.753,217.254 173.250 C 210.977 170.579,199.585 169.564,192.248 171.022 M306.627 192.977 C 306.240 195.537,302.206 207.725,301.088 209.714 C 300.287 211.138,300.733 212.741,301.635 211.683 C 302.795 210.324,307.534 192.784,307.092 191.485 C 307.001 191.218,306.792 191.890,306.627 192.977 M181.200 208.231 C 181.200 208.501,183.278 209.256,183.476 209.057 C 183.567 208.967,183.092 208.701,182.420 208.467 C 181.749 208.233,181.200 208.127,181.200 208.231 M184.800 209.756 C 184.800 210.132,190.254 211.601,191.443 211.546 C 192.514 211.495,192.526 211.479,191.600 211.324 C 190.738 211.180,187.814 210.426,185.500 209.750 C 185.115 209.638,184.800 209.641,184.800 209.756 " stroke="none" fill="#090909" fill-rule="evenodd"></path><path id="path1" d="M191.200 109.873 C 128.832 113.407,83.105 155.083,96.042 196.600 C 96.453 197.920,96.792 199.407,96.795 199.905 C 96.798 200.403,96.954 201.123,97.141 201.505 C 98.090 203.437,98.757 205.110,98.974 206.100 C 99.107 206.705,99.392 207.200,99.608 207.200 C 99.823 207.200,100.000 207.639,100.000 208.176 C 100.000 208.713,100.180 209.264,100.400 209.400 C 100.919 209.721,100.919 211.094,100.399 211.267 C 99.804 211.465,98.136 217.983,97.396 223.000 C 96.328 230.248,97.608 241.103,100.359 248.126 C 100.602 248.745,100.800 249.685,100.800 250.214 C 100.800 251.131,102.085 254.425,103.448 257.000 C 103.797 257.660,104.616 259.223,105.268 260.473 C 105.920 261.723,106.711 262.960,107.026 263.222 C 107.342 263.484,107.600 263.864,107.600 264.066 C 107.600 264.268,107.785 264.651,108.011 264.917 C 108.237 265.183,109.566 266.930,110.964 268.800 C 130.822 295.367,176.477 310.583,219.519 304.980 C 253.829 300.514,284.314 283.117,296.073 261.292 C 296.989 259.591,297.928 258.075,298.158 257.922 C 298.388 257.769,298.462 257.529,298.322 257.389 C 298.182 257.249,298.500 256.204,299.030 255.067 C 299.559 253.930,299.994 252.676,299.996 252.280 C 299.998 251.884,300.289 251.002,300.641 250.320 C 302.769 246.205,304.548 236.906,304.527 230.000 C 304.506 222.564,302.511 212.549,300.868 211.630 C 300.278 211.300,300.298 211.120,301.083 209.723 C 304.227 204.128,307.600 190.299,307.600 183.000 C 307.600 139.827,254.235 106.300,191.200 109.873 M210.391 171.198 C 238.394 176.905,239.515 204.543,212.032 211.652 C 208.336 212.608,199.261 213.051,195.800 212.446 C 194.480 212.215,192.770 211.921,192.000 211.794 C 169.506 208.067,162.341 187.683,179.400 175.948 C 186.481 171.078,199.789 169.038,210.391 171.198 " stroke="none" fill="#fbfbfb" fill-rule="evenodd"></path></g></svg>