<svg id="svg" version="1.1" xmlns="http://www.w3.org/2000/svg" xmlns:xlink="http://www.w3.org/1999/xlink" width="400" height="502.4154589371981" viewBox="0, 0, 400,502.4154589371981"><g id="svgg"><path id="path0" d="M101.600 0.400 C 101.600 0.625,100.483 0.800,99.050 0.800 C 95.518 0.800,93.932 1.174,93.700 2.061 C 93.550 2.636,93.123 2.800,91.779 2.800 C 89.616 2.800,88.000 3.394,88.000 4.190 C 88.000 4.630,87.574 4.800,86.468 4.800 C 85.251 4.800,84.827 5.002,84.411 5.780 C 84.123 6.318,83.507 6.813,83.043 6.880 C 82.521 6.954,82.151 7.343,82.072 7.900 C 81.975 8.585,81.664 8.812,80.772 8.850 C 78.773 8.935,78.601 8.985,78.550 9.500 C 78.523 9.775,78.478 10.180,78.450 10.400 C 78.423 10.620,77.950 10.800,77.400 10.800 C 76.679 10.800,76.400 11.015,76.400 11.572 C 76.400 12.068,76.078 12.390,75.500 12.472 C 74.930 12.553,74.554 12.921,74.475 13.475 C 74.398 14.021,74.021 14.398,73.475 14.475 C 72.921 14.554,72.553 14.930,72.472 15.500 C 72.374 16.193,72.082 16.400,71.205 16.400 C 69.545 16.400,68.800 16.785,68.800 17.643 C 68.800 18.059,68.620 18.422,68.400 18.450 C 68.180 18.478,67.792 18.523,67.538 18.550 C 67.284 18.578,67.028 18.931,66.968 19.337 C 66.833 20.258,66.658 20.433,65.737 20.568 C 65.331 20.628,64.978 20.884,64.950 21.138 C 64.922 21.392,64.877 21.780,64.850 22.000 C 64.823 22.220,64.459 22.400,64.043 22.400 C 63.256 22.400,62.631 23.402,63.022 24.036 C 63.146 24.236,62.787 24.400,62.224 24.400 C 61.661 24.400,61.173 24.625,61.139 24.900 C 61.106 25.175,61.036 25.580,60.985 25.800 C 60.934 26.020,60.872 26.592,60.846 27.072 C 60.815 27.654,60.500 27.987,59.900 28.072 C 59.322 28.154,58.954 28.522,58.872 29.100 C 58.790 29.678,58.468 30.000,57.972 30.000 C 57.415 30.000,57.200 30.279,57.200 31.000 C 57.200 31.800,57.000 32.000,56.200 32.000 C 55.408 32.000,55.200 32.202,55.200 32.972 C 55.200 33.676,54.951 33.980,54.300 34.072 C 53.383 34.202,53.337 34.303,53.250 36.400 C 53.208 37.400,53.033 37.600,52.200 37.600 C 51.400 37.600,51.200 37.800,51.200 38.600 C 51.200 39.313,50.984 39.600,50.447 39.600 C 49.653 39.600,49.215 40.615,49.205 42.472 C 49.201 43.277,48.976 43.576,48.300 43.672 C 47.737 43.752,47.354 44.121,47.278 44.659 C 47.210 45.132,46.805 45.610,46.378 45.722 C 45.767 45.881,45.600 46.277,45.600 47.563 C 45.600 49.042,45.504 49.200,44.600 49.200 C 43.667 49.200,43.600 49.333,43.600 51.200 C 43.600 53.067,43.533 53.200,42.600 53.200 C 41.800 53.200,41.600 53.400,41.600 54.200 C 41.600 55.095,41.398 55.280,40.545 55.166 C 40.033 55.097,39.612 56.235,39.606 57.700 C 39.601 58.903,39.450 59.200,38.843 59.200 C 37.988 59.200,37.600 59.944,37.600 61.586 C 37.600 62.340,37.358 62.770,36.861 62.900 C 36.058 63.110,35.600 64.691,35.600 67.250 C 35.600 68.533,35.462 68.800,34.800 68.800 C 34.119 68.800,34.000 69.067,34.000 70.600 C 34.000 72.253,33.919 72.400,33.000 72.400 C 32.069 72.400,32.000 72.535,32.000 74.372 C 32.000 76.113,31.894 76.359,31.100 76.472 C 30.332 76.581,30.182 76.879,30.078 78.500 C 29.980 80.033,29.814 80.400,29.221 80.400 C 28.272 80.400,28.000 81.165,28.000 83.833 C 28.000 85.693,27.893 86.000,27.243 86.000 C 26.259 86.000,26.000 86.750,26.000 89.605 C 26.000 91.726,25.916 91.956,25.100 92.072 C 24.354 92.178,24.179 92.487,24.078 93.880 C 23.987 95.128,23.756 95.624,23.178 95.807 C 22.506 96.020,22.400 96.431,22.400 98.827 C 22.400 100.376,22.223 101.622,22.000 101.650 C 21.780 101.678,21.375 101.723,21.100 101.750 C 20.517 101.808,20.515 101.819,20.450 106.000 C 20.401 109.118,20.375 109.200,19.418 109.200 C 18.475 109.200,18.430 109.319,18.318 112.100 C 18.210 114.761,18.126 115.011,17.300 115.128 C 16.466 115.246,16.400 115.458,16.400 118.028 C 16.400 120.245,16.278 120.800,15.790 120.800 C 14.886 120.800,14.400 122.501,14.400 125.663 C 14.400 128.076,14.294 128.503,13.650 128.671 C 12.783 128.898,12.400 130.906,12.400 135.229 C 12.400 137.595,12.297 137.979,11.600 138.200 C 10.874 138.430,10.800 138.805,10.800 142.227 C 10.800 144.442,10.635 146.021,10.400 146.050 C 10.180 146.078,9.775 146.123,9.500 146.150 C 8.891 146.211,8.911 146.014,8.850 152.400 L 8.800 157.600 7.800 157.600 L 6.800 157.600 6.800 163.400 L 6.800 169.200 5.800 169.200 L 4.800 169.200 4.800 176.000 C 4.800 182.405,4.756 182.800,4.043 182.800 C 2.877 182.800,2.800 183.433,2.800 193.033 C 2.800 200.802,2.718 202.000,2.190 202.000 C 0.949 202.000,0.800 204.087,0.800 221.426 C 0.800 232.742,0.661 238.800,0.400 238.800 C 0.142 238.800,0.000 243.200,0.000 251.200 C 0.000 259.200,0.142 263.600,0.400 263.600 C 0.660 263.600,0.802 269.436,0.804 280.300 C 0.809 298.319,0.914 300.000,2.053 300.298 C 2.728 300.474,2.793 301.142,2.892 308.945 C 2.998 317.254,3.015 317.407,3.891 317.791 C 4.751 318.168,4.785 318.398,4.891 324.591 C 4.998 330.874,5.017 331.002,5.890 331.127 C 6.765 331.251,6.783 331.370,6.890 337.927 C 6.998 344.476,7.016 344.602,7.888 344.726 C 8.739 344.847,8.780 345.043,8.888 349.526 C 8.996 354.029,9.033 354.205,9.900 354.328 C 10.775 354.452,10.800 354.585,10.800 359.181 C 10.800 363.570,10.857 363.922,11.600 364.116 C 12.312 364.302,12.400 364.662,12.400 367.389 C 12.400 370.582,12.830 372.000,13.799 372.000 C 14.244 372.000,14.395 372.815,14.485 375.700 C 14.594 379.192,14.651 379.407,15.500 379.528 C 16.357 379.650,16.400 379.828,16.400 383.236 C 16.400 386.651,16.446 386.838,17.383 387.265 C 18.262 387.666,18.378 387.992,18.483 390.356 C 18.588 392.736,18.688 393.013,19.483 393.126 C 20.287 393.240,20.376 393.508,20.483 396.126 C 20.590 398.760,20.675 399.011,21.500 399.128 C 22.334 399.246,22.400 399.458,22.400 402.028 C 22.400 404.512,22.481 404.800,23.182 404.800 C 23.868 404.800,23.978 405.128,24.082 407.500 C 24.184 409.841,24.317 410.252,25.083 410.588 C 25.832 410.916,25.984 411.343,26.083 413.388 C 26.182 415.430,26.335 415.859,27.082 416.187 C 27.773 416.490,27.989 416.966,28.082 418.387 C 28.182 419.919,28.339 420.220,29.100 420.328 C 29.900 420.441,30.006 420.698,30.050 422.628 C 30.123 425.782,30.128 425.800,31.001 425.800 C 31.666 425.800,31.833 426.134,32.000 427.800 C 32.170 429.496,32.337 429.819,33.100 429.928 C 33.882 430.039,34.000 430.293,34.000 431.865 C 34.000 433.338,34.149 433.714,34.800 433.884 C 35.360 434.031,35.600 434.430,35.600 435.214 C 35.600 436.845,35.986 437.600,36.821 437.600 C 37.414 437.600,37.580 437.967,37.678 439.500 C 37.781 441.106,37.936 441.419,38.678 441.525 C 39.399 441.627,39.578 441.951,39.678 443.325 C 39.778 444.700,39.958 445.022,40.679 445.125 C 41.421 445.231,41.577 445.544,41.679 447.125 C 41.782 448.721,41.934 449.019,42.700 449.128 C 43.524 449.245,43.907 450.575,43.661 452.460 C 43.642 452.603,44.071 452.831,44.613 452.968 C 45.266 453.131,45.600 453.497,45.600 454.045 C 45.600 454.538,45.924 454.960,46.400 455.084 C 46.925 455.221,47.200 455.630,47.200 456.273 C 47.200 457.573,47.887 458.800,48.614 458.800 C 48.972 458.800,49.200 459.188,49.200 459.800 C 49.200 460.594,49.401 460.800,50.178 460.800 C 51.061 460.800,51.168 460.985,51.278 462.700 C 51.381 464.304,51.536 464.619,52.275 464.725 C 52.821 464.802,53.198 465.179,53.275 465.725 C 53.354 466.279,53.730 466.647,54.300 466.728 C 55.079 466.838,55.200 467.095,55.200 468.628 C 55.200 470.251,55.284 470.400,56.200 470.400 C 56.948 470.400,57.200 470.611,57.200 471.237 C 57.200 471.730,57.520 472.159,57.978 472.278 C 58.405 472.390,58.810 472.868,58.878 473.341 C 58.953 473.870,59.336 474.248,59.875 474.325 C 60.421 474.402,60.798 474.779,60.875 475.325 C 60.954 475.879,61.330 476.247,61.900 476.328 C 62.635 476.432,62.800 476.709,62.800 477.836 C 62.800 478.913,63.016 479.315,63.779 479.663 C 64.318 479.909,64.813 480.490,64.879 480.955 C 64.954 481.479,65.342 481.849,65.900 481.928 C 66.712 482.043,66.984 482.437,66.847 483.300 C 66.802 483.585,66.936 483.634,68.100 483.750 C 68.375 483.777,68.655 484.187,68.722 484.659 C 68.845 485.519,69.804 485.984,71.472 485.995 C 72.070 485.998,72.385 486.283,72.472 486.900 C 72.553 487.470,72.921 487.846,73.475 487.925 C 74.021 488.002,74.398 488.379,74.475 488.925 C 74.552 489.464,74.930 489.847,75.459 489.922 C 75.932 489.990,76.410 490.395,76.522 490.822 C 76.686 491.450,77.079 491.600,78.563 491.600 C 80.256 491.600,80.400 491.678,80.400 492.600 C 80.400 493.388,80.603 493.600,81.357 493.600 C 82.043 493.600,82.384 493.882,82.564 494.600 C 82.779 495.457,83.043 495.600,84.408 495.600 C 85.283 495.600,86.023 495.780,86.050 496.000 C 86.078 496.220,86.123 496.625,86.150 496.900 C 86.180 497.203,86.947 497.448,88.100 497.522 C 89.837 497.633,90.146 497.833,89.923 498.700 C 89.823 499.085,91.723 499.492,93.900 499.553 C 95.285 499.591,95.600 499.740,95.600 500.357 C 95.600 501.343,96.350 501.600,99.233 501.600 C 100.544 501.600,101.600 501.778,101.600 502.000 C 101.600 502.254,104.733 502.400,110.200 502.400 C 115.404 502.400,118.800 502.249,118.800 502.018 C 118.800 501.807,120.105 501.582,121.700 501.518 C 124.361 501.410,124.611 501.326,124.728 500.500 C 124.841 499.703,125.094 499.597,126.928 499.572 C 129.062 499.543,130.482 499.183,130.430 498.684 C 130.336 497.780,130.573 497.633,132.300 497.522 C 133.453 497.448,134.220 497.203,134.250 496.900 C 134.278 496.625,134.322 496.230,134.350 496.023 C 134.378 495.816,135.165 495.591,136.100 495.523 C 137.513 495.421,137.822 495.248,137.928 494.500 C 138.020 493.849,138.324 493.600,139.028 493.600 C 139.798 493.600,140.000 493.392,140.000 492.600 C 140.000 491.667,140.133 491.600,142.000 491.600 C 143.709 491.600,144.000 491.488,144.000 490.828 C 144.000 490.332,144.322 490.010,144.900 489.928 C 145.465 489.848,145.846 489.479,145.923 488.938 C 145.998 488.413,146.428 487.979,147.023 487.830 C 147.648 487.673,148.000 487.299,148.000 486.792 C 148.000 486.166,148.273 485.999,149.300 485.994 C 150.867 485.986,151.809 485.462,151.411 484.818 C 151.234 484.531,151.429 484.265,151.910 484.139 C 152.345 484.026,152.934 483.498,153.218 482.966 C 153.502 482.435,154.061 482.000,154.460 482.000 C 154.899 482.000,155.284 481.606,155.436 481.000 C 155.602 480.339,155.965 480.000,156.510 480.000 C 156.963 480.000,157.220 479.886,157.081 479.747 C 156.706 479.373,157.546 478.000,158.150 478.000 C 158.747 478.000,159.600 476.341,159.600 475.181 C 159.600 474.667,159.873 474.400,160.400 474.400 C 160.987 474.400,161.200 474.133,161.200 473.400 C 161.200 472.600,161.400 472.400,162.200 472.400 C 162.992 472.400,163.200 472.198,163.200 471.428 C 163.200 470.724,163.449 470.420,164.100 470.328 C 164.678 470.246,165.046 469.878,165.128 469.300 C 165.243 468.488,165.453 468.327,166.255 468.434 C 166.739 468.499,167.188 467.397,167.194 466.128 C 167.199 465.115,167.384 464.830,168.100 464.728 C 168.663 464.648,169.046 464.279,169.122 463.741 C 169.190 463.268,169.565 462.798,169.956 462.696 C 170.347 462.593,170.694 462.260,170.727 461.955 C 170.972 459.688,171.343 458.800,172.045 458.800 C 172.578 458.800,172.800 458.514,172.800 457.828 C 172.800 457.124,173.049 456.820,173.700 456.728 C 174.446 456.622,174.621 456.313,174.722 454.925 C 174.822 453.551,175.001 453.227,175.722 453.125 C 176.464 453.019,176.619 452.706,176.722 451.100 C 176.832 449.385,176.939 449.200,177.822 449.200 C 178.599 449.200,178.800 448.994,178.800 448.200 C 178.800 447.483,179.016 447.200,179.562 447.200 C 180.172 447.200,180.379 446.807,180.595 445.238 C 180.794 443.787,181.062 443.225,181.621 443.079 C 182.144 442.942,182.458 442.378,182.638 441.252 C 182.813 440.157,183.145 439.544,183.649 439.384 C 184.231 439.200,184.400 438.757,184.400 437.416 C 184.400 435.905,184.526 435.655,185.400 435.436 C 186.338 435.200,186.400 435.024,186.400 432.592 C 186.400 430.094,186.436 430.000,187.400 430.000 C 188.333 430.000,188.400 429.867,188.400 428.000 C 188.400 426.133,188.467 426.000,189.400 426.000 C 190.333 426.000,190.400 425.867,190.400 424.000 C 190.400 422.474,190.545 422.000,191.010 422.000 C 191.808 422.000,192.400 420.383,192.400 418.202 C 192.400 416.696,192.524 416.438,193.300 416.328 C 194.116 416.212,194.211 415.952,194.317 413.542 C 194.416 411.295,194.556 410.853,195.217 410.680 C 195.846 410.515,196.000 410.125,196.000 408.702 C 196.000 407.198,196.152 406.859,197.000 406.473 C 197.916 406.055,198.000 405.801,198.000 403.436 C 198.000 401.065,198.073 400.845,198.900 400.728 C 199.718 400.612,199.811 400.353,199.918 397.900 C 199.983 396.415,200.195 395.200,200.390 395.200 C 201.495 395.200,202.000 393.841,202.000 390.866 C 202.000 388.059,202.079 387.755,202.900 387.395 C 203.684 387.051,203.815 386.656,203.917 384.342 C 204.016 382.095,204.156 381.653,204.817 381.480 C 205.526 381.294,205.600 380.910,205.600 377.414 C 205.600 375.197,205.755 373.649,205.964 373.778 C 207.181 374.530,207.600 373.502,207.600 369.757 C 207.600 366.016,207.604 366.000,208.600 366.000 L 209.600 366.000 209.600 361.200 L 209.600 356.400 210.600 356.400 L 211.600 356.400 211.600 351.628 C 211.600 346.983,211.624 346.852,212.500 346.728 C 213.379 346.603,213.403 346.468,213.511 340.900 C 213.613 335.643,213.680 335.200,214.368 335.200 C 215.482 335.200,215.600 334.492,215.600 327.814 C 215.600 322.030,215.644 321.682,216.400 321.484 C 217.168 321.283,217.200 320.938,217.200 312.865 L 217.200 304.456 218.100 304.328 L 219.000 304.200 219.105 288.927 L 219.209 273.654 220.105 273.527 L 221.000 273.400 221.000 249.400 C 221.000 230.493,220.894 225.389,220.500 225.350 C 220.225 225.322,219.820 225.278,219.600 225.250 C 219.342 225.218,219.200 220.367,219.200 211.600 L 219.200 198.000 218.200 198.000 L 217.200 198.000 217.200 189.400 C 217.200 181.067,217.175 180.800,216.400 180.800 C 215.635 180.800,215.600 180.533,215.600 174.633 C 215.600 167.907,215.483 167.200,214.368 167.200 C 213.680 167.200,213.613 166.757,213.511 161.500 C 213.403 155.956,213.376 155.797,212.512 155.674 C 211.661 155.553,211.620 155.357,211.512 150.874 C 211.404 146.371,211.367 146.195,210.500 146.072 C 209.633 145.949,209.600 145.793,209.600 141.805 C 209.600 137.144,209.431 136.400,208.372 136.400 C 207.707 136.400,207.617 135.992,207.514 132.500 C 207.406 128.800,207.354 128.593,206.500 128.472 C 205.639 128.350,205.600 128.180,205.600 124.572 C 205.600 121.067,205.543 120.800,204.800 120.800 C 204.084 120.800,203.995 120.518,203.953 118.100 C 203.899 115.060,203.538 112.951,203.096 113.100 C 202.216 113.397,202.025 112.944,201.918 110.300 C 201.810 107.639,201.726 107.389,200.900 107.272 C 200.066 107.154,200.000 106.942,200.000 104.372 C 200.000 101.682,199.970 101.600,199.000 101.600 C 198.029 101.600,198.000 101.519,198.000 98.808 C 198.000 96.163,197.947 96.002,197.000 95.764 C 196.054 95.527,196.000 95.363,196.000 92.757 C 196.000 90.325,195.911 90.000,195.248 90.000 C 194.613 90.000,194.469 89.618,194.318 87.541 C 194.180 85.632,193.945 84.923,193.270 84.376 C 192.792 83.989,192.400 83.220,192.400 82.669 C 192.400 81.142,191.993 80.400,191.157 80.400 C 190.515 80.400,190.400 80.096,190.400 78.400 C 190.400 76.533,190.333 76.400,189.400 76.400 C 188.436 76.400,188.400 76.306,188.400 73.808 C 188.400 71.376,188.338 71.200,187.400 70.964 C 186.472 70.731,186.034 69.117,186.353 67.100 C 186.379 66.935,185.950 66.800,185.400 66.800 C 184.478 66.800,184.400 66.656,184.400 64.963 C 184.400 63.462,184.254 63.087,183.600 62.916 C 183.003 62.760,182.800 62.370,182.800 61.382 C 182.800 60.120,181.968 58.800,181.171 58.800 C 180.967 58.800,180.800 58.338,180.800 57.774 C 180.800 56.432,180.123 55.200,179.386 55.200 C 178.999 55.200,178.800 54.784,178.800 53.974 C 178.800 52.453,178.161 51.200,177.386 51.200 C 177.028 51.200,176.800 50.812,176.800 50.200 C 176.800 49.400,176.600 49.200,175.800 49.200 C 174.881 49.200,174.800 49.053,174.800 47.400 C 174.800 45.747,174.719 45.600,173.800 45.600 C 172.878 45.600,172.800 45.456,172.800 43.763 C 172.800 42.291,172.648 41.885,172.037 41.726 C 171.617 41.616,171.181 41.169,171.067 40.733 C 170.953 40.297,170.494 39.845,170.048 39.728 C 169.447 39.571,169.168 39.061,168.973 37.758 C 168.773 36.422,168.535 36.000,167.982 36.000 C 167.533 36.000,167.207 35.656,167.128 35.100 C 167.046 34.522,166.678 34.154,166.100 34.072 C 165.449 33.980,165.200 33.676,165.200 32.972 C 165.200 32.202,164.992 32.000,164.200 32.000 C 163.400 32.000,163.200 31.800,163.200 31.000 C 163.200 30.200,163.000 30.000,162.200 30.000 C 161.281 30.000,161.200 29.853,161.200 28.200 C 161.200 26.854,161.046 26.400,160.590 26.400 C 160.255 26.400,159.815 25.965,159.613 25.434 C 159.411 24.903,158.885 24.354,158.443 24.214 C 158.002 24.074,157.530 23.608,157.394 23.180 C 157.257 22.751,156.811 22.400,156.401 22.400 C 155.933 22.400,155.608 22.066,155.528 21.500 C 155.446 20.922,155.078 20.554,154.500 20.472 C 153.849 20.380,153.600 20.076,153.600 19.372 C 153.600 18.602,153.392 18.400,152.600 18.400 C 151.800 18.400,151.600 18.200,151.600 17.400 C 151.600 16.850,151.465 16.421,151.300 16.447 C 150.221 16.618,149.600 16.308,149.600 15.600 C 149.600 14.892,148.979 14.582,147.900 14.753 C 147.735 14.779,147.600 14.370,147.600 13.845 C 147.600 13.021,147.355 12.854,145.800 12.621 C 144.378 12.408,144.000 12.188,144.000 11.575 C 144.000 11.021,143.723 10.800,143.028 10.800 C 142.324 10.800,142.020 10.551,141.928 9.900 C 141.847 9.330,141.479 8.954,140.925 8.875 C 140.379 8.798,140.002 8.421,139.925 7.875 C 139.823 7.161,139.497 6.978,138.155 6.880 C 136.860 6.785,136.415 6.551,136.064 5.780 C 135.704 4.991,135.322 4.800,134.103 4.800 C 132.917 4.800,132.504 4.605,132.195 3.900 C 131.850 3.114,131.457 2.985,129.100 2.882 C 126.789 2.780,126.400 2.658,126.400 2.028 C 126.400 1.088,125.339 0.812,121.700 0.805 C 120.037 0.802,118.800 0.629,118.800 0.400 C 118.800 0.146,115.667 0.000,110.200 0.000 C 104.733 0.000,101.600 0.146,101.600 0.400 M165.200 1.767 C 165.200 4.033,165.507 4.800,166.415 4.800 C 166.867 4.800,167.193 5.142,167.272 5.700 C 167.354 6.278,167.722 6.646,168.300 6.728 C 168.951 6.820,169.200 7.124,169.200 7.828 C 169.200 8.598,169.408 8.800,170.200 8.800 C 170.948 8.800,171.200 9.011,171.200 9.637 C 171.200 10.125,171.519 10.558,171.963 10.674 C 172.383 10.784,172.816 11.217,172.926 11.637 C 173.042 12.081,173.475 12.400,173.963 12.400 C 174.589 12.400,174.800 12.652,174.800 13.400 C 174.800 14.200,175.000 14.400,175.800 14.400 C 176.701 14.400,176.800 14.559,176.800 16.009 C 176.800 17.336,176.975 17.697,177.800 18.073 C 178.350 18.323,178.800 18.840,178.800 19.221 C 178.800 19.621,179.211 20.016,179.772 20.157 C 180.379 20.310,180.793 20.740,180.872 21.301 C 180.954 21.878,181.322 22.246,181.900 22.328 C 182.478 22.410,182.800 22.732,182.800 23.228 C 182.800 23.733,183.076 24.000,183.600 24.000 C 184.205 24.000,184.401 24.268,184.405 25.100 C 184.415 26.956,184.851 28.000,185.619 28.000 C 186.067 28.000,186.393 28.344,186.472 28.900 C 186.554 29.478,186.922 29.846,187.500 29.928 C 188.275 30.038,188.400 30.296,188.400 31.784 C 188.400 33.295,188.526 33.545,189.400 33.764 C 190.046 33.926,190.400 34.296,190.400 34.808 C 190.400 35.381,190.670 35.600,191.378 35.600 C 192.261 35.600,192.368 35.785,192.478 37.500 C 192.582 39.121,192.732 39.419,193.500 39.528 C 194.274 39.638,194.400 39.896,194.400 41.381 C 194.400 42.747,194.560 43.149,195.169 43.308 C 195.729 43.454,196.012 44.010,196.214 45.354 C 196.431 46.798,196.655 47.200,197.245 47.200 C 197.821 47.200,198.000 47.491,198.000 48.426 C 198.000 49.947,198.639 51.200,199.414 51.200 C 199.831 51.200,200.000 51.661,200.000 52.792 C 200.000 54.148,200.145 54.421,200.980 54.631 C 201.819 54.841,201.977 55.143,202.080 56.738 C 202.182 58.320,202.335 58.619,203.100 58.728 C 203.928 58.845,204.333 60.288,204.047 62.100 C 204.005 62.371,204.939 62.568,205.700 62.447 C 205.865 62.421,206.000 63.279,206.000 64.353 C 206.000 65.970,206.138 66.343,206.800 66.516 C 207.377 66.667,207.600 67.062,207.600 67.930 C 207.600 69.654,207.975 70.400,208.843 70.400 C 209.485 70.400,209.600 70.704,209.600 72.400 C 209.600 74.257,209.670 74.400,210.582 74.400 C 211.515 74.400,211.569 74.532,211.682 77.100 C 211.789 79.553,211.882 79.812,212.700 79.928 C 213.522 80.044,213.998 82.687,213.661 85.260 C 213.642 85.403,214.071 85.631,214.613 85.768 C 215.480 85.985,215.600 86.235,215.600 87.820 C 215.600 89.174,215.775 89.690,216.300 89.883 C 217.384 90.283,217.587 90.821,217.594 93.300 C 217.599 95.313,217.697 95.600,218.382 95.600 C 219.068 95.600,219.178 95.928,219.282 98.300 C 219.384 100.642,219.517 101.051,220.284 101.388 C 221.046 101.722,221.183 102.136,221.284 104.388 C 221.388 106.737,221.489 107.013,222.285 107.126 C 223.116 107.244,223.178 107.479,223.285 110.926 C 223.393 114.391,223.451 114.607,224.300 114.728 C 225.149 114.848,225.200 115.041,225.206 118.128 C 225.213 121.574,225.367 122.099,226.500 122.517 C 227.081 122.731,227.209 123.321,227.250 125.987 C 227.314 130.077,227.337 130.221,227.929 130.096 C 228.590 129.957,228.700 130.409,229.008 134.500 C 229.239 137.564,229.365 138.000,230.023 138.000 C 230.709 138.000,230.784 138.408,230.887 142.700 C 230.993 147.120,231.053 147.423,231.889 147.790 C 232.733 148.161,232.784 148.442,232.889 153.390 C 232.995 158.358,233.042 158.618,233.900 158.995 C 234.772 159.378,234.800 159.564,234.800 165.051 L 234.800 170.713 235.800 170.964 L 236.800 171.215 236.850 178.208 C 236.911 186.789,236.841 186.200,237.801 186.200 C 238.572 186.201,238.604 186.507,238.708 194.876 C 238.810 203.122,238.855 203.563,239.608 203.802 C 240.380 204.047,240.400 204.456,240.400 219.768 C 240.400 237.828,240.557 240.400,241.657 240.400 C 242.361 240.400,242.400 240.917,242.400 250.200 C 242.400 259.479,242.361 260.000,241.658 260.000 C 240.572 260.000,240.406 262.794,240.403 281.100 C 240.400 296.532,240.386 296.800,239.600 296.800 C 238.822 296.800,238.800 297.067,238.800 306.372 L 238.800 315.944 237.900 316.072 C 237.007 316.199,236.999 316.257,236.891 323.900 L 236.783 331.600 235.791 331.600 L 234.800 331.600 234.800 337.372 C 234.800 343.054,234.786 343.146,233.900 343.272 C 233.023 343.397,232.997 343.539,232.889 348.914 C 232.778 354.366,232.766 354.433,231.789 354.804 C 230.839 355.165,230.800 355.322,230.800 358.743 C 230.800 361.868,230.709 362.330,230.063 362.499 C 229.325 362.692,228.800 366.002,228.800 370.460 C 228.800 371.733,228.661 372.000,228.000 372.000 C 227.257 372.000,227.200 372.267,227.200 375.772 C 227.200 379.380,227.161 379.550,226.300 379.672 C 225.446 379.793,225.394 380.000,225.286 383.700 C 225.173 387.547,225.158 387.600,224.186 387.600 C 223.233 387.600,223.200 387.693,223.200 390.372 C 223.200 392.942,223.134 393.154,222.300 393.272 C 221.310 393.413,221.321 393.376,221.250 396.800 C 221.207 398.842,221.091 399.200,220.467 399.200 C 220.063 399.200,219.705 399.425,219.671 399.700 C 219.636 399.975,219.495 401.230,219.356 402.488 C 219.162 404.241,218.927 404.833,218.351 405.015 C 217.758 405.204,217.599 405.648,217.595 407.127 C 217.587 409.632,217.255 410.729,216.422 410.993 C 215.879 411.165,215.712 411.744,215.641 413.698 C 215.559 415.961,215.086 417.024,214.361 416.576 C 213.884 416.281,213.600 417.574,213.600 420.033 C 213.600 422.291,213.554 422.400,212.600 422.400 C 211.690 422.400,211.600 422.553,211.600 424.105 C 211.600 425.490,211.431 425.885,210.700 426.205 C 209.916 426.549,209.785 426.943,209.682 429.274 C 209.576 431.685,209.477 431.961,208.682 432.074 C 207.959 432.177,207.778 432.498,207.679 433.859 C 207.588 435.107,207.365 435.568,206.779 435.721 C 206.150 435.886,206.000 436.278,206.000 437.763 C 206.000 439.299,205.876 439.600,205.243 439.600 C 204.353 439.600,204.000 440.348,204.000 442.233 C 204.000 442.985,203.820 443.623,203.600 443.650 C 203.380 443.678,202.975 443.723,202.700 443.750 C 202.174 443.803,202.130 443.966,202.050 446.172 C 202.010 447.272,201.821 447.570,201.100 447.672 C 200.352 447.778,200.179 448.087,200.077 449.500 C 199.995 450.636,199.767 451.200,199.391 451.200 C 198.637 451.200,198.000 452.469,198.000 453.974 C 198.000 454.908,197.821 455.200,197.247 455.200 C 196.487 455.200,196.016 456.206,196.005 457.853 C 196.002 458.367,195.682 458.790,195.200 458.916 C 194.546 459.087,194.400 459.462,194.400 460.963 C 194.400 462.656,194.322 462.800,193.400 462.800 C 192.600 462.800,192.400 463.000,192.400 463.800 C 192.400 464.350,192.220 464.823,192.000 464.850 C 191.780 464.877,191.375 464.923,191.100 464.950 C 190.573 465.003,190.530 465.165,190.450 467.400 C 190.407 468.613,190.267 468.800,189.400 468.800 C 188.628 468.800,188.400 469.006,188.400 469.705 C 188.400 470.260,188.052 470.763,187.500 471.005 C 186.845 471.293,186.567 471.798,186.478 472.862 C 186.381 474.030,186.159 474.374,185.378 474.570 C 184.752 474.727,184.400 475.101,184.400 475.608 C 184.400 476.133,184.131 476.400,183.600 476.400 C 182.921 476.400,182.800 476.667,182.800 478.157 C 182.800 479.697,182.677 479.944,181.800 480.164 C 181.154 480.326,180.800 480.696,180.800 481.208 C 180.800 481.786,180.530 482.000,179.800 482.000 C 179.008 482.000,178.800 482.202,178.800 482.972 C 178.800 483.676,178.551 483.980,177.900 484.072 C 177.322 484.154,176.954 484.522,176.872 485.100 C 176.802 485.595,176.483 486.000,176.164 486.000 C 175.844 486.000,175.385 486.435,175.143 486.966 C 174.901 487.497,174.384 488.015,173.995 488.117 C 173.532 488.238,173.193 488.859,173.015 489.912 C 172.827 491.026,172.505 491.584,171.971 491.723 C 171.519 491.842,171.200 492.272,171.200 492.763 C 171.200 493.389,170.948 493.600,170.200 493.600 C 169.408 493.600,169.200 493.802,169.200 494.572 C 169.200 495.276,168.951 495.580,168.300 495.672 C 167.730 495.753,167.354 496.121,167.275 496.675 C 167.198 497.221,166.821 497.598,166.275 497.675 C 165.508 497.785,165.385 498.083,165.280 500.100 L 165.160 502.400 173.980 502.400 C 179.593 502.400,182.800 502.255,182.800 502.000 C 182.800 501.780,183.610 501.600,184.600 501.600 C 186.253 501.600,186.400 501.519,186.400 500.600 C 186.400 499.800,186.600 499.600,187.400 499.600 C 188.200 499.600,188.400 499.400,188.400 498.600 C 188.400 497.800,188.600 497.600,189.400 497.600 C 190.192 497.600,190.400 497.398,190.400 496.628 C 190.400 495.924,190.649 495.620,191.300 495.528 C 191.863 495.448,192.246 495.079,192.322 494.541 C 192.390 494.068,192.775 493.595,193.179 493.490 C 193.675 493.360,194.004 492.763,194.192 491.649 C 194.405 490.389,194.651 490.000,195.235 490.000 C 195.778 490.000,196.000 489.718,196.000 489.028 C 196.000 488.324,196.249 488.020,196.900 487.928 C 197.478 487.846,197.846 487.478,197.928 486.900 C 198.020 486.249,198.324 486.000,199.028 486.000 C 199.798 486.000,200.000 485.792,200.000 485.000 C 200.000 484.082,200.147 484.000,201.792 484.000 C 203.360 484.000,203.616 483.877,203.830 483.021 C 204.035 482.208,204.357 482.022,205.738 481.921 C 207.112 481.821,207.422 481.644,207.528 480.900 C 207.641 480.106,207.887 480.000,209.628 480.000 C 211.333 480.000,211.600 479.892,211.600 479.200 C 211.600 478.483,211.880 478.396,214.300 478.360 C 217.578 478.312,219.000 477.955,219.000 477.182 C 219.000 476.774,219.538 476.570,220.800 476.499 C 224.250 476.304,225.200 476.020,225.200 475.182 C 225.200 474.522,225.481 474.400,227.000 474.400 C 228.653 474.400,228.800 474.319,228.800 473.400 C 228.800 472.600,229.000 472.400,229.800 472.400 C 230.600 472.400,230.800 472.200,230.800 471.400 C 230.800 470.600,231.000 470.400,231.800 470.400 C 232.716 470.400,232.800 470.251,232.800 468.628 C 232.800 467.095,232.921 466.838,233.700 466.728 C 234.570 466.604,234.604 466.437,234.712 461.726 C 234.820 457.036,234.858 456.848,235.712 456.726 C 236.546 456.608,236.607 456.377,236.715 452.900 C 236.817 449.611,236.912 449.200,237.568 449.200 C 238.435 449.200,238.787 448.151,238.795 445.547 C 238.799 444.032,238.946 443.655,239.600 443.484 C 240.251 443.314,240.400 442.938,240.400 441.465 C 240.400 439.893,240.518 439.639,241.300 439.528 C 242.068 439.419,242.218 439.121,242.322 437.500 C 242.432 435.785,242.539 435.600,243.422 435.600 C 244.199 435.600,244.400 435.394,244.400 434.600 C 244.400 433.705,244.602 433.520,245.455 433.634 C 245.943 433.699,246.388 432.593,246.394 431.300 C 246.399 430.182,246.540 430.000,247.400 430.000 C 248.200 430.000,248.400 429.800,248.400 429.000 C 248.400 428.200,248.600 428.000,249.400 428.000 C 250.193 428.000,250.400 427.798,250.400 427.024 C 250.400 426.185,250.610 426.031,251.900 425.924 C 252.990 425.834,253.505 425.560,253.785 424.922 C 253.997 424.439,254.582 423.941,255.085 423.814 C 255.588 423.688,256.000 423.338,256.000 423.036 C 256.000 422.734,256.450 422.374,257.000 422.236 C 257.630 422.078,258.000 421.702,258.000 421.220 C 258.000 420.732,258.325 420.409,258.900 420.328 C 259.470 420.247,259.846 419.879,259.925 419.325 C 260.002 418.779,260.379 418.402,260.925 418.325 C 261.479 418.246,261.847 417.870,261.928 417.300 C 262.010 416.722,262.332 416.400,262.828 416.400 C 263.363 416.400,263.600 416.122,263.600 415.495 C 263.600 414.940,263.948 414.437,264.500 414.195 C 265.396 413.802,265.400 413.757,265.400 404.600 L 265.400 395.400 264.500 395.272 C 263.614 395.146,263.600 395.053,263.600 389.400 C 263.600 383.747,263.614 383.654,264.500 383.528 C 265.349 383.407,265.407 383.191,265.514 379.740 C 265.624 376.225,265.668 376.070,266.614 375.832 C 267.478 375.615,267.600 375.364,267.600 373.792 C 267.600 372.807,267.767 372.000,267.971 372.000 C 268.778 372.000,269.600 370.673,269.600 369.371 C 269.600 368.267,269.756 368.000,270.400 368.000 C 270.840 368.000,271.227 367.775,271.261 367.500 C 271.294 367.225,271.364 366.820,271.415 366.600 C 271.466 366.380,271.528 365.808,271.554 365.328 C 271.585 364.746,271.900 364.413,272.500 364.328 C 273.063 364.248,273.446 363.879,273.522 363.341 C 273.590 362.868,273.995 362.390,274.422 362.278 C 274.863 362.163,275.200 361.731,275.200 361.281 C 275.200 360.764,275.555 360.398,276.215 360.232 C 276.773 360.092,277.202 359.757,277.168 359.489 C 276.898 357.376,277.224 356.400,278.200 356.400 C 279.000 356.400,279.200 356.200,279.200 355.400 C 279.200 354.600,279.400 354.400,280.200 354.400 C 281.116 354.400,281.200 354.251,281.200 352.628 C 281.200 351.095,281.321 350.838,282.100 350.728 C 283.773 350.490,283.650 333.600,281.975 333.600 C 281.272 333.600,281.200 333.299,281.200 330.374 C 281.200 327.014,280.781 325.600,279.786 325.600 C 279.288 325.600,279.200 324.169,279.200 316.043 L 279.200 306.487 280.200 306.236 C 281.146 305.998,281.200 305.835,281.200 303.220 C 281.200 300.658,281.266 300.446,282.100 300.328 C 282.846 300.222,283.021 299.913,283.122 298.525 C 283.222 297.151,283.401 296.827,284.122 296.725 C 284.743 296.637,285.037 296.278,285.127 295.500 C 285.216 294.723,285.480 294.400,286.027 294.400 C 286.675 294.400,286.800 294.113,286.800 292.628 C 286.800 291.095,286.921 290.838,287.700 290.728 C 288.466 290.619,288.618 290.321,288.721 288.725 C 288.823 287.144,288.979 286.831,289.721 286.725 C 290.464 286.619,290.619 286.307,290.722 284.700 C 290.822 283.133,290.979 282.800,291.614 282.800 C 293.243 282.800,293.326 273.903,291.700 273.672 C 290.878 273.555,290.799 273.329,290.794 271.072 C 290.788 268.757,290.448 267.486,289.855 267.566 C 288.995 267.681,288.832 267.412,288.722 265.700 C 288.618 264.079,288.468 263.781,287.700 263.672 C 286.866 263.554,286.800 263.342,286.800 260.772 C 286.800 258.267,286.723 258.000,286.000 258.000 C 285.282 258.000,285.200 257.733,285.200 255.391 C 285.200 252.991,285.119 252.746,284.192 252.323 L 283.183 251.864 283.292 244.232 C 283.359 239.488,283.551 236.598,283.800 236.594 C 284.871 236.577,285.200 235.833,285.200 233.423 C 285.200 231.230,285.306 230.865,286.000 230.684 C 286.697 230.502,286.800 230.138,286.800 227.865 C 286.800 225.464,286.872 225.245,287.700 225.128 C 288.468 225.019,288.618 224.721,288.722 223.100 C 288.803 221.841,289.024 221.200,289.379 221.200 C 289.843 221.200,290.322 220.541,290.615 219.500 C 290.662 219.335,290.723 218.419,290.750 217.464 C 290.792 216.019,290.970 215.651,291.814 215.267 C 293.287 214.595,293.203 206.286,291.721 206.075 C 290.979 205.969,290.823 205.656,290.721 204.075 C 290.618 202.479,290.466 202.181,289.700 202.072 C 288.906 201.959,288.800 201.713,288.800 199.972 C 288.800 198.135,288.731 198.000,287.800 198.000 C 286.896 198.000,286.800 197.842,286.800 196.363 C 286.800 195.090,286.631 194.681,286.040 194.526 C 285.493 194.383,285.204 193.821,285.009 192.518 C 284.812 191.207,284.526 190.653,283.969 190.508 C 283.376 190.353,283.200 189.949,283.200 188.745 C 283.200 187.467,283.018 187.100,282.200 186.727 C 281.331 186.331,281.196 186.006,281.172 184.236 C 281.143 182.133,280.781 180.719,280.284 180.770 C 280.128 180.787,279.820 180.800,279.600 180.800 C 279.344 180.800,279.200 177.267,279.200 171.000 L 279.200 161.200 280.200 161.200 C 281.196 161.200,281.200 161.185,281.200 157.428 C 281.200 153.820,281.239 153.650,282.100 153.528 C 283.768 153.291,283.641 136.400,281.971 136.400 C 281.415 136.400,281.200 136.121,281.200 135.400 C 281.200 134.600,281.000 134.400,280.200 134.400 C 279.351 134.400,279.200 134.215,279.200 133.174 C 279.200 131.599,278.493 130.279,277.794 130.547 C 277.432 130.686,277.207 130.395,277.124 129.678 C 277.036 128.913,276.739 128.563,276.100 128.472 C 275.505 128.388,275.200 128.070,275.200 127.535 C 275.200 127.071,274.870 126.639,274.429 126.523 C 273.895 126.384,273.573 125.826,273.385 124.712 C 273.199 123.612,272.874 123.040,272.357 122.905 C 271.940 122.796,271.578 122.548,271.550 122.353 C 271.522 122.159,271.478 121.775,271.450 121.500 C 271.423 121.225,271.005 120.944,270.522 120.875 C 269.801 120.773,269.622 120.449,269.522 119.075 C 269.428 117.788,269.192 117.309,268.500 117.005 C 267.769 116.685,267.600 116.290,267.600 114.905 C 267.600 113.360,267.508 113.200,266.614 113.200 C 265.642 113.200,265.627 113.147,265.514 109.300 C 265.406 105.600,265.354 105.393,264.500 105.272 C 263.614 105.146,263.600 105.053,263.600 99.400 C 263.600 93.747,263.614 93.654,264.500 93.528 L 265.400 93.400 265.400 84.000 L 265.400 74.600 264.500 74.472 C 263.849 74.380,263.600 74.076,263.600 73.372 C 263.600 72.678,263.379 72.400,262.828 72.400 C 262.332 72.400,262.010 72.078,261.928 71.500 C 261.846 70.922,261.478 70.554,260.900 70.472 C 260.322 70.390,260.000 70.068,260.000 69.572 C 260.000 69.015,259.721 68.800,259.000 68.800 C 258.200 68.800,258.000 68.600,258.000 67.800 C 258.000 67.000,257.800 66.800,257.000 66.800 C 256.200 66.800,256.000 66.600,256.000 65.800 C 256.000 65.000,255.800 64.800,255.000 64.800 C 254.200 64.800,254.000 64.600,254.000 63.800 C 254.000 63.000,253.800 62.800,253.000 62.800 C 252.200 62.800,252.000 62.600,252.000 61.800 C 252.000 61.087,251.784 60.800,251.247 60.800 C 250.821 60.800,250.399 60.439,250.276 59.970 C 250.157 59.514,249.692 59.045,249.243 58.927 C 248.794 58.810,248.318 58.373,248.186 57.957 C 248.054 57.541,247.611 57.200,247.201 57.200 C 246.733 57.200,246.408 56.866,246.328 56.300 C 246.246 55.722,245.878 55.354,245.300 55.272 C 244.649 55.180,244.400 54.876,244.400 54.172 C 244.400 53.402,244.192 53.200,243.400 53.200 C 242.467 53.200,242.400 53.067,242.400 51.200 C 242.400 49.333,242.333 49.200,241.400 49.200 C 240.481 49.200,240.400 49.053,240.400 47.400 C 240.400 45.867,240.281 45.600,239.600 45.600 C 238.890 45.600,238.800 45.333,238.800 43.233 C 238.800 40.350,238.543 39.600,237.557 39.600 C 236.854 39.600,236.800 39.239,236.800 34.574 C 236.800 29.549,236.471 28.000,235.404 28.000 C 234.982 28.000,234.806 27.309,234.718 25.300 C 234.611 22.847,234.518 22.588,233.700 22.472 C 232.906 22.359,232.800 22.113,232.800 20.372 C 232.800 18.535,232.731 18.400,231.800 18.400 C 230.885 18.400,230.800 18.250,230.800 16.647 C 230.800 14.795,230.347 14.419,228.100 14.405 C 227.471 14.402,227.200 14.161,227.200 13.608 C 227.200 13.096,226.846 12.726,226.200 12.564 C 225.574 12.407,225.200 12.030,225.200 11.557 C 225.200 11.018,224.914 10.800,224.208 10.800 C 223.486 10.800,223.148 10.531,222.968 9.813 C 222.831 9.271,222.603 8.842,222.460 8.861 C 220.400 9.130,219.200 8.740,219.200 7.800 C 219.200 7.018,218.996 6.800,218.264 6.800 C 217.654 6.800,217.170 6.452,216.873 5.800 C 216.521 5.029,216.117 4.800,215.103 4.800 C 214.125 4.800,213.689 4.570,213.395 3.900 C 213.092 3.211,212.612 2.972,211.341 2.879 C 210.146 2.792,209.630 2.557,209.494 2.040 C 209.296 1.281,207.688 0.800,205.350 0.800 C 204.608 0.800,204.000 0.620,204.000 0.400 C 204.000 0.139,197.267 0.000,184.600 0.000 L 165.200 0.000 165.200 1.767 M248.435 3.171 C 248.506 6.140,248.571 6.356,249.456 6.578 C 250.325 6.796,250.400 7.018,250.400 9.381 C 250.400 11.537,250.519 11.984,251.149 12.184 C 251.748 12.374,251.954 12.979,252.172 15.191 C 252.391 17.419,252.593 18.007,253.204 18.201 C 253.834 18.401,253.985 18.901,254.082 21.121 C 254.189 23.553,254.283 23.812,255.100 23.928 C 255.976 24.052,256.000 24.184,256.000 28.820 C 256.000 33.569,256.003 33.586,257.000 33.836 C 257.961 34.077,258.356 35.789,258.030 38.301 C 257.994 38.576,258.423 39.010,258.982 39.265 C 259.650 39.569,260.000 40.050,260.000 40.664 C 260.000 41.396,260.218 41.600,261.000 41.600 C 261.916 41.600,262.000 41.748,262.000 43.373 C 262.000 44.761,262.164 45.198,262.757 45.386 C 263.173 45.518,263.606 45.981,263.719 46.413 C 263.841 46.880,264.266 47.200,264.763 47.200 C 265.389 47.200,265.600 47.452,265.600 48.200 C 265.600 48.992,265.802 49.200,266.572 49.200 C 267.276 49.200,267.580 49.449,267.672 50.100 C 267.753 50.670,268.121 51.046,268.675 51.125 C 269.221 51.202,269.598 51.579,269.675 52.125 C 269.753 52.672,270.130 53.047,270.681 53.125 C 271.166 53.194,271.673 53.599,271.808 54.025 C 271.943 54.451,272.389 54.800,272.799 54.800 C 273.267 54.800,273.592 55.134,273.672 55.700 C 273.754 56.278,274.122 56.646,274.700 56.728 C 275.266 56.808,275.600 57.133,275.600 57.601 C 275.600 58.011,275.933 58.452,276.339 58.581 C 276.746 58.710,277.282 59.262,277.531 59.808 C 277.779 60.353,278.244 60.800,278.564 60.800 C 278.883 60.800,279.202 61.205,279.272 61.700 C 279.353 62.271,279.721 62.646,280.278 62.725 C 280.999 62.827,281.178 63.151,281.278 64.525 C 281.379 65.913,281.554 66.222,282.300 66.328 C 283.094 66.441,283.200 66.687,283.200 68.428 C 283.200 70.265,283.269 70.400,284.200 70.400 C 285.196 70.400,285.200 70.413,285.200 74.200 C 285.200 77.733,285.256 78.000,286.000 78.000 C 286.746 78.000,286.800 78.267,286.800 81.953 C 286.800 85.570,286.732 85.924,286.000 86.116 C 285.227 86.318,285.200 86.662,285.200 96.359 C 285.200 105.960,285.235 106.415,286.000 106.893 C 286.596 107.265,286.800 107.826,286.800 109.089 C 286.800 110.564,286.930 110.817,287.800 111.036 C 288.677 111.256,288.800 111.503,288.800 113.043 C 288.800 114.650,288.885 114.800,289.800 114.800 C 290.600 114.800,290.800 115.000,290.800 115.800 C 290.800 116.600,291.000 116.800,291.800 116.800 C 292.600 116.800,292.800 117.000,292.800 117.800 C 292.800 118.600,293.000 118.800,293.800 118.800 C 294.775 118.800,294.971 119.424,294.776 121.900 C 294.763 122.065,295.168 122.297,295.676 122.416 C 296.254 122.552,296.650 122.981,296.734 123.563 C 296.808 124.074,297.192 124.577,297.588 124.681 C 298.069 124.807,298.394 125.405,298.566 126.475 C 298.744 127.590,299.057 128.142,299.590 128.282 C 300.164 128.431,300.389 128.902,300.479 130.141 C 300.572 131.412,300.811 131.892,301.500 132.195 C 302.267 132.531,302.400 132.897,302.400 134.662 C 302.400 137.249,302.680 138.000,303.643 138.000 C 304.356 138.000,304.400 138.395,304.400 144.800 C 304.400 151.205,304.356 151.600,303.643 151.600 C 302.600 151.600,302.400 152.342,302.400 156.205 C 302.400 159.364,302.351 159.551,301.500 159.672 C 300.651 159.793,300.594 160.008,300.485 163.500 C 300.383 166.783,300.287 167.200,299.635 167.200 C 299.132 167.200,298.821 167.594,298.650 168.450 C 297.990 171.749,298.697 176.800,299.819 176.800 C 300.251 176.800,300.400 177.321,300.400 178.826 C 300.400 181.075,300.924 182.400,301.814 182.400 C 302.175 182.400,302.418 182.822,302.446 183.500 C 302.472 184.105,302.534 184.780,302.585 185.000 C 302.636 185.220,302.706 185.633,302.739 185.918 C 302.773 186.202,303.115 186.382,303.500 186.318 C 304.003 186.233,304.236 186.509,304.327 187.300 C 304.425 188.156,304.664 188.400,305.405 188.400 C 306.256 188.400,306.369 188.600,306.478 190.300 C 306.582 191.921,306.732 192.219,307.500 192.328 C 308.279 192.438,308.400 192.695,308.400 194.228 C 308.400 195.733,308.520 196.000,309.200 196.000 C 309.862 196.000,310.000 196.267,310.000 197.550 C 310.000 200.069,310.435 201.557,311.248 201.815 C 312.414 202.185,312.416 219.600,311.250 219.600 C 310.423 219.600,310.000 220.972,310.000 223.650 C 310.000 224.933,309.862 225.200,309.200 225.200 C 308.507 225.200,308.400 225.467,308.400 227.200 C 308.400 229.067,308.333 229.200,307.400 229.200 C 306.430 229.200,306.400 229.282,306.400 231.972 C 306.400 234.542,306.334 234.754,305.500 234.872 C 304.603 235.000,304.600 235.027,304.492 243.500 L 304.384 252.000 305.392 252.000 C 306.354 252.000,306.725 254.673,306.376 259.100 C 306.363 259.265,306.768 259.497,307.276 259.616 C 308.038 259.794,308.222 260.135,308.325 261.560 C 308.420 262.871,308.637 263.337,309.225 263.491 C 309.794 263.639,310.000 264.044,310.000 265.014 C 310.000 266.853,310.359 267.600,311.243 267.600 C 311.964 267.600,312.000 268.045,312.000 277.054 L 312.000 286.508 311.000 287.435 C 310.165 288.209,310.000 288.728,310.000 290.581 C 310.000 292.533,309.904 292.800,309.200 292.800 C 308.507 292.800,308.400 293.067,308.400 294.800 C 308.400 296.667,308.333 296.800,307.400 296.800 C 306.670 296.800,306.400 297.014,306.400 297.592 C 306.400 298.104,306.046 298.474,305.400 298.636 C 304.523 298.856,304.400 299.103,304.400 300.643 C 304.400 302.100,304.271 302.400,303.643 302.400 C 302.753 302.400,302.400 303.148,302.400 305.033 C 302.400 306.105,302.238 306.400,301.647 306.400 C 300.506 306.400,300.411 307.323,300.405 318.509 L 300.400 328.817 301.400 329.273 C 302.325 329.694,302.400 329.934,302.400 332.464 C 302.400 335.116,302.431 335.200,303.400 335.200 L 304.400 335.200 304.400 343.000 L 304.400 350.800 303.400 350.800 C 302.430 350.800,302.400 350.882,302.400 353.572 C 302.400 356.142,302.334 356.354,301.500 356.472 C 300.732 356.581,300.582 356.879,300.478 358.500 C 300.380 360.033,300.214 360.400,299.621 360.400 C 298.752 360.400,298.400 361.159,298.400 363.033 C 298.400 364.133,298.244 364.400,297.600 364.400 C 297.063 364.400,296.800 364.667,296.800 365.210 C 296.800 365.706,296.412 366.167,295.800 366.400 C 295.250 366.609,294.800 367.059,294.800 367.400 C 294.800 367.741,294.350 368.191,293.800 368.400 C 292.962 368.719,292.800 369.041,292.800 370.390 C 292.800 371.841,292.701 372.000,291.800 372.000 C 291.008 372.000,290.800 372.202,290.800 372.972 C 290.800 373.676,290.551 373.980,289.900 374.072 C 289.322 374.154,288.954 374.522,288.872 375.100 C 288.757 375.912,288.363 376.184,287.500 376.047 C 287.335 376.021,287.230 376.135,287.267 376.300 C 287.493 377.306,286.604 379.726,285.946 379.898 C 284.743 380.213,284.795 400.218,286.000 400.600 C 286.743 400.836,286.800 401.205,286.800 405.827 C 286.800 410.533,286.757 410.800,286.000 410.800 C 285.256 410.800,285.200 411.067,285.200 414.600 C 285.200 418.387,285.196 418.400,284.200 418.400 C 283.267 418.400,283.200 418.533,283.200 420.400 C 283.200 422.267,283.133 422.400,282.200 422.400 C 281.281 422.400,281.200 422.547,281.200 424.200 C 281.200 425.853,281.119 426.000,280.200 426.000 C 279.408 426.000,279.200 426.202,279.200 426.972 C 279.200 427.676,278.951 427.980,278.300 428.072 C 277.722 428.154,277.354 428.522,277.272 429.100 C 277.202 429.595,276.883 430.000,276.564 430.000 C 276.244 430.000,275.785 430.435,275.543 430.966 C 275.301 431.497,274.764 432.021,274.351 432.129 C 273.918 432.242,273.600 432.680,273.600 433.163 C 273.600 433.746,273.346 434.000,272.763 434.000 C 272.270 434.000,271.841 434.320,271.722 434.778 C 271.610 435.205,271.132 435.610,270.659 435.678 C 270.121 435.754,269.752 436.137,269.672 436.700 C 269.580 437.351,269.276 437.600,268.572 437.600 C 267.809 437.600,267.600 437.809,267.600 438.572 C 267.600 439.276,267.351 439.580,266.700 439.672 C 266.122 439.754,265.754 440.122,265.672 440.700 C 265.580 441.351,265.276 441.600,264.572 441.600 C 263.802 441.600,263.600 441.808,263.600 442.600 C 263.600 443.333,263.387 443.600,262.800 443.600 C 262.213 443.600,262.000 443.867,262.000 444.600 C 262.000 445.400,261.800 445.600,261.000 445.600 C 260.084 445.600,260.000 445.749,260.000 447.372 C 260.000 448.905,259.879 449.162,259.100 449.272 C 258.274 449.389,258.190 449.639,258.082 452.300 C 257.970 455.081,257.925 455.200,256.982 455.200 C 256.008 455.200,256.000 455.231,256.000 459.000 C 256.000 462.462,255.933 462.800,255.243 462.800 C 254.211 462.800,254.000 463.544,254.000 467.186 C 254.000 469.884,253.900 470.333,253.261 470.500 C 252.414 470.721,252.011 472.518,252.004 476.100 C 252.001 478.132,251.907 478.400,251.200 478.400 C 250.476 478.400,250.400 478.667,250.400 481.200 L 250.400 484.000 253.809 484.000 C 257.038 484.000,257.241 483.948,257.664 483.020 C 258.029 482.218,258.446 482.018,259.955 481.920 C 261.520 481.818,261.819 481.663,261.928 480.900 C 262.045 480.072,262.264 480.000,264.665 480.000 C 266.886 480.000,267.304 479.888,267.472 479.246 C 267.631 478.639,268.139 478.457,270.067 478.318 C 272.246 478.160,272.858 477.857,273.293 476.722 C 273.352 476.570,274.454 476.403,275.742 476.352 C 277.934 476.266,279.200 475.687,279.200 474.771 C 279.200 474.567,279.785 474.397,280.500 474.394 C 281.993 474.387,282.552 474.087,282.917 473.100 C 283.059 472.715,283.537 472.400,283.980 472.400 C 284.496 472.400,284.871 472.055,285.026 471.438 C 285.159 470.909,285.613 470.385,286.034 470.275 C 286.627 470.120,286.800 469.715,286.800 468.481 C 286.800 467.114,286.943 466.851,287.800 466.636 C 288.797 466.386,288.800 466.369,288.800 461.620 C 288.800 456.984,288.824 456.852,289.700 456.728 C 290.549 456.607,290.606 456.392,290.715 452.900 C 290.805 450.015,290.956 449.200,291.401 449.200 C 292.365 449.200,292.800 447.787,292.800 444.654 C 292.800 441.849,292.858 441.647,293.700 441.528 C 294.466 441.419,294.618 441.121,294.721 439.525 C 294.823 437.944,294.979 437.631,295.721 437.525 C 296.264 437.448,296.647 437.072,296.722 436.541 C 296.790 436.068,297.195 435.590,297.622 435.478 C 298.233 435.319,298.400 434.923,298.400 433.637 C 298.400 432.158,298.496 432.000,299.400 432.000 C 300.200 432.000,300.400 431.800,300.400 431.000 C 300.400 430.200,300.600 430.000,301.400 430.000 C 302.200 430.000,302.400 429.800,302.400 429.000 C 302.400 428.200,302.600 428.000,303.400 428.000 C 304.200 428.000,304.400 427.800,304.400 427.000 C 304.400 426.200,304.600 426.000,305.400 426.000 C 306.194 426.000,306.400 425.798,306.400 425.023 C 306.400 424.160,306.598 424.032,308.100 423.923 C 309.513 423.821,309.822 423.648,309.928 422.900 C 310.012 422.305,310.330 422.000,310.865 422.000 C 311.327 422.000,311.761 421.670,311.875 421.234 C 311.985 420.813,312.509 420.359,313.038 420.226 C 313.634 420.077,314.000 419.694,314.000 419.220 C 314.000 418.732,314.325 418.409,314.900 418.328 C 315.472 418.247,315.846 417.879,315.925 417.319 C 315.994 416.834,316.378 416.334,316.778 416.207 C 317.530 415.968,318.000 414.445,318.000 412.245 C 318.000 411.327,318.242 410.884,318.900 410.595 C 319.755 410.220,319.800 409.979,319.800 405.800 C 319.800 401.621,319.755 401.380,318.900 401.005 C 317.614 400.441,317.461 381.834,318.739 381.500 C 319.608 381.273,320.000 379.688,320.000 376.397 C 320.000 374.430,320.117 374.063,320.800 373.884 C 321.451 373.714,321.600 373.338,321.600 371.865 C 321.600 370.293,321.718 370.039,322.500 369.928 C 323.268 369.819,323.418 369.521,323.522 367.900 C 323.632 366.185,323.739 366.000,324.622 366.000 C 325.322 366.000,325.600 365.780,325.600 365.227 C 325.600 364.798,325.966 364.338,326.423 364.193 C 326.876 364.049,327.411 363.497,327.613 362.966 C 327.815 362.435,328.255 362.000,328.590 362.000 C 328.926 362.000,329.200 361.660,329.200 361.243 C 329.200 360.784,329.567 360.395,330.133 360.252 C 330.647 360.124,331.094 359.789,331.127 359.509 C 331.395 357.228,331.747 356.400,332.445 356.400 C 332.984 356.400,333.200 356.113,333.200 355.400 C 333.200 354.850,333.380 354.378,333.600 354.350 C 333.820 354.322,334.225 354.278,334.500 354.250 C 334.832 354.217,335.040 353.301,335.118 351.526 C 335.224 349.115,335.323 348.839,336.118 348.726 C 337.754 348.493,337.646 335.200,336.007 335.200 C 335.302 335.200,335.219 334.858,335.115 331.500 C 335.006 328.008,334.949 327.793,334.100 327.672 C 333.233 327.549,333.200 327.393,333.200 323.405 C 333.200 318.935,333.020 318.000,332.157 318.000 C 331.851 318.000,331.600 317.627,331.600 317.171 C 331.600 316.271,332.552 315.085,332.952 315.486 C 333.089 315.622,333.200 313.556,333.200 310.894 C 333.200 306.181,333.223 306.052,334.100 305.928 C 334.918 305.812,335.011 305.553,335.118 303.100 C 335.220 300.784,335.342 300.400,335.975 300.400 C 336.814 300.400,337.200 299.647,337.200 298.011 C 337.200 297.145,337.430 296.829,338.200 296.636 C 339.078 296.415,339.200 296.169,339.200 294.620 C 339.200 293.095,339.322 292.838,340.100 292.728 C 340.868 292.619,341.018 292.321,341.122 290.700 C 341.223 289.126,341.377 288.800,342.022 288.800 C 342.579 288.800,342.800 288.524,342.800 287.828 C 342.800 287.124,343.049 286.820,343.700 286.728 C 344.517 286.612,344.611 286.353,344.718 283.926 C 344.824 281.515,344.923 281.239,345.718 281.126 C 347.089 280.930,347.073 274.408,345.700 273.805 C 344.896 273.453,344.800 273.125,344.800 270.748 C 344.800 268.121,344.255 267.148,343.164 267.822 C 342.964 267.946,342.800 267.137,342.800 266.024 C 342.800 264.286,342.690 264.000,342.022 264.000 C 341.377 264.000,341.223 263.674,341.122 262.100 C 341.018 260.479,340.868 260.181,340.100 260.072 C 339.254 259.952,339.200 259.756,339.200 256.805 C 339.200 253.144,338.990 252.400,337.957 252.400 C 337.237 252.400,337.200 251.968,337.200 243.628 L 337.200 234.856 338.100 234.728 C 338.925 234.611,339.010 234.360,339.117 231.726 C 339.224 229.108,339.313 228.840,340.117 228.726 C 340.832 228.624,341.025 228.297,341.130 227.005 C 341.268 225.310,341.854 224.262,342.455 224.634 C 342.656 224.758,342.794 224.711,342.763 224.530 C 342.359 222.207,342.873 219.245,343.700 219.128 C 344.516 219.012,344.611 218.752,344.717 216.339 C 344.825 213.891,344.913 213.658,345.817 213.431 C 347.342 213.049,347.327 208.147,345.800 207.764 C 344.854 207.527,344.800 207.363,344.800 204.757 C 344.800 202.083,344.770 202.000,343.800 202.000 C 342.902 202.000,342.800 201.838,342.800 200.423 C 342.800 199.310,342.569 198.684,342.017 198.297 C 341.559 197.976,341.122 197.051,340.965 196.074 C 340.762 194.800,340.519 194.400,339.949 194.400 C 339.417 194.400,339.200 194.111,339.200 193.400 C 339.200 192.600,339.000 192.400,338.200 192.400 C 337.267 192.400,337.200 192.267,337.200 190.400 C 337.200 188.533,337.133 188.400,336.200 188.400 C 335.256 188.400,335.200 188.278,335.200 186.233 C 335.200 183.551,334.928 182.800,333.957 182.800 C 333.257 182.800,333.200 182.443,333.200 178.027 C 333.200 173.605,333.141 173.235,332.400 173.000 C 331.960 172.860,331.600 172.410,331.600 172.000 C 331.600 171.590,331.960 171.140,332.400 171.000 C 333.141 170.765,333.200 170.395,333.200 166.001 C 333.200 161.384,333.224 161.252,334.100 161.128 C 334.967 161.005,335.004 160.830,335.113 156.300 L 335.225 151.600 336.213 151.600 L 337.200 151.600 337.200 145.008 L 337.200 138.415 336.221 138.170 C 335.408 137.965,335.222 137.643,335.121 136.262 C 335.021 134.888,334.844 134.578,334.100 134.472 C 333.449 134.380,333.200 134.076,333.200 133.372 C 333.200 132.689,332.978 132.400,332.451 132.400 C 331.888 132.400,331.639 132.007,331.448 130.813 C 331.289 129.817,330.897 129.066,330.397 128.799 C 329.959 128.564,329.600 128.104,329.600 127.777 C 329.600 127.450,329.150 126.978,328.600 126.727 C 328.050 126.477,327.600 125.940,327.600 125.536 C 327.600 125.018,327.304 124.800,326.600 124.800 C 325.733 124.800,325.593 124.613,325.550 123.400 C 325.467 121.086,325.434 121.005,324.500 120.872 C 323.849 120.780,323.600 120.476,323.600 119.772 C 323.600 119.002,323.392 118.800,322.600 118.800 C 321.656 118.800,321.600 118.678,321.600 116.633 C 321.600 114.098,321.327 113.200,320.557 113.200 C 320.144 113.200,320.000 112.589,320.000 110.833 C 320.000 107.950,319.743 107.200,318.757 107.200 C 318.037 107.200,318.000 106.768,318.000 98.400 C 318.000 90.781,318.082 89.600,318.610 89.600 C 319.636 89.600,320.000 87.767,320.000 82.607 C 320.000 77.140,319.854 76.400,318.780 76.400 C 318.202 76.400,318.020 76.038,317.923 74.700 C 317.829 73.398,317.593 72.909,316.916 72.612 C 316.430 72.399,315.980 71.859,315.916 71.412 C 315.846 70.921,315.444 70.549,314.900 70.472 C 314.322 70.390,314.000 70.068,314.000 69.572 C 314.000 69.015,313.721 68.800,313.000 68.800 C 312.200 68.800,312.000 68.600,312.000 67.800 C 312.000 67.000,311.800 66.800,311.000 66.800 C 310.252 66.800,310.000 66.589,310.000 65.963 C 310.000 65.474,309.681 65.042,309.234 64.925 C 308.813 64.815,308.359 64.291,308.226 63.762 C 308.052 63.069,307.707 62.800,306.992 62.800 C 306.437 62.800,306.000 62.567,306.000 62.272 C 306.000 61.982,305.550 61.353,305.000 60.875 C 304.450 60.397,304.000 59.824,304.000 59.603 C 304.000 59.381,303.640 59.200,303.200 59.200 C 302.486 59.200,302.215 58.788,302.350 57.907 C 302.375 57.746,301.962 57.505,301.432 57.372 C 300.860 57.229,300.371 56.740,300.228 56.168 C 300.095 55.638,299.854 55.225,299.693 55.250 C 298.804 55.386,298.400 55.109,298.400 54.363 C 298.400 53.878,298.082 53.442,297.646 53.328 C 297.134 53.194,296.812 52.634,296.644 51.587 C 296.507 50.727,296.051 49.801,295.615 49.496 C 295.159 49.176,294.721 48.250,294.565 47.274 C 294.365 46.021,294.115 45.600,293.571 45.600 C 292.987 45.600,292.820 45.225,292.722 43.700 C 292.618 42.087,292.466 41.781,291.712 41.674 C 290.861 41.553,290.820 41.357,290.712 36.874 C 290.604 32.371,290.567 32.195,289.700 32.072 C 288.824 31.948,288.800 31.817,288.800 27.172 L 288.800 22.400 287.800 22.400 C 286.867 22.400,286.800 22.267,286.800 20.400 C 286.800 18.712,286.683 18.400,286.051 18.400 C 285.488 18.400,285.239 18.007,285.048 16.813 C 284.775 15.105,283.951 14.400,282.226 14.400 C 281.470 14.400,281.200 14.192,281.200 13.608 C 281.200 13.096,280.846 12.726,280.200 12.564 C 279.574 12.407,279.200 12.030,279.200 11.557 C 279.200 10.915,278.895 10.800,277.200 10.800 C 275.333 10.800,275.200 10.733,275.200 9.800 C 275.200 9.070,274.986 8.800,274.408 8.800 C 273.896 8.800,273.526 8.446,273.364 7.800 C 273.145 6.926,272.895 6.800,271.384 6.800 C 269.896 6.800,269.638 6.675,269.528 5.900 C 269.419 5.132,269.121 4.982,267.500 4.878 C 265.785 4.768,265.600 4.661,265.600 3.778 C 265.600 3.001,265.394 2.800,264.600 2.800 C 263.891 2.800,263.600 2.583,263.600 2.054 C 263.600 1.174,261.618 0.800,256.944 0.800 C 255.248 0.800,254.000 0.630,254.000 0.400 C 254.000 0.171,252.793 0.000,251.179 0.000 L 248.358 0.000 248.435 3.171 M304.487 7.500 C 304.596 12.030,304.633 12.205,305.500 12.328 C 306.341 12.447,306.700 15.385,306.376 19.500 C 306.363 19.665,306.768 19.898,307.276 20.017 C 308.121 20.215,308.210 20.480,308.318 23.117 C 308.422 25.672,308.524 26.000,309.218 26.000 C 309.944 26.000,310.000 26.298,310.000 30.167 C 310.000 34.869,310.167 35.600,311.243 35.600 C 311.885 35.600,312.000 35.904,312.000 37.600 C 312.000 39.467,312.067 39.600,313.000 39.600 C 313.918 39.600,314.000 39.747,314.000 41.392 C 314.000 42.959,314.123 43.216,314.977 43.430 C 315.572 43.579,316.002 44.013,316.077 44.538 C 316.154 45.079,316.535 45.448,317.100 45.528 C 317.678 45.610,318.000 45.932,318.000 46.428 C 318.000 46.985,318.279 47.200,319.000 47.200 C 319.800 47.200,320.000 47.400,320.000 48.200 C 320.000 48.921,320.215 49.200,320.772 49.200 C 321.268 49.200,321.590 49.522,321.672 50.100 C 321.753 50.670,322.121 51.046,322.675 51.125 C 323.221 51.202,323.598 51.579,323.675 52.125 C 323.754 52.679,324.130 53.047,324.700 53.128 C 325.275 53.209,325.600 53.532,325.600 54.020 C 325.600 54.494,325.966 54.877,326.562 55.026 C 327.091 55.159,327.615 55.613,327.725 56.034 C 327.842 56.481,328.274 56.800,328.763 56.800 C 329.331 56.800,329.600 57.055,329.600 57.592 C 329.600 58.104,329.954 58.474,330.600 58.636 C 331.318 58.816,331.600 59.157,331.600 59.843 C 331.600 60.522,331.825 60.800,332.372 60.800 C 332.868 60.800,333.190 61.122,333.272 61.700 C 333.354 62.278,333.722 62.646,334.300 62.728 C 335.029 62.831,335.200 63.110,335.200 64.199 C 335.200 65.477,336.028 66.800,336.829 66.800 C 337.033 66.800,337.200 67.610,337.200 68.600 C 337.200 70.247,337.284 70.400,338.187 70.400 L 339.175 70.400 339.287 75.100 C 339.396 79.630,339.433 79.805,340.300 79.928 C 341.619 80.115,341.542 81.827,340.200 82.164 L 339.200 82.415 339.200 93.808 L 339.200 105.200 340.200 105.200 C 341.172 105.200,341.200 105.279,341.200 108.013 C 341.200 110.326,341.324 110.871,341.900 111.083 C 342.887 111.448,343.187 112.007,343.194 113.500 C 343.199 114.531,343.365 114.800,344.000 114.800 C 344.512 114.800,344.800 115.067,344.800 115.540 C 344.800 116.823,345.656 118.800,346.211 118.800 C 346.504 118.800,346.802 119.205,346.872 119.700 C 346.953 120.270,347.321 120.646,347.875 120.725 C 348.421 120.802,348.798 121.179,348.875 121.725 C 348.953 122.270,349.330 122.647,349.875 122.725 C 350.421 122.802,350.798 123.179,350.875 123.725 C 350.953 124.271,351.330 124.647,351.878 124.725 C 352.599 124.827,352.778 125.151,352.878 126.525 C 352.979 127.913,353.154 128.222,353.900 128.328 C 354.682 128.439,354.800 128.693,354.800 130.265 C 354.800 131.725,354.951 132.114,355.582 132.279 C 356.233 132.450,356.384 132.895,356.482 134.942 C 356.583 137.048,356.729 137.457,357.500 137.795 C 358.793 138.362,358.929 150.000,357.643 150.000 C 356.676 150.000,356.400 150.751,356.400 153.386 C 356.400 155.108,356.262 155.543,355.664 155.699 C 353.934 156.152,353.908 182.063,355.637 182.612 C 356.149 182.774,356.391 183.324,356.478 184.520 C 356.578 185.900,356.757 186.222,357.479 186.325 C 358.221 186.431,358.377 186.744,358.479 188.325 C 358.581 189.906,358.738 190.220,359.478 190.325 C 360.195 190.427,360.379 190.752,360.478 192.089 C 360.570 193.322,360.783 193.754,361.337 193.834 C 362.322 193.976,362.306 193.945,362.477 196.000 C 362.589 197.340,362.796 197.801,363.286 197.805 C 364.276 197.813,364.345 197.999,364.439 200.909 C 364.514 203.225,364.629 203.600,365.263 203.600 C 366.454 203.600,366.393 217.421,365.200 217.800 C 364.511 218.019,364.400 218.405,364.400 220.584 C 364.400 222.947,364.334 223.130,363.402 223.364 C 362.854 223.501,362.425 223.746,362.450 223.907 C 362.856 226.550,362.331 229.200,361.400 229.200 C 360.430 229.200,360.400 229.282,360.400 231.972 C 360.400 234.542,360.334 234.754,359.500 234.872 C 358.675 234.989,358.590 235.240,358.483 237.874 C 358.376 240.492,358.287 240.760,357.483 240.874 C 355.795 241.115,356.115 248.400,357.814 248.400 C 358.257 248.400,358.400 248.931,358.400 250.567 C 358.400 253.249,358.672 254.000,359.643 254.000 C 360.308 254.000,360.400 254.316,360.400 256.610 C 360.400 259.026,360.474 259.248,361.400 259.600 C 362.263 259.928,362.400 260.228,362.400 261.790 C 362.400 263.454,362.481 263.600,363.400 263.600 C 364.378 263.600,364.400 263.667,364.400 266.600 C 364.400 269.333,364.471 269.600,365.200 269.600 C 365.973 269.600,366.000 269.867,366.000 277.400 C 366.000 284.933,365.973 285.200,365.200 285.200 C 364.476 285.200,364.400 285.467,364.400 288.000 C 364.400 290.720,364.371 290.800,363.400 290.800 C 362.469 290.800,362.400 290.935,362.400 292.772 C 362.400 294.513,362.294 294.759,361.500 294.872 C 360.756 294.978,360.579 295.288,360.479 296.662 C 360.378 298.043,360.192 298.365,359.379 298.570 C 358.525 298.784,358.400 299.041,358.400 300.580 C 358.400 302.105,358.278 302.362,357.500 302.472 C 356.732 302.581,356.582 302.879,356.478 304.500 C 356.377 306.074,356.223 306.400,355.578 306.400 C 354.977 306.400,354.800 306.678,354.800 307.626 C 354.800 309.158,354.160 310.400,353.370 310.400 C 352.858 310.400,352.776 311.347,352.820 316.800 C 352.849 320.341,353.034 323.200,353.236 323.200 C 353.436 323.200,353.735 323.189,353.900 323.176 C 354.358 323.140,354.716 324.771,354.760 327.100 C 354.794 328.906,354.910 329.200,355.585 329.200 C 356.300 329.200,356.380 329.529,356.485 332.900 C 356.591 336.298,356.673 336.632,357.500 336.995 C 358.787 337.560,358.922 346.800,357.643 346.800 C 356.601 346.800,356.400 347.542,356.400 351.386 C 356.400 354.370,356.319 354.728,355.600 354.916 C 354.969 355.081,354.800 355.462,354.800 356.719 C 354.800 358.086,354.657 358.349,353.800 358.564 C 352.919 358.785,352.800 359.029,352.800 360.608 C 352.800 361.593,352.620 362.423,352.400 362.450 C 352.180 362.478,351.775 362.523,351.500 362.550 C 350.984 362.602,350.935 362.772,350.850 364.792 C 350.812 365.710,350.570 366.043,349.800 366.236 C 349.203 366.386,348.800 366.773,348.800 367.197 C 348.800 367.588,348.350 368.203,347.800 368.563 C 347.057 369.050,346.800 369.569,346.800 370.581 C 346.800 371.690,346.632 371.968,345.900 372.072 C 345.322 372.154,344.954 372.522,344.872 373.100 C 344.790 373.678,344.468 374.000,343.972 374.000 C 343.415 374.000,343.200 374.279,343.200 375.000 C 343.200 375.800,343.000 376.000,342.200 376.000 C 341.284 376.000,341.200 376.149,341.200 377.772 C 341.200 379.305,341.079 379.562,340.300 379.672 L 339.400 379.800 339.294 392.300 L 339.189 404.800 340.194 404.800 C 341.208 404.800,341.778 406.728,340.800 406.850 C 340.580 406.878,340.175 406.923,339.900 406.950 C 339.540 406.986,339.364 408.290,339.271 411.596 C 339.129 416.638,339.179 416.415,338.137 416.568 C 337.315 416.689,337.320 416.670,337.250 419.972 C 337.205 422.110,337.111 422.357,336.300 422.472 C 335.722 422.554,335.354 422.922,335.272 423.500 C 335.192 424.067,334.868 424.400,334.397 424.400 C 333.817 424.400,333.588 424.805,333.379 426.200 C 333.169 427.602,332.942 428.000,332.355 428.000 C 331.816 428.000,331.600 428.287,331.600 429.000 C 331.600 429.800,331.400 430.000,330.600 430.000 C 329.808 430.000,329.600 430.202,329.600 430.972 C 329.600 431.676,329.351 431.980,328.700 432.072 C 328.122 432.154,327.754 432.522,327.672 433.100 C 327.580 433.751,327.276 434.000,326.572 434.000 C 325.878 434.000,325.600 434.221,325.600 434.772 C 325.600 435.268,325.278 435.590,324.700 435.672 C 324.122 435.754,323.754 436.122,323.672 436.700 C 323.587 437.300,323.254 437.615,322.672 437.646 C 322.192 437.672,321.620 437.734,321.400 437.785 C 321.180 437.836,320.775 437.906,320.500 437.939 C 320.225 437.973,320.000 438.340,320.000 438.757 C 320.000 439.233,319.624 439.608,318.984 439.768 C 318.425 439.909,318.053 440.162,318.157 440.331 C 318.464 440.827,317.782 441.644,316.960 441.765 C 316.161 441.882,316.130 441.965,316.050 444.200 C 316.007 445.413,315.867 445.600,315.000 445.600 C 314.200 445.600,314.000 445.800,314.000 446.600 C 314.000 447.314,313.784 447.600,313.243 447.600 C 312.272 447.600,312.000 448.351,312.000 451.033 C 312.000 452.893,311.893 453.200,311.243 453.200 C 310.167 453.200,310.000 453.931,310.000 458.633 C 310.000 462.508,309.945 462.800,309.214 462.800 C 308.495 462.800,308.419 463.130,308.314 466.700 C 308.206 470.400,308.154 470.607,307.300 470.728 C 306.467 470.846,306.400 471.059,306.400 473.600 C 306.400 476.141,306.333 476.354,305.500 476.472 C 304.756 476.578,304.579 476.888,304.479 478.262 C 304.378 479.643,304.192 479.965,303.379 480.170 C 302.776 480.321,302.400 480.703,302.400 481.164 C 302.400 481.630,302.021 482.008,301.400 482.164 C 300.769 482.323,300.400 482.698,300.400 483.181 C 300.400 483.602,300.040 484.060,299.600 484.200 C 299.160 484.340,298.800 484.789,298.800 485.199 C 298.800 485.667,298.466 485.992,297.900 486.072 C 297.322 486.154,296.954 486.522,296.872 487.100 C 296.780 487.751,296.476 488.000,295.772 488.000 C 295.002 488.000,294.800 488.208,294.800 489.000 C 294.800 489.940,293.548 490.344,291.524 490.055 C 291.373 490.034,291.138 490.366,291.002 490.794 C 290.782 491.486,288.459 492.340,287.500 492.081 C 287.335 492.036,287.221 492.135,287.247 492.300 C 287.405 493.300,287.027 493.567,285.300 493.678 C 283.679 493.782,283.381 493.932,283.272 494.700 C 283.156 495.517,282.927 495.600,280.781 495.600 C 278.730 495.600,278.336 495.726,277.791 496.558 C 277.445 497.085,276.811 497.608,276.381 497.721 C 275.770 497.881,275.600 498.274,275.600 499.534 L 275.600 501.142 277.700 501.391 C 278.855 501.528,284.390 501.586,290.000 501.520 L 300.200 501.400 300.328 500.500 C 300.449 499.649,300.636 499.600,303.799 499.600 C 307.062 499.600,308.400 499.126,308.400 497.971 C 308.400 497.767,309.210 497.600,310.200 497.600 C 311.853 497.600,312.000 497.519,312.000 496.600 C 312.000 495.667,312.133 495.600,314.000 495.600 C 315.855 495.600,316.000 495.529,316.000 494.622 C 316.000 493.739,316.185 493.632,317.900 493.522 C 319.521 493.418,319.819 493.268,319.928 492.500 C 320.046 491.668,321.303 491.277,322.934 491.564 C 323.118 491.596,323.362 491.268,323.475 490.834 C 323.589 490.400,324.068 489.990,324.541 489.922 C 325.070 489.847,325.448 489.464,325.525 488.925 C 325.602 488.379,325.979 488.002,326.525 487.925 C 327.079 487.846,327.447 487.470,327.528 486.900 C 327.620 486.249,327.924 486.000,328.628 486.000 C 329.398 486.000,329.600 485.792,329.600 485.000 C 329.600 484.200,329.800 484.000,330.600 484.000 C 331.400 484.000,331.600 483.800,331.600 483.000 C 331.600 482.267,331.813 482.000,332.400 482.000 C 332.987 482.000,333.200 481.733,333.200 481.000 C 333.200 480.200,333.400 480.000,334.200 480.000 C 334.933 480.000,335.200 479.787,335.200 479.200 C 335.200 478.613,335.467 478.400,336.200 478.400 C 337.000 478.400,337.200 478.200,337.200 477.400 C 337.200 476.600,337.400 476.400,338.200 476.400 C 338.992 476.400,339.200 476.198,339.200 475.428 C 339.200 474.724,339.449 474.420,340.100 474.328 C 340.678 474.246,341.046 473.878,341.128 473.300 C 341.210 472.722,341.532 472.400,342.028 472.400 C 342.585 472.400,342.800 472.121,342.800 471.400 C 342.800 470.600,343.000 470.400,343.800 470.400 C 344.600 470.400,344.800 470.200,344.800 469.400 C 344.800 468.850,344.980 468.377,345.200 468.350 C 345.420 468.323,345.825 468.277,346.100 468.250 C 346.390 468.221,346.651 467.498,346.722 466.525 C 346.822 465.151,347.001 464.827,347.722 464.725 C 348.270 464.647,348.647 464.271,348.725 463.725 C 348.802 463.179,349.179 462.802,349.725 462.725 C 350.464 462.619,350.619 462.304,350.722 460.700 C 350.832 458.985,350.939 458.800,351.822 458.800 C 352.599 458.800,352.800 458.594,352.800 457.800 C 352.800 457.067,353.013 456.800,353.600 456.800 C 354.281 456.800,354.400 456.533,354.400 455.000 C 354.400 453.347,354.481 453.200,355.400 453.200 C 356.249 453.200,356.400 453.015,356.400 451.976 C 356.400 451.303,356.544 450.842,356.719 450.950 C 357.128 451.203,358.185 450.557,358.250 450.015 C 358.278 449.787,358.322 449.073,358.350 448.428 C 358.388 447.536,358.615 447.225,359.300 447.128 C 360.048 447.022,360.221 446.713,360.323 445.300 C 360.420 443.966,360.603 443.600,361.176 443.600 C 361.945 443.600,362.385 442.562,362.395 440.728 C 362.399 439.923,362.624 439.624,363.300 439.528 C 364.068 439.419,364.218 439.121,364.322 437.500 C 364.423 435.926,364.577 435.600,365.222 435.600 C 365.875 435.600,366.000 435.317,366.000 433.843 C 366.000 432.303,366.123 432.056,367.000 431.836 C 367.899 431.610,368.000 431.384,368.000 429.592 C 368.000 428.497,368.135 427.629,368.300 427.664 C 369.477 427.913,370.000 427.026,370.000 424.785 C 370.000 422.674,370.084 422.444,370.900 422.328 C 371.668 422.219,371.818 421.921,371.922 420.300 C 372.020 418.770,372.186 418.400,372.775 418.400 C 373.653 418.400,373.987 417.340,373.995 414.528 C 373.999 412.685,374.100 412.441,374.900 412.328 C 375.633 412.224,375.824 411.906,375.929 410.617 C 376.011 409.616,376.341 408.836,376.829 408.495 C 377.452 408.058,377.600 407.469,377.600 405.421 C 377.600 403.064,377.669 402.869,378.582 402.640 C 379.487 402.413,379.573 402.182,379.682 399.697 C 379.760 397.904,379.968 396.983,380.300 396.950 C 380.575 396.923,380.980 396.878,381.200 396.850 C 381.423 396.822,381.600 395.576,381.600 394.028 C 381.600 391.458,381.666 391.246,382.500 391.128 C 383.349 391.007,383.407 390.791,383.515 387.326 C 383.622 383.879,383.684 383.644,384.515 383.526 C 385.323 383.411,385.410 383.146,385.518 380.500 C 385.619 377.988,385.734 377.600,386.375 377.600 C 387.388 377.600,387.600 376.842,387.600 373.214 C 387.600 370.430,387.686 370.071,388.400 369.884 C 389.142 369.690,389.200 369.338,389.200 365.037 L 389.200 360.400 390.200 360.400 L 391.200 360.400 391.200 356.400 C 391.200 352.742,391.265 352.400,391.957 352.400 C 393.056 352.400,393.200 351.682,393.200 346.211 C 393.200 341.292,393.201 341.286,394.200 341.036 L 395.200 340.785 395.200 334.992 C 395.200 331.397,395.352 329.200,395.600 329.200 C 395.820 329.200,396.128 329.213,396.284 329.230 C 396.945 329.298,397.145 327.416,397.172 320.900 C 397.195 315.120,397.295 314.000,397.786 314.000 C 399.007 314.000,399.200 312.447,399.200 302.626 C 399.200 296.342,399.344 292.800,399.600 292.800 C 399.864 292.800,400.000 278.400,400.000 250.400 C 400.000 222.921,399.862 208.000,399.607 208.000 C 399.364 208.000,399.174 204.377,399.107 198.500 C 399.001 189.107,398.990 188.996,398.108 188.609 C 397.239 188.227,397.214 188.038,397.108 180.809 C 397.002 173.558,396.981 173.392,396.100 173.005 C 395.233 172.625,395.198 172.408,395.150 167.105 C 395.123 164.077,395.055 161.420,395.000 161.200 C 394.945 160.980,394.878 160.530,394.850 160.200 C 394.822 159.870,394.440 159.600,394.000 159.600 C 393.245 159.600,393.200 159.333,393.200 154.808 C 393.200 150.045,393.194 150.014,392.212 149.767 C 391.241 149.524,391.223 149.441,391.112 144.860 C 391.004 140.371,390.967 140.195,390.100 140.072 C 389.229 139.949,389.200 139.802,389.200 135.576 C 389.200 131.640,389.121 131.157,388.400 130.707 C 387.754 130.304,387.600 129.774,387.600 127.954 C 387.600 124.711,387.205 123.126,386.339 122.900 C 385.727 122.740,385.600 122.307,385.600 120.386 C 385.600 117.550,385.340 116.800,384.357 116.800 C 383.681 116.800,383.600 116.476,383.600 113.774 C 383.600 110.600,383.167 109.200,382.186 109.200 C 381.743 109.200,381.600 108.669,381.600 107.033 C 381.600 104.362,381.328 103.600,380.375 103.600 C 379.734 103.600,379.619 103.212,379.518 100.700 C 379.410 98.039,379.326 97.789,378.500 97.672 C 377.666 97.554,377.600 97.342,377.600 94.772 C 377.600 92.293,377.518 92.000,376.822 92.000 C 376.177 92.000,376.023 91.674,375.922 90.100 C 375.818 88.479,375.668 88.181,374.900 88.072 C 374.073 87.955,374.000 87.735,374.000 85.364 C 374.000 82.999,373.916 82.745,373.000 82.327 C 372.157 81.943,372.000 81.599,372.000 80.136 C 372.000 78.551,371.913 78.400,371.000 78.400 C 370.036 78.400,370.000 78.306,370.000 75.814 C 370.000 73.537,368.668 71.032,368.337 72.686 C 368.303 72.859,368.168 72.100,368.037 71.000 C 367.838 69.317,367.657 68.980,366.900 68.872 C 366.118 68.761,366.000 68.507,366.000 66.935 C 366.000 65.478,365.848 65.085,365.221 64.921 C 364.635 64.768,364.412 64.307,364.321 63.059 C 364.228 61.788,363.989 61.308,363.300 61.005 C 362.569 60.685,362.400 60.290,362.400 58.905 C 362.400 57.363,362.306 57.200,361.422 57.200 C 360.539 57.200,360.432 57.015,360.322 55.300 C 360.218 53.679,360.068 53.381,359.300 53.272 C 358.543 53.165,358.400 52.898,358.400 51.586 C 358.400 50.212,356.926 48.333,356.753 49.486 C 356.727 49.659,356.590 49.260,356.450 48.600 C 356.271 47.760,355.926 47.362,355.297 47.272 C 354.522 47.162,354.400 46.904,354.400 45.372 C 354.400 43.867,354.280 43.600,353.600 43.600 C 353.088 43.600,352.800 43.333,352.800 42.860 C 352.800 41.577,351.944 39.600,351.389 39.600 C 351.096 39.600,350.798 39.195,350.728 38.700 C 350.647 38.130,350.279 37.754,349.725 37.675 C 349.179 37.598,348.802 37.221,348.725 36.675 C 348.646 36.121,348.270 35.753,347.700 35.672 C 347.037 35.578,346.788 35.262,346.754 34.472 C 346.667 32.443,346.599 32.202,346.100 32.151 C 345.825 32.123,345.433 32.078,345.228 32.050 C 345.023 32.023,344.798 31.595,344.728 31.100 C 344.646 30.522,344.278 30.154,343.700 30.072 C 343.049 29.980,342.800 29.676,342.800 28.972 C 342.800 28.278,342.579 28.000,342.028 28.000 C 341.532 28.000,341.210 27.678,341.128 27.100 C 341.047 26.530,340.679 26.154,340.125 26.075 C 339.579 25.998,339.202 25.621,339.125 25.075 C 339.046 24.521,338.670 24.153,338.100 24.072 C 337.522 23.990,337.200 23.668,337.200 23.172 C 337.200 22.615,336.921 22.400,336.200 22.400 C 335.400 22.400,335.200 22.200,335.200 21.400 C 335.200 20.600,335.000 20.400,334.200 20.400 C 333.400 20.400,333.200 20.200,333.200 19.400 C 333.200 18.679,332.985 18.400,332.428 18.400 C 331.932 18.400,331.610 18.078,331.528 17.500 C 331.447 16.930,331.079 16.554,330.525 16.475 C 329.979 16.398,329.602 16.021,329.525 15.475 C 329.446 14.921,329.070 14.553,328.500 14.472 C 327.967 14.396,327.600 14.065,327.600 13.660 C 327.600 13.265,327.087 12.782,326.390 12.519 C 325.724 12.267,325.229 11.823,325.290 11.531 C 325.366 11.161,324.823 10.963,323.500 10.878 C 321.785 10.768,321.600 10.661,321.600 9.778 C 321.600 9.070,321.381 8.800,320.808 8.800 C 320.296 8.800,319.926 8.446,319.764 7.800 C 319.545 6.928,319.294 6.800,317.800 6.800 C 316.307 6.800,316.055 6.672,315.836 5.802 C 315.699 5.254,315.454 4.825,315.293 4.850 C 313.794 5.080,312.000 4.721,312.000 4.190 C 312.000 3.288,310.301 2.800,307.161 2.800 L 304.375 2.800 304.487 7.500 M111.272 115.700 C 111.395 116.567,111.571 116.604,116.074 116.712 C 120.557 116.820,120.753 116.861,120.874 117.712 C 120.988 118.513,121.260 118.611,123.661 118.717 C 126.109 118.825,126.342 118.913,126.569 119.817 C 126.731 120.466,127.097 120.800,127.645 120.800 C 128.125 120.800,128.559 121.122,128.674 121.563 C 128.876 122.335,129.892 122.785,131.457 122.795 C 132.034 122.798,132.395 123.126,132.564 123.800 C 132.720 124.419,133.099 124.800,133.561 124.800 C 133.971 124.800,134.401 125.160,134.516 125.600 C 134.636 126.060,135.062 126.400,135.516 126.400 C 135.980 126.400,136.396 126.743,136.524 127.230 C 136.643 127.686,137.099 128.153,137.536 128.267 C 137.974 128.382,138.441 128.909,138.574 129.438 C 138.707 129.967,139.069 130.400,139.380 130.400 C 139.690 130.400,140.002 130.805,140.072 131.300 C 140.153 131.870,140.521 132.246,141.075 132.325 C 141.621 132.402,141.998 132.779,142.075 133.325 C 142.153 133.870,142.530 134.247,143.075 134.325 C 143.621 134.402,143.998 134.779,144.075 135.325 C 144.154 135.879,144.530 136.247,145.100 136.328 C 145.879 136.438,146.000 136.695,146.000 138.228 C 146.000 139.851,146.084 140.000,147.000 140.000 C 147.800 140.000,148.000 140.200,148.000 141.000 C 148.000 141.733,148.213 142.000,148.800 142.000 C 149.405 142.000,149.601 142.268,149.605 143.100 C 149.615 144.984,150.049 146.000,150.847 146.000 C 151.473 146.000,151.600 146.304,151.600 147.800 C 151.600 149.453,151.681 149.600,152.600 149.600 C 153.533 149.600,153.600 149.733,153.600 151.600 C 153.600 153.455,153.671 153.600,154.578 153.600 C 155.461 153.600,155.568 153.785,155.678 155.500 C 155.781 157.109,155.935 157.419,156.682 157.526 C 157.477 157.639,157.576 157.915,157.682 160.326 C 157.789 162.753,157.883 163.012,158.700 163.128 C 159.533 163.246,159.600 163.459,159.600 166.001 C 159.600 168.395,159.702 168.779,160.400 169.000 C 161.076 169.215,161.200 169.606,161.202 171.527 C 161.205 174.385,161.854 176.800,162.619 176.800 C 163.072 176.800,163.200 177.417,163.200 179.592 C 163.200 182.237,163.253 182.398,164.200 182.636 C 165.107 182.863,165.725 188.115,165.261 191.660 C 165.242 191.803,165.671 192.031,166.213 192.168 L 167.200 192.415 167.200 197.816 C 167.200 203.180,167.207 203.220,168.193 203.670 L 169.187 204.122 169.293 214.561 C 169.375 222.556,169.517 225.012,169.900 225.050 C 170.175 225.078,170.580 225.123,170.800 225.150 C 171.062 225.183,171.200 234.486,171.200 252.157 L 171.200 279.113 170.202 279.364 C 169.654 279.501,169.225 279.746,169.250 279.907 C 169.274 280.068,169.273 284.282,169.247 289.272 L 169.200 298.344 168.300 298.472 C 167.421 298.597,167.397 298.733,167.289 304.274 C 167.181 309.793,167.154 309.951,166.289 310.074 C 165.449 310.193,165.394 310.415,165.286 314.100 C 165.183 317.584,165.092 318.000,164.432 318.000 C 163.488 318.000,163.212 319.056,163.205 322.700 C 163.201 325.267,163.114 325.600,162.450 325.600 C 161.605 325.600,161.200 326.977,161.200 329.850 C 161.200 331.473,160.954 331.814,159.900 331.647 C 159.735 331.621,159.621 331.735,159.647 331.900 C 160.044 334.415,159.525 337.132,158.602 337.364 C 158.054 337.501,157.625 337.746,157.650 337.907 C 158.056 340.550,157.531 343.200,156.600 343.200 C 155.687 343.200,155.600 343.351,155.600 344.932 C 155.600 346.371,155.430 346.756,154.600 347.200 C 153.695 347.684,153.600 347.976,153.600 350.268 C 153.600 352.702,153.561 352.800,152.600 352.800 C 151.681 352.800,151.600 352.947,151.600 354.600 C 151.600 356.128,151.480 356.400,150.808 356.400 C 150.299 356.400,149.927 356.753,149.768 357.386 C 149.632 357.928,149.178 358.480,148.760 358.613 C 148.166 358.801,148.000 359.236,148.000 360.599 C 148.000 362.104,147.876 362.362,147.100 362.472 C 146.522 362.554,146.154 362.922,146.072 363.500 C 146.002 363.995,145.777 364.422,145.572 364.450 C 145.367 364.478,144.975 364.523,144.700 364.552 C 144.230 364.600,144.148 364.915,144.043 367.072 C 144.014 367.656,143.702 367.987,143.100 368.072 C 142.530 368.153,142.154 368.521,142.075 369.075 C 141.998 369.621,141.621 369.998,141.075 370.075 C 140.535 370.152,140.153 370.530,140.077 371.062 C 140.002 371.587,139.572 372.021,138.977 372.170 C 138.352 372.327,138.000 372.701,138.000 373.208 C 138.000 373.733,137.731 374.000,137.200 374.000 C 136.613 374.000,136.400 374.267,136.400 375.000 C 136.400 375.800,136.200 376.000,135.400 376.000 C 134.677 376.000,134.400 376.215,134.400 376.775 C 134.400 377.387,134.022 377.608,132.613 377.819 C 131.386 378.003,130.754 378.316,130.594 378.818 C 130.467 379.220,129.966 379.606,129.481 379.675 C 128.921 379.754,128.553 380.128,128.472 380.700 C 128.362 381.479,128.105 381.600,126.572 381.600 C 124.949 381.600,124.800 381.684,124.800 382.600 C 124.800 383.578,124.733 383.600,121.800 383.600 C 118.867 383.600,118.800 383.622,118.800 384.600 L 118.800 385.600 110.243 385.600 L 101.687 385.600 101.436 384.600 C 101.198 383.654,101.035 383.600,98.420 383.600 C 95.858 383.600,95.646 383.534,95.528 382.700 C 95.419 381.932,95.121 381.782,93.500 381.678 C 91.785 381.568,91.600 381.461,91.600 380.578 C 91.600 379.801,91.394 379.600,90.600 379.600 C 89.887 379.600,89.600 379.384,89.600 378.845 C 89.600 378.258,89.202 378.031,87.800 377.821 C 86.378 377.608,86.000 377.388,86.000 376.775 C 86.000 376.215,85.723 376.000,85.000 376.000 C 84.200 376.000,84.000 375.800,84.000 375.000 C 84.000 374.200,83.800 374.000,83.000 374.000 C 82.200 374.000,82.000 373.800,82.000 373.000 C 82.000 372.200,81.800 372.000,81.000 372.000 C 80.200 372.000,80.000 371.800,80.000 371.000 C 80.000 370.277,79.785 370.000,79.225 370.000 C 78.612 370.000,78.392 369.622,78.179 368.200 C 77.973 366.826,77.737 366.400,77.182 366.400 C 76.733 366.400,76.407 366.056,76.328 365.500 C 76.246 364.922,75.878 364.554,75.300 364.472 C 74.649 364.380,74.400 364.076,74.400 363.372 C 74.400 362.602,74.192 362.400,73.400 362.400 C 72.467 362.400,72.400 362.267,72.400 360.400 C 72.400 358.546,72.329 358.400,71.423 358.400 C 70.560 358.400,70.432 358.202,70.323 356.700 C 70.221 355.287,70.048 354.978,69.300 354.872 C 68.518 354.761,68.400 354.507,68.400 352.935 C 68.400 351.462,68.251 351.086,67.600 350.916 C 67.003 350.760,66.800 350.370,66.800 349.382 C 66.800 348.135,65.970 346.800,65.194 346.800 C 65.003 346.800,64.791 346.035,64.723 345.100 C 64.621 343.687,64.448 343.378,63.700 343.272 C 62.891 343.157,62.800 342.921,62.800 340.946 C 62.800 338.555,62.295 337.200,61.404 337.200 C 60.982 337.200,60.806 336.509,60.718 334.500 C 60.611 332.047,60.518 331.788,59.700 331.672 C 58.859 331.553,58.800 331.350,58.800 328.572 C 58.800 325.867,58.728 325.600,58.000 325.600 C 57.253 325.600,57.200 325.333,57.200 321.574 C 57.200 317.465,56.828 316.000,55.786 316.000 C 55.309 316.000,55.200 315.226,55.200 311.833 C 55.200 307.131,55.033 306.400,53.957 306.400 C 53.247 306.400,53.200 306.017,53.200 300.229 C 53.200 294.036,52.929 292.800,51.571 292.800 C 51.357 292.800,51.200 289.777,51.200 285.633 C 51.200 277.874,51.101 277.200,49.957 277.200 C 49.087 277.200,48.730 223.259,49.600 223.150 C 49.820 223.123,50.225 223.078,50.500 223.050 C 51.123 222.988,51.090 223.401,51.150 214.800 C 51.197 208.020,51.244 207.600,51.957 207.600 C 53.062 207.600,53.200 206.886,53.200 201.167 C 53.200 196.387,53.256 196.000,53.948 196.000 C 54.870 196.000,55.189 194.386,55.196 189.700 C 55.200 186.736,55.277 186.400,55.953 186.400 C 56.903 186.400,57.188 185.362,57.195 181.871 C 57.200 179.324,57.856 177.590,58.552 178.286 C 58.689 178.422,58.800 176.887,58.800 174.874 C 58.800 171.305,58.825 171.209,59.800 170.964 C 60.744 170.727,60.800 170.562,60.800 167.984 C 60.800 165.605,60.903 165.221,61.600 165.000 C 62.040 164.860,62.423 164.578,62.450 164.373 C 62.477 164.168,62.545 163.820,62.600 163.600 C 62.655 163.380,62.723 162.419,62.750 161.464 C 62.791 160.026,62.971 159.650,63.800 159.273 C 64.716 158.855,64.800 158.601,64.800 156.236 C 64.800 153.865,64.873 153.645,65.700 153.528 C 66.468 153.419,66.618 153.121,66.722 151.500 C 66.823 149.926,66.977 149.600,67.622 149.600 C 68.275 149.600,68.400 149.317,68.400 147.843 C 68.400 146.303,68.523 146.056,69.400 145.836 C 70.281 145.615,70.400 145.371,70.400 143.792 C 70.400 142.147,70.482 142.000,71.400 142.000 C 72.200 142.000,72.400 141.800,72.400 141.000 C 72.400 140.270,72.614 140.000,73.192 140.000 C 73.704 140.000,74.074 139.646,74.236 139.000 C 74.396 138.361,74.768 138.000,75.267 138.000 C 75.696 138.000,75.936 137.820,75.800 137.600 C 75.664 137.380,75.743 137.200,75.976 137.200 C 76.209 137.200,76.400 136.583,76.400 135.828 C 76.400 134.709,76.566 134.432,77.300 134.328 C 77.878 134.246,78.246 133.878,78.328 133.300 C 78.410 132.722,78.732 132.400,79.228 132.400 C 79.779 132.400,80.000 132.122,80.000 131.428 C 80.000 130.724,80.249 130.420,80.900 130.328 C 81.478 130.246,81.846 129.878,81.928 129.300 C 82.020 128.649,82.324 128.400,83.028 128.400 C 83.798 128.400,84.000 128.192,84.000 127.400 C 84.000 126.600,84.200 126.400,85.000 126.400 C 85.721 126.400,86.000 126.185,86.000 125.628 C 86.000 125.132,86.322 124.810,86.900 124.728 C 87.471 124.647,87.846 124.279,87.925 123.722 C 88.027 123.001,88.351 122.822,89.725 122.722 C 91.100 122.622,91.422 122.442,91.525 121.721 C 91.631 120.979,91.944 120.823,93.525 120.721 C 95.107 120.619,95.420 120.462,95.525 119.721 C 95.631 118.979,95.944 118.823,97.525 118.721 C 99.121 118.618,99.419 118.466,99.528 117.700 C 99.652 116.827,99.791 116.800,104.220 116.800 C 108.755 116.800,108.786 116.794,109.036 115.800 C 109.373 114.458,111.085 114.381,111.272 115.700 M103.660 136.737 C 103.781 137.648,103.398 137.939,101.754 138.186 C 100.433 138.384,99.853 138.675,99.714 139.209 C 99.606 139.619,99.132 140.010,98.659 140.078 C 98.130 140.153,97.752 140.536,97.675 141.075 C 97.598 141.621,97.221 141.998,96.675 142.075 C 96.135 142.152,95.753 142.530,95.677 143.062 C 95.602 143.587,95.172 144.021,94.577 144.170 C 93.723 144.384,93.600 144.641,93.600 146.208 C 93.600 147.733,93.481 148.000,92.800 148.000 C 92.351 148.000,92.000 148.267,92.000 148.609 C 92.000 148.943,91.550 149.422,91.000 149.673 C 90.157 150.057,90.000 150.401,90.000 151.864 C 90.000 153.449,89.913 153.600,89.000 153.600 C 88.067 153.600,88.000 153.733,88.000 155.600 C 88.000 157.467,87.933 157.600,87.000 157.600 C 86.081 157.600,86.000 157.747,86.000 159.400 C 86.000 160.899,85.874 161.200,85.243 161.200 C 84.357 161.200,84.000 161.947,84.000 163.805 C 84.000 164.889,83.829 165.169,83.100 165.272 C 82.337 165.381,82.170 165.704,82.000 167.400 C 81.886 168.543,81.600 169.400,81.333 169.400 C 80.561 169.400,80.466 169.695,80.341 172.473 C 80.275 173.940,80.126 175.132,80.011 175.123 C 78.456 174.993,78.400 175.126,78.400 178.972 C 78.400 182.580,78.361 182.750,77.500 182.872 C 76.651 182.993,76.594 183.208,76.485 186.700 C 76.422 188.735,76.197 190.400,75.985 190.400 C 75.773 190.400,75.485 190.385,75.345 190.366 C 74.647 190.273,74.412 191.856,74.406 196.672 C 74.400 201.833,74.381 201.947,73.500 202.072 C 72.607 202.199,72.599 202.257,72.491 209.900 C 72.392 216.952,72.323 217.600,71.676 217.600 C 70.613 217.600,70.625 217.239,70.612 249.000 L 70.600 278.600 71.500 278.995 C 72.398 279.389,72.400 279.408,72.400 289.262 C 72.400 299.788,72.468 300.400,73.643 300.400 C 74.344 300.400,74.400 300.757,74.400 305.200 L 74.400 310.000 75.387 310.000 L 76.375 310.000 76.487 314.700 C 76.596 319.230,76.633 319.405,77.500 319.528 C 78.341 319.647,78.400 319.850,78.400 322.628 C 78.400 325.259,78.485 325.600,79.144 325.600 C 79.901 325.600,80.387 327.727,80.397 331.077 C 80.399 331.883,80.685 332.554,81.173 332.896 C 81.696 333.262,81.987 334.014,82.073 335.219 C 82.179 336.703,82.347 337.021,83.082 337.125 C 83.866 337.237,83.976 337.522,84.082 339.725 C 84.183 341.848,84.328 342.256,85.100 342.595 C 85.665 342.843,86.017 343.364,86.046 343.995 C 86.139 346.017,86.216 346.207,87.100 346.595 C 87.652 346.837,88.000 347.340,88.000 347.895 C 88.000 348.594,88.228 348.800,89.000 348.800 C 89.919 348.800,90.000 348.946,90.000 350.610 C 90.000 352.172,90.137 352.472,91.000 352.800 C 91.550 353.009,92.000 353.455,92.000 353.790 C 92.000 354.133,92.350 354.400,92.800 354.400 C 93.312 354.400,93.600 354.667,93.600 355.140 C 93.600 356.387,94.449 358.400,94.975 358.400 C 95.248 358.400,95.677 358.850,95.927 359.400 C 96.301 360.221,96.666 360.400,97.964 360.400 C 99.298 360.400,99.564 360.540,99.672 361.300 C 99.754 361.878,100.122 362.246,100.700 362.328 C 101.195 362.398,101.600 362.707,101.600 363.014 C 101.600 364.157,103.203 364.400,110.766 364.400 L 118.385 364.400 118.636 363.400 C 118.805 362.726,119.166 362.398,119.743 362.395 C 121.308 362.385,122.324 361.935,122.526 361.163 C 122.641 360.722,123.075 360.400,123.555 360.400 C 124.106 360.400,124.469 360.065,124.636 359.400 C 124.793 358.774,125.170 358.400,125.643 358.400 C 126.163 358.400,126.400 358.116,126.400 357.495 C 126.400 356.940,126.748 356.437,127.300 356.195 C 127.957 355.906,128.233 355.402,128.323 354.325 C 128.420 353.158,128.629 352.824,129.323 352.725 C 129.878 352.646,130.247 352.270,130.328 351.701 C 130.407 351.140,130.821 350.710,131.428 350.557 C 132.270 350.346,132.400 350.082,132.400 348.584 C 132.400 347.096,132.525 346.838,133.300 346.728 C 134.232 346.596,134.267 346.512,134.350 344.228 C 134.390 343.128,134.579 342.830,135.300 342.728 C 136.044 342.622,136.221 342.312,136.321 340.941 C 136.412 339.693,136.635 339.232,137.221 339.079 C 137.901 338.901,138.000 338.513,138.000 336.037 C 138.000 333.278,138.027 333.200,139.000 333.200 C 139.971 333.200,140.000 333.120,140.000 330.400 C 140.000 327.680,140.029 327.600,141.000 327.600 C 141.978 327.600,142.000 327.533,142.000 324.600 C 142.000 321.838,142.065 321.600,142.824 321.600 C 143.277 321.600,143.536 321.420,143.400 321.200 C 143.264 320.980,143.343 320.800,143.576 320.800 C 143.849 320.800,144.000 319.230,144.000 316.400 C 144.000 312.350,144.060 312.000,144.757 312.000 C 145.861 312.000,146.000 311.286,146.000 305.595 C 146.000 300.570,146.020 300.453,146.900 300.328 C 147.787 300.202,147.802 300.106,147.910 293.500 C 148.014 287.131,148.058 286.800,148.810 286.800 C 149.582 286.800,149.600 286.475,149.600 272.428 L 149.600 258.056 150.500 257.928 C 151.387 257.802,151.402 257.706,151.510 251.100 L 151.619 244.400 150.610 244.400 L 149.600 244.400 149.600 230.000 C 149.600 215.867,149.585 215.600,148.800 215.600 C 148.031 215.600,148.000 215.332,147.995 208.700 C 147.988 200.992,147.847 200.000,146.753 200.000 C 146.067 200.000,145.996 199.629,145.950 195.800 C 145.885 190.349,145.938 190.620,144.912 190.474 C 144.061 190.353,144.020 190.157,143.912 185.674 C 143.804 181.171,143.767 180.995,142.900 180.872 C 142.044 180.751,142.000 180.572,142.000 177.180 C 142.000 173.727,141.969 173.607,141.017 173.368 C 140.102 173.139,140.025 172.922,139.917 170.261 C 139.810 167.640,139.724 167.389,138.900 167.272 C 138.106 167.159,138.000 166.913,138.000 165.172 C 138.000 163.467,137.892 163.200,137.200 163.200 C 136.558 163.200,136.400 162.933,136.400 161.850 C 136.400 159.514,135.919 157.904,135.162 157.706 C 134.768 157.603,134.390 157.132,134.322 156.659 C 134.247 156.128,133.864 155.752,133.321 155.675 C 132.579 155.569,132.423 155.256,132.321 153.675 C 132.218 152.079,132.066 151.781,131.300 151.672 C 130.475 151.555,130.095 150.368,130.350 148.707 C 130.375 148.546,129.957 148.304,129.421 148.169 C 128.828 148.021,128.398 147.587,128.323 147.062 C 128.246 146.521,127.865 146.152,127.300 146.072 C 126.649 145.980,126.400 145.676,126.400 144.972 C 126.400 144.278,126.179 144.000,125.628 144.000 C 125.132 144.000,124.810 143.678,124.728 143.100 C 124.647 142.530,124.279 142.154,123.725 142.075 C 123.179 141.998,122.802 141.621,122.725 141.075 C 122.647 140.528,122.270 140.153,121.719 140.075 C 121.234 140.006,120.732 139.615,120.602 139.207 C 120.445 138.710,119.810 138.371,118.685 138.181 C 117.735 138.020,116.770 137.564,116.468 137.132 C 115.932 136.368,103.559 135.986,103.660 136.737 " stroke="none" fill="#dcdcdc" fill-rule="evenodd"></path><path id="path1" d="M240.800 488.985 C 240.800 489.936,240.675 490.000,238.800 490.000 C 237.088 490.000,236.800 490.112,236.800 490.775 C 236.800 491.391,236.418 491.608,234.949 491.829 C 233.644 492.024,233.041 492.321,232.907 492.832 C 232.770 493.358,232.261 493.591,231.059 493.679 C 229.688 493.779,229.378 493.956,229.272 494.700 C 229.159 495.494,228.913 495.600,227.172 495.600 C 225.335 495.600,225.200 495.669,225.200 496.600 C 225.200 497.400,225.000 497.600,224.200 497.600 C 223.285 497.600,223.200 497.750,223.200 499.357 C 223.200 501.652,222.987 501.600,232.433 501.600 L 240.400 501.600 240.400 500.600 C 240.400 499.800,240.600 499.600,241.400 499.600 C 242.200 499.600,242.400 499.400,242.400 498.600 C 242.400 497.800,242.600 497.600,243.400 497.600 C 244.200 497.600,244.400 497.400,244.400 496.600 C 244.400 495.800,244.600 495.600,245.400 495.600 C 246.331 495.600,246.400 495.465,246.400 493.628 C 246.400 491.887,246.506 491.641,247.300 491.528 C 248.062 491.420,248.200 491.155,248.200 489.800 L 248.200 488.200 244.500 488.085 L 240.800 487.970 240.800 488.985 " stroke="none" fill="#040404" fill-rule="evenodd"></path></g></svg>