<svg id="svg" version="1.1" xmlns="http://www.w3.org/2000/svg" xmlns:xlink="http://www.w3.org/1999/xlink" width="400" height="400" viewBox="0, 0, 400,400"><g id="svgg"><path id="path0" d="M302.000 122.294 C 302.898 122.640,304.399 124.505,304.400 125.276 C 304.400 125.648,304.571 126.058,304.780 126.187 C 305.934 126.901,304.128 146.482,301.975 156.600 C 301.788 157.480,301.452 159.100,301.228 160.200 C 301.004 161.300,300.636 162.875,300.411 163.700 C 300.185 164.525,299.848 165.785,299.662 166.500 C 298.952 169.232,297.517 173.829,297.166 174.495 C 296.965 174.877,296.800 175.464,296.800 175.800 C 296.800 176.136,296.633 176.723,296.429 177.105 C 296.224 177.487,295.390 179.600,294.574 181.800 C 291.818 189.234,286.498 200.665,282.526 207.690 C 279.267 213.455,274.970 217.697,270.000 220.058 C 268.570 220.737,267.087 221.452,266.705 221.646 C 266.323 221.841,265.659 222.000,265.229 222.000 C 264.799 222.000,264.348 222.160,264.227 222.356 C 264.106 222.551,263.421 222.807,262.704 222.925 C 261.987 223.042,260.410 223.439,259.200 223.808 C 257.990 224.177,256.550 224.565,256.000 224.670 C 255.450 224.774,254.640 225.014,254.200 225.203 C 253.760 225.391,252.860 225.640,252.200 225.755 C 250.060 226.128,246.305 226.982,238.800 228.801 C 238.030 228.988,236.320 229.341,235.000 229.586 C 233.680 229.832,231.832 230.205,230.894 230.416 C 229.956 230.627,228.663 230.800,228.020 230.800 C 227.378 230.800,226.345 230.998,225.726 231.240 C 225.107 231.483,223.475 231.843,222.100 232.040 C 220.725 232.238,218.385 232.588,216.900 232.818 C 214.004 233.267,210.156 233.786,205.500 234.354 C 203.905 234.549,201.430 234.901,200.000 235.137 C 195.217 235.924,191.219 236.294,173.500 237.587 C 151.484 239.193,111.294 238.988,106.124 237.243 C 100.270 235.267,96.229 231.680,97.558 229.637 C 97.862 229.171,98.222 229.158,99.662 229.557 C 102.147 230.247,134.174 229.917,146.400 229.075 C 151.570 228.720,157.620 228.422,159.845 228.414 C 162.070 228.406,164.838 228.220,165.996 228.001 C 167.154 227.781,170.373 227.399,173.150 227.151 C 179.430 226.592,184.004 226.131,188.400 225.615 C 190.270 225.395,193.240 225.046,195.000 224.839 C 196.760 224.632,199.910 224.163,202.000 223.796 C 206.525 223.001,210.265 222.447,213.000 222.167 C 214.100 222.054,215.360 221.799,215.800 221.600 C 216.240 221.401,217.500 221.152,218.600 221.046 C 221.378 220.778,224.521 220.220,225.031 219.904 C 225.266 219.759,226.615 219.433,228.029 219.181 C 229.443 218.928,231.500 218.550,232.600 218.340 C 233.700 218.131,235.320 217.860,236.200 217.739 C 237.080 217.617,237.971 217.356,238.180 217.159 C 238.389 216.962,239.214 216.800,240.013 216.800 C 240.813 216.800,241.593 216.673,241.748 216.518 C 241.990 216.277,245.645 215.258,250.800 213.996 C 251.570 213.807,252.830 213.473,253.600 213.254 C 254.370 213.034,255.450 212.737,256.000 212.594 C 258.097 212.048,264.800 208.837,264.800 208.379 C 264.800 208.200,265.168 207.937,265.617 207.795 C 266.354 207.561,272.800 201.545,272.800 201.091 C 272.800 200.987,273.751 199.304,274.914 197.351 C 277.712 192.649,284.400 179.059,284.400 178.074 C 284.400 177.813,284.580 177.600,284.800 177.600 C 285.020 177.600,285.200 177.238,285.200 176.795 C 285.200 176.352,285.359 175.677,285.553 175.295 C 286.058 174.302,286.636 172.883,287.428 170.687 C 287.808 169.635,288.272 168.679,288.459 168.563 C 288.647 168.448,288.800 167.924,288.800 167.400 C 288.800 166.876,288.980 166.336,289.200 166.200 C 289.420 166.064,289.600 165.601,289.600 165.171 C 289.600 164.741,289.762 164.077,289.961 163.695 C 290.160 163.313,290.544 162.190,290.815 161.200 C 291.086 160.210,291.734 158.110,292.254 156.533 C 292.774 154.956,293.200 153.291,293.200 152.833 C 293.200 152.375,293.362 152.000,293.560 152.000 C 293.758 152.000,294.017 151.235,294.136 150.300 C 294.255 149.365,294.538 147.700,294.764 146.600 C 295.198 144.486,295.520 142.826,296.629 137.000 C 297.006 135.020,297.389 131.195,297.480 128.500 L 297.646 123.600 294.423 123.600 L 291.200 123.600 291.190 124.900 C 291.185 125.615,290.990 126.920,290.756 127.800 C 290.267 129.644,289.360 134.317,288.816 137.800 C 288.610 139.120,288.357 140.560,288.255 141.000 C 288.152 141.440,287.853 142.880,287.591 144.200 C 287.328 145.520,286.875 147.410,286.584 148.400 C 286.293 149.390,285.838 151.010,285.574 152.000 C 284.667 155.386,284.417 156.204,283.182 159.800 C 282.503 161.780,281.491 164.750,280.933 166.400 C 280.376 168.050,279.689 169.850,279.408 170.400 C 278.897 171.401,278.162 173.096,277.587 174.600 C 276.295 177.983,269.171 192.536,268.711 192.733 C 268.540 192.807,268.400 193.055,268.400 193.286 C 268.400 193.725,266.280 196.799,264.716 198.628 C 262.601 201.101,255.712 205.200,253.670 205.200 C 253.279 205.200,252.789 205.370,252.580 205.577 C 252.230 205.925,251.508 206.140,247.000 207.245 C 246.120 207.460,244.680 207.821,243.800 208.047 C 242.920 208.273,241.570 208.546,240.800 208.654 C 240.030 208.761,239.040 209.005,238.600 209.194 C 238.160 209.384,237.080 209.642,236.200 209.768 C 234.066 210.073,231.627 210.559,228.000 211.403 C 224.943 212.114,222.873 212.516,218.600 213.225 C 217.280 213.444,215.120 213.806,213.800 214.029 C 212.480 214.251,210.410 214.583,209.200 214.765 C 207.990 214.948,206.010 215.289,204.800 215.524 C 202.136 216.042,198.225 216.617,193.400 217.199 C 191.420 217.439,188.630 217.809,187.200 218.023 C 182.172 218.774,172.818 219.697,163.200 220.392 C 160.010 220.622,156.918 220.910,156.329 221.031 C 154.438 221.419,150.135 218.022,146.593 213.344 C 145.950 212.495,145.104 211.451,144.712 211.025 C 144.320 210.598,144.000 210.104,144.000 209.926 C 144.000 209.747,143.370 208.725,142.600 207.653 C 141.830 206.581,141.200 205.527,141.200 205.309 C 141.200 205.092,140.570 203.705,139.800 202.228 C 139.030 200.751,138.400 199.105,138.400 198.571 C 138.400 198.037,138.220 197.600,138.000 197.600 C 137.780 197.600,137.600 197.071,137.600 196.424 C 137.600 195.777,137.420 195.136,137.200 195.000 C 136.980 194.864,136.800 194.334,136.800 193.822 C 136.800 193.310,136.531 192.376,136.202 191.746 C 135.874 191.116,135.604 189.756,135.602 188.724 C 135.601 187.692,135.420 186.736,135.200 186.600 C 134.653 186.262,134.653 164.400,135.200 164.400 C 135.429 164.400,135.600 163.200,135.600 161.600 C 135.600 160.000,135.771 158.800,136.000 158.800 C 136.220 158.800,136.399 158.305,136.398 157.700 L 136.395 156.600 135.857 157.630 C 135.562 158.197,135.225 159.502,135.109 160.530 C 134.801 163.266,134.370 163.600,131.151 163.600 L 128.400 163.600 128.400 165.613 C 128.400 166.720,128.130 168.272,127.800 169.062 C 127.073 170.802,126.957 182.196,127.625 186.354 C 128.758 193.421,129.757 197.520,131.192 201.000 C 131.374 201.440,131.933 202.880,132.435 204.200 C 132.937 205.520,133.724 207.230,134.183 208.000 C 134.642 208.770,135.282 209.940,135.604 210.600 C 136.365 212.158,141.030 218.722,142.253 219.955 C 144.350 222.069,145.838 221.935,118.500 222.082 L 94.800 222.209 94.760 220.004 L 94.720 217.800 94.347 219.393 C 94.142 220.269,93.800 221.160,93.587 221.373 C 92.908 222.052,93.098 229.875,93.800 230.145 C 94.130 230.271,94.400 230.741,94.400 231.187 C 94.400 231.659,94.663 232.000,95.029 232.000 C 96.030 232.000,97.000 233.160,96.454 233.706 C 95.894 234.266,95.853 237.062,96.400 237.400 C 96.620 237.536,96.800 238.439,96.800 239.408 C 96.800 241.196,99.844 245.148,101.284 245.229 C 101.568 245.245,102.340 245.595,103.000 246.007 C 105.325 247.456,106.532 248.000,107.428 248.000 C 107.926 248.000,108.393 248.164,108.467 248.365 C 109.084 250.053,174.123 250.233,179.685 248.562 C 180.383 248.352,189.457 247.660,195.600 247.349 C 197.470 247.254,199.360 247.016,199.800 246.820 C 200.240 246.625,202.670 246.263,205.200 246.017 C 210.569 245.495,214.763 244.971,218.400 244.368 C 219.830 244.131,222.170 243.847,223.600 243.736 C 225.030 243.626,226.371 243.370,226.580 243.168 C 226.789 242.965,227.968 242.800,229.200 242.800 C 230.432 242.800,231.632 242.608,231.867 242.373 C 232.102 242.138,233.353 241.769,234.647 241.554 C 235.941 241.339,237.990 240.991,239.200 240.781 C 240.410 240.571,242.259 240.286,243.308 240.148 C 244.358 240.010,245.314 239.740,245.432 239.548 C 245.550 239.357,246.526 239.200,247.600 239.200 C 248.674 239.200,249.651 239.042,249.770 238.848 C 249.890 238.655,251.385 238.189,253.094 237.812 C 254.802 237.436,256.613 236.965,257.119 236.764 C 257.624 236.564,258.559 236.400,259.195 236.400 C 259.832 236.400,260.464 236.220,260.600 236.000 C 260.736 235.780,261.456 235.600,262.200 235.600 C 262.944 235.600,263.664 235.420,263.800 235.200 C 263.936 234.980,264.697 234.800,265.492 234.800 C 266.287 234.800,267.221 234.560,267.569 234.266 C 267.916 233.972,269.243 233.492,270.519 233.198 C 271.794 232.904,272.930 232.514,273.042 232.332 C 273.155 232.149,273.642 231.987,274.124 231.971 C 274.606 231.955,275.540 231.597,276.200 231.175 C 276.860 230.754,277.670 230.298,278.000 230.162 C 280.306 229.211,281.127 228.729,281.976 227.826 C 282.506 227.262,283.139 226.800,283.383 226.800 C 283.948 226.800,288.000 222.718,288.000 222.149 C 288.000 221.915,288.360 221.398,288.800 221.000 C 289.240 220.602,289.600 220.056,289.600 219.787 C 289.600 219.518,289.870 219.074,290.200 218.800 C 290.530 218.526,290.800 218.004,290.800 217.639 C 290.800 217.275,291.160 216.717,291.600 216.400 C 292.040 216.083,292.400 215.628,292.400 215.390 C 292.400 214.786,294.390 210.854,294.835 210.579 C 295.036 210.454,295.200 210.003,295.200 209.576 C 295.200 209.149,295.380 208.800,295.600 208.800 C 295.820 208.800,296.000 208.565,296.000 208.279 C 296.000 207.609,297.954 203.675,298.435 203.379 C 298.636 203.254,298.800 202.623,298.800 201.976 C 298.800 201.329,298.980 200.800,299.200 200.800 C 299.420 200.800,299.600 200.535,299.600 200.212 C 299.600 199.889,299.960 198.983,300.400 198.200 C 300.840 197.417,301.200 196.432,301.200 196.011 C 301.200 195.591,301.380 195.136,301.600 195.000 C 301.820 194.864,302.000 194.425,302.000 194.025 C 302.000 193.625,302.270 193.074,302.600 192.800 C 302.930 192.526,303.200 191.885,303.200 191.375 C 303.200 190.865,303.380 190.336,303.600 190.200 C 303.820 190.064,304.000 189.601,304.000 189.171 C 304.000 188.741,304.208 187.987,304.462 187.495 C 305.453 185.579,305.600 185.185,305.600 184.454 C 305.600 184.038,305.870 183.474,306.200 183.200 C 306.542 182.916,306.800 182.044,306.800 181.175 C 306.800 180.335,306.980 179.536,307.200 179.400 C 307.420 179.264,307.600 178.724,307.600 178.200 C 307.600 177.676,307.780 177.136,308.000 177.000 C 308.220 176.864,308.400 176.234,308.400 175.600 C 308.400 174.966,308.580 174.336,308.800 174.200 C 309.020 174.064,309.200 173.243,309.200 172.376 C 309.200 171.509,309.380 170.800,309.600 170.800 C 309.820 170.800,310.001 170.125,310.002 169.300 C 310.004 168.475,310.274 167.284,310.602 166.654 C 310.931 166.024,311.200 164.730,311.200 163.778 C 311.200 162.826,311.380 161.936,311.600 161.800 C 311.820 161.664,312.000 160.699,312.000 159.656 C 312.000 158.613,312.153 157.589,312.341 157.380 C 313.506 156.080,314.392 129.264,313.281 128.894 C 313.017 128.806,312.800 128.247,312.800 127.652 C 312.800 126.412,309.439 122.800,308.286 122.800 C 307.909 122.800,307.600 122.620,307.600 122.400 C 307.600 122.165,306.321 122.013,304.500 122.032 C 302.795 122.049,301.670 122.167,302.000 122.294 M232.000 147.983 C 231.450 148.159,230.190 148.541,229.200 148.831 C 227.477 149.337,222.418 151.828,222.000 152.376 C 221.890 152.520,221.210 153.051,220.489 153.555 C 217.792 155.438,212.400 163.175,212.400 165.161 C 212.400 165.534,212.214 166.026,211.986 166.254 C 211.477 166.763,210.849 170.074,210.556 173.800 C 210.246 177.733,211.377 182.320,213.943 187.535 C 215.709 191.125,221.595 196.688,225.400 198.365 C 226.060 198.655,226.913 199.052,227.295 199.247 C 227.677 199.441,228.352 199.600,228.795 199.600 C 229.238 199.600,229.600 199.780,229.600 200.000 C 229.600 200.220,230.309 200.400,231.176 200.400 C 232.043 200.400,232.853 200.563,232.976 200.761 C 233.460 201.545,241.266 201.723,243.600 201.004 C 247.351 199.848,248.122 199.554,250.735 198.280 C 255.038 196.183,262.000 188.723,262.000 186.210 C 262.000 185.874,262.180 185.600,262.400 185.600 C 262.620 185.600,262.800 185.251,262.800 184.824 C 262.800 184.397,262.980 183.936,263.200 183.800 C 263.420 183.664,263.600 182.969,263.600 182.256 C 263.600 181.543,263.782 180.778,264.003 180.557 C 264.494 180.066,264.682 169.567,264.235 167.600 C 263.926 166.238,262.431 162.613,261.513 161.000 C 261.263 160.560,260.825 159.755,260.540 159.211 C 259.522 157.266,254.032 152.129,251.511 150.762 C 248.886 149.338,248.347 149.128,244.880 148.180 C 242.591 147.554,233.764 147.419,232.000 147.983 M242.198 156.797 C 243.517 157.013,244.657 157.372,244.732 157.595 C 244.806 157.818,245.212 158.000,245.633 158.000 C 246.055 158.000,246.400 158.180,246.400 158.400 C 246.400 158.620,246.741 158.800,247.158 158.800 C 247.575 158.800,248.340 159.264,248.858 159.830 C 249.376 160.397,250.449 161.482,251.243 162.242 C 253.074 163.994,254.930 167.662,255.371 170.400 C 255.495 171.170,255.710 172.464,255.848 173.275 C 256.508 177.157,253.812 183.850,250.200 187.299 C 244.246 192.983,234.322 193.900,228.127 189.338 C 227.426 188.822,226.680 188.400,226.468 188.400 C 226.116 188.400,225.519 187.774,222.900 184.663 C 222.405 184.075,222.000 183.325,222.000 182.997 C 222.000 182.669,221.820 182.400,221.600 182.400 C 221.380 182.400,221.200 182.062,221.200 181.649 C 221.200 181.236,220.920 180.666,220.579 180.382 C 219.320 179.337,220.353 166.800,221.698 166.800 C 221.864 166.800,222.000 166.440,222.000 166.000 C 222.000 165.560,222.135 165.196,222.300 165.191 C 222.465 165.186,223.112 164.421,223.737 163.491 C 224.362 162.561,225.498 161.350,226.261 160.800 C 227.024 160.250,227.894 159.575,228.195 159.300 C 228.496 159.025,229.026 158.800,229.371 158.800 C 229.717 158.800,230.000 158.620,230.000 158.400 C 230.000 158.180,230.450 158.000,231.000 158.000 C 231.550 158.000,232.000 157.820,232.000 157.600 C 232.000 157.380,232.495 157.187,233.100 157.172 C 233.705 157.156,234.560 156.989,235.000 156.800 C 236.100 156.327,239.322 156.326,242.198 156.797 M172.600 171.445 C 165.836 173.133,160.504 177.887,158.176 184.305 C 157.132 187.183,156.727 195.261,157.600 195.800 C 157.820 195.936,158.000 196.446,158.000 196.933 C 158.000 200.991,167.339 209.630,171.700 209.606 C 172.305 209.603,172.800 209.780,172.800 210.000 C 172.800 210.498,180.389 210.542,181.681 210.051 C 182.187 209.859,183.309 209.475,184.175 209.198 C 194.306 205.955,199.476 192.074,194.455 181.600 C 193.329 179.251,188.464 174.000,187.414 174.000 C 187.076 174.000,186.800 173.841,186.800 173.647 C 186.800 173.452,186.485 173.189,186.100 173.061 C 185.715 172.933,184.680 172.536,183.800 172.179 C 182.211 171.534,174.317 171.017,172.600 171.445 M183.121 180.154 C 184.727 180.991,187.600 183.882,187.600 184.662 C 187.600 184.974,187.844 185.627,188.143 186.114 C 188.441 186.601,188.720 187.797,188.763 188.771 C 188.806 189.745,188.930 190.687,189.039 190.863 C 189.793 192.083,186.788 198.316,184.633 200.000 C 181.382 202.541,175.278 203.729,173.033 202.258 C 172.480 201.896,171.797 201.599,171.514 201.598 C 169.306 201.589,165.374 196.569,164.800 193.025 C 164.145 188.978,167.483 181.200,169.875 181.200 C 170.164 181.200,170.400 181.064,170.400 180.898 C 170.400 178.770,179.447 178.242,183.121 180.154 " stroke="none" fill="#080808" fill-rule="evenodd"></path><path id="path1" d="M298.400 121.580 C 298.400 122.229,298.175 122.904,297.900 123.080 C 297.547 123.306,297.389 124.872,297.363 128.400 C 297.329 132.898,297.064 134.986,295.585 142.400 C 294.510 147.788,294.335 148.743,294.136 150.300 C 294.017 151.235,293.758 152.000,293.560 152.000 C 293.362 152.000,293.200 152.375,293.200 152.833 C 293.200 153.291,292.774 154.956,292.254 156.533 C 291.734 158.110,291.086 160.210,290.815 161.200 C 290.544 162.190,290.160 163.313,289.961 163.695 C 289.762 164.077,289.600 164.741,289.600 165.171 C 289.600 165.601,289.420 166.064,289.200 166.200 C 288.980 166.336,288.800 166.876,288.800 167.400 C 288.800 167.924,288.647 168.448,288.459 168.563 C 288.272 168.679,287.808 169.635,287.428 170.687 C 286.636 172.883,286.058 174.302,285.553 175.295 C 285.359 175.677,285.200 176.352,285.200 176.795 C 285.200 177.238,285.020 177.600,284.800 177.600 C 284.580 177.600,284.400 177.813,284.400 178.074 C 284.400 179.059,277.712 192.649,274.914 197.351 C 273.751 199.304,272.800 200.987,272.800 201.091 C 272.800 201.545,266.354 207.561,265.617 207.795 C 265.168 207.937,264.800 208.200,264.800 208.379 C 264.800 208.837,258.097 212.048,256.000 212.594 C 255.450 212.737,254.370 213.034,253.600 213.254 C 252.830 213.473,251.570 213.807,250.800 213.996 C 245.645 215.258,241.990 216.277,241.748 216.518 C 241.593 216.673,240.813 216.800,240.013 216.800 C 239.214 216.800,238.389 216.962,238.180 217.159 C 237.971 217.356,237.080 217.617,236.200 217.739 C 235.320 217.860,233.700 218.131,232.600 218.340 C 231.500 218.550,229.443 218.928,228.029 219.181 C 226.615 219.433,225.266 219.759,225.031 219.904 C 224.521 220.220,221.378 220.778,218.600 221.046 C 217.500 221.152,216.240 221.401,215.800 221.600 C 215.360 221.799,214.100 222.054,213.000 222.167 C 210.265 222.447,206.525 223.001,202.000 223.796 C 199.910 224.163,196.760 224.632,195.000 224.839 C 193.240 225.046,190.270 225.395,188.400 225.615 C 184.004 226.131,179.430 226.592,173.150 227.151 C 170.373 227.399,167.154 227.781,165.996 228.001 C 164.838 228.220,162.070 228.406,159.845 228.414 C 157.620 228.422,151.570 228.720,146.400 229.075 C 134.174 229.917,102.147 230.247,99.662 229.557 C 98.222 229.158,97.862 229.171,97.558 229.637 C 96.229 231.680,100.270 235.267,106.124 237.243 C 111.294 238.988,151.484 239.193,173.500 237.587 C 191.219 236.294,195.217 235.924,200.000 235.137 C 201.430 234.901,203.905 234.549,205.500 234.354 C 210.156 233.786,214.004 233.267,216.900 232.818 C 218.385 232.588,220.725 232.238,222.100 232.040 C 223.475 231.843,225.107 231.483,225.726 231.240 C 226.345 230.998,227.378 230.800,228.020 230.800 C 228.663 230.800,229.956 230.627,230.894 230.416 C 231.832 230.205,233.680 229.832,235.000 229.586 C 236.320 229.341,238.030 228.988,238.800 228.801 C 246.305 226.982,250.060 226.128,252.200 225.755 C 252.860 225.640,253.760 225.391,254.200 225.203 C 254.640 225.014,255.450 224.774,256.000 224.670 C 256.550 224.565,257.990 224.177,259.200 223.808 C 260.410 223.439,261.987 223.042,262.704 222.925 C 263.421 222.807,264.106 222.551,264.227 222.356 C 264.348 222.160,264.799 222.000,265.229 222.000 C 265.659 222.000,266.323 221.841,266.705 221.646 C 267.087 221.452,268.570 220.737,270.000 220.058 C 274.970 217.697,279.267 213.455,282.526 207.690 C 286.498 200.665,291.818 189.234,294.574 181.800 C 295.390 179.600,296.224 177.487,296.429 177.105 C 296.633 176.723,296.800 176.136,296.800 175.800 C 296.800 175.464,296.965 174.877,297.166 174.495 C 297.507 173.847,298.921 169.337,299.640 166.600 C 299.813 165.940,300.150 164.680,300.388 163.800 C 300.626 162.920,301.004 161.300,301.228 160.200 C 301.452 159.100,301.788 157.480,301.975 156.600 C 304.128 146.482,305.934 126.901,304.780 126.187 C 304.571 126.058,304.400 125.648,304.400 125.276 C 304.399 124.477,302.705 122.400,302.053 122.400 C 301.804 122.400,301.600 122.130,301.600 121.800 C 301.600 121.467,301.244 121.200,300.800 121.200 C 300.360 121.200,300.000 121.020,300.000 120.800 C 300.000 120.580,299.640 120.400,299.200 120.400 C 298.581 120.400,298.400 120.667,298.400 121.580 M289.200 122.800 C 289.200 123.020,288.660 123.200,288.000 123.200 C 287.340 123.200,286.800 123.380,286.800 123.600 C 286.800 123.820,286.350 124.000,285.800 124.000 C 285.250 124.000,284.800 124.180,284.800 124.400 C 284.800 124.620,284.260 124.800,283.600 124.800 C 282.940 124.800,282.400 124.980,282.400 125.200 C 282.400 125.420,282.074 125.600,281.676 125.600 C 281.279 125.600,280.604 125.864,280.176 126.187 C 279.749 126.510,278.995 126.780,278.500 126.787 C 278.005 126.794,277.600 126.980,277.600 127.200 C 277.600 127.420,277.060 127.600,276.400 127.600 C 275.740 127.600,275.200 127.780,275.200 128.000 C 275.200 128.220,274.491 128.400,273.624 128.400 C 272.757 128.400,271.936 128.580,271.800 128.800 C 271.664 129.020,271.018 129.200,270.364 129.200 C 269.676 129.200,269.078 129.453,268.945 129.800 C 268.813 130.142,268.217 130.400,267.557 130.400 C 266.921 130.400,266.400 130.580,266.400 130.800 C 266.400 131.020,265.590 131.200,264.600 131.200 C 263.610 131.200,262.800 131.380,262.800 131.600 C 262.800 131.820,262.170 132.000,261.400 132.000 C 260.630 132.000,260.000 132.180,260.000 132.400 C 260.000 132.620,259.190 132.800,258.200 132.800 C 257.210 132.800,256.400 132.980,256.400 133.200 C 256.400 133.420,255.783 133.600,255.029 133.600 C 254.274 133.600,253.387 133.870,253.057 134.200 C 252.720 134.537,251.743 134.800,250.829 134.800 C 249.933 134.800,249.200 134.980,249.200 135.200 C 249.200 135.420,248.491 135.600,247.624 135.600 C 246.757 135.600,245.936 135.780,245.800 136.000 C 245.664 136.220,244.674 136.400,243.600 136.400 C 242.526 136.400,241.536 136.580,241.400 136.800 C 241.264 137.020,240.438 137.200,239.564 137.200 C 238.520 137.200,237.896 137.406,237.745 137.800 C 237.584 138.219,236.931 138.400,235.581 138.400 C 234.517 138.400,233.536 138.580,233.400 138.800 C 233.264 139.020,232.173 139.200,230.976 139.200 C 229.779 139.200,228.800 139.380,228.800 139.600 C 228.800 139.820,227.810 140.000,226.600 140.000 C 225.390 140.000,224.400 140.180,224.400 140.400 C 224.400 140.620,223.410 140.800,222.200 140.800 C 220.990 140.800,220.000 140.980,220.000 141.200 C 220.000 141.422,218.929 141.600,217.587 141.600 C 215.812 141.600,215.114 141.758,214.945 142.200 C 214.771 142.653,214.039 142.800,211.957 142.800 C 210.386 142.800,209.200 142.972,209.200 143.200 C 209.200 143.426,208.067 143.600,206.600 143.600 C 205.133 143.600,204.000 143.774,204.000 144.000 C 204.000 144.226,202.867 144.400,201.400 144.400 C 199.933 144.400,198.800 144.574,198.800 144.800 C 198.800 145.033,197.483 145.200,195.649 145.200 C 193.336 145.200,192.366 145.360,192.000 145.800 C 191.653 146.219,190.731 146.400,188.951 146.400 C 187.517 146.400,186.400 146.575,186.400 146.800 C 186.400 147.037,184.933 147.200,182.800 147.200 C 180.667 147.200,179.200 147.363,179.200 147.600 C 179.200 147.837,177.733 148.000,175.600 148.000 C 173.467 148.000,172.000 148.163,172.000 148.400 C 172.000 148.638,170.475 148.800,168.224 148.800 C 166.137 148.800,164.337 148.979,164.200 149.200 C 164.064 149.420,162.288 149.600,160.253 149.600 C 157.619 149.600,156.329 149.769,155.776 150.187 C 155.220 150.608,153.894 150.778,151.100 150.787 C 148.775 150.795,147.200 150.962,147.200 151.200 C 147.200 151.420,146.390 151.600,145.400 151.600 C 144.410 151.600,143.600 151.780,143.600 152.000 C 143.600 152.220,142.970 152.400,142.200 152.400 C 141.430 152.400,140.800 152.580,140.800 152.800 C 140.800 153.020,140.453 153.200,140.029 153.200 C 139.604 153.200,138.987 153.470,138.657 153.800 C 138.327 154.130,137.941 154.400,137.800 154.400 C 137.071 154.400,136.400 155.728,136.400 157.171 C 136.400 158.067,136.220 158.800,136.000 158.800 C 135.771 158.800,135.600 160.000,135.600 161.600 C 135.600 163.200,135.429 164.400,135.200 164.400 C 134.943 164.400,134.800 168.325,134.800 175.376 C 134.800 182.263,134.949 186.445,135.200 186.600 C 135.420 186.736,135.601 187.692,135.602 188.724 C 135.604 189.756,135.874 191.116,136.202 191.746 C 136.531 192.376,136.800 193.310,136.800 193.822 C 136.800 194.334,136.980 194.864,137.200 195.000 C 137.420 195.136,137.600 195.777,137.600 196.424 C 137.600 197.071,137.780 197.600,138.000 197.600 C 138.220 197.600,138.400 198.037,138.400 198.571 C 138.400 199.105,139.030 200.751,139.800 202.228 C 140.570 203.705,141.200 205.092,141.200 205.309 C 141.200 205.527,141.830 206.581,142.600 207.653 C 143.370 208.725,144.000 209.747,144.000 209.926 C 144.000 210.104,144.320 210.598,144.712 211.025 C 145.104 211.451,145.950 212.495,146.593 213.344 C 150.135 218.022,154.438 221.419,156.329 221.031 C 156.918 220.910,160.010 220.622,163.200 220.392 C 172.818 219.697,182.172 218.774,187.200 218.023 C 188.630 217.809,191.420 217.439,193.400 217.199 C 198.225 216.617,202.136 216.042,204.800 215.524 C 206.010 215.289,207.990 214.948,209.200 214.765 C 210.410 214.583,212.480 214.251,213.800 214.029 C 215.120 213.806,217.280 213.444,218.600 213.225 C 222.873 212.516,224.943 212.114,228.000 211.403 C 231.627 210.559,234.066 210.073,236.200 209.768 C 237.080 209.642,238.160 209.384,238.600 209.194 C 239.040 209.005,240.030 208.761,240.800 208.654 C 242.082 208.474,243.257 208.209,247.200 207.208 C 247.970 207.013,249.410 206.651,250.400 206.403 C 251.390 206.156,252.371 205.784,252.580 205.577 C 252.789 205.370,253.279 205.200,253.670 205.200 C 255.712 205.200,262.601 201.101,264.716 198.628 C 266.280 196.799,268.400 193.725,268.400 193.286 C 268.400 193.055,268.540 192.807,268.711 192.733 C 268.882 192.660,270.571 189.450,272.464 185.600 C 276.038 178.332,276.918 176.409,278.502 172.400 C 278.720 171.850,279.127 170.950,279.408 170.400 C 279.689 169.850,280.376 168.050,280.933 166.400 C 281.491 164.750,282.475 161.870,283.120 160.000 C 284.223 156.803,284.892 154.608,285.619 151.800 C 285.789 151.140,286.196 149.700,286.521 148.600 C 286.847 147.500,287.328 145.520,287.591 144.200 C 287.853 142.880,288.152 141.440,288.255 141.000 C 288.357 140.560,288.610 139.120,288.816 137.800 C 289.360 134.317,290.267 129.644,290.756 127.800 C 291.583 124.683,291.348 122.400,290.200 122.400 C 289.650 122.400,289.200 122.580,289.200 122.800 M244.880 148.180 C 248.347 149.128,248.886 149.338,251.511 150.762 C 254.032 152.129,259.522 157.266,260.540 159.211 C 260.825 159.755,261.263 160.560,261.513 161.000 C 262.431 162.613,263.926 166.238,264.235 167.600 C 264.682 169.567,264.494 180.066,264.003 180.557 C 263.782 180.778,263.600 181.543,263.600 182.256 C 263.600 182.969,263.420 183.664,263.200 183.800 C 262.980 183.936,262.800 184.397,262.800 184.824 C 262.800 185.251,262.620 185.600,262.400 185.600 C 262.180 185.600,262.000 185.874,262.000 186.210 C 262.000 188.723,255.038 196.183,250.735 198.280 C 248.122 199.554,247.351 199.848,243.600 201.004 C 241.266 201.723,233.460 201.545,232.976 200.761 C 232.853 200.563,232.043 200.400,231.176 200.400 C 230.309 200.400,229.600 200.220,229.600 200.000 C 229.600 199.780,229.238 199.600,228.795 199.600 C 228.352 199.600,227.677 199.441,227.295 199.247 C 226.913 199.052,226.060 198.655,225.400 198.365 C 218.673 195.400,213.175 188.270,211.127 179.854 C 210.140 175.796,210.659 167.581,211.986 166.254 C 212.214 166.026,212.400 165.534,212.400 165.161 C 212.400 163.175,217.792 155.438,220.489 153.555 C 221.210 153.051,221.890 152.520,222.000 152.376 C 222.418 151.828,227.477 149.337,229.200 148.831 C 230.190 148.541,231.450 148.159,232.000 147.983 C 233.764 147.419,242.591 147.554,244.880 148.180 M235.000 156.800 C 234.560 156.989,233.705 157.156,233.100 157.172 C 232.495 157.187,232.000 157.380,232.000 157.600 C 232.000 157.820,231.550 158.000,231.000 158.000 C 230.450 158.000,230.000 158.180,230.000 158.400 C 230.000 158.620,229.717 158.800,229.371 158.800 C 229.026 158.800,228.496 159.025,228.195 159.300 C 227.894 159.575,227.024 160.250,226.261 160.800 C 225.498 161.350,224.362 162.561,223.737 163.491 C 223.112 164.421,222.465 165.186,222.300 165.191 C 222.135 165.196,222.000 165.560,222.000 166.000 C 222.000 166.440,221.864 166.800,221.698 166.800 C 220.353 166.800,219.320 179.337,220.579 180.382 C 220.920 180.666,221.200 181.236,221.200 181.649 C 221.200 182.062,221.380 182.400,221.600 182.400 C 221.820 182.400,222.000 182.669,222.000 182.997 C 222.000 183.325,222.405 184.075,222.900 184.663 C 225.519 187.774,226.116 188.400,226.468 188.400 C 226.680 188.400,227.426 188.822,228.127 189.338 C 234.322 193.900,244.246 192.983,250.200 187.299 C 253.812 183.850,256.508 177.157,255.848 173.275 C 255.710 172.464,255.495 171.170,255.371 170.400 C 254.930 167.662,253.074 163.994,251.243 162.242 C 250.449 161.482,249.376 160.397,248.858 159.830 C 248.340 159.264,247.575 158.800,247.158 158.800 C 246.741 158.800,246.400 158.620,246.400 158.400 C 246.400 158.180,246.055 158.000,245.633 158.000 C 245.212 158.000,244.806 157.818,244.732 157.595 C 244.429 156.686,236.729 156.057,235.000 156.800 M126.800 162.800 C 126.800 163.020,126.599 163.200,126.354 163.200 C 125.742 163.200,123.200 166.027,123.200 166.707 C 123.200 167.285,122.260 168.400,121.773 168.400 C 121.328 168.400,120.427 169.733,120.413 170.412 C 120.406 170.748,120.040 171.283,119.600 171.600 C 119.160 171.917,118.800 172.415,118.800 172.707 C 118.800 172.999,118.350 173.655,117.800 174.165 C 117.250 174.675,116.800 175.320,116.800 175.599 C 116.800 175.878,116.471 176.397,116.070 176.753 C 115.668 177.109,115.084 177.985,114.772 178.700 C 114.460 179.415,113.979 180.000,113.702 180.000 C 113.426 180.000,113.200 180.326,113.200 180.725 C 113.200 181.123,112.840 181.836,112.400 182.308 C 111.960 182.780,111.600 183.444,111.600 183.783 C 111.600 184.122,111.420 184.400,111.200 184.400 C 110.980 184.400,110.800 184.850,110.800 185.400 C 110.800 186.022,110.573 186.400,110.200 186.400 C 109.688 186.400,109.380 186.960,109.700 187.309 C 109.755 187.370,109.395 187.853,108.900 188.385 C 108.405 188.916,108.000 189.677,108.000 190.075 C 108.000 190.474,107.820 190.800,107.600 190.800 C 107.380 190.800,107.200 191.160,107.200 191.600 C 107.200 192.040,107.020 192.400,106.800 192.400 C 106.580 192.400,106.400 192.850,106.400 193.400 C 106.400 194.022,106.173 194.400,105.800 194.400 C 105.467 194.400,105.200 194.756,105.200 195.200 C 105.200 195.640,105.020 196.000,104.800 196.000 C 104.580 196.000,104.400 196.360,104.400 196.800 C 104.400 197.240,104.265 197.601,104.100 197.603 C 103.786 197.606,102.800 199.506,102.800 200.108 C 102.800 200.300,102.520 200.737,102.177 201.080 C 101.834 201.423,101.651 201.957,101.770 202.267 C 101.889 202.577,101.720 202.933,101.393 203.058 C 101.067 203.183,100.800 203.626,100.800 204.043 C 100.800 204.459,100.620 204.800,100.400 204.800 C 100.180 204.800,100.000 205.250,100.000 205.800 C 100.000 206.350,99.820 206.800,99.600 206.800 C 99.380 206.800,99.200 207.160,99.200 207.600 C 99.200 208.040,99.020 208.400,98.800 208.400 C 98.580 208.400,98.400 208.850,98.400 209.400 C 98.400 210.022,98.173 210.400,97.800 210.400 C 97.467 210.400,97.200 210.756,97.200 211.200 C 97.200 211.640,97.020 212.000,96.800 212.000 C 96.580 212.000,96.400 212.630,96.400 213.400 C 96.400 214.170,96.220 214.800,96.000 214.800 C 95.780 214.800,95.600 215.340,95.600 216.000 C 95.600 216.660,95.420 217.200,95.200 217.200 C 94.976 217.200,94.800 218.301,94.800 219.704 L 94.800 222.209 118.500 222.082 C 145.838 221.935,144.350 222.069,142.253 219.955 C 141.030 218.722,136.365 212.158,135.604 210.600 C 135.282 209.940,134.642 208.770,134.183 208.000 C 133.724 207.230,132.937 205.520,132.435 204.200 C 131.933 202.880,131.374 201.440,131.192 201.000 C 129.757 197.520,128.758 193.421,127.625 186.354 C 126.957 182.196,127.073 170.802,127.800 169.062 C 128.750 166.788,128.618 162.400,127.600 162.400 C 127.160 162.400,126.800 162.580,126.800 162.800 M183.800 172.179 C 184.680 172.536,185.715 172.933,186.100 173.061 C 186.485 173.189,186.800 173.452,186.800 173.647 C 186.800 173.841,187.076 174.000,187.414 174.000 C 188.464 174.000,193.329 179.251,194.455 181.600 C 199.476 192.074,194.306 205.955,184.175 209.198 C 183.309 209.475,182.187 209.859,181.681 210.051 C 180.389 210.542,172.800 210.498,172.800 210.000 C 172.800 209.780,172.305 209.603,171.700 209.606 C 167.339 209.630,158.000 200.991,158.000 196.933 C 158.000 196.446,157.820 195.936,157.600 195.800 C 156.727 195.261,157.132 187.183,158.176 184.305 C 160.504 177.887,165.836 173.133,172.600 171.445 C 174.317 171.017,182.211 171.534,183.800 172.179 M175.195 178.984 C 172.784 179.473,170.400 180.424,170.400 180.898 C 170.400 181.064,170.164 181.200,169.875 181.200 C 167.483 181.200,164.145 188.978,164.800 193.025 C 165.374 196.569,169.306 201.589,171.514 201.598 C 171.797 201.599,172.480 201.896,173.033 202.258 C 175.278 203.729,181.382 202.541,184.633 200.000 C 186.788 198.316,189.793 192.083,189.039 190.863 C 188.930 190.687,188.806 189.745,188.763 188.771 C 188.720 187.797,188.441 186.601,188.143 186.114 C 187.844 185.627,187.600 184.974,187.600 184.662 C 187.600 181.604,179.824 178.045,175.195 178.984 " stroke="none" fill="#fbfbfb" fill-rule="evenodd"></path></g></svg>