<svg id="svg" version="1.1" xmlns="http://www.w3.org/2000/svg" xmlns:xlink="http://www.w3.org/1999/xlink" width="400" height="387.6363636363636" viewBox="0, 0, 400,387.6363636363636"><g id="svgg"><path id="path0" d="M183.123 19.781 C 177.789 20.093,173.629 20.519,165.664 21.571 C 163.210 21.895,160.330 22.253,159.263 22.367 C 158.196 22.481,157.157 22.732,156.954 22.926 C 156.752 23.120,155.933 23.278,155.134 23.278 C 154.336 23.278,153.587 23.435,153.469 23.625 C 153.351 23.816,152.598 24.056,151.797 24.159 C 150.232 24.359,145.792 25.462,144.520 25.967 C 142.935 26.596,140.981 27.135,139.371 27.388 C 138.459 27.531,137.619 27.800,137.505 27.985 C 137.390 28.170,136.955 28.322,136.538 28.322 C 136.121 28.322,135.390 28.524,134.912 28.771 C 133.095 29.710,132.680 29.874,132.122 29.874 C 131.805 29.874,130.925 30.223,130.165 30.650 C 129.405 31.077,128.532 31.426,128.225 31.426 C 127.918 31.426,127.045 31.775,126.285 32.202 C 125.525 32.629,124.691 32.978,124.430 32.979 C 124.170 32.980,123.098 33.417,122.049 33.949 C 120.999 34.482,119.932 34.918,119.678 34.918 C 119.236 34.918,114.466 37.224,114.064 37.632 C 113.957 37.740,113.434 38.031,112.900 38.278 C 108.594 40.274,105.692 41.714,105.529 41.936 C 105.422 42.081,104.704 42.552,103.933 42.984 C 103.162 43.415,102.202 43.953,101.799 44.179 C 101.396 44.405,100.266 44.936,99.287 45.360 C 98.309 45.784,97.284 46.401,97.009 46.732 C 96.735 47.062,96.297 47.333,96.036 47.333 C 95.775 47.333,95.246 47.682,94.859 48.109 C 94.473 48.535,93.949 48.885,93.695 48.885 C 93.442 48.885,92.910 49.242,92.515 49.679 C 92.120 50.115,91.176 50.761,90.418 51.114 C 89.660 51.466,88.757 52.069,88.412 52.454 C 88.067 52.838,87.567 53.152,87.301 53.152 C 87.035 53.152,86.205 53.851,85.457 54.704 C 84.709 55.558,83.890 56.256,83.638 56.256 C 83.385 56.256,82.586 56.867,81.862 57.614 C 81.138 58.361,80.354 58.972,80.119 58.972 C 79.884 58.972,79.010 59.670,78.177 60.524 C 77.343 61.377,76.480 62.076,76.258 62.076 C 75.731 62.076,59.748 78.047,59.748 78.574 C 59.748 78.797,58.788 79.927,57.614 81.086 C 56.440 82.245,55.480 83.382,55.480 83.613 C 55.480 83.844,54.782 84.715,53.928 85.548 C 53.075 86.381,52.376 87.257,52.376 87.494 C 52.376 87.731,51.853 88.426,51.212 89.040 C 50.572 89.653,50.048 90.371,50.048 90.636 C 50.048 90.901,49.612 91.461,49.079 91.880 C 48.545 92.300,48.109 92.885,48.109 93.181 C 48.109 93.476,47.759 93.970,47.333 94.277 C 46.906 94.585,46.557 95.030,46.557 95.265 C 46.557 95.501,46.102 96.117,45.546 96.635 C 44.990 97.152,44.371 97.924,44.171 98.351 C 43.585 99.602,42.844 100.818,42.223 101.549 C 41.904 101.924,41.347 102.878,40.986 103.669 C 40.624 104.460,40.158 105.213,39.950 105.342 C 39.742 105.470,39.179 106.372,38.699 107.344 C 37.263 110.257,37.074 110.572,36.765 110.572 C 36.603 110.572,36.469 110.907,36.469 111.316 C 36.469 111.725,36.333 112.118,36.166 112.189 C 35.877 112.312,32.883 118.270,31.763 120.951 C 31.473 121.644,31.104 122.211,30.943 122.211 C 30.782 122.211,30.650 122.537,30.650 122.934 C 30.650 123.331,29.952 125.014,29.098 126.673 C 28.244 128.332,27.546 130.005,27.546 130.390 C 27.546 130.774,27.371 131.197,27.158 131.329 C 26.945 131.461,26.769 131.864,26.768 132.225 C 26.766 132.585,26.505 133.381,26.186 133.992 C 25.867 134.603,25.606 135.422,25.606 135.812 C 25.606 136.202,25.432 136.629,25.218 136.760 C 25.005 136.892,24.830 137.416,24.830 137.924 C 24.830 138.433,24.656 138.956,24.442 139.088 C 24.229 139.220,24.054 139.754,24.054 140.275 C 24.054 140.796,23.880 141.222,23.666 141.222 C 23.453 141.222,23.278 141.648,23.278 142.169 C 23.278 142.690,23.104 143.224,22.890 143.356 C 22.677 143.488,22.502 144.186,22.502 144.908 C 22.502 145.630,22.328 146.328,22.114 146.460 C 21.901 146.592,21.726 147.115,21.726 147.624 C 21.726 148.132,21.566 148.647,21.369 148.769 C 21.172 148.890,20.890 150.125,20.741 151.513 C 20.593 152.901,20.317 154.131,20.129 154.247 C 19.941 154.364,19.787 155.234,19.787 156.182 C 19.787 157.130,19.612 157.905,19.399 157.905 C 19.185 157.905,19.011 158.506,19.011 159.240 C 19.011 159.974,18.859 160.669,18.673 160.784 C 18.487 160.899,18.225 161.825,18.091 162.844 C 17.957 163.862,17.673 165.742,17.459 167.022 C 16.897 170.391,16.284 175.020,15.841 179.243 C 15.289 184.500,15.014 207.185,15.491 208.147 C 15.702 208.574,15.961 210.669,16.068 212.803 C 16.377 219.024,17.579 227.339,19.012 233.172 C 19.586 235.509,20.010 237.514,20.569 240.543 C 21.020 242.989,21.137 243.391,22.066 245.702 C 22.306 246.299,22.502 247.205,22.502 247.716 C 22.502 248.227,22.677 248.753,22.890 248.885 C 23.104 249.016,23.278 249.540,23.278 250.048 C 23.278 250.557,23.453 251.081,23.666 251.212 C 23.880 251.344,24.054 251.793,24.054 252.211 C 24.054 252.628,24.229 253.316,24.442 253.740 C 24.656 254.163,25.005 254.857,25.218 255.281 C 25.432 255.705,25.606 256.393,25.606 256.810 C 25.606 257.227,25.781 257.676,25.994 257.808 C 26.208 257.940,26.382 258.404,26.382 258.839 C 26.382 259.632,26.973 261.162,28.358 263.955 C 28.765 264.776,29.098 265.668,29.098 265.938 C 29.098 266.209,29.796 267.788,30.650 269.447 C 31.503 271.106,32.202 272.638,32.202 272.852 C 32.202 273.431,35.292 279.674,35.705 279.929 C 35.901 280.051,36.671 281.433,37.415 283.000 C 38.159 284.568,38.999 286.088,39.282 286.378 C 39.565 286.668,40.092 287.537,40.454 288.307 C 40.815 289.078,41.376 289.929,41.700 290.198 C 42.024 290.467,42.289 290.906,42.289 291.174 C 42.289 291.441,42.569 291.893,42.911 292.177 C 43.254 292.461,43.698 293.050,43.898 293.486 C 44.507 294.809,45.234 295.981,45.912 296.730 C 46.267 297.122,46.557 297.620,46.557 297.837 C 46.557 298.053,46.906 298.547,47.333 298.933 C 47.759 299.319,48.109 299.790,48.109 299.980 C 48.109 300.170,48.545 300.796,49.079 301.371 C 49.612 301.946,50.048 302.567,50.048 302.750 C 50.048 302.933,50.572 303.573,51.212 304.171 C 51.853 304.769,52.376 305.413,52.376 305.603 C 52.376 305.794,53.162 306.720,54.122 307.662 C 55.082 308.605,55.868 309.562,55.868 309.791 C 55.868 310.019,57.090 311.418,58.584 312.900 C 60.078 314.382,61.300 315.777,61.300 315.999 C 61.300 316.519,70.688 325.897,71.209 325.897 C 71.425 325.897,72.815 327.119,74.297 328.613 C 75.779 330.107,77.194 331.329,77.441 331.329 C 77.688 331.329,78.593 332.114,79.453 333.075 C 80.312 334.035,81.180 334.821,81.381 334.821 C 81.583 334.821,82.295 335.344,82.965 335.984 C 83.635 336.625,84.329 337.148,84.507 337.148 C 84.685 337.148,85.241 337.585,85.742 338.118 C 86.243 338.652,86.858 339.088,87.107 339.088 C 87.357 339.088,87.878 339.437,88.264 339.864 C 88.650 340.291,89.179 340.640,89.440 340.640 C 89.701 340.640,90.147 340.920,90.431 341.263 C 90.715 341.605,91.304 342.049,91.740 342.249 C 93.063 342.858,94.235 343.585,94.984 344.263 C 95.376 344.618,95.874 344.908,96.091 344.908 C 96.308 344.908,96.801 345.257,97.187 345.684 C 97.573 346.111,98.124 346.460,98.411 346.460 C 98.698 346.460,98.933 346.634,98.933 346.848 C 98.933 347.061,99.162 347.236,99.442 347.236 C 99.722 347.236,100.325 347.585,100.784 348.012 C 101.242 348.438,101.737 348.788,101.885 348.788 C 102.360 348.788,106.476 350.842,107.159 351.419 C 107.522 351.727,108.570 352.362,109.487 352.831 C 110.404 353.300,111.503 353.886,111.930 354.132 C 112.974 354.734,116.279 356.159,116.633 356.159 C 117.125 356.159,122.787 359.028,122.923 359.347 C 122.994 359.514,123.464 359.651,123.967 359.651 C 124.470 359.651,124.989 359.825,125.121 360.039 C 125.253 360.252,125.744 360.428,126.211 360.429 C 126.679 360.430,127.561 360.692,128.172 361.011 C 128.784 361.330,129.493 361.591,129.748 361.591 C 130.188 361.591,132.868 362.734,134.330 363.545 C 134.701 363.750,135.312 363.923,135.688 363.929 C 136.492 363.940,141.481 365.600,141.865 365.984 C 142.009 366.128,142.591 366.246,143.158 366.246 C 143.724 366.246,144.961 366.495,145.906 366.798 C 148.245 367.549,157.439 369.572,161.009 370.120 C 162.609 370.367,164.355 370.659,164.888 370.770 C 175.401 372.965,215.178 373.039,217.439 370.868 C 217.642 370.673,218.384 370.514,219.088 370.514 C 219.792 370.514,220.369 370.360,220.369 370.172 C 220.369 369.567,223.723 368.962,227.076 368.962 C 229.753 368.962,230.452 368.834,230.984 368.246 C 231.743 367.407,233.681 366.780,236.663 366.409 C 237.837 366.263,238.972 366.010,239.185 365.847 C 239.399 365.684,240.446 365.454,241.513 365.337 C 244.657 364.991,246.356 364.632,246.583 364.264 C 246.701 364.074,247.143 363.919,247.566 363.919 C 247.989 363.919,248.710 363.569,249.168 363.143 C 249.626 362.716,250.230 362.367,250.510 362.367 C 250.789 362.367,251.018 362.235,251.018 362.073 C 251.018 361.661,252.867 360.914,254.704 360.584 C 255.558 360.430,256.829 359.983,257.529 359.590 C 258.229 359.196,259.145 358.875,259.566 358.875 C 259.986 358.875,260.330 358.743,260.330 358.582 C 260.330 358.174,262.072 357.488,264.597 356.902 C 265.771 356.629,267.168 356.045,267.701 355.604 C 269.166 354.391,270.308 353.831,271.314 353.831 C 271.813 353.831,272.637 353.389,273.145 352.848 C 273.653 352.308,275.473 351.160,277.189 350.299 C 281.780 347.995,283.345 347.113,284.000 346.461 C 284.827 345.638,286.193 344.914,286.998 344.873 C 287.374 344.853,288.555 344.336,289.622 343.722 C 290.689 343.109,291.918 342.444,292.353 342.246 C 292.789 342.047,293.378 341.605,293.662 341.263 C 293.946 340.920,294.419 340.640,294.713 340.640 C 295.007 340.640,295.247 340.495,295.247 340.318 C 295.247 340.140,295.727 339.748,296.314 339.445 C 296.901 339.142,297.699 338.501,298.088 338.021 C 298.477 337.541,299.009 337.148,299.270 337.148 C 299.532 337.148,300.427 336.450,301.261 335.597 C 302.094 334.743,302.968 334.045,303.203 334.045 C 303.438 334.045,304.223 333.434,304.947 332.687 C 305.671 331.940,306.451 331.329,306.681 331.329 C 306.912 331.329,308.401 330.019,309.990 328.419 C 311.580 326.819,313.057 325.509,313.273 325.509 C 313.793 325.509,322.793 316.519,322.793 315.999 C 322.793 315.776,323.928 314.469,325.315 313.094 C 326.702 311.719,327.837 310.407,327.837 310.177 C 327.837 309.948,328.535 309.078,329.389 308.244 C 330.242 307.411,330.941 306.537,330.941 306.302 C 330.941 306.067,331.552 305.283,332.299 304.559 C 333.046 303.835,333.657 303.042,333.657 302.797 C 333.657 302.552,334.006 302.035,334.433 301.649 C 334.859 301.263,335.209 300.750,335.209 300.510 C 335.209 300.271,335.558 299.823,335.984 299.515 C 336.411 299.207,336.760 298.751,336.760 298.500 C 336.760 298.250,337.194 297.633,337.724 297.131 C 338.253 296.628,338.690 296.026,338.694 295.792 C 338.697 295.559,339.049 295.052,339.476 294.665 C 340.252 293.964,340.252 293.988,340.252 330.276 C 340.252 354.066,340.386 366.671,340.640 366.828 C 340.854 366.960,341.028 367.415,341.028 367.839 C 341.028 368.263,341.500 369.082,342.078 369.659 L 343.127 370.708 358.935 370.708 C 371.064 370.708,374.856 370.595,375.228 370.223 C 375.495 369.956,376.191 369.738,376.776 369.738 C 377.361 369.738,377.948 369.564,378.080 369.350 C 378.211 369.137,378.629 368.962,379.007 368.962 C 382.267 368.962,389.913 361.348,389.913 358.100 C 389.913 357.758,390.078 357.312,390.279 357.110 C 390.647 356.739,391.613 351.522,391.360 351.270 C 391.286 351.196,390.993 351.785,390.708 352.580 C 389.978 354.620,388.279 356.988,386.288 358.740 C 384.658 360.175,383.935 360.614,381.765 361.490 C 381.232 361.706,380.272 362.120,379.631 362.411 C 378.733 362.819,375.172 362.969,364.016 363.067 L 349.564 363.194 349.564 321.903 C 349.564 299.193,349.453 279.803,349.317 278.813 L 349.070 277.013 363.381 276.951 C 371.252 276.916,377.081 276.815,376.335 276.725 C 375.589 276.635,374.747 276.369,374.463 276.133 C 374.123 275.851,369.933 275.647,362.144 275.532 C 355.651 275.437,350.339 275.300,350.339 275.228 C 350.339 275.156,350.716 274.436,351.175 273.630 C 353.002 270.425,354.219 267.987,354.219 267.534 C 354.219 267.271,354.655 266.198,355.188 265.148 C 355.720 264.098,356.157 262.932,356.157 262.555 C 356.158 262.179,356.315 261.568,356.505 261.197 C 357.484 259.288,358.520 256.769,359.255 254.510 C 359.706 253.123,360.242 251.685,360.445 251.315 C 360.648 250.944,360.815 250.374,360.815 250.048 C 360.815 249.723,360.974 249.153,361.168 248.782 C 361.745 247.680,363.062 241.707,362.727 241.707 C 362.557 241.707,362.363 242.187,362.295 242.774 C 362.228 243.361,361.986 243.808,361.758 243.767 C 361.508 243.723,361.414 244.169,361.520 244.896 C 361.656 245.821,361.570 246.050,361.145 245.887 C 360.715 245.722,360.628 245.979,360.753 247.049 C 360.879 248.126,360.793 248.377,360.355 248.209 C 359.924 248.044,359.837 248.265,359.971 249.181 C 360.106 250.099,360.018 250.318,359.583 250.151 C 359.152 249.985,359.060 250.197,359.186 251.059 C 359.304 251.865,359.189 252.182,358.779 252.182 C 358.377 252.182,358.262 252.472,358.393 253.158 C 358.547 253.966,358.461 254.088,357.893 253.870 C 357.310 253.646,357.246 253.761,357.466 254.640 C 357.668 255.443,357.584 255.674,357.094 255.674 C 356.619 255.674,356.522 255.908,356.700 256.620 C 356.831 257.141,356.763 257.675,356.548 257.807 C 356.334 257.939,356.159 258.387,356.159 258.801 C 356.159 259.215,355.964 259.554,355.726 259.554 C 355.478 259.554,355.383 259.899,355.504 260.360 C 355.658 260.949,355.565 261.110,355.161 260.955 C 354.758 260.800,354.607 261.056,354.607 261.894 C 354.607 262.527,354.414 263.046,354.178 263.046 C 353.941 263.046,353.851 263.314,353.977 263.642 C 354.110 263.987,353.954 264.336,353.608 264.468 C 353.280 264.594,353.105 264.944,353.220 265.244 C 353.336 265.545,353.191 265.883,352.898 265.995 C 352.590 266.113,352.449 266.519,352.563 266.956 C 352.718 267.549,352.615 267.657,352.087 267.454 C 351.537 267.243,351.462 267.348,351.679 268.031 C 351.873 268.642,351.781 268.865,351.336 268.865 C 350.986 268.865,350.727 269.195,350.727 269.641 C 350.727 270.068,350.543 270.417,350.317 270.417 C 350.091 270.417,349.998 270.567,350.112 270.751 C 350.357 271.147,349.497 273.125,349.079 273.130 C 348.919 273.132,348.788 273.482,348.788 273.909 C 348.788 274.336,348.613 274.685,348.400 274.685 C 348.186 274.685,348.012 274.992,348.012 275.367 C 348.012 275.743,347.662 276.268,347.236 276.535 C 346.809 276.801,346.460 277.280,346.460 277.598 C 346.460 277.916,346.285 278.177,346.072 278.177 C 345.858 278.177,345.684 278.526,345.684 278.952 C 345.684 279.379,345.509 279.728,345.296 279.728 C 345.082 279.728,344.908 279.963,344.908 280.250 C 344.908 280.537,344.559 281.088,344.132 281.474 C 343.705 281.861,343.356 282.390,343.356 282.651 C 343.356 282.912,343.094 283.343,342.774 283.608 C 342.454 283.874,342.192 284.419,342.192 284.820 C 342.192 285.220,342.017 285.548,341.804 285.548 C 341.591 285.548,341.416 285.859,341.416 286.238 C 341.416 286.618,341.067 287.180,340.640 287.488 C 340.213 287.795,339.864 288.289,339.864 288.585 C 339.864 288.880,339.428 289.465,338.894 289.885 C 338.361 290.305,337.924 290.870,337.924 291.142 C 337.924 291.413,337.575 291.951,337.148 292.338 C 336.722 292.724,336.372 293.320,336.372 293.662 C 336.372 294.005,336.023 294.503,335.597 294.769 C 335.170 295.036,334.821 295.441,334.821 295.669 C 334.821 295.897,334.152 296.727,333.334 297.512 C 332.517 298.297,331.912 299.130,331.990 299.363 C 332.067 299.596,331.427 300.404,330.566 301.159 C 329.705 301.913,329.001 302.734,329.001 302.984 C 329.001 303.234,327.866 304.534,326.479 305.874 C 325.092 307.214,323.957 308.516,323.957 308.766 C 323.957 309.256,314.490 318.619,313.739 318.871 C 313.491 318.955,311.987 320.308,310.397 321.878 C 308.807 323.449,307.352 324.733,307.166 324.733 C 306.979 324.733,306.155 325.432,305.335 326.285 C 304.515 327.139,303.629 327.837,303.367 327.837 C 303.105 327.837,302.298 328.448,301.572 329.195 C 300.847 329.942,300.070 330.553,299.846 330.553 C 299.622 330.553,298.949 331.077,298.351 331.717 C 297.753 332.357,297.003 332.881,296.685 332.881 C 296.367 332.881,296.005 333.145,295.881 333.468 C 295.757 333.792,295.258 334.230,294.772 334.443 C 293.667 334.928,291.239 336.377,290.980 336.707 C 290.572 337.227,289.017 337.924,288.267 337.924 C 287.836 337.924,285.345 339.194,282.733 340.746 C 280.120 342.298,277.168 343.976,276.174 344.475 C 275.179 344.974,274.281 345.701,274.179 346.091 C 274.053 346.575,273.644 346.791,272.885 346.776 C 271.125 346.741,268.477 347.975,268.477 348.830 C 268.477 349.426,268.189 349.564,266.936 349.564 C 266.089 349.564,264.387 350.014,263.154 350.564 C 260.726 351.647,254.045 354.219,251.697 354.975 C 250.683 355.301,250.242 355.669,250.242 356.189 C 250.242 356.709,249.972 356.935,249.350 356.935 C 248.859 356.935,248.292 357.087,248.089 357.272 C 247.501 357.809,245.347 358.092,244.940 357.685 C 244.704 357.449,242.375 357.879,238.522 358.870 C 235.196 359.726,232.370 360.427,232.241 360.427 C 232.113 360.427,232.008 360.776,232.008 361.203 C 232.008 362.006,231.072 362.273,230.650 361.591 C 230.100 360.701,222.438 361.843,221.845 362.903 C 221.610 363.323,221.172 363.439,220.403 363.285 C 219.779 363.161,219.184 363.250,219.035 363.491 C 218.884 363.735,217.625 363.919,216.101 363.919 C 214.632 363.919,213.323 364.093,213.191 364.306 C 213.051 364.534,210.802 364.694,207.759 364.694 C 204.717 364.694,202.468 364.855,202.328 365.082 C 202.004 365.606,189.719 365.606,189.719 365.082 C 189.719 364.844,187.786 364.694,184.698 364.694 C 181.769 364.694,179.577 364.533,179.437 364.306 C 179.306 364.093,177.822 363.919,176.140 363.919 C 174.458 363.919,172.974 363.744,172.842 363.531 C 172.710 363.317,171.750 363.143,170.708 363.143 C 169.666 363.143,168.709 362.972,168.580 362.764 C 168.449 362.553,167.607 362.487,166.669 362.616 C 165.613 362.761,164.891 362.685,164.723 362.412 C 164.575 362.174,163.690 361.979,162.755 361.979 C 161.820 361.979,160.947 361.804,160.815 361.591 C 160.683 361.377,159.974 361.203,159.240 361.203 C 158.506 361.203,157.905 361.028,157.905 360.815 C 157.905 360.601,157.130 360.427,156.182 360.427 C 155.234 360.427,154.351 360.252,154.219 360.039 C 154.087 359.825,153.564 359.651,153.055 359.651 C 152.547 359.651,152.023 359.476,151.891 359.263 C 151.759 359.049,151.148 358.875,150.533 358.875 C 149.918 358.875,149.307 358.700,149.176 358.487 C 149.044 358.274,148.520 358.099,148.012 358.099 C 147.503 358.099,146.980 357.924,146.848 357.711 C 146.716 357.498,146.192 357.323,145.684 357.323 C 145.176 357.323,144.662 357.165,144.542 356.971 C 144.423 356.778,143.984 356.709,143.568 356.818 C 142.769 357.027,140.446 356.177,140.446 355.676 C 140.446 355.515,140.020 355.383,139.499 355.383 C 138.978 355.383,138.444 355.209,138.312 354.995 C 138.180 354.782,137.739 354.607,137.331 354.607 C 136.924 354.607,135.968 354.258,135.209 353.831 C 134.449 353.404,133.483 353.055,133.063 353.055 C 132.643 353.055,132.299 352.881,132.299 352.667 C 132.299 352.454,131.955 352.279,131.535 352.279 C 131.114 352.279,130.154 351.933,129.401 351.510 C 128.647 351.087,128.031 350.816,128.031 350.907 C 128.031 350.999,127.053 350.560,125.858 349.931 C 124.663 349.302,123.353 348.788,122.948 348.788 C 122.543 348.788,122.211 348.613,122.211 348.400 C 122.211 348.186,121.877 348.012,121.468 348.012 C 121.059 348.012,120.666 347.874,120.595 347.706 C 120.524 347.539,119.505 346.913,118.332 346.316 C 113.725 343.974,111.537 342.762,111.413 342.483 C 111.342 342.323,111.013 342.192,110.682 342.192 C 110.352 342.192,109.799 341.878,109.454 341.493 C 109.109 341.109,108.215 340.485,107.468 340.107 C 105.252 338.985,104.410 338.474,103.658 337.793 C 103.266 337.438,102.768 337.148,102.551 337.148 C 102.335 337.148,101.841 336.799,101.455 336.372 C 101.069 335.946,100.575 335.597,100.358 335.597 C 100.142 335.597,99.644 335.306,99.252 334.952 C 98.494 334.266,97.320 333.540,95.977 332.926 C 95.525 332.720,94.802 332.101,94.370 331.552 C 93.937 331.002,93.373 330.553,93.116 330.553 C 92.859 330.553,92.160 330.029,91.562 329.389 C 90.964 328.749,90.326 328.224,90.145 328.223 C 89.964 328.222,88.987 327.436,87.974 326.477 C 86.962 325.518,85.996 324.733,85.829 324.733 C 85.662 324.733,84.401 323.598,83.026 322.211 C 81.652 320.824,80.345 319.690,80.122 319.690 C 79.600 319.690,69.059 309.137,69.059 308.614 C 69.059 308.396,68.099 307.270,66.925 306.111 C 65.752 304.952,64.791 303.807,64.791 303.567 C 64.791 303.328,63.919 302.340,62.852 301.372 C 61.785 300.404,60.912 299.397,60.912 299.134 C 60.912 298.872,60.475 298.313,59.942 297.894 C 59.408 297.474,58.972 296.883,58.972 296.580 C 58.972 296.278,58.448 295.529,57.808 294.918 C 57.168 294.306,56.644 293.633,56.644 293.423 C 56.644 293.212,56.295 292.724,55.868 292.338 C 55.441 291.951,55.092 291.428,55.092 291.174 C 55.092 290.920,54.747 290.400,54.325 290.018 C 53.904 289.636,53.638 289.196,53.734 289.040 C 53.831 288.883,53.565 288.443,53.143 288.062 C 52.721 287.680,52.376 287.160,52.376 286.906 C 52.376 286.652,52.027 286.128,51.600 285.742 C 51.174 285.356,50.824 284.826,50.824 284.565 C 50.824 284.305,50.554 283.867,50.223 283.592 C 49.893 283.318,49.284 282.352,48.871 281.445 C 48.458 280.539,47.981 279.738,47.810 279.666 C 47.640 279.594,46.837 278.183,46.026 276.531 C 45.216 274.879,44.398 273.431,44.209 273.315 C 43.793 273.057,41.513 268.346,41.513 267.743 C 41.513 267.507,41.339 267.313,41.125 267.313 C 40.912 267.313,40.737 266.988,40.737 266.591 C 40.737 266.194,40.039 264.511,39.185 262.852 C 38.332 261.192,37.633 259.601,37.633 259.316 C 37.633 259.030,37.285 258.225,36.859 257.526 C 36.433 256.828,36.083 255.994,36.081 255.674 C 36.078 255.354,35.816 254.592,35.497 253.981 C 35.178 253.370,34.918 252.551,34.918 252.161 C 34.918 251.771,34.743 251.344,34.530 251.212 C 34.316 251.081,34.142 250.546,34.142 250.026 C 34.142 249.505,33.967 249.079,33.754 249.079 C 33.540 249.079,33.366 248.555,33.366 247.915 C 33.366 247.274,33.191 246.751,32.978 246.751 C 32.764 246.751,32.590 246.325,32.590 245.804 C 32.590 245.283,32.415 244.749,32.202 244.617 C 31.988 244.485,31.814 243.961,31.814 243.453 C 31.814 242.945,31.639 242.421,31.426 242.289 C 31.212 242.157,31.038 241.459,31.038 240.737 C 31.038 240.015,30.873 239.323,30.672 239.199 C 30.471 239.075,30.200 238.148,30.070 237.139 C 29.940 236.131,29.669 235.002,29.466 234.632 C 29.264 234.261,29.098 233.432,29.098 232.789 C 29.098 232.146,28.923 231.620,28.710 231.620 C 28.497 231.620,28.322 230.844,28.322 229.897 C 28.322 228.949,28.147 228.066,27.934 227.934 C 27.721 227.802,27.546 227.104,27.546 226.382 C 27.546 225.660,27.371 224.962,27.158 224.830 C 26.945 224.698,26.770 223.738,26.770 222.696 C 26.770 221.655,26.596 220.694,26.382 220.563 C 26.169 220.431,25.994 219.146,25.994 217.707 C 25.994 216.133,25.801 214.899,25.509 214.607 C 25.133 214.231,25.024 209.384,25.024 193.016 C 25.024 176.649,25.133 171.802,25.509 171.426 C 25.795 171.140,25.994 169.935,25.994 168.497 C 25.994 167.126,26.165 166.052,26.382 166.052 C 26.596 166.052,26.770 165.102,26.770 163.941 C 26.770 162.780,26.945 161.723,27.158 161.591 C 27.371 161.459,27.546 161.536,27.546 161.762 C 27.546 161.988,27.878 162.173,28.283 162.173 C 29.018 162.173,29.320 161.329,30.084 157.129 C 30.445 155.145,31.811 149.332,32.181 148.206 C 32.356 147.672,32.720 146.450,32.989 145.490 C 38.792 124.796,49.644 103.605,63.387 86.130 C 66.791 81.801,67.463 81.006,71.581 76.445 C 76.602 70.884,87.115 60.996,90.555 58.600 C 91.002 58.288,91.608 57.799,91.902 57.511 C 93.990 55.469,109.286 45.005,110.182 45.005 C 110.397 45.005,110.572 44.851,110.572 44.662 C 110.572 44.474,110.878 44.219,111.251 44.097 C 111.625 43.975,112.716 43.408,113.676 42.838 C 116.722 41.029,124.594 37.077,128.613 35.338 C 134.016 33.002,134.639 32.744,136.178 32.208 C 136.925 31.948,137.973 31.555,138.506 31.335 C 141.375 30.149,146.136 28.574,150.145 27.484 C 150.892 27.281,152.114 26.938,152.861 26.722 C 153.608 26.507,154.830 26.179,155.577 25.994 C 156.324 25.809,157.633 25.470,158.487 25.240 C 171.257 21.805,195.779 20.020,211.779 21.360 C 214.690 21.604,218.206 21.888,219.593 21.990 C 220.980 22.093,222.280 22.338,222.483 22.534 C 222.686 22.730,223.679 22.890,224.691 22.890 C 225.703 22.890,226.638 23.065,226.770 23.278 C 226.902 23.492,227.775 23.666,228.710 23.666 C 229.645 23.666,230.518 23.841,230.650 24.054 C 230.782 24.268,231.447 24.419,232.128 24.389 C 233.156 24.346,233.201 24.310,232.396 24.179 C 231.862 24.093,231.077 23.866,230.650 23.674 C 229.922 23.348,229.046 23.182,225.218 22.642 C 224.365 22.521,223.500 22.266,223.298 22.075 C 223.095 21.883,222.135 21.725,221.164 21.724 C 220.193 21.723,218.351 21.549,217.071 21.337 C 208.913 19.987,192.487 19.234,183.123 19.781 M233.948 24.897 C 233.948 25.074,234.471 25.218,235.112 25.218 C 235.752 25.218,236.275 25.151,236.275 25.068 C 236.275 24.986,235.752 24.841,235.112 24.748 C 234.471 24.654,233.948 24.721,233.948 24.897 M240.098 26.480 C 240.294 26.676,240.867 26.771,241.371 26.691 C 242.148 26.569,242.093 26.515,241.016 26.336 C 240.245 26.208,239.883 26.265,240.098 26.480 M310.925 64.985 C 311.458 65.519,312.085 65.955,312.318 65.955 C 312.551 65.955,312.305 65.519,311.771 64.985 C 311.238 64.452,310.611 64.016,310.378 64.016 C 310.145 64.016,310.391 64.452,310.925 64.985 M173.424 73.515 C 160.241 76.383,149.372 80.482,138.160 86.814 C 136.156 87.946,134.034 89.215,133.445 89.635 C 132.855 90.054,132.182 90.398,131.948 90.398 C 131.714 90.398,131.523 90.572,131.523 90.786 C 131.523 90.999,131.261 91.174,130.941 91.174 C 130.621 91.174,130.359 91.311,130.359 91.478 C 130.359 91.645,129.791 92.114,129.098 92.518 C 127.853 93.245,123.178 96.724,119.593 99.592 C 113.840 104.195,103.706 115.191,99.106 121.823 C 97.848 123.637,96.683 125.179,96.518 125.251 C 96.353 125.322,96.217 125.594,96.217 125.856 C 96.217 126.118,95.903 126.671,95.519 127.085 C 95.135 127.499,94.704 128.099,94.563 128.419 C 94.421 128.739,93.681 130.048,92.919 131.329 C 92.156 132.609,91.431 133.962,91.308 134.336 C 91.184 134.709,90.929 135.015,90.740 135.015 C 90.552 135.015,90.398 135.364,90.398 135.790 C 90.398 136.416,90.656 136.566,91.733 136.566 C 92.467 136.566,93.176 136.741,93.307 136.954 C 93.439 137.168,93.745 137.342,93.986 137.342 C 94.228 137.342,94.099 137.104,93.701 136.812 C 93.003 136.302,93.002 136.232,93.658 134.969 C 95.264 131.881,95.535 131.462,96.056 131.262 C 96.358 131.147,96.606 130.852,96.607 130.608 C 96.608 130.364,97.132 129.607,97.771 128.925 C 98.410 128.243,98.933 127.532,98.933 127.344 C 98.933 127.156,99.370 126.592,99.903 126.091 C 100.436 125.590,100.873 124.984,100.873 124.744 C 100.873 124.505,101.571 123.627,102.425 122.793 C 103.278 121.960,103.977 121.093,103.977 120.867 C 103.977 120.339,116.464 107.856,116.993 107.856 C 117.212 107.856,118.251 106.984,119.302 105.917 C 120.353 104.850,121.407 103.977,121.644 103.977 C 121.882 103.977,122.486 103.540,122.987 103.007 C 123.489 102.473,124.130 102.037,124.413 102.037 C 124.696 102.037,124.927 101.892,124.927 101.714 C 124.927 101.537,125.407 101.144,125.994 100.842 C 126.581 100.539,127.498 99.847,128.031 99.304 C 128.565 98.762,129.612 98.007,130.359 97.627 C 132.474 96.552,133.401 96.002,134.139 95.385 C 134.514 95.071,136.043 94.217,137.536 93.487 C 139.030 92.757,140.339 92.068,140.446 91.957 C 140.553 91.845,141.077 91.553,141.610 91.306 C 142.144 91.060,144.240 90.056,146.269 89.076 C 148.298 88.096,150.218 87.290,150.536 87.285 C 150.855 87.281,151.552 86.935,152.085 86.518 C 152.619 86.101,153.438 85.755,153.905 85.751 C 154.373 85.746,154.851 85.588,154.967 85.399 C 155.084 85.210,156.011 84.931,157.027 84.779 C 158.043 84.627,159.049 84.390,159.263 84.252 C 160.017 83.767,162.378 83.038,163.217 83.032 C 163.684 83.029,164.175 82.852,164.306 82.638 C 164.438 82.425,165.112 82.250,165.804 82.250 C 166.495 82.250,167.227 82.098,167.430 81.913 C 167.632 81.727,168.437 81.479,169.217 81.361 L 170.635 81.147 170.908 83.865 C 171.059 85.361,171.077 89.319,170.950 92.662 C 170.822 96.004,170.441 105.984,170.103 114.840 C 169.095 141.178,167.681 154.413,165.873 154.413 C 165.611 154.413,165.095 154.747,164.726 155.154 C 164.357 155.562,163.607 156.008,163.058 156.146 C 161.437 156.553,162.533 157.085,165.574 157.368 C 167.149 157.514,168.567 157.856,168.809 158.148 C 169.740 159.269,176.067 154.085,175.813 152.411 C 175.759 152.056,175.898 151.653,176.121 151.515 C 176.345 151.377,176.528 150.499,176.528 149.564 C 176.528 148.628,176.702 147.756,176.916 147.624 C 177.129 147.492,177.304 146.432,177.304 145.268 C 177.304 144.104,177.466 142.848,177.665 142.478 C 177.864 142.107,178.218 137.090,178.450 131.329 C 178.683 125.567,179.062 116.838,179.292 111.930 C 179.738 102.430,180.056 74.522,179.734 73.288 C 179.488 72.349,178.644 72.379,173.424 73.515 M218.280 73.641 C 218.150 73.852,218.154 75.840,218.290 78.060 L 218.537 82.095 220.029 82.561 C 220.849 82.817,221.862 83.026,222.279 83.026 C 222.697 83.026,223.146 83.201,223.278 83.414 C 223.410 83.628,223.934 83.802,224.442 83.802 C 224.951 83.802,225.462 83.957,225.579 84.145 C 225.695 84.334,226.574 84.606,227.532 84.750 C 228.490 84.893,229.376 85.175,229.500 85.376 C 229.624 85.577,229.986 85.742,230.304 85.742 C 230.621 85.742,231.604 86.091,232.487 86.518 C 233.371 86.945,234.298 87.294,234.548 87.294 C 234.798 87.294,236.118 87.841,237.482 88.509 C 238.846 89.177,240.310 89.863,240.737 90.034 C 243.003 90.938,246.750 92.798,246.946 93.116 C 247.070 93.316,247.819 93.783,248.610 94.152 C 250.492 95.031,254.280 97.421,254.446 97.834 C 254.517 98.012,254.795 98.157,255.064 98.157 C 255.334 98.157,255.870 98.506,256.256 98.933 C 256.642 99.360,257.166 99.709,257.420 99.709 C 257.674 99.709,258.198 100.058,258.584 100.485 C 258.970 100.912,259.491 101.261,259.740 101.261 C 259.990 101.261,260.605 101.697,261.106 102.231 C 261.607 102.764,262.213 103.201,262.453 103.201 C 262.692 103.201,263.570 103.899,264.403 104.753 C 265.237 105.606,266.100 106.305,266.321 106.305 C 266.854 106.305,281.668 121.114,281.668 121.647 C 281.668 121.874,282.279 122.651,283.026 123.375 C 283.773 124.099,284.384 124.866,284.384 125.079 C 284.384 125.292,284.843 125.945,285.403 126.530 C 286.409 127.581,287.109 128.638,287.819 130.181 C 288.019 130.616,288.463 131.205,288.805 131.489 C 289.148 131.773,289.428 132.219,289.428 132.480 C 289.428 132.741,289.777 133.270,290.204 133.657 C 290.630 134.043,290.980 134.514,290.980 134.703 C 290.980 134.892,291.329 135.422,291.756 135.880 C 292.990 137.205,292.020 138.085,288.652 138.694 C 287.355 138.928,286.149 139.357,284.680 140.103 C 284.310 140.292,283.665 140.446,283.248 140.446 C 282.831 140.446,282.382 140.621,282.250 140.834 C 282.118 141.048,281.669 141.222,281.252 141.222 C 280.835 141.222,280.191 141.380,279.820 141.573 C 279.450 141.766,277.837 142.313,276.237 142.789 C 274.636 143.265,273.058 143.784,272.730 143.943 C 272.402 144.101,271.399 144.354,270.501 144.506 C 269.604 144.657,268.771 144.941,268.650 145.136 C 268.530 145.330,268.016 145.490,267.507 145.490 C 266.999 145.490,266.475 145.664,266.343 145.878 C 266.211 146.091,265.513 146.266,264.791 146.266 C 264.070 146.266,263.371 146.440,263.240 146.654 C 263.108 146.867,262.584 147.042,262.076 147.042 C 261.567 147.042,261.062 147.186,260.953 147.363 C 260.843 147.540,259.742 147.918,258.505 148.202 C 257.268 148.486,256.090 148.865,255.887 149.044 C 255.685 149.223,255.128 149.370,254.649 149.370 C 254.171 149.370,253.678 149.534,253.554 149.735 C 253.430 149.936,252.503 150.207,251.494 150.337 C 250.486 150.467,249.357 150.739,248.987 150.941 C 248.616 151.144,247.972 151.309,247.555 151.309 C 247.138 151.309,246.689 151.484,246.557 151.697 C 246.425 151.911,245.888 152.085,245.365 152.085 C 244.841 152.085,244.109 152.239,243.739 152.426 C 242.706 152.948,240.371 153.637,239.637 153.637 C 239.276 153.637,238.678 153.790,238.307 153.978 C 237.110 154.582,233.243 155.582,228.174 156.597 C 227.264 156.779,227.261 156.793,227.998 157.479 C 229.934 159.282,233.408 158.719,249.661 153.966 C 252.648 153.093,255.616 152.246,256.256 152.084 C 256.896 151.922,258.206 151.532,259.166 151.217 C 260.126 150.903,261.610 150.447,262.464 150.205 C 263.317 149.963,265.500 149.320,267.313 148.777 C 269.127 148.234,271.833 147.429,273.327 146.988 C 274.821 146.547,276.346 146.029,276.716 145.838 C 277.087 145.646,277.819 145.490,278.342 145.490 C 278.866 145.490,279.403 145.315,279.534 145.102 C 279.666 144.888,280.190 144.714,280.698 144.714 C 281.207 144.714,281.730 144.539,281.862 144.326 C 281.994 144.113,282.605 143.938,283.220 143.938 C 283.835 143.938,284.446 143.763,284.578 143.550 C 284.710 143.337,285.159 143.162,285.576 143.162 C 285.993 143.162,286.638 143.003,287.008 142.809 C 287.379 142.614,289.253 141.988,291.174 141.418 C 296.678 139.783,297.333 139.581,298.157 139.263 C 298.584 139.099,300.043 138.643,301.399 138.250 C 304.417 137.377,304.526 137.139,303.104 134.552 C 287.467 106.101,260.642 84.615,230.068 76.054 C 229.108 75.785,227.886 75.422,227.352 75.248 C 226.160 74.859,221.840 73.846,219.928 73.507 C 219.130 73.366,218.415 73.424,218.280 73.641 M320.933 74.394 C 321.257 74.767,321.851 75.483,322.254 75.985 C 324.280 78.505,326.409 80.365,325.046 78.424 C 324.171 77.178,320.921 73.715,320.627 73.715 C 320.472 73.715,320.610 74.020,320.933 74.394 M326.673 80.482 C 326.673 81.214,329.032 84.190,329.611 84.190 C 329.753 84.190,329.375 83.535,328.770 82.735 C 327.486 81.035,326.673 80.162,326.673 80.482 M331.320 86.506 C 332.342 87.941,333.118 88.465,332.424 87.252 C 331.804 86.168,331.086 85.354,330.748 85.354 C 330.612 85.354,330.869 85.873,331.320 86.506 M333.271 88.970 C 333.269 89.670,334.322 91.026,334.628 90.719 C 334.716 90.632,334.447 90.043,334.031 89.412 C 333.459 88.544,333.273 88.436,333.271 88.970 M334.821 91.395 C 334.821 91.685,335.864 92.726,336.154 92.726 C 336.278 92.726,336.161 92.376,335.894 91.950 C 335.440 91.221,334.821 90.902,334.821 91.395 M337.148 94.439 C 337.148 94.848,338.317 95.954,338.527 95.744 C 338.625 95.646,338.355 95.249,337.927 94.862 C 337.499 94.474,337.148 94.284,337.148 94.439 M339.867 98.282 C 339.865 98.671,340.126 99.250,340.446 99.570 C 341.180 100.304,341.181 100.090,340.449 98.686 C 340.035 97.893,339.868 97.777,339.867 98.282 M343.753 104.608 C 343.748 104.849,343.995 105.254,344.303 105.509 C 344.610 105.764,344.935 106.353,345.026 106.818 C 345.173 107.576,345.195 107.583,345.234 106.887 C 345.259 106.460,344.937 105.674,344.520 105.141 C 344.103 104.607,343.757 104.368,343.753 104.608 M345.684 108.222 C 345.684 108.661,345.858 109.020,346.072 109.020 C 346.285 109.020,346.460 109.202,346.460 109.425 C 346.460 109.647,346.835 110.214,347.293 110.685 C 348.168 111.586,347.973 111.068,346.796 109.365 C 346.410 108.807,346.188 108.257,346.303 108.142 C 346.418 108.028,346.325 107.819,346.098 107.678 C 345.856 107.529,345.684 107.755,345.684 108.222 M98.545 138.877 C 98.865 139.093,99.510 139.273,99.977 139.276 C 100.445 139.280,100.935 139.457,101.067 139.670 C 101.199 139.884,101.777 140.038,102.351 140.013 C 103.127 139.980,103.196 139.925,102.619 139.799 C 102.192 139.706,101.494 139.478,101.067 139.292 C 99.778 138.731,97.864 138.416,98.545 138.877 M104.656 140.727 C 105.349 140.813,105.917 141.047,105.917 141.247 C 105.917 141.447,106.484 141.586,107.177 141.557 C 108.235 141.513,108.282 141.476,107.468 141.330 C 106.935 141.235,106.333 140.997,106.130 140.801 C 105.927 140.606,105.229 140.474,104.578 140.508 L 103.395 140.570 104.656 140.727 M112.900 143.560 C 112.900 143.768,113.540 143.938,114.323 143.938 C 115.985 143.938,115.929 143.758,114.161 143.421 C 113.436 143.283,112.900 143.342,112.900 143.560 M196.477 154.857 C 192.687 156.697,194.597 162.904,198.963 162.936 C 202.804 162.964,204.480 158.200,201.538 155.617 C 200.087 154.343,198.140 154.051,196.477 154.857 M155.132 155.287 C 155.328 155.483,155.901 155.578,156.405 155.498 C 157.182 155.376,157.127 155.322,156.050 155.143 C 155.279 155.015,154.917 155.072,155.132 155.287 M157.905 156.013 C 157.905 156.200,158.807 156.353,159.909 156.353 C 161.012 156.353,161.841 156.289,161.752 156.211 C 161.377 155.880,157.905 155.702,157.905 156.013 M76.625 175.752 C 76.218 179.255,76.709 182.735,77.610 182.735 C 78.003 182.735,78.433 182.910,78.565 183.123 C 78.696 183.337,79.220 183.511,79.728 183.511 C 80.237 183.511,80.748 183.666,80.865 183.854 C 80.981 184.043,81.861 184.315,82.818 184.459 C 83.776 184.602,84.662 184.884,84.786 185.085 C 84.910 185.287,85.428 185.451,85.936 185.451 C 86.444 185.451,86.968 185.626,87.100 185.839 C 87.232 186.052,87.731 186.227,88.209 186.227 C 88.687 186.227,89.244 186.371,89.447 186.547 C 89.650 186.724,90.558 187.101,91.465 187.386 C 92.371 187.670,93.113 188.050,93.113 188.229 C 93.113 188.408,93.540 188.555,94.061 188.555 C 94.581 188.555,95.115 188.729,95.247 188.943 C 95.379 189.156,95.903 189.331,96.411 189.331 C 96.920 189.331,97.431 189.485,97.548 189.674 C 97.664 189.863,98.532 190.133,99.476 190.275 C 101.003 190.503,103.269 191.359,105.232 192.449 C 105.603 192.654,106.247 192.823,106.664 192.823 C 107.081 192.823,107.531 192.997,107.662 193.210 C 107.794 193.424,108.243 193.598,108.661 193.598 C 109.078 193.598,109.722 193.754,110.093 193.944 C 112.260 195.056,114.428 195.909,115.616 196.119 C 116.911 196.348,118.112 196.773,119.587 197.523 C 119.958 197.712,120.520 197.866,120.836 197.866 C 121.153 197.866,122.034 198.215,122.793 198.642 C 123.553 199.069,124.508 199.418,124.916 199.418 C 125.324 199.418,125.765 199.593,125.897 199.806 C 126.029 200.019,126.441 200.194,126.813 200.194 C 127.661 200.194,129.576 201.066,129.580 201.455 C 129.582 201.615,129.976 201.747,130.456 201.748 C 130.936 201.750,131.829 202.011,132.440 202.330 C 133.051 202.649,133.776 202.910,134.050 202.910 C 134.503 202.910,135.507 203.411,140.834 206.302 C 144.026 208.034,144.315 208.212,145.102 208.924 C 147.654 211.233,147.429 215.487,144.617 218.086 C 144.243 218.431,143.938 218.999,143.938 219.347 C 143.938 219.696,143.763 219.981,143.550 219.981 C 143.337 219.981,143.162 220.165,143.162 220.390 C 143.162 221.029,141.657 224.174,141.222 224.442 C 141.008 224.575,140.484 225.448,140.058 226.382 C 139.633 227.317,139.098 228.196,138.871 228.336 C 138.644 228.477,138.287 228.967,138.078 229.427 C 137.297 231.140,134.750 234.777,134.142 235.047 C 133.982 235.118,133.851 235.391,133.851 235.653 C 133.851 235.915,133.539 236.468,133.159 236.881 C 132.779 237.295,132.155 238.244,131.773 238.991 C 130.617 241.250,130.126 242.056,129.451 242.802 C 129.097 243.194,128.807 243.691,128.807 243.908 C 128.807 244.125,128.458 244.619,128.031 245.005 C 127.604 245.391,127.255 245.915,127.255 246.169 C 127.255 246.423,126.906 246.946,126.479 247.333 C 126.052 247.719,125.703 248.194,125.703 248.389 C 125.703 248.687,124.001 251.179,123.377 251.794 C 123.269 251.901,122.933 252.468,122.630 253.055 C 122.328 253.642,121.935 254.122,121.758 254.122 C 121.581 254.122,121.435 254.363,121.435 254.657 C 121.435 254.951,121.155 255.424,120.813 255.708 C 120.471 255.992,120.027 256.581,119.827 257.016 C 119.218 258.340,118.490 259.511,117.812 260.261 C 117.458 260.652,117.168 261.150,117.168 261.367 C 117.168 261.584,116.819 262.077,116.392 262.464 C 115.965 262.850,115.616 263.379,115.616 263.640 C 115.616 263.901,115.336 264.347,114.994 264.631 C 114.651 264.915,114.215 265.504,114.025 265.939 C 113.502 267.133,112.783 268.200,112.027 268.905 C 111.654 269.253,111.348 269.710,111.348 269.920 C 111.348 270.130,110.824 270.850,110.184 271.520 C 109.544 272.190,109.020 272.884,109.020 273.062 C 109.020 273.240,108.595 273.785,108.076 274.273 L 107.132 275.160 107.979 276.017 C 108.445 276.488,109.426 277.760,110.159 278.844 C 111.709 281.134,112.062 281.111,113.764 278.615 C 114.437 277.627,115.893 275.684,116.998 274.297 C 119.277 271.437,129.002 256.981,139.834 240.349 C 143.864 234.161,147.659 228.347,148.266 227.430 C 148.873 226.512,149.370 225.679,149.370 225.579 C 149.370 225.479,149.783 224.742,150.288 223.943 C 151.377 222.216,153.217 218.863,155.096 215.178 C 159.359 206.818,154.283 200.432,138.700 194.548 C 132.488 192.202,129.451 191.092,123.375 188.946 C 119.855 187.702,115.228 186.046,113.094 185.267 C 110.960 184.488,107.032 183.096,104.365 182.174 C 101.697 181.253,98.468 180.118,97.187 179.652 C 91.581 177.613,78.495 173.424,77.732 173.424 C 76.997 173.424,76.862 173.709,76.625 175.752 M312.512 174.416 C 311.018 174.933,308.574 175.713,307.081 176.149 C 305.587 176.585,304.016 177.093,303.589 177.278 C 303.162 177.462,302.202 177.823,301.455 178.080 C 300.708 178.336,299.748 178.686,299.321 178.857 C 298.378 179.235,296.112 180.068,288.264 182.923 C 284.956 184.127,280.941 185.616,279.340 186.233 C 277.740 186.851,273.375 188.508,269.641 189.916 C 265.907 191.325,262.328 192.716,261.688 193.008 C 261.048 193.300,260.042 193.659,259.453 193.805 C 258.864 193.952,258.287 194.228,258.169 194.417 C 258.052 194.607,257.704 194.762,257.395 194.762 C 257.087 194.762,255.929 195.199,254.824 195.732 C 253.718 196.266,252.584 196.702,252.304 196.702 C 252.024 196.702,251.794 196.877,251.794 197.090 C 251.794 197.304,251.460 197.478,251.051 197.478 C 250.642 197.478,250.249 197.615,250.178 197.782 C 250.107 197.950,248.726 198.736,247.109 199.529 C 243.487 201.306,242.708 202.133,242.101 204.850 C 241.839 206.023,241.468 207.287,241.278 207.657 C 240.790 208.605,240.844 209.086,241.513 209.755 C 242.000 210.242,242.095 210.247,242.095 209.787 C 242.095 208.939,243.313 208.022,246.825 206.228 C 248.598 205.322,251.070 204.031,252.319 203.358 C 253.567 202.685,254.877 202.133,255.229 202.131 C 255.580 202.130,256.368 201.868,256.979 201.550 C 257.591 201.231,258.420 200.970,258.822 200.970 C 259.225 200.970,259.555 200.839,259.557 200.679 C 259.560 200.333,261.437 199.418,262.141 199.418 C 262.412 199.418,263.256 199.069,264.016 198.642 C 264.775 198.215,265.656 197.866,265.972 197.866 C 266.289 197.866,266.851 197.706,267.222 197.511 C 268.759 196.700,270.768 195.926,271.337 195.926 C 271.672 195.926,272.567 195.577,273.327 195.150 C 274.087 194.724,275.042 194.374,275.450 194.374 C 275.857 194.374,276.299 194.200,276.431 193.986 C 276.563 193.773,277.097 193.598,277.617 193.598 C 278.138 193.598,278.566 193.468,278.568 193.307 C 278.572 192.919,280.486 192.047,281.335 192.047 C 281.706 192.047,282.118 191.872,282.250 191.659 C 282.382 191.445,282.809 191.271,283.199 191.271 C 283.589 191.271,284.407 191.010,285.019 190.691 C 285.630 190.372,286.523 190.110,287.003 190.109 C 287.483 190.108,287.876 189.932,287.876 189.719 C 287.876 189.505,288.192 189.331,288.579 189.331 C 288.966 189.331,290.005 188.982,290.888 188.555 C 291.771 188.128,292.754 187.779,293.072 187.779 C 293.390 187.779,293.758 187.604,293.889 187.391 C 294.021 187.177,294.470 187.003,294.888 187.003 C 295.305 187.003,295.949 186.843,296.320 186.648 C 297.727 185.905,299.772 185.120,301.455 184.675 C 302.415 184.422,303.504 184.056,303.874 183.863 C 304.245 183.669,304.889 183.511,305.306 183.511 C 305.724 183.511,306.173 183.337,306.305 183.123 C 309.210 178.422,310.114 199.320,307.648 214.161 C 307.453 215.335,307.177 217.217,307.034 218.343 C 306.892 219.470,306.626 220.484,306.443 220.597 C 306.260 220.710,306.111 221.393,306.111 222.114 C 306.111 222.836,305.960 223.519,305.777 223.633 C 305.593 223.746,305.330 224.666,305.191 225.676 C 304.793 228.579,303.238 233.415,301.607 236.820 C 301.310 237.440,301.067 238.152,301.067 238.403 C 301.067 238.654,300.631 239.719,300.099 240.768 C 299.566 241.818,299.130 242.999,299.129 243.393 C 299.128 243.787,298.810 244.573,298.422 245.139 C 298.035 245.705,296.885 247.827,295.868 249.855 C 293.223 255.124,292.418 256.567,291.754 257.226 C 291.432 257.546,290.922 258.288,290.620 258.875 C 290.319 259.462,289.927 259.942,289.750 259.942 C 289.573 259.942,289.428 260.182,289.428 260.476 C 289.428 260.770,289.148 261.243,288.805 261.527 C 288.463 261.811,288.019 262.400,287.819 262.836 C 287.109 264.378,286.409 265.436,285.403 266.486 C 284.843 267.071,284.384 267.724,284.384 267.937 C 284.384 268.151,283.773 268.917,283.026 269.641 C 281.709 270.918,281.338 271.768,281.982 272.034 C 282.155 272.105,282.866 273.167,283.562 274.394 C 285.301 277.455,285.592 277.323,290.648 271.193 C 311.106 246.384,321.004 213.120,317.566 180.728 C 316.687 172.446,317.018 172.858,312.512 174.416 M229.030 177.473 C 227.178 178.292,226.437 179.677,226.682 181.857 C 227.170 186.184,232.308 187.555,234.450 183.930 C 236.554 180.368,232.746 175.830,229.030 177.473 M165.470 178.125 C 161.115 180.643,162.552 186.615,167.514 186.615 C 169.832 186.615,171.799 183.953,171.330 181.452 C 170.853 178.910,167.452 176.979,165.470 178.125 M76.285 184.108 C 76.152 184.455,76.065 185.292,76.091 185.968 C 76.132 186.990,76.189 186.904,76.430 185.451 C 76.738 183.595,76.682 183.073,76.285 184.108 M368.273 192.047 C 368.223 195.354,368.073 199.544,367.940 201.358 C 367.759 203.830,367.810 204.552,368.144 204.241 C 368.460 203.946,368.557 201.253,368.477 194.929 C 368.388 187.835,368.346 187.251,368.273 192.047 M367.476 209.166 C 367.440 209.513,367.300 210.386,367.165 211.106 C 366.976 212.114,367.027 212.315,367.385 211.981 C 367.654 211.731,367.785 210.909,367.696 210.041 C 367.611 209.213,367.511 208.819,367.476 209.166 M216.375 215.719 C 213.231 218.192,215.173 223.602,219.205 223.602 C 223.433 223.602,224.987 218.021,221.448 215.542 C 220.211 214.676,217.585 214.767,216.375 215.719 M176.683 216.644 C 172.929 220.398,178.054 226.530,182.375 223.453 C 183.872 222.387,184.579 220.070,183.904 218.441 C 182.555 215.183,179.023 214.304,176.683 216.644 M365.539 226.836 C 365.608 227.191,365.883 227.554,366.149 227.643 C 366.863 227.881,366.741 226.700,366.024 226.425 C 365.599 226.262,365.452 226.386,365.539 226.836 M364.694 230.048 C 364.694 230.795,365.183 231.604,365.511 231.401 C 366.058 231.062,365.917 230.173,365.276 229.928 C 364.956 229.805,364.694 229.859,364.694 230.048 M363.924 232.881 C 363.946 234.930,364.898 235.766,365.162 233.968 C 365.254 233.339,365.187 232.913,365.012 233.021 C 364.837 233.129,364.694 233.033,364.694 232.807 C 364.694 232.581,364.520 232.396,364.306 232.396 C 364.093 232.396,363.921 232.614,363.924 232.881 M363.155 236.009 C 363.176 236.789,364.306 238.108,364.306 237.351 C 364.306 237.008,364.398 236.488,364.510 236.196 C 364.638 235.864,364.420 235.644,363.928 235.607 C 363.496 235.574,363.148 235.755,363.155 236.009 M196.508 237.827 C 196.376 238.041,195.842 238.215,195.321 238.215 C 194.801 238.215,194.374 238.390,194.374 238.603 C 194.374 238.817,194.141 238.991,193.855 238.991 C 193.569 238.991,192.526 239.995,191.538 241.222 C 190.550 242.449,188.383 245.036,186.723 246.972 C 185.063 248.907,183.181 251.157,182.541 251.972 C 181.901 252.787,181.194 253.648,180.970 253.885 C 180.746 254.122,179.031 256.324,177.159 258.778 C 175.288 261.232,173.373 263.676,172.904 264.210 C 172.435 264.743,171.623 265.790,171.100 266.537 C 170.576 267.284,170.007 268.070,169.837 268.283 C 169.666 268.497,168.875 269.544,168.080 270.610 C 167.285 271.676,166.460 272.740,166.246 272.973 C 165.776 273.488,164.903 274.643,161.727 278.952 C 160.390 280.766,159.189 282.338,159.057 282.444 C 158.926 282.551,157.784 284.035,156.521 285.742 C 155.257 287.449,154.129 288.933,154.014 289.040 C 153.899 289.146,152.947 290.456,151.898 291.950 C 150.849 293.443,149.851 294.724,149.680 294.795 C 149.509 294.866,149.370 295.171,149.370 295.474 C 149.370 295.776,149.195 296.023,148.982 296.023 C 148.768 296.023,148.594 296.285,148.594 296.605 C 148.594 296.925,148.419 297.187,148.206 297.187 C 147.992 297.187,147.818 297.385,147.818 297.626 C 147.818 298.134,145.142 301.974,144.654 302.166 C 144.140 302.369,144.270 303.394,144.811 303.397 C 145.078 303.398,145.776 303.650,146.363 303.956 C 147.305 304.448,147.430 304.443,147.430 303.917 C 147.430 303.250,148.770 301.204,149.836 300.245 C 150.220 299.900,150.533 299.446,150.533 299.236 C 150.533 299.026,151.057 298.306,151.697 297.636 C 152.338 296.966,152.861 296.273,152.861 296.094 C 152.861 295.916,153.298 295.361,153.831 294.859 C 154.365 294.358,154.801 293.749,154.801 293.506 C 154.801 293.263,155.325 292.563,155.965 291.950 C 156.605 291.336,157.129 290.636,157.129 290.393 C 157.129 290.150,157.565 289.541,158.099 289.040 C 158.632 288.539,159.069 287.930,159.069 287.687 C 159.069 287.444,159.593 286.743,160.233 286.130 C 160.873 285.517,161.397 284.818,161.397 284.578 C 161.397 284.338,161.920 283.639,162.561 283.026 C 163.201 282.413,163.725 281.716,163.725 281.478 C 163.725 281.240,164.336 280.452,165.082 279.728 C 165.829 279.005,166.440 278.255,166.440 278.062 C 166.440 277.869,166.964 277.223,167.604 276.625 C 168.244 276.027,168.768 275.389,168.769 275.208 C 168.769 275.027,169.205 274.371,169.739 273.751 C 170.272 273.131,170.709 272.520,170.710 272.394 C 170.711 272.267,171.235 271.605,171.874 270.923 C 172.513 270.241,173.036 269.535,173.036 269.353 C 173.036 269.171,173.734 268.341,174.588 267.507 C 175.441 266.674,176.140 265.796,176.140 265.556 C 176.140 265.317,176.576 264.711,177.110 264.210 C 177.643 263.708,178.080 263.102,178.080 262.863 C 178.080 262.623,178.778 261.745,179.631 260.912 C 180.485 260.078,181.183 259.206,181.183 258.974 C 181.183 258.742,181.969 257.780,182.929 256.838 C 183.889 255.896,184.675 254.940,184.675 254.714 C 184.675 253.910,193.393 245.587,194.235 245.587 C 196.756 245.587,197.549 246.111,202.348 250.944 C 205.004 253.620,207.177 255.976,207.177 256.181 C 207.177 256.386,207.483 256.835,207.856 257.180 C 209.236 258.456,213.773 263.755,213.773 264.092 C 213.773 264.283,214.471 265.122,215.325 265.955 C 216.178 266.789,216.877 267.663,216.877 267.898 C 216.877 268.133,217.488 268.917,218.235 269.641 C 218.982 270.365,219.593 271.148,219.593 271.381 C 219.593 271.614,220.466 272.664,221.532 273.715 C 222.599 274.766,223.472 275.816,223.472 276.049 C 223.472 276.282,224.083 277.065,224.830 277.789 C 225.577 278.512,226.188 279.297,226.188 279.532 C 226.188 279.767,226.887 280.641,227.740 281.474 C 228.594 282.308,229.292 283.186,229.292 283.425 C 229.292 283.665,229.728 284.271,230.262 284.772 C 230.795 285.273,231.232 285.851,231.232 286.055 C 231.232 286.260,231.537 286.709,231.911 287.054 C 233.090 288.144,236.275 292.058,236.275 292.418 C 236.275 292.607,236.974 293.444,237.827 294.277 C 238.681 295.111,239.379 295.992,239.379 296.236 C 239.379 296.480,239.725 296.991,240.147 297.373 C 241.683 298.764,242.955 301.893,242.077 302.123 C 241.660 302.232,241.319 302.476,241.319 302.664 C 241.319 302.853,241.101 303.008,240.834 303.008 C 240.567 303.009,239.490 303.446,238.441 303.978 C 237.391 304.511,236.305 304.947,236.028 304.947 C 235.750 304.947,234.901 305.296,234.142 305.723 C 233.382 306.149,232.416 306.499,231.996 306.499 C 231.576 306.499,231.232 306.673,231.232 306.887 C 231.232 307.100,230.806 307.274,230.285 307.274 C 229.764 307.274,229.230 307.449,229.098 307.662 C 228.966 307.876,228.461 308.050,227.976 308.050 C 227.491 308.050,226.963 308.181,226.803 308.341 C 226.490 308.654,223.302 309.529,221.238 309.868 C 220.542 309.982,219.877 310.231,219.760 310.421 C 219.643 310.611,218.981 310.766,218.289 310.766 C 217.598 310.766,216.866 310.923,216.663 311.114 C 216.461 311.306,215.597 311.554,214.743 311.667 C 213.889 311.779,211.532 312.183,209.505 312.566 C 202.810 313.828,179.293 313.525,172.163 312.084 C 171.525 311.955,171.096 312.037,171.096 312.287 C 171.096 312.524,171.844 312.706,172.819 312.706 C 173.767 312.706,174.650 312.881,174.782 313.094 C 174.914 313.307,175.874 313.482,176.916 313.482 C 177.957 313.482,178.918 313.657,179.049 313.870 C 179.183 314.087,180.993 314.258,183.146 314.258 C 185.533 314.258,187.003 314.410,187.003 314.658 C 187.003 315.444,213.288 314.713,215.131 313.875 C 215.558 313.681,216.693 313.436,217.653 313.331 C 220.434 313.026,225.203 312.031,229.098 310.942 C 230.378 310.584,231.908 310.203,232.497 310.096 C 233.087 309.989,233.665 309.746,233.781 309.558 C 233.898 309.369,234.335 309.214,234.752 309.214 C 235.169 309.214,235.813 309.054,236.184 308.857 C 236.554 308.661,239.040 307.678,241.707 306.673 C 244.374 305.669,246.723 304.695,246.925 304.509 C 247.128 304.323,247.504 304.171,247.760 304.171 C 248.734 304.171,254.898 300.991,254.898 300.489 C 254.898 300.199,254.314 299.197,253.601 298.263 C 252.887 297.328,251.664 295.563,250.883 294.342 C 248.640 290.837,241.898 282.159,227.377 264.088 C 221.922 257.300,216.970 251.102,216.372 250.315 C 215.774 249.528,214.072 247.658,212.589 246.160 C 211.106 244.661,209.893 243.221,209.893 242.959 C 209.893 242.697,209.631 242.483,209.311 242.483 C 208.991 242.483,208.729 242.253,208.729 241.971 C 208.729 240.764,204.376 238.215,202.314 238.215 C 201.600 238.215,200.908 238.041,200.776 237.827 C 200.644 237.614,199.684 237.439,198.642 237.439 C 197.600 237.439,196.640 237.614,196.508 237.827 M362.367 238.603 C 362.367 238.817,362.541 238.991,362.755 238.991 C 362.968 238.991,363.156 239.471,363.173 240.058 C 363.190 240.645,363.294 240.899,363.405 240.624 C 363.682 239.933,363.213 238.215,362.747 238.215 C 362.538 238.215,362.367 238.390,362.367 238.603 M363.533 290.883 C 363.541 293.836,364.063 297.187,364.516 297.187 C 368.088 297.187,368.539 309.509,364.983 309.919 C 364.131 310.017,363.919 310.241,363.919 311.036 L 363.919 312.030 368.124 311.857 C 374.961 311.575,376.722 309.326,376.722 300.873 C 376.722 292.096,374.844 289.816,367.620 289.816 L 363.531 289.816 363.533 290.883 M390.363 307.371 C 390.329 308.172,390.126 308.826,389.913 308.826 C 389.699 308.826,389.525 309.178,389.525 309.608 C 389.525 310.472,388.912 311.678,387.876 312.857 C 387.502 313.281,387.197 313.745,387.197 313.888 C 387.197 314.030,386.152 314.908,384.874 315.838 L 382.551 317.530 384.001 318.099 C 384.799 318.412,385.721 318.970,386.050 319.340 C 386.609 319.967,386.684 319.931,387.183 318.784 C 387.476 318.108,387.818 317.468,387.942 317.362 C 388.452 316.922,389.137 315.382,389.137 314.674 C 389.137 314.257,389.311 313.808,389.525 313.676 C 389.738 313.544,389.913 312.649,389.913 311.688 C 389.913 310.726,390.098 309.594,390.324 309.171 C 390.550 308.748,390.665 307.843,390.580 307.160 C 390.430 305.958,390.423 305.965,390.363 307.371 M165.761 311.034 C 166.135 311.131,166.746 311.131,167.119 311.034 C 167.493 310.936,167.187 310.856,166.440 310.856 C 165.694 310.856,165.388 310.936,165.761 311.034 M168.333 311.650 C 168.520 311.838,169.175 311.928,169.788 311.852 C 170.813 311.724,170.786 311.697,169.447 311.512 C 168.613 311.396,168.138 311.455,168.333 311.650 M363.533 325.800 C 363.544 330.096,364.014 332.064,365.082 332.299 C 365.663 332.426,366.642 333.057,367.259 333.700 L 368.380 334.869 368.505 340.901 C 368.648 347.786,368.349 348.566,365.396 349.038 C 362.578 349.489,363.671 350.248,367.555 350.540 C 376.698 351.225,377.700 350.014,377.674 338.312 C 377.648 326.347,376.453 324.752,367.507 324.739 L 363.531 324.733 363.533 325.800 M391.570 348.400 C 391.570 349.360,391.646 349.753,391.738 349.273 C 391.831 348.792,391.831 348.007,391.738 347.527 C 391.646 347.047,391.570 347.439,391.570 348.400 " stroke="none" fill="#161616" fill-rule="evenodd"></path><path id="path1" d="M184.141 21.226 C 183.989 21.378,182.083 21.620,179.905 21.764 C 173.737 22.172,164.043 23.746,158.487 25.240 C 157.633 25.470,156.324 25.809,155.577 25.994 C 154.830 26.179,153.608 26.507,152.861 26.722 C 152.114 26.938,150.892 27.281,150.145 27.484 C 146.136 28.574,141.375 30.149,138.506 31.335 C 137.973 31.555,136.925 31.948,136.178 32.208 C 134.639 32.744,134.016 33.002,128.613 35.338 C 124.594 37.077,116.722 41.029,113.676 42.838 C 112.716 43.408,111.625 43.975,111.251 44.097 C 110.878 44.219,110.572 44.474,110.572 44.662 C 110.572 44.851,110.397 45.005,110.182 45.005 C 109.286 45.005,93.990 55.469,91.902 57.511 C 91.608 57.799,91.002 58.288,90.555 58.600 C 87.115 60.996,76.602 70.884,71.581 76.445 C 67.463 81.006,66.791 81.801,63.387 86.130 C 49.644 103.605,38.792 124.796,32.989 145.490 C 32.720 146.450,32.356 147.672,32.181 148.206 C 31.811 149.332,30.445 155.145,30.084 157.129 C 29.320 161.329,29.018 162.173,28.283 162.173 C 27.878 162.173,27.546 161.988,27.546 161.762 C 27.546 161.536,27.371 161.459,27.158 161.591 C 26.945 161.723,26.770 162.780,26.770 163.941 C 26.770 165.102,26.596 166.052,26.382 166.052 C 26.165 166.052,25.994 167.126,25.994 168.497 C 25.994 169.935,25.795 171.140,25.509 171.426 C 24.803 172.132,24.803 213.901,25.509 214.607 C 25.801 214.899,25.994 216.133,25.994 217.707 C 25.994 219.146,26.169 220.431,26.382 220.563 C 26.596 220.694,26.770 221.655,26.770 222.696 C 26.770 223.738,26.945 224.698,27.158 224.830 C 27.371 224.962,27.546 225.660,27.546 226.382 C 27.546 227.104,27.721 227.802,27.934 227.934 C 28.147 228.066,28.322 228.949,28.322 229.897 C 28.322 230.844,28.497 231.620,28.710 231.620 C 28.923 231.620,29.098 232.146,29.098 232.789 C 29.098 233.432,29.264 234.261,29.466 234.632 C 29.669 235.002,29.940 236.131,30.070 237.139 C 30.200 238.148,30.471 239.075,30.672 239.199 C 30.873 239.323,31.038 240.015,31.038 240.737 C 31.038 241.459,31.212 242.157,31.426 242.289 C 31.639 242.421,31.814 242.945,31.814 243.453 C 31.814 243.961,31.988 244.485,32.202 244.617 C 32.415 244.749,32.590 245.283,32.590 245.804 C 32.590 246.325,32.764 246.751,32.978 246.751 C 33.191 246.751,33.366 247.274,33.366 247.915 C 33.366 248.555,33.540 249.079,33.754 249.079 C 33.967 249.079,34.142 249.505,34.142 250.026 C 34.142 250.546,34.316 251.081,34.530 251.212 C 34.743 251.344,34.918 251.771,34.918 252.161 C 34.918 252.551,35.178 253.370,35.497 253.981 C 35.816 254.592,36.078 255.354,36.081 255.674 C 36.083 255.994,36.433 256.828,36.859 257.526 C 37.285 258.225,37.633 259.030,37.633 259.316 C 37.633 259.601,38.332 261.192,39.185 262.852 C 40.039 264.511,40.737 266.194,40.737 266.591 C 40.737 266.988,40.912 267.313,41.125 267.313 C 41.339 267.313,41.513 267.507,41.513 267.743 C 41.513 268.346,43.793 273.057,44.209 273.315 C 44.398 273.431,45.216 274.879,46.026 276.531 C 46.837 278.183,47.640 279.594,47.810 279.666 C 47.981 279.738,48.458 280.539,48.871 281.445 C 49.284 282.352,49.893 283.318,50.223 283.592 C 50.554 283.867,50.824 284.305,50.824 284.565 C 50.824 284.826,51.174 285.356,51.600 285.742 C 52.027 286.128,52.376 286.652,52.376 286.906 C 52.376 287.160,52.721 287.680,53.143 288.062 C 53.565 288.443,53.831 288.883,53.734 289.040 C 53.638 289.196,53.904 289.636,54.325 290.018 C 54.747 290.400,55.092 290.920,55.092 291.174 C 55.092 291.428,55.441 291.951,55.868 292.338 C 56.295 292.724,56.644 293.212,56.644 293.423 C 56.644 293.633,57.168 294.306,57.808 294.918 C 58.448 295.529,58.972 296.278,58.972 296.580 C 58.972 296.883,59.408 297.474,59.942 297.894 C 60.475 298.313,60.912 298.872,60.912 299.134 C 60.912 299.397,61.785 300.404,62.852 301.372 C 63.919 302.340,64.791 303.328,64.791 303.567 C 64.791 303.807,65.752 304.952,66.925 306.111 C 68.099 307.270,69.059 308.401,69.059 308.624 C 69.059 309.147,79.610 319.690,80.133 319.690 C 80.349 319.690,81.652 320.824,83.026 322.211 C 84.401 323.598,85.662 324.733,85.829 324.733 C 85.996 324.733,86.962 325.518,87.974 326.477 C 88.987 327.436,89.964 328.222,90.145 328.223 C 90.326 328.224,90.964 328.749,91.562 329.389 C 92.160 330.029,92.859 330.553,93.116 330.553 C 93.373 330.553,93.937 331.002,94.370 331.552 C 94.802 332.101,95.525 332.720,95.977 332.926 C 97.320 333.540,98.494 334.266,99.252 334.952 C 99.644 335.306,100.142 335.597,100.358 335.597 C 100.575 335.597,101.069 335.946,101.455 336.372 C 101.841 336.799,102.335 337.148,102.551 337.148 C 102.768 337.148,103.266 337.438,103.658 337.793 C 104.410 338.474,105.252 338.985,107.468 340.107 C 108.215 340.485,109.109 341.109,109.454 341.493 C 109.799 341.878,110.352 342.192,110.682 342.192 C 111.013 342.192,111.342 342.323,111.413 342.483 C 111.537 342.762,113.725 343.974,118.332 346.316 C 119.505 346.913,120.524 347.539,120.595 347.706 C 120.666 347.874,121.059 348.012,121.468 348.012 C 121.877 348.012,122.211 348.186,122.211 348.400 C 122.211 348.613,122.543 348.788,122.948 348.788 C 123.353 348.788,124.663 349.302,125.858 349.931 C 127.053 350.560,128.031 350.999,128.031 350.907 C 128.031 350.816,128.647 351.087,129.401 351.510 C 130.154 351.933,131.114 352.279,131.535 352.279 C 131.955 352.279,132.299 352.454,132.299 352.667 C 132.299 352.881,132.643 353.055,133.063 353.055 C 133.483 353.055,134.449 353.404,135.209 353.831 C 135.968 354.258,136.924 354.607,137.331 354.607 C 137.739 354.607,138.180 354.782,138.312 354.995 C 138.444 355.209,138.978 355.383,139.499 355.383 C 140.020 355.383,140.446 355.515,140.446 355.676 C 140.446 356.177,142.769 357.027,143.568 356.818 C 143.984 356.709,144.423 356.778,144.542 356.971 C 144.662 357.165,145.176 357.323,145.684 357.323 C 146.192 357.323,146.716 357.498,146.848 357.711 C 146.980 357.924,147.503 358.099,148.012 358.099 C 148.520 358.099,149.044 358.274,149.176 358.487 C 149.307 358.700,149.918 358.875,150.533 358.875 C 151.148 358.875,151.759 359.049,151.891 359.263 C 152.023 359.476,152.547 359.651,153.055 359.651 C 153.564 359.651,154.087 359.825,154.219 360.039 C 154.351 360.252,155.234 360.427,156.182 360.427 C 157.130 360.427,157.905 360.601,157.905 360.815 C 157.905 361.028,158.506 361.203,159.240 361.203 C 159.974 361.203,160.683 361.377,160.815 361.591 C 160.947 361.804,161.820 361.979,162.755 361.979 C 163.690 361.979,164.575 362.174,164.723 362.412 C 164.891 362.685,165.613 362.761,166.669 362.616 C 167.607 362.487,168.449 362.553,168.580 362.764 C 168.709 362.972,169.666 363.143,170.708 363.143 C 171.750 363.143,172.710 363.317,172.842 363.531 C 172.974 363.744,174.458 363.919,176.140 363.919 C 177.822 363.919,179.306 364.093,179.437 364.306 C 179.577 364.533,181.769 364.694,184.698 364.694 C 187.786 364.694,189.719 364.844,189.719 365.082 C 189.719 365.606,202.004 365.606,202.328 365.082 C 202.468 364.855,204.717 364.694,207.759 364.694 C 210.802 364.694,213.051 364.534,213.191 364.306 C 213.323 364.093,214.632 363.919,216.101 363.919 C 217.625 363.919,218.884 363.735,219.035 363.491 C 219.184 363.250,219.779 363.161,220.403 363.285 C 221.172 363.439,221.610 363.323,221.845 362.903 C 222.438 361.843,230.100 360.701,230.650 361.591 C 231.072 362.273,232.008 362.006,232.008 361.203 C 232.008 360.776,232.113 360.427,232.241 360.427 C 232.370 360.427,235.196 359.726,238.522 358.870 C 242.375 357.879,244.704 357.449,244.940 357.685 C 245.347 358.092,247.501 357.809,248.089 357.272 C 248.292 357.087,248.859 356.935,249.350 356.935 C 249.972 356.935,250.242 356.709,250.242 356.189 C 250.242 355.669,250.683 355.301,251.697 354.975 C 254.045 354.219,260.726 351.647,263.154 350.564 C 264.387 350.014,266.089 349.564,266.936 349.564 C 268.189 349.564,268.477 349.426,268.477 348.830 C 268.477 347.975,271.125 346.741,272.885 346.776 C 273.644 346.791,274.053 346.575,274.179 346.091 C 274.281 345.701,275.179 344.974,276.174 344.475 C 277.168 343.976,280.120 342.298,282.733 340.746 C 285.345 339.194,287.836 337.924,288.267 337.924 C 289.017 337.924,290.572 337.227,290.980 336.707 C 291.239 336.377,293.667 334.928,294.772 334.443 C 295.258 334.230,295.757 333.792,295.881 333.468 C 296.005 333.145,296.367 332.881,296.685 332.881 C 297.003 332.881,297.753 332.357,298.351 331.717 C 298.949 331.077,299.622 330.553,299.846 330.553 C 300.070 330.553,300.847 329.942,301.572 329.195 C 302.298 328.448,303.105 327.837,303.367 327.837 C 303.629 327.837,304.515 327.139,305.335 326.285 C 306.155 325.432,306.979 324.733,307.166 324.733 C 307.352 324.733,308.807 323.449,310.397 321.878 C 311.987 320.308,313.491 318.955,313.739 318.871 C 314.490 318.619,323.957 309.256,323.957 308.766 C 323.957 308.516,325.092 307.214,326.479 305.874 C 327.866 304.534,329.001 303.234,329.001 302.984 C 329.001 302.734,329.705 301.913,330.566 301.159 C 331.427 300.404,332.067 299.596,331.990 299.363 C 331.912 299.130,332.517 298.297,333.334 297.512 C 334.152 296.727,334.821 295.897,334.821 295.669 C 334.821 295.441,335.170 295.036,335.597 294.769 C 336.023 294.503,336.372 294.005,336.372 293.662 C 336.372 293.320,336.722 292.724,337.148 292.338 C 337.575 291.951,337.924 291.413,337.924 291.142 C 337.924 290.870,338.361 290.305,338.894 289.885 C 339.428 289.465,339.864 288.880,339.864 288.585 C 339.864 288.289,340.213 287.795,340.640 287.488 C 341.067 287.180,341.416 286.618,341.416 286.238 C 341.416 285.859,341.591 285.548,341.804 285.548 C 342.017 285.548,342.192 285.220,342.192 284.820 C 342.192 284.419,342.454 283.874,342.774 283.608 C 343.094 283.343,343.356 282.912,343.356 282.651 C 343.356 282.390,343.705 281.861,344.132 281.474 C 344.559 281.088,344.908 280.537,344.908 280.250 C 344.908 279.963,345.082 279.728,345.296 279.728 C 345.509 279.728,345.684 279.379,345.684 278.952 C 345.684 278.526,345.858 278.177,346.072 278.177 C 346.285 278.177,346.460 277.916,346.460 277.598 C 346.460 277.280,346.809 276.801,347.236 276.535 C 347.662 276.268,348.012 275.743,348.012 275.367 C 348.012 274.992,348.186 274.685,348.400 274.685 C 348.613 274.685,348.788 274.336,348.788 273.909 C 348.788 273.482,348.919 273.132,349.079 273.130 C 349.497 273.125,350.357 271.147,350.112 270.751 C 349.998 270.567,350.091 270.417,350.317 270.417 C 350.543 270.417,350.727 270.068,350.727 269.641 C 350.727 269.195,350.986 268.865,351.336 268.865 C 351.781 268.865,351.873 268.642,351.679 268.031 C 351.462 267.348,351.537 267.243,352.087 267.454 C 352.615 267.657,352.718 267.549,352.563 266.956 C 352.449 266.519,352.590 266.113,352.898 265.995 C 353.191 265.883,353.336 265.545,353.220 265.244 C 353.105 264.944,353.280 264.594,353.608 264.468 C 353.954 264.336,354.110 263.987,353.977 263.642 C 353.851 263.314,353.941 263.046,354.178 263.046 C 354.414 263.046,354.607 262.527,354.607 261.894 C 354.607 261.056,354.758 260.800,355.161 260.955 C 355.565 261.110,355.658 260.949,355.504 260.360 C 355.383 259.899,355.478 259.554,355.726 259.554 C 355.964 259.554,356.159 259.215,356.159 258.801 C 356.159 258.387,356.334 257.939,356.548 257.807 C 356.763 257.675,356.831 257.141,356.700 256.620 C 356.522 255.908,356.619 255.674,357.094 255.674 C 357.584 255.674,357.668 255.443,357.466 254.640 C 357.246 253.761,357.310 253.646,357.893 253.870 C 358.461 254.088,358.547 253.966,358.393 253.158 C 358.262 252.472,358.377 252.182,358.779 252.182 C 359.189 252.182,359.304 251.865,359.186 251.059 C 359.060 250.197,359.152 249.985,359.583 250.151 C 360.018 250.318,360.106 250.099,359.971 249.181 C 359.837 248.265,359.924 248.044,360.355 248.209 C 360.793 248.377,360.879 248.126,360.753 247.049 C 360.628 245.979,360.715 245.722,361.145 245.887 C 361.570 246.050,361.656 245.821,361.520 244.896 C 361.414 244.169,361.508 243.723,361.758 243.767 C 361.986 243.808,362.228 243.361,362.295 242.774 C 362.363 242.187,362.581 241.707,362.780 241.707 C 363.328 241.707,363.214 239.082,362.658 238.883 C 362.376 238.782,362.317 238.566,362.517 238.365 C 362.717 238.165,362.933 238.224,363.034 238.506 C 363.129 238.773,363.367 238.991,363.563 238.991 C 364.045 238.991,364.017 237.158,363.531 236.857 C 362.869 236.448,363.094 235.457,363.822 235.580 C 364.245 235.651,364.455 235.483,364.379 235.136 C 363.878 232.830,363.859 232.396,364.258 232.396 C 364.498 232.396,364.694 232.605,364.694 232.861 C 364.694 233.217,364.801 233.220,365.150 232.872 C 365.498 232.524,365.498 232.182,365.150 231.418 C 364.516 230.028,364.578 229.722,365.446 229.949 C 366.234 230.155,366.550 227.973,365.799 227.509 C 365.241 227.165,365.432 226.198,366.014 226.421 C 366.771 226.712,367.285 223.675,366.616 222.868 C 366.223 222.395,366.244 222.332,366.732 222.519 C 367.372 222.765,367.558 221.874,368.033 216.295 C 368.161 214.801,368.422 213.413,368.613 213.210 C 368.805 213.008,368.962 211.229,368.962 209.257 C 368.962 207.285,369.137 205.563,369.350 205.432 C 369.880 205.104,369.880 180.153,369.350 179.825 C 369.136 179.693,368.962 177.946,368.962 175.923 C 368.962 173.740,368.805 172.260,368.574 172.260 C 368.353 172.260,368.186 171.104,368.186 169.567 C 368.186 168.086,368.034 166.780,367.849 166.666 C 367.663 166.551,367.388 164.709,367.236 162.573 C 367.085 160.436,366.800 158.589,366.604 158.468 C 366.407 158.346,366.246 157.569,366.246 156.741 C 366.246 155.913,366.072 155.127,365.858 154.995 C 365.645 154.863,365.470 154.165,365.470 153.443 C 365.470 152.722,365.296 152.023,365.082 151.891 C 364.869 151.759,364.694 151.051,364.694 150.317 C 364.694 149.582,364.520 148.982,364.306 148.982 C 364.093 148.982,363.919 148.283,363.919 147.430 C 363.919 146.576,363.744 145.878,363.531 145.878 C 363.317 145.878,363.143 145.267,363.143 144.520 C 363.143 143.773,362.990 143.162,362.805 143.162 C 362.619 143.162,362.352 142.296,362.211 141.238 C 362.071 140.180,361.787 139.209,361.579 139.081 C 361.372 138.953,361.203 138.335,361.203 137.707 C 361.203 137.080,361.028 136.566,360.815 136.566 C 360.601 136.566,360.427 136.140,360.427 135.619 C 360.427 135.099,360.252 134.564,360.039 134.433 C 359.825 134.301,359.651 133.767,359.651 133.246 C 359.651 132.725,359.476 132.299,359.263 132.299 C 359.049 132.299,358.875 131.873,358.875 131.352 C 358.875 130.831,358.700 130.297,358.487 130.165 C 358.274 130.033,358.099 129.586,358.099 129.172 C 358.099 128.758,357.924 128.419,357.711 128.419 C 357.498 128.419,357.323 127.983,357.323 127.449 C 357.323 126.916,357.192 126.479,357.032 126.479 C 356.872 126.479,356.398 125.344,355.980 123.957 C 355.561 122.570,355.081 121.435,354.913 121.435 C 354.745 121.435,354.607 121.086,354.607 120.660 C 354.607 120.233,354.433 119.884,354.219 119.884 C 354.006 119.884,353.831 119.534,353.831 119.108 C 353.831 118.681,353.657 118.332,353.443 118.332 C 353.230 118.332,353.055 117.983,353.055 117.556 C 353.055 117.129,352.913 116.780,352.740 116.780 C 352.566 116.780,352.184 116.169,351.891 115.422 C 351.598 114.675,351.217 114.064,351.043 114.064 C 350.869 114.064,350.727 113.776,350.727 113.424 C 350.727 112.670,348.761 108.497,348.317 108.309 C 348.149 108.238,348.012 107.845,348.012 107.436 C 348.012 107.027,347.837 106.693,347.624 106.693 C 347.410 106.693,347.236 106.464,347.236 106.184 C 347.236 105.904,346.887 105.300,346.460 104.842 C 346.033 104.384,345.684 103.827,345.684 103.605 C 345.684 103.383,345.509 103.201,345.296 103.201 C 345.082 103.201,344.908 102.864,344.908 102.453 C 344.908 102.041,344.690 101.474,344.423 101.192 C 344.156 100.910,343.690 100.199,343.387 99.612 C 343.085 99.025,342.692 98.545,342.514 98.545 C 342.337 98.545,342.192 98.322,342.192 98.049 C 342.192 97.776,341.843 97.301,341.416 96.993 C 340.989 96.686,340.640 96.162,340.640 95.829 C 340.640 95.497,340.291 94.973,339.864 94.665 C 339.437 94.358,339.088 93.817,339.088 93.463 C 339.088 93.110,338.826 92.603,338.506 92.338 C 338.186 92.072,337.924 91.653,337.924 91.406 C 337.924 91.159,337.575 90.705,337.148 90.398 C 336.722 90.090,336.372 89.615,336.372 89.343 C 336.372 89.070,335.674 88.127,334.821 87.248 C 333.967 86.368,333.269 85.517,333.269 85.356 C 333.269 85.195,332.658 84.396,331.911 83.581 C 331.164 82.766,330.553 81.935,330.553 81.735 C 330.553 81.385,329.479 80.325,328.186 79.398 C 327.844 79.153,327.278 78.396,326.928 77.716 C 326.577 77.036,325.577 75.814,324.704 75.000 C 323.832 74.187,322.739 73.119,322.277 72.628 C 321.814 72.137,320.503 70.827,319.363 69.718 C 318.223 68.609,316.390 66.768,315.289 65.627 C 314.189 64.486,312.852 63.321,312.318 63.038 C 311.785 62.755,310.720 61.943,309.953 61.233 C 308.266 59.672,307.644 59.168,304.921 57.156 C 303.761 56.299,302.572 55.310,302.280 54.957 C 301.987 54.605,301.587 54.316,301.390 54.316 C 301.193 54.316,300.595 53.880,300.062 53.346 C 299.528 52.813,298.893 52.376,298.649 52.376 C 298.406 52.376,297.804 51.997,297.311 51.534 C 296.269 50.555,295.767 50.785,296.393 51.955 C 296.709 52.544,296.710 52.764,296.397 52.764 C 295.612 52.764,294.902 51.714,295.122 50.875 C 295.255 50.364,295.157 50.048,294.863 50.048 C 294.601 50.048,294.488 50.309,294.612 50.630 C 294.761 51.019,294.595 51.212,294.113 51.212 C 293.716 51.212,293.290 50.951,293.167 50.630 C 293.044 50.310,292.628 50.048,292.241 50.048 C 291.855 50.048,291.287 49.699,290.980 49.273 C 290.672 48.846,290.148 48.497,289.816 48.497 C 289.483 48.497,288.959 48.147,288.652 47.721 C 288.344 47.294,287.849 46.945,287.551 46.945 C 287.189 46.945,287.081 46.670,287.226 46.118 C 287.450 45.261,287.088 44.764,285.635 43.938 C 284.506 43.296,283.996 43.326,283.996 44.035 C 283.996 44.779,283.438 44.779,282.694 44.035 C 282.374 43.715,281.925 43.453,281.696 43.453 C 281.467 43.453,281.280 43.278,281.280 43.065 C 281.280 42.852,280.931 42.677,280.504 42.677 C 280.078 42.677,279.728 42.502,279.728 42.289 C 279.728 42.076,279.379 41.901,278.952 41.901 C 278.526 41.901,278.177 41.726,278.177 41.513 C 278.177 41.300,277.907 41.125,277.578 41.125 C 277.249 41.125,276.605 40.776,276.147 40.349 C 275.689 39.922,274.998 39.573,274.612 39.573 C 274.225 39.573,273.909 39.401,273.909 39.190 C 273.909 38.979,273.210 38.695,272.357 38.558 C 271.503 38.422,270.805 38.158,270.805 37.972 C 270.805 37.786,270.543 37.633,270.223 37.633 C 269.903 37.633,269.641 37.459,269.641 37.245 C 269.641 37.032,269.292 36.857,268.865 36.857 C 268.438 36.857,268.089 36.683,268.089 36.469 C 268.089 36.256,267.740 36.081,267.313 36.081 C 266.887 36.081,266.537 35.907,266.537 35.694 C 266.537 35.480,266.188 35.306,265.761 35.306 C 265.335 35.306,264.985 35.131,264.985 34.918 C 264.985 34.704,264.636 34.530,264.210 34.530 C 263.783 34.530,263.434 34.355,263.434 34.142 C 263.434 33.928,262.997 33.754,262.464 33.754 C 261.930 33.754,261.494 33.585,261.494 33.379 C 261.494 33.173,260.624 32.889,259.561 32.748 C 258.498 32.607,257.723 32.339,257.838 32.153 C 257.953 31.966,257.611 31.814,257.078 31.814 C 256.544 31.814,256.000 31.639,255.868 31.426 C 255.736 31.212,255.289 31.038,254.875 31.038 C 254.461 31.038,254.122 30.863,254.122 30.650 C 254.122 30.436,253.598 30.262,252.958 30.262 C 252.318 30.262,251.794 30.087,251.794 29.874 C 251.794 29.661,251.358 29.486,250.824 29.486 C 250.291 29.486,249.855 29.311,249.855 29.098 C 249.855 28.885,249.331 28.710,248.691 28.710 C 248.050 28.710,247.527 28.535,247.527 28.322 C 247.527 28.109,247.003 27.934,246.363 27.934 C 245.723 27.934,245.199 27.759,245.199 27.546 C 245.199 27.333,245.068 27.188,244.908 27.225 C 244.228 27.382,240.127 26.650,239.933 26.337 C 239.817 26.148,239.208 25.994,238.580 25.994 C 237.953 25.994,237.439 25.820,237.439 25.606 C 237.439 25.393,236.654 25.218,235.694 25.218 C 234.733 25.218,233.948 25.044,233.948 24.830 C 233.948 24.617,233.260 24.442,232.419 24.442 C 231.578 24.442,230.782 24.268,230.650 24.054 C 230.518 23.841,229.645 23.666,228.710 23.666 C 227.775 23.666,226.902 23.492,226.770 23.278 C 226.638 23.065,225.703 22.890,224.691 22.890 C 223.679 22.890,222.686 22.733,222.483 22.542 C 222.280 22.350,220.892 22.093,219.399 21.971 C 217.905 21.850,214.762 21.581,212.415 21.375 C 207.456 20.939,184.548 20.819,184.141 21.226 M291.609 48.032 C 291.486 48.230,291.714 48.689,292.114 49.052 C 292.515 49.414,292.943 49.548,293.066 49.350 C 293.189 49.151,292.961 48.692,292.561 48.329 C 292.160 47.967,291.732 47.833,291.609 48.032 M297.963 53.478 C 297.963 53.657,298.443 54.029,299.030 54.305 C 299.618 54.581,299.885 54.883,299.625 54.977 C 299.366 55.071,298.669 54.699,298.077 54.150 C 297.485 53.601,297.218 53.152,297.482 53.152 C 297.747 53.152,297.963 53.299,297.963 53.478 M301.154 55.965 C 302.269 56.599,303.153 57.420,302.722 57.420 C 302.535 57.420,301.790 56.984,301.067 56.450 C 299.675 55.423,299.724 55.152,301.154 55.965 M306.080 59.814 L 307.020 61.002 306.095 60.472 C 304.372 59.484,303.660 58.561,304.656 58.605 C 304.922 58.617,305.564 59.161,306.080 59.814 M311.374 64.367 C 312.079 65.134,312.497 65.818,312.304 65.887 C 311.968 66.007,311.071 65.201,309.430 63.302 C 308.109 61.775,309.883 62.747,311.374 64.367 M179.734 73.288 C 180.056 74.522,179.738 102.430,179.292 111.930 C 179.062 116.838,178.683 125.567,178.450 131.329 C 178.218 137.090,177.864 142.107,177.665 142.478 C 177.466 142.848,177.304 144.104,177.304 145.268 C 177.304 146.432,177.129 147.492,176.916 147.624 C 176.702 147.756,176.528 148.628,176.528 149.564 C 176.528 150.499,176.345 151.377,176.121 151.515 C 175.898 151.653,175.759 152.056,175.813 152.411 C 176.067 154.085,169.740 159.269,168.809 158.148 C 168.567 157.856,167.149 157.514,165.574 157.368 C 164.033 157.224,162.602 156.937,162.394 156.730 C 162.187 156.523,161.092 156.353,159.961 156.353 C 158.830 156.353,157.905 156.178,157.905 155.965 C 157.905 155.752,157.304 155.577,156.570 155.577 C 155.836 155.577,155.127 155.403,154.995 155.189 C 154.863 154.976,154.144 154.801,153.397 154.801 C 152.591 154.801,152.137 154.644,152.279 154.413 C 152.424 154.179,151.895 154.025,150.944 154.025 C 150.078 154.025,149.370 153.851,149.370 153.637 C 149.370 153.424,148.846 153.249,148.206 153.249 C 147.565 153.249,147.042 153.075,147.042 152.861 C 147.042 152.648,146.431 152.473,145.684 152.473 C 144.937 152.473,144.326 152.299,144.326 152.085 C 144.326 151.872,143.628 151.697,142.774 151.697 C 141.920 151.697,141.222 151.523,141.222 151.309 C 141.222 151.096,140.709 150.921,140.081 150.921 C 139.454 150.921,138.821 150.729,138.676 150.494 C 138.526 150.252,137.930 150.164,137.295 150.291 C 136.676 150.415,136.178 150.346,136.178 150.136 C 136.178 149.928,135.567 149.758,134.821 149.758 C 134.074 149.758,133.463 149.583,133.463 149.370 C 133.463 149.156,132.939 148.982,132.299 148.982 C 131.659 148.982,131.135 148.807,131.135 148.594 C 131.135 148.380,130.524 148.206,129.777 148.206 C 129.030 148.206,128.419 148.031,128.419 147.818 C 128.419 147.604,127.895 147.430,127.255 147.430 C 126.615 147.430,126.091 147.255,126.091 147.042 C 126.091 146.828,125.480 146.654,124.733 146.654 C 123.986 146.654,123.375 146.479,123.375 146.266 C 123.375 146.052,122.852 145.878,122.211 145.878 C 121.571 145.878,121.048 145.740,121.048 145.572 C 121.048 145.404,120.500 145.225,119.830 145.174 C 119.160 145.123,118.421 144.963,118.188 144.819 C 117.664 144.495,117.092 144.373,114.743 144.086 C 113.729 143.961,112.900 143.703,112.900 143.511 C 112.900 143.319,112.464 143.162,111.930 143.162 C 111.397 143.162,110.960 142.987,110.960 142.774 C 110.960 142.561,110.436 142.386,109.796 142.386 C 109.156 142.386,108.632 142.211,108.632 141.998 C 108.632 141.785,108.021 141.610,107.274 141.610 C 106.528 141.610,105.917 141.435,105.917 141.222 C 105.917 141.009,105.393 140.834,104.753 140.834 C 104.113 140.834,103.589 140.660,103.589 140.446 C 103.589 140.233,103.150 140.058,102.614 140.058 C 102.077 140.058,101.335 139.905,100.965 139.717 C 99.847 139.151,96.458 138.114,95.732 138.116 C 95.359 138.117,95.053 137.944,95.053 137.730 C 95.053 137.517,94.714 137.342,94.300 137.342 C 93.886 137.342,93.439 137.168,93.307 136.954 C 93.176 136.741,92.467 136.566,91.733 136.566 C 90.656 136.566,90.398 136.416,90.398 135.790 C 90.398 135.364,90.552 135.015,90.740 135.015 C 90.929 135.015,91.184 134.709,91.308 134.336 C 91.431 133.962,92.156 132.609,92.919 131.329 C 93.681 130.048,94.421 128.739,94.563 128.419 C 94.704 128.099,95.135 127.499,95.519 127.085 C 95.903 126.671,96.217 126.118,96.217 125.856 C 96.217 125.594,96.353 125.322,96.518 125.251 C 96.683 125.179,97.848 123.637,99.106 121.823 C 103.706 115.191,113.840 104.195,119.593 99.592 C 123.178 96.724,127.853 93.245,129.098 92.518 C 129.791 92.114,130.359 91.645,130.359 91.478 C 130.359 91.311,130.621 91.174,130.941 91.174 C 131.261 91.174,131.523 90.999,131.523 90.786 C 131.523 90.572,131.714 90.398,131.948 90.398 C 132.182 90.398,132.855 90.054,133.445 89.635 C 135.026 88.508,141.377 84.963,144.714 83.343 C 157.906 76.941,179.098 70.855,179.734 73.288 M223.860 74.344 C 225.247 74.667,226.819 75.074,227.352 75.248 C 227.886 75.422,229.108 75.785,230.068 76.054 C 260.642 84.615,287.467 106.101,303.104 134.552 C 304.526 137.139,304.417 137.377,301.399 138.250 C 300.043 138.643,298.584 139.099,298.157 139.263 C 297.333 139.581,296.678 139.783,291.174 141.418 C 289.253 141.988,287.379 142.614,287.008 142.809 C 286.638 143.003,285.993 143.162,285.576 143.162 C 285.159 143.162,284.710 143.337,284.578 143.550 C 284.446 143.763,283.835 143.938,283.220 143.938 C 282.605 143.938,281.994 144.113,281.862 144.326 C 281.730 144.539,281.207 144.714,280.698 144.714 C 280.190 144.714,279.666 144.888,279.534 145.102 C 279.403 145.315,278.866 145.490,278.342 145.490 C 277.819 145.490,277.087 145.646,276.716 145.838 C 276.346 146.029,274.821 146.547,273.327 146.988 C 271.833 147.429,269.127 148.234,267.313 148.777 C 265.500 149.320,263.317 149.963,262.464 150.205 C 261.610 150.447,260.126 150.903,259.166 151.217 C 258.206 151.532,256.896 151.922,256.256 152.084 C 255.616 152.246,252.648 153.093,249.661 153.966 C 234.152 158.501,229.835 159.266,228.299 157.748 C 228.062 157.514,227.384 156.974,226.791 156.547 C 226.199 156.120,225.484 155.553,225.203 155.286 C 224.922 155.019,224.439 154.801,224.129 154.801 C 223.180 154.801,222.042 150.838,221.651 146.169 C 221.548 144.942,221.304 143.938,221.110 143.938 C 220.916 143.938,220.757 142.202,220.757 140.081 C 220.757 137.928,220.585 136.118,220.369 135.984 C 220.129 135.836,219.981 132.496,219.981 127.255 C 219.981 122.014,219.832 118.674,219.593 118.526 C 219.353 118.377,219.205 114.976,219.205 109.612 C 219.205 104.727,219.050 100.881,218.850 100.808 C 218.582 100.711,218.155 75.507,218.388 73.575 C 218.432 73.214,219.886 73.419,223.860 74.344 M322.724 75.709 C 324.797 77.985,325.667 79.146,325.299 79.146 C 325.039 79.146,323.568 77.619,322.254 75.985 C 321.851 75.483,321.257 74.767,320.933 74.394 C 319.516 72.757,321.086 73.910,322.724 75.709 M328.770 82.735 C 329.375 83.535,329.753 84.190,329.611 84.190 C 329.032 84.190,326.673 81.214,326.673 80.482 C 326.673 80.162,327.486 81.035,328.770 82.735 M331.454 85.854 C 332.165 86.632,332.985 88.180,332.539 87.905 C 331.994 87.568,330.440 85.354,330.748 85.354 C 330.885 85.354,331.202 85.579,331.454 85.854 M334.628 90.719 C 334.322 91.026,333.269 89.670,333.271 88.970 C 333.273 88.436,333.459 88.544,334.031 89.412 C 334.447 90.043,334.716 90.632,334.628 90.719 M335.864 91.774 C 336.195 92.104,336.365 92.474,336.243 92.596 C 336.020 92.820,334.821 91.807,334.821 91.395 C 334.821 91.003,335.248 91.158,335.864 91.774 M338.222 95.053 C 338.489 95.480,338.606 95.829,338.482 95.829 C 338.191 95.829,337.148 94.789,337.148 94.499 C 337.148 94.006,337.767 94.325,338.222 95.053 M341.014 99.834 C 341.022 100.009,340.766 99.891,340.446 99.570 C 340.126 99.250,339.870 98.671,339.878 98.282 C 339.892 97.569,340.981 99.056,341.014 99.834 M344.739 105.241 C 344.967 105.719,345.820 107.333,346.635 108.826 C 347.630 110.649,347.845 111.260,347.289 110.685 C 346.833 110.214,346.460 109.647,346.460 109.425 C 346.460 109.202,346.285 109.020,346.072 109.020 C 345.858 109.020,345.684 108.671,345.684 108.244 C 345.684 107.818,345.509 107.468,345.296 107.468 C 345.082 107.468,344.908 107.141,344.908 106.740 C 344.908 106.339,344.646 105.794,344.326 105.529 C 343.710 105.018,343.546 104.363,344.035 104.368 C 344.195 104.369,344.512 104.762,344.739 105.241 M357.086 131.232 C 357.225 131.819,357.179 132.299,356.985 132.299 C 356.791 132.299,356.561 131.688,356.473 130.941 C 356.295 129.411,356.703 129.604,357.086 131.232 M361.979 145.125 C 361.979 145.564,361.804 145.816,361.591 145.684 C 361.377 145.552,361.203 145.192,361.203 144.885 C 361.203 144.577,361.377 144.326,361.591 144.326 C 361.804 144.326,361.979 144.685,361.979 145.125 M362.919 149.079 C 363.068 149.916,363.022 150.533,362.811 150.533 C 362.610 150.533,362.383 149.756,362.307 148.806 C 362.147 146.789,362.544 146.966,362.919 149.079 M363.913 152.958 C 363.916 153.118,363.744 153.249,363.531 153.249 C 363.317 153.249,363.145 152.856,363.149 152.376 C 363.154 151.543,363.895 152.108,363.913 152.958 M201.538 155.617 C 204.480 158.200,202.804 162.964,198.963 162.936 C 197.110 162.923,196.506 162.569,195.233 160.755 C 192.321 156.604,197.685 152.234,201.538 155.617 M364.689 156.450 C 364.692 156.610,364.520 156.741,364.306 156.741 C 364.093 156.741,363.921 156.348,363.924 155.868 C 363.930 155.035,364.671 155.600,364.689 156.450 M367.022 169.008 C 367.022 169.328,366.848 169.482,366.634 169.350 C 366.421 169.218,366.246 168.848,366.246 168.528 C 366.246 168.208,366.421 168.054,366.634 168.186 C 366.848 168.318,367.022 168.688,367.022 169.008 M86.714 176.115 C 91.194 177.595,95.907 179.187,97.187 179.652 C 98.468 180.118,101.697 181.253,104.365 182.174 C 107.032 183.096,110.960 184.488,113.094 185.267 C 115.228 186.046,119.855 187.702,123.375 188.946 C 129.451 191.092,132.488 192.202,138.700 194.548 C 154.283 200.432,159.359 206.818,155.096 215.178 C 153.217 218.863,151.377 222.216,150.288 223.943 C 149.783 224.742,149.370 225.479,149.370 225.579 C 149.370 225.679,148.873 226.512,148.266 227.430 C 147.659 228.347,143.864 234.161,139.834 240.349 C 129.002 256.981,119.277 271.437,116.998 274.297 C 115.893 275.684,114.437 277.627,113.764 278.615 C 112.063 281.109,111.710 281.133,110.159 278.854 C 109.426 277.776,108.346 276.379,107.759 275.749 C 107.173 275.118,106.693 274.462,106.693 274.290 C 106.693 274.117,105.645 272.913,104.365 271.612 C 103.084 270.312,102.037 269.066,102.037 268.844 C 102.037 268.622,101.600 268.036,101.067 267.541 C 100.533 267.047,100.097 266.421,100.097 266.150 C 100.097 265.880,99.790 265.376,99.415 265.031 C 99.041 264.686,98.487 263.923,98.186 263.337 C 97.885 262.750,97.493 262.270,97.316 262.270 C 97.138 262.270,96.993 262.088,96.993 261.865 C 96.993 261.485,96.690 261.046,95.538 259.762 C 95.272 259.465,95.053 258.947,95.053 258.612 C 95.053 258.276,94.879 258.002,94.665 258.002 C 94.452 258.002,94.277 257.767,94.277 257.480 C 94.277 257.193,93.928 256.642,93.501 256.256 C 93.075 255.870,92.726 255.319,92.726 255.032 C 92.726 254.745,92.551 254.510,92.338 254.510 C 92.124 254.510,91.950 254.161,91.950 253.734 C 91.950 253.307,91.775 252.958,91.562 252.958 C 91.348 252.958,91.174 252.609,91.174 252.182 C 91.174 251.756,91.018 251.406,90.828 251.406 C 90.637 251.406,90.372 250.970,90.238 250.436 C 90.104 249.903,89.824 249.467,89.614 249.467 C 89.405 249.467,89.234 249.117,89.234 248.691 C 89.234 248.264,89.059 247.915,88.846 247.915 C 88.632 247.915,88.458 247.600,88.458 247.216 C 88.458 246.349,87.591 244.430,87.197 244.426 C 87.037 244.424,86.906 244.074,86.906 243.647 C 86.906 243.220,86.731 242.871,86.518 242.871 C 86.305 242.871,86.130 242.522,86.130 242.095 C 86.130 241.668,85.955 241.319,85.742 241.319 C 85.529 241.319,85.354 240.970,85.354 240.543 C 85.354 240.116,85.179 239.767,84.966 239.767 C 84.753 239.767,84.578 239.470,84.578 239.107 C 84.578 238.058,83.273 233.948,82.940 233.948 C 82.774 233.948,82.638 233.511,82.638 232.978 C 82.638 232.444,82.464 232.008,82.250 232.008 C 82.037 232.008,81.862 231.407,81.862 230.673 C 81.862 229.938,81.688 229.230,81.474 229.098 C 81.261 228.966,81.086 228.442,81.086 227.934 C 81.086 227.426,80.912 226.902,80.698 226.770 C 80.485 226.638,80.310 226.104,80.310 225.583 C 80.310 225.062,80.136 224.636,79.922 224.636 C 79.709 224.636,79.534 223.938,79.534 223.084 C 79.534 222.231,79.380 221.532,79.192 221.532 C 79.004 221.532,78.727 220.049,78.576 218.236 C 78.425 216.423,78.142 214.842,77.948 214.722 C 77.754 214.601,77.595 213.476,77.595 212.221 C 77.595 210.966,77.420 209.831,77.207 209.699 C 76.993 209.567,76.819 207.986,76.819 206.185 C 76.819 204.188,76.662 202.910,76.417 202.910 C 76.146 202.910,76.083 199.794,76.222 193.307 C 76.335 188.026,76.427 182.483,76.426 180.989 C 76.418 172.185,75.761 172.496,86.714 176.115 M316.753 174.423 C 318.701 182.186,318.515 202.944,316.387 215.131 C 312.564 237.030,301.348 260.130,287.331 274.976 C 285.325 277.101,285.077 277.063,283.565 274.394 C 282.870 273.167,282.190 272.076,282.053 271.969 C 281.916 271.862,281.468 271.164,281.057 270.417 C 280.646 269.670,280.005 268.777,279.631 268.432 C 279.258 268.087,278.952 267.677,278.952 267.520 C 278.952 267.364,278.429 266.747,277.789 266.149 C 277.148 265.551,276.625 264.783,276.625 264.442 C 276.625 264.101,276.462 263.822,276.263 263.822 C 276.064 263.822,275.797 263.493,275.669 263.091 C 275.541 262.689,274.919 261.818,274.285 261.154 C 273.651 260.491,273.133 259.724,273.133 259.449 C 273.133 259.174,272.784 258.698,272.357 258.390 C 271.930 258.082,271.581 257.539,271.581 257.182 C 271.581 256.825,271.311 256.429,270.981 256.303 C 270.650 256.176,270.197 255.546,269.973 254.903 C 269.749 254.260,269.408 253.734,269.215 253.734 C 269.023 253.734,268.865 253.424,268.865 253.044 C 268.865 252.664,268.516 252.102,268.089 251.794 C 267.662 251.487,267.313 251.050,267.313 250.824 C 267.313 250.599,266.964 250.162,266.537 249.855 C 266.111 249.547,265.761 249.023,265.761 248.691 C 265.761 248.358,265.412 247.834,264.985 247.527 C 264.559 247.219,264.210 246.732,264.210 246.445 C 264.210 245.914,262.315 243.171,261.785 242.936 C 261.625 242.865,261.494 242.542,261.494 242.218 C 261.494 241.895,261.014 241.162,260.427 240.590 C 259.282 239.474,258.776 238.743,257.774 236.760 C 257.424 236.067,256.983 235.500,256.794 235.500 C 256.605 235.500,256.450 235.189,256.450 234.809 C 256.450 234.430,256.101 233.867,255.674 233.560 C 255.247 233.252,254.898 232.816,254.898 232.590 C 254.898 232.364,254.549 231.927,254.122 231.620 C 253.695 231.312,253.346 230.750,253.346 230.370 C 253.346 229.991,253.204 229.680,253.030 229.680 C 252.856 229.680,252.421 229.113,252.063 228.419 C 251.108 226.571,250.520 225.695,249.758 224.984 C 249.384 224.636,249.079 224.130,249.079 223.860 C 249.079 223.590,248.773 223.085,248.400 222.736 C 247.611 222.002,247.182 221.327,245.700 218.495 C 245.105 217.358,244.312 216.100,243.939 215.699 C 243.565 215.298,243.259 214.623,243.259 214.200 C 243.259 213.777,243.084 213.323,242.871 213.191 C 242.658 213.059,242.483 212.612,242.483 212.198 C 242.483 211.784,242.308 211.445,242.095 211.445 C 241.882 211.445,241.707 211.009,241.707 210.475 C 241.707 209.942,241.532 209.505,241.319 209.505 C 240.838 209.505,240.816 208.554,241.278 207.657 C 241.468 207.287,241.839 206.023,242.101 204.850 C 242.708 202.133,243.487 201.306,247.109 199.529 C 248.726 198.736,250.107 197.950,250.178 197.782 C 250.249 197.615,250.642 197.478,251.051 197.478 C 251.460 197.478,251.794 197.304,251.794 197.090 C 251.794 196.877,252.024 196.702,252.304 196.702 C 252.584 196.702,253.718 196.266,254.824 195.732 C 255.929 195.199,257.087 194.762,257.395 194.762 C 257.704 194.762,258.052 194.607,258.169 194.417 C 258.287 194.228,258.864 193.952,259.453 193.805 C 260.042 193.659,261.048 193.300,261.688 193.008 C 262.328 192.716,265.907 191.325,269.641 189.916 C 273.375 188.508,277.740 186.851,279.340 186.233 C 280.941 185.616,284.956 184.127,288.264 182.923 C 296.112 180.068,298.378 179.235,299.321 178.857 C 299.748 178.686,300.708 178.336,301.455 178.080 C 302.202 177.823,303.162 177.462,303.589 177.278 C 304.016 177.093,305.587 176.585,307.081 176.149 C 308.574 175.713,311.018 174.933,312.512 174.416 C 316.016 173.205,316.447 173.205,316.753 174.423 M367.792 175.096 C 367.796 175.482,367.624 175.690,367.410 175.558 C 367.197 175.426,367.025 174.848,367.028 174.274 C 367.033 173.457,367.116 173.357,367.410 173.812 C 367.617 174.132,367.789 174.710,367.792 175.096 M233.107 177.942 C 234.921 179.116,235.573 182.027,234.450 183.930 C 232.308 187.555,227.170 186.184,226.682 181.857 C 226.249 178.012,229.836 175.826,233.107 177.942 M169.988 179.103 C 171.976 181.007,171.811 184.139,169.633 185.852 C 167.838 187.264,164.387 186.457,163.434 184.402 C 161.274 179.746,166.364 175.631,169.988 179.103 M368.568 192.897 C 368.572 199.019,368.443 204.109,368.283 204.208 C 368.123 204.307,367.992 199.096,367.992 192.628 C 367.992 186.161,368.121 181.071,368.277 181.317 C 368.434 181.564,368.565 186.774,368.568 192.897 M367.385 211.981 C 367.027 212.315,366.976 212.114,367.165 211.106 C 367.300 210.386,367.440 209.513,367.476 209.166 C 367.511 208.819,367.611 209.213,367.696 210.041 C 367.785 210.909,367.654 211.731,367.385 211.981 M221.448 215.542 C 224.987 218.021,223.433 223.602,219.205 223.602 C 215.173 223.602,213.231 218.192,216.375 215.719 C 217.585 214.767,220.211 214.676,221.448 215.542 M182.267 216.287 C 183.959 217.711,184.503 219.284,183.945 221.145 C 182.776 225.047,177.931 225.338,175.849 221.631 C 173.624 217.670,178.795 213.365,182.267 216.287 M200.776 237.827 C 200.908 238.041,201.600 238.215,202.314 238.215 C 204.376 238.215,208.729 240.764,208.729 241.971 C 208.729 242.253,208.991 242.483,209.311 242.483 C 209.631 242.483,209.893 242.697,209.893 242.959 C 209.893 243.221,211.106 244.661,212.589 246.160 C 214.072 247.658,215.774 249.528,216.372 250.315 C 216.970 251.102,221.922 257.300,227.377 264.088 C 241.898 282.159,248.640 290.837,250.883 294.342 C 251.664 295.563,252.887 297.328,253.601 298.263 C 254.314 299.197,254.898 300.199,254.898 300.489 C 254.898 300.991,248.734 304.171,247.760 304.171 C 247.504 304.171,247.128 304.323,246.925 304.509 C 246.723 304.695,244.374 305.669,241.707 306.673 C 239.040 307.678,236.554 308.661,236.184 308.857 C 235.813 309.054,235.169 309.214,234.752 309.214 C 234.335 309.214,233.898 309.369,233.781 309.558 C 233.665 309.746,233.087 309.989,232.497 310.096 C 231.908 310.203,230.378 310.584,229.098 310.942 C 225.203 312.031,220.434 313.026,217.653 313.331 C 216.693 313.436,215.558 313.681,215.131 313.875 C 213.288 314.713,187.003 315.444,187.003 314.658 C 187.003 314.410,185.533 314.258,183.146 314.258 C 180.993 314.258,179.183 314.087,179.049 313.870 C 178.918 313.657,177.957 313.482,176.916 313.482 C 175.874 313.482,174.914 313.307,174.782 313.094 C 174.650 312.881,173.767 312.706,172.819 312.706 C 171.871 312.706,171.096 312.532,171.096 312.318 C 171.096 312.105,170.495 311.930,169.761 311.930 C 169.027 311.930,168.318 311.756,168.186 311.542 C 168.054 311.329,167.346 311.154,166.611 311.154 C 165.877 311.154,165.276 310.980,165.276 310.766 C 165.276 310.553,164.763 310.378,164.135 310.378 C 163.508 310.378,162.886 310.204,162.755 309.990 C 162.623 309.777,162.001 309.602,161.374 309.602 C 160.746 309.602,160.233 309.407,160.233 309.169 C 160.233 308.927,159.891 308.825,159.457 308.939 C 159.031 309.050,158.584 308.983,158.464 308.790 C 158.345 308.597,157.734 308.438,157.106 308.438 C 156.479 308.438,155.965 308.264,155.965 308.050 C 155.965 307.837,155.616 307.662,155.189 307.662 C 154.762 307.662,154.413 307.488,154.413 307.274 C 154.413 307.061,153.977 306.887,153.443 306.887 C 152.910 306.887,152.473 306.712,152.473 306.499 C 152.473 306.285,152.124 306.111,151.697 306.111 C 151.271 306.111,150.921 305.936,150.921 305.723 C 150.921 305.509,150.398 305.335,149.758 305.335 C 149.117 305.335,148.594 305.160,148.594 304.947 C 148.594 304.733,148.255 304.559,147.841 304.559 C 147.426 304.559,146.988 304.398,146.866 304.201 C 146.744 304.004,146.123 303.728,145.485 303.588 C 144.413 303.352,143.894 302.466,144.654 302.166 C 145.142 301.974,147.818 298.134,147.818 297.626 C 147.818 297.385,147.992 297.187,148.206 297.187 C 148.419 297.187,148.594 296.925,148.594 296.605 C 148.594 296.285,148.768 296.023,148.982 296.023 C 149.195 296.023,149.370 295.776,149.370 295.474 C 149.370 295.171,149.509 294.866,149.680 294.795 C 149.851 294.724,150.849 293.443,151.898 291.950 C 152.947 290.456,153.899 289.146,154.014 289.040 C 154.129 288.933,155.257 287.449,156.521 285.742 C 157.784 284.035,158.926 282.551,159.057 282.444 C 159.189 282.338,160.390 280.766,161.727 278.952 C 164.903 274.643,165.776 273.488,166.246 272.973 C 166.460 272.740,167.285 271.676,168.080 270.610 C 168.875 269.544,169.666 268.497,169.837 268.283 C 170.007 268.070,170.576 267.284,171.100 266.537 C 171.623 265.790,172.435 264.743,172.904 264.210 C 173.373 263.676,175.288 261.232,177.159 258.778 C 179.031 256.324,180.746 254.122,180.970 253.885 C 181.194 253.648,181.901 252.787,182.541 251.972 C 183.181 251.157,185.063 248.907,186.723 246.972 C 188.383 245.036,190.550 242.449,191.538 241.222 C 192.526 239.995,193.569 238.991,193.855 238.991 C 194.141 238.991,194.374 238.817,194.374 238.603 C 194.374 238.390,194.801 238.215,195.321 238.215 C 195.842 238.215,196.376 238.041,196.508 237.827 C 196.640 237.614,197.600 237.439,198.642 237.439 C 199.684 237.439,200.644 237.614,200.776 237.827 M349.317 278.813 C 349.453 279.803,349.564 299.193,349.564 321.903 L 349.564 363.194 364.016 363.067 C 375.172 362.969,378.733 362.819,379.631 362.411 C 380.272 362.120,381.145 361.753,381.571 361.594 C 386.788 359.660,391.026 354.338,391.384 349.273 C 391.478 347.939,391.709 346.848,391.898 346.848 C 392.086 346.848,392.241 343.269,392.241 338.894 C 392.241 334.520,392.091 330.941,391.909 330.941 C 391.726 330.941,391.471 329.677,391.342 328.133 C 391.212 326.589,390.925 325.265,390.704 325.191 C 390.482 325.117,390.301 324.722,390.301 324.313 C 390.301 323.904,390.126 323.569,389.913 323.569 C 389.699 323.569,389.520 323.264,389.513 322.890 C 389.507 322.517,388.972 321.775,388.325 321.242 C 387.678 320.708,386.766 319.915,386.300 319.479 C 385.833 319.042,384.799 318.425,384.001 318.108 L 382.551 317.530 384.874 315.838 C 386.152 314.908,387.197 314.030,387.197 313.888 C 387.197 313.745,387.502 313.281,387.876 312.857 C 388.912 311.678,389.525 310.472,389.525 309.608 C 389.525 309.178,389.681 308.826,389.872 308.826 C 390.722 308.826,391.524 292.824,390.715 292.015 C 390.487 291.787,390.301 290.860,390.301 289.955 C 390.301 289.050,390.126 288.202,389.913 288.070 C 389.699 287.938,389.525 287.491,389.525 287.077 C 389.525 286.663,389.350 286.324,389.137 286.324 C 388.923 286.324,388.749 285.926,388.749 285.440 C 388.749 284.953,388.400 284.304,387.973 283.996 C 387.546 283.689,387.197 283.206,387.197 282.923 C 387.197 282.410,385.507 280.504,385.053 280.504 C 384.921 280.504,384.552 280.242,384.232 279.922 C 383.912 279.602,383.313 279.340,382.901 279.340 C 382.490 279.340,382.153 279.166,382.153 278.952 C 382.153 278.739,381.804 278.565,381.377 278.565 C 380.951 278.565,380.601 278.390,380.601 278.177 C 380.601 277.963,379.990 277.789,379.243 277.789 C 378.497 277.789,377.886 277.614,377.886 277.401 C 377.886 277.149,372.824 277.013,363.478 277.013 L 349.070 277.013 349.317 278.813 M373.148 290.556 C 376.171 292.109,377.657 299.327,376.286 305.800 C 375.262 310.639,373.944 311.617,368.124 311.857 L 363.919 312.030 363.919 303.891 C 363.919 299.415,363.806 294.417,363.668 292.784 L 363.417 289.816 367.563 289.816 C 370.880 289.816,371.997 289.964,373.148 290.556 M372.936 325.251 C 377.016 326.672,377.652 328.425,377.674 338.312 C 377.699 349.755,377.129 350.565,369.108 350.485 C 366.450 350.459,364.214 350.372,364.139 350.291 C 364.064 350.211,363.935 344.428,363.853 337.439 L 363.702 324.733 367.593 324.739 C 369.774 324.742,372.122 324.967,372.936 325.251 " stroke="none" fill="#fbfbfb" fill-rule="evenodd"></path></g></svg>